<svg width="822" height="466" viewBox="0 0 822 466" fill="none" xmlns="http://www.w3.org/2000/svg">
<g clip-path="url(#clip0)">
<path d="M282.168 415.078C331.285 421.325 381.026 422.367 430.559 424.241C453.245 425.074 475.514 424.032 496.534 432.154C516.098 439.858 531.915 455.06 552.103 461.723C567.92 466.721 584.778 466.721 601.22 464.847C670.733 456.934 736.083 418.202 776.459 361.145C813.505 308.878 828.906 242.034 819.124 178.73C813.297 140.414 795.606 104.598 791.444 65.8658C787.073 25.0514 802.474 -10.557 812.464 -49.4972C819.332 -76.5679 822.246 -104.68 821.413 -132.584C820.789 -148.618 818.916 -165.277 811.215 -179.437C790.611 -217.96 738.372 -225.249 694.875 -220.876C640.971 -215.462 587.276 -198.803 539.824 -172.773C502.362 -152.158 465.316 -121.963 422.443 -113.842C373.95 -104.68 336.488 -137.789 292.991 -152.991C194.757 -186.933 76.5433 -119.881 33.2539 -30.9641C-20.0254 78.9847 -13.9899 258.693 85.9088 340.321C140.229 384.676 210.366 405.708 280.087 414.87C280.711 414.87 281.544 415.078 282.168 415.078Z" fill="#E0E8F2"/>
</g>
<defs>
<clipPath id="clip0">
<rect width="822" height="466" fill="white"/>
</clipPath>
</defs>
</svg>
