<svg width="1360" height="345" viewBox="0 0 1360 345" fill="none" xmlns="http://www.w3.org/2000/svg">
<g clip-path="url(#clip0)">
<path fill-rule="evenodd" clip-rule="evenodd" d="M1533.83 615H1553L1534.78 507.025L1536 369.41L1515.11 368.543C1506.55 285.778 1467.37 88.0247 1288.26 73.2639C1197.45 65.7808 1114.85 97.4944 1029.64 130.207C901.838 179.27 768.185 230.58 592.256 155.264C530.658 128.894 479.275 103.766 434.185 81.7153C264.633 -1.20159 184.077 -40.5959 -15.959 61.1459L-143 615H-67.9326L-70.5033 628.008C-70.5033 628.008 -392.931 776.945 -116 755C141 672.008 551.455 706.647 677 738C705.954 745.231 735.78 753.057 766.287 761.061C1010.9 825.243 1299.29 900.909 1532.43 773.394L1533.83 615Z" fill="#1A2B33"/>
</g>
<defs>
<clipPath id="clip0">
<rect width="1360" height="345" fill="white"/>
</clipPath>
</defs>
</svg>
