<svg width="1360" height="571" viewBox="0 0 1360 571" fill="none" xmlns="http://www.w3.org/2000/svg">
<g clip-path="url(#clip0)">
<rect width="1360" height="571" fill="white"/>
<path d="M1018.14 860.442C926.658 880.009 838.982 846.425 746 859.696C703.412 865.736 655.462 914.634 617.211 930.962C581.636 946.373 554.351 971.934 517.428 985.957C488.462 996.618 456.711 1000.2 425.436 1000.96C293.21 1004.19 101.623 966.116 16.1715 891.388C-62.2184 822.945 -40.1256 724.031 -32.1397 629.515C-27.4815 572.327 -48.2823 512.33 -46.8286 454.888C-45.3262 394.362 -31.9895 349.578 -57.2247 294.842C-74.6233 256.774 -84.746 216.344 -87.7786 175.422C-89.2463 151.876 -88.4651 127.153 -76.2965 104.839C-43.842 44.2048 31.115 8.44972 113.76 5.58499C216.175 2.02765 300.097 20.0049 393.76 47.9222C467.715 70.0581 547.673 102.097 629.76 104.839C722.602 107.905 833.706 79.3691 913.124 47.9222C1092.54 -22.5309 1317.21 35.5676 1413.4 156.198C1531.88 305.415 1662.86 654.95 1488.17 795.388C1393.18 871.706 1151.82 831.49 1022.02 859.696C1148 911 1064 930.962 1018.14 860.442Z" fill="#664780"/>
<g style="mix-blend-mode:multiply" opacity="0.4">
<path d="M410.815 1137.17C503.91 1146.35 598.189 1147.88 692.073 1150.64C735.07 1151.86 777.278 1150.33 817.12 1162.26C854.2 1173.59 884.18 1195.92 922.443 1205.72C952.423 1213.06 984.375 1213.06 1015.54 1210.31C1147.29 1198.68 1271.16 1141.76 1347.68 1057.92C1417.9 981.113 1447.09 882.887 1428.55 789.863C1417.5 733.56 1383.97 680.928 1376.08 624.012C1367.8 564.036 1396.99 511.711 1415.93 454.489C1428.94 414.709 1434.47 373.399 1432.89 332.395C1431.7 308.834 1428.15 284.354 1413.56 263.546C1374.51 206.936 1275.49 196.226 1193.05 202.652C1090.88 210.608 989.109 235.088 899.169 273.338C828.165 303.632 757.949 348.001 676.688 359.935C584.777 373.399 506.444 340.338 424 318C237.81 268.122 21.0785 351.061 -60.9713 481.723C-161.956 643.29 -150.516 907.367 38.8296 1027.32C141.786 1092.5 274.723 1123.4 406.87 1136.87C408.054 1136.87 409.632 1137.17 410.815 1137.17Z" fill="#664780"/>
</g>
<g style="mix-blend-mode:multiply" opacity="0.4">
<path d="M204.545 1148.48C274.376 1157 345.021 1157.86 415.382 1159.95C447.605 1160.87 479.212 1159.04 509.173 1170.7C537.059 1181.75 559.73 1203.88 588.489 1213.4C611.018 1220.53 634.955 1220.31 658.276 1217.33C756.871 1204.77 849.128 1146.98 905.668 1062.6C957.545 985.3 1452.88 900.305 1438.11 807.417C1429.31 751.194 1403.78 698.802 1397.33 641.944C1390.56 582.03 1411.84 529.5 1425.49 472.147C1434.86 432.276 1438.7 390.929 1437.13 349.939C1436.02 326.386 1400.13 346.704 1389 326C1359.21 269.669 852 203 781.74 208.466C711.481 213.931 629.26 242.344 562.242 281.229C509.334 312.024 457.15 356.889 396.385 369.398C327.655 383.512 274 335.363 212.025 313.609C72.0658 265.052 -94.8612 365.165 -155.096 496.402C-229.223 658.677 -218.158 922.661 -75.1725 1041.27C2.57537 1105.71 102.459 1135.68 201.587 1148.2C202.474 1148.2 203.659 1148.49 204.545 1148.48Z" fill="#664780"/>
</g>
</g>
<defs>
<clipPath id="clip0">
<rect width="1360" height="571" fill="white"/>
</clipPath>
</defs>
</svg>
