<svg width="93" height="94" viewBox="0 0 93 94" fill="none" xmlns="http://www.w3.org/2000/svg">
<path d="M93 46.5017C93 60.7289 86.6095 73.4661 76.5428 81.9936C68.4385 88.8624 57.9542 93.0018 46.4999 93.0018C39.8742 93.0018 33.5729 91.6162 27.8695 89.1185C23.713 87.3002 19.8753 84.8899 16.459 81.9954C6.39031 73.4661 0 60.7307 0 46.5017C0 20.8204 20.8188 0.00158691 46.5001 0.00158691C72.1814 0.00158691 93 20.8204 93 46.5017Z" fill="#F74C83"/>
<path d="M76.5429 81.9922C68.4386 88.8609 57.9543 93.0004 46.5 93.0004C39.8743 93.0004 33.573 91.6148 27.8696 89.1171C23.7131 87.2988 19.8754 84.8885 16.4591 81.994L18.3533 54.8132C18.3533 50.6815 22.3523 51.4767 24.5083 51.8734C31.0678 53.0842 38.5532 53.7695 46.5 53.7695C54.4506 53.7695 61.9362 53.0844 68.4974 51.8716C70.6573 51.4731 72.7148 55.3164 74.6563 54.8096L76.5429 81.9922Z" fill="#533770"/>
<path d="M75.1784 62.3068C67.2866 64.4838 57.3261 65.7839 46.5002 65.7839C40.2653 65.7839 34.321 65.3513 28.8908 64.5711L27.8696 89.1175C23.7131 87.2993 19.8754 84.8889 16.4591 81.9945L18.3533 54.8137C20.2948 55.3223 22.3523 51.4772 24.5083 51.8739C31.0678 53.0847 38.5532 53.77 46.5 53.77C54.4506 53.77 61.9362 53.0849 68.4974 51.8721C70.6573 51.4735 72.7148 55.3169 74.6563 54.8101L75.1081 61.3219L75.1784 62.3068Z" fill="#48365B"/>
<path d="M46.4997 58.0457C72.115 58.0457 92.8803 50.7744 92.8803 41.8048C92.8803 32.8353 72.115 25.564 46.4997 25.564C20.8844 25.564 0.119141 32.8353 0.119141 41.8048C0.119141 50.7744 20.8844 58.0457 46.4997 58.0457Z" fill="#735F89"/>
<path d="M75.4475 41.8054C75.4475 43.3152 72.908 44.6979 68.6923 45.7712C66.5119 46.3267 63.8813 46.7989 60.9213 47.16C59.963 47.279 58.9712 47.3863 57.9475 47.4773C56.1342 47.6459 54.2257 47.7749 52.2438 47.8602C50.3869 47.9396 48.4664 47.9812 46.5003 47.9812C44.5322 47.9812 42.6077 47.9396 40.7508 47.8602C38.7709 47.7749 36.8644 47.6459 35.0529 47.4794C34.0292 47.3862 33.0352 47.279 32.0771 47.162C29.1171 46.7971 26.4862 46.3248 24.3039 45.7712C20.0881 44.6979 17.5505 43.315 17.5505 41.8054C17.5505 40.3054 20.0523 38.9326 24.2144 37.8633C26.2976 37.3276 28.7972 36.8693 31.6066 36.5082C32.5588 36.3871 33.5469 36.2761 34.5667 36.1769C36.3046 36.0084 38.1357 35.8754 40.0404 35.784C42.1175 35.6829 44.2801 35.6293 46.5001 35.6293C48.7201 35.6293 50.8827 35.6829 52.9598 35.784C54.8623 35.8754 56.6916 36.0082 58.4314 36.1769C59.4511 36.2761 60.4391 36.3873 61.3914 36.5082C64.2027 36.8692 66.7024 37.3276 68.7855 37.8633C72.9458 38.9328 75.4475 40.3054 75.4475 41.8054Z" fill="#48365B"/>
<path d="M68.8035 42.3805C68.7857 43.5312 68.7499 44.664 68.6925 45.7711C64.554 46.8246 58.7987 47.5786 52.2437 47.8601C52.2793 45.8742 52.3724 43.2453 52.5868 40.1801C52.684 38.7973 52.8069 37.3253 52.9597 35.7837C53.2016 33.3573 53.5191 30.7564 53.9398 28.0581C55.3365 19.1031 57.8536 9.06105 62.3709 0.63999C62.9103 -0.365757 64.4121 -0.137616 64.6178 0.985107C65.6086 6.39964 67.5478 17.9793 68.3988 29.8735C68.5913 32.5418 68.7281 35.2261 68.7855 37.8628C68.8193 39.3909 68.8273 40.9005 68.8035 42.3805Z" fill="#FCF8F2"/>
<path d="M40.7507 47.8611C34.1956 47.5794 28.4423 46.8236 24.3038 45.772C24.2462 44.6649 24.2106 43.5322 24.1946 42.3815C24.1706 40.9015 24.1786 39.3897 24.2144 37.8641C24.27 35.2274 24.407 32.5431 24.5973 29.8748C25.4483 17.981 27.3873 6.4019 28.3782 0.986998C28.5836 -0.135725 30.0856 -0.363503 30.6249 0.642062C35.1409 9.06276 37.6593 19.1042 39.0559 28.0593C39.4784 30.7574 39.7979 33.3585 40.0401 35.7849C40.1928 37.3265 40.314 38.7985 40.4112 40.1813C40.6259 43.2465 40.717 45.8752 40.7507 47.8611Z" fill="#FCF8F2"/>
<path d="M68.815 40.9999C68.815 41.4622 68.811 41.9244 68.803 42.3807C68.7852 43.5314 68.7494 44.6641 68.692 45.7712C64.5535 46.8247 58.7982 47.5787 52.2432 47.8603C52.2671 46.541 52.3165 44.9399 52.4097 43.1127C54.3322 43.0274 56.1851 42.9024 57.9469 42.7376C58.9706 42.6463 59.9625 42.5393 60.9209 42.4203C63.8809 42.0594 66.5116 41.5871 68.6918 41.0315C68.7338 41.0217 68.7754 41.0097 68.815 40.9999Z" fill="#E0E0E0"/>
<path d="M40.7504 47.8604C34.1953 47.5787 28.442 46.8229 24.3035 45.7713C24.2459 44.6642 24.2103 43.5315 24.1944 42.3808C24.1864 41.9226 24.1824 41.4623 24.1824 41C24.222 41.012 24.2617 41.0218 24.3035 41.0318C26.4858 41.5852 29.1167 42.0575 32.0767 42.4226C33.035 42.5398 34.0289 42.6468 35.0525 42.7399C36.8142 42.9025 38.6653 43.0277 40.5876 43.1128C40.6812 44.9402 40.7286 46.5411 40.7504 47.8604Z" fill="#E0E0E0"/>
<path d="M62.9744 22.295C62.9624 22.3704 61.9943 28.6002 61.3914 36.5079C61.2525 38.3372 61.1335 40.2575 61.0501 42.2116C60.9747 43.9318 60.933 45.5843 60.921 47.1595C59.9626 47.2785 58.9709 47.3858 57.9471 47.4768C57.953 45.7567 57.9967 43.9456 58.0781 42.0607C58.1635 40.043 58.2884 38.0629 58.4314 36.1762C59.0463 28.1473 60.0286 21.8344 60.0404 21.755C60.1771 20.8801 60.9451 20.2888 61.7565 20.4376C62.5655 20.5889 63.1112 21.4183 62.9744 22.295Z" fill="#C9C9C9"/>
<path d="M35.053 47.484C34.0292 47.3908 33.0353 47.2837 32.0771 47.1667C32.0652 45.5913 32.0236 43.9369 31.9484 42.2168C31.865 40.2627 31.746 38.342 31.6071 36.5131C31.0038 28.605 30.0357 22.3756 30.0241 22.3002C29.8851 21.4234 30.4308 20.5939 31.2403 20.4451C32.0517 20.2943 32.8197 20.8856 32.9565 21.7604C32.9685 21.8398 33.9524 28.1525 34.5674 36.1816C34.7122 38.0683 34.8374 40.0483 34.9225 42.066C35.0032 43.9525 35.0468 45.764 35.053 47.484Z" fill="#C9C9C9"/>
</svg>
