<svg width="428" height="466" viewBox="0 0 428 466" fill="none" xmlns="http://www.w3.org/2000/svg">
<path opacity="0.4" d="M418.558 244.521C413.999 282.555 379.414 309.588 341.371 304.873C327.066 303.144 314.333 297.171 304.272 288.37C280.691 400.744 174.58 478.228 58.5647 464.083C-64.0531 449.152 -151.143 337.721 -136.366 215.287C-121.432 92.6972 -9.97549 5.62676 112.485 20.4004C147.541 24.644 179.61 36.7458 207.278 54.82C231.487 17.5714 275.504 -4.90343 322.664 0.911749C388.218 8.92726 434.907 68.4935 426.889 134.032C424.217 155.878 415.728 175.681 403.309 192.027C414.942 206.172 420.916 224.875 418.558 244.521Z" fill="#D9ECFF"/>
</svg>
