<svg width="44" height="66" viewBox="0 0 44 66" fill="none" xmlns="http://www.w3.org/2000/svg">
<path d="M5.23535 63.6227C6.08205 63.9482 25.8806 68.8161 43.9999 63.6086C43.9999 63.6086 37.7344 60.7642 27.066 61.0756C16.4117 61.3727 5.23535 63.6227 5.23535 63.6227Z" fill="#C1B3AA"/>
<path d="M34.1501 58.7121L34.2489 59.1225C33.3881 58.5706 25.4009 56.4904 21.3085 56.3631C17.2162 56.2357 10.1321 57.4102 7.63438 57.6508C5.12251 57.8914 0 57.4102 0 57.4102C0 57.4102 0.0705581 57.2121 0.197563 56.8866C2.03207 57.0565 6.91469 57.58 9.25722 56.8583C11.7832 56.08 16.7928 53.1508 22.4516 55.2734C26.3323 56.7168 31.1867 58.1461 34.1501 58.7121Z" fill="url(#paint0_linear)"/>
<path d="M34.2489 59.1228C33.3881 58.5709 25.4009 56.4907 21.3085 56.3633C17.2162 56.236 10.1321 57.4105 7.63438 57.6511C5.12251 57.8916 0 57.4105 0 57.4105C0 57.4105 0.0705581 57.2124 0.197563 56.8869C0.663246 55.6699 1.83451 52.6416 2.3143 51.4671C3.8948 47.6746 5.67287 39.835 9.27133 32.986C12.8698 26.1369 18.4862 13.8256 20.2643 13.2737C22.0282 12.7218 23.8627 13.585 23.8627 13.585L34.1501 58.7265L34.2489 59.1228Z" fill="url(#paint1_linear)"/>
<path d="M29.9185 4.87612C29.8857 5.64376 29.6018 6.89116 29.3833 7.53885C29.2959 7.80273 29.2195 7.97065 29.1758 7.95865C28.9901 7.91067 28.9682 6.74723 28.8481 5.93162C28.8262 5.82367 28.8153 5.70373 28.7935 5.59578C28.7826 5.5478 28.7826 5.51182 28.7716 5.46384C28.6515 4.80416 28.5095 4.21644 28.5095 4.21644C28.5095 4.21644 28.0835 4.58826 27.5265 4.97208C27.4718 5.00806 27.4282 5.04404 27.3735 5.08003C27.0677 5.28393 26.74 5.48783 26.4233 5.64376C25.7461 5.9676 24.8286 6.01558 24.1295 5.95561C24.064 5.95561 23.9875 5.94361 23.922 5.93162C23.7363 5.90763 23.5616 5.88364 23.4414 5.84766C22.8407 5.69173 21.9778 6.20749 21.7266 7.28697V7.29897C21.7156 7.34694 21.7047 7.38293 21.6938 7.4309C21.4644 8.43842 21.4426 8.94218 21.4426 8.94218C21.4426 8.94218 21.4207 8.91819 21.3989 8.87021C21.388 8.84623 21.3661 8.82224 21.3443 8.78625C21.2896 8.65432 21.2023 8.4744 21.093 8.31848C21.0603 8.25851 21.0384 8.18654 21.0166 8.12657C20.9947 8.04261 20.9729 7.94666 20.951 7.83871C20.951 7.80273 20.9401 7.76674 20.9401 7.73076C20.8964 7.33495 20.9183 6.89116 20.9183 6.89116C20.9183 6.89116 20.7654 6.74723 20.6889 5.82367C20.6889 5.79968 20.6889 5.78769 20.6889 5.7637C20.6889 5.73971 20.6889 5.72772 20.6889 5.70373C20.678 5.46384 20.678 5.16399 20.7108 4.84014C20.7108 4.80416 20.7217 4.76818 20.7217 4.73219C20.7326 4.60026 20.7544 4.46832 20.7872 4.33638C20.962 3.44881 21.377 2.47727 22.2399 1.94952C22.3273 1.90155 22.4147 1.85357 22.5021 1.80559C22.5239 1.7936 22.5457 1.7816 22.5785 1.76961C23.3759 1.40978 24.0312 1.33781 24.49 1.33781C24.5337 1.33781 24.5774 1.33781 24.621 1.33781C24.9815 1.3618 25.1781 1.43377 25.2109 1.44576C25.1781 1.40978 24.5664 0.882033 24.6975 0.59417C24.7958 0.354285 25.757 0.534199 26.4014 0.690124C26.467 0.702119 26.5325 0.726107 26.5871 0.738101C26.6636 0.76209 26.7291 0.786079 26.7946 0.798073C27.1005 0.894027 27.3517 1.01397 27.5374 1.12192C27.5701 1.14591 27.6138 1.1579 27.6466 1.18189C27.8541 1.31383 27.9743 1.40978 27.9852 1.42177C27.8323 1.10992 28.0507 1.02596 28.2364 1.21787C28.4221 1.40978 28.6187 2.22539 28.6187 2.22539C28.6078 1.93753 28.6515 1.80559 28.7279 1.7816C28.7607 1.76961 28.7935 1.76961 28.8262 1.7936C28.8699 1.81759 28.9027 1.86556 28.9355 1.93753C28.9901 2.04548 29.0119 2.28536 29.0229 2.51325C29.0338 2.6212 29.0338 2.71716 29.0338 2.80112C29.0338 2.94505 29.0338 3.053 29.0338 3.053C29.2195 2.8251 29.5799 3.22092 29.7874 3.84462C29.7984 3.89259 29.8202 3.94057 29.8311 3.98855C29.8421 4.03653 29.853 4.0965 29.8748 4.15647C29.8967 4.38436 29.9294 4.62424 29.9185 4.87612Z" fill="#8E4616"/>
<path opacity="0.25" d="M29.9178 4.8761C29.885 5.64373 29.6011 6.89113 29.3826 7.53882C29.2952 7.8027 29.2188 7.97062 29.1751 7.95862C28.9894 7.91065 28.9676 6.7472 28.8474 5.93159C28.7163 5.11598 28.4979 4.21641 28.4979 4.21641C28.4979 4.21641 27.3619 5.18795 26.4226 5.63174C25.4723 6.07552 24.0415 5.99156 23.4407 5.83564C22.84 5.67971 21.9771 6.19547 21.7259 7.28695C21.4746 8.37842 21.4419 8.93016 21.4419 8.93016C21.4419 8.93016 21.42 8.90617 21.3982 8.8582C21.3873 8.83421 21.3654 8.81022 21.3436 8.77423C21.289 8.6423 21.2016 8.46238 21.0924 8.30646C21.0596 8.24649 21.0377 8.17452 21.0159 8.11455C20.8848 7.73073 20.9176 6.86715 20.9176 6.86715C20.9176 6.86715 20.7647 6.71122 20.6773 5.73968C20.6445 5.37986 20.6664 4.8641 20.7756 4.30037C21.2016 4.69618 21.3217 6.1235 21.3217 6.1235C22.0099 4.62422 23.2878 5.39185 25.1228 5.42783C26.9687 5.45182 28.476 3.6167 28.476 3.6167C28.476 3.6167 28.5743 5.15197 29.186 5.17595C29.6229 5.19994 29.7867 4.60023 29.7977 3.98852C29.8851 4.26439 29.9287 4.56425 29.9178 4.8761Z" fill="#8E4616"/>
<g opacity="0.53">
<path opacity="0.53" d="M27.1762 4.04855C26.3679 3.3049 25.2211 3.55678 24.2926 3.83265C23.6045 4.03655 22.9273 4.28843 22.2173 4.45635C21.7258 4.5763 21.2234 4.67225 20.71 4.72023C20.71 4.75621 20.6991 4.79219 20.6991 4.82818C21.3872 4.7802 22.0863 4.61228 22.7416 4.43237C23.3861 4.26445 23.9977 4.01257 24.6422 3.83265C25.3194 3.65274 26.0949 3.5328 26.7284 3.85664C26.3024 3.76069 25.8327 3.82066 25.4286 3.86863C24.7186 3.95259 24.0196 4.13251 23.3314 4.3604C22.4139 4.66026 21.4855 5.08006 20.6772 5.69176C20.6772 5.71575 20.6772 5.72775 20.6772 5.75173C20.6772 5.77572 20.6772 5.78772 20.6772 5.81171C21.1906 5.42789 21.7477 5.12803 22.3266 4.86416C23.0693 4.52832 23.8557 4.27644 24.6422 4.10852C25.0463 4.02456 25.4613 3.96459 25.8873 3.9406C26.2915 3.91661 26.7502 3.89262 27.1107 4.12051C27.1653 4.1565 27.2199 4.08453 27.1762 4.04855ZM28.3449 3.29291C28.2903 3.05302 27.7879 1.93756 27.6349 1.19391C27.6022 1.16992 27.5694 1.15793 27.5257 1.13394C27.5913 1.48178 27.7333 1.91357 27.8752 2.29739C27.5257 1.70967 27.0779 1.19391 26.5755 0.750126C26.5208 0.738131 26.4553 0.714143 26.3898 0.702148C26.8158 1.06198 27.198 1.48178 27.5148 1.92556C27.8316 2.34536 28.0719 2.82513 28.2575 3.32889C28.2794 3.38886 28.3668 3.35288 28.3449 3.29291ZM27.482 4.97211C26.8267 4.9841 26.1713 5.05607 25.5269 5.23598C24.9698 5.39191 24.4346 5.64379 23.9213 5.93165C23.9868 5.94364 24.0523 5.94364 24.1288 5.95564C24.6531 5.66777 25.1883 5.42789 25.7672 5.28396C26.2478 5.16402 26.7502 5.11604 27.2417 5.09205C27.2854 5.09205 27.3291 5.09205 27.3619 5.08006C27.4165 5.04407 27.4711 5.00809 27.5148 4.97211C27.5039 4.97211 27.493 4.97211 27.482 4.97211ZM20.9503 7.71879C20.9503 7.75478 20.9612 7.79076 20.9612 7.82674C21.0268 7.79076 21.0923 7.75478 21.1578 7.73079C21.3435 7.63483 21.5292 7.52689 21.704 7.41894C21.7149 7.38295 21.7258 7.33498 21.7367 7.287V7.27501C21.4637 7.43093 21.2125 7.58686 20.9503 7.71879ZM29.8085 3.98858C29.7976 3.9406 29.7758 3.89262 29.7649 3.84465C29.6993 4.70823 29.4481 5.81171 28.76 5.46387C28.7709 5.51185 28.7709 5.54783 28.7818 5.59581C28.9129 5.65578 29.0658 5.66777 29.2078 5.6078C29.459 5.49985 29.5901 5.17601 29.6775 4.92413C29.7649 4.67225 29.8085 4.42037 29.8413 4.1565C29.8413 4.09653 29.8304 4.04855 29.8085 3.98858ZM29.0112 2.51328C28.9675 2.60924 28.9457 2.70519 28.9238 2.81314C28.9129 2.4773 28.891 2.14146 28.8255 1.80562C28.7927 1.78163 28.76 1.78163 28.7272 1.79363C28.7491 1.91357 28.7709 2.02152 28.7818 2.12947C28.8364 2.53727 28.8474 2.95707 28.8364 3.37687C28.8037 3.67673 28.8037 3.98858 28.8255 4.28843C28.8364 4.3604 28.9238 4.33641 28.9238 4.27644C28.9238 3.95259 28.9347 3.62875 28.9347 3.3049C28.9566 3.13698 28.9894 2.98106 29.0221 2.82513C29.0221 2.71719 29.0112 2.60924 29.0112 2.51328ZM27.3291 3.44884C27.2417 3.23294 27.0451 3.07701 26.8704 2.94508C26.5864 2.71719 26.2696 2.51328 25.9638 2.30938C25.5269 2.00952 25.0354 1.72166 24.6094 1.34984C24.5657 1.34984 24.522 1.34984 24.4783 1.34984C25.0572 1.88958 25.8546 2.35736 26.0621 2.50129C26.3133 2.66921 26.5645 2.83713 26.8048 3.02904C26.9141 3.113 27.0342 3.20895 27.1325 3.32889C26.6191 3.00505 26.1276 2.63323 25.6033 2.32137C25.1009 2.02152 24.5548 1.8416 23.9868 1.75764C23.5171 1.69767 23.0365 1.69767 22.5559 1.76964C22.5341 1.78163 22.5122 1.79363 22.4795 1.80562C22.3921 1.8536 22.3047 1.88958 22.2173 1.94955C22.4467 1.90157 22.6761 1.86559 22.9055 1.8416C23.6373 1.76964 24.38 1.86559 25.0572 2.15345C25.8436 2.48929 26.5099 3.08901 27.2527 3.5208C27.3073 3.5328 27.351 3.48482 27.3291 3.44884Z" fill="#B55C21"/>
</g>
<path d="M30.36 7.61508C30.3487 8.49113 29.3286 8.81685 29.3286 8.81685C29.3286 8.81685 29.2719 11.8943 27.141 12.9837C26.6876 13.2196 26.1436 13.3544 25.4748 13.3656C24.8287 13.3656 24.2734 13.2196 23.7973 12.9725C21.8251 11.9729 21.213 9.37842 21.213 9.37842C21.1904 9.36719 21.1677 9.35596 21.145 9.35596C20.0342 8.86177 20.1136 7.82847 20.499 7.68246C20.5216 7.67123 20.533 7.67123 20.5556 7.67123C20.6916 7.66 20.8277 7.76109 20.941 7.9071C21.0203 8.07557 21.1224 8.23281 21.2017 8.34512C21.247 8.43498 21.2697 8.49113 21.2697 8.49113C21.2697 8.46867 21.2584 8.44621 21.2584 8.42374C21.2924 8.46867 21.3037 8.49113 21.3037 8.49113C21.3037 8.49113 21.315 8.31143 21.3831 7.95202C21.4284 7.70493 21.4964 7.36798 21.5984 6.95242C21.6324 6.80641 21.6891 6.6604 21.7458 6.53685C22.1085 5.8068 22.8452 5.46986 23.3779 5.5934C24.0013 5.73941 25.4861 5.81803 26.4723 5.40247C27.4584 4.97567 28.6258 4.07715 28.6258 4.07715C28.6258 4.07715 28.8525 4.91951 28.9885 5.68325C29.1245 6.447 29.1359 7.52522 29.3286 7.58138C29.3739 7.59261 29.4532 7.43537 29.5439 7.18828C29.7706 7.00857 30.054 6.94118 30.224 7.12089C30.3033 7.17705 30.36 7.35675 30.36 7.61508Z" fill="#FCD4CB"/>
<path d="M19.9539 6.24072C20.0526 6.45299 20.1796 6.6511 20.2784 6.79261C20.2079 6.63695 20.095 6.41053 19.9539 6.24072Z" fill="#8E4616"/>
<path d="M40.0488 21.1415C39.5267 21.6793 37.7486 21.7217 36.1964 21.3113C34.6441 20.901 31.7371 19.3868 31.7371 19.3868C32.3157 20.8868 32.7531 24.2972 32.9507 26.0236C33.0212 26.6604 33.0636 27.0708 33.0636 27.0708C33.0636 27.0708 31.3561 27.6368 28.308 27.8066C25.5703 27.9481 22.9738 27.6085 22.4658 27.5378C22.4093 27.5236 22.367 27.5236 22.367 27.5236C22.367 27.5236 21.3086 23.4057 21.0687 22.5425C20.8288 21.6793 20.095 19.684 20.095 19.684C20.095 19.684 18.1476 20.9859 16.3978 21.6368C14.6479 22.2878 11.7974 22.783 11.4305 22.4576C11.3035 22.3444 11.1059 22.1179 10.8801 21.75C10.5273 21.1698 10.1322 20.2783 9.96287 19.0189C9.92054 18.75 9.89232 18.467 9.8782 18.1698C9.7512 15.5944 10.1604 12.0425 10.1604 12.0425C9.8782 10.6557 10.6826 9.59436 11.628 9.14153C12.5594 8.6887 13.6601 9.38209 13.9423 9.79247C14.0694 9.97643 14.281 10.3868 14.408 10.8396C14.535 11.2925 14.5633 11.7595 14.3234 12.0849C14.2528 12.184 14.154 12.2547 14.027 12.3255C13.9423 12.3679 13.8436 12.3962 13.7589 12.4387C12.8558 12.7359 11.9526 12.5378 11.9526 12.5378C11.9526 12.5378 11.7833 13.3585 12.122 14.8585C12.2913 15.6368 12.6864 16.684 13.0251 17.5047C13.2932 18.1698 13.5472 18.7076 13.6037 18.8491C13.6178 18.8774 13.6178 18.8915 13.6178 18.8915C13.6178 18.8915 17.823 16.1321 20.349 14.5755C22.875 13.0189 24.7942 13.6557 25.9796 13.6557C26.3041 13.6557 29.7332 13.6557 31.1585 14.4198C33.3176 15.5802 36.3798 17.8444 36.3798 17.8444C36.3798 17.8444 36.3798 17.8302 36.3798 17.8161C36.4363 17.5047 36.2387 16.2453 36.027 15.2123C35.9424 14.7736 35.8436 14.3632 35.7589 14.1085C35.4767 13.2028 34.7429 11.6462 34.7429 11.6462C34.3195 11.5047 32.9789 10.5849 32.8378 10.3868C32.7672 10.2878 32.739 9.77832 32.7814 9.26889C32.8237 8.81606 32.9225 8.36323 33.0918 8.17926C33.4728 7.76889 34.0937 7.98115 34.0937 7.98115C34.4606 7.82549 34.6864 8.27832 34.6864 8.27832C34.6864 8.27832 34.8416 8.09436 35.0392 8.13681C35.2368 8.17926 35.4626 8.56134 35.4626 8.56134C35.4626 8.56134 35.8436 8.29247 36.154 8.6604C36.4645 9.02832 36.4786 10.2878 36.4786 10.2878C36.4786 10.2878 36.5633 9.96228 38.1438 13.1038C38.5953 14.0095 39.0046 14.9859 39.3433 15.9481C39.8089 17.3066 40.1335 18.6085 40.2323 19.5849C40.317 20.3491 40.2605 20.9151 40.0488 21.1415Z" fill="#EB5757"/>
<path d="M18.1758 64.4153C16.9481 64.3304 16.6517 63.637 16.6235 63.3115C16.6094 63.2408 16.6658 63.0427 16.7364 62.8162C16.9481 62.1653 17.3714 61.1323 17.3997 61.0615C17.4843 61.0757 18.6556 61.2738 18.9237 61.6276C19.1918 61.9813 19.5728 63.2125 19.6998 63.6794C19.6998 63.6936 19.714 63.7077 19.714 63.7219C19.841 64.1606 19.3894 64.5143 18.1758 64.4153Z" fill="#1D4C72"/>
<path d="M40.6696 63.9622C40.6696 63.9622 38.7928 64.2311 37.6639 64.1461C36.5349 64.0612 35.2508 63.6933 35.0956 63.4669C35.0532 63.4103 35.025 63.2546 35.0109 63.0565C34.9686 62.5612 34.9827 61.7688 34.9968 61.5282C34.9968 61.4858 34.9968 61.4575 34.9968 61.4575C35.4201 61.6131 36.4644 61.4009 36.4644 61.4009C36.4644 61.4009 36.7043 61.8962 37.5369 62.5612C38.1013 63.0282 39.3855 63.5235 40.1193 63.7782C40.4439 63.8914 40.6696 63.9622 40.6696 63.9622Z" fill="#1D4C72"/>
<path opacity="0.4" d="M18.1758 64.415C16.9481 64.3301 16.6517 63.6367 16.6235 63.3112C16.6094 63.2404 16.6658 63.0423 16.7364 62.8159C16.9199 63.5093 17.188 63.9621 18.204 64.0046C18.8673 64.0329 19.3753 63.9055 19.6998 63.6791C19.6998 63.6933 19.714 63.7074 19.714 63.7216C19.841 64.1603 19.3894 64.514 18.1758 64.415Z" fill="#1D4C72"/>
<path opacity="0.44" d="M40.6697 63.9623C40.6697 63.9623 38.7929 64.2312 37.664 64.1463C36.535 64.0614 35.2509 63.6934 35.0957 63.467C35.0533 63.4104 35.0251 63.2548 35.011 63.0566C35.5613 63.3538 36.1258 63.5236 37.4664 63.6934C38.4119 63.8067 39.4138 63.835 40.1053 63.7783C40.444 63.8916 40.6697 63.9623 40.6697 63.9623Z" fill="#1D4C72"/>
<path d="M27.6728 12.6508L27.2918 13.5989L27.0943 14.0801C25.4714 14.5612 24.0603 14.0518 24.0603 14.0518L23.905 13.698L23.4111 12.5518L23.5099 12.6225C24.1026 12.9338 24.7941 13.1178 25.5984 13.1178C26.431 13.1178 27.1084 12.9338 27.6728 12.6508Z" fill="#E2BEB6"/>
<path opacity="0.3" d="M27.6728 12.6508L27.2918 13.5989C26.2758 13.3301 24.6953 13.4716 23.905 13.698L23.4111 12.5518L23.5099 12.6225C24.1026 12.9338 24.7941 13.1178 25.5984 13.1178C26.431 13.1178 27.1084 12.9338 27.6728 12.6508Z" fill="#E2BEB6"/>
<path d="M14.3234 12.0991C14.2528 12.1982 14.154 12.2689 14.027 12.3397C13.9423 12.3822 13.8436 12.4105 13.7589 12.4529C12.8558 12.7501 11.9526 12.552 11.9526 12.552C11.9526 12.552 11.7833 13.3727 12.122 14.8727C12.2913 15.651 12.6864 16.6982 13.0251 17.5189C12.5594 17.6039 10.7813 18.0142 9.96287 19.0189C9.92054 18.7501 9.89232 18.4671 9.8782 18.1699C9.7512 15.5944 10.1604 12.0425 10.1604 12.0425C9.8782 10.6557 10.6826 9.59442 11.628 9.14159C12.5594 8.68876 13.6601 9.38216 13.9423 9.79253C14.0694 9.9765 14.281 10.3869 14.408 10.8397C14.5209 11.3067 14.5633 11.7878 14.3234 12.0991Z" fill="#8A46C6"/>
<path d="M39.3432 15.9623C38.2002 15.4387 36.8596 15.283 36.0129 15.2406C35.9282 14.8019 35.8294 14.3915 35.7447 14.1368C35.4625 13.2312 34.7287 11.6746 34.7287 11.6746C34.3054 11.5331 32.9648 10.6132 32.8237 10.4151C32.7531 10.3161 32.7249 9.80664 32.7672 9.29721C32.8095 8.84438 32.9083 8.39154 33.0777 8.20758C33.4587 7.79721 34.0796 8.00947 34.0796 8.00947C34.4465 7.85381 34.6723 8.30664 34.6723 8.30664C34.6723 8.30664 34.8275 8.12268 35.0251 8.16513C35.2226 8.20758 35.4484 8.58966 35.4484 8.58966C35.4484 8.58966 35.8294 8.32079 36.1399 8.68871C36.4503 9.05664 36.4644 10.3161 36.4644 10.3161C36.4644 10.3161 36.5491 9.9906 38.1296 13.1321C38.6094 14.0095 39.0186 15 39.3432 15.9623Z" fill="#8A46C6"/>
<path opacity="0.35" d="M22.4516 27.5238C22.3952 27.5097 22.3528 27.5097 22.3528 27.5097C22.3528 27.5097 21.2944 23.3917 21.0545 22.5285C20.8147 21.6653 20.0808 19.67 20.0808 19.67C20.0808 19.67 18.1334 20.9719 16.3836 21.6229C14.6338 22.2738 11.7832 22.7691 11.4163 22.4436C11.2893 22.3304 11.0918 22.104 10.866 21.7361C11.3316 22.0474 11.8961 22.1181 12.4182 22.0757C13.1097 22.0191 18.7261 19.9672 20.095 18.3398C20.095 18.3398 21.0122 19.8681 21.492 22.2597C21.873 24.1417 22.2964 26.5757 22.4516 27.5238Z" fill="#7E0F0F"/>
<path opacity="0.3" d="M36.3657 17.8445C36.4362 17.4059 36.0129 15.0143 35.7448 14.137C35.4625 13.2313 34.7287 11.6747 34.7287 11.6747C34.3054 11.5332 32.9648 10.6134 32.8237 10.4153C32.7531 10.3162 32.7249 9.8068 32.7672 9.29736C32.8378 9.69359 33.0777 10.0615 33.5292 10.3304C34.1784 10.7125 34.9122 11.1087 34.9263 11.2077C34.9404 11.3068 36.4644 13.3162 36.6761 15.7926C36.8455 17.703 36.662 18.17 36.3657 17.8445Z" fill="#3F1B5F"/>
<path opacity="0.41" d="M40.0487 21.1415C39.5265 21.6792 37.7485 21.7216 36.1962 21.3113C34.6439 20.9009 31.7369 19.3867 31.7369 19.3867C32.3155 20.8867 32.753 24.2971 32.9505 26.0235C32.8094 25.4292 32.6119 24.5943 32.3861 23.4481C31.8639 20.7735 30.9185 17.915 30.9185 17.915C33.2328 19.4292 37.3957 20.8867 38.567 20.8867C39.5124 20.8867 40.0205 20.1933 40.218 19.5849C40.3168 20.349 40.2604 20.915 40.0487 21.1415Z" fill="#7E0F0F"/>
<path d="M36.4795 61.3868C36.4795 61.3868 35.9151 61.5 35.4494 61.5C35.28 61.5 35.1248 61.4859 35.0119 61.4434C35.0119 61.4434 35.0119 61.4717 35.0119 61.5142C34.3063 60.3397 32.4577 56.4765 31.7804 53.3632C30.9901 49.7265 31.3852 48.2831 31.3288 47.8585C31.2723 47.434 30.3269 45.4104 29.6495 42.467C28.9721 39.5236 28.3089 35.4623 28.3089 35.4623C27.9984 36.3538 26.0228 43.6274 25.1056 45.6793C24.3576 47.3349 22.8477 51 21.9587 53.6604C21.1402 56.1085 18.9388 61.6132 18.9388 61.6132C18.84 61.4717 18.586 61.3585 18.3179 61.2736C18.1344 61.2029 17.9228 61.1604 17.7675 61.118C17.5841 61.0755 17.443 61.0472 17.4147 61.0472C17.2595 59.8019 17.3018 55.3444 17.6123 53.1227C17.9369 50.7595 19.1928 44.9576 19.6867 43.3302C20.1806 41.7029 22.1421 31.2453 22.3256 30.3397C22.3538 30.1982 22.3679 30.0425 22.382 29.8727C22.4667 28.8963 22.3679 27.5095 22.3679 27.5095C22.3679 27.5095 26.2909 27.7076 28.4924 27.7076C30.6938 27.7076 33.0645 27.0566 33.0645 27.0566C33.0927 27.1698 33.2339 28.1038 33.3891 29.2076C33.4032 29.3208 33.4173 29.4482 33.4455 29.5614C33.629 30.7925 33.8124 32.1368 33.883 32.6321C34.0382 33.6368 35.7175 48.3963 35.7739 51.368C35.8304 54.3538 36.4795 61.3868 36.4795 61.3868Z" fill="#182D4D"/>
<path opacity="0.35" d="M33.4304 29.576C31.991 30.6373 30.0436 30.8496 28.1385 30.8496C25.3868 30.8496 22.8326 30.609 22.8326 30.609C22.8326 32.2647 21.5484 37.8968 21.5484 37.8968C21.0545 41.0807 19.2341 47.3779 18.5568 50.9298C17.9358 54.1845 17.7383 59.4345 17.7524 61.1468C17.5689 61.1043 17.4278 61.076 17.3996 61.076C17.2444 59.8307 17.2867 55.3732 17.5972 53.1515C17.9217 50.7883 19.1777 44.9864 19.6716 43.359C20.1655 41.7317 22.127 31.2741 22.3104 30.3685C22.3387 30.227 22.3528 30.0713 22.3669 29.9015C22.4516 28.9251 22.3528 27.5383 22.3528 27.5383C22.3528 27.5383 26.2758 27.7364 28.4772 27.7364C30.6786 27.7364 33.0494 27.0854 33.0494 27.0854C33.0776 27.1987 33.2187 28.1326 33.3739 29.2364C33.4022 29.3354 33.4163 29.4487 33.4304 29.576Z" fill="#182D4D"/>
<path opacity="0.29" d="M35.4484 61.5C35.2791 61.5 35.1238 61.4858 35.0109 61.4434C35.0109 61.4434 35.0109 61.4717 35.0109 61.5141C34.3054 60.3396 32.4567 56.4764 31.7794 53.3632C30.9891 49.7264 31.3842 48.283 31.3278 47.8585C31.2714 47.4339 30.3259 45.4103 29.6485 42.467C28.9712 39.5236 28.3079 35.4622 28.3079 35.4622C27.9975 36.3537 26.0218 43.6273 25.1046 45.6792C24.3567 47.3349 22.8467 51 21.9577 53.6603C21.1392 56.1085 18.9378 61.6132 18.9378 61.6132C18.839 61.4717 18.585 61.3585 18.3169 61.2736C19.0648 59.6462 21.5767 51.6226 22.9596 48.2122C24.4272 44.6037 27.8422 35.8443 28.1527 33.7075C28.1527 33.7075 29.3098 37.9245 30.5375 42.283C31.7653 46.6273 32.3015 48.0424 32.3015 48.0424C32.3015 48.0424 32.0616 51.1698 33.1623 54.7783C33.8679 57.1556 34.8557 59.9009 35.4484 61.5Z" fill="#182D4D"/>
<path d="M33.3881 29.2222C32.9788 29.5477 31.5253 30.4817 28.2373 30.5383C25.9512 30.5807 24.1732 30.3119 23.0866 30.0571C22.8044 29.9864 22.5645 29.9298 22.381 29.8732C22.4516 29.0807 22.3951 28.0194 22.3669 27.6515C22.3669 27.5666 22.3528 27.51 22.3528 27.51C22.3528 27.51 22.5362 27.5241 22.8326 27.5383C23.9474 27.5949 26.7415 27.7222 28.4772 27.7222C30.6786 27.7222 33.0494 27.0713 33.0494 27.0713C33.0494 27.0854 33.0635 27.1279 33.0635 27.1703C33.1341 27.4675 33.247 28.2883 33.3881 29.2222Z" fill="#8A46C6"/>
<path opacity="0.3" d="M33.0776 27.1698C32.1321 27.8208 29.9731 28.0048 28.1527 28.0472C26.0782 28.0897 23.2418 27.9199 22.3669 27.651C22.3669 27.5661 22.3528 27.5095 22.3528 27.5095C22.3528 27.5095 26.2758 27.7076 28.4772 27.7076C30.6786 27.7076 33.0494 27.0566 33.0494 27.0566C33.0635 27.0849 33.0776 27.1274 33.0776 27.1698Z" fill="#3F1B5F"/>
<path opacity="0.35" d="M22.381 29.8866C22.4516 29.0942 22.3951 28.0329 22.3669 27.6649C22.3669 27.58 22.3528 27.5234 22.3528 27.5234C22.3528 27.5234 22.5362 27.5376 22.8326 27.5517C22.9455 28.2168 23.0866 29.2215 23.0866 30.0706C22.8044 29.9999 22.5645 29.9291 22.381 29.8866Z" fill="#3F1B5F"/>
<path d="M36.7466 58.8677C36.7184 58.8819 36.6761 58.9102 36.6196 58.9243C36.8595 58.7828 36.9301 58.7545 36.7466 58.8677Z" fill="url(#paint2_linear)"/>
<defs>
<linearGradient id="paint0_linear" x1="0" y1="56.8181" x2="34.244" y2="56.8181" gradientUnits="userSpaceOnUse">
<stop stop-color="#F92900"/>
<stop offset="0.9949" stop-color="#DB2B25"/>
</linearGradient>
<linearGradient id="paint1_linear" x1="15.8809" y1="60.4772" x2="28.5567" y2="28.7534" gradientUnits="userSpaceOnUse">
<stop stop-color="#F97272"/>
<stop offset="0.9949" stop-color="#C33030"/>
</linearGradient>
<linearGradient id="paint2_linear" x1="36.627" y1="58.8601" x2="36.85" y2="58.8601" gradientUnits="userSpaceOnUse">
<stop stop-color="#F92900"/>
<stop offset="0.9949" stop-color="#DB2B25"/>
</linearGradient>
</defs>
</svg>
