<svg width="1504" height="410" viewBox="0 0 1504 410" fill="none" xmlns="http://www.w3.org/2000/svg">
<g opacity="0.15">
<path opacity="0.15" d="M234.76 385.452C105.168 385.452 0.113251 376.54 0.113251 365.546C0.113251 354.553 105.168 345.64 234.76 345.64C364.351 345.64 469.406 354.553 469.406 365.546C469.406 376.54 364.351 385.452 234.76 385.452Z" fill="black"/>
</g>
<g opacity="0.45">
<path opacity="0.45" d="M67.7996 185.488C79.9832 167.844 98.4841 156.081 111.119 138.89C124.205 120.793 126.912 98.1728 133.681 76.9096C141.803 51.1223 157.597 27.1446 180.61 12.6675C228.442 -17.1915 280.786 9.95304 307.41 53.8367C325.459 83.6957 344.412 116.269 372.84 136.628C397.207 154.271 425.635 168.296 436.916 198.155C445.039 218.514 442.782 242.039 434.209 265.112C412.549 323.925 347.57 378.666 292.067 356.046C275.371 349.26 260.48 337.949 242.882 332.068C209.941 320.758 178.805 339.307 146.316 342.021C73.2145 348.355 29.444 241.134 67.7996 185.488Z" fill="#FFCA9F"/>
</g>
<path d="M259.127 264.207C259.578 258.778 264.09 253.801 269.505 251.087C280.335 246.111 292.97 244.753 301.995 236.158C310.568 227.562 313.727 214.442 309.215 203.132C302.897 186.845 285.299 182.321 269.505 185.035C267.7 185.488 265.444 185.94 263.639 185.035C261.383 184.13 260.029 181.416 259.578 178.702C257.322 161.51 260.029 142.961 250.553 127.579C240.175 110.388 217.613 106.316 200.465 115.817C188.282 122.603 182.416 133.913 180.159 147.033C178.806 155.629 184.672 180.059 174.293 185.035C172.488 185.94 170.683 185.94 168.878 185.94C151.731 185.035 136.84 184.13 129.62 203.132C123.303 218.966 131.425 237.062 147.219 242.944L170.683 251.992C175.647 253.801 178.806 258.778 178.806 264.207C178.806 280.946 162.561 275.065 152.182 274.612C141.353 274.612 133.23 284.565 129.62 294.066C120.595 318.496 139.096 335.235 159.402 344.283C184.672 356.046 213.551 359.665 241.077 355.594C264.091 352.427 300.641 342.926 309.215 318.044C311.922 309.9 311.471 300.4 307.861 292.256C305.605 286.827 301.995 281.851 297.031 278.684C288.909 273.255 278.079 278.232 269.505 275.97C264.993 275.065 260.932 271.898 259.578 267.374C259.127 266.017 259.127 265.112 259.127 264.207Z" fill="#056ED0"/>
<path d="M218.064 227.562C218.515 227.562 218.966 227.109 219.418 226.657C219.418 226.204 219.418 225.3 218.515 225.3L192.794 217.609C192.343 217.609 191.441 217.609 191.441 218.513C191.441 218.966 191.441 219.871 192.343 219.871L218.064 227.562Z" fill="#D9E8FF"/>
<path d="M218.064 312.162C218.515 312.162 218.966 311.71 219.418 311.257C219.418 310.805 219.418 309.9 218.515 309.9L192.794 302.209C192.343 302.209 191.441 302.209 191.441 303.114C191.441 303.566 191.441 304.471 192.343 304.471L218.064 312.162Z" fill="#D9E8FF"/>
<path d="M220.32 227.562L246.041 219.871C246.492 219.871 246.943 218.966 246.943 218.513C246.943 218.061 246.041 217.609 245.59 217.609L219.869 225.3C219.418 225.3 218.966 226.204 218.966 226.657C219.418 227.109 219.869 227.562 220.32 227.562Z" fill="#D9E8FF"/>
<path d="M220.32 312.162L246.041 304.471C246.492 304.471 246.943 303.566 246.943 303.114C246.943 302.662 246.041 302.209 245.59 302.209L219.869 309.9C219.418 309.9 218.966 310.805 218.966 311.257C219.418 311.71 219.869 312.162 220.32 312.162Z" fill="#D9E8FF"/>
<path d="M220.32 345.64C220.771 345.64 221.674 345.188 221.674 344.283V171.915C221.674 171.463 221.223 170.558 220.32 170.558C219.869 170.558 218.966 171.011 218.966 171.915V344.735C218.966 345.188 219.418 345.64 220.32 345.64Z" fill="#D9E8FF"/>
<path d="M154.438 218.061C170.232 235.705 184.22 255.159 195.501 275.969C204.075 289.542 232.955 345.64 212.649 356.951C191.891 368.261 147.218 310.352 135.035 299.042C122.4 285.47 110.217 271.898 98.9355 257.421C88.5569 244.301 69.1534 224.847 63.7385 208.56C59.2261 194.536 66.8972 180.511 80.4345 175.082C98.9354 167.391 118.79 184.13 133.23 197.25C139.999 203.584 147.67 210.37 154.438 218.061Z" fill="#0052EB"/>
<path d="M194.148 328.449H194.599C195.05 327.996 195.502 327.544 195.05 326.639C164.366 278.684 127.364 234.348 86.3008 194.988C85.8495 194.536 84.947 194.536 84.4958 194.988C84.0446 195.441 84.0446 196.345 84.4958 196.798C125.559 236.157 162.11 280.494 192.794 327.996C193.245 328.449 193.697 328.449 194.148 328.449Z" fill="#D9E8FF"/>
<path d="M138.194 291.804C138.194 291.804 138.645 291.804 138.194 291.804C144.962 290.447 151.28 289.089 157.597 287.732C158.048 287.732 158.499 286.827 158.499 286.375C158.499 285.922 157.597 285.47 157.146 285.47C150.828 286.827 144.511 288.184 138.194 289.542C137.742 289.542 137.291 290.447 137.291 290.899C137.291 291.351 137.742 291.804 138.194 291.804Z" fill="#D9E8FF"/>
<path d="M167.976 279.589C168.427 279.589 168.878 279.136 168.878 279.136C172.037 273.255 174.744 267.374 177.452 261.492C177.903 261.04 177.452 260.135 177.001 259.683C176.549 259.23 175.647 259.683 175.196 260.135C172.488 266.016 169.329 271.898 166.622 277.779C166.171 278.232 166.622 279.136 167.073 279.589C167.524 279.589 167.976 279.589 167.976 279.589Z" fill="#D9E8FF"/>
<path d="M122.851 272.35C129.62 270.54 135.937 269.183 141.803 267.374C142.255 267.374 142.706 266.469 142.706 266.016C142.706 265.564 141.803 265.112 141.352 265.112C135.035 266.469 128.717 268.278 122.4 270.088C121.949 270.088 121.498 270.993 121.498 271.445C121.498 271.898 122.4 272.35 122.851 272.35Z" fill="#D9E8FF"/>
<path d="M152.182 259.23C152.633 259.23 153.085 258.778 153.085 258.325C155.792 252.444 158.5 246.563 161.207 240.229C161.658 239.777 161.207 238.872 160.756 238.419C160.305 237.967 159.402 238.419 158.951 238.872C156.243 244.753 153.536 251.087 150.829 256.968C150.377 257.421 150.829 258.325 151.28 258.778C151.731 259.23 151.731 259.23 152.182 259.23Z" fill="#D9E8FF"/>
<path d="M106.607 253.801C112.924 251.992 119.241 250.182 125.559 248.372C126.01 248.372 126.461 247.468 126.461 247.015C126.461 246.563 125.559 246.11 125.108 246.11C118.79 247.92 112.473 249.73 106.607 251.539C106.155 251.539 105.704 252.444 105.704 252.896C105.704 253.349 106.155 253.801 106.607 253.801Z" fill="#D9E8FF"/>
<path d="M135.035 239.324C135.486 239.324 135.937 238.872 135.937 238.419C138.645 232.538 140.901 226.204 143.609 220.323C144.06 219.871 143.609 218.966 143.157 218.966C142.706 218.513 141.804 218.966 141.804 219.418C139.547 225.299 136.84 231.633 134.584 237.515C134.132 237.967 134.584 238.872 135.035 239.324C135.035 239.324 135.035 239.324 135.035 239.324Z" fill="#D9E8FF"/>
<path d="M89.4597 235.253C89.9109 235.253 89.9109 235.253 89.4597 235.253C95.7771 232.99 102.094 231.181 108.412 228.919C108.863 228.919 109.314 228.014 109.314 227.562C109.314 227.109 108.412 226.657 107.961 226.657C101.643 228.466 95.7771 230.728 89.4597 232.99C89.0084 232.99 88.5572 233.895 88.5572 234.348C88.5572 235.252 89.0084 235.253 89.4597 235.253Z" fill="#D9E8FF"/>
<path d="M117.888 219.871C118.339 219.871 118.79 219.418 118.79 218.966C121.047 212.632 123.303 206.751 125.559 200.417C125.559 199.965 125.559 199.06 124.657 199.06C124.205 198.607 123.303 199.06 123.303 199.965C121.047 206.298 118.79 212.18 116.534 218.513C116.534 218.966 116.985 219.871 117.888 219.871C117.888 219.871 117.437 219.871 117.888 219.871Z" fill="#D9E8FF"/>
<path d="M153.085 311.709C159.402 310.352 166.171 309.447 172.488 308.09C172.939 308.09 173.391 307.185 173.391 306.733C173.391 306.281 172.488 305.828 172.037 305.828C165.72 306.733 158.951 308.09 152.633 309.447C152.182 309.447 151.731 310.352 151.731 310.805C152.182 311.257 152.633 311.709 153.085 311.709Z" fill="#D9E8FF"/>
<path d="M183.318 300.399C183.769 300.399 184.22 300.399 184.22 299.947C187.379 294.066 190.538 288.184 193.696 282.755C194.148 282.303 193.696 281.398 193.245 280.946C192.794 280.493 191.891 280.946 191.44 281.398C188.281 287.279 185.123 293.161 181.964 298.59C181.513 299.042 181.964 299.947 182.415 300.399C182.867 300.399 182.867 300.399 183.318 300.399Z" fill="#D9E8FF"/>
<path d="M171.585 329.353C171.585 329.353 172.037 329.353 171.585 329.353C176.098 328.449 180.61 327.996 185.123 327.544C185.574 327.544 186.025 326.639 186.025 326.187C186.025 325.734 185.123 325.282 184.671 325.282C180.159 325.734 175.647 326.639 171.134 327.091C170.683 327.091 170.232 327.996 170.232 328.449C170.683 328.901 171.134 329.353 171.585 329.353Z" fill="#D9E8FF"/>
<path d="M196.404 320.305C196.855 320.305 197.306 320.305 197.306 319.853C199.563 315.781 202.27 311.71 204.526 307.638C204.978 307.185 204.526 306.281 204.075 305.828C203.624 305.376 202.721 305.828 202.27 306.281C200.014 310.352 197.758 314.424 195.05 318.496C194.599 318.948 195.05 319.853 195.502 320.305C195.953 319.853 195.953 320.305 196.404 320.305Z" fill="#D9E8FF"/>
<path d="M77.2761 215.799C77.7273 215.799 77.7273 215.799 77.2761 215.799C81.7885 213.989 86.301 212.632 90.3621 210.822C90.8134 210.822 91.2646 209.918 91.2646 209.465C90.8134 209.013 90.3622 208.56 89.9109 208.56C85.8497 209.918 81.3373 211.727 77.2761 213.084C76.8248 213.537 76.3736 213.989 76.3736 214.442C76.3736 215.346 76.8248 215.799 77.2761 215.799Z" fill="#D9E8FF"/>
<path d="M99.387 201.774C99.8382 201.774 100.289 201.322 100.741 200.869C102.094 196.345 103.899 191.821 105.253 187.297C105.253 186.845 105.253 185.94 104.351 185.94C103.899 185.94 102.997 185.94 102.997 186.845C101.643 191.369 100.289 195.893 98.4845 200.417C98.0332 200.417 98.4845 201.322 99.387 201.774Z" fill="#D9E8FF"/>
<path d="M305.605 365.999C305.605 364.642 305.605 363.284 305.154 362.38C303.8 347.903 297.031 332.973 283.494 327.544C269.054 321.663 252.809 328.449 239.723 337.045C231.601 342.021 222.576 347.903 213.551 345.188C204.075 342.021 200.465 331.163 196.855 322.115C191.44 307.638 182.867 293.161 168.427 287.732C155.341 282.756 140.45 286.827 129.62 295.423C118.79 304.019 112.022 317.139 107.96 330.259C104.351 341.116 102.997 352.879 99.3868 363.737C98.9356 364.642 98.9356 365.546 98.4843 365.999H305.605Z" fill="#FFCA9F"/>
<path d="M260.762 346.36L261.147 359.927L248.969 360.275L248.583 346.708L260.762 346.36Z" fill="#FCD4CB"/>
<path d="M280.786 362.38V367.356L258.675 367.809C258.224 367.356 258.224 366.451 257.773 365.999C257.773 366.904 257.322 367.356 257.322 368.261L249.199 368.713V361.023L261.383 360.57L280.786 362.38Z" fill="#141D73"/>
<path d="M246.041 348.355H264.09L267.7 272.35L244.236 273.255L246.041 348.355Z" fill="#141D73"/>
<path d="M290.262 141.152V142.509C290.262 146.128 287.104 147.033 283.494 147.033L250.553 147.485C246.943 147.485 244.236 144.319 244.236 140.699V139.342C244.236 135.723 247.394 133.008 251.004 133.008L283.945 136.175C287.104 136.175 290.262 137.532 290.262 141.152Z" fill="#FC957E"/>
<path d="M241.528 135.723C245.589 131.651 249.199 126.222 255.066 126.222C255.066 126.222 268.152 131.651 273.115 133.008C273.115 133.008 274.018 139.794 275.371 148.843C268.152 148.843 260.48 148.39 253.261 147.938C250.553 147.485 247.846 147.485 245.138 146.128C241.979 144.319 241.077 139.794 241.528 135.723Z" fill="#887BF1"/>
<path d="M273.044 101.265L459.654 85.6467L472.192 236.222L285.582 251.841L273.044 101.265Z" fill="#182276"/>
<path d="M285.299 112.496L449.876 98.7219L460.387 224.953L295.81 238.728L285.299 112.496Z" fill="white"/>
<path d="M323.687 156.567L421.713 148.352L422.013 151.959L323.987 160.174L323.687 156.567Z" fill="#C2C4EF"/>
<path d="M324.588 168.792L422.613 160.577L422.913 164.184L324.888 172.398L324.588 168.792Z" fill="#C2C4EF"/>
<path d="M385.858 205.732L426.328 202.341L426.627 205.947L386.158 209.339L385.858 205.732Z" fill="#C2C4EF"/>
<path d="M325.937 180.979L423.963 172.764L424.263 176.371L326.237 184.586L325.937 180.979Z" fill="#C2C4EF"/>
<path d="M227.006 344.531L239.102 345.998L237.476 359.473L225.38 358.006L227.006 344.531Z" fill="#FCD4CB"/>
<path d="M255.968 364.642L255.517 369.618L233.406 366.904C233.406 365.999 232.955 365.546 232.955 364.642C232.955 365.094 232.503 365.999 232.503 366.451L224.381 365.546L225.284 357.855L237.467 359.213L255.968 364.642Z" fill="#182276"/>
<path d="M254.163 284.113H256.419C262.737 284.113 267.7 279.137 267.7 272.803L268.603 203.584C268.603 197.251 262.737 204.489 256.419 204.489H254.163C247.846 204.489 242.882 209.466 242.882 215.799V272.803C242.882 278.684 247.846 284.113 254.163 284.113Z" fill="#141D73"/>
<path d="M217.612 199.06L268.152 198.155L267.249 137.985C267.249 132.104 262.737 128.937 257.322 127.127C254.614 126.222 251.907 125.77 249.199 124.865C247.846 124.413 242.882 122.151 241.528 122.603L237.467 124.413C233.857 125.77 230.247 127.127 226.186 128.032C220.771 129.841 216.71 133.461 216.71 139.342L217.612 199.06Z" fill="#887BF1"/>
<path d="M237.918 180.059L236.565 180.511C232.955 181.416 231.15 178.702 230.247 175.082L219.869 143.866C218.966 140.247 221.222 136.628 224.381 135.723L225.735 135.27C229.345 134.366 232.955 136.628 233.857 139.794L240.626 171.915C241.528 175.535 241.528 179.154 237.918 180.059Z" fill="#FCD4CB"/>
<path d="M277.176 189.56L274.018 195.893L234.308 180.511L237.918 168.749L277.176 189.56Z" fill="#FCD4CB"/>
<path d="M273.115 195.441C273.115 195.893 274.92 197.703 275.371 197.703C276.725 199.06 278.079 199.512 279.884 199.965C282.14 200.417 284.848 200.417 287.104 200.417C288.458 200.417 289.36 199.965 290.714 199.512C291.165 199.06 292.067 199.06 292.519 198.608C293.421 198.155 293.421 197.25 292.519 196.798C292.067 196.346 292.067 196.346 292.067 196.346C291.165 195.441 289.811 194.988 288.909 194.083C285.75 192.274 281.238 188.202 277.176 189.107C275.371 192.274 274.92 192.726 273.115 195.441Z" fill="#FCD4CB"/>
<path d="M228.442 131.651C233.406 134.366 236.565 139.342 238.37 144.319C240.175 149.747 240.175 155.176 240.626 160.605C235.662 162.867 230.699 165.129 226.186 167.844C223.93 161.058 222.125 153.367 220.32 146.581C219.869 143.866 218.966 141.152 219.869 138.437C220.32 134.818 224.381 132.556 228.442 131.651Z" fill="#887BF1"/>
<path d="M233.857 220.776L258.675 216.252C262.737 215.347 269.505 211.728 268.152 198.155L217.612 199.06L219.417 210.37C220.771 217.156 227.088 221.681 233.857 220.776Z" fill="#182276"/>
<path d="M244.236 284.565L246.041 284.113C252.358 283.208 256.419 276.874 255.517 270.993L245.589 214.894C244.687 208.561 238.37 204.489 232.503 205.394L230.698 205.846C224.381 206.751 218.515 204.489 219.417 210.37L233.406 275.97C234.308 282.303 237.918 285.47 244.236 284.565Z" fill="#182276"/>
<path d="M223.478 348.807L241.528 351.07L255.517 273.708L233.406 275.97L223.478 348.807Z" fill="#182276"/>
<path d="M242.431 129.841C245.138 129.389 246.943 127.127 246.943 124.413L245.59 113.102L235.662 114.46L237.016 125.77C237.016 128.032 239.723 130.294 242.431 129.841Z" fill="#FCD4CB"/>
<path d="M234.76 111.293L244.687 109.936L246.492 122.603C241.98 122.603 237.016 119.889 235.662 115.364C235.211 114.46 235.211 113.555 234.76 112.198V111.293Z" fill="#FC957E"/>
<path d="M248.297 119.436C249.2 118.984 249.651 118.531 250.553 118.079C252.358 116.269 253.261 113.102 253.261 110.388C253.261 109.031 250.553 89.5771 250.553 89.5771L230.699 92.2916C231.15 95.9109 231.601 99.5301 232.052 103.149C232.504 106.769 232.504 110.388 233.406 113.555C235.211 118.531 242.882 121.698 248.297 119.436Z" fill="#FCD4CB"/>
<path d="M247.846 108.578V107.674H249.651L246.492 102.697C246.492 102.697 246.492 102.697 246.041 102.697C246.041 102.697 246.041 102.697 246.041 103.149L248.748 107.674H246.943L247.846 108.578C247.394 108.578 247.394 108.578 247.846 108.578Z" fill="#FC957E"/>
<path d="M251.005 108.578C251.005 110.388 249.651 111.745 247.846 111.745C246.041 112.198 244.236 110.84 243.785 109.483L251.005 108.578Z" fill="white"/>
<path d="M230.247 116.722C232.052 117.174 233.406 115.817 234.309 114.46C234.76 112.65 234.309 111.293 233.857 109.483C233.406 108.578 232.955 107.673 232.955 106.769C232.955 105.864 232.955 104.507 233.857 104.054C234.309 104.054 234.76 103.602 235.211 103.602C236.113 103.149 236.113 102.245 236.113 100.887C236.113 99.9825 235.662 99.0777 235.662 98.1729C236.113 96.3632 238.37 95.006 240.175 95.006C242.431 95.006 244.236 95.9108 246.041 96.3632C248.297 96.8157 251.005 96.8157 252.809 95.4584C254.614 94.1012 255.517 91.3867 254.614 89.1247C253.261 87.3151 251.005 86.4103 248.748 86.8627C246.492 87.3151 244.236 87.7675 241.98 87.7675C239.272 87.7675 236.565 86.4102 233.857 85.5054C231.15 84.6006 228.442 84.1482 225.735 85.053C223.027 86.4102 221.222 90.4819 222.125 93.1964C222.576 95.4584 224.381 96.8157 223.479 99.0777C223.027 100.435 221.222 101.34 220.771 102.245C218.515 106.769 223.93 106.316 225.735 107.673C228.442 110.388 226.186 115.364 230.247 116.722Z" fill="#24C8D1"/>
<path d="M297.482 104.507C295.677 104.507 294.775 102.697 294.324 101.34C293.872 100.435 293.421 99.0778 293.872 98.173C294.324 97.7206 294.775 97.2681 295.226 97.2681C297.031 96.8157 301.543 95.9109 301.995 98.6254C302.446 101.34 299.739 104.959 297.482 104.507Z" fill="#FCD4CB"/>
<path d="M269.505 72.3855L268.152 66.0518L269.505 72.3855C269.054 72.3855 269.054 72.3855 269.505 72.3855Z" fill="#F9F9F9"/>
<path d="M269.505 79.624L272.664 79.1716L269.957 72.8378C269.957 72.3854 269.505 72.3854 269.505 72.8378V79.624Z" fill="#DFE060"/>
<path d="M197.625 81.3515L269.863 65.2461L270.156 66.5711L197.918 82.6765L197.625 81.3515Z" fill="#182276"/>
<path d="M219.317 77.6489L248.831 71.0774L252.45 87.4181L222.937 93.9896L219.317 77.6489Z" fill="#182276"/>
<path d="M331.081 129.237C330.953 128.952 330.864 128.663 330.825 128.358C330.77 128.03 330.729 127.7 330.712 127.356C330.683 127.014 330.665 126.657 330.658 126.288C330.652 125.918 330.633 125.55 330.602 125.195C330.576 124.888 330.51 124.573 330.407 124.274C330.217 123.71 329.717 123.285 329.113 123.152C328.72 123.063 328.319 123.048 327.925 123.095C327.426 123.138 326.919 123.219 326.429 123.36C326.001 123.471 325.59 123.63 325.209 123.836L325.061 123.911L325.703 125.385L325.888 125.283C326.159 125.148 326.445 125.037 326.735 124.962C327.062 124.872 327.403 124.806 327.748 124.776C328.004 124.754 328.339 124.762 328.47 124.935C328.542 125.028 328.624 125.23 328.621 125.638C328.518 125.647 328.416 125.656 328.314 125.664C327.956 125.695 327.588 125.752 327.235 125.832C326.818 125.918 326.407 126.077 326.038 126.281C325.72 126.469 325.459 126.726 325.28 127.038C325.103 127.374 325.032 127.738 325.076 128.104C325.1 128.374 325.174 128.639 325.298 128.887C325.544 129.347 325.985 129.679 326.499 129.819C326.788 129.893 327.086 129.916 327.379 129.879C327.827 129.852 328.253 129.717 328.617 129.463C328.822 129.309 329.013 129.132 329.163 128.934L329.44 129.614L331.177 129.463L331.081 129.237ZM328.721 126.949L328.772 127.537C328.682 127.693 328.578 127.825 328.446 127.935C328.253 128.088 328.029 128.169 327.785 128.178C327.62 128.204 327.45 128.17 327.312 128.071C327.188 127.97 327.124 127.828 327.124 127.68C327.115 127.57 327.145 127.468 327.215 127.388C327.309 127.281 327.431 127.209 327.567 127.148C327.754 127.07 327.956 127.028 328.159 126.998C328.247 126.978 328.35 126.969 328.439 126.961C328.528 126.954 328.631 126.945 328.721 126.949ZM320.035 130.219L319.925 130.291C319.717 130.407 319.505 130.487 319.279 130.556C318.992 130.655 318.687 130.706 318.381 130.733C317.857 130.778 317.425 130.692 317.123 130.472C316.808 130.252 316.62 129.862 316.572 129.31L315.992 122.6L317.952 121.751L318.518 128.303C318.521 128.488 318.563 128.669 318.654 128.834C318.699 128.904 318.792 128.945 318.881 128.925C318.97 128.917 319.058 128.897 319.147 128.877C319.26 128.843 319.359 128.797 319.47 128.751L319.68 128.646L320.035 130.219ZM315.539 130.609L315.428 130.668C315.22 130.785 315.008 130.865 314.782 130.934C314.495 131.033 314.19 131.084 313.884 131.11C313.36 131.156 312.928 131.07 312.626 130.849C312.311 130.63 312.123 130.239 312.075 129.688L311.614 124.349L313.573 123.5L314.022 128.693C314.025 128.877 314.067 129.059 314.158 129.224C314.203 129.294 314.297 129.335 314.385 129.315C314.474 129.307 314.563 129.287 314.651 129.267C314.764 129.233 314.863 129.187 314.975 129.14L315.184 129.036L315.539 130.609ZM324.543 129.828L324.434 129.9C324.225 130.016 324.013 130.096 323.788 130.165C323.5 130.264 323.196 130.315 322.889 130.342C322.366 130.387 321.934 130.301 321.631 130.081C321.316 129.861 321.128 129.471 321.081 128.92L320.382 120.837L322.342 119.989L323.027 127.912C323.03 128.097 323.071 128.278 323.163 128.443C323.207 128.513 323.301 128.554 323.389 128.534C323.479 128.527 323.567 128.507 323.655 128.487C323.768 128.452 323.867 128.406 323.979 128.36L324.189 128.255L324.543 129.828ZM311.512 131.205L309.494 131.38L307.824 129.181L307.484 129.568L307.655 131.552L305.689 131.722L304.864 122.183L306.772 121.339L307.307 127.523L308.611 125.189L310.463 125.028L308.755 127.903L311.512 131.205ZM313.456 120.056C313.512 120.705 313.008 121.279 312.331 121.338C311.654 121.396 311.06 120.917 311.004 120.268C310.947 119.619 311.451 119.045 312.128 118.986C312.805 118.928 313.4 119.407 313.456 120.056ZM300.939 132.307C300.327 132.372 299.709 132.364 299.097 132.281C298.694 132.23 298.287 132.142 297.903 132.015L298.383 130.419C298.516 130.469 298.649 130.519 298.793 130.556C298.978 130.602 299.162 130.647 299.357 130.68C299.579 130.71 299.787 130.741 300.008 130.759C300.241 130.776 300.472 130.768 300.714 130.747C301.276 130.698 301.703 130.575 301.981 130.366C302.26 130.169 302.411 129.835 302.356 129.494C302.346 129.224 302.197 128.99 301.978 128.836C301.718 128.661 301.423 128.526 301.119 128.429C300.787 128.31 300.417 128.194 300.02 128.068C299.636 127.953 299.262 127.789 298.911 127.597C298.56 127.405 298.266 127.135 298.02 126.823C297.757 126.451 297.603 126.02 297.59 125.565C297.542 125.162 297.598 124.762 297.718 124.369C297.844 124.037 298.048 123.724 298.31 123.479C298.597 123.22 298.928 123.03 299.29 122.9C299.714 122.752 300.157 122.665 300.604 122.626C301.141 122.579 301.669 122.583 302.2 122.623C302.64 122.659 303.061 122.758 303.461 122.921L303.004 124.491C302.71 124.356 302.394 124.272 302.068 124.226C301.625 124.166 301.186 124.142 300.74 124.193C300.305 124.231 299.968 124.347 299.753 124.538C299.537 124.717 299.43 124.973 299.454 125.243C299.476 125.5 299.612 125.735 299.83 125.876C300.09 126.051 300.384 126.186 300.69 126.295C301.022 126.414 301.393 126.543 301.79 126.669C302.174 126.796 302.548 126.948 302.9 127.152C303.238 127.345 303.544 127.602 303.789 127.914C304.052 128.274 304.204 128.693 304.216 129.123C304.267 129.563 304.214 129.999 304.07 130.419C303.934 130.776 303.718 131.104 303.432 131.375C303.121 131.649 302.754 131.866 302.367 131.998C301.906 132.174 301.425 132.265 300.939 132.307Z" fill="#C2C4EF"/>
</svg>
