<svg width="1360" height="694" viewBox="0 0 1360 694" fill="none" xmlns="http://www.w3.org/2000/svg">
<path d="M352.747 134.06C264.161 179.001 70.8324 373.35 190.708 552.465C346.446 785.354 820.622 688.714 906.955 463.274C945.295 363.119 945.461 204.115 757.058 146.763C683.099 124.197 563.039 27.2007 352.747 134.06Z" fill="#FFFAF5"/>
<g style="mix-blend-mode:multiply" opacity="0.3">
<path d="M686.558 309.521C681.999 347.555 647.414 374.588 609.371 369.873C595.066 368.144 582.333 362.171 572.272 353.37C548.691 465.744 442.58 543.228 326.565 529.083C203.947 514.152 116.857 402.721 131.634 280.287C146.568 157.697 258.025 70.6268 380.485 85.4004C415.541 89.644 447.61 101.746 475.278 119.82C499.487 82.5714 543.504 60.0966 590.664 65.9117C656.218 73.9273 702.907 133.494 694.889 199.032C692.217 220.878 683.728 240.681 671.309 257.027C682.942 271.172 688.916 289.875 686.558 309.521Z" fill="#D9ECFF"/>
</g>
</svg>
