<svg width="91" height="83" viewBox="0 0 91 83" fill="none" xmlns="http://www.w3.org/2000/svg">
<path d="M37.8187 16.7024C38.1125 17.8743 38.1545 19.0463 38.0706 20.26C37.9027 22.7713 37.0212 25.0315 35.678 26.9149L35.72 26.8731C35.0065 27.8776 34.2089 28.7147 33.3275 29.468C33.1596 29.5936 32.9917 29.6773 32.8238 29.7192C32.7399 29.7192 32.6139 29.761 32.488 29.761C32.4041 29.761 32.3621 29.761 32.2781 29.761C31.9843 29.7192 31.7325 29.6773 31.5226 29.5517L31.4806 29.5099C31.2288 29.8866 31.0189 30.2214 30.809 30.5144V30.4726L30.6831 30.64C30.6411 30.6818 30.5992 30.7655 30.5152 30.8492C30.4313 30.933 30.3473 30.9748 30.2634 31.0585C30.1794 31.1004 30.0535 31.1422 29.9276 31.1841H29.8436H29.8017H29.7597H29.7177H29.6757H29.5918L29.3819 31.1004C29.0461 31.0167 28.7943 30.933 28.5424 30.8492L28.6264 30.8911C28.3326 31.3096 27.9968 31.6863 27.703 32.1049C27.577 32.2304 27.4091 32.2723 27.2832 32.2304H27.1993L27.0314 32.1886L26.4437 32.063L26.1499 32.0212L26.1079 34.1139C26.1079 35.0765 26.066 36.0392 26.066 36.96V37.6715V38.0482V38.2156V38.2575C26.066 38.2575 26.066 38.2994 26.066 38.3831C26.066 38.4249 26.066 38.4249 26.024 38.4668C25.94 38.6342 25.8141 38.7179 25.6462 38.7179C25.5623 38.7179 25.5203 38.7179 25.4783 38.676C25.3944 38.6342 25.3104 38.5923 25.2685 38.5505C25.1845 38.5086 25.1425 38.4668 25.1006 38.4249C25.0166 38.3412 24.9327 38.2156 24.8487 38.1319C24.6388 37.8808 24.387 37.5878 24.1771 37.2948L24.1351 37.253L24.0092 37.1274V37.0856V37.0437V37.0019C23.9673 36.8763 23.8833 36.7089 23.8413 36.4996L23.7574 36.1648L23.6734 35.8299C23.6315 35.6625 23.5895 35.4951 23.5475 35.3695V35.4114C23.2117 35.2021 22.9179 34.9928 22.6241 34.7836L22.6661 34.8254C22.5821 34.7417 22.4562 34.6999 22.3722 34.6162C22.2883 34.5324 22.1624 34.4487 22.0784 34.365C22.0364 34.3232 21.9945 34.2813 21.9105 34.1976L21.8685 34.1557C21.8685 34.1139 21.8266 34.1139 21.8266 34.072V34.0302V33.9883V33.9465V33.9046V33.8628L21.4908 33.0257L21.4488 32.8164L21.3649 32.7746L20.7772 32.8164C20.4834 32.8164 20.2315 32.8164 19.9377 32.8164H18.3007C17.2094 32.8164 16.1181 32.8164 14.9848 32.8164C13.8935 32.8164 12.8021 32.8164 11.6688 32.8164C10.4516 32.8164 9.27629 32.7746 8.14299 32.7746H8.39483C7.84917 32.7746 7.30351 32.7327 6.75784 32.7327C6.3381 32.7327 6.00231 32.6908 5.62454 32.649H5.70849H5.58256H5.49862C4.74308 32.5234 4.07149 32.2723 3.44188 31.9793H3.48386C2.93819 31.7282 2.47648 31.4352 2.05673 31.0585C1.63699 30.6818 1.25923 30.2633 0.923432 29.8029C0.461716 29.1332 0.167897 28.338 0 27.5009V27.459C0 27.2498 0 27.0405 0 26.7894C0 26.4545 0.0419742 26.1197 0.0839483 25.7848V25.8267C0.125923 25.7011 0.125923 25.5337 0.167897 25.4082C0.167897 25.3244 0.209871 25.2826 0.209871 25.1989L0.293819 24.9896C0.461716 24.4455 0.713561 23.9432 1.00738 23.4828C1.4691 22.7713 2.05673 22.1435 2.72832 21.6831C3.39991 21.2227 4.19742 20.9297 5.0369 20.7623H5.07887C5.62454 20.6786 6.21218 20.6367 6.75784 20.6786C7.30351 20.7204 7.89114 20.846 8.43681 21.0553C8.98247 21.2646 9.44419 21.5994 9.86393 21.9761C10.2837 22.3528 10.6614 22.7295 10.9972 23.1899C11.7108 24.0688 12.2565 25.0315 12.8441 25.9523L13.054 26.2871C13.1379 26.4127 13.2219 26.4964 13.2638 26.6219C13.3058 26.7056 13.3898 26.7475 13.4317 26.8312L13.4737 26.8731C13.5577 26.9568 13.6416 27.0823 13.6416 27.2079V27.2498C13.6416 27.5009 13.5157 27.6683 13.3058 27.7939H13.2638H13.2219H13.1799L13.0959 27.8357L13.012 27.9613L12.8021 28.0031C12.7182 28.0031 12.6762 28.045 12.5923 28.045L12.4663 28.0868H12.3404C12.2565 28.0868 12.1305 28.0868 12.0466 28.0868C11.7947 28.0868 11.5849 28.045 11.375 27.9613C11.2071 27.9194 11.0812 27.8357 10.9553 27.7939C10.6614 27.6264 10.4096 27.5009 10.1577 27.3335C9.9059 27.166 9.69603 26.9986 9.48616 26.8312L8.81458 26.329C8.6047 26.1615 8.39483 25.9941 8.14299 25.8267L7.97509 25.7011L7.8072 25.5756C7.68127 25.4919 7.55535 25.4082 7.4714 25.3244C7.26153 25.157 7.05166 24.9896 6.88376 24.7803L6.96771 25.0315C7.00969 25.1989 7.05166 25.4082 7.05166 25.6174V25.7011C7.05166 25.8267 7.00969 25.9104 6.92574 25.9941C6.84179 26.0778 6.75784 26.1197 6.63192 26.1197C6.54797 26.1197 6.46402 26.0778 6.38007 26.036C6.3381 25.9941 6.29613 25.9941 6.29613 25.9523L6.25415 25.9104V25.9104C6.08625 25.7011 5.91836 25.4919 5.70849 25.2826C5.45664 25.0315 5.2048 24.7803 4.95295 24.5711C4.70111 24.3618 4.40729 24.1944 4.11347 24.027H4.07149C3.77768 23.9014 3.44188 23.7758 3.10609 23.7758H3.06411C2.85424 23.7758 2.68635 23.8177 2.47648 23.8595H2.4345C2.4345 23.8595 2.39253 23.8595 2.39253 23.9014C2.14068 24.027 1.93081 24.1525 1.76292 24.3199C1.38515 24.6548 1.1333 25.0733 1.00738 25.5756C0.923432 25.9104 0.881458 26.2452 0.881458 26.6219C0.881458 27.3335 1.04935 28.0031 1.38515 28.631C1.72094 29.2588 2.22463 29.761 2.81227 30.1377C3.14806 30.347 3.44188 30.5144 3.77768 30.64H3.81965C4.11347 30.7655 4.44926 30.8492 4.78506 30.933H4.82703C5.49862 31.1004 6.21218 31.1841 6.92574 31.1841C7.26153 31.1841 7.6393 31.1841 8.01707 31.1841H8.26891H8.52076C9.02445 31.1422 9.44419 31.1004 9.86393 31.0585H9.73801L9.36024 30.8074C8.98247 30.5563 8.64668 30.3051 8.35286 30.054L8.39483 30.0959L7.42943 29.3843C7.34548 29.3006 7.17758 29.1751 7.00969 29.0914L6.92574 29.0495C6.75784 28.9239 6.58994 28.8402 6.42205 28.7147C6.12823 28.5054 5.75046 28.338 5.37269 28.2543H5.33072L5.2048 28.2124L5.07887 28.1706H4.95295C4.91098 28.1706 4.91098 28.1706 4.869 28.1706H4.82703C4.65913 28.1706 4.49124 28.2543 4.40729 28.338C4.28137 28.4635 4.19742 28.5891 4.15544 28.7565C4.11347 28.8402 4.11347 28.9239 4.07149 29.0076V29.0914V29.1332V29.1751C4.07149 29.2169 4.02952 29.3006 3.98755 29.3843C3.94557 29.4262 3.9036 29.468 3.81965 29.5099C3.77768 29.5099 3.7357 29.5517 3.69373 29.5517C3.65175 29.5517 3.60978 29.5517 3.60978 29.5517C3.5678 29.5517 3.52583 29.5099 3.48386 29.468C3.44188 29.4262 3.44188 29.4262 3.39991 29.3843C3.31596 29.3006 3.27399 29.2169 3.19004 29.0914C3.10609 28.9239 3.02214 28.7147 2.98017 28.5054C2.98017 28.4635 2.98017 28.4217 2.98017 28.338C2.98017 28.2961 2.98017 28.2961 2.98017 28.2543C2.98017 28.2124 2.98017 28.2124 2.98017 28.1706L3.02214 28.0868C3.06411 28.0031 3.14806 27.9194 3.19004 27.8357C3.27399 27.752 3.31596 27.6683 3.39991 27.5846L3.44188 27.5427H3.48386L3.5678 27.5009C3.60978 27.459 3.65175 27.459 3.7357 27.459C3.86162 27.4172 4.07149 27.4172 4.23939 27.4172C4.28137 27.4172 4.32334 27.4172 4.40729 27.4172C4.61716 27.4172 4.82703 27.459 4.99493 27.5009C5.49862 27.6264 5.91836 27.7102 6.29613 27.8357L6.1702 27.7939C6.54797 27.9194 6.92574 28.045 7.30351 28.1287C7.68127 28.2543 8.05904 28.3798 8.43681 28.4635C8.81458 28.5891 9.19234 28.6728 9.57011 28.7984C10.3256 29.0076 11.1232 29.1332 11.9207 29.2169C12.7182 29.3006 13.5157 29.2588 14.2712 29.1332C15.1107 29.0076 15.8243 28.7147 16.4958 28.338H16.4539C17.1255 27.9194 17.7131 27.4172 18.2168 26.8731C18.3847 26.6638 18.5946 26.4545 18.7625 26.2034C18.8464 25.45 18.9723 24.7803 19.1822 24.1525V24.2362C19.3501 23.6921 19.518 23.2317 19.7279 22.8132L19.6859 22.8969C20.1056 21.9342 20.5673 21.0971 21.113 20.3019L21.071 20.3438C21.6167 19.5067 22.2463 18.7951 22.9179 18.1255C23.2537 17.7906 23.6315 17.4976 24.0092 17.2047H24.0512C24.1351 17.1628 24.2191 17.0791 24.345 17.0372C24.4709 16.9954 24.5549 16.9117 24.6808 16.8698C24.7648 16.828 24.8907 16.7861 25.0166 16.7861L24.9327 16.535C24.8067 16.1583 24.6808 15.8235 24.5129 15.5305V15.5723C24.345 15.2375 24.1351 14.9864 23.8833 14.7352C23.7574 14.6097 23.6315 14.4841 23.5055 14.4004C23.2117 14.1911 22.8759 14.1074 22.4982 14.1074C22.3722 14.1074 22.2043 14.1074 22.0784 14.1493H22.0364H21.9525L21.9105 14.1074C20.5673 14.6515 17.0835 15.0282 15.7403 15.1538L15.4045 15.3631C15.1107 15.5305 14.9008 15.6979 14.691 15.8653H14.7329L14.607 15.949L14.565 15.9909L14.5231 16.0327H14.4811C14.4391 16.0746 14.3971 16.0746 14.3132 16.0746C14.2292 16.0746 14.1873 16.0327 14.1453 15.9909C14.1033 15.949 14.0613 15.8653 14.0613 15.7816V15.7398V15.656C14.0613 15.5305 14.1033 15.4468 14.1453 15.3212C14.2292 15.1119 14.3132 14.9445 14.3971 14.7771C14.607 14.4004 14.8169 14.0656 15.0687 13.7726L15.2366 13.5215L15.3206 13.3959L15.4045 13.2703C15.5304 13.1029 15.6564 12.9774 15.8243 12.8518C16.0761 12.6007 16.3699 12.3495 16.7057 12.0984H16.7477C17.0415 11.8473 17.3773 11.638 17.7131 11.4287C17.881 11.345 18.0489 11.2195 18.2168 11.1358C18.3007 11.0939 18.3847 11.052 18.4686 11.0102L18.5106 10.9683C18.6365 10.6754 18.7205 10.3824 18.8464 10.0894C18.8884 10.0057 18.9304 9.92197 18.9723 9.83826V9.79641V9.75455L19.0143 9.67085C19.0563 9.62899 19.0982 9.58714 19.1402 9.54528C19.3081 9.41972 19.434 9.33601 19.6019 9.21045C19.9377 9.00117 20.2315 8.87561 20.5673 8.70819C21.9945 7.99666 23.7154 7.4107 25.4783 6.9503L25.6462 6.90845C26.2339 6.78288 26.8215 6.65732 27.4091 6.61546C27.3672 6.32248 27.3252 6.0295 27.2832 5.69466C27.2412 5.52725 27.3672 5.40168 27.5351 5.44354C28.2906 5.65281 29.9696 6.28063 31.6905 7.99666C31.6905 8.03852 31.7325 8.03852 31.7325 8.03852L31.7744 8.08037C32.0683 8.3315 32.3201 8.58263 32.572 8.83375L32.7818 9.08488C33.2016 9.50343 33.6213 9.96383 33.9991 10.4242L34.0411 10.4661C34.6707 11.2195 35.3003 12.0147 35.8879 12.8518L35.9299 12.9355C36.0558 12.7262 36.1817 12.517 36.2657 12.3495C36.3077 12.2658 36.4336 12.2658 36.4756 12.3077C36.7694 12.7681 37.441 13.94 37.7348 15.8235C37.6928 16.1583 37.7768 16.4513 37.8187 16.7024ZM21.2809 12.2658L21.2389 12.0566C21.155 12.0984 21.071 12.0984 20.9871 12.0984C20.8612 12.0984 20.6933 12.0984 20.5673 12.0566C20.3155 12.0147 20.0637 11.9728 19.8538 11.8891C19.3081 11.7217 18.8884 11.5543 18.4267 11.345L18.4686 11.3869L18.3007 11.3032V11.2613L18.1748 11.3032C18.0069 11.3869 17.839 11.4706 17.6711 11.5962C16.9995 11.9728 16.4119 12.4751 15.8662 12.9774C15.7403 13.1029 15.6144 13.2703 15.4885 13.3959L15.4045 13.5215L15.3206 13.647L15.2366 13.7726L15.1527 13.8982C15.0687 14.0656 14.9428 14.233 14.8589 14.4004C14.7749 14.5678 14.691 14.7352 14.607 14.9027C14.5231 15.0701 14.4811 15.2375 14.4391 15.4049V15.4468C14.649 15.2794 14.9008 15.1119 15.1107 14.9864H15.1527C15.7403 14.6515 16.4119 14.2748 17.1255 13.9819L17.2514 13.94C17.9649 13.647 18.6785 13.354 19.3921 13.1029C19.7698 12.9774 20.1056 12.8099 20.4414 12.6844C20.6093 12.6007 20.7772 12.517 20.9451 12.4332C21.071 12.3914 21.155 12.3495 21.2809 12.2658ZM21.4488 10.5498C21.4908 10.4661 21.5327 10.4242 21.5747 10.3405C21.6167 10.2987 21.6167 10.2568 21.6587 10.215C21.7006 10.215 21.7006 10.1731 21.7426 10.1312C21.7846 10.0894 21.8685 10.0475 21.9105 10.0057C22.3303 9.7127 22.8339 9.41972 23.3796 9.21045L23.5055 9.16859C24.0512 8.91746 24.5969 8.70819 25.1425 8.54077C25.6882 8.37335 26.2339 8.20594 26.8215 8.03852C27.4091 7.8711 27.9548 7.74554 28.5005 7.61997L28.7103 7.57812H28.8363H28.9622C29.0881 7.57812 29.172 7.53626 29.298 7.53626C29.6338 7.53626 30.0115 7.61997 30.3053 7.74554C30.5572 7.82925 30.7671 7.95481 31.0189 8.08037L30.9769 8.03852C30.7251 7.82925 30.4313 7.61997 30.1375 7.45255L30.0955 7.4107C29.8017 7.24328 29.4659 7.07586 29.1301 6.99215H29.0881C29.0461 6.99215 29.0042 6.99215 28.9622 6.9503C28.9202 6.9503 28.8363 6.90845 28.7943 6.90845C28.7523 6.90845 28.7103 6.90845 28.6684 6.90845H28.5424C28.4585 6.90845 28.3745 6.90845 28.2906 6.90845C28.0807 6.90845 27.9128 6.90845 27.7449 6.9503H27.7869C27.0733 6.99215 26.4018 7.11772 25.6882 7.28514C23.7994 7.74554 22.1204 8.37335 20.5673 9.12674L20.6933 9.08488C20.3155 9.2523 20.0217 9.41972 19.7279 9.62899L19.7698 9.58714C19.6439 9.67085 19.476 9.79641 19.3501 9.88012C19.3081 9.92197 19.2661 9.96383 19.2661 10.0057V10.0475L19.1822 10.2987L19.0982 10.5498C19.0563 10.6335 19.0143 10.8428 18.9723 11.0102V11.0939C19.2661 11.1776 19.6439 11.3032 20.0637 11.3869H20.1476C20.3575 11.4287 20.6093 11.4706 20.8192 11.4706C20.8612 11.4706 20.8612 11.4706 20.9031 11.4706C21.0291 11.4706 21.113 11.4706 21.2389 11.4287L21.3229 11.2195C21.4068 11.0102 21.4488 10.8846 21.5327 10.7591V10.8009C21.3649 10.6754 21.3649 10.5916 21.4488 10.5498ZM28.1227 8.24779C27.7449 8.3315 26.8635 8.54077 25.8141 8.83375C25.0166 9.04303 24.4709 9.2523 24.0932 9.37786C23.9673 9.41972 23.8413 9.46157 23.7574 9.54528C24.429 9.67085 25.6882 9.88012 26.8635 9.62899H26.9054C27.0733 9.58714 27.2412 9.54528 27.4091 9.46157H27.4511C27.577 9.37786 27.9548 8.75005 28.1227 8.24779ZM8.64668 29.761C9.31827 30.1796 10.0738 30.5563 10.8293 30.8911L10.9133 30.933L11.1651 30.8911C11.9626 30.7237 12.6762 30.5563 13.3478 30.3051L13.2219 30.347C13.9774 30.0959 14.649 29.8029 15.2366 29.468L15.1527 29.5099C15.7823 29.1751 16.3699 28.7984 16.8736 28.4217H16.8316C16.7477 28.5054 16.6218 28.5472 16.5378 28.631C15.8662 29.0076 15.1107 29.3006 14.2712 29.4262H14.2292C13.4317 29.5518 12.5923 29.5518 11.7947 29.468C10.9972 29.3843 10.1997 29.2169 9.40221 29.0076C9.02445 28.9239 8.64668 28.7984 8.22694 28.6728C7.84917 28.5472 7.4714 28.4217 7.09363 28.2961C6.71587 28.1705 6.3381 28.045 5.96033 27.9194C5.58256 27.7939 5.2048 27.7102 4.82703 27.6264C4.61716 27.5846 4.44926 27.5846 4.23939 27.5427C4.19742 27.5427 4.15544 27.5427 4.15544 27.5427C3.98755 27.5427 3.81965 27.5846 3.69373 27.6264C3.60978 27.6264 3.5678 27.6683 3.52583 27.7102C3.48386 27.8357 3.35793 28.0031 3.27399 28.1706V28.2124L3.31596 28.338C3.39991 28.5891 3.52583 28.7984 3.65175 28.9658L3.69373 28.8402C3.7357 28.7147 3.77768 28.6309 3.81965 28.5054C3.86162 28.4217 3.9036 28.2961 3.98755 28.2124C4.11347 28.0868 4.23939 27.9613 4.36531 27.8776C4.49124 27.8357 4.61716 27.7939 4.78506 27.7939C4.82703 27.7939 4.869 27.7939 4.91098 27.7939C4.95295 27.7939 5.0369 27.7939 5.07887 27.8357L5.24677 27.8776L5.41467 27.9194L5.54059 27.9613C5.96033 28.1287 6.3381 28.2961 6.67389 28.5054H6.63192C6.96771 28.7147 7.34548 28.9239 7.68127 29.1332C7.97509 29.3425 8.31089 29.5517 8.64668 29.761ZM19.9377 32.2723H20.6093L20.5254 32.1886C20.3575 32.063 20.1896 31.8956 20.0217 31.77C19.9377 31.6863 19.8538 31.6026 19.8118 31.5189C19.7279 31.4352 19.6859 31.3515 19.6439 31.2259C19.0982 30.0959 18.8044 28.7984 18.7205 27.459C18.3007 27.9194 17.881 28.338 17.3773 28.7565C16.8316 29.1751 16.244 29.5936 15.5724 29.9284L15.5304 29.9703C14.9428 30.2633 14.2712 30.5981 13.5996 30.8074L13.5157 30.8492C12.8441 31.1004 12.0466 31.3096 11.2071 31.4352H11.1232L10.8293 31.4771C10.6614 31.5189 10.4516 31.5189 10.2837 31.5608C9.9059 31.6026 9.57011 31.6445 9.19234 31.6863C9.02445 31.6863 8.81458 31.7282 8.64668 31.7282H8.35286H8.05904C8.01707 31.7282 7.97509 31.7282 7.93312 31.7282C7.59732 31.7282 7.26153 31.7282 6.92574 31.6863H6.96771C6.25415 31.6445 5.49862 31.5189 4.78506 31.3096C4.44926 31.2259 4.07149 31.1004 3.7357 30.933C3.39991 30.7655 3.06411 30.5981 2.7703 30.3888C2.14068 29.9703 1.63699 29.4262 1.25923 28.7984V28.7565C0.881458 28.0868 0.629613 27.2916 0.629613 26.4545C0.629613 26.1197 0.671587 25.7848 0.713561 25.4919V25.5337C0.797509 25.157 0.965406 24.7803 1.17528 24.4874C1.4691 24.0688 1.84686 23.7758 2.26661 23.5666L2.35055 23.5247C2.39253 23.5247 2.39253 23.5247 2.4345 23.4828C2.47648 23.4828 2.51845 23.441 2.56042 23.441C2.72832 23.3991 2.93819 23.3573 3.14806 23.3573C3.5678 23.3573 3.94557 23.4828 4.28137 23.6503C4.61716 23.8177 4.95295 24.027 5.24677 24.2781C5.66651 24.6129 6.08625 25.0315 6.42205 25.45C6.46402 25.5337 6.54797 25.5756 6.58994 25.6593L6.67389 25.7848V25.743C6.63192 25.1989 6.46402 24.6966 6.1702 24.2781L5.70849 23.5666L6.46402 23.9851C6.96771 24.2781 7.38745 24.6548 7.84917 24.9478C7.97509 25.0315 8.05904 25.0733 8.18496 25.157L8.52076 25.3663C9.10839 25.7011 9.57011 25.9941 10.0318 26.2871L9.94788 26.2452C10.1577 26.4127 10.4096 26.5382 10.6195 26.6638L10.9553 26.8731L11.1232 26.9568C11.1651 26.9986 11.2491 26.9986 11.2911 27.0405C11.417 27.0823 11.5009 27.1242 11.6268 27.166C11.7947 27.2079 12.0466 27.2916 12.2565 27.3335H12.2984H12.3824H12.4663H12.6762C12.7182 27.3335 12.8021 27.3335 12.8861 27.3335C12.928 27.3335 13.012 27.3335 13.0959 27.3335H13.1799H13.2219C13.2219 27.3335 13.2638 27.3335 13.2638 27.2916C13.2638 27.2916 13.2638 27.2498 13.2638 27.2079C13.2219 27.166 13.1379 27.1242 13.0959 27.0823C13.054 27.0405 13.012 26.9568 12.97 26.9149C12.8021 26.6638 12.6762 26.4545 12.5083 26.2034C12.1305 25.5756 11.8787 25.1152 11.5849 24.6548L11.6688 24.7803C11.333 24.2781 11.0392 23.8595 10.7034 23.441V23.4828C10.3676 23.0643 9.98985 22.6876 9.61208 22.3528C9.23432 22.0179 8.7726 21.725 8.31089 21.5157H8.26891C7.8072 21.3483 7.30351 21.1808 6.75784 21.139H6.71587C6.54797 21.139 6.29613 21.0971 6.08625 21.0971C5.45664 21.0971 4.869 21.1808 4.28137 21.3483H4.32334C3.86162 21.4738 3.35793 21.6831 2.93819 21.9761H2.98017C2.30858 22.3946 1.72094 22.9806 1.3012 23.6503C1.04935 24.0688 0.797509 24.5292 0.629613 25.0315V25.0733C0.587638 25.1152 0.587638 25.1989 0.587638 25.2826L0.419742 25.45C0.293819 25.7848 0.251845 26.2034 0.251845 26.6219C0.251845 27.166 0.293819 27.7102 0.461716 28.2124C0.629613 28.7565 0.881458 29.2169 1.17528 29.6355C1.51107 30.0959 1.84686 30.4725 2.26661 30.8074C3.14806 31.5608 4.28137 32.063 5.49862 32.2723H5.54059H5.62454H5.70849H5.91836C6.1702 32.3141 6.46402 32.3142 6.71587 32.3142C7.26153 32.356 7.8072 32.356 8.35286 32.356C9.44419 32.356 10.5355 32.356 11.6268 32.356C12.7182 32.356 13.8095 32.3142 14.9008 32.3142L19.9377 32.2723ZM23.4636 35.3695C23.5055 35.3695 23.4636 35.3695 23.4636 35.3695V35.3695ZM25.3524 34.072C25.3944 30.2633 25.4363 26.4545 25.3944 22.6458V21.2227C25.3944 20.7623 25.3944 20.26 25.3944 19.7996C25.3944 19.3392 25.3944 18.837 25.3524 18.3766C25.3524 18.0836 25.3104 17.8325 25.2685 17.6232V17.7069C25.2685 17.5814 25.2265 17.4976 25.2265 17.3721C25.1845 17.2047 25.1845 17.0791 25.1006 16.9535V16.9117H25.0586C24.9746 16.9117 24.8487 16.9535 24.7648 16.9954C24.5549 17.0791 24.345 17.2047 24.1771 17.3302C23.7574 17.6232 23.4216 17.9162 23.0858 18.2092C21.7846 19.5067 20.7352 21.0553 19.9797 22.7713L19.9377 22.855C19.6019 23.6503 19.3501 24.5292 19.1822 25.4919V25.5756C19.0982 26.0778 19.0563 26.6638 19.0563 27.2079C19.0563 27.6264 19.0982 28.0031 19.1402 28.3798V28.338C19.2661 29.3425 19.518 30.2633 19.9377 31.0585L19.8958 31.0167C19.9797 31.1841 20.1056 31.3515 20.2315 31.4771C20.3575 31.6026 20.5254 31.7282 20.6933 31.8537C20.8612 31.9793 21.0291 32.063 21.197 32.1886L21.2809 32.2304L21.2389 32.1049C21.113 31.5189 21.0291 30.933 20.9031 30.3051C20.7772 29.6773 20.7352 29.0913 20.6513 28.5054C20.5673 28.0031 20.5254 27.3753 20.5254 26.7475V26.7475C20.5254 26.7056 20.5673 26.6638 20.6093 26.6638C20.6513 26.6638 20.6933 26.7056 20.6933 26.7056C20.7352 27.2916 20.8612 27.8776 20.9871 28.5054C21.113 29.0913 21.2389 29.6773 21.3649 30.2633C21.7426 31.77 22.0784 32.942 22.4142 34.0302L22.2883 33.6535C22.4142 33.7372 22.4982 33.8209 22.6241 33.9046C22.8339 34.0302 23.0858 34.1976 23.3376 34.365L23.3796 34.4069C23.2957 33.8209 23.1697 32.942 23.0858 32.063V31.8537C23.0858 31.6863 23.0438 31.4771 23.0438 31.3096L23.0858 30.8074V30.5144V30.2214V29.9284V29.6355V29.3425V29.2169V29.0914C23.0858 28.9239 23.0858 28.7147 23.0858 28.5472C23.0858 28.3798 23.0858 28.1706 23.1278 28.0031C23.1278 27.9613 23.1697 27.9194 23.2117 27.9194C23.2537 27.9194 23.2957 27.9613 23.2957 28.0031C23.3376 28.7147 23.4216 29.468 23.5055 30.1796C23.5895 30.8911 23.7154 31.6445 23.8413 32.356C23.8833 32.5234 23.8833 32.7327 23.9253 32.9001L24.0092 33.4442L24.2191 34.5324L24.345 35.2858C24.387 35.4114 24.387 35.4951 24.429 35.6207L24.5129 35.9555L24.5969 36.2903C24.6388 36.4159 24.6388 36.5415 24.6808 36.6252V36.5833V36.6252L24.7648 36.7507C24.9746 37.0437 25.1845 37.2948 25.3944 37.546V37.5041V36.8344C25.3524 35.9973 25.3524 35.0347 25.3524 34.072ZM26.1079 22.6458C26.1499 24.5711 26.1919 26.4545 26.1919 28.3798C26.1919 29.1332 26.1919 29.8866 26.1919 30.64L30.5152 21.5575C31.2288 19.5485 31.9004 17.958 32.6559 16.3676L32.488 16.7024C32.7818 16.0746 33.0756 15.5305 33.3695 15.0282L33.3275 15.1119C33.4954 14.8608 33.6213 14.6097 33.8312 14.3586C33.9991 14.1074 34.2089 13.8982 34.4188 13.647C34.5447 13.5215 34.6287 13.4378 34.7966 13.354C34.9225 13.2703 35.0904 13.1866 35.2583 13.1448H35.3003C34.7126 12.224 34.167 11.4287 33.5374 10.7172L33.5793 10.8009C33.2435 10.3824 32.9497 10.0057 32.6139 9.67085V9.7127L32.572 9.67085L32.2362 9.37786C32.0263 9.21045 31.8164 9.04303 31.6066 8.87561L31.5646 8.83375C31.3547 8.66634 31.1029 8.49892 30.851 8.37335C30.6411 8.24779 30.3893 8.12223 30.1375 8.03852H30.0955C29.8436 7.95481 29.5918 7.91295 29.298 7.8711C29.298 7.8711 29.256 7.8711 29.214 7.8711C29.0881 7.8711 28.9622 7.8711 28.8782 7.91295H28.7943H28.7103L28.5005 7.95481C28.5005 7.99666 28.5005 7.99666 28.5005 8.03852C28.3745 8.54077 28.1647 8.95932 27.9548 9.33601C28.2906 9.29415 28.6264 9.2523 28.9622 9.29415C29.0461 9.29415 29.0881 9.33601 29.0881 9.41972C29.0881 9.50343 29.0461 9.54528 28.9622 9.54528C28.4165 9.58714 27.9548 9.67085 27.4511 9.79641H27.4931C27.2832 9.88012 27.0733 9.92197 26.8635 9.96383C26.2339 10.1731 25.6882 10.4242 25.1845 10.6754L25.2265 10.6335C25.1425 10.6754 25.1006 10.7172 25.0586 10.7172C25.0166 10.7591 25.0166 10.7591 24.9746 10.7591C24.8907 10.7591 24.8487 10.7172 24.8487 10.6335C24.8487 10.6335 24.8487 10.6335 24.8487 10.5916C24.8487 10.5498 24.8487 10.5498 24.8907 10.5498C24.9327 10.5079 24.9327 10.5079 24.9746 10.4661C25.0586 10.3824 25.1845 10.2987 25.3104 10.2568C25.3944 10.215 25.5203 10.1312 25.6042 10.0894H25.4783C24.387 10.0894 23.4636 9.88012 23.1697 9.75455C22.792 9.96383 22.4562 10.1731 22.1624 10.3824H22.2043L22.0364 10.5079H21.9945C21.9945 10.5079 21.9945 10.5498 21.9525 10.5498C21.9105 10.5916 21.9105 10.6335 21.8685 10.7172C21.8266 10.8428 21.7846 10.9683 21.7426 11.0939C21.7006 11.1776 21.7006 11.3032 21.6587 11.4287V11.4706V11.5543V11.638V11.7636L21.7006 12.0147V12.0566C21.9105 11.931 22.0784 11.8473 22.2043 11.7636C22.2463 11.7636 22.2463 11.7217 22.2883 11.7217C22.3722 11.7217 22.4562 11.8054 22.4982 11.8891C22.5401 12.2658 22.4142 12.9774 22.1624 13.4378H22.2043C22.2883 13.4378 22.4142 13.3959 22.5401 13.3959C22.75 13.3959 22.9179 13.4378 23.0858 13.4796C23.5055 13.6052 23.8413 13.8144 24.0932 14.0656C24.2191 14.1911 24.345 14.3586 24.4709 14.526C24.5969 14.6934 24.6808 14.8608 24.7648 15.0282C24.9327 15.3212 25.1006 15.656 25.2265 16.0327V16.0746C25.2684 16.242 25.4363 16.828 25.4783 16.9954C25.5203 17.121 25.5623 17.3302 25.6042 17.4976C25.6462 17.7488 25.6882 17.958 25.7302 18.2092C25.8981 19.423 26.024 20.8879 26.066 22.3946L26.1079 22.6458ZM25.1425 10.7172C25.1425 10.7172 25.1425 10.6754 25.1425 10.7172V10.7172ZM37.6928 20.2182C37.7768 19.0881 37.6928 17.9162 37.441 16.828C37.315 16.2002 37.1052 15.6979 36.8533 15.1956V15.2375C36.6015 14.7352 36.3077 14.2748 35.8879 13.8982C35.8459 13.8563 35.804 13.8144 35.72 13.7726L35.678 13.647C35.5941 13.6052 35.5101 13.5633 35.4262 13.5633C35.3842 13.5633 35.3422 13.5633 35.3422 13.5633C35.2583 13.6052 35.1324 13.647 35.0065 13.6889C34.8805 13.7726 34.7966 13.8563 34.7126 13.94C34.5028 14.1493 34.3349 14.3586 34.167 14.5678C33.9991 14.7771 33.8312 15.0282 33.7053 15.2794C33.4534 15.656 33.2016 16.1583 32.9497 16.7024L32.9077 16.828C32.6559 17.3302 32.4041 17.8743 32.1942 18.4184C31.8584 19.13 31.4387 20.2182 31.0609 21.3064L30.893 21.725L26.2339 31.5608H26.5277L27.0733 31.6026C27.3252 31.3096 27.619 31.0167 27.8708 30.7237L27.9128 30.6818C27.9968 30.5563 28.0807 30.4725 28.1647 30.3888L28.5005 30.0122C29.0042 29.4262 29.5918 28.7565 30.1794 28.045L30.2634 27.9194L30.5992 27.5009L30.935 27.0823C30.9769 26.9986 31.0609 26.9568 31.1029 26.8731L31.2708 26.6638L31.4806 26.329L31.6485 26.1197L31.8164 25.9104L31.9004 25.7848L32.2781 25.1989L32.572 24.7385C32.572 24.6966 32.6139 24.6966 32.6139 24.6966C32.6559 24.6966 32.6979 24.7385 32.6979 24.7803V24.8222L32.446 25.3244L32.1522 25.7848L32.1102 25.9104L32.0263 26.036L31.9004 26.2452L31.7744 26.4964L31.4806 26.9568C31.4387 27.0405 31.3967 27.1242 31.3127 27.2079L31.0189 27.6683L30.6831 28.1287L30.3473 28.5891C29.9276 29.1751 29.5078 29.761 29.0881 30.3051C29.214 30.347 29.4239 30.3888 29.6757 30.4307H29.7597H29.8017H29.8436C29.8436 30.4307 29.8856 30.4307 29.9276 30.3888C29.9696 30.3888 30.0115 30.347 30.0535 30.3051L30.3053 30.054C31.0189 29.3006 31.7325 28.4635 32.446 27.5846L32.53 27.459C32.6559 27.3335 32.7399 27.2079 32.8238 27.0823C32.9077 26.9568 33.0337 26.8312 33.1176 26.7056L33.4114 26.329L33.7053 25.9523C34.0411 25.4919 34.4188 24.9478 34.7546 24.4036L34.7966 24.3199L34.8386 24.2781H34.8805C34.9225 24.2781 34.9225 24.3199 34.9225 24.3618C34.5447 25.0315 34.2089 25.6174 33.8312 26.1615L33.8732 26.0778L33.5793 26.4964L33.2855 26.9149C33.2016 27.0405 33.0756 27.166 32.9917 27.3335L32.6979 27.752C32.3201 28.2543 31.9843 28.7565 31.5646 29.2169L31.7325 29.2588C31.8584 29.3006 32.0263 29.3425 32.1522 29.3425C32.2781 29.3425 32.446 29.3425 32.572 29.3425C32.6979 29.3006 32.8238 29.2588 32.9077 29.1751C34.6707 27.7102 36.0138 25.8267 36.7694 23.6921L36.8113 23.6084C37.1891 22.6039 37.441 21.4738 37.5249 20.3019L37.6928 20.2182Z" fill="#182D4D"/>
<path d="M52.8455 20.26C52.8035 20.0089 52.8035 19.674 52.8035 19.3392C52.8035 18.4184 52.9294 17.4976 53.1393 16.6187V16.7024C53.2232 16.4094 53.2652 16.1583 53.3911 15.9071C53.643 14.0237 54.3565 12.8518 54.6504 12.3914C54.6923 12.3077 54.8183 12.3077 54.8602 12.4332C54.9442 12.6425 55.0701 12.8518 55.196 13.0192C55.8256 12.0565 56.4553 11.2613 57.1268 10.4661L57.0849 10.5079C57.5046 10.0057 57.9243 9.58711 58.3441 9.16856L58.554 8.91743C58.8058 8.66631 59.0576 8.41518 59.3515 8.16405L59.3934 8.1222C59.3934 8.08034 59.4354 8.08034 59.4354 8.08034C61.1564 6.32245 62.8353 5.73649 63.5909 5.52722C63.7588 5.48536 63.8427 5.61092 63.8427 5.77834C63.8007 6.11318 63.7588 6.40616 63.7168 6.69914C64.3044 6.741 64.8921 6.86656 65.4797 6.99212C67.4105 7.45252 69.0895 8.08034 70.7265 8.83372L70.5586 8.75002C70.8944 8.91743 71.1882 9.08485 71.524 9.25227C71.6919 9.33598 71.8178 9.46154 71.9857 9.58711C72.0277 9.62896 72.1116 9.71267 72.1536 9.75452V9.79638V9.83823C72.1956 9.92194 72.2375 10.0057 72.2795 10.0894L72.6153 10.9683H72.6573C72.7412 11.0102 72.8252 11.052 72.9091 11.0939C73.077 11.1776 73.2449 11.3031 73.4128 11.3869C73.7486 11.5961 74.0844 11.8054 74.3782 12.0565C74.672 12.3077 74.9659 12.5588 75.2597 12.8099C75.3856 12.9355 75.5535 13.1029 75.6794 13.2285L75.7634 13.354L75.8473 13.4796L75.9732 13.7726C76.1831 14.0655 76.393 14.3585 76.6028 14.7352L76.6448 14.7771C76.7288 14.9445 76.8127 15.1119 76.8967 15.3212C76.9386 15.4049 76.9386 15.5305 76.9806 15.656V15.7397V15.7816C76.9806 15.8234 76.9806 15.8653 76.9386 15.9071C76.8967 15.9909 76.8547 16.0327 76.7707 16.0746C76.7288 16.0746 76.7288 16.0746 76.6868 16.0746C76.6028 16.0746 76.5609 16.0327 76.5189 16.0327L76.4769 15.9909L76.435 15.949L76.309 15.8653C76.0992 15.6979 75.8893 15.5723 75.6374 15.4049H75.5955C75.4695 15.3212 75.3856 15.2793 75.2597 15.1956C73.9165 15.0701 70.4326 14.6934 69.0895 13.9818L69.0475 14.0237H68.9636H68.9216C68.8796 14.0237 68.7957 13.9818 68.7537 13.9818C68.7117 13.9818 68.6278 13.9818 68.5438 13.9818C68.166 13.9818 67.8302 14.1074 67.5364 14.2748C67.4105 14.3585 67.2426 14.4841 67.1587 14.6097C66.9068 14.8608 66.7389 15.1538 66.571 15.4467C66.4451 15.7397 66.2772 16.0327 66.1933 16.4094V16.4513C66.1513 16.535 66.1513 16.6187 66.1093 16.7442C66.2352 16.7442 66.3192 16.7861 66.4451 16.8279C66.571 16.8698 66.6969 16.9535 66.7809 16.9954C66.9068 17.0372 66.9908 17.1209 67.1167 17.2046C67.5364 17.4976 67.8722 17.7906 68.25 18.1254C68.9216 18.7951 69.5512 19.5066 70.0549 20.3019L70.0969 20.3437C70.6005 21.0552 71.0623 21.8923 71.44 22.7713L71.482 22.855C71.6499 23.2317 71.8178 23.6502 71.9437 24.1106L71.9857 24.1943C72.1536 24.7803 72.3215 25.45 72.3635 26.1196V26.1615C72.5314 26.3708 72.6993 26.6219 72.9091 26.8312C73.4128 27.4171 74.0005 27.9194 74.714 28.2961C75.3436 28.6728 76.0572 28.9239 76.8547 29.0913H76.8967C77.6522 29.2169 78.4497 29.2587 79.2472 29.175C80.0447 29.0913 80.8003 28.9658 81.5978 28.7565C81.9755 28.6728 82.3533 28.5472 82.7311 28.4216C83.1088 28.2961 83.4866 28.1705 83.8644 28.0868C84.2421 27.9612 84.6199 27.8357 84.9977 27.752C85.2076 27.7101 85.3754 27.6264 85.5853 27.5846C85.7952 27.5427 85.9631 27.5008 86.173 27.459C86.3828 27.4171 86.5927 27.3753 86.7606 27.3753C86.9705 27.3753 87.1803 27.3753 87.3902 27.4171C87.4742 27.459 87.5581 27.459 87.6421 27.5008H87.684L87.726 27.5427C87.81 27.6264 87.8519 27.7101 87.9359 27.7938C87.9778 27.8775 88.0618 27.9612 88.1038 28.045C88.1038 28.0868 88.1457 28.0868 88.1457 28.1287C88.1457 28.1287 88.1457 28.1705 88.1457 28.2124C88.1457 28.2542 88.1457 28.2542 88.1457 28.2961C88.1457 28.3379 88.1457 28.3798 88.1457 28.4635C88.1038 28.7146 88.0198 28.882 87.9359 29.0913C87.8939 29.175 87.81 29.3006 87.726 29.3843C87.684 29.4262 87.684 29.4262 87.6421 29.468C87.6001 29.5099 87.5581 29.5099 87.5161 29.5517C87.4742 29.5517 87.4742 29.5517 87.4322 29.5517C87.3902 29.5517 87.3482 29.5517 87.3063 29.5099C87.2643 29.468 87.1803 29.468 87.1384 29.3843C87.0964 29.3006 87.0544 29.2169 87.0544 29.175V29.1332V29.0913V29.0076C87.0124 28.9239 87.0124 28.8402 86.9705 28.7565C86.9285 28.5891 86.8445 28.4635 86.7186 28.3379C86.5927 28.2124 86.4668 28.1705 86.2989 28.1705H86.2569C86.173 28.1705 86.089 28.1705 86.0051 28.2124C85.9631 28.2124 85.9211 28.2124 85.8791 28.2542L85.7532 28.2961C85.3755 28.3798 85.0397 28.5891 84.7039 28.7983C84.536 28.882 84.3681 29.0076 84.2002 29.1332C84.0323 29.2587 83.8644 29.3843 83.7385 29.468L82.7731 30.1795C82.5212 30.3888 82.1854 30.5981 81.8916 30.8492L81.8076 30.8911L81.4299 31.1422C81.6398 31.184 81.8496 31.184 82.1015 31.2259C82.2694 31.2259 82.4792 31.2678 82.6471 31.2678H82.899H83.1508C83.5286 31.2678 83.8644 31.2678 84.2421 31.2678C84.9557 31.2678 85.6693 31.184 86.3828 31.0166C86.8026 30.9329 87.1384 30.8074 87.4322 30.6818H87.3902C87.768 30.5144 88.0618 30.347 88.3556 30.1795H88.3136C88.9013 29.8028 89.405 29.3006 89.7408 28.6728C90.0766 28.0868 90.2445 27.4171 90.2445 26.6638C90.2445 26.3289 90.2025 25.9522 90.1185 25.6174C89.9926 25.1151 89.7408 24.6547 89.363 24.3199C89.1951 24.1525 88.9852 24.0269 88.7334 23.9432L88.6914 23.9014H88.6494C88.4815 23.8595 88.3136 23.8176 88.1038 23.8176H88.0618C87.726 23.8176 87.3902 23.9432 87.0964 24.0688C86.7606 24.2362 86.4668 24.4036 86.2149 24.6547C85.9211 24.864 85.6693 25.1151 85.4594 25.3663C85.2915 25.5337 85.1236 25.743 84.9557 25.9522L84.8718 26.0359L84.8298 26.0778C84.7458 26.1615 84.6199 26.2452 84.494 26.2452H84.452C84.2421 26.2452 84.0743 26.0359 84.0743 25.8267C84.0743 25.8267 84.0743 25.8267 84.0743 25.7848V25.743V25.6592C84.1162 25.3663 84.1582 25.0733 84.2421 24.8222V24.864C84.0323 25.0314 83.8644 25.1988 83.6545 25.4081C83.5286 25.4918 83.4446 25.5755 83.3187 25.6592L83.1508 25.7848L82.9829 25.9104C82.7731 26.0778 82.5632 26.2452 82.3113 26.4126L81.6398 26.9149C81.4299 27.0823 81.178 27.2497 80.9682 27.4171C80.7163 27.5846 80.5065 27.752 80.2126 27.8775C80.0867 27.9612 79.9188 28.0031 79.7929 28.045C79.583 28.1287 79.3731 28.1705 79.1633 28.1705C79.0374 28.1705 78.9534 28.1705 78.8275 28.1287H78.7016L78.5756 28.0868C78.4917 28.0868 78.4497 28.045 78.3658 28.045L78.1559 27.9612L77.946 27.8775L77.8621 27.8357H77.8201H77.7781H77.7362C77.5263 27.752 77.4004 27.5427 77.4004 27.2916V27.2497C77.4004 27.2079 77.4004 27.1242 77.4423 27.0823C77.4843 26.9986 77.5263 26.9567 77.6102 26.9149L77.6522 26.873C77.6942 26.8312 77.7362 26.7893 77.7781 26.7475C77.8621 26.6638 77.946 26.5382 77.988 26.4126L78.1979 26.0778C78.7855 25.157 79.3312 24.1943 80.0447 23.3154C80.3805 22.855 80.7583 22.4783 81.178 22.1016C81.5978 21.7249 82.0595 21.4319 82.5632 21.1808H82.6052C83.1508 20.9715 83.6965 20.846 84.2841 20.8041C84.8718 20.7623 85.4174 20.7623 85.9631 20.8878C86.8445 21.0552 87.6421 21.3482 88.3556 21.8086H88.3136C89.0272 22.269 89.6148 22.8968 90.0346 23.6084V23.6502C90.3284 24.0688 90.5383 24.571 90.7062 25.1151V25.157L90.7901 25.3663L90.8321 25.5755C90.958 25.9522 91 26.3708 91 26.8312C91 26.873 91 26.9149 91 26.9567C91 27.5008 90.916 28.045 90.7481 28.5472V28.5054C90.5802 29.0913 90.3284 29.5936 89.9926 30.054C89.5309 30.7655 88.9013 31.3515 88.2297 31.8119H88.1877C87.9779 31.9374 87.726 32.063 87.4742 32.1886H87.4322C86.8445 32.4815 86.173 32.6908 85.5014 32.8164H85.4594H85.3754H85.2495L85.0397 32.8582C84.7458 32.9001 84.494 32.9001 84.2002 32.9001C83.6545 32.9419 83.1088 32.9419 82.5632 32.9419C81.4719 32.9838 80.3805 32.9838 79.2472 32.9838C78.4077 32.9838 77.4423 32.9838 76.4769 32.9838C75.1338 32.9838 73.7906 32.9838 72.4474 32.9838H72.6573H71.0203C70.7265 32.9838 70.4746 32.9838 70.1808 32.9838C69.9709 32.9838 69.803 32.9838 69.5932 32.9419L69.5092 32.9838L69.4672 33.1931C69.4253 33.4442 69.3413 33.6953 69.2993 33.9464V33.9883V34.0302V34.072V34.1139V34.1557C69.2574 34.1976 69.2574 34.2394 69.2574 34.2394L69.2154 34.2813C69.1734 34.365 69.0895 34.4068 69.0475 34.4487C68.9636 34.5324 68.8376 34.6161 68.7537 34.6998C68.5018 34.9091 68.208 35.1184 67.9142 35.2858L67.8722 35.3276L67.6204 35.4951L67.5784 35.6206C67.5364 35.7043 67.5364 35.8299 67.4945 35.9555L67.4105 36.2903L67.3266 36.6251C67.2846 36.7926 67.2426 36.9181 67.2006 37.0437V37.0018C67.2006 37.0437 67.1587 37.0855 67.1587 37.1274V37.1692V37.2111V37.253V37.2948L67.0327 37.4204L66.8229 37.7134C66.655 37.9226 66.4871 38.1319 66.3612 38.2993C66.2772 38.383 66.1933 38.4667 66.1093 38.5923C66.0254 38.676 65.9414 38.7597 65.8155 38.8016C65.7735 38.8016 65.7735 38.8434 65.7315 38.8434C65.6896 38.8434 65.6476 38.8853 65.5636 38.8853C65.3538 38.8853 65.1859 38.7597 65.1439 38.5504C65.1439 38.5086 65.1439 38.4667 65.1439 38.4249V38.383V38.2156V37.8389V37.1274C65.1019 36.1647 65.1019 35.2021 65.1019 34.2813C65.1019 33.5698 65.06 32.9001 65.06 32.1886L64.7661 32.2304L64.1785 32.3141L63.9686 32.356C63.8007 32.3978 63.6328 32.356 63.5489 32.2304C63.339 31.9793 63.0452 31.6026 62.7514 31.2259L62.6255 31.0585C62.3736 31.1422 62.0378 31.2259 61.702 31.3096H61.6181H61.5341H61.4921H61.4502H61.4082C61.3662 31.3096 61.3243 31.3096 61.3243 31.3096C61.1983 31.3096 61.0724 31.2678 60.9885 31.184C60.9045 31.1422 60.8206 31.0585 60.7366 31.0166C60.6527 30.9329 60.6107 30.8492 60.5687 30.8074L60.4428 30.6399C60.2329 30.347 60.0231 30.054 59.8132 29.7191L59.7712 29.6773L59.7292 29.7191C59.5194 29.8028 59.2675 29.8866 59.0157 29.8866C58.8478 29.8866 58.6799 29.8866 58.47 29.8866C58.2601 29.8447 58.0922 29.761 57.9663 29.6354C56.1614 28.1287 54.7763 26.2034 53.9788 23.9851L53.9368 23.9014C53.559 22.8968 53.3072 21.6831 53.2232 20.4693L52.8455 20.26ZM69.6771 12.2658C69.803 12.3495 69.887 12.3914 69.929 12.4332C70.0969 12.5169 70.2648 12.6006 70.4326 12.6843C70.7684 12.8518 71.1462 12.9773 71.482 13.1029C72.1956 13.3959 72.9091 13.647 73.6647 13.94C74.3782 14.233 75.0918 14.5678 75.7634 14.9863C76.0572 15.1538 76.2671 15.3212 76.5189 15.4886H76.4769V15.4467C76.435 15.2793 76.393 15.1119 76.309 14.9445C76.1411 14.5678 75.9732 14.233 75.7634 13.8981V13.94L75.6794 13.8144L75.5955 13.6889L75.5115 13.5633L75.4276 13.4377C75.3016 13.3122 75.1757 13.1447 75.0498 13.0192C74.5041 12.5169 73.9165 12.0565 73.2869 11.638L73.2449 11.5961C73.077 11.5124 72.9091 11.3869 72.7412 11.3031L72.6153 11.2613V11.3031L72.4474 11.3869C72.0696 11.5543 71.6499 11.7217 71.1882 11.8891L71.1042 11.931C70.8524 12.0147 70.6425 12.0565 70.3907 12.0984C70.2647 12.0984 70.1388 12.1402 69.9709 12.1402C69.887 12.1402 69.803 12.1402 69.7191 12.0984L69.6771 12.2658ZM69.3833 10.3405C69.4253 10.4242 69.4672 10.4661 69.5092 10.5498C69.5512 10.6335 69.5932 10.6753 69.5932 10.759C69.6351 10.8427 69.7191 11.0102 69.7611 11.1357V11.1776L69.845 11.3869C69.887 11.3869 69.887 11.3869 69.929 11.3869C70.0129 11.3869 70.1388 11.3869 70.2228 11.3869C70.4746 11.3869 70.6845 11.345 70.8944 11.3031H70.8524C71.3141 11.2194 71.6919 11.1357 72.0696 11.0102H71.9857C71.9017 10.6753 71.8178 10.3823 71.7338 10.1312V10.2149C71.6919 10.1312 71.6919 10.0475 71.6499 9.9638V9.92194C71.6079 9.88009 71.5659 9.83823 71.5659 9.79638C71.44 9.67082 71.3141 9.58711 71.1462 9.5034C70.8524 9.33598 70.5586 9.16856 70.2228 9.00114C68.7957 8.28962 67.1167 7.6618 65.3957 7.24325L65.2278 7.2014C64.5563 7.03398 63.8427 6.90842 63.1291 6.86656C62.9612 6.86656 62.7934 6.86656 62.5835 6.86656C62.4995 6.86656 62.4156 6.86656 62.3316 6.86656H62.2057C62.1637 6.86656 62.1218 6.86656 62.0798 6.86656C62.0378 6.86656 61.9539 6.86656 61.9119 6.90842L61.786 6.95027C61.4082 7.07583 61.0724 7.2014 60.7786 7.41067C60.4428 7.61994 60.149 7.82922 59.8552 8.03849L59.8132 8.08034C60.0231 7.95478 60.2749 7.82922 60.5267 7.74551C60.8206 7.61994 61.1564 7.57809 61.5341 7.57809C61.66 7.57809 61.786 7.57809 61.9119 7.61994H62.0378H62.1637L62.3736 7.6618C62.9193 7.78736 63.5069 7.91292 64.0526 8.08034C64.5982 8.24776 65.1859 8.37332 65.7315 8.5826C66.2772 8.75002 66.8229 8.95929 67.3685 9.21042C68.0401 9.5034 68.5858 9.83823 69.1314 10.1731L69.0895 10.1312C69.1315 10.1731 69.1314 10.1731 69.1734 10.2149C69.3413 10.2568 69.3833 10.2986 69.3833 10.3405ZM65.1019 8.83372C64.0526 8.54074 63.1711 8.33147 62.7934 8.24776C62.9612 8.75002 63.339 9.37783 63.4649 9.46154H63.5069C63.6748 9.5034 63.8427 9.54525 64.0106 9.62896H64.0526C65.2279 9.88009 66.4871 9.67082 67.1587 9.54525C67.0327 9.5034 66.9488 9.41969 66.8229 9.37783C66.4871 9.25227 65.8994 9.08485 65.1019 8.83372ZM80.2126 30.8492C81.0101 30.5144 81.7237 30.1377 82.3533 29.7191L82.3113 29.761C82.6471 29.5517 82.9829 29.3424 83.3187 29.1332C83.6545 28.9239 83.9903 28.7146 84.3681 28.5054C84.7039 28.2961 85.0816 28.1287 85.4594 28.0031L85.6273 27.9612L85.7952 27.9194L85.9631 27.8775L86.131 27.8357C86.173 27.8357 86.173 27.8357 86.2149 27.8357C86.3828 27.8357 86.5088 27.8775 86.6767 27.9194C86.8445 28.0031 86.9705 28.1287 87.0964 28.2542C87.1803 28.3379 87.2223 28.4635 87.2643 28.5472C87.3063 28.6309 87.3482 28.7565 87.3902 28.8402L87.4322 28.9658L87.4742 28.9239L87.5581 28.7983C87.6421 28.6728 87.726 28.5054 87.81 28.3379C87.81 28.2961 87.8519 28.2542 87.8519 28.2124C87.81 28.0868 87.768 28.0031 87.684 27.9194C87.6421 27.8357 87.5581 27.752 87.4742 27.6683C87.4322 27.6264 87.3482 27.6264 87.3063 27.5846C87.1803 27.5427 87.0124 27.5427 86.8445 27.5427C86.8026 27.5427 86.7606 27.5427 86.7186 27.5427C86.5088 27.5427 86.3409 27.5846 86.131 27.6264C85.7532 27.7101 85.3755 27.7938 84.9977 27.9194C84.6199 28.045 84.2421 28.1705 83.8644 28.2961C83.4866 28.4216 83.1088 28.5472 82.7311 28.6728C82.3533 28.7983 81.9755 28.9239 81.5558 29.0076C80.7583 29.2169 80.0028 29.3843 79.1633 29.468C78.3658 29.5517 77.5263 29.5517 76.7288 29.4262C75.8473 29.3006 75.0918 29.0076 74.3782 28.5891H74.4202C74.2943 28.5472 74.2103 28.4635 74.1264 28.3798C74.6301 28.7565 75.1757 29.1332 75.7634 29.4262L75.8053 29.468C76.6448 29.9284 77.6522 30.347 78.7016 30.5981H78.7855C79.1213 30.6818 79.541 30.8074 80.0028 30.8911H80.0867L80.2126 30.8492ZM70.3067 32.2723C70.5586 32.2723 70.7684 32.2723 71.0203 32.2723L72.6573 32.3141L75.9732 32.3978C77.0646 32.3978 78.1559 32.4397 79.2472 32.4397C80.3386 32.4397 81.4299 32.4397 82.5212 32.4397C83.0669 32.4397 83.6125 32.4397 84.1582 32.3978C84.536 32.3978 84.9137 32.356 85.2495 32.3141H85.1656H85.2495H85.3335C85.4594 32.2723 85.5853 32.2723 85.7112 32.2304C86.8026 31.9793 87.768 31.477 88.5655 30.8074C88.9852 30.4725 89.321 30.0958 89.6568 29.6354C89.9506 29.2169 90.2025 28.7565 90.3704 28.2542V28.2124C90.4963 27.7938 90.5802 27.2916 90.5802 26.7475C90.5802 26.4126 90.5383 26.1196 90.4963 25.7848V25.8267C90.4543 25.7011 90.4543 25.5755 90.4123 25.45L90.3704 25.2407L90.2864 25.0314C90.1185 24.5292 89.8667 24.0269 89.5729 23.6084C89.1111 22.9387 88.5655 22.3527 87.8939 21.9342C87.4742 21.6831 87.0124 21.4319 86.4668 21.3064H86.4248C85.9211 21.139 85.3335 21.0552 84.7039 21.0552C84.0743 21.0552 83.4446 21.139 82.857 21.3482H82.899C82.7731 21.3901 82.6471 21.4319 82.5212 21.4738C82.0175 21.6831 81.5558 21.976 81.178 22.3109C80.7583 22.6457 80.4225 23.0224 80.0867 23.441C79.7929 23.8176 79.4571 24.2362 79.1633 24.6966L79.1213 24.7384C78.8275 25.1988 78.5337 25.6592 78.2818 26.1196C78.1559 26.3708 77.988 26.58 77.8201 26.8312C77.7361 26.9149 77.6522 27.0404 77.5683 27.1242L77.4843 27.166C77.4843 27.166 77.4843 27.2079 77.4843 27.2497L77.5263 27.2916H77.5683H77.6522C77.7362 27.2916 77.7781 27.2916 77.8621 27.2916C77.946 27.2916 77.988 27.2916 78.0719 27.2916C78.1139 27.2916 78.1979 27.2916 78.2398 27.2916H78.3238H78.4077C78.7855 27.2079 79.1213 27.1242 79.4151 26.9986H79.3731L79.541 26.9149L79.7089 26.8312C79.8349 26.7893 79.9188 26.7056 80.0447 26.6219C80.2546 26.4963 80.5064 26.3289 80.7163 26.2034C81.0101 25.9941 81.4719 25.7011 81.9755 25.45L82.1434 25.3663L82.5212 25.157C82.6471 25.1151 82.7311 25.0314 82.857 24.9477C83.2767 24.6547 83.7385 24.278 84.2421 23.9851L84.9977 23.5665L84.536 24.278C84.2841 24.6966 84.1162 25.1988 84.0323 25.743L84.1162 25.6174C84.2841 25.3663 84.494 25.1988 84.6619 24.9896C84.9137 24.7384 85.2076 24.4455 85.5014 24.2362C85.7952 24.0269 86.089 23.8176 86.4248 23.6502H86.4668C86.8026 23.4828 87.1803 23.3991 87.6001 23.3572H87.6421C87.8939 23.3572 88.1457 23.3991 88.3556 23.4828L88.4396 23.5247L88.5235 23.5665C88.9852 23.7758 89.363 24.0688 89.6568 24.4873C89.8667 24.8222 90.0346 25.157 90.1185 25.5337C90.1605 25.8267 90.2025 26.1615 90.2025 26.4963C90.2025 27.3334 89.9926 28.1287 89.5729 28.8402V28.7983C89.1951 29.468 88.6914 30.0121 88.0618 30.3888C87.768 30.5981 87.4742 30.7655 87.1384 30.8911H87.0964C86.8026 31.0166 86.4668 31.1422 86.089 31.2678H86.047C85.3335 31.477 84.6199 31.6026 83.8644 31.6444C83.4866 31.6863 83.1088 31.6863 82.7731 31.6863H82.4792H82.1854C82.0175 31.6863 81.8076 31.6863 81.6398 31.6444C81.262 31.6026 80.9262 31.6026 80.5484 31.5189C80.3805 31.5189 80.1707 31.477 80.0028 31.4352L79.7089 31.3933C78.7855 31.2259 77.988 31.0166 77.1905 30.7655L77.3164 30.8074C76.5189 30.5562 75.8473 30.2214 75.2177 29.8866L75.3016 29.9284C74.6301 29.5936 74.0424 29.175 73.4548 28.7146C72.9511 28.2961 72.5314 27.8775 72.1116 27.4171C72.0696 28.7983 71.7338 30.0958 71.1882 31.2678L71.2302 31.2259C71.1882 31.3515 71.1042 31.4352 71.0623 31.5189C70.9783 31.6026 70.8944 31.6863 70.8524 31.77C70.7684 31.8537 70.5166 32.063 70.3487 32.1886L70.3067 32.2723ZM65.5217 22.6876C65.5217 23.6084 65.5217 24.6966 65.5217 25.8267C65.5217 29.761 65.5636 33.6535 65.6476 37.5459V36.96V37.6296C65.8575 37.4204 66.0254 37.1692 66.2352 36.8763L66.2772 36.8344L66.3612 36.7088V36.667C66.4031 36.5833 66.4031 36.4996 66.4451 36.374L66.529 36.0392L66.613 35.7043C66.655 35.5788 66.655 35.4951 66.6969 35.3695L66.8229 34.6161L67.0327 33.5279L67.1167 32.9838C67.1587 32.8164 67.1587 32.6071 67.2006 32.4397C67.2846 32.0211 67.4105 31.3096 67.4945 30.5562L67.5364 30.2632C67.6204 29.5517 67.7043 28.7983 67.7463 28.0868C67.7463 28.045 67.7883 28.0031 67.8303 28.0031C67.8722 28.0031 67.9142 28.045 67.9142 28.0868C67.9142 28.2542 67.9142 28.4635 67.9562 28.6309C67.9981 28.7983 67.9562 29.0076 67.9562 29.175V29.3006V29.4262V29.9703L67.9142 30.5144V30.8074L67.8722 31.3515L67.8303 31.8956L67.7883 32.4397C67.7043 33.1094 67.6204 33.779 67.5364 34.4487C67.9562 34.1976 68.208 34.0302 68.4599 33.8627L68.292 33.9464C68.4599 33.8627 68.5438 33.7372 68.6697 33.6535C68.7537 33.4023 68.9216 32.8582 69.0895 32.2723L69.1734 31.9793C69.3413 31.3933 69.5092 30.8074 69.6351 30.2214C69.7191 29.8866 69.845 29.3006 69.9709 28.7146L70.0129 28.4635C70.1388 27.8775 70.2228 27.2916 70.3067 26.6638C70.3067 26.6219 70.3487 26.6219 70.3907 26.6219C70.4326 26.6219 70.4746 26.6638 70.4746 26.7056C70.4326 27.3753 70.3907 28.0031 70.3067 28.6309V28.5054C70.2228 29.0913 70.1388 29.7191 70.0549 30.3051C69.9709 30.8911 69.845 31.5189 69.7191 32.1048L69.6771 32.2304L69.7611 32.1886C69.929 32.063 70.0969 31.9793 70.2647 31.8537C70.4326 31.7282 70.6005 31.6026 70.7265 31.477C70.8524 31.3515 70.9783 31.184 71.0623 31.0166C71.44 30.2214 71.6919 29.3424 71.8178 28.3798V28.3379C71.8598 28.0031 71.9017 27.5846 71.9017 27.2079C71.9017 26.6219 71.8598 26.0359 71.7758 25.4918V25.5337C71.6079 24.5292 71.3561 23.6084 70.9783 22.7713L71.0203 22.855C70.6425 21.8923 70.1808 21.0971 69.6351 20.3019L69.6771 20.3437C69.1314 19.5066 68.5438 18.7951 67.8722 18.1673C67.5364 17.8325 67.2006 17.5395 66.8229 17.2883H66.7809C66.571 17.1628 66.4031 17.0372 66.1933 16.9535C66.1093 16.9117 65.9834 16.8698 65.8994 16.8698H65.8575V16.9117L65.8155 16.9954C65.7735 17.0791 65.7735 17.2046 65.7315 17.3302C65.7315 17.4558 65.6896 17.5395 65.6896 17.665C65.6476 17.8743 65.6476 18.1254 65.6476 18.3766C65.6056 18.837 65.6056 19.3392 65.6056 19.7996C65.6056 20.26 65.6056 20.7623 65.6056 21.2227L65.5217 22.6876ZM64.7661 28.3798C64.7661 26.4545 64.7661 24.571 64.8501 22.6457C64.934 21.0552 65.018 19.5485 65.2278 18.0836L65.1859 18.3347C65.2279 17.8743 65.3118 17.5395 65.3957 17.1628V17.2465L65.4377 17.0791C65.4797 16.9117 65.6476 16.3257 65.6896 16.1583C65.8155 15.7397 65.9834 15.4049 66.1513 15.0701V15.1119C66.2352 14.9445 66.3612 14.7771 66.4451 14.6097C66.571 14.4422 66.6969 14.3167 66.8229 14.1493C67.1167 13.8563 67.4525 13.6889 67.8303 13.5633C67.9981 13.5214 68.166 13.4796 68.3759 13.4796C68.5018 13.4796 68.6278 13.4796 68.7117 13.5214H68.7537C68.5438 13.1029 68.3759 12.3495 68.4179 11.9728C68.4179 11.8891 68.5018 11.8054 68.6278 11.8054C68.6697 11.8054 68.7117 11.8054 68.7117 11.8473C68.8376 11.931 69.0055 12.0147 69.2154 12.1402V12.0984L69.2574 11.8473V11.7217V11.638V11.5543C69.2154 11.3031 69.1315 11.0939 69.0895 10.9265V10.9683C69.0475 10.8427 69.0055 10.7172 68.9216 10.6335C68.9216 10.6335 68.9216 10.5916 68.8796 10.5916L68.8376 10.5498L68.6697 10.4242C68.3759 10.2149 68.0821 10.0057 67.7463 9.83823L67.7043 9.79638C66.9908 10.0057 66.1933 10.0894 65.3957 10.1312H65.2698C65.5217 10.2568 65.7735 10.4242 65.9834 10.5498L66.0254 10.5916L66.0673 10.6335V10.6753V10.7172C66.0673 10.759 66.0254 10.8427 65.9414 10.8427C65.8994 10.8427 65.8575 10.8427 65.8575 10.8009C65.8155 10.759 65.7735 10.759 65.6896 10.7172L65.4797 10.5916C65.1019 10.3823 64.6402 10.2149 64.1365 10.0475H64.0526C63.8427 10.0057 63.6328 9.9638 63.423 9.88009C63.0032 9.75452 62.4995 9.67082 61.9958 9.62896H61.9539C61.8699 9.62896 61.8279 9.58711 61.8279 9.5034C61.8279 9.41969 61.8699 9.37783 61.9539 9.37783C62.2897 9.37783 62.6255 9.37783 62.9612 9.41969C62.7094 9.043 62.5415 8.62445 62.4156 8.16405V8.1222C62.4156 8.1222 62.4156 8.1222 62.4156 8.08034V8.03849L62.2057 7.99663H62.1218H62.0378C61.9539 7.99663 61.8279 7.95478 61.702 7.95478C61.4082 7.95478 61.1144 7.99663 60.8625 8.1222C60.6107 8.20591 60.3588 8.33147 60.107 8.45703C59.8552 8.5826 59.6453 8.75002 59.3934 8.91743C59.0157 9.21042 58.6799 9.46154 58.3861 9.71267L58.3441 9.75452C58.0503 10.0894 57.7564 10.4242 57.4626 10.8009L57.4207 10.8427C56.9589 11.4287 56.5392 12.0147 56.1195 12.6006L55.7417 13.1866H55.7837C55.9516 13.2285 56.1195 13.3122 56.2454 13.3959C56.3713 13.4796 56.4972 13.6051 56.6231 13.6889C56.833 13.8981 57.0429 14.1493 57.2108 14.4004C57.3787 14.6097 57.5046 14.8608 57.6725 15.1119L57.7145 15.1538C57.9663 15.5723 58.2182 16.0746 58.512 16.5768L58.554 16.7024C58.7219 16.9954 58.9737 17.5395 59.1836 18.0836L59.2675 18.3347C59.6033 19.0462 60.0231 20.1344 60.4428 21.2227L60.5687 21.5575L64.8921 30.6399L64.7661 28.3798ZM65.7735 10.6753C65.7735 10.6753 65.7735 10.7172 65.7735 10.6753C65.7735 10.7172 65.7735 10.7172 65.7735 10.6753V10.7172C65.7735 10.7172 65.7735 10.7172 65.7735 10.6753C65.7735 10.6753 65.7735 10.7172 65.7735 10.6753ZM53.5171 16.7861C53.3492 17.5395 53.2232 18.4184 53.2232 19.3392C53.2232 19.6322 53.2232 19.967 53.2652 20.26V20.2182C53.4331 22.6457 54.2726 24.8222 55.5738 26.6638L55.5318 26.6219C56.2034 27.5846 56.9589 28.4216 57.8404 29.1332C57.9243 29.2169 58.0503 29.2587 58.1762 29.3006C58.3021 29.3424 58.428 29.3424 58.5959 29.3006C58.8058 29.2587 59.0157 29.2169 59.2255 29.1332C58.8478 28.6309 58.47 28.1705 58.0922 27.6683L57.5046 26.873L57.2108 26.4545L56.917 26.0359C56.5812 25.5755 56.2454 25.0314 55.9516 24.4455L55.9096 24.3199C55.9096 24.3199 55.9096 24.3199 55.9096 24.278C55.9096 24.2362 55.9516 24.1943 55.9935 24.1943C56.0355 24.1943 56.0355 24.1943 56.0355 24.2362C56.4133 24.864 56.791 25.4081 57.1688 25.9104L57.1268 25.8685L57.4207 26.2452L57.7145 26.6219L58.0083 26.9986L58.3021 27.3753C59.0996 28.3379 59.8132 29.175 60.5687 30.0121L60.5267 29.9703L60.5687 30.0121L60.8206 30.2632C60.8625 30.3051 60.9045 30.3051 60.9465 30.347C60.9885 30.347 60.9885 30.3888 61.0304 30.3888H61.0724H61.1144L61.3243 30.347C61.4922 30.3051 61.6181 30.2632 61.786 30.2214C61.3662 29.6773 60.8625 28.9658 60.3588 28.2542L60.1909 28.045L59.8971 27.5846L59.6033 27.1242L59.4354 26.873L59.3095 26.6219L59.1416 26.3708L59.0157 26.1196L58.8898 25.8685L58.7638 25.6174L58.512 25.1151L58.2601 24.6129C58.2601 24.6129 58.2601 24.6129 58.2601 24.571C58.2601 24.5292 58.3021 24.4873 58.3441 24.4873C58.3441 24.4873 58.3861 24.4873 58.3861 24.5292L58.6799 24.9896L59.0576 25.5755L59.1416 25.7011L59.4774 26.1615L59.6453 26.3708L59.8132 26.58L59.9811 26.7893L60.3169 27.2079L60.6527 27.6264L60.9885 28.045C61.4502 28.5891 61.9119 29.175 62.4156 29.7191L62.7514 30.0958L62.8353 30.1377C62.9193 30.2214 62.9612 30.3051 63.0452 30.3888L63.0872 30.4307C63.339 30.7236 63.6328 31.0166 63.8847 31.3096V31.3515L64.4303 31.3096H64.7242L60.065 21.7249C59.3934 19.7578 58.7219 18.1254 57.9663 16.5768L58.0922 16.8698C57.8404 16.3675 57.5886 15.8234 57.2947 15.363C57.1688 15.1119 57.0009 14.8608 56.833 14.6515C56.6651 14.4004 56.4972 14.1911 56.2874 14.0237C56.2034 13.94 56.0775 13.8563 55.9935 13.7726C55.8676 13.6889 55.7837 13.647 55.6577 13.6051C55.6158 13.6051 55.5738 13.6051 55.5738 13.6051C55.4898 13.6051 55.4059 13.647 55.3219 13.6889L55.28 13.7307L55.1121 13.8563C54.7343 14.233 54.3985 14.6934 54.1467 15.1956V15.2375C53.8529 15.7397 53.685 16.242 53.5171 16.7861Z" fill="#182D4D"/>
<path d="M28.2067 41.1454H27.0314C23.8413 41.1454 21.2389 43.7823 21.2389 47.0469V54.2459C21.2389 57.5106 23.8413 60.1474 27.0314 60.1474H28.2067C31.3967 60.1474 33.9991 57.5106 33.9991 54.2459V47.0469C33.9991 43.7823 31.3967 41.1454 28.2067 41.1454ZM30.2214 57.0502C30.2214 58.5988 29.1301 59.8544 27.8289 59.8544C26.5277 59.8544 25.4364 58.5988 25.4364 57.0502V44.2845C25.4364 42.7359 26.5277 41.4803 27.8289 41.4803C29.1301 41.4803 30.2214 42.7359 30.2214 44.2845V57.0502Z" fill="#182D4D"/>
<path d="M83.9483 42.5685V59.0173C83.9483 59.2266 84.0743 59.4359 84.2841 59.5196L84.7458 59.687C84.9137 59.7707 85.0397 59.9381 85.0397 60.1474H79.3732C79.3732 59.9381 79.4991 59.7707 79.667 59.687L80.1287 59.5196C80.3386 59.4359 80.4645 59.2266 80.4645 59.0173V42.5685C80.4645 42.2755 80.2966 42.0244 80.0028 41.8988L79.667 41.7733C79.4991 41.6896 79.3732 41.5221 79.3732 41.3129H85.0397C85.0397 41.5221 84.9137 41.6896 84.7458 41.7733L84.4101 41.8988C84.1162 42.0244 83.9483 42.2755 83.9483 42.5685Z" fill="#182D4D"/>
<path d="M71.6079 59.5196H75.7634C76.1411 59.5196 76.4769 59.3103 76.6448 59.0174L77.4423 57.678C77.5683 57.5106 77.7362 57.385 77.946 57.385V59.5196C77.946 59.8126 77.7362 60.0219 77.4423 60.0219H66.8649C66.8649 59.8544 66.9488 59.7289 67.1167 59.687L67.7463 59.5196C67.8722 59.4778 67.9562 59.3522 67.9562 59.2266V42.5685C67.9562 42.2755 67.7883 42.0244 67.5364 41.9407L67.1587 41.8151C66.9908 41.7314 66.8649 41.564 66.8649 41.3547H72.6993C72.6993 41.564 72.5733 41.7314 72.4054 41.8151L72.0277 41.9407C71.7758 42.0244 71.6079 42.2755 71.6079 42.5685V59.5196Z" fill="#182D4D"/>
<path d="M62.3316 41.8151C62.7094 41.8151 63.0452 42.0244 63.2131 42.3174L64.0106 43.6567C64.1365 43.8241 64.3044 43.9497 64.5143 43.9497V41.8151C64.5143 41.5221 64.3044 41.3129 64.0106 41.3129H52.6356V41.564L53.7269 41.8988V59.2685L52.9294 59.6033C52.7615 59.687 52.6356 59.8544 52.6356 60.0637H64.0526C64.3044 60.0637 64.5143 59.8544 64.5143 59.6033V57.4269C64.3044 57.4269 64.0945 57.5524 64.0106 57.7199L63.2131 59.0173C63.0032 59.3522 62.6674 59.5196 62.2897 59.5196H57.3367V51.1905H61.2823L61.5761 51.9858C61.66 52.1532 61.8279 52.2788 61.9958 52.2788V49.5164C61.786 49.5164 61.6181 49.6419 61.5761 49.8093L61.2823 50.6046H57.3367V41.8151H62.3316Z" fill="#182D4D"/>
<path d="M50.5369 41.3966H47.6407V41.5222C47.6407 41.6477 47.7246 41.7314 47.8086 41.7733L48.3123 41.9407C48.5221 42.0244 48.69 42.2337 48.732 42.443V53.7018L39.078 41.7314C38.9101 41.5222 38.6582 41.3966 38.4064 41.3547H38.2804H38.2385H36.5175C36.5175 41.5222 36.6015 41.6477 36.7694 41.6896L37.1891 41.8151C37.441 41.8988 37.6089 42.1081 37.6089 42.4011V56.6735V58.8499C37.6089 59.1011 37.4829 59.3103 37.2311 59.394L36.6435 59.6033C36.5595 59.6452 36.4756 59.7289 36.4756 59.8544V59.98H39.3718V59.8544C39.3718 59.7289 39.2878 59.6452 39.2039 59.6033L38.6162 59.394C38.4483 59.3522 38.3224 59.2266 38.2804 59.0592V46.7958H38.3644L48.6481 59.687C48.816 59.8963 48.816 60.0219 49.0678 60.0219C49.2357 60.0219 49.4036 59.8963 49.4036 59.687V42.5685C49.4456 42.3174 49.6135 42.1081 49.8233 42.0244L50.327 41.8151C50.411 41.7733 50.4949 41.6896 50.4949 41.564L50.5369 41.3966Z" fill="#182D4D"/>
<path d="M11.8787 48.4281C11.8367 48.4281 11.7947 48.4281 11.7947 48.47C11.7947 48.5537 11.7947 49.0141 11.7947 49.0978C11.8367 49.6838 13.012 50.6883 14.4391 51.3998C14.8169 51.5672 14.7749 51.7347 14.7749 52.1113V57.0502C14.7749 58.5988 13.6836 59.8544 12.3824 59.8544C11.0812 59.8544 9.98984 58.5988 9.98984 57.0502V44.2845C9.98984 42.7359 10.6195 41.4803 12.3824 41.4803C14.9428 41.5221 14.691 44.6194 14.691 46.2099C14.691 46.4191 14.7749 46.5865 14.9428 46.7121C15.6564 47.1306 18.2168 48.2607 18.3847 47.884C18.4267 47.7585 19.1402 41.271 12.2984 41.1873C10.4935 41.1455 5.79243 41.4384 5.79243 47.0888V54.2878C5.79243 57.5524 6.92573 60.1474 12.3404 60.1893C19.1402 60.2311 18.4686 55.2923 18.3427 51.8602C18.3427 51.5254 18.1328 51.2743 17.839 51.1487C16.4119 50.3953 14.4391 49.5164 12.4243 48.6793L11.8787 48.4281Z" fill="#182D4D"/>
<path d="M45.458 36.2066C44.6186 36.2066 43.863 35.7043 43.5272 34.951C43.4013 34.6998 43.3593 34.4069 43.3593 34.072C43.3593 33.4861 43.5692 32.9838 43.947 32.6071C44.3247 32.1886 44.8704 31.9374 45.5 31.9374C45.7938 31.9374 46.0876 31.9793 46.3815 32.1049C46.9271 32.356 47.3469 32.7745 47.5148 33.3186C47.5987 33.5698 47.6827 33.8209 47.6827 34.1139C47.6827 34.9928 47.137 35.7462 46.3395 36.081C46.0037 36.1647 45.7519 36.2066 45.458 36.2066ZM45.458 32.3978C44.7445 32.3978 44.1568 32.8582 43.905 33.4861C43.821 33.6535 43.7791 33.8627 43.7791 34.072C43.7791 34.5324 43.9889 34.9928 44.2828 35.2858C44.5766 35.5788 44.9963 35.7462 45.4161 35.7462H45.458C45.6679 35.7462 45.9197 35.7043 46.0876 35.6206C46.5074 35.4532 46.8012 35.1602 47.0111 34.7417C47.095 34.5743 47.137 34.3231 47.137 34.1139C47.137 34.1139 47.137 34.1139 47.137 34.072C47.137 33.6116 46.9691 33.1931 46.6753 32.9001C46.3815 32.6071 45.9617 32.3978 45.458 32.3978Z" fill="#182D4D"/>
<path d="M48.732 31.5189C48.4382 31.5189 47.9345 31.3933 47.7246 31.2259C47.6407 31.184 47.5987 31.0585 47.5987 30.9329C47.5987 30.8073 47.6827 30.6818 47.7666 30.6399C47.8925 30.5562 48.2283 30.3469 48.4802 30.1795C48.8579 29.8447 49.2777 29.5517 49.6135 29.2587C50.1591 28.7983 50.6209 28.4216 50.9566 28.2124C50.9986 28.1705 51.0826 28.1287 51.1665 28.1287C51.2924 28.1287 51.4184 28.2124 51.5023 28.2961C51.5443 28.4216 51.5443 28.5472 51.5023 28.6728C50.9566 29.5099 49.9073 30.9748 49.1937 31.4352C49.0258 31.5189 48.8999 31.5189 48.732 31.5189ZM48.1444 30.9748C48.3123 31.0585 48.5641 31.1003 48.732 31.1003C48.816 31.1003 48.8579 31.1003 48.8579 31.1003C49.4036 30.7655 50.1591 29.7191 50.6628 29.0076C50.411 29.175 50.1591 29.4262 49.8653 29.6773C49.5295 29.9703 49.1518 30.2632 48.732 30.5981C48.5641 30.6818 48.3123 30.8492 48.1444 30.9748Z" fill="#182D4D"/>
<path d="M38.8261 35.8299C38.7422 35.9136 38.6582 35.9555 38.5323 35.9555C38.3224 35.9555 38.1965 35.788 38.1965 35.6206C38.1965 35.4532 38.3644 35.2858 38.5323 35.2858C38.6162 35.2021 38.7002 35.0765 38.7841 34.9928C38.5743 35.0347 38.4064 35.0347 38.1965 35.0347C37.6928 35.0347 37.2731 35.0765 36.9373 35.0765C36.6435 35.0765 36.4336 35.1184 36.2237 35.1184C35.5521 35.1184 35.0484 34.9928 34.4188 34.365C34.3349 34.2813 34.2929 34.1976 34.2929 34.072C34.2929 33.9883 34.2929 33.9464 34.3349 33.9046C34.4188 33.7372 34.5448 33.6535 34.7126 33.6535C34.7966 33.6535 35.2163 33.486 35.5521 33.3186C36.4756 32.8582 37.9027 32.2304 39.2459 32.2304C39.3718 32.2304 39.4557 32.2304 39.5817 32.2304C41.3865 32.3978 42.0581 33.486 42.226 33.9883C42.268 34.1139 42.31 34.2813 42.226 34.4487C42.1421 34.7417 41.8063 35.4532 41.0508 35.5788C40.7989 35.6206 40.5051 35.6625 40.2113 35.6625C39.8755 35.6625 39.5817 35.7043 39.3298 35.7462C39.2039 35.788 39.036 35.8299 38.9101 35.8718C38.9101 35.788 38.8681 35.8299 38.8261 35.8299ZM39.4977 34.4068H39.5817L40.4211 34.4487L39.6656 34.8672C39.4557 34.9928 39.2459 35.1184 39.1199 35.2439L39.2039 35.2021C39.4977 35.1184 39.8335 35.0765 40.1693 35.0765C40.4211 35.0765 40.673 35.0347 40.9248 34.9928C41.4285 34.9091 41.6384 34.4068 41.7643 34.1557V34.1139C41.7643 34.072 41.7643 34.072 41.7643 34.0302C41.5964 33.6116 41.0507 32.6908 39.4977 32.5652C39.4138 32.5652 39.3298 32.5652 39.2039 32.5652C37.9866 32.5652 36.6435 33.1931 35.72 33.6116C35.2163 33.8627 34.9645 33.9883 34.7546 33.9883C35.2583 34.4906 35.6361 34.5743 36.1817 34.5743C36.3916 34.5743 36.6015 34.5743 36.8953 34.5324C37.2731 34.5324 37.6928 34.4906 38.1965 34.4906C38.4064 34.4906 38.6162 34.4487 38.8261 34.4487H38.7841C39.036 34.4487 39.2459 34.4068 39.4977 34.4068Z" fill="#182D4D"/>
<path d="M42.1001 31.5189C41.9322 31.5189 41.8063 31.477 41.7223 31.4352C41.0088 30.9748 39.9594 29.5099 39.4138 28.6728C39.3298 28.5472 39.3298 28.4216 39.4138 28.2961C39.4557 28.1705 39.5817 28.1287 39.7496 28.1287C39.8335 28.1287 39.9174 28.1705 39.9594 28.2124C40.2952 28.4635 40.7569 28.8402 41.3026 29.2587C41.6384 29.5517 42.0162 29.8447 42.4359 30.1795C42.6458 30.3469 42.9816 30.5562 43.1495 30.6399C43.2334 30.6818 43.3174 30.8073 43.3174 30.9329C43.3174 31.0585 43.2754 31.1422 43.1914 31.2259C42.8137 31.4352 42.4779 31.5189 42.1001 31.5189ZM41.9742 31.0585C41.9742 31.0585 42.0162 31.0585 42.1001 31.0585C42.268 31.0585 42.5198 31.0166 42.6877 30.9329C42.5198 30.8073 42.268 30.6818 42.1001 30.5144C41.6804 30.1795 41.3026 29.8866 40.9668 29.5936L40.1693 28.9239C40.673 29.7191 41.4705 30.7236 41.9742 31.0585Z" fill="#182D4D"/>
<path d="M45.3321 30.8493C45.1642 30.8493 45.0383 30.7655 44.9963 30.5981C44.7865 29.9703 44.5766 29.4262 44.3247 28.9239L44.3667 29.0077C43.821 27.8776 43.1914 26.329 43.2334 24.1944C43.2754 22.7295 44.0309 21.0553 44.4926 19.9252C44.7025 19.4648 44.9124 18.9626 44.9124 18.837C44.9124 18.7114 44.9544 18.6277 45.0383 18.544C45.2062 18.3766 45.5 18.3766 45.7099 18.544C46.6753 19.5067 46.6333 20.1345 46.5494 21.6831C46.5074 21.9761 46.5074 22.3109 46.4654 22.6876C46.4654 22.8969 46.4234 23.1062 46.4234 23.2736V23.3991C46.5494 23.2736 46.6753 23.148 46.8012 23.0643C46.8432 23.0225 46.9271 22.9806 47.0111 22.9806C47.137 22.9806 47.2629 23.0225 47.3049 23.148C47.3889 23.2317 47.3889 23.3573 47.3469 23.4829L47.3049 23.5666C47.2629 23.6921 47.221 23.7758 47.179 23.9014C47.095 24.3618 47.0111 24.7803 47.0531 25.4082C47.095 26.2453 46.8432 27.752 46.2555 28.9239C46.0457 29.3843 45.8358 29.8866 45.6679 30.4726V30.5144C45.6259 30.7237 45.5 30.8493 45.3321 30.8493ZM45.3741 18.8789C45.3741 19.0881 45.2062 19.4648 44.9124 20.1345C44.4507 21.2227 43.7371 22.855 43.6531 24.2362C43.5692 26.2871 44.1988 27.752 44.7025 28.8402C44.8704 29.2169 45.0803 29.6355 45.2482 30.0959L45.2901 30.1796C45.4161 29.761 45.584 29.3006 45.8358 28.7984C46.3395 27.752 46.5913 26.2871 46.5494 25.4919C46.5494 25.4082 46.5494 25.3245 46.5494 25.2407C46.5494 24.6966 46.6333 24.1525 46.7592 23.6503V23.6921L46.5913 23.8595C46.5074 23.9433 46.3815 23.9851 46.2555 23.9851C46.1296 23.9851 46.0037 23.9433 45.9198 23.8595C45.8358 23.7758 45.8358 23.6921 45.8358 23.5666V23.5247L45.8778 23.2736C45.9198 23.0643 45.9198 22.8969 45.9198 22.7295C45.9617 22.3528 45.9617 22.0179 46.0037 21.6831C46.1716 20.1345 46.2136 19.6741 45.3741 18.8789Z" fill="#182D4D"/>
<path d="M38.7841 1.34176L38.2385 1.46732L38.1126 0.839506L39.4138 0.588379L40.1693 4.35529L39.4138 4.48085L38.7841 1.34176Z" fill="#182D4D"/>
<path d="M42.8137 3.76939L43.6531 2.5556C43.4853 2.63931 43.3174 2.68117 43.1075 2.68117C42.4359 2.68117 41.9322 2.17891 41.8902 1.50924C41.8483 0.839569 42.226 0.128042 43.2754 0.0443326C44.2408 -0.0393765 44.7865 0.588441 44.8284 1.25811C44.8704 1.76037 44.6605 2.13706 44.4087 2.4719L43.3593 4.10422L42.8137 3.76939ZM42.6877 1.38368C42.6877 1.76037 43.0235 2.05335 43.3593 2.05335C43.4013 2.05335 43.4013 2.05335 43.4433 2.05335C43.821 2.05335 44.1149 1.71851 44.1149 1.38368C44.1149 1.34182 44.1149 1.34182 44.1149 1.29997C44.1149 0.923278 43.7791 0.630296 43.4433 0.630296C43.4013 0.630296 43.4013 0.630296 43.3593 0.630296C42.9816 0.630296 42.6877 0.965132 42.6877 1.34182C42.6877 1.34182 42.6877 1.34182 42.6877 1.38368Z" fill="#182D4D"/>
<path d="M48.8579 2.93226C48.816 3.56008 48.2703 4.06233 47.4728 4.02048C46.6333 3.97863 46.1716 3.43452 46.1716 2.8067C46.1716 2.3463 46.5074 2.01146 46.8852 1.8859C46.5913 1.71848 46.3815 1.4255 46.3815 1.04881V1.00695C46.4234 0.462844 46.8432 -0.0394105 47.6407 0.00244405C48.4382 0.0442986 48.816 0.588408 48.816 1.13252C48.816 1.50921 48.5641 1.84404 48.2283 1.96961C48.6061 2.09517 48.8579 2.47186 48.8579 2.89041C48.8579 2.89041 48.8579 2.89041 48.8579 2.93226ZM48.1024 2.84855V2.8067C48.1024 2.47186 47.8506 2.22073 47.5567 2.22073H47.5148C47.179 2.22073 46.9271 2.47186 46.9271 2.8067V2.84855C46.9271 3.14153 47.179 3.43452 47.4728 3.43452H47.5148C47.8086 3.39266 48.0604 3.14153 48.1024 2.84855ZM48.1444 1.09066V1.04881C48.1444 0.755826 47.9345 0.546553 47.6407 0.546553H47.5987C47.3049 0.546553 47.095 0.755826 47.095 1.04881V1.09066C47.095 1.38364 47.3049 1.59292 47.5987 1.59292H47.6407C47.8925 1.59292 48.1444 1.34179 48.1444 1.09066Z" fill="#182D4D"/>
<path d="M50.453 1.29994C50.6628 0.630268 51.2505 0.337286 51.8801 0.420995C52.5936 0.546559 53.0134 1.04881 52.8875 1.67663C52.8455 2.01147 52.6356 2.30445 52.2998 2.38816C52.4257 2.47187 52.8455 2.76485 52.7196 3.39267C52.5936 4.1879 51.9221 4.52274 51.1665 4.39718C50.453 4.27161 49.9493 3.7275 49.9912 2.97412L50.7468 3.09969V3.14154C50.7468 3.43452 50.9986 3.7275 51.2924 3.76936C51.7122 3.85307 51.964 3.56009 52.006 3.2671C52.048 2.97412 51.9221 2.63929 51.4603 2.55558H51.3764L51.4603 2.01147H51.5443C51.9221 2.05332 52.09 1.84405 52.1739 1.59292C52.2159 1.29994 52.048 1.04881 51.7542 1.00696C51.7122 1.00696 51.6702 1.00696 51.6282 1.00696C51.3764 1.00696 51.1665 1.17438 51.1245 1.4255L50.453 1.29994Z" fill="#182D4D"/>
<path d="M29.298 69.774C29.7597 69.774 29.9696 69.9832 29.9696 70.1925C29.9696 70.2762 29.9276 70.4018 29.7177 70.5273C29.5918 70.5692 29.4659 70.611 29.298 70.611H28.5844C27.7449 70.6948 27.7449 70.904 27.7449 70.904V70.9459C27.7869 71.1552 27.8289 71.6156 27.4091 71.9085C27.2832 71.9922 27.1573 72.076 26.9894 72.1597C26.8215 72.2434 26.6956 72.3271 26.6116 72.4108C26.5697 72.4527 26.4857 72.5364 26.4437 72.5782C26.3178 72.7038 26.1079 72.7038 25.982 72.5782C25.94 72.5364 25.8981 72.4526 25.8981 72.3689C25.8981 72.3689 25.8981 72.3689 25.8981 72.3271C25.8981 72.3271 25.8561 72.3689 25.8141 72.3689C25.5623 72.4945 25.3524 72.6201 25.1845 72.7038C24.7648 72.9549 24.5129 73.1223 24.1352 73.1223C23.9673 73.1223 23.7994 73.0805 23.6315 73.0386C23.5055 72.9968 23.4216 72.8712 23.3796 72.7456C23.3796 72.6201 23.4216 72.4945 23.5475 72.4108C23.5895 72.3689 23.7154 72.2015 23.8413 72.0341C24.2191 71.5318 24.7648 70.8203 25.4783 70.4436C24.0092 70.2344 22.6241 69.6065 21.197 68.5602C20.9031 68.3509 20.5254 68.2253 20.1476 68.2253C20.1056 68.2253 20.1056 68.2253 20.0637 68.2253C19.518 68.2253 19.0143 68.3928 18.9723 68.4346C18.4686 68.6857 16.4119 69.4391 16.0761 69.5228C15.9922 69.5228 15.6983 69.5647 14.9428 69.6484C14.3971 69.6902 13.5996 69.774 13.4737 69.8158C13.4317 69.8158 13.3898 69.8158 13.3478 69.8158C13.1379 69.8158 12.97 69.6484 12.97 69.4391C12.97 69.3554 13.012 69.2717 13.054 69.188C13.1799 69.0624 13.3058 68.8532 13.5157 68.6857H13.3898C13.1379 68.7276 12.8861 68.7694 12.5923 68.7694C12.3824 68.8113 11.8367 68.8532 11.1651 68.8532C10.0318 68.8532 8.56274 68.6857 7.80721 67.9324C7.72326 67.8486 7.68128 67.7231 7.68128 67.5975C7.68128 67.5138 7.68128 67.472 7.72326 67.3883C7.8072 67.2208 7.93313 67.0953 8.143 67.0953C8.31089 67.0953 8.85656 66.8441 9.40222 66.593C10.7034 66.0489 12.6342 65.17 14.3132 65.1281C14.9848 65.1281 15.6144 65.17 16.244 65.2537C17.5872 65.4211 19.3081 65.7978 20.9871 67.0116C20.8192 66.5512 20.6933 65.9652 20.6093 65.3792V65.3374C20.5674 65.0862 20.5254 64.7514 20.4834 64.7096C20.4414 64.6677 20.3995 64.584 20.3995 64.5003C20.3995 64.4584 20.3995 64.3747 20.4414 64.3329C20.4834 64.2073 20.6513 64.1236 20.7772 64.1236H20.8192C21.4908 64.2073 22.1624 65.0863 22.75 66.0071V65.9233C22.792 65.7978 22.9179 65.7141 23.0438 65.7141C23.1698 65.7141 23.2957 65.7978 23.3376 65.9233V65.9652C23.3376 66.007 23.3796 66.0908 23.3796 66.1745C23.4216 66.2163 23.5475 66.3419 23.6315 66.4674C24.0512 66.9278 24.6808 67.5557 24.6388 68.3091C24.5969 69.1043 25.3944 69.5228 25.6882 69.5647C26.1919 69.6484 26.6956 69.6903 27.2832 69.6903C27.619 69.6903 27.9548 69.6902 28.2906 69.6484C28.7523 69.774 29.0461 69.774 29.298 69.774ZM21.071 64.7514C21.113 64.877 21.155 65.0863 21.197 65.3792C21.3229 66.0908 21.4908 67.179 21.9105 67.8068L21.9525 67.8486C22.75 68.602 23.7154 69.188 24.8067 69.5647H24.8487C24.5969 69.2717 24.429 68.9369 24.429 68.5183C24.429 68.4765 24.429 68.4346 24.429 68.3928C24.471 67.8486 23.8833 67.2627 23.5475 66.886C23.4636 66.8023 23.3796 66.7186 23.3376 66.6349C23.2957 66.7604 23.1698 66.8441 23.0438 66.8441C22.9599 66.8441 22.834 66.8023 22.792 66.7186L22.75 66.6767C22.4142 66.2163 21.6587 65.0444 21.071 64.7514ZM20.1896 67.8486C20.7353 67.8486 21.197 67.9742 21.5747 68.2672C21.6587 68.3509 21.7426 68.3928 21.8266 68.4765C21.5747 68.2672 21.4068 68.0579 21.2809 67.9324C19.518 66.4674 17.6711 66.0489 16.244 65.8815C15.7823 65.7978 15.2366 65.7559 14.691 65.7559C14.607 65.7559 14.4811 65.7559 14.3972 65.7559C12.8021 65.7978 10.9133 66.6349 9.65407 67.179C8.85656 67.5138 8.43682 67.6812 8.22695 67.6812V67.7231C8.85656 68.3928 10.2417 68.5183 11.2491 68.5183C11.8787 68.5183 12.4244 68.4765 12.6342 68.4346H12.6762C12.9281 68.4346 13.1799 68.3928 13.4317 68.3509C13.7675 68.309 14.0614 68.2672 14.3972 68.2672L15.2366 68.3091L14.4811 68.7276C14.0614 68.9369 13.7675 69.2298 13.5996 69.4391C13.8095 69.3973 14.2293 69.3554 14.9848 69.2717C15.4045 69.2299 15.9502 69.1461 16.0341 69.1461C16.3699 69.0624 18.3847 68.3509 18.8464 68.0998C18.9304 68.0579 19.518 67.8486 20.1896 67.8486ZM27.1573 71.5318C27.3672 71.3644 27.3252 71.1133 27.3252 70.9877C27.1153 70.8203 26.8635 70.7366 26.5697 70.7366C26.3598 70.7366 26.1499 70.7785 25.8981 70.8622C25.2685 71.1552 24.7228 71.8667 24.345 72.3689C24.2191 72.4945 24.1352 72.6201 24.0932 72.7038C24.429 72.7456 24.6388 72.6619 25.0586 72.3689C25.2265 72.2434 25.4364 72.1597 25.6882 71.9923C25.7722 71.9504 25.8561 71.8667 25.94 71.8248C26.066 71.7411 26.1919 71.6574 26.3178 71.5737L27.0734 71.197L26.6536 71.8248L26.8215 71.7411C26.9474 71.6993 27.0733 71.6156 27.1573 71.5318Z" fill="#182D4D"/>
<path d="M83.3187 67.4719C83.4027 67.6394 83.3607 67.8486 83.2348 68.0161C82.4792 68.7694 80.9682 68.9369 79.8768 68.9369C79.2053 68.9369 78.6596 68.895 78.4497 68.8531C78.1979 68.8531 77.9041 68.8113 77.6522 68.7694H77.5263C77.7362 68.9368 77.8621 69.1461 77.988 69.2717C78.072 69.3973 78.072 69.5647 78.03 69.6902C77.946 69.8577 77.7362 69.9414 77.5263 69.8995C77.4423 69.8577 76.6029 69.7739 76.0992 69.7321C75.6375 69.6902 75.2597 69.6484 74.8819 69.5647H74.9659C74.6301 69.481 72.5733 68.7276 72.0696 68.4765C71.7339 68.3509 71.3561 68.2672 70.9783 68.2672C70.5166 68.2672 70.1388 68.3927 69.845 68.602C68.4179 69.6484 67.0327 70.2762 65.5637 70.4855C66.2772 70.8203 66.8229 71.5737 67.2006 72.0759C67.3266 72.2434 67.4525 72.4108 67.4945 72.4526C67.5784 72.4945 67.6624 72.62 67.6624 72.7456C67.6624 72.8712 67.5784 72.9967 67.4105 73.0386C67.2006 73.0805 67.0747 73.1223 66.9068 73.1223C66.5291 73.1223 66.2772 72.9549 65.8575 72.7038C65.6896 72.5782 65.4797 72.4526 65.2279 72.3271L65.1439 72.2852C65.1439 72.3689 65.1439 72.4526 65.06 72.4945C64.934 72.6201 64.7242 72.6201 64.5982 72.4945C64.5563 72.4526 64.5143 72.3689 64.4304 72.3271C64.3464 72.2434 64.1785 72.1597 64.0526 72.0759C63.9267 71.9922 63.7588 71.9085 63.6328 71.8248C63.2551 71.5318 63.2971 71.0296 63.2971 70.8622V70.8203C63.2971 70.8203 63.2971 70.611 62.4576 70.5273H61.744H61.702C61.5761 70.5273 61.4502 70.4855 61.3243 70.4436C61.1144 70.3599 61.0724 70.1925 61.0724 70.1088C61.0724 69.8995 61.2823 69.6902 61.744 69.6902C61.9959 69.6902 62.2897 69.6902 62.5835 69.7321C62.9193 69.7321 63.2551 69.7739 63.5909 69.7739C64.1785 69.7739 64.6402 69.7321 65.1859 69.6484C65.4797 69.6065 66.2772 69.188 66.2352 68.3927C66.1933 67.6812 66.8229 67.0115 67.2426 66.5511C67.3266 66.4256 67.4525 66.3 67.4945 66.2582C67.5364 66.2163 67.5364 66.1326 67.5364 66.0907V66.0489C67.5364 66.007 67.5364 66.007 67.5364 65.9652C67.5364 65.7978 67.6624 65.6722 67.8303 65.6722C67.9982 65.6722 68.1241 65.7978 68.1241 65.9652C68.1241 66.007 68.1241 66.007 68.1241 66.0489V66.1326C68.7537 65.2118 69.4253 64.3329 70.0549 64.2491H70.0969C70.2228 64.2491 70.3487 64.3329 70.4327 64.4584C70.4746 64.584 70.4746 64.7095 70.3907 64.7932C70.3487 64.8351 70.3067 65.1699 70.2648 65.4211C70.1808 65.8815 70.0969 66.5511 69.887 67.1371C71.566 65.9233 73.2869 65.5466 74.6301 65.3792C75.1338 65.2955 75.6794 65.2537 76.2671 65.2537C76.393 65.2537 76.4769 65.2537 76.6029 65.2537C78.2818 65.2955 80.2126 66.1745 81.5138 66.7186C82.0595 66.9697 82.6052 67.179 82.7731 67.179C83.1089 67.179 83.2348 67.3045 83.3187 67.4719ZM67.6624 66.886C67.3266 67.2627 66.7389 67.8486 66.7809 68.3927C66.7809 68.4346 66.7809 68.4765 66.7809 68.5183C66.7809 68.9369 66.613 69.3135 66.3612 69.5647C66.9488 69.3554 67.4525 69.1461 67.9142 68.895H67.8722C68.5018 68.5183 68.9636 68.1416 69.2574 67.8486L69.2994 67.8068C69.7191 67.179 69.887 66.0907 70.0129 65.3792C70.0549 65.0862 70.0969 64.877 70.1388 64.7514C69.5512 65.0025 68.7957 66.2163 68.5018 66.6767L68.4599 66.7186C68.4179 66.8023 68.3339 66.8441 68.208 66.8441C68.0821 66.8441 67.9562 66.7604 67.9142 66.6349C67.8303 66.7186 67.7463 66.8023 67.6624 66.886ZM66.8229 72.3689C66.4451 71.8667 65.8994 71.1551 65.2698 70.8622C65.06 70.7784 64.8501 70.7366 64.5982 70.7366C64.3044 70.7366 64.0526 70.8203 63.8427 70.9877C63.8007 71.1133 63.8007 71.3644 64.0106 71.5318C64.0946 71.6155 64.2205 71.6993 64.3464 71.7411L64.5143 71.8248L64.0946 71.197L64.8501 71.5737C64.976 71.6574 65.1019 71.7411 65.2279 71.8248C65.3118 71.9085 65.3958 71.9504 65.4797 71.9922C65.7316 72.1178 65.9414 72.2434 66.1093 72.3689C66.4871 72.5782 66.697 72.7038 66.9068 72.7038C66.9488 72.7038 67.0328 72.7038 67.0747 72.7038C67.0328 72.6201 66.9488 72.4945 66.8229 72.3689ZM82.899 67.6812V67.6394C82.6471 67.6394 82.2694 67.4719 81.4719 67.1371C80.2126 66.593 78.3238 65.7559 76.7288 65.7141C76.6448 65.7141 76.5189 65.7141 76.435 65.7141C75.8893 65.7141 75.3436 65.7559 74.8399 65.8396H74.8819C73.4548 66.0489 71.6079 66.4674 69.845 67.9323C69.7191 68.0998 69.5512 68.2672 69.2994 68.4765L69.5512 68.2672C69.929 68.0161 70.3907 67.8486 70.8524 67.8486C70.8944 67.8486 70.8944 67.8486 70.9363 67.8486C71.6079 67.8486 72.1956 68.0579 72.2375 68.0998C72.6993 68.309 74.714 69.0624 75.0498 69.1461C75.1338 69.1461 75.6794 69.2298 76.0992 69.2717C76.8547 69.3554 77.2744 69.3973 77.4843 69.4391C77.2325 69.1461 76.9387 68.895 76.6029 68.7276L75.8473 68.309L76.6868 68.2672C77.0226 68.2672 77.3584 68.309 77.6522 68.3509C77.9041 68.3927 78.1559 68.4346 78.4077 68.4346H78.4497C78.6596 68.4765 79.1633 68.5183 79.8349 68.5183C80.8842 68.4765 82.2694 68.3509 82.899 67.6812Z" fill="#182D4D"/>
<path d="M52.006 35.8299C51.964 35.8299 51.9221 35.8299 51.8801 35.7881C51.7542 35.7462 51.5863 35.7044 51.4603 35.6625C51.2085 35.5788 50.9147 35.5788 50.5789 35.5788C50.2851 35.5788 50.0332 35.5369 49.7394 35.4951C48.9839 35.3277 48.69 34.658 48.5641 34.365C48.5221 34.1976 48.5221 34.072 48.5641 33.9046C48.774 33.4442 49.4456 32.3141 51.2085 32.1467C51.2924 32.1467 51.4184 32.1467 51.5443 32.1467C52.8455 32.1467 54.2726 32.8164 55.238 33.2768C55.5738 33.4442 55.9516 33.6116 56.0775 33.6116C56.2454 33.6116 56.3713 33.6953 56.4553 33.8628C56.5392 34.0302 56.4972 34.1976 56.3713 34.3232C55.7417 34.951 55.238 35.0765 54.5664 35.0765C54.3566 35.0765 54.1047 35.0765 53.8529 35.0347C53.4751 35.0347 53.0973 34.9928 52.5936 34.9928C52.3838 34.9928 52.2159 34.951 52.006 34.951C52.1319 35.0765 52.2159 35.1603 52.2578 35.244C52.2998 35.2858 52.3418 35.3695 52.3418 35.4532C52.3838 35.6625 52.2159 35.8299 52.006 35.8299ZM51.6282 32.5653C51.5443 32.5653 51.4603 32.5653 51.3344 32.5653C49.7814 32.6908 49.2357 33.6535 49.0678 34.0302C49.0678 34.0302 49.0678 34.072 49.0678 34.1139V34.1557C49.1518 34.4069 49.4036 34.8673 49.9073 34.9928C50.1591 35.0347 50.411 35.0347 50.6628 35.0765C50.9986 35.0765 51.3344 35.1184 51.6282 35.2021L51.7122 35.244C51.5443 35.0765 51.3764 34.951 51.1665 34.8673L50.411 34.4487L51.2505 34.4069C51.5023 34.4069 51.7961 34.4487 52.048 34.4487C52.2578 34.4906 52.4677 34.4906 52.6356 34.4906C53.1393 34.4906 53.559 34.5324 53.9368 34.5324C54.1887 34.5324 54.4405 34.5743 54.6504 34.5743C55.238 34.5743 55.6158 34.4906 56.0775 33.9883C55.8676 33.9465 55.6158 33.8209 55.1121 33.6116C54.1887 33.2349 52.8455 32.5653 51.6282 32.5653Z" fill="#182D4D"/>
<path d="M34.6707 71.6993H34.5867V67.0953H34.6707H35.3003H35.9719C36.8533 67.0953 37.5249 67.3046 37.9447 67.765C38.3224 68.1835 38.5323 68.6858 38.5323 69.2717C38.5323 69.3136 38.5323 69.3136 38.5323 69.3554C38.5323 70.0251 38.2804 70.6111 37.8187 71.0715C37.357 71.5319 36.7274 71.7411 35.8459 71.7411C35.678 71.7411 35.4682 71.7411 35.3003 71.7411C35.1324 71.6993 34.9225 71.6993 34.6707 71.6993ZM35.9299 67.8487C35.762 67.8487 35.5941 67.8487 35.3842 67.8487V70.9459C35.5941 70.9459 35.762 70.9459 35.8879 70.9459C36.4336 70.9459 36.8533 70.8203 37.1891 70.5274C37.4829 70.2344 37.6508 69.8577 37.6508 69.4391C37.6508 69.3973 37.6508 69.3973 37.6508 69.3554C37.6508 68.895 37.4829 68.5183 37.1891 68.2254C36.8953 67.9324 36.4756 67.8487 35.9299 67.8487Z" fill="#182D4D"/>
<path d="M40.4631 71.6993H39.6656L41.6384 67.0953H42.3519L44.3247 71.6993H43.4433L42.9816 70.5274H41.0088L40.4631 71.6993ZM42.6038 69.774L41.9322 68.1416L41.2606 69.774H42.6038Z" fill="#182D4D"/>
<path d="M45.9617 71.6993H46.7592V67.0953H45.9617V71.6993Z" fill="#182D4D"/>
<path d="M51.964 71.6993H49.0678V67.0953H49.8653V70.9459H51.964V71.6993Z" fill="#182D4D"/>
<path d="M55.5738 67.0953H56.4553L54.8183 69.774V71.6993H54.0208V69.774L52.3838 67.0953H53.3072L54.4405 69.0206L55.5738 67.0953Z" fill="#182D4D"/>
<path d="M24.9746 77.224L26.2758 76.5962L26.8635 76.8473L25.3944 77.517L25.8981 79.2331L25.2684 78.9819L24.8907 77.5589L24.8067 77.6007L24.387 78.6052L23.9253 78.396L24.9327 76.0103L25.3944 76.2195L24.9746 77.224Z" fill="#182D4D"/>
<path d="M27.8289 77.224L27.9968 78.6471L28.9622 77.6007L29.4659 77.7681L27.4511 79.7772L26.9474 79.6098L27.5351 79.0656L27.2832 77.0148L27.8289 77.224Z" fill="#182D4D"/>
<path d="M31.8164 78.5216L31.0609 80.991L30.5992 80.8654L31.2288 78.8146L30.5152 78.6053L30.1794 79.6935C30.0955 79.9446 30.0115 80.2795 29.6757 80.405C29.5498 80.4469 29.3819 80.4888 29.1301 80.405C29.0461 80.3632 29.0041 80.3632 28.9202 80.3213L29.0461 79.9028C29.0881 79.9446 29.1301 79.9446 29.172 79.9446C29.298 79.9865 29.3819 79.9446 29.4239 79.9446C29.5918 79.8609 29.6338 79.6517 29.7177 79.4005L30.1374 77.9775L31.8164 78.5216Z" fill="#182D4D"/>
<path d="M33.2016 78.8983L32.7818 80.5724L34.5867 79.1912L34.9225 79.275L34.2929 81.8281L33.7892 81.7025L34.2089 80.0283L32.4041 81.4095L32.0683 81.3258L32.6979 78.7727L33.2016 78.8983Z" fill="#182D4D"/>
<path d="M36.1398 80.5724L37.2311 80.7817L37.399 79.819L37.9027 79.9028L37.441 82.4559L36.9373 82.3722L37.1471 81.2421L36.0558 81.0328L35.8459 82.1629L35.3423 82.0792L35.804 79.5261L36.3077 79.6098L36.1398 80.5724Z" fill="#182D4D"/>
<path d="M40.0434 82.2048L38.994 82.0792L38.7002 82.5815L38.1545 82.5396L39.5816 80.0702L39.9594 80.112L40.715 82.8326L40.1693 82.7907L40.0434 82.2048ZM39.9594 81.7862L39.7076 80.8236L39.2459 81.7025L39.9594 81.7862Z" fill="#182D4D"/>
<path d="M42.4359 80.3631C42.7297 80.3631 42.9396 80.405 43.1075 80.6143C43.3173 80.8235 43.3593 81.0747 43.3173 81.2421C43.3173 81.3258 43.2753 81.6188 43.0655 81.7862C42.8976 81.9118 42.6877 81.9955 42.3939 81.9536H42.0581L42.0161 82.9163L41.5124 82.8744L41.6803 80.3213L42.4359 80.3631ZM42.1001 81.4932H42.3099C42.3939 81.4932 42.5198 81.4932 42.6457 81.4514C42.7297 81.3677 42.8136 81.2839 42.8136 81.1584C42.8136 81.1584 42.8136 81.1584 42.8136 81.1165C42.8136 80.991 42.7717 80.9073 42.6877 80.8235C42.6038 80.7398 42.4778 80.7398 42.3519 80.7398H42.184L42.1001 81.4932Z" fill="#182D4D"/>
<path d="M44.5766 81.4095H45.6679V80.405H46.1716V83H45.6679V81.8699H44.5766V83H44.0729V80.4469H44.5766V81.4095Z" fill="#182D4D"/>
<path d="M48.69 82.3722L47.6407 82.414L47.4308 82.9581L46.8851 83L47.8506 80.3213H48.2283L49.4456 82.8744L48.8999 82.9163L48.69 82.3722ZM48.5221 81.9536L48.1024 81.0328L47.7666 81.9955L48.5221 81.9536Z" fill="#182D4D"/>
<path d="M51.8801 82.5815L51.3764 82.6234L51.2505 81.6188H51.1665L50.6209 82.6652L50.0332 82.7489L50.6628 81.6188C50.5369 81.6188 50.453 81.577 50.369 81.5351C50.1592 81.4096 50.0332 81.2003 50.0332 80.9492C49.9913 80.6562 50.0752 80.4469 50.2011 80.3213C50.369 80.1121 50.6209 80.0702 50.8307 80.0702L51.5863 79.9865L51.8801 82.5815ZM50.9567 80.5306C50.8727 80.5306 50.453 80.5725 50.4949 80.9492C50.5369 81.3259 50.9147 81.284 51.0406 81.284H51.1665L51.0826 80.5306H50.9567Z" fill="#182D4D"/>
<path d="M55.6997 79.3586L56.2034 81.8699L55.6997 81.9536L55.28 79.8609L54.5664 79.9865L54.7763 81.1165C54.8183 81.3677 54.9022 81.7025 54.6504 81.9955C54.5664 82.0792 54.4405 82.2048 54.1887 82.2466C54.1467 82.2466 54.0627 82.2466 54.0208 82.2466C54.0208 82.2466 54.0208 82.2466 53.9788 82.2466L53.8948 81.8281C53.9368 81.8281 53.9788 81.8281 54.0208 81.8281C54.1467 81.8281 54.1887 81.7444 54.2306 81.7025C54.3146 81.5351 54.2726 81.3258 54.2306 81.0747L53.9368 79.6098L55.6997 79.3586Z" fill="#182D4D"/>
<path d="M58.554 80.7399L57.5466 80.991L57.4626 81.577L56.917 81.7025L57.3367 78.8983L57.7145 78.8146L59.3934 81.0747L58.8898 81.2003L58.554 80.7399ZM58.3021 80.4051L57.7145 79.6098L57.5886 80.6143L58.3021 80.4051Z" fill="#182D4D"/>
<path d="M60.0231 78.2286C60.149 78.1867 60.4428 78.103 60.6527 78.1867C60.8206 78.2704 60.9885 78.4378 61.0304 78.6052C61.0304 78.6471 61.0724 78.7308 61.0724 78.7727C61.0724 78.9401 61.0304 79.0656 60.9045 79.1494C61.0724 79.1075 61.1983 79.1494 61.2823 79.1912C61.4502 79.2749 61.5341 79.4005 61.6181 79.6098C61.6601 79.7353 61.702 79.9864 61.5761 80.1539C61.4502 80.3631 61.2403 80.4887 61.0304 80.5306L60.191 80.7817L59.4354 78.3123L60.0231 78.2286ZM60.191 79.2749L60.3169 79.2331C60.4008 79.1912 60.6946 79.1075 60.6107 78.8145C60.5267 78.6052 60.3589 78.5634 60.149 78.6052L60.0231 78.6471L60.191 79.2749ZM60.5267 80.3213L60.7366 80.2794C60.8206 80.2376 60.9465 80.1957 61.0304 80.112C61.1144 79.9864 61.1144 79.8609 61.0724 79.7772C61.0304 79.6935 60.9885 79.5679 60.8206 79.5679C60.6946 79.5679 60.5687 79.6098 60.4848 79.6098L60.3169 79.6516L60.5267 80.3213Z" fill="#182D4D"/>
<path d="M62.6675 78.4797L63.1711 77.1403L63.7588 76.931L63.1292 78.4378L64.6822 79.3586L64.0526 79.5679L62.7934 78.8145L62.7514 78.8982L63.1292 79.9027L62.6675 80.0701L61.786 77.6426L62.2477 77.4751L62.6675 78.4797Z" fill="#182D4D"/>
<path d="M66.655 77.9356L65.6896 78.3541V78.9401L65.1859 79.1493V76.3032L65.5217 76.1358L67.5784 78.103L67.0747 78.3122L66.655 77.9356ZM66.3612 77.6007L65.6476 76.8892L65.6896 77.8937L66.3612 77.6007Z" fill="#182D4D"/>
</svg>
