<svg width="1360" height="728" viewBox="0 0 1360 728" fill="none" xmlns="http://www.w3.org/2000/svg">
<g clip-path="url(#clip0)">
<g filter="url(#filter0_d)">
<path d="M-177.846 629.799C-177.846 629.799 -130.978 327.717 113.752 327.017C358.412 326.317 510.384 637.712 835.319 535.687C1160.25 433.663 1234.04 260.004 1494.05 408.384L1509.11 1118.28L-159.643 1144.89L-177.846 629.799Z" fill="white"/>
</g>
<path d="M-178 654.784C-178 654.784 -131.132 352.701 113.598 352.001C358.258 351.301 510.23 662.696 835.165 560.672C1160.1 458.647 1233.89 284.989 1493.89 433.369L1508.96 1143.27L-159.797 1169.88L-178 654.784Z" fill="#F9F9F9"/>
<path d="M-178.494 654.707L-178.501 654.754L-178.5 654.801L-160.297 1169.9L-160.279 1170.39L-159.789 1170.38L1508.97 1143.77L1509.47 1143.76L1509.46 1143.26L1494.39 433.358L1494.39 433.075L1494.14 432.934C1429.1 395.814 1375.66 378.813 1327 375.816C1278.34 372.818 1234.51 383.829 1188.69 402.656C1156.56 415.856 1123.43 432.912 1086.96 451.684C1071.43 459.675 1055.3 467.977 1038.39 476.426C981.726 504.729 916.214 534.699 835.015 560.195C672.752 611.143 553.683 558.886 444.534 493.903C426.001 482.87 407.747 471.464 389.614 460.135C354.369 438.113 319.581 416.377 284.093 398.213C230.325 370.693 174.872 351.326 113.597 351.501C-9.01981 351.852 -82.0558 427.718 -124.411 503.411C-145.589 541.258 -159.108 579.078 -167.333 607.433C-171.446 621.612 -174.236 633.426 -175.997 641.698C-176.878 645.834 -177.502 649.084 -177.906 651.301C-178.108 652.41 -178.255 653.26 -178.351 653.834C-178.399 654.121 -178.435 654.339 -178.459 654.485C-178.471 654.558 -178.479 654.613 -178.485 654.65L-178.492 654.692L-178.493 654.703C-178.494 654.706 -178.494 654.707 -178 654.784L-178.494 654.707Z" stroke="black" stroke-opacity="0.05"/>
</g>
<defs>
<filter id="filter0_d" x="-217.846" y="247.016" width="1766.96" height="897.878" filterUnits="userSpaceOnUse" color-interpolation-filters="sRGB">
<feFlood flood-opacity="0" result="BackgroundImageFix"/>
<feColorMatrix in="SourceAlpha" type="matrix" values="0 0 0 0 0 0 0 0 0 0 0 0 0 0 0 0 0 0 127 0"/>
<feOffset dy="-40"/>
<feGaussianBlur stdDeviation="20"/>
<feColorMatrix type="matrix" values="0 0 0 0 0.0106856 0 0 0 0 0.0336681 0 0 0 0 0.0448568 0 0 0 0.4 0"/>
<feBlend mode="normal" in2="BackgroundImageFix" result="effect1_dropShadow"/>
<feBlend mode="normal" in="SourceGraphic" in2="effect1_dropShadow" result="shape"/>
</filter>
<clipPath id="clip0">
<rect width="1360" height="728" fill="white"/>
</clipPath>
</defs>
</svg>
