<svg width="1360" height="624" viewBox="0 0 1360 624" fill="none" xmlns="http://www.w3.org/2000/svg">
<g clip-path="url(#clip0)">
<rect width="1360" height="624" fill="#664781"/>
<g style="mix-blend-mode:multiply" opacity="0.4">
<path d="M960.653 1044.96C869.966 1067.92 776.969 1083.48 684.544 1100.2C642.21 1107.82 600.245 1112.6 562.627 1130.34C527.649 1147.06 501.334 1173.62 464.957 1189C436.407 1200.73 404.812 1205.5 373.587 1207.42C241.572 1215.56 110.609 1177.74 22.4386 1106.24C-58.4413 1040.76 -101.948 947.985 -97.4806 853.237C-94.9515 795.916 -69.6414 738.874 -70.324 681.418C-71.0726 620.878 -107.737 573.488 -134.989 519.728C-153.791 482.333 -165.41 442.307 -169.961 401.527C-172.303 378.051 -172.442 353.316 -161.111 330.565C-130.933 268.766 -34.6233 243.417 47.8578 237.482C150.07 230.12 254.355 239.157 348.991 263.573C423.718 282.944 499.763 316.352 581.895 316.04C674.787 315.653 747.316 271.285 825.51 236.907C1002.18 159.834 1228.86 209.54 1329.47 326.511C1453.41 471.221 1481.46 734.053 1312.11 880.888C1220.02 960.684 1093.17 1011.06 964.508 1044.07C963.337 1044.25 961.823 1044.79 960.653 1044.96Z" fill="#664780"/>
</g>
<g style="mix-blend-mode:multiply" opacity="0.4">
<path d="M999.882 956.04C942.995 997.426 881.675 1032.52 821.199 1068.54C793.485 1085.01 764.974 1098.77 744.453 1123.51C725.457 1146.73 716.397 1177.09 695.891 1199.38C679.668 1216.57 658.638 1228 636.812 1236.74C544.541 1273.68 435.826 1268.02 345.402 1221.75C262.494 1179.41 196.353 1103.57 164.113 1015.21C144.483 961.799 141.407 903.56 119.407 850.737C96.2058 795.083 51.9945 759.564 12.1944 716.072C-15.3784 685.785 -38.7492 651.472 -57.3005 614.885C-67.7784 593.763 -77.1371 570.987 -77.4719 547.483C-78.8143 483.773 -18.7645 438.925 38.5678 415.06C109.612 385.48 188.292 370.557 265.761 371.967C326.967 373.165 394.379 387.011 453.564 368.409C520.49 347.338 543.978 279.181 587.568 230.048C686.283 119.587 880.826 125.947 997.253 211.364C1140.91 317.153 1259.54 553.238 1192.23 726.388C1155.6 820.498 1082.87 895.231 1002.33 954.359C1001.55 954.783 1000.66 955.616 999.882 956.04Z" fill="#664780"/>
</g>
<g style="mix-blend-mode:multiply" opacity="0.3">
<path d="M424.483 199.177C335.898 244.118 142.569 438.467 262.444 617.582C418.182 850.471 892.358 753.831 978.692 528.392C1017.03 428.236 1017.2 269.232 828.795 211.88C754.836 189.314 634.775 92.3178 424.483 199.177Z" fill="#664780"/>
</g>
</g>
<defs>
<clipPath id="clip0">
<rect width="1360" height="624" fill="white"/>
</clipPath>
</defs>
</svg>
