<svg width="592" height="312" viewBox="0 0 592 312" fill="none" xmlns="http://www.w3.org/2000/svg">
<g style="mix-blend-mode:overlay" opacity="0.4">
<g style="mix-blend-mode:multiply" opacity="0.3">
<path d="M676.089 288.754C670.699 333.668 629.805 365.591 584.822 360.023C567.907 357.982 552.851 350.929 540.954 340.535C513.072 473.238 387.603 564.738 250.423 548.034C105.437 530.402 2.45928 398.813 19.932 254.232C37.5906 109.466 169.38 6.64462 314.18 24.0908C355.632 29.102 393.551 43.393 426.266 64.7368C454.892 20.7501 506.938 -5.79044 562.702 1.07668C640.214 10.5422 695.421 80.8838 685.941 158.278C682.781 184.076 672.743 207.462 658.059 226.764C671.814 243.468 678.877 265.554 676.089 288.754Z" fill="#F4F8FF"/>
</g>
</g>
<g style="mix-blend-mode:overlay" opacity="0.1">
<path d="M609 289.732C609 304.783 596.81 317 581.794 317L2.16861 317C-15.1442 254.142 77.2496 218.729 65.4133 155.872C44.0373 42.5508 169.467 -19.5986 240.838 5.5445C319.982 33.5206 374.571 181.369 469.968 175.172C482.334 174.286 503.18 173.047 521.906 159.059C555.118 134.27 594.337 91.9517 608.823 104.7L608.823 289.732L609 289.732Z" fill="#F4F8FF"/>
</g>
</svg>
