<svg width="103" height="74" viewBox="0 0 103 74" fill="none" xmlns="http://www.w3.org/2000/svg">
<path d="M80.8446 14.3619C73.3941 14.3619 73.3941 11.1704 65.9437 11.1704C58.4987 11.1704 58.4987 14.3619 51.0537 14.3619C43.6064 14.3619 43.6064 11.1704 36.1591 11.1704C28.7141 11.1704 28.7141 14.3619 21.2691 14.3619C13.8256 14.3619 13.8256 11.1704 6.383 11.1704V33.5108C13.8256 33.5108 13.8256 36.7023 21.2691 36.7023C28.7141 36.7023 28.7141 33.5108 36.1583 33.5108C43.6056 33.5108 43.6056 36.7023 51.0537 36.7023C58.4987 36.7023 58.4987 33.5108 65.9437 33.5108C73.3941 33.5108 73.3941 36.7023 80.8438 36.7023C88.2943 36.7023 88.2943 33.5108 95.7447 33.5108V11.1704C88.2943 11.1704 88.2943 14.3619 80.8446 14.3619Z" fill="#ECEAEC"/>
<path d="M65.9437 22.3403C58.4987 22.3403 58.4987 25.5318 51.0537 25.5318C43.6064 25.5318 43.6064 22.3403 36.1591 22.3403C28.7141 22.3403 28.7141 25.5318 21.2691 25.5318C13.8256 25.5318 13.8256 22.3403 6.383 22.3403V33.5105C13.8256 33.5105 13.8256 36.702 21.2691 36.702C28.7141 36.702 28.7141 33.5105 36.1583 33.5105C43.6056 33.5105 43.6056 36.702 51.0537 36.702C58.4987 36.702 58.4987 33.5105 65.9437 33.5105C73.3941 33.5105 73.3941 36.702 80.8438 36.702C88.2943 36.702 88.2943 33.5105 95.7447 33.5105V22.3403C88.2943 22.3403 88.2943 25.5318 80.8438 25.5318C73.3941 25.5318 73.3941 22.3403 65.9437 22.3403Z" fill="#DAD8DB"/>
<path d="M21.2691 25.5321C24.9974 25.5321 26.8589 24.7311 28.7234 23.9324V12.7622C26.8589 13.5609 24.9974 14.3618 21.2691 14.3618C19.7645 14.3618 18.5724 14.2278 17.5532 14.019V25.1955C18.5724 25.4035 19.7645 25.5321 21.2691 25.5321Z" fill="#6F6571"/>
<path d="M28.7234 35.1024C30.5817 34.3053 32.4424 33.5105 36.1583 33.5105C37.673 33.5105 38.8698 33.6461 39.8936 33.8565V22.6808C38.8698 22.4705 37.673 22.3403 36.1583 22.3403C32.4424 22.3403 30.5817 23.1351 28.7234 23.9322V35.1024Z" fill="#5D5360"/>
<path d="M17.5532 25.1952C13.5311 24.374 12.3211 22.3403 6.383 22.3403V33.5105C12.3211 33.5105 13.5311 35.538 17.5532 36.3592V25.1952Z" fill="#5D5360"/>
<path d="M51.0537 25.5319H51.0638V14.3617C51.0599 14.3617 51.0576 14.3617 51.0537 14.3617C45.1203 14.3617 43.9048 12.3397 39.8936 11.5161V22.6809C43.9048 23.5045 45.1203 25.5319 51.0537 25.5319Z" fill="#6F6571"/>
<path d="M51.0638 36.7012C56.998 36.6988 58.2073 34.6714 62.2341 33.851V22.6753C58.2073 23.495 56.998 25.5286 51.0638 25.531V36.7012Z" fill="#5D5360"/>
<path d="M65.9437 22.3406C69.6759 22.3406 71.5382 23.1416 73.4043 23.941V12.7708C71.5382 11.9714 69.6759 11.1704 65.9437 11.1704C64.4422 11.1704 63.2524 11.3036 62.2341 11.5109V22.6757C63.2524 22.4684 64.4422 22.3406 65.9437 22.3406Z" fill="#6F6571"/>
<path d="M73.4042 35.1111C75.2633 35.9074 77.1256 36.7022 80.8446 36.7022C82.3561 36.7022 83.5514 36.5666 84.5744 36.357V25.1938C83.5514 25.4034 82.3561 25.532 80.8446 25.532C77.1256 25.532 75.2633 24.7372 73.4042 23.9409V35.1111Z" fill="#5D5360"/>
<path d="M84.5745 14.0167V25.194C88.5919 24.3704 89.8066 22.3406 95.7447 22.3406V11.1704C89.8066 11.1704 88.5919 13.1939 84.5745 14.0167Z" fill="#6F6571"/>
<path d="M9.57444 3.19145C9.57444 1.203 7.75663 -0.360017 5.69183 0.0724236C4.53553 0.314746 3.57014 1.24274 3.28964 2.39046C3.00212 3.56779 3.36989 4.66019 4.09764 5.40352C4.52385 5.83908 4.78721 6.40554 4.78721 7.01485V65.4255H7.9787V7.02498C7.9787 6.39151 8.27634 5.82038 8.71034 5.35911C9.24485 4.79265 9.57444 4.03296 9.57444 3.19145Z" fill="#FFE07D"/>
<path d="M6.38296 62.2339C4.62047 62.2339 3.19147 63.6629 3.19147 65.4254V73.4041H9.57445V65.4254C9.57445 63.6629 8.14544 62.2339 6.38296 62.2339Z" fill="#FFD064"/>
<path d="M11.1702 75.0001H1.59574C0.713722 75.0001 0 74.2856 0 73.4043C0 72.5231 0.713722 71.8086 1.59574 71.8086H11.1702C12.0522 71.8086 12.766 72.5231 12.766 73.4043C12.766 74.2856 12.0522 75.0001 11.1702 75.0001Z" fill="#FFE07D"/>
<path d="M98.9362 3.19145C98.9362 1.203 97.1184 -0.360017 95.0536 0.0724236C93.8973 0.314746 92.9319 1.24274 92.6514 2.39046C92.3639 3.56779 92.7316 4.66019 93.4594 5.40352C93.8856 5.83908 94.149 6.40554 94.149 7.01485V65.4255H97.3405V7.02498C97.3405 6.39151 97.6381 5.82038 98.0721 5.35911C98.6066 4.79265 98.9362 4.03296 98.9362 3.19145Z" fill="#FFE07D"/>
<path d="M95.7447 62.2339C93.9822 62.2339 92.5532 63.6629 92.5532 65.4254V73.4041H98.9362V65.4254C98.9362 63.6629 97.5072 62.2339 95.7447 62.2339Z" fill="#FFD064"/>
<path d="M100.532 75.0001H90.9574C90.0754 75.0001 89.3617 74.2856 89.3617 73.4043C89.3617 72.5231 90.0754 71.8086 90.9574 71.8086H100.532C101.414 71.8086 102.128 72.5231 102.128 73.4043C102.128 74.2856 101.414 75.0001 100.532 75.0001Z" fill="#FFE07D"/>
</svg>
