<svg width="225" height="171" viewBox="0 0 225 171" fill="none" xmlns="http://www.w3.org/2000/svg">
<g clip-path="url(#clip0)">
<path d="M30.921 94.8297L26.4679 167.795L28.2241 168.11L41.3953 96.657C41.458 96.594 36.6286 90.4821 30.921 94.8297Z" fill="#FFC1B6"/>
<path d="M26.6561 167.732C26.6561 167.732 23.9591 167.102 22.3911 168.992L28.0987 170L28.3495 168.047L26.6561 167.732Z" fill="#2D387A"/>
<path d="M59.4588 94.8929L65.229 167.795L63.4729 168.11L48.9845 96.9092C48.9845 96.9092 53.6885 90.6712 59.4588 94.8929Z" fill="#FFC1B6"/>
<path d="M65.1036 167.732C65.1036 167.732 67.8006 167.039 69.4313 168.929L63.7238 170L63.4729 168.047L65.1036 167.732Z" fill="#2D387A"/>
<path d="M42.3362 26.6534C41.5208 29.7408 38.6357 31.9462 35.6251 33.0173C32.6146 34.1515 29.3531 34.4665 26.3425 35.4747C17.8753 38.3101 11.2897 46.9425 12.1678 55.8268C12.9831 64.4591 20.6977 71.5792 29.2277 72.8394C37.7576 74.0996 46.6012 70.13 52.246 63.577C57.9535 57.087 60.6505 48.3287 61.0895 39.6963C61.2777 35.7267 60.9641 31.6311 59.2707 28.1026C57.5772 24.511 54.253 21.5496 50.3017 21.1085C46.413 20.6674 42.148 23.3769 41.5836 27.3465L42.3362 26.6534Z" fill="#442D21"/>
<path d="M58.0789 56.8979C58.1416 57.2129 66.0444 53.9364 66.4834 53.6844C73.5081 50.2188 79.5292 43.9179 81.9126 36.3567C84.3587 28.6695 82.728 18.0839 77.4595 11.783C76.895 11.0898 75.6406 9.76664 74.8879 10.7748C74.3234 11.5939 75.4524 14.2403 75.7033 14.9964C78.2121 22.4946 85.2368 42.4686 56.95 52.9282C56.95 52.9282 58.0789 56.8979 58.0789 56.8979Z" fill="#FFC1B6"/>
<path d="M40.0155 56.6457C40.0155 56.9608 31.5482 56.4567 31.0465 56.3937C23.2692 55.3855 15.5546 51.4159 10.8506 45.0519C6.08383 38.625 4.1395 28.0393 7.08735 20.3522C7.40095 19.47 8.15359 17.8948 9.21984 18.5879C10.0352 19.155 9.78432 22.0534 9.78432 22.8726C9.84704 30.8118 9.65888 51.983 39.8273 52.5501C39.8273 52.4871 40.0155 56.6457 40.0155 56.6457Z" fill="#FFC1B6"/>
<path d="M44.9077 50.8491C44.9077 50.8491 13.2339 50.282 11.8541 27.7246C11.8541 27.7246 1.88158 25.8973 -0.0627441 33.0804C-0.0627441 33.0804 12.105 64.9633 36.0641 62.821C36.0641 62.821 38.0712 69.5 32.2382 78.3213C26.4052 87.2057 1.0035 109.133 4.70399 132.888C4.70399 132.888 20.7604 152.106 38.322 146.939C55.8837 141.835 64.1001 130.178 81.0345 134.463C81.0345 134.463 78.2748 101.887 63.4728 83.0471C63.4728 83.0471 56.6363 76.431 59.3333 60.1746C59.3333 60.1746 87.432 51.6053 84.6723 22.6838C84.6723 22.6838 78.463 17.076 73.2572 21.4236C73.2572 21.4236 75.3897 44.1701 52.0578 50.093L44.9077 50.8491Z" fill="#2D387A"/>
<path d="M40.6426 34.4034C40.5799 39.3181 43.4023 43.2877 46.9774 43.3507C50.5524 43.4137 53.5003 39.5071 53.563 34.5924C53.6257 29.6776 50.8033 25.708 47.2282 25.645C43.6532 25.645 40.7053 29.5516 40.6426 34.4034Z" fill="#FFC1B6"/>
<path d="M50.2389 42.4687C50.2389 42.4687 49.6745 46.6903 51.0543 50.6599C51.0543 50.6599 47.6674 53.4954 44.9077 50.849C44.9077 50.849 46.2248 46.8793 45.0332 41.9646C45.0332 41.9646 49.4236 38.247 50.2389 42.4687Z" fill="#FFC1B6"/>
<path d="M55.0055 21.3604L56.1345 25.0149C55.4445 27.3463 51.9949 29.8036 48.2317 30.7488C44.6567 31.6309 40.768 31.0008 39.3254 29.3626L38.3846 25.771L46.9146 25.9601L55.0055 21.3604Z" fill="#2D387A"/>
<path d="M33.1162 25.4562L44.9703 17.832L58.9569 19.0292L47.1655 26.6534L33.1162 25.4562Z" fill="#2D387A"/>
<path d="M39.9528 33.3325L40.3291 37.3021C40.3291 37.3651 40.58 37.4281 40.6427 37.2391C40.8308 37.3651 40.9563 37.2391 41.019 37.1131C41.0817 37.1761 41.2699 37.2391 41.3326 37.0501C41.458 37.1761 41.6462 36.9871 41.6462 36.9241L40.1409 33.3325C40.0155 33.2065 39.9528 33.2695 39.9528 33.3325Z" fill="#DE5B61"/>
<path d="M45.8484 21.1086C45.9112 21.0456 46.0366 21.1086 46.0366 21.1716C46.0993 21.2346 46.0366 21.3607 45.9739 21.3607L38.2593 25.9604L40.1409 33.2695C40.1409 33.3325 40.1409 33.4585 40.0155 33.4585C39.9527 33.4585 39.8273 33.4585 39.8273 33.3325L38.0084 25.9604C38.0084 25.8974 38.0084 25.8343 38.0711 25.7713L45.8484 21.1086Z" fill="white"/>
<path d="M40.1409 33.7737C40.4545 33.7107 40.6426 33.3326 40.5799 33.0176C40.5172 32.7025 40.1409 32.5135 39.8273 32.5765C39.5137 32.6395 39.3255 33.0176 39.3882 33.3326C39.451 33.6477 39.8273 33.8997 40.1409 33.7737Z" fill="white"/>
<path d="M40.3917 32.9542C40.4545 33.2062 40.329 33.4583 40.1408 33.5843C40.0781 33.6473 40.0154 33.6473 39.9527 33.6473C39.7645 33.7103 39.5764 33.6473 39.4509 33.5213C39.5764 33.7103 39.7645 33.8363 40.0154 33.8363C40.0781 33.8363 40.0781 33.8363 40.1408 33.8363C40.2036 33.8363 40.2036 33.8363 40.2663 33.7733C40.5172 33.6473 40.6426 33.3953 40.5799 33.0802C40.5172 32.8912 40.4544 32.7652 40.2663 32.7021C40.329 32.7652 40.3917 32.8282 40.3917 32.9542Z" fill="#ECEFF0"/>
<path d="M89 10.3339C89 10.1449 88.9373 10.0189 88.7491 9.95588C82.1635 7.05743 75.6406 3.78093 69.494 0.0633608C69.3686 0.000351166 69.1804 0.000351166 69.0549 0.12637C68.4905 0.693457 67.9887 1.38656 67.6124 2.07967C67.5497 2.2687 67.6124 2.52074 67.8005 2.58375L87.7456 12.8543C87.9337 12.9173 88.1846 12.8543 88.2473 12.6653C88.5609 12.0352 88.8745 11.2791 89 10.3339Z" fill="#F8E9B7"/>
<path d="M88.5609 12.7912C88.6236 12.6021 88.5609 12.4131 88.3727 12.2871L79.7173 7.8764C79.5292 7.81339 79.2783 7.8764 79.2156 8.06543L76.5186 6.67922C76.5813 6.49019 76.5186 6.23815 76.3304 6.17514L67.6751 1.76447C67.4869 1.70146 67.2987 1.76447 67.1733 1.89048C67.1106 1.95349 66.1071 3.71776 66.1071 5.79708C66.1071 5.9231 66.1698 6.04912 66.2952 6.11213C68.9922 7.2463 71.6264 8.5065 74.198 9.76669L75.766 10.5228L77.9612 11.657C80.5327 12.9802 83.1042 14.4294 85.5503 15.9416C85.7385 16.0677 85.9266 16.0046 86.0521 15.8786C87.8082 14.6184 88.5609 12.8542 88.5609 12.7912Z" fill="#DABC94"/>
<path d="M78.6511 11.6569L78.8393 8.94748C78.8393 8.75845 78.7139 8.56942 78.5257 8.56942C78.3375 8.56942 78.1494 8.69544 78.1494 8.88447L77.3967 8.75845V8.69544C77.3967 8.50641 77.2713 8.31738 77.0831 8.31738C76.895 8.31738 76.7068 8.4434 76.7068 8.63243L76.4559 11.4679C76.4559 11.5939 76.5187 11.7829 76.6441 11.8459C76.7695 11.9089 76.9577 11.9089 77.0831 11.7829L77.5849 11.3418L78.0239 11.8459C78.1494 11.9719 78.2748 12.035 78.4003 11.9719C78.5257 11.9089 78.6511 11.7829 78.6511 11.6569Z" fill="#C10123"/>
<path d="M77.6476 8.63257C77.5221 8.50655 77.2713 8.44354 77.1458 8.56956L76.6441 8.00248C76.7695 7.87646 76.7695 7.62442 76.6441 7.4984C76.5186 7.37238 76.2677 7.30937 76.1423 7.43539L74.0725 9.19966C73.9471 9.32568 73.8844 9.4517 73.9471 9.57772C74.0098 9.70374 74.1353 9.82976 74.2607 9.82976L74.9506 9.89277L74.8879 10.5859C74.8879 10.7119 74.9506 10.9009 75.0761 10.9639C75.2015 11.0269 75.3897 11.0269 75.5151 10.9009L77.6476 9.07364C77.773 9.01063 77.8357 8.75859 77.6476 8.63257Z" fill="#C10123"/>
<path d="M78.9647 5.293C80.0937 5.86009 80.5327 7.2463 79.9682 8.31747C79.4037 9.45164 78.0239 9.89271 76.9576 9.32562C75.8287 8.75853 75.3896 7.37232 75.9541 6.30116C76.5186 5.22999 77.8357 4.78893 78.9647 5.293Z" fill="#DD5023"/>
<path d="M78.5884 5.98595C79.341 6.36401 79.5919 7.24614 79.2156 8.00226C78.8393 8.75837 77.9612 9.01041 77.2085 8.63236C76.4559 8.2543 76.205 7.37216 76.5813 6.61605C76.9577 5.92294 77.8985 5.60789 78.5884 5.98595Z" fill="#C10123"/>
<path d="M51.1169 36.6089C51.1169 38.9402 49.2353 40.8305 46.9147 40.8305C44.594 40.8305 42.7124 38.9402 42.7124 36.6089H51.1169Z" fill="white"/>
</g>
<g clip-path="url(#clip1)">
<path opacity="0.69" d="M168.085 175C193.302 175 213.744 172.574 213.744 169.582C213.744 166.59 193.302 164.165 168.085 164.165C142.869 164.165 122.427 166.59 122.427 169.582C122.427 172.574 142.869 175 168.085 175Z" fill="#BBA795"/>
<path d="M134.951 133.571H131.305V170.698H134.951V133.571Z" fill="#9D6F43"/>
<path d="M133.207 127.835C142.878 129.747 149.22 133.093 151.281 141.06C154.451 153.648 154.61 159.703 154.61 159.703L157.463 160.022C157.463 160.022 160.793 139.626 156.195 129.269C151.598 119.071 134.793 115.566 134.793 115.566C134.793 115.566 130.671 115.247 130.037 119.23C129.72 121.143 133.524 125.285 133.207 127.835Z" fill="#AD4944"/>
<path d="M191.073 118.434C191.073 120.187 180.293 121.621 167.134 121.621C153.817 121.621 143.195 120.187 143.195 118.434C143.195 118.275 143.195 117.318 143.195 117.318C144.622 115.725 155.244 115.247 167.134 115.247C178.707 115.247 188.695 115.884 191.073 117.478C191.073 117.319 191.073 118.275 191.073 118.434Z" fill="#9D6F43"/>
<path d="M170.622 119.39H165.39V170.697H170.622V119.39Z" fill="#9D6F43"/>
<path d="M207.878 135.802H204.232V170.06H207.878V135.802Z" fill="#9D6F43"/>
<path d="M143.354 132.934C143.354 134.686 138.439 136.12 132.256 136.12C126.073 136.12 121.158 134.686 121.158 132.934C121.158 132.615 120.841 131.34 121.158 131.181C122.427 129.747 127.024 129.747 132.256 129.747C138.28 129.588 143.354 131.181 143.354 132.934Z" fill="#9D6F43"/>
<path d="M143.195 131.181C143.195 132.934 138.28 134.368 132.098 134.368C125.915 134.368 121 132.934 121 131.181C121 129.428 125.915 127.994 132.098 127.994C138.28 127.994 143.195 129.428 143.195 131.181Z" fill="#BB844C"/>
<path d="M217.866 132.774C217.866 134.527 212.951 135.961 206.768 135.961C200.585 135.961 195.671 134.527 195.671 132.774C195.671 132.455 195.354 131.181 195.671 131.021C196.939 129.587 201.537 129.587 206.768 129.587C212 129.587 216.439 129.269 217.707 130.703C217.866 130.862 217.866 132.455 217.866 132.774Z" fill="#9D6F43"/>
<path d="M206.61 134.368C212.739 134.368 217.707 132.941 217.707 131.181C217.707 129.421 212.739 127.994 206.61 127.994C200.481 127.994 195.512 129.421 195.512 131.181C195.512 132.941 200.481 134.368 206.61 134.368Z" fill="#BB844C"/>
<path d="M181.244 104.571C184.89 103.456 204.866 107.28 201.854 87.8402C201.537 85.6095 205.5 83.6974 206.927 87.0435C208.195 90.071 208.354 94.3732 207.561 97.2413C203.122 112.219 183.939 106.324 182.037 106.005C179.976 106.005 181.244 104.571 181.244 104.571Z" fill="#EFA96F"/>
<path d="M151.122 86.8842C149.061 88.4777 146.366 100.11 143.829 99.6315C141.768 99.1535 140.183 89.593 136.537 86.2469C134.951 84.8128 131.305 86.7249 133.207 89.7524C134.951 92.3018 138.439 104.73 143.512 105.208C150.805 105.846 152.866 89.9117 152.866 87.9996C153.024 87.8403 151.122 86.8842 151.122 86.8842Z" fill="#EFA96F"/>
<path d="M209.305 126.401C199.634 128.313 192.024 129.906 189.963 137.873C186.793 150.461 187.268 157.95 187.268 157.95L185.207 158.428C185.207 158.428 181.561 137.873 186.158 127.676C190.756 117.478 207.085 112.379 207.085 112.379C207.085 112.379 208.354 118.912 209.305 126.401Z" fill="#E09563"/>
<path d="M191.073 117.478C191.073 119.231 180.293 120.665 167.134 120.665C153.976 120.665 143.195 119.231 143.195 117.478C143.195 115.725 153.976 114.291 167.134 114.291C180.293 114.291 191.073 115.725 191.073 117.478Z" fill="#BB844C"/>
<path d="M139.232 79.7137C138.122 80.1917 136.219 80.3511 135.585 80.1917C135.427 80.1917 135.268 80.3511 135.268 80.5104C134.951 81.6258 134.159 84.6533 134.159 85.1313C133.524 87.0434 130.512 87.0434 130.671 84.4939C130.671 83.2192 130.829 81.1478 130.829 80.5104C130.195 80.3511 128.768 80.6698 128.134 80.5104C126.549 80.0324 125.598 78.7577 125.28 77.1643C124.646 74.7742 124.012 72.5434 123.695 70.1533C123.061 67.2851 124.171 64.7357 126.549 62.6643C128.451 61.2302 130.512 60.2742 132.89 59.7961C134.634 59.4775 136.061 59.9555 137.488 61.0709C140.5 63.461 144.463 68.4005 143.988 73.6588C143.512 77.3236 140.817 79.0764 139.232 79.7137Z" fill="#FCC490"/>
<path d="M137.329 71.9062C137.329 72.2249 137.171 72.3843 137.012 72.3843C136.695 72.3843 136.537 72.2249 136.537 72.0656C136.378 71.7469 136.537 71.5876 136.854 71.4282C137.012 71.4282 137.329 71.5876 137.329 71.9062Z" fill="#55382F"/>
<path d="M142.403 70.9505C142.403 71.2692 142.244 71.4285 142.085 71.5879C141.768 71.5879 141.61 71.4285 141.451 71.2692C141.451 70.9505 141.61 70.7912 141.768 70.6318C142.244 70.4725 142.403 70.6318 142.403 70.9505Z" fill="#55382F"/>
<path d="M141.768 75.2524C140.5 75.7305 138.756 76.0491 137.805 75.7305C137.805 76.0491 137.963 76.3678 138.122 76.6865C138.597 77.1645 138.915 77.3239 139.866 77.1645C140.5 77.0052 140.976 77.0052 141.451 76.3678C141.61 76.0491 141.61 75.5711 141.768 75.2524Z" fill="#E08C94"/>
<path d="M140.5 75.2525C139.866 75.4118 139.39 75.5711 138.756 75.5711C138.439 75.5711 137.805 75.8898 137.805 76.0492C137.805 76.2085 137.963 76.2085 137.963 76.3678C138.28 76.8459 138.756 77.0052 139.707 76.8459C140.341 76.6865 140.817 76.6865 141.134 76.0492C141.293 75.8898 141.293 75.7305 141.293 75.5711C141.61 75.2525 140.976 75.0931 140.5 75.2525Z" fill="#C14C34"/>
<path d="M138.281 75.7305C138.598 76.2085 139.232 76.2085 140.024 76.0491C140.659 75.8898 141.134 75.8898 141.451 75.2524C140.5 75.5711 138.915 75.8898 138.281 75.7305Z" fill="#FFFCDD"/>
<path d="M141.768 75.2525C141.293 74.7744 140.976 75.0931 140.024 75.2525C139.232 75.4118 138.756 75.2525 137.805 75.8898C138.439 76.0492 139.232 75.8898 140.024 75.7305C140.658 75.5712 141.293 75.4118 141.768 75.2525Z" fill="#E08C94"/>
<path d="M140.817 74.2965L139.549 74.4559C139.232 74.4559 138.915 74.1372 138.915 73.8185C138.915 73.8185 139.073 73.9778 139.39 74.1372C139.866 74.1372 140.5 74.1372 140.659 73.8185C140.817 73.4998 140.183 72.5438 139.549 71.7471C139.707 71.7471 140.342 72.2251 140.5 72.5438L141.134 73.4998C141.451 73.8185 141.293 74.2965 140.817 74.2965Z" fill="#DDA078"/>
<path d="M136.854 71.9064C136.854 72.0658 136.854 72.0658 136.695 72.0658C136.537 72.0658 136.537 72.0658 136.537 71.9064C136.378 71.7471 136.537 71.7471 136.695 71.7471C136.695 71.7471 136.854 71.7471 136.854 71.9064Z" fill="white"/>
<path d="M141.927 70.9504C141.927 71.1097 141.927 71.1097 141.768 71.1097C141.61 71.1097 141.61 71.1097 141.61 70.9504C141.61 70.791 141.61 70.791 141.768 70.791C141.768 70.791 141.927 70.791 141.927 70.9504Z" fill="white"/>
<path d="M137.171 74.6152C137.329 75.4119 136.695 76.2086 135.902 76.368C135.11 76.5273 134.317 75.8899 134.158 75.0932C134 74.2965 134.634 73.4998 135.427 73.3405C136.219 73.1812 137.012 73.8185 137.171 74.6152Z" fill="#FF9566"/>
<path d="M143.512 65.8513C141.134 60.1151 133.842 56.4502 127.024 61.0711C117.829 67.4447 123.061 74.9337 122.585 75.2524C120.683 76.5272 121.793 79.0766 123.378 80.67C123.695 80.9887 125.439 80.192 125.439 80.192C125.439 80.192 124.488 81.4667 124.805 81.4667C124.963 81.4667 125.122 81.6261 125.281 81.6261C126.073 81.9447 127.183 82.1041 127.976 81.7854C128.61 81.4667 129.402 80.3513 129.402 80.3513C129.402 80.3513 128.927 81.6261 129.244 81.4667C129.561 81.3074 130.037 81.148 130.512 80.9887C133.366 79.3953 130.988 75.7305 130.512 72.8623C130.195 70.9502 132.573 69.1975 133.207 69.8348C133.683 70.3129 134.317 70.4722 135.11 70.6316C135.268 70.6316 136.378 69.6755 136.537 69.6755C136.695 69.6755 135.744 70.6316 135.902 70.6316C136.378 70.6316 136.695 70.7909 137.646 70.3129C138.915 69.8348 140.183 68.5601 140.659 68.0821C140.817 67.9228 139.866 69.5162 140.183 69.3568C142.244 68.2414 143.829 66.648 143.512 65.8513Z" fill="#2D1C1F"/>
<path d="M182.195 104.412C182.195 104.412 181.085 102.5 178.707 102.978C177.598 103.296 177.439 102.5 176.805 102.659C176.488 102.659 176.171 103.296 176.488 103.615C176.963 104.093 177.598 104.412 177.598 104.412C177.598 104.412 174.902 104.252 176.329 106.005C175.537 106.324 176.488 107.917 177.598 107.758C178.866 107.758 180.134 107.28 180.927 106.961C181.878 106.483 181.72 106.005 181.72 106.005L182.195 104.412Z" fill="#EFA96F"/>
<path d="M212 128.472C202.329 130.384 193.61 133.412 193.451 144.247C193.293 152.054 195.354 160.978 195.354 160.978L193.451 161.615C193.451 161.615 184.415 141.219 189.012 131.021C193.61 120.824 210.415 117 210.415 117C210.415 117 211.207 121.142 212 128.472Z" fill="#FCC490"/>
<path d="M185.366 158.269C183.622 147.115 183.939 140.582 183.939 140.582L187.903 140.741L188.378 145.362C188.378 145.362 186.793 154.604 187.268 157.791C187.427 158.906 189.171 161.934 189.171 161.934C189.171 161.934 179.976 166.714 179.342 165.758C178.866 164.961 185.049 160.181 185.049 160.181C185.049 160.181 185.366 158.747 185.366 158.269Z" fill="#AD4944"/>
<path d="M130.354 131.818C141.134 132.615 147.317 134.208 148.744 144.725C149.537 150.302 149.695 156.357 149.854 159.384C149.854 160.5 150.646 161.456 151.756 161.774C151.756 161.774 158.573 140.582 152.866 130.862C147.793 122.098 133.524 118.752 130.829 118.115C130.512 118.115 130.354 117.956 130.037 117.796C128.768 117 124.805 113.494 123.854 118.115C121.159 131.5 128.768 131.818 130.354 131.818Z" fill="#E7685D"/>
<path d="M156.988 159.703L155.085 159.225L153.183 163.368C153.183 163.368 162.378 167.989 163.012 167.033C163.488 166.236 157.305 161.456 157.305 161.456L156.988 159.703Z" fill="#1F231E"/>
<path d="M151.915 160.181L150.012 160.34L149.537 164.961C149.537 164.961 159.683 166.236 160 165.121C160.317 164.165 152.866 161.775 152.866 161.775L151.915 160.181Z" fill="#5B5347"/>
<path d="M136.854 86.5654C135.585 83.8567 132.098 83.8567 129.244 84.972C126.866 85.9281 124.805 93.0984 124.488 96.1259C124.329 98.994 123.695 108.076 124.012 116.362C124.171 122.098 138.281 120.983 138.439 116.84C138.915 107.917 140.817 94.6918 136.854 86.5654Z" fill="#5B5347"/>
<path d="M150.646 87.3625C150.646 87.3625 152.866 84.335 155.085 83.0603C155.72 82.7416 156.512 82.2636 157.146 82.1043C157.463 81.9449 157.463 82.5823 156.988 83.0603C156.512 83.6977 155.402 84.1757 155.402 84.1757C155.402 84.1757 155.878 84.1757 157.781 83.6977C159.841 83.2196 161.744 80.3515 161.268 82.901C160.793 85.7691 159.524 86.8845 158.415 87.2032C155.402 87.8405 152.073 87.8405 152.073 87.8405L150.646 87.3625Z" fill="#EFA96F"/>
<path d="M195.195 121.621C195.195 121.621 194.878 123.055 193.134 124.011C192.5 124.33 190.598 125.604 189.963 125.923C189.646 126.082 186 127.994 186.476 125.445C186.951 122.577 187.902 121.461 189.012 121.143C192.183 120.346 194.244 120.027 194.244 120.027L195.195 121.621Z" fill="#FCC490"/>
<path d="M213.585 84.0161C212.793 82.7414 212.476 80.3513 215.171 79.2359C216.915 78.4392 218.5 76.8458 219.451 75.2524C220.561 76.0491 220.72 73.4996 221.037 71.9062C221.195 71.4282 221.195 70.9502 221.195 70.4722C221.195 70.3128 221.195 70.1535 221.195 69.8348C221.037 64.4172 216.598 60.7524 211.366 60.9117C205.5 60.9117 202.646 64.8953 202.329 69.6755C202.171 72.2249 201.695 75.0931 203.915 74.7744C204.866 76.2084 205.817 77.9612 207.878 79.2359C209.463 80.192 209.463 82.7414 208.195 84.0161C208.195 84.0161 208.037 86.7249 210.573 86.7249C213.427 86.7249 213.744 84.4942 213.585 84.0161Z" fill="#FCC490"/>
<path d="M213.902 75.2524C214.219 75.5711 212.951 76.8458 211.366 76.8458C209.622 76.8458 208.671 75.4118 208.988 75.2524C209.146 75.0931 209.78 75.4118 211.366 75.5711C212.793 75.5711 213.585 75.0931 213.902 75.2524Z" fill="#E072AC"/>
<path d="M213.11 75.2524C212.793 75.5711 212.317 76.0491 211.366 76.0491C210.415 76.0491 209.78 75.5711 209.622 75.2524C210.732 75.4118 212 75.4118 213.11 75.2524Z" fill="#F5E8D0"/>
<path d="M208.829 75.2523C209.146 74.9336 210.415 74.9336 211.207 74.9336C212.317 74.9336 213.585 74.9336 213.744 75.4116C213.11 75.2523 212.159 75.571 211.207 75.4116C210.415 75.4116 209.463 75.0929 208.829 75.2523Z" fill="#E072AC"/>
<path d="M213.902 71.5876C213.902 71.9062 214.22 72.2249 214.537 72.2249C214.854 72.2249 215.171 71.9062 215.171 71.5876C215.171 71.2689 214.854 70.9502 214.537 70.9502C214.22 70.9502 213.902 71.2689 213.902 71.5876Z" fill="#55382F"/>
<path d="M207.719 71.2687C207.719 71.5874 208.037 71.9061 208.354 71.9061C208.671 71.9061 208.988 71.5874 208.988 71.2687C208.988 70.95 208.671 70.6313 208.354 70.6313C208.037 70.6313 207.719 70.95 207.719 71.2687Z" fill="#55382F"/>
<path d="M214.695 71.4285C214.695 71.5879 214.854 71.7472 214.854 71.7472C215.012 71.7472 215.171 71.5879 215.171 71.4285C215.171 71.2692 215.012 71.1099 215.012 71.1099C214.695 71.1099 214.695 71.2692 214.695 71.4285Z" fill="white"/>
<path d="M208.354 71.2689C208.354 71.4282 208.512 71.5876 208.671 71.5876C208.829 71.5876 208.988 71.4282 208.988 71.2689C208.988 71.1095 208.829 70.9502 208.671 70.9502C208.512 70.9502 208.354 71.1095 208.354 71.2689Z" fill="white"/>
<path d="M212 74.137H210.732C210.415 74.137 210.097 73.659 210.256 73.3403C210.256 73.3403 210.415 73.659 210.732 73.659C211.207 73.8184 211.524 73.9777 212 73.8184C212.317 73.659 212.476 73.4997 212.476 73.4997C212.634 73.8184 212.317 74.137 212 74.137Z" fill="#DDA078"/>
<path d="M214.061 67.6042C212 66.0108 209.622 64.2581 208.354 65.0548C207.085 66.0108 205.817 72.0657 203.915 72.3844C203.915 72.3844 203.915 71.5877 203.28 71.4284C202.963 71.269 202.329 71.4284 202.012 72.2251C201.854 73.3405 202.329 74.6152 203.756 74.4559C204.549 76.0493 205.659 77.6427 207.878 79.3954C208.829 80.1921 208.988 81.7855 208.512 82.7416C205.817 84.335 201.854 97.2416 200.744 95.8075C195.988 90.0712 200.902 65.6921 204.549 62.6646C206.768 60.9119 210.573 60.5932 212.476 60.7526C214.378 60.9119 217.39 61.8679 219.134 64.4174C222.939 69.6756 227.537 99.4723 222.622 102.022C221.829 102.34 218.976 105.049 217.39 101.544C214.854 95.9668 213.585 83.2196 212.951 82.5822C212.634 81.4668 212.951 80.6701 214.061 79.7141C215.012 78.7581 216.915 78.28 218.817 74.9339C219.927 75.5712 220.561 73.8185 220.402 73.0218C220.244 71.5877 218.659 71.4284 218.659 72.8624C218.817 72.8624 217.073 69.835 214.061 67.6042Z" fill="#E37626"/>
<path d="M217.39 74.4556C217.549 75.2523 216.915 76.049 216.122 76.2083C215.329 76.3676 214.537 75.7303 214.378 74.9336C214.22 74.1369 214.854 73.1808 215.646 73.1808C216.439 73.0215 217.232 73.6589 217.39 74.4556Z" fill="#FF9566"/>
<path d="M208.354 74.1372C208.512 74.9339 207.878 75.8899 207.085 75.8899C206.293 76.0493 205.5 75.4119 205.341 74.6152C205.183 73.8185 205.817 73.0218 206.61 72.8625C207.402 72.7031 208.195 73.3405 208.354 74.1372Z" fill="#FF9566"/>
<path d="M154.61 115.088C148.744 113.176 137.646 101.703 133.524 92.1428C132.098 88.6373 130.512 85.6098 128.768 86.8845C127.183 87.9999 128.134 90.39 129.085 92.9395C137.329 114.291 152.232 117.956 154.61 117C156.037 116.203 154.61 115.088 154.61 115.088Z" fill="#FCC490"/>
<path d="M204.549 85.2908C204.866 84.0161 206.768 83.3787 208.354 83.0601C208.829 83.0601 207.402 85.4502 209.939 85.9282C213.268 86.4062 212.476 83.5381 213.11 83.5381C214.22 83.6974 213.902 83.5381 214.695 83.8568C217.073 84.8128 218.5 88.7963 218.659 91.8238C219.134 96.4447 223.732 120.186 216.439 127.038C214.695 128.791 211.366 130.066 206.927 130.703C202.012 130.225 195.195 120.346 193.927 119.868C205.183 115.088 200.11 101.384 204.549 85.2908Z" fill="#2C9185"/>
<path d="M193.293 120.187C201.537 117.637 209.622 103.296 212 92.9393C212.793 89.1151 214.061 85.769 216.28 86.5657C218.183 87.203 217.866 89.9118 217.232 92.4613C212.476 115.088 196.622 122.099 193.768 121.78C192.024 121.78 193.293 120.187 193.293 120.187Z" fill="#FCC490"/>
<path d="M162.854 117.956H160.793C159.683 117.956 158.732 117 158.732 115.884C158.732 114.769 159.683 113.813 160.793 113.813H162.854C163.963 113.813 164.915 114.769 164.915 115.884C164.915 117 163.963 117.956 162.854 117.956Z" fill="#49E2C8"/>
<path d="M163.171 114.928H160.317C160.159 114.928 160 114.769 160 114.61C160 114.45 160.159 114.291 160.317 114.291H163.171C163.329 114.291 163.488 114.45 163.488 114.61C163.488 114.769 163.329 114.928 163.171 114.928Z" fill="#1F231E"/>
<path d="M159.207 114.61H158.573C157.781 114.61 157.146 115.247 157.146 116.044C157.146 116.841 157.781 117.478 158.573 117.478H159.207C160 117.478 160.634 116.841 160.634 116.044C160.793 115.247 160 114.61 159.207 114.61ZM159.207 117H158.732C158.256 117 157.781 116.522 157.781 116.044C157.781 115.566 158.256 115.088 158.732 115.088H159.207C159.683 115.088 160.159 115.566 160.159 116.044C160.159 116.522 159.683 117 159.207 117Z" fill="#49E2C8"/>
<path d="M171.732 107.439H173.793C174.902 107.439 175.854 106.483 175.854 105.368C175.854 104.252 174.902 103.296 173.793 103.296H171.732C170.622 103.296 169.671 104.252 169.671 105.368C169.671 106.483 170.622 107.439 171.732 107.439Z" fill="#49E2C8"/>
<path d="M171.415 104.412H174.268C174.427 104.412 174.585 104.252 174.585 104.093C174.585 103.934 174.427 103.774 174.268 103.774H171.415C171.256 103.774 171.098 103.934 171.098 104.093C171.098 104.252 171.256 104.412 171.415 104.412Z" fill="#1F231E"/>
<path d="M175.22 104.093H175.854C176.646 104.093 177.281 104.731 177.281 105.527C177.281 106.324 176.646 106.961 175.854 106.961H175.22C174.427 106.961 173.793 106.324 173.793 105.527C173.793 104.731 174.427 104.093 175.22 104.093ZM175.378 106.483H175.854C176.329 106.483 176.805 106.005 176.805 105.527C176.805 105.049 176.329 104.571 175.854 104.571H175.378C174.902 104.571 174.427 105.049 174.427 105.527C174.427 106.005 174.744 106.483 175.378 106.483Z" fill="#49E2C8"/>
<path d="M153.817 114.928C153.817 114.928 155.085 113.813 156.988 113.972C157.463 113.972 158.098 114.131 158.573 114.291C158.732 114.291 158.732 114.928 158.415 115.088C157.781 115.247 157.146 115.247 157.146 115.247C157.146 115.247 158.573 115.406 158.573 115.884C158.573 117.318 158.573 117.956 157.622 117.956C155.878 118.115 153.659 117 153.659 117L153.817 114.928Z" fill="#FCC490"/>
<path d="M176.488 104.412H177.439C177.756 104.412 178.073 104.73 178.073 105.049C178.073 105.368 177.756 105.686 177.439 105.686H176.488C176.171 105.686 175.854 105.368 175.854 105.049C175.854 104.73 176.171 104.412 176.488 104.412Z" fill="#EFA96F"/>
<path d="M193.451 160.978C190.915 155.879 188.378 144.725 188.378 144.725L193.293 144.565C193.293 144.565 193.61 149.505 195.354 161.137C195.512 162.252 195.829 165.758 195.829 165.758C195.829 165.758 185.524 167.032 185.366 165.917C185.049 164.961 192.5 162.571 192.5 162.571C192.5 162.571 193.61 161.296 193.451 160.978Z" fill="#AD4944"/>
</g>
<defs>
<clipPath id="clip0">
<rect width="89" height="170" fill="white"/>
</clipPath>
<clipPath id="clip1">
<rect width="104" height="116" fill="white" transform="translate(121 59)"/>
</clipPath>
</defs>
</svg>
