<svg width="73" height="176" viewBox="0 0 73 176" fill="none" xmlns="http://www.w3.org/2000/svg">
<path d="M67.4052 63.9098L65.0168 63.2906L69.9704 45.2451L72.3588 45.7759L67.4052 63.9098Z" fill="#1E1029"/>
<path d="M3.71525 157.322C3.71525 157.322 3.27296 160.241 1.0615 162.364C0.0884606 163.337 3.36141 166.079 3.89216 168.202C4.06908 168.91 10.0842 171.21 10.0842 171.21C10.0842 171.21 10.1727 169.529 8.13816 168.821C6.19208 168.202 3.89216 163.514 5.30749 158.737L3.71525 157.322Z" fill="#FFBD95"/>
<path d="M1.50379 161.744L0 163.956C0 163.956 0.353832 165.548 2.65374 168.113C4.8652 170.59 5.48441 170.944 8.58044 171.652L11.2342 172.094C11.2342 172.094 11.7649 170.855 10.2611 170.059C8.6689 169.263 5.83824 166.786 5.39595 165.548C4.95366 164.221 5.48441 162.983 5.48441 162.983C5.48441 162.983 4.51137 162.098 3.89216 162.983C3.89216 162.894 3.27295 161.39 1.50379 161.744Z" fill="#1E1029"/>
<path d="M27.6874 88.6777L1.76917 160.152L7.78432 163.071L37.9486 100.266C38.8331 98.4966 42.4599 88.7662 42.4599 88.7662L27.6874 88.6777Z" fill="#1E1029"/>
<path d="M42.9907 165.194C42.9907 165.194 44.1406 168.113 43.1676 171.121C42.7253 172.448 49.2712 172.536 50.4212 174.482C50.8634 175.19 55.9056 174.925 55.9056 174.925C55.9056 174.925 57.144 173.775 54.9325 173.775C52.7211 173.775 46.3521 170.856 45.1137 165.725L42.9907 165.194Z" fill="#FFBD95"/>
<path d="M43.256 170.325L42.9907 173.067C42.9907 173.067 45.8213 174.394 49.3597 175.632C52.7211 176.782 51.3057 176.075 54.6671 175.898L57.4978 175.544C57.4978 175.544 57.6747 174.129 55.8171 173.775C53.9595 173.421 51.6596 172.89 50.5981 171.917C49.4481 170.944 47.5905 169.529 47.5905 169.529C47.5905 169.529 46.2636 169.175 46.0867 170.236C45.9982 170.325 44.7598 169.175 43.256 170.325Z" fill="#1E1029"/>
<path d="M21.4953 96.6394L42.3715 169.264L49.3597 168.379L37.064 94.9587L43.1676 88.7666H20.4338L21.23 95.401C21.3184 95.7548 21.4069 96.1971 21.4953 96.6394Z" fill="#474D87"/>
<path d="M22.6453 38.7875C21.3184 39.0529 20.08 37.9029 20.5223 36.576C21.2299 34.2761 21.7607 32.1531 22.1145 29.8532L22.8222 25.0765C23.2645 22.3343 25.5644 20.5651 28.0412 20.9189C30.3411 21.2728 32.1988 23.3958 32.2872 25.9611L31.3142 34.5415C30.0758 39.9375 26.0067 38.1683 22.6453 38.7875Z" fill="#F6A676"/>
<path d="M41.9292 21.0071C37.8601 32.949 38.3908 33.922 29.545 29.8529C23.2645 26.9338 18.7531 19.061 19.5492 12.2498C20.3454 5.43848 27.422 3.05011 33.1718 3.66932C38.9216 4.28853 46.4405 7.82686 41.9292 21.0071Z" fill="#FFBD95"/>
<path d="M40.8677 18.7958C40.0716 20.4765 39.3639 24.1033 41.6638 25.0763C42.3715 25.3417 43.2561 24.7225 42.8138 23.9264C41.8407 22.511 41.6638 20.9188 42.1061 19.2381C42.1946 18.6189 41.2215 18.1766 40.8677 18.7958Z" fill="#FF8763"/>
<path d="M19.0186 88.6783L43.1676 88.7668C43.1676 88.7668 39.7178 59.3987 37.3294 44.6261C36.7102 40.9109 33.6142 35.4265 31.4912 33.6573C31.4912 33.6573 28.3951 34.0112 26.0952 33.0381C22.7338 31.7112 21.9377 30.8267 21.9377 30.8267C19.4608 33.1266 17.3379 37.9918 17.6032 42.2378C17.8686 46.9261 19.0186 88.6783 19.0186 88.6783Z" fill="#FC8E0A"/>
<path d="M20.08 39.9376C19.4608 42.8568 22.9991 49.4027 25.6529 52.3218C30.3412 57.3639 34.4102 63.0252 37.3294 65.2367C41.4869 68.4212 66.1667 59.8407 66.1667 59.8407L64.3091 56.7447C64.3091 56.7447 43.8753 58.16 42.4599 56.7447C41.4869 55.8601 35.3833 44.3606 34.3218 41.7068C34.1449 41.2645 33.6141 40.4684 33.2603 40.1146C32.1103 38.6992 29.722 35.5147 26.1836 35.6917C22.6453 35.957 20.6108 37.6377 20.08 39.9376Z" fill="#FFBD95"/>
<path d="M22.9106 34.1878C22.9106 34.1878 16.7186 37.1954 19.7262 44.9797L27.422 56.3023L38.5677 47.8988L32.2872 37.6377C32.1988 37.6377 28.1297 32.5071 22.9106 34.1878Z" fill="#FFAF43"/>
<path d="M24.6798 26.8457C24.6798 26.8457 18.4878 25.0765 16.8071 18.4421C15.1264 11.8962 18.7531 9.50787 18.7531 9.50787C18.7531 9.50787 15.834 3.66963 23.8837 0.838966C31.9334 -1.9917 37.064 3.49271 42.9022 0.573588C48.652 -2.34553 53.3403 8.71174 41.3984 11.4539C29.3681 14.1961 28.6605 10.1271 26.5375 12.1616C26.5375 12.1616 27.9528 18.0883 26.1836 22.9535C25.5644 24.1919 25.8298 25.9611 24.6798 26.8457Z" fill="#1E1029"/>
<path d="M26.8028 22.1577L26.0067 17.2925C26.0067 17.2925 23.6183 15.7003 22.6453 17.7348C21.6722 19.7693 24.326 22.2462 26.8028 22.1577Z" fill="#FFBD95"/>
<path d="M61.8323 59.2211C63.6014 60.1942 65.9013 60.6365 67.9359 60.9018C69.6166 61.0788 70.7665 60.1942 70.7665 58.425C70.7665 56.6559 69.3512 56.1251 67.8474 56.1251C65.9013 56.1251 63.2476 56.0366 61.6554 57.1866C60.9477 57.7174 61.39 58.7789 62.0976 58.9558C63.1591 59.2211 64.2206 58.9558 65.3706 58.7789C65.9898 58.6904 66.609 58.6904 67.3167 58.6904C67.4936 58.6904 67.6705 58.6904 67.8474 58.6904C68.4666 58.8673 68.5551 58.7789 68.2013 58.3366C68.6435 58.2481 68.6435 58.2481 68.2897 58.1596C68.0243 58.0712 67.759 58.0712 67.4936 57.9827C66.9628 57.8943 66.4321 57.8058 65.9013 57.7174C64.7514 57.5404 63.6014 57.3635 62.4515 57.452C61.4784 57.6289 61.0361 58.7789 61.8323 59.2211Z" fill="#FFBD95"/>
<path d="M65.1052 57.8061C65.8129 57.983 66.4321 57.4523 66.8744 57.01C67.3167 56.5677 67.9359 56.0369 68.2012 55.4177C68.732 54.4447 67.582 53.6486 66.7859 54.2678C66.2552 54.7101 65.7244 55.4177 65.2821 55.9485C64.7514 56.3908 64.1322 57.4523 65.1052 57.8061Z" fill="#FFBD95"/>
<path d="M69.0858 58.0714C70.0589 57.8945 70.6781 57.0099 71.0319 56.1254C71.4742 55.2408 72.1819 53.6485 71.6511 52.6755C71.5627 52.4986 71.2088 52.3217 70.9435 52.4986C70.1473 53.0293 70.1473 54.0908 69.882 54.9754C69.6166 55.86 69.2628 56.5677 68.5551 57.2753C68.2013 57.6292 68.5551 58.1599 69.0858 58.0714Z" fill="#FFBD95"/>
<path d="M70.2358 59.7524C71.2973 59.0448 71.7396 57.2756 71.9165 56.0372C72.0934 54.9757 72.2703 53.2065 71.3857 52.4104C71.2088 52.2335 71.0319 52.3219 70.855 52.4989C70.2358 53.3834 70.5012 54.7988 70.3242 55.8603C70.0589 57.0102 69.3512 58.1602 69.3512 59.3101C69.3512 59.664 69.8819 60.0178 70.2358 59.7524Z" fill="#FFBD95"/>
</svg>
