<svg width="1360" height="700" viewBox="0 0 1360 700" fill="none" xmlns="http://www.w3.org/2000/svg">
<g clip-path="url(#clip0)">
<path fill-rule="evenodd" clip-rule="evenodd" d="M1244.4 0.0131308C1489.13 0.561607 1536 237.174 1536 237.174L1524 530.276L1398.62 514.192C1249.33 588.968 1104.02 583.784 943.042 578.042C880.215 575.801 815.001 573.474 746.233 575.783C573.364 581.587 507.041 601.513 410.593 630.491C357.023 646.586 294.16 665.473 198.584 686.283C-69.0664 744.559 -141.533 606.989 -141.533 606.989L-140.529 349.377L-8.52963 333.692L-149.112 315.659L-135.893 63.7461C39.6944 -14.7418 130.356 21.8103 270.795 78.4317C338.313 105.653 417.337 137.514 522.835 163.459C712.909 210.205 843.798 146.147 968.676 85.0309C1057.28 41.6677 1142.86 -0.21451 1244.4 0.0131308Z" fill="#091D28"/>
</g>
<defs>
<clipPath id="clip0">
<rect width="1360" height="700" fill="white"/>
</clipPath>
</defs>
</svg>
