<svg width="84" height="109" viewBox="0 0 84 109" fill="none" xmlns="http://www.w3.org/2000/svg">
<path opacity="0.9" d="M72.5931 45.6088C72.5058 45.8761 72.4251 46.1501 72.3311 46.4174C71.713 48.2417 70.9337 50.0126 70.02 51.71C69.805 52.1377 69.5564 52.552 69.3146 52.9663C69.1936 53.1735 69.0794 53.3873 68.9451 53.5878L68.5554 54.1959C68.421 54.3964 68.3001 54.6036 68.159 54.7974L67.7425 55.3854C67.6014 55.5792 67.467 55.7797 67.326 55.9735L66.8893 56.5415C64.5311 59.5688 61.6356 62.1616 58.3973 64.1463C55.1658 66.1311 51.585 67.5211 47.9235 68.1158C51.3028 66.5922 54.4201 64.7077 57.188 62.449C58.7265 61.1926 60.1575 59.8227 61.4676 58.3592L60.8428 57.7244C54.8501 51.6298 52.3912 42.5348 54.2589 33.393L54.7023 31.2211C54.7023 31.2211 55.1457 36.8746 59.1229 41.3186C63.7249 46.4775 64.3632 49.605 62.9523 56.5816C63.4428 55.9668 63.9063 55.332 64.3565 54.6838L64.7327 54.1425C64.8536 53.9621 64.9678 53.7749 65.0888 53.5878L65.4381 53.0332C65.5523 52.8461 65.6598 52.6589 65.7673 52.4651L66.0965 51.8971C66.2107 51.71 66.3048 51.5162 66.4055 51.3224C66.6071 50.9348 66.8221 50.5539 67.0035 50.1596C67.7694 48.5959 68.3942 46.9654 68.898 45.3081C69.4019 43.6508 69.7714 41.9467 69.9931 40.236C70.2283 38.5252 70.3156 36.7944 70.2753 35.0636C70.235 33.3395 70.0737 31.6087 69.7647 29.9113C69.4624 28.214 69.0391 26.5366 68.4748 24.9061C67.8836 23.1686 67.1446 21.4779 66.2712 19.854C55.4682 16.1118 51.1416 12.149 47.2651 6.61578C43.9933 1.95132 38.182 0 38.182 0L40.1101 0.106922C51.6118 0.728404 62.5157 5.93415 68.3404 15.9915C69.9327 18.3638 71.2293 20.9366 72.19 23.6364C72.835 25.4674 73.3388 27.3452 73.668 29.2498C73.9032 30.6398 74.0644 32.0431 74.1383 33.4531C75.7843 30.5462 77.7259 28.4345 79.8959 26.5099C83.3491 23.4426 83.7656 18.2502 83.7656 18.2502L83.9269 20.6493C84.5651 30.3858 81.0447 40.089 72.5931 45.6088ZM39.707 49.5716C39.136 51.0351 34.4264 56.6819 39.0755 61.8943C37.3623 54.5902 41.8905 51.4561 44.1747 49.4847C43.7178 52.3716 41.2791 54.5368 41.8905 58.6332C42.307 61.4265 44.0336 65.3759 44.0336 65.3759C44.0336 65.3759 48.2863 62.8566 47.9571 55.4389C47.8563 53.1067 47.3793 44.3525 38.0677 38.5453C37.6579 39.9219 39.4047 41.4121 40.5401 44.1453C41.306 46.0231 40.4124 47.7472 39.707 49.5716ZM30.9934 34.9033C30.9799 35.2708 30.9799 35.6383 30.9799 36.0059C31.0001 37.329 31.1613 38.7524 30.5768 40.3696C29.3675 43.6842 23.395 47.794 30.6642 54.4298C28.8368 47.6002 32.3236 39.7548 35.1117 41.6059C36.7174 42.6684 33.15 48.8833 33.5127 56.8022C33.6874 56.5081 33.8688 56.2208 34.0569 55.9267C34.9773 54.4699 45.2362 44.3926 31.8735 34.7763C31.5913 34.5758 31.3562 34.3152 31.1748 34.0145C31.0337 34.3219 31.0135 34.6092 30.9934 34.9033ZM43.6574 65.6232C42.0181 63.6251 36.1799 64.0528 33.4993 64.3201C29.3407 64.7277 23.8653 65.9172 22.2596 64.8547C25.4709 61.1258 35.3536 61.8943 37.9603 62.1683C37.6915 61.9611 30.5903 59.101 26.4652 61.0055C22.2327 62.9635 17.0798 64.1129 14.9098 62.9902C19.0012 66.9464 22.9516 67.4475 25.3567 67.9755C33.3045 69.7063 38.4977 68.5769 43.6574 65.6232ZM17.147 53.6947C15.4808 54.5501 11.2013 56.8623 6.39095 53.6747C6.6664 54.0155 9.11187 57.1162 9.33357 57.3902C17.4493 67.5077 27.4394 57.5707 33.5866 58.3458C30.6507 56.1539 17.0932 61.8342 16.9118 57.2165C16.9118 51.8904 30.3014 55.2785 31.5443 55.9334C31.3898 55.6661 25.827 49.2308 17.147 53.6947ZM24.6244 50.2465C21.9035 46.7515 12.0881 49.057 8.52065 50.8346C7.27105 44.4393 17.4426 43.9047 21.2787 46.531C21.2048 42.742 8.77595 41.7797 4.95324 47.099C4.0597 48.342 4.2411 50.8279 5.73928 52.2045C12.7666 58.6867 14.9434 48.5224 24.6244 50.2465ZM25.6255 49.7453C25.7329 42.6283 35.7432 30.065 26.4921 31.6689C24.0668 32.0899 17.0327 39.9219 22.5149 46.1902C21.6751 41.519 23.6368 37.2555 25.9546 36.7276C25.4172 38.5052 23.5764 47.7405 25.6255 49.7453ZM14.07 33.2593C13.9894 33.5534 13.9222 33.8474 13.8751 34.1481C17.409 28.3209 23.1128 24.1777 22.011 21.5648C21.9102 21.3309 21.8095 21.097 21.6818 20.8765C21.5542 20.6559 21.1242 19.9008 21.0839 19.7003C20.8958 18.8984 21.1578 18.17 21.2921 17.4015C20.8555 18.0898 20.3919 18.7648 19.794 19.3729C15.9108 23.3223 12.5651 28.7018 13.21 28.2741C13.9155 27.8397 16.5154 24.0707 17.98 25.2669C18.7728 25.9085 14.9501 30.6063 14.3521 32.3973C14.2446 32.6846 14.1506 32.972 14.07 33.2593ZM17.8188 41.1849C15.5614 40.3629 7.98991 40.1825 5.30931 41.5992C4.95324 36.8078 15.1247 38.4317 15.4136 38.6455C14.1707 36.0794 -0.0989278 33.0121 1.40597 42.4613C3.12586 49.331 12.4912 40.9109 17.8188 41.1849ZM18.719 40.3629C21.0973 32.9252 27.2043 31.0273 24.2079 27.9266C22.3671 26.1825 14.2715 30.2923 16.1795 38.2646C16.3744 36.0994 18.5175 32.551 20.1232 32.3705C19.9686 32.7915 17.98 37.6966 18.719 40.3629ZM12.5651 34.8899C11.7051 32.6245 7.35167 31.5486 5.12791 30.9538C6.55219 28.2942 11.4901 29.9314 12.471 30.7467C11.3289 27.2316 6.32377 25.2402 2.75635 26.9443C-1.6307 29.0426 0.223551 34.6293 1.51346 35.0971C4.84574 36.3066 9.17233 33.2794 12.5651 34.8899ZM14.0297 22.1662C15.024 23.6631 23.1934 16.3724 23.5965 8.28643C23.2606 9.09503 19.7738 8.59383 17.4963 10.1843C14.9769 11.9351 13.7005 18.1767 12.9816 19.4197C15.1449 18.5776 15.7025 14.5079 17.5702 13.6592C17.98 13.4721 18.5511 13.6927 18.8332 14.0134C20.5263 15.9447 13.116 20.8898 14.0297 22.1662ZM11.3222 25.6746C11.3827 25.2736 8.52737 24.9194 8.16458 21.371C7.74805 17.2144 11.4633 11.0731 11.1139 17.3815C10.9258 20.7361 11.3894 21.2908 11.3894 21.2908C11.3894 21.2908 12.686 17.7223 13.5191 15.3366C14.5335 12.4296 12.9816 8.94801 12.9816 8.94801C12.9816 8.94801 2.2592 15.4636 3.71035 23.3022C4.2411 26.1624 11.1475 26.8574 11.3222 25.6746ZM31.3091 1.39666C31.3091 1.39666 23.3076 0.441052 18.7392 3.66875C15.8302 5.72699 14.3387 7.43774 14.9366 11.1867C20.6338 6.03439 31.3091 1.39666 31.3091 1.39666ZM20.0022 82.9111C20.6808 83.9937 21.0167 85.2099 21.0167 86.5531C21.0167 88.0768 20.6673 89.42 19.9619 90.5827C19.2632 91.7522 18.3159 92.6543 17.1268 93.2892C15.9377 93.924 14.6343 94.2448 13.2167 94.2448C12.7129 94.2448 12.1149 94.2181 11.423 94.1713C11.1677 94.1579 10.8586 94.1379 10.4891 94.1245C10.1196 94.1112 9.70308 94.0978 9.24623 94.0978L7.49947 94.1245C7.18371 94.1379 6.76046 94.1512 6.22299 94.1512C6.1894 94.1512 6.17597 94.1045 6.17597 94.0109C6.17597 93.9174 6.1894 93.8706 6.22299 93.8706C6.72687 93.8706 7.09637 93.8305 7.33151 93.7503C7.56666 93.6701 7.72789 93.5164 7.81523 93.2892C7.90257 93.062 7.94288 92.7145 7.94288 92.24V81.3541C7.94288 80.8863 7.90257 80.5388 7.81523 80.3183C7.72789 80.0977 7.57337 79.944 7.34495 79.8572C7.11653 79.7703 6.76046 79.7302 6.27002 79.7302C6.223 79.7302 6.19612 79.6834 6.19612 79.5898C6.19612 79.4963 6.223 79.4495 6.27002 79.4495L7.51963 79.4762C8.2452 79.5097 8.82298 79.523 9.24623 79.523C9.89119 79.523 10.5563 79.4963 11.2348 79.4495C12.0545 79.4161 12.6054 79.4027 12.8876 79.4027C14.4798 79.4027 15.8906 79.7168 17.1335 80.345C18.3697 80.9798 19.3237 81.8285 20.0022 82.9111ZM18.1144 87.0744C18.1144 85.7445 17.9061 84.5283 17.503 83.439C17.0932 82.3498 16.5087 81.4944 15.7563 80.8662C14.9971 80.2381 14.1237 79.924 13.1294 79.924C12.1553 79.924 11.4834 80.0175 11.1206 80.2046C10.7578 80.3918 10.5765 80.7927 10.5765 81.4008V91.9794C10.5765 92.6076 10.7444 93.0486 11.0736 93.3092C11.4028 93.5699 12.041 93.6968 12.9883 93.6968C13.9961 93.6968 14.8896 93.4429 15.6622 92.935C16.4348 92.4271 17.0395 91.672 17.4694 90.6629C17.8927 89.6672 18.1144 88.471 18.1144 87.0744ZM38.2223 83.0047C38.8269 84.1474 39.1292 85.3636 39.1292 86.6467C39.1292 88.0701 38.753 89.3799 37.9938 90.5761C37.2347 91.7656 36.2269 92.7078 34.9572 93.3961C33.6874 94.0844 32.3102 94.4319 30.8321 94.4319C29.3675 94.4319 28.0642 94.0911 26.9221 93.4095C25.78 92.7279 24.8999 91.8057 24.2751 90.6362C23.6503 89.4667 23.3412 88.197 23.3412 86.8137C23.3412 85.1965 23.751 83.8133 24.5707 82.6638C25.3903 81.5144 26.4451 80.6457 27.7283 80.0643C29.0115 79.4829 30.3215 79.1956 31.6652 79.1956C33.1634 79.1956 34.4802 79.5431 35.6156 80.2447C36.7442 80.9397 37.6109 81.8619 38.2223 83.0047ZM36.2202 87.335C36.2202 85.8915 35.9985 84.6018 35.5551 83.4658C35.1117 82.3297 34.4735 81.4409 33.6404 80.7994C32.8073 80.1579 31.8264 79.8371 30.7112 79.8371C29.2802 79.8371 28.1717 80.3717 27.3991 81.4476C26.6265 82.5235 26.2435 84.0204 26.2435 85.9517C26.2435 87.4753 26.4787 88.8319 26.9422 90.0348C27.4058 91.2309 28.044 92.1732 28.857 92.8481C29.6699 93.5231 30.5836 93.8572 31.6115 93.8572C32.4916 93.8572 33.2843 93.6033 33.9897 93.0954C34.6884 92.5875 35.2393 91.8391 35.6357 90.8634C36.0254 89.8677 36.2202 88.6982 36.2202 87.335ZM53.5736 90.4825C53.493 90.4825 53.4459 90.5092 53.4325 90.556C53.3384 91.104 53.1033 91.6252 52.7204 92.1064C52.3441 92.5942 51.8873 92.9818 51.3498 93.2691C50.8124 93.5565 50.2615 93.7035 49.6971 93.7035H44.9204C44.8264 93.7035 44.7726 93.6901 44.7525 93.6701C44.739 93.6434 44.7592 93.5966 44.8264 93.5164L53.0093 79.7636C53.0563 79.7168 53.063 79.6567 53.0227 79.5765C52.9824 79.4963 52.9219 79.4562 52.848 79.4562H44.215C43.6641 79.4562 43.2946 79.4228 43.1132 79.3626C42.9318 79.3025 42.8445 79.1755 42.8445 78.9884C42.8445 78.9082 42.8512 78.8481 42.8713 78.8013C42.9049 78.7545 42.8377 78.7278 42.6832 78.7278C42.6228 78.7278 42.5892 78.7345 42.5892 78.7545L41.6419 82.8443C41.6284 82.9044 41.6889 82.9378 41.83 82.9378C41.877 82.9378 41.9106 82.9311 41.9241 82.9111C42.3675 82.0023 42.8848 81.334 43.4827 80.8996C44.0806 80.4719 44.8465 80.1846 45.7871 80.0509C46.7276 79.9173 48.0915 79.8505 49.892 79.8505C49.9995 79.8505 50.0599 79.8638 50.0666 79.8839C50.0734 79.9106 50.0532 79.9574 50.0062 80.0376L41.7091 93.8438C41.662 93.904 41.6553 93.9708 41.6822 94.0443C41.7158 94.1178 41.7628 94.1512 41.8233 94.1512C47.0232 94.1512 50.7989 94.1646 53.1503 94.198C53.2108 94.198 53.2645 94.1713 53.3049 94.1178C53.3452 94.0644 53.3653 94.0109 53.3653 93.9641L53.6945 90.556C53.6945 90.5092 53.6542 90.4825 53.5736 90.4825ZM71.6593 94.0109C71.6593 94.1045 71.6189 94.1512 71.5383 94.1512C71.2226 94.1512 70.7321 94.1379 70.0737 94.1045C69.3818 94.0711 68.8846 94.0577 68.5823 94.0577C68.1859 94.0577 67.7089 94.0711 67.1378 94.1045C66.6004 94.1379 66.1771 94.1512 65.8614 94.1512C65.8009 94.1512 65.7673 94.1045 65.7673 94.0109C65.7673 93.9174 65.8009 93.8706 65.8614 93.8706C66.2712 93.8706 66.5668 93.8305 66.7482 93.7436C66.9296 93.6567 67.0169 93.503 67.0169 93.2825C67.0169 93.0152 66.8624 92.5675 66.5466 91.9393L64.0877 87.1211H59.8821L58.2025 90.8099C57.9942 91.2644 57.8935 91.6854 57.8935 92.0796C57.8935 92.641 58.095 93.082 58.4981 93.3961C58.9012 93.7102 59.4387 93.8639 60.1172 93.8639C60.1978 93.8639 60.2381 93.9107 60.2381 94.0042C60.2381 94.0978 60.1978 94.1446 60.1172 94.1446C59.835 94.1446 59.4252 94.1312 58.8878 94.0978C58.2898 94.0644 57.7658 94.051 57.3291 94.051C56.9059 94.051 56.3886 94.0644 55.7906 94.0978C55.2532 94.1312 54.8232 94.1446 54.4873 94.1446C54.4268 94.1446 54.3932 94.0978 54.3932 94.0042C54.3932 93.9107 54.4268 93.8639 54.4873 93.8639C54.9307 93.8639 55.3002 93.777 55.5958 93.5966C55.8981 93.4162 56.1937 93.0954 56.4961 92.6343C56.7984 92.1732 57.1477 91.4849 57.5575 90.5761L62.6903 79.356C62.7239 79.3092 62.7911 79.2824 62.9053 79.2824C63.033 79.2824 63.1001 79.3092 63.1203 79.356L69.0324 90.9235C69.5833 92.0395 70.0402 92.808 70.4029 93.229C70.7657 93.65 71.142 93.8639 71.5383 93.8639C71.6189 93.8706 71.6593 93.9174 71.6593 94.0109ZM63.7653 86.4662L61.8707 82.7507L60.1911 86.4662H63.7653ZM29.5221 108.145C28.8502 108.145 28.2926 107.904 27.8425 107.423C27.3924 106.942 27.1639 106.354 27.1639 105.665C27.1639 104.964 27.3856 104.376 27.8291 103.894C28.2725 103.413 28.8166 103.173 29.4616 103.173C30.1805 103.173 30.8389 103.487 31.4301 104.108L32.0347 103.467C31.3159 102.712 30.4626 102.331 29.4683 102.331C28.5412 102.331 27.7619 102.658 27.1304 103.313C26.4988 103.968 26.1831 104.75 26.1831 105.659C26.1831 106.568 26.4988 107.356 27.1304 108.004C27.7619 108.653 28.5412 108.987 29.4683 108.987C30.4693 108.987 31.3427 108.579 32.0817 107.757L31.4502 107.176C30.8523 107.824 30.2073 108.145 29.5221 108.145ZM38.1484 103.079C38.5918 103.52 38.8202 104.148 38.8202 104.95V108.846H37.8796V107.897C37.3086 108.619 36.5427 108.98 35.5753 108.98C34.9236 108.98 34.3592 108.806 33.889 108.452C33.4187 108.098 33.1835 107.603 33.1835 106.975C33.1835 106.307 33.4321 105.799 33.9293 105.431C34.4264 105.071 35.0915 104.89 35.9246 104.89C36.583 104.89 37.2414 104.984 37.8796 105.164V104.964C37.8796 104.402 37.7117 103.975 37.3825 103.681C37.0533 103.387 36.583 103.24 35.9851 103.24C35.3603 103.24 34.7086 103.393 34.0368 103.694L33.7546 102.919C34.5474 102.558 35.3267 102.378 36.0858 102.378C36.9861 102.378 37.6714 102.611 38.1484 103.079ZM37.8864 105.913C37.2616 105.732 36.6367 105.639 36.0119 105.639C35.4275 105.639 34.9639 105.759 34.6347 105.993C34.3055 106.227 34.1375 106.547 34.1375 106.948C34.1375 107.336 34.2921 107.643 34.6011 107.871C34.9101 108.098 35.2931 108.218 35.7499 108.218C36.3479 108.218 36.8517 108.058 37.2616 107.737C37.6714 107.416 37.8796 107.009 37.8796 106.507V105.913H37.8864ZM41.7494 100.293C41.3799 100.66 41.1918 101.208 41.1918 101.93V102.484H40.3117V103.313H41.1918V108.846H42.1458V103.313H44.168V102.498H42.1323V101.983C42.1323 101.081 42.5018 100.627 43.2476 100.627C43.4894 100.627 43.7985 100.68 44.1747 100.787V99.9584C43.8791 99.8515 43.523 99.798 43.1199 99.798C42.5421 99.798 42.0853 99.9651 41.7494 100.293ZM50.2413 103.3C50.7788 103.941 51.0475 104.743 51.0475 105.719C51.0475 105.839 51.0408 105.953 51.0341 106.053H45.955C46.0222 106.701 46.2641 107.216 46.694 107.603C47.1173 107.984 47.6279 108.178 48.2124 108.178C48.9783 108.178 49.6568 107.877 50.2346 107.276L50.8325 107.804C50.1137 108.599 49.2336 109 48.1922 109C47.292 109 46.5328 108.693 45.9147 108.071C45.2966 107.45 44.9943 106.654 44.9943 105.672C44.9943 104.743 45.2899 103.955 45.8744 103.313C46.4589 102.665 47.1912 102.344 48.0713 102.344C48.9783 102.337 49.7038 102.658 50.2413 103.3ZM50.0801 105.284C50.0196 104.67 49.8181 104.155 49.4687 103.747C49.1194 103.34 48.6424 103.139 48.0377 103.139C47.4935 103.139 47.0232 103.34 46.6403 103.741C46.2506 104.142 46.0222 104.656 45.9618 105.284H50.0801ZM47.3256 99.7245L46.3313 100.179L47.7287 101.509H48.508L47.3256 99.7245Z" fill="#0A1D26"/>
</svg>
