<?xml version="1.0" standalone="no"?>
<!DOCTYPE svg PUBLIC "-//W3C//DTD SVG 20010904//EN"
 "http://www.w3.org/TR/2001/REC-SVG-20010904/DTD/svg10.dtd">
<svg version="1.0" xmlns="http://www.w3.org/2000/svg"
 width="700.000000pt" height="700.000000pt" viewBox="0 0 700.000000 700.000000"
 preserveAspectRatio="xMidYMid meet">
<metadata>
Created by potrace 1.11, written by Peter Selinger 2001-2013
</metadata>
<g transform="translate(0.000000,700.000000) scale(0.100000,-0.100000)"
fill="#000000" stroke="none">
<path d="M3215 6989 c-1004 -86 -1899 -579 -2513 -1387 -373 -489 -613 -1100
-684 -1737 -17 -154 -17 -585 0 -730 44 -370 129 -694 269 -1020 276 -645 764
-1212 1365 -1586 447 -278 924 -443 1483 -511 130 -16 600 -16 730 0 452 55
842 171 1211 358 994 505 1689 1445 1873 2534 37 217 46 331 45 595 0 332 -25
543 -99 843 -257 1041 -1000 1922 -1984 2356 -526 231 -1132 333 -1696 285z
m988 -1775 c263 -60 593 -274 872 -566 100 -105 215 -263 219 -302 1 -12 -410
-306 -428 -306 -2 0 -19 26 -36 58 -102 191 -363 440 -557 533 -164 78 -317
54 -407 -64 -64 -84 -72 -181 -25 -314 40 -112 55 -142 201 -392 203 -345 265
-494 289 -694 31 -251 -55 -473 -268 -690 -171 -175 -361 -259 -588 -260 -162
0 -291 30 -464 109 -41 19 -75 34 -76 34 -2 0 4 -26 13 -58 10 -37 16 -99 16
-177 1 -188 -46 -320 -174 -495 -61 -83 -312 -340 -331 -340 -12 0 -55 94 -70
155 -8 32 -16 45 -25 41 -8 -3 -53 -13 -101 -23 -71 -15 -138 -18 -345 -18
-234 0 -259 2 -275 18 -16 16 -18 41 -18 275 0 207 3 274 18 345 10 48 20 93
23 101 4 9 -9 17 -41 25 -63 16 -155 58 -155 70 0 21 275 288 350 340 153 107
288 158 453 170 l89 6 -63 70 c-107 120 -232 296 -219 308 16 14 422 288 434
293 9 3 16 2 16 -4 0 -16 99 -162 160 -237 189 -230 426 -403 620 -451 158
-40 295 21 374 165 76 140 34 277 -204 671 -232 384 -289 536 -290 771 0 183
44 318 157 476 147 206 324 328 538 369 84 16 215 11 318 -12z"/>
</g>
</svg>
