<svg viewBox="0 0 24 16" fill="none" xmlns="http://www.w3.org/2000/svg">
<path fill-rule="evenodd" clip-rule="evenodd" d="M10.9025 5.75994C10.9025 2.57903 8.483 0 5.41877 0C2.35558 0 0 2.57687 0 5.75616V5.75994C0 11.4061 4.29761 15.9995 9.73664 16C10.503 16 10.996 15.355 10.996 14.56C10.996 13.7651 10.3793 13.12 9.61299 13.12C7.94735 13.12 6.42563 12.5165 5.21407 11.515C5.22807 11.5153 5.24531 11.5163 5.26284 11.5173C5.2837 11.5186 5.30496 11.5199 5.32161 11.5199C8.38584 11.5199 10.9025 8.94085 10.9025 5.75994ZM23.9029 5.75994C23.9029 2.57903 21.4792 0 18.415 0C15.3518 0 12.9884 2.57687 12.9884 5.75616V5.75994C12.9884 11.4061 17.2938 15.9995 22.7329 16C23.4992 16 24 15.355 24 14.56C24 13.7651 23.3828 13.12 22.6165 13.12C20.9508 13.12 19.4286 12.5165 18.217 11.515C18.2311 11.5153 18.2481 11.5163 18.2654 11.5174C18.286 11.5186 18.3069 11.5199 18.3235 11.5199C21.3883 11.5199 23.9029 8.94085 23.9029 5.75994Z" fill="white"/>
</svg>
