<svg width="380" height="286" viewBox="0 0 380 286" fill="none" xmlns="http://www.w3.org/2000/svg">
<g filter="url(#filter0_d)">
<path d="M94.5464 194.621C95.4602 197.764 131.912 198.778 148.158 198.373C153.032 198.271 158.007 197.866 162.983 197.257C166.334 190.666 167.45 183.262 165.623 175.961C163.795 168.659 159.327 162.575 153.337 158.417C148.666 160.141 144.097 162.169 139.731 164.299C125.211 171.702 93.9371 192.389 94.5464 194.621Z" fill="#E5BC49"/>
<path d="M118.408 188.333C119.017 190.463 143.183 191.071 154.047 190.868C157.297 190.767 160.546 190.564 163.897 190.158C166.13 185.798 166.841 180.829 165.623 176.062C164.404 171.195 161.46 167.239 157.5 164.4C154.352 165.617 151.407 166.935 148.463 168.355C138.817 173.121 118.002 186.913 118.408 188.333Z" fill="white"/>
<path d="M232.435 179.409L169.684 211.151L157.297 215.207L163.592 201.719L232.435 179.409Z" fill="#7E46AF"/>
<path d="M221.976 133.267L152.525 144.422L140.137 148.58L153.235 155.679L221.976 133.267Z" fill="#9356C9"/>
<path d="M150.9 181.133C155.164 194.113 159.937 195.939 163.694 201.516L297.013 172.411C303.714 170.18 310.213 167.442 316.406 163.994C308.283 156.388 301.379 145.842 297.317 133.267C293.256 120.692 292.444 108.218 294.576 97.2656C287.57 98.1783 280.665 99.8009 273.964 101.931L153.337 155.78C149.478 162.169 146.635 168.152 150.9 181.133Z" fill="#F2F2F2"/>
<path d="M374.486 106.291C372.557 100.815 330.114 96.8601 311.33 96.353C305.745 96.2516 300.059 96.5558 294.474 97.2657C292.443 108.218 293.154 120.692 297.216 133.267C301.277 145.842 308.182 156.389 316.305 163.994C321.179 161.256 325.951 158.214 330.419 154.766C345.345 143.306 375.806 110.044 374.486 106.291Z" fill="#8A46C6"/>
<path d="M285.742 98.8883C283.813 110.348 284.828 123.227 288.991 136.208C293.256 149.087 300.059 160.039 308.284 168.152C311.025 166.935 313.665 165.617 316.305 164.197C308.182 156.591 301.278 146.045 297.216 133.47C293.154 120.895 292.342 108.421 294.474 97.4685C291.631 97.6713 288.687 98.1784 285.742 98.8883Z" fill="#4D7B94"/>
<path d="M140.645 186.102L197.607 169.673L196.592 166.225L195.576 162.676L138.614 179.206L140.645 186.102Z" fill="#9356C9"/>
<path d="M264.825 113.796C265.232 114.81 253.047 120.793 237.512 127.182C222.078 133.571 209.183 137.932 208.675 136.917C208.269 135.903 220.453 129.92 235.989 123.531C251.524 117.142 264.419 112.782 264.825 113.796Z" fill="white"/>
<path d="M316.406 163.994C321.28 161.256 326.053 158.214 330.52 154.766C345.345 143.306 375.806 110.043 374.486 106.291C374.182 105.379 372.76 104.567 370.628 103.756C355.397 116.838 334.582 135.599 306.151 151.724C309.197 156.388 312.65 160.546 316.406 163.994Z" fill="#7234A9"/>
<path d="M152.626 185.798C156.383 194.621 160.444 196.649 163.592 201.517L296.911 172.411C303.613 170.18 310.111 167.442 316.305 163.994C312.548 160.546 309.096 156.388 306.05 151.724C291.327 160.039 274.674 167.645 255.585 173.324C210.401 186.913 176.69 182.248 152.626 185.798Z" fill="#DBDBDB"/>
<path d="M308.385 168.051C311.126 166.834 313.766 165.515 316.406 164.096C312.649 160.648 309.197 156.49 306.151 151.825C303.714 153.245 301.074 154.664 298.536 155.983C301.48 160.445 304.831 164.501 308.385 168.051Z" fill="#355566"/>
<path d="M218.118 163.183L219.235 157.098L247.361 139.149L236.902 112.68L256.804 107.61L256.296 144.625L218.118 163.183Z" fill="#193442"/>
<path d="M219.641 156.997L213.447 158.011L212.939 160.344L214.869 160.648L212.127 176.367L218.423 162.98L219.641 156.997Z" fill="#193442"/>
<path d="M220.149 123.328L221.164 119.171L214.158 114.1L210.604 116.432L205.324 112.477L195.069 126.675L215.376 141.38L225.632 127.283L220.149 123.328ZM214.259 115.723L219.743 119.678L219.032 122.416L211.823 117.142L214.259 115.723Z" fill="#193442"/>
<path d="M271.222 70.2903L264.927 70.1888L270.004 74.7524L271.222 70.2903Z" fill="white"/>
<path d="M260.155 83.3723L257.108 74.0425L283.61 63.3943L296.911 50.1094L299.247 52.1376L286.96 68.5662L260.155 83.3723Z" fill="#4D7B94"/>
<path d="M286.961 68.5663L259.342 80.9385L260.155 83.3723L286.961 68.5663Z" fill="#355566"/>
<path d="M296.911 50.1094L302.394 43.6191C302.394 43.6191 303.105 44.836 302.801 45.9515C302.597 46.7628 303.308 46.6614 303.004 47.8784C302.902 48.4868 303.308 48.3854 303.004 49.2981C302.801 49.8052 301.481 51.5292 300.364 52.1376C299.653 52.5433 299.044 52.1376 299.044 52.1376L296.911 50.1094Z" fill="#FFE4AB"/>
<path d="M304.73 40.3739L298.028 48.791L299.45 48.8925C299.45 48.8925 306.456 40.881 304.73 40.3739Z" fill="#FFE4AB"/>
<path d="M300.871 47.067C300.871 47.067 299.856 48.0811 300.465 48.5882C300.465 48.5882 300.059 49.3995 300.871 49.3995C300.871 49.3995 300.567 50.1093 301.176 50.2108C301.176 50.2108 299.551 50.515 299.348 49.5009C299.145 48.284 300.871 47.067 300.871 47.067Z" fill="#E3C688"/>
<path d="M264.724 62.3802L261.881 72.8255L268.887 80.0258L270.105 62.0759L264.724 62.3802Z" fill="#FFE4AB"/>
<path d="M265.638 70.7972L262.591 70.3916L261.271 72.7241L248.173 79.0116L247.564 100.815L229.998 116.635C229.998 116.635 239.949 121.706 251.118 115.621L261.576 98.7868L265.638 70.7972Z" fill="#4D7B94"/>
<path d="M247.97 87.1246L251.219 86.1105L247.564 100.815L247.97 87.1246Z" fill="#355566"/>
<path d="M261.678 98.7869C261.678 98.7869 253.352 116.128 230.1 116.635C230.1 116.635 239.441 121.402 251.219 115.621L261.678 98.7869Z" fill="#355566"/>
<path d="M220.555 114.607L218.423 113.796L235.684 82.6625L262.49 70.4931L258.022 83.4738L238.527 89.9641L220.555 114.607Z" fill="#4D7B94"/>
<path d="M265.638 70.7974C269.902 70.696 274.268 69.1748 261.373 101.525C259.444 106.393 257.718 108.725 253.758 111.463L265.638 70.7974Z" fill="white"/>
<path d="M269.801 72.5214L267.77 72.3185L268.277 70.7974H269.496L269.801 72.5214Z" fill="#D43636"/>
<path d="M268.887 70.7973L262.49 70.4931L266.856 73.8397L268.887 70.7973Z" fill="white"/>
<path d="M262.795 69.3776L263.912 64.7127L265.13 59.6421L269.902 65.1183L262.795 69.3776Z" fill="#E3C688"/>
<path d="M268.887 54.8757L269.699 55.687L273.151 65.0168C273.557 66.031 272.339 66.4366 271.222 66.4366L267.364 66.538C266.653 66.538 265.84 66.4366 265.536 65.8281C263.911 62.8872 260.256 55.5856 267.871 54.2672C268.379 54.1658 268.379 54.8757 268.887 54.8757Z" fill="#FFE4AB"/>
<path d="M269.191 55.0786L270.41 56.4983C270.613 56.904 270.917 57.2082 270.917 57.6139L270.816 58.2223L273.253 61.1633L271.831 62.076L267.364 52.8475L269.191 55.0786Z" fill="#FFE4AB"/>
<path d="M269.191 55.0786L269.09 53.0503C269.191 52.5433 268.684 52.1376 268.176 52.3404L261.17 55.2814C260.358 55.687 259.748 56.2955 259.444 57.1068L258.834 58.5265C258.225 59.9463 258.733 61.4675 259.545 62.7858L263.099 67.5522C263.099 67.5522 264.927 65.0169 265.028 64.5098L265.333 61.4675C265.434 60.7576 265.333 60.0477 264.927 59.4392L263.505 57.0054L269.191 55.0786Z" fill="#193442"/>
<path d="M266.145 62.1774C266.653 62.9887 266.653 64.0028 266.145 64.307C265.638 64.6112 264.825 64.2056 264.318 63.2929C263.81 62.4816 263.81 61.4675 264.318 61.1633C264.825 60.9604 265.638 61.3661 266.145 62.1774Z" fill="#FFE4AB"/>
<path d="M268.481 72.3185C268.481 72.3185 268.379 72.5213 268.075 72.8255C262.795 79.8229 258.53 85.7048 252.133 90.3697C247.462 93.8177 246.447 94.8318 240.761 95.9473L231.318 98.2798L243.096 98.3812C246.244 98.3812 249.493 97.6713 252.235 96.0487C256.093 93.9191 259.241 90.7753 261.576 86.9217L269.293 72.4199L268.481 72.3185Z" fill="#2D4652"/>
<path d="M264.419 81.7498C264.419 81.7498 251.524 97.4685 244.721 98.2798C244.721 98.2798 257.21 98.7869 264.419 81.7498Z" fill="#17262E"/>
<path d="M220.555 114.607L218.22 119.272C217.813 119.982 217.306 120.489 216.696 119.982C216.595 119.88 216.493 119.576 216.595 119.475C216.696 118.765 215.884 119.272 215.986 118.055C215.986 117.447 215.58 117.751 215.681 116.94C215.783 116.432 216.798 114.81 217.712 113.999C218.22 113.593 218.93 113.796 218.93 113.796L220.555 114.607Z" fill="#FFE4AB"/>
<g opacity="0.2">
<path opacity="0.2" d="M262.49 70.4931L266.044 74.0425L266.754 73.7383L262.49 70.4931Z" fill="black"/>
</g>
</g>
<g filter="url(#filter1_d)">
<path d="M87 281C87 280.676 87 280.676 87 280.352C87 272.25 80.6264 266.093 72.978 266.093C71.066 266.093 69.1538 266.417 67.5604 267.065C66.6044 255.398 56.7252 246 44.934 246C35.3736 246 27.4066 251.833 23.9011 260.259C21.989 259.611 20.0769 259.287 17.8462 259.287C7.96705 259.287 0 267.389 0 277.435C0 278.731 1.9446e-05 279.704 0.318701 281H87Z" fill="white"/>
</g>
<g filter="url(#filter2_d)">
<path d="M292 235C292 234.833 292 234.833 292 234.667C292 230.5 288.777 227.333 284.908 227.333C283.941 227.333 282.974 227.5 282.168 227.833C281.685 221.833 276.689 217 270.725 217C265.89 217 261.861 220 260.088 224.333C259.121 224 258.154 223.833 257.026 223.833C252.029 223.833 248 228 248 233.167C248 233.833 248 234.333 248.161 235H292Z" fill="white"/>
</g>
<g filter="url(#filter3_d)">
<path d="M73 18C73 17.8333 73 17.8333 73 17.6667C73 13.5 69.7766 10.3333 65.9084 10.3333C64.9414 10.3333 63.9743 10.5 63.1685 10.8333C62.685 4.83334 57.6886 0 51.7253 0C46.8901 0 42.8608 3 41.0879 7.33334C40.1209 7.00001 39.1539 6.83333 38.0257 6.83333C33.0293 6.83333 29 11 29 16.1667C29 16.8333 29 17.3333 29.1612 18H73Z" fill="white"/>
</g>
<defs>
<filter id="filter0_d" x="94.5376" y="40.3739" width="284.99" height="179.833" filterUnits="userSpaceOnUse" color-interpolation-filters="sRGB">
<feFlood flood-opacity="0" result="BackgroundImageFix"/>
<feColorMatrix in="SourceAlpha" type="matrix" values="0 0 0 0 0 0 0 0 0 0 0 0 0 0 0 0 0 0 127 0"/>
<feOffset dx="4" dy="4"/>
<feGaussianBlur stdDeviation="0.5"/>
<feColorMatrix type="matrix" values="0 0 0 0 0 0 0 0 0 0 0 0 0 0 0 0 0 0 0.3 0"/>
<feBlend mode="normal" in2="BackgroundImageFix" result="effect1_dropShadow"/>
<feBlend mode="normal" in="SourceGraphic" in2="effect1_dropShadow" result="shape"/>
</filter>
<filter id="filter1_d" x="0" y="246" width="92" height="40" filterUnits="userSpaceOnUse" color-interpolation-filters="sRGB">
<feFlood flood-opacity="0" result="BackgroundImageFix"/>
<feColorMatrix in="SourceAlpha" type="matrix" values="0 0 0 0 0 0 0 0 0 0 0 0 0 0 0 0 0 0 127 0"/>
<feOffset dx="4" dy="4"/>
<feGaussianBlur stdDeviation="0.5"/>
<feColorMatrix type="matrix" values="0 0 0 0 0 0 0 0 0 0 0 0 0 0 0 0 0 0 0.3 0"/>
<feBlend mode="normal" in2="BackgroundImageFix" result="effect1_dropShadow"/>
<feBlend mode="normal" in="SourceGraphic" in2="effect1_dropShadow" result="shape"/>
</filter>
<filter id="filter2_d" x="248" y="217" width="49" height="23" filterUnits="userSpaceOnUse" color-interpolation-filters="sRGB">
<feFlood flood-opacity="0" result="BackgroundImageFix"/>
<feColorMatrix in="SourceAlpha" type="matrix" values="0 0 0 0 0 0 0 0 0 0 0 0 0 0 0 0 0 0 127 0"/>
<feOffset dx="4" dy="4"/>
<feGaussianBlur stdDeviation="0.5"/>
<feColorMatrix type="matrix" values="0 0 0 0 0 0 0 0 0 0 0 0 0 0 0 0 0 0 0.3 0"/>
<feBlend mode="normal" in2="BackgroundImageFix" result="effect1_dropShadow"/>
<feBlend mode="normal" in="SourceGraphic" in2="effect1_dropShadow" result="shape"/>
</filter>
<filter id="filter3_d" x="29" y="0" width="49" height="23" filterUnits="userSpaceOnUse" color-interpolation-filters="sRGB">
<feFlood flood-opacity="0" result="BackgroundImageFix"/>
<feColorMatrix in="SourceAlpha" type="matrix" values="0 0 0 0 0 0 0 0 0 0 0 0 0 0 0 0 0 0 127 0"/>
<feOffset dx="4" dy="4"/>
<feGaussianBlur stdDeviation="0.5"/>
<feColorMatrix type="matrix" values="0 0 0 0 0 0 0 0 0 0 0 0 0 0 0 0 0 0 0.3 0"/>
<feBlend mode="normal" in2="BackgroundImageFix" result="effect1_dropShadow"/>
<feBlend mode="normal" in="SourceGraphic" in2="effect1_dropShadow" result="shape"/>
</filter>
</defs>
</svg>
