<svg width="604" height="469" viewBox="0 0 604 469" fill="none" xmlns="http://www.w3.org/2000/svg">
<g clip-path="url(#clip0)" filter="url(#filter0_d)">
<path d="M579.618 158.856C579.618 158.683 579.618 158.337 579.618 158.164C579.618 149.522 572.528 142.435 563.88 142.435C561.805 142.435 559.73 142.954 557.827 143.645C556.79 130.854 545.894 120.656 532.75 120.656C522.2 120.656 513.38 127.052 509.575 136.213C507.5 135.521 505.252 135.003 503.003 135.003C492.108 135.003 483.288 143.818 483.288 154.707C483.288 156.09 483.461 157.3 483.633 158.683H579.618V158.856Z" fill="white"/>
<path d="M114.74 94.3834C114.74 94.2106 114.74 94.2106 114.74 94.0377C114.74 90.5808 111.973 87.6424 108.341 87.6424C107.476 87.6424 106.611 87.8152 105.92 88.1609C105.401 82.9755 101.077 79 95.8888 79C91.7381 79 88.1062 81.5927 86.5497 85.2225C85.685 84.8768 84.8203 84.704 83.9555 84.704C79.6319 84.704 76 88.3338 76 92.655C76 93.1735 76 93.6921 76.173 94.2106H114.74V94.3834Z" fill="white"/>
<path d="M213.146 167.152C213.146 166.979 213.146 166.979 213.146 166.807C213.146 162.485 209.687 159.201 205.537 159.201C204.499 159.201 203.461 159.374 202.596 159.72C202.078 153.497 196.716 148.485 190.317 148.485C185.129 148.485 180.805 151.596 178.903 156.09C177.865 155.744 176.827 155.572 175.617 155.572C170.256 155.572 165.932 159.893 165.932 165.251C165.932 165.942 165.932 166.461 166.105 167.152H213.146V167.152Z" fill="white"/>
<path d="M495.913 427.807C495.913 427.634 495.913 427.461 495.913 427.288C495.913 419.683 489.687 413.46 482.077 413.46C480.175 413.46 478.445 413.806 476.716 414.497C475.678 403.262 466.339 394.447 454.752 394.447C445.585 394.447 437.63 400.151 434.344 408.102C432.614 407.411 430.539 407.065 428.637 407.065C419.125 407.065 411.342 414.843 411.342 424.35C411.342 425.56 411.515 426.597 411.688 427.807H495.913Z" fill="white"/>
<path d="M-224 60.6185V444.686C-224 459.378 -212.067 471.305 -197.366 471.305H324.93C327.179 465.082 328.389 458.341 328.389 451.427C328.389 422.389 306.944 398.536 279.1 394.387C277.889 366.213 260.94 342.187 236.728 330.607C240.014 325.075 241.916 318.68 241.916 311.939C241.916 291.543 225.313 274.95 204.906 274.95C201.101 274.95 197.642 275.468 194.183 276.505C185.882 219.466 137.976 175.217 79.3471 172.451C68.9703 112.3 31.0952 61.6556 -20.7886 34H-197.366C-212.067 34 -224 45.9265 -224 60.6185Z" fill="white"/>
<path d="M83.0116 323.024C84.2195 327.182 132.402 328.523 153.877 327.987C160.319 327.853 166.895 327.316 173.472 326.511C177.901 317.792 179.377 308 176.961 298.342C174.546 288.684 168.64 280.636 160.722 275.136C154.548 277.417 148.508 280.1 142.737 282.916C123.544 292.708 82.2063 320.073 83.0116 323.024Z" fill="#E5BC49"/>
<path d="M114.552 314.707C115.357 317.524 147.3 318.329 161.661 318.061C165.956 317.926 170.251 317.658 174.68 317.122C177.633 311.354 178.572 304.781 176.961 298.476C175.351 292.038 171.459 286.806 166.224 283.051C162.064 284.66 158.171 286.404 154.279 288.282C141.529 294.586 114.015 312.829 114.552 314.707Z" fill="white"/>
<path d="M265.274 302.903L182.33 344.888L165.956 350.254L174.277 332.413L265.274 302.903Z" fill="#7E46AF"/>
<path d="M251.45 241.87L159.648 256.625L143.274 262.125L160.587 271.515L251.45 241.87Z" fill="#9356C9"/>
<path d="M157.5 305.183C163.137 322.353 169.445 324.767 174.411 332.145L350.634 293.647C359.493 290.696 368.082 287.075 376.269 282.514C365.532 272.454 356.406 258.503 351.037 241.87C345.669 225.237 344.595 208.738 347.413 194.251C338.153 195.459 329.026 197.605 320.168 200.422L160.722 271.649C155.621 280.1 151.863 288.014 157.5 305.183Z" fill="#F2F2F2"/>
<path d="M453.04 206.19C450.49 198.946 394.388 193.715 369.559 193.044C362.177 192.91 354.661 193.312 347.279 194.251C344.595 208.738 345.534 225.237 350.903 241.87C356.271 258.503 365.398 272.454 376.135 282.514C382.577 278.892 388.885 274.868 394.791 270.307C414.52 255.15 454.785 211.153 453.04 206.19Z" fill="#8A46C6"/>
<path d="M335.737 196.398C333.187 211.555 334.529 228.591 340.032 245.76C345.669 262.796 354.661 277.283 365.532 288.014C369.156 286.404 372.646 284.66 376.135 282.782C365.398 272.722 356.271 258.772 350.903 242.139C345.534 225.505 344.461 209.006 347.279 194.52C343.521 194.788 339.629 195.459 335.737 196.398Z" fill="#4D7B94"/>
<path d="M143.945 311.756L219.239 290.026L217.897 285.465L216.555 280.77L141.26 302.635L143.945 311.756Z" fill="#9356C9"/>
<path d="M308.089 216.116C308.626 217.457 292.52 225.371 271.985 233.822C251.585 242.273 234.539 248.041 233.868 246.699C233.331 245.358 249.437 237.444 269.972 228.993C290.507 220.542 307.552 214.774 308.089 216.116Z" fill="white"/>
<path d="M376.269 282.514C382.712 278.892 389.02 274.868 394.925 270.307C414.52 255.15 454.785 211.153 453.04 206.19C452.637 204.982 450.758 203.909 447.94 202.836C427.808 220.14 400.294 244.955 362.714 266.283C366.74 272.454 371.303 277.953 376.269 282.514Z" fill="#7234A9"/>
<path d="M159.782 311.354C164.748 323.024 170.116 325.706 174.277 332.145L350.5 293.648C359.358 290.696 367.948 287.075 376.135 282.514C371.169 277.953 366.606 272.454 362.579 266.283C343.118 277.283 321.107 287.343 295.875 294.855C236.15 312.829 191.591 306.659 159.782 311.354Z" fill="#DBDBDB"/>
<path d="M365.666 287.88C369.29 286.27 372.78 284.526 376.269 282.648C371.303 278.087 366.74 272.588 362.714 266.417C359.493 268.295 356.003 270.173 352.648 271.917C356.54 277.819 360.969 283.185 365.666 287.88Z" fill="#355566"/>
<path d="M246.35 281.441L247.826 273.393L285.004 249.65L271.18 214.64L297.486 207.933L296.815 256.894L246.35 281.441Z" fill="#193442"/>
<path d="M248.363 273.258L240.176 274.6L239.505 277.685L242.055 278.087L238.432 298.879L246.753 281.173L248.363 273.258Z" fill="#193442"/>
<path d="M249.034 228.725L250.376 223.225L241.116 216.518L236.418 219.603L229.439 214.372L215.883 233.151L242.726 252.601L256.282 233.956L249.034 228.725ZM241.25 218.664L248.498 223.896L247.558 227.518L238.029 220.542L241.25 218.664Z" fill="#193442"/>
<path d="M316.544 158.571L308.223 158.437L314.934 164.473L316.544 158.571Z" fill="white"/>
<path d="M301.915 175.874L297.888 163.534L332.918 149.449L350.5 131.877L353.587 134.56L337.347 156.29L301.915 175.874Z" fill="#4D7B94"/>
<path d="M337.347 156.29L300.841 172.655L301.915 175.874L337.347 156.29Z" fill="#355566"/>
<path d="M350.5 131.877L357.748 123.292C357.748 123.292 358.687 124.902 358.285 126.378C358.016 127.451 358.956 127.317 358.553 128.926C358.419 129.731 358.956 129.597 358.553 130.804C358.285 131.475 356.54 133.755 355.064 134.56C354.124 135.097 353.319 134.56 353.319 134.56L350.5 131.877Z" fill="#FFE4AB"/>
<path d="M360.835 119L351.977 130.133L353.856 130.268C353.856 130.268 363.116 119.671 360.835 119Z" fill="#FFE4AB"/>
<path d="M355.735 127.853C355.735 127.853 354.392 129.194 355.198 129.865C355.198 129.865 354.661 130.938 355.735 130.938C355.735 130.938 355.332 131.877 356.137 132.011C356.137 132.011 353.99 132.414 353.721 131.072C353.453 129.463 355.735 127.853 355.735 127.853Z" fill="#E3C688"/>
<path d="M307.954 148.108L304.196 161.924L313.457 171.448L315.068 147.706L307.954 148.108Z" fill="#FFE4AB"/>
<path d="M309.162 159.241L305.136 158.705L303.391 161.79L286.077 170.107L285.272 198.946L262.053 219.872C262.053 219.872 275.206 226.579 289.97 218.53L303.794 196.263L309.162 159.241Z" fill="#4D7B94"/>
<path d="M285.809 180.838L290.104 179.496L285.272 198.946L285.809 180.838Z" fill="#355566"/>
<path d="M303.928 196.263C303.928 196.263 292.922 219.201 262.187 219.872C262.187 219.872 274.535 226.176 290.104 218.53L303.928 196.263Z" fill="#355566"/>
<path d="M249.571 217.189L246.753 216.116L269.569 174.936L305.002 158.839L299.096 176.009L273.327 184.593L249.571 217.189Z" fill="#4D7B94"/>
<path d="M309.162 159.241C314.799 159.107 320.57 157.095 303.525 199.885C300.975 206.324 298.694 209.409 293.459 213.031L309.162 159.241Z" fill="white"/>
<path d="M314.665 161.522L311.981 161.253L312.652 159.241H314.262L314.665 161.522Z" fill="#D43636"/>
<path d="M313.457 159.241L305.002 158.839L310.773 163.266L313.457 159.241Z" fill="white"/>
<path d="M305.404 157.363L306.881 151.193L308.491 144.486L314.799 151.73L305.404 157.363Z" fill="#E3C688"/>
<path d="M313.457 138.182L314.531 139.255L319.094 151.595C319.631 152.937 318.02 153.473 316.544 153.473L311.444 153.608C310.504 153.608 309.431 153.473 309.028 152.669C306.881 148.779 302.049 139.121 312.115 137.377C312.786 137.243 312.786 138.182 313.457 138.182Z" fill="#FFE4AB"/>
<path d="M313.86 138.45L315.47 140.328C315.739 140.864 316.141 141.267 316.141 141.803L316.007 142.608L319.228 146.498L317.349 147.706L311.444 135.499L313.86 138.45Z" fill="#FFE4AB"/>
<path d="M313.86 138.45L313.726 135.767C313.86 135.097 313.189 134.56 312.518 134.828L303.257 138.718C302.183 139.255 301.378 140.06 300.975 141.133L300.17 143.011C299.365 144.889 300.036 146.901 301.109 148.644L305.807 154.949C305.807 154.949 308.223 151.596 308.357 150.925L308.76 146.901C308.894 145.962 308.76 145.023 308.223 144.218L306.344 140.999L313.86 138.45Z" fill="#193442"/>
<path d="M309.833 147.84C310.504 148.913 310.504 150.254 309.833 150.657C309.162 151.059 308.089 150.522 307.418 149.315C306.746 148.242 306.746 146.901 307.418 146.498C308.089 146.23 309.162 146.767 309.833 147.84Z" fill="#FFE4AB"/>
<path d="M312.92 161.253C312.92 161.253 312.786 161.522 312.383 161.924C305.404 171.18 299.767 178.96 291.312 185.13C285.138 189.691 283.796 191.032 276.28 192.508L263.798 195.593L279.367 195.727C283.527 195.727 287.822 194.788 291.446 192.642C296.546 189.825 300.707 185.667 303.794 180.569L313.994 161.388L312.92 161.253Z" fill="#2D4652"/>
<path d="M307.552 173.728C307.552 173.728 290.506 194.52 281.514 195.593C281.514 195.593 298.023 196.263 307.552 173.728Z" fill="#17262E"/>
<path d="M249.571 217.189L246.484 223.359C245.947 224.298 245.276 224.969 244.471 224.298C244.337 224.164 244.203 223.762 244.337 223.628C244.471 222.689 243.397 223.359 243.532 221.75C243.532 220.945 242.995 221.347 243.129 220.274C243.263 219.603 244.605 217.457 245.813 216.384C246.484 215.848 247.424 216.116 247.424 216.116L249.571 217.189Z" fill="#FFE4AB"/>
<g opacity="0.2">
<path opacity="0.2" d="M305.002 158.839L309.699 163.534L310.639 163.131L305.002 158.839Z" fill="black"/>
</g>
</g>
<defs>
<filter id="filter0_d" x="0" y="0" width="610" height="478" filterUnits="userSpaceOnUse" color-interpolation-filters="sRGB">
<feFlood flood-opacity="0" result="BackgroundImageFix"/>
<feColorMatrix in="SourceAlpha" type="matrix" values="0 0 0 0 0 0 0 0 0 0 0 0 0 0 0 0 0 0 127 0"/>
<feOffset dx="5" dy="8"/>
<feGaussianBlur stdDeviation="0.5"/>
<feColorMatrix type="matrix" values="0 0 0 0 0 0 0 0 0 0 0 0 0 0 0 0 0 0 0.3 0"/>
<feBlend mode="normal" in2="BackgroundImageFix" result="effect1_dropShadow"/>
<feBlend mode="normal" in="SourceGraphic" in2="effect1_dropShadow" result="shape"/>
</filter>
<clipPath id="clip0">
<rect width="604" height="469" fill="white"/>
</clipPath>
</defs>
</svg>
