<svg width="645" height="460" viewBox="0 0 645 460" fill="none" xmlns="http://www.w3.org/2000/svg">
<g clip-path="url(#clip0)">
<g style="mix-blend-mode:multiply" opacity="0.1">
<path d="M631.558 267.467C626.999 305.011 592.414 331.696 554.371 327.042C540.066 325.335 527.333 319.44 517.272 310.752C493.691 421.679 387.58 498.165 271.565 484.202C148.947 469.463 61.8569 359.467 76.6339 238.61C91.5681 117.598 203.025 31.6488 325.485 46.2323C360.541 50.4211 392.61 62.3672 420.278 80.2087C444.487 43.4397 488.504 21.2542 535.664 26.9945C601.218 34.9068 647.907 93.7061 639.889 158.401C637.217 179.966 628.728 199.514 616.309 215.649C627.942 229.612 633.916 248.074 631.558 267.467Z" fill="#FED29D"/>
</g>
<g style="mix-blend-mode:multiply" opacity="0.8">
<path d="M553.558 472.788C548.999 510.333 514.414 537.018 476.371 532.364C462.066 530.657 449.333 524.761 439.272 516.073C415.691 627.001 309.58 703.487 193.565 689.524C70.9469 674.785 -16.1431 564.788 -1.36606 443.932C13.5681 322.92 125.025 236.971 247.485 251.554C282.541 255.743 314.61 267.689 342.278 285.53C366.487 248.761 410.504 226.576 457.664 232.316C523.218 240.229 569.907 299.028 561.889 363.723C559.217 385.288 550.728 404.836 538.309 420.971C549.942 434.933 555.916 453.396 553.558 472.788Z" fill="#FFFAF5"/>
</g>
</g>
<defs>
<clipPath id="clip0">
<rect width="645" height="460" fill="white"/>
</clipPath>
</defs>
</svg>
