<svg viewBox="0 0 149 52" fill="none">
<path d="M134.865 50.0779C134.452 48.8831 134.246 47.6364 134.143 46.2857C134.04 44.8831 133.988 43.4805 134.04 42.026C134.04 40.5714 134.091 39.0649 134.194 37.5065C134.298 35.9481 134.349 34.3896 134.349 32.8831C134.349 31.4286 134.194 30.1299 133.885 28.9351C133.576 27.7403 133.008 26.6494 132.235 25.7662C131.461 24.8831 130.379 24.2078 129.089 23.7403C127.8 23.2727 126.202 23.0649 124.345 23.0649C122.231 23.0649 120.22 23.2727 118.261 23.6364C116.301 24 114.599 24.5195 113.207 25.1948L112.588 25.4545L114.651 31.8961L115.425 31.5325C116.301 31.1169 117.487 30.7532 118.931 30.4935C120.375 30.2338 121.767 30.0779 123.056 30.0779C124.088 30.0779 125.428 30.2338 125.892 31.013C126.15 31.4286 126.408 32.3117 126.253 34.026C125.841 34.026 125.428 34.026 125.016 34.026C123.469 34.026 121.973 34.1299 120.633 34.2857C118.725 34.5455 117.023 35.0649 115.682 35.7403C114.239 36.4675 113.104 37.4545 112.382 38.6494C111.609 39.8442 111.196 41.3507 111.196 43.0649C111.196 44.3117 111.402 45.4545 111.815 46.4416C112.227 47.4286 112.846 48.3117 113.568 49.0909C114.342 49.8182 115.218 50.3896 116.301 50.8052C117.332 51.2208 118.518 51.3766 119.808 51.3766C121.87 51.3766 123.572 50.961 124.913 50.0779C125.841 49.5065 126.614 48.7792 127.285 48.0519L128.161 51.013H135.174L134.865 50.0779ZM126.202 39.5844V42.0779C125.892 42.5974 125.377 43.1688 124.758 43.6364C124.088 44.1558 123.159 44.4156 122.025 44.4156C121.2 44.4156 120.633 44.2078 120.169 43.7922C119.756 43.3766 119.55 42.8571 119.55 42.0779C119.55 41.5584 119.704 41.1948 120.014 40.8831C120.375 40.5195 120.89 40.2078 121.509 40C122.231 39.7922 123.005 39.6364 123.933 39.5844C124.294 39.5325 124.706 39.5325 125.067 39.5325C125.428 39.5325 125.841 39.5325 126.202 39.5844ZM90.2604 50.1818L89.7963 50.4416C89.1775 50.7532 88.3009 51.013 87.1149 51.3247C85.9289 51.6364 84.6913 51.7403 83.4537 51.7403C81.3395 51.7403 79.6379 51.2208 78.5034 50.1818C77.3174 49.1429 76.6986 47.4286 76.6986 45.0909V16.6234L84.846 13.7662V41.5584C84.846 42.9091 85.0523 43.5325 85.207 43.8442C85.3101 44.0519 85.5164 44.3117 86.0836 44.3117C86.4445 44.3117 86.8055 44.2597 87.1665 44.2078C87.5274 44.1558 87.94 44 88.5072 43.7922L89.3838 43.4286L90.2604 50.1818ZM72.1093 50.1818L71.6452 50.3896C71.0264 50.7013 70.1498 50.961 68.9638 51.2727C67.7777 51.5844 66.5402 51.6883 65.3026 51.6883C63.1884 51.6883 61.4867 51.1688 60.3523 50.1299C59.1662 49.0909 58.5475 47.3766 58.5475 45.039V22.3896L66.6949 19.5325V41.5584C66.6949 42.9091 66.9011 43.5325 67.0558 43.8442C67.159 44.0519 67.3652 44.3117 67.9324 44.3117C68.2934 44.3117 68.6544 44.2597 69.0153 44.2078C69.3763 44.1558 69.7888 44 70.356 43.7922L71.2326 43.4286L72.1093 50.1818ZM108.463 50.1818L107.999 50.4416C107.38 50.7532 106.504 51.013 105.318 51.3247C104.132 51.6364 102.894 51.7403 101.656 51.7403C99.5423 51.7403 97.8406 51.2208 96.7061 50.1818C95.5201 49.1429 94.9013 47.4286 94.9013 45.0909V10.8052L103.049 7.94805V41.5584C103.049 42.9091 103.255 43.5325 103.41 43.8442C103.513 44.0519 103.719 44.3117 104.286 44.3117C104.647 44.3117 105.008 44.2597 105.369 44.2078C105.73 44.1558 106.143 44 106.71 43.7922L107.587 43.4286L108.463 50.1818ZM55.7629 51.2208H47.6155L41.6855 41.3507L40.19 42.8571V51.2727H32.2489V10.8052L40.19 7.94805V34.1818L46.2232 24.8312H53.7003L45.8623 36.3117L55.7629 51.2208ZM67.4168 4.98701C67.4168 7.74026 65.1994 9.97403 62.4665 9.97403C59.7335 9.97403 57.5161 7.74026 57.5161 4.98701C57.5161 2.23377 59.7335 0 62.4665 0C65.1994 0 67.4168 2.23377 67.4168 4.98701ZM13.0149 52C10.2303 52 7.75517 51.7403 5.64097 51.2208C3.52678 50.7013 1.9798 50.1818 0.948486 49.6623L3.42364 43.1169C3.83617 43.3247 4.35183 43.5844 5.02218 43.8442C5.64097 44.1039 6.41446 44.3636 7.23951 44.5714C8.06456 44.7792 8.94118 44.987 9.8178 45.1429C10.746 45.2987 11.6742 45.3507 12.6539 45.3507C14.9228 45.3507 16.676 44.987 17.8621 44.2078C19.0481 43.4286 19.6669 42.2857 19.6669 40.6753C19.6669 39.4805 19.2028 38.4935 18.3777 37.7662C17.5011 37.039 16.4182 36.3117 15.0775 35.7403C13.7884 35.1169 12.3445 34.4935 10.7976 33.8182C9.25058 33.1429 7.80674 32.3636 6.51759 31.4286C5.22845 30.4935 4.094 29.2987 3.21738 27.8442C2.34076 26.4416 1.92824 24.6234 1.92824 22.3896C1.92824 20.4675 2.23763 18.8052 2.85642 17.4026C3.47521 16 4.40339 14.8052 5.53784 13.8701C6.72385 12.9351 8.11613 12.2597 9.6631 11.7922C11.2616 11.3247 13.0664 11.1169 15.0259 11.1169C17.2948 11.1169 19.4606 11.3247 21.4201 11.6883C23.4312 12.1039 25.0813 12.6753 26.3704 13.4026L23.9984 19.8442C23.1733 19.3247 21.9358 18.8571 20.3372 18.3896C18.6871 17.974 16.9339 17.7662 15.0259 17.7662C13.2727 17.7662 11.8804 18.1299 10.9522 18.8571C10.0241 19.5844 9.50841 20.5195 9.50841 21.7143C9.50841 22.8571 9.9725 23.7922 10.7976 24.5195C11.6742 25.2468 12.757 25.974 14.0978 26.5974C15.3869 27.2208 16.8307 27.8961 18.3777 28.5714C19.9247 29.2468 21.3685 30.0779 22.6577 31.013C23.9468 31.9481 25.0813 33.1429 25.9579 34.5455C26.8345 35.9481 27.247 37.7143 27.247 39.7922C27.247 41.8701 26.8861 43.6883 26.2157 45.1948C25.5454 46.7013 24.5656 48 23.328 48.987C22.0905 49.974 20.595 50.7532 18.8418 51.2208C17.0886 51.7403 15.1291 52 13.0149 52Z" />
<path d="M142.857 9.97407L141.981 9.55849C142.6 9.50654 143.115 9.29875 143.528 8.98706C143.94 8.62342 144.147 8.10394 144.147 7.48056C144.147 6.59745 143.837 5.97407 143.218 5.61043C142.6 5.2468 141.878 5.09095 141.001 5.09095C140.485 5.09095 139.918 5.1429 139.299 5.19485C138.681 5.2468 138.217 5.29875 137.907 5.40264V13.4546H139.506V9.76628L141.001 10.2338L142.961 13.4546H144.869L142.857 9.97407ZM140.589 8.72732H139.557V6.49355C139.66 6.4416 139.867 6.38965 140.073 6.38965C140.279 6.38965 140.485 6.38965 140.743 6.38965C141.929 6.38965 142.548 6.75329 142.548 7.48056C142.548 7.9481 142.393 8.25978 142.032 8.46758C141.671 8.62342 141.207 8.72732 140.589 8.72732ZM141.104 3.01303C144.559 3.01303 147.395 5.87017 147.395 9.35069C147.395 12.8312 144.559 15.6884 141.104 15.6884C137.649 15.6884 134.813 12.8312 134.813 9.35069C134.813 5.87017 137.649 3.01303 141.104 3.01303ZM141.104 1.45459C136.773 1.45459 133.266 4.98706 133.266 9.35069C133.266 13.7143 136.773 17.2468 141.104 17.2468C145.436 17.2468 148.942 13.7143 148.942 9.35069C148.942 4.98706 145.436 1.45459 141.104 1.45459Z" />
</svg>
