<svg width="235" height="280" viewBox="0 0 235 280" fill="none" xmlns="http://www.w3.org/2000/svg">
<g clip-path="url(#clip0)">
<path d="M155.49 211.99C155.49 211.99 131.398 236.844 69.325 229.954C7.25209 223.064 7.25211 201.04 5.90002 192.059C4.54794 183.077 -19.5437 76.1591 39.7021 76.8974C98.9479 77.6356 101.775 168.682 113.452 183.815C125.129 198.949 164.217 205.839 155.49 211.99Z" fill="#DFEBFD"/>
<path d="M132.996 224.663L156.842 315.956C156.842 315.956 154.998 315.094 153.769 315.956C152.54 316.817 121.565 227.985 121.565 227.985L132.996 224.663Z" fill="#C5DAF7"/>
<path d="M94.0312 231.184C94.0312 231.184 93.5396 315.587 92.3104 315.956C91.0812 316.325 88.5 315.956 88.5 315.956L86.4104 231.184H94.0312Z" fill="#C5DAF7"/>
<path d="M50.6417 227.124L17.3313 316.079L13.5208 315.956L38.5958 224.171L50.6417 227.124Z" fill="#C5DAF7"/>
<path d="M116.156 297.254L103.988 295.286L104.233 273.631L121.319 278.676L116.156 297.254Z" fill="#FFBD95"/>
<path d="M83.9521 10.7041C83.9521 10.7041 93.7854 22.6386 93.6625 25.3453C93.5396 28.0521 98.9479 43.4316 91.3271 52.0441C83.5833 60.6566 81.2479 61.0257 72.275 56.3503C71.9063 56.1043 59.9833 50.3216 59.9833 50.3216L51.625 41.8321L55.3125 31.3741L63.425 17.225L66.8667 13.657L83.3375 11.1962" fill="#FFBD95"/>
<path d="M81.3708 55.3662V66.5624C81.3708 66.5624 81.4937 72.7142 85.7958 72.8372C87.8854 72.9603 94.0312 75.0519 100.054 78.0047C108.167 81.9419 113.206 90.1852 113.206 99.1669V129.926L117.262 128.572L123.777 149.365L113.452 154.287L111.485 150.227L103.373 153.426L100.423 151.334L102.635 167.698L38.7187 162.899L43.6354 136.693L44.4958 130.664L38.7187 120.452L33.3104 144.69L13.3979 136.57L15.8562 125.866L19.175 127.219L24.9521 90.3083C24.9521 90.3083 25.9354 82.557 32.8187 80.9576C37.1208 79.9733 60.5979 70.1304 60.5979 70.1304L61.8271 52.1672L81.3708 55.3662Z" fill="#BA8A7B"/>
<path d="M81.3708 55.3662V66.5624C81.3708 66.5624 81.4937 72.7142 85.7958 72.8372C87.8854 72.9603 94.0312 75.0519 100.054 78.0047C108.167 81.9419 113.206 90.1852 113.206 99.1669V129.926L117.262 128.572L123.777 149.365L113.452 154.287L111.485 150.227L103.373 153.426L100.423 151.334L102.635 167.698L38.7187 162.899L43.6354 136.693L44.4958 130.664L38.7187 120.452L33.3104 144.69L13.3979 136.57L15.8562 125.866L19.175 127.219L23.6 98.9208C25.075 89.5701 31.2208 81.5728 40.0708 78.0047C40.3167 77.8817 40.5625 77.7586 40.9312 77.6356C45.1104 76.0361 60.7208 70.0074 60.7208 70.0074L61.95 52.0442L81.3708 55.3662Z" fill="#FFBD95"/>
<path d="M95.5062 75.4209C95.6291 75.5439 69.8167 96.583 69.8167 96.583L42.0375 77.0204L26.6729 79.235L7.49791 140.63L37.3666 146.782L32.5729 189.598L107.675 169.912L105.217 154.533L110.133 154.164C110.133 154.164 112.96 157.609 113.452 157.855C113.944 157.978 129.677 151.703 129.677 151.703L117.262 76.5282L95.5062 75.4209Z" fill="#AED3FF"/>
<path d="M43.5125 136.816C43.6354 136.816 43.6354 134.724 43.5125 131.525C43.2666 128.203 43.0208 123.651 42.5292 118.73C42.1604 113.685 41.6687 109.133 41.4229 105.934C41.0542 102.612 40.9312 100.643 40.6854 100.643C40.5625 100.643 40.3166 102.735 40.4396 106.057C40.5625 109.379 40.8083 113.931 41.1771 118.976C42.0375 128.695 43.1437 136.816 43.5125 136.816Z" fill="#84ABD3"/>
<path d="M16.225 125.989C16.1021 126.358 19.6667 127.711 23.9687 129.557C28.2708 131.402 31.7125 132.879 31.9583 132.51C32.0812 132.14 28.8854 130.049 24.5833 128.326C20.0354 126.481 16.3479 125.62 16.225 125.989Z" fill="#84ABD3"/>
<path d="M18.9291 124.758C18.8062 125.127 21.0187 125.989 23.8458 126.604C26.6729 127.219 29.0083 127.465 29.0083 127.096C29.1312 126.727 26.9187 125.866 24.0917 125.251C21.3875 124.635 19.0521 124.389 18.9291 124.758Z" fill="#84ABD3"/>
<path d="M49.4125 125.866C49.2896 125.989 50.0271 126.604 51.5021 127.219C52.9771 127.711 55.0666 128.08 57.4021 127.465C59.7375 126.85 61.4583 125.62 62.5645 124.512C63.5479 123.405 63.9166 122.544 63.7937 122.421C63.6708 122.298 63.0562 123.036 61.95 123.897C60.8437 124.758 59.2458 125.743 57.1562 126.235C55.0666 126.727 53.2229 126.604 51.8708 126.358C50.2729 125.989 49.5354 125.743 49.4125 125.866Z" fill="#84ABD3"/>
<path d="M93.6625 144.075C93.7854 144.075 93.7854 143.46 93.7854 142.229C93.6625 140.999 93.5396 139.4 93.2937 137.308C93.1708 136.324 93.0479 135.093 92.925 133.986C92.8021 133.371 92.8021 132.756 92.8021 132.14C92.8021 131.525 92.8021 130.91 93.0479 130.541C93.2937 130.172 93.7854 129.803 94.4 129.557C95.0146 129.311 95.875 128.942 96.4896 128.449C97.8416 127.465 98.825 125.989 99.3167 124.389C99.6854 123.282 99.6854 122.175 99.4396 121.19C99.1937 120.083 98.825 119.222 98.2104 118.36C97.1041 116.761 95.3833 115.654 93.6625 115.285L94.1541 116.023C95.1375 112.455 95.6291 109.502 95.7521 107.287C95.875 105.196 95.875 103.965 95.7521 103.965C95.6291 103.965 95.5062 105.196 95.1375 107.287C94.7687 109.379 94.1541 112.332 93.0479 115.777L92.8021 116.392L93.4166 116.515C94.7687 116.884 96.2437 117.745 97.2271 119.222C97.7187 119.96 98.0875 120.698 98.2104 121.559C98.3333 122.421 98.3333 123.282 98.0875 124.143C97.7187 125.497 96.8583 126.727 95.7521 127.588C95.1375 127.957 94.6458 128.203 93.9083 128.572C93.5396 128.695 93.1708 128.819 92.8021 129.188C92.4333 129.434 92.0646 129.803 91.9416 130.172C91.5729 131.033 91.5729 131.771 91.5729 132.51C91.5729 133.125 91.6958 133.863 91.8187 134.478C91.9416 135.709 92.1875 136.816 92.4333 137.923C92.8021 140.015 93.1708 141.614 93.4166 142.722C93.5396 143.46 93.6625 144.075 93.6625 144.075Z" fill="#84ABD3"/>
<path d="M109.642 143.214C110.01 143.337 111.117 140.753 111.977 137.431C112.96 134.109 113.452 131.402 113.083 131.279C112.715 131.156 111.608 133.74 110.748 137.062C109.887 140.261 109.396 143.091 109.642 143.214Z" fill="#84ABD3"/>
<path d="M107.429 139.646C107.798 139.769 109.15 137.8 110.625 135.093C112.1 132.387 112.96 130.172 112.592 129.926C112.223 129.803 110.871 131.771 109.396 134.478C108.044 137.185 107.183 139.4 107.429 139.646Z" fill="#84ABD3"/>
<path d="M83.3375 110.117C84.8125 110.363 86.2875 108.887 86.7791 106.672C87.1479 104.457 86.4104 102.489 84.9354 102.243C83.4604 101.997 81.9854 103.473 81.4937 105.688C81.002 107.779 81.8625 109.748 83.3375 110.117Z" fill="#FCFDFF"/>
<path d="M59.8604 105.196C58.5083 105.811 58.3854 108.148 59.3687 110.363C60.475 112.578 62.4416 113.808 63.6708 113.193C65.0229 112.578 65.1458 110.24 64.1625 108.025C63.0562 105.811 61.0896 104.58 59.8604 105.196Z" fill="#FCFDFF"/>
<path d="M74.3646 122.298C72.8896 122.298 71.7833 124.266 71.7833 126.481C71.9062 128.695 73.1354 130.541 74.6104 130.541C76.0854 130.541 77.1917 128.572 77.1917 126.358C77.1917 124.02 75.8396 122.175 74.3646 122.298Z" fill="#FCFDFF"/>
<path d="M46.2166 133.248C45.3562 134.355 46.0937 136.57 48.0604 138.169C50.0271 139.769 52.3625 140.015 53.2229 138.907C54.0833 137.8 53.3458 135.585 51.3792 133.986C49.4125 132.386 47.0771 132.14 46.2166 133.248Z" fill="#FCFDFF"/>
<path d="M49.4125 93.1381C49.4125 94.6146 50.6417 95.8449 52.3625 95.8449C54.0833 95.8449 55.4354 94.7376 55.4354 93.2612C55.4354 91.7848 54.2062 90.5544 52.4854 90.5544C50.7646 90.4314 49.4125 91.6617 49.4125 93.1381Z" fill="#FCFDFF"/>
<path d="M28.8854 90.3083C28.2708 91.6617 28.8854 93.3842 30.4833 94.1224C31.9583 94.8606 33.8021 94.4915 34.5396 93.1381C35.1542 91.7847 34.5396 90.0622 32.9416 89.324C31.4666 88.5858 29.6229 88.9549 28.8854 90.3083Z" fill="#FCFDFF"/>
<path d="M47.4458 110.117C46.3396 111.101 46.3396 112.947 47.5687 114.423C48.7979 115.9 50.6417 116.269 51.7479 115.285C52.8542 114.3 52.8542 112.455 51.625 110.978C50.3958 109.625 48.5521 109.256 47.4458 110.117Z" fill="#FCFDFF"/>
<path d="M29.5 106.18C29.0083 107.533 29.7458 109.133 31.2208 109.625C32.6958 110.117 34.2937 109.379 34.7854 108.025C35.2771 106.672 34.5396 105.073 33.0646 104.58C31.5896 104.088 29.9917 104.827 29.5 106.18Z" fill="#FCFDFF"/>
<path d="M19.5437 113.808C19.5437 114.546 19.9125 115.162 20.4042 115.777C20.8958 116.269 21.6333 116.638 22.3708 116.761C23.1083 116.884 23.9687 116.761 24.5833 116.392C25.1979 116.023 25.8125 115.531 25.9354 114.792C26.1813 114.054 25.9354 113.316 25.4437 112.701C24.9521 112.086 24.0917 111.594 23.1083 111.47C22.125 111.347 21.1417 111.594 20.5271 111.963C19.9125 112.455 19.5437 113.07 19.5437 113.808Z" fill="#FCFDFF"/>
<path d="M35.1542 124.758C34.4167 125.989 34.9083 127.834 36.5062 128.695C37.9812 129.68 39.825 129.434 40.6854 128.203C41.4229 126.973 40.9312 125.127 39.3333 124.266C37.8583 123.282 36.0146 123.528 35.1542 124.758Z" fill="#FCFDFF"/>
<path d="M25.4437 142.352C26.0583 142.721 26.7958 142.721 27.4104 142.721C28.025 142.721 28.5166 142.475 28.7625 142.106C29.1312 141.737 29.1312 141.245 29.1312 140.63C29.1312 140.015 28.8854 139.4 28.3937 138.784C27.9021 138.169 27.2875 137.8 26.6729 137.8C25.9354 137.8 25.1979 138.046 24.7062 138.661C24.2146 139.276 23.9687 140.138 24.2146 140.753C24.2146 141.491 24.7062 142.106 25.4437 142.352Z" fill="#FCFDFF"/>
<path d="M12.9062 132.756C12.9062 133.494 13.1521 134.109 13.5208 134.724C13.8896 135.216 14.2583 135.585 14.8729 135.708C15.3646 135.831 15.9791 135.585 16.4708 135.216C16.9625 134.847 17.3312 134.232 17.5771 133.617C17.8229 132.879 17.7 132.14 17.3312 131.648C16.9625 131.033 16.3479 130.664 15.7333 130.541C14.9958 130.418 14.2583 130.664 13.7666 131.156C13.1521 131.279 12.9062 132.017 12.9062 132.756Z" fill="#FCFDFF"/>
<path d="M36.7521 76.8974C35.5229 77.6357 35.4 79.8503 36.6292 81.8189C37.8583 83.7874 39.825 84.7717 41.0541 84.0335C42.2833 83.2953 42.4062 81.0807 41.1771 79.1121C39.9479 77.1435 37.9812 76.1592 36.7521 76.8974Z" fill="#FCFDFF"/>
<path d="M79.1583 89.57C78.0521 90.5543 78.0521 92.3998 79.1583 93.6302C80.2646 94.8605 82.1083 95.1066 83.2146 94.1223C84.3208 93.138 84.3208 91.2925 83.2146 90.0621C82.1083 88.8318 80.2646 88.5857 79.1583 89.57Z" fill="#FCFDFF"/>
<path d="M104.602 75.4209C104.233 74.8057 103.373 74.5596 102.267 74.8057C101.16 75.0518 99.9312 75.667 98.825 76.7743C97.7187 77.8816 97.1042 79.112 96.8583 80.0963C96.6125 81.2036 96.8583 82.0648 97.35 82.4339C97.9646 82.9261 98.825 82.803 99.6854 82.4339C100.546 82.0648 101.529 81.4496 102.512 80.4654C103.373 79.6041 104.11 78.6198 104.479 77.7586C104.971 76.7743 104.971 75.913 104.602 75.4209Z" fill="#FCFDFF"/>
<path d="M91.45 91.7848C91.0812 92.3999 90.9583 93.1382 91.3271 93.8764C91.5729 94.6146 92.3104 95.2298 93.1708 95.4758C94.0312 95.8449 94.8916 95.7219 95.6291 95.3528C96.2437 94.9837 96.7354 94.3685 96.8583 93.6303C96.9812 92.8921 96.7354 92.1539 96.4895 91.6617C96.1208 91.0466 95.6291 90.6774 95.1375 90.4314C94.5229 90.1853 93.9083 90.3083 93.2937 90.4314C92.4333 90.6774 91.8187 91.0466 91.45 91.7848Z" fill="#FCFDFF"/>
<path d="M69.4479 97.6905C67.9729 97.8136 66.8667 99.6591 66.9896 101.874C67.1125 104.088 68.3417 105.934 69.8166 105.811C71.2916 105.688 72.3979 103.842 72.275 101.628C72.275 99.29 70.9229 97.5675 69.4479 97.6905Z" fill="#FCFDFF"/>
<path d="M89.3604 121.559C88.8687 122.051 88.6229 122.79 88.7458 123.528C88.8687 124.266 89.3604 125.127 90.2208 125.742C91.0812 126.358 92.0646 126.604 92.8021 126.481C93.6625 126.358 94.2771 125.866 94.5229 125.25C94.8917 124.635 94.7687 123.774 94.6458 123.159C94.4 122.544 94.0312 121.928 93.4167 121.436C92.8021 120.944 92.1875 120.821 91.45 120.821C90.5896 120.821 89.8521 121.067 89.3604 121.559Z" fill="#FCFDFF"/>
<path d="M81.4937 143.829C82.2312 144.075 82.9687 143.952 83.7062 143.46C84.4437 143.09 85.0583 142.352 85.427 141.491C85.7958 140.63 86.0416 139.645 85.9187 138.907C85.7958 138.046 85.427 137.431 84.8125 137.062C84.1979 136.693 83.3375 136.693 82.6 137.062C81.8625 137.431 81.0021 138.169 80.5104 139.153C80.0187 140.138 79.8958 141.245 80.0187 142.106C80.2646 142.967 80.7562 143.583 81.4937 143.829Z" fill="#FCFDFF"/>
<path d="M63.7937 141.614C62.3187 141.737 61.3354 143.952 61.5812 146.536C61.8271 149.119 63.1792 151.088 64.6542 150.965C66.1292 150.842 67.1125 148.627 66.8666 146.043C66.6208 143.46 65.2687 141.368 63.7937 141.614Z" fill="#FCFDFF"/>
<path d="M75.4708 157.609C76.0854 158.962 78.2979 159.208 80.2646 158.224C82.3542 157.24 83.4604 155.394 82.7229 154.041C82.1083 152.687 79.8958 152.441 77.9291 153.426C75.9625 154.41 74.8562 156.378 75.4708 157.609Z" fill="#FCFDFF"/>
<path d="M51.0104 150.719C49.5354 150.719 48.3062 152.318 48.1833 154.287C48.0604 156.255 49.2896 157.978 50.7646 157.978C52.2396 157.978 53.4687 156.378 53.5917 154.41C53.5917 152.441 52.4854 150.719 51.0104 150.719Z" fill="#FCFDFF"/>
<path d="M60.3521 165.975C60.9666 166.344 61.827 166.344 62.5646 165.975C63.3021 165.606 64.1625 164.745 64.6542 163.638C65.1458 162.53 65.2687 161.423 65.0229 160.562C64.7771 159.7 64.2854 159.085 63.6708 158.839C62.9333 158.593 62.1958 158.839 61.4583 159.331C60.7208 159.823 60.1062 160.562 59.7375 161.423C59.3687 162.284 59.1229 163.268 59.2458 164.13C59.3687 164.868 59.7375 165.606 60.3521 165.975Z" fill="#FCFDFF"/>
<path d="M103.742 152.318C104.848 153.18 106.692 152.934 107.675 151.58C108.658 150.227 108.535 148.504 107.429 147.52C106.323 146.659 104.479 146.905 103.496 148.258C102.512 149.612 102.635 151.334 103.742 152.318Z" fill="#FCFDFF"/>
<path d="M95.5062 143.583C96.4896 144.69 98.7021 144.321 100.3 142.845C101.898 141.368 102.512 139.277 101.406 138.169C100.423 137.062 98.2104 137.431 96.6125 138.907C95.0146 140.384 94.5229 142.475 95.5062 143.583Z" fill="#FCFDFF"/>
<path d="M116.033 118.607C115.296 117.376 112.837 117.376 110.625 118.853C108.412 120.206 107.183 122.298 107.921 123.651C108.658 124.881 111.117 124.881 113.329 123.405C115.542 121.928 116.771 119.837 116.033 118.607Z" fill="#FCFDFF"/>
<path d="M98.2104 113.07C97.8417 113.685 97.8417 114.423 98.2104 115.161C98.5792 115.9 99.1937 116.515 100.177 116.884C101.037 117.253 102.021 117.253 102.758 116.884C103.496 116.638 103.987 116.023 104.233 115.284C104.356 114.546 104.233 113.808 103.865 113.193C103.496 112.578 102.881 112.086 102.144 111.839C101.406 111.593 100.669 111.47 99.9312 111.716C99.1937 112.086 98.5792 112.455 98.2104 113.07Z" fill="#FCFDFF"/>
<path d="M116.525 100.889C116.033 99.5359 113.575 99.1668 111.117 100.028C108.658 100.889 107.06 102.858 107.675 104.211C108.167 105.565 110.625 105.934 113.083 105.072C115.542 104.088 117.017 102.243 116.525 100.889Z" fill="#FCFDFF"/>
<path d="M103.742 91.7847C102.267 91.4156 100.792 92.646 100.423 94.4915C100.054 96.337 100.915 98.0595 102.267 98.3056C103.742 98.6747 105.217 97.4444 105.585 95.5988C105.954 93.7533 105.094 92.0308 103.742 91.7847Z" fill="#FCFDFF"/>
<path d="M117.017 85.1409C116.279 83.7875 114.312 83.5414 112.469 84.5257C110.625 85.51 109.642 87.3555 110.379 88.7089C111.117 90.0623 113.083 90.3084 114.927 89.3241C116.771 88.2168 117.754 86.3712 117.017 85.1409Z" fill="#FCFDFF"/>
<path d="M112.346 142.229C111.731 143.583 112.592 145.305 114.312 146.043C116.033 146.905 117.877 146.413 118.492 145.059C119.106 143.706 118.246 141.983 116.525 141.245C114.927 140.384 112.96 140.876 112.346 142.229Z" fill="#FCFDFF"/>
<path d="M66.4979 56.3504C66.4979 58.6881 66.2521 60.9027 65.6375 63.1173C63.9166 69.3922 59.6146 79.3581 45.6021 76.1591C29.8687 72.5911 37.7354 56.1043 37.7354 56.1043L36.7521 55.3661C35.4 54.5049 34.6625 53.0284 34.6625 51.429C34.6625 49.0913 36.3833 48.4761 36.3833 48.4761C32.2042 36.9108 42.2833 36.1725 42.2833 36.1725V34.9422C44.6187 18.3324 52.2396 9.22774 60.3521 5.04453C66.1292 2.09167 74.3646 2.58381 74.3646 2.58381C74.3646 2.58381 78.0521 -0.984221 87.1479 0.246135C96.2437 1.47649 90.7125 14.8874 90.7125 14.8874L92.3104 15.8717C102.512 20.424 98.4562 50.5677 98.4562 50.5677C98.4562 50.5677 105.831 55.8582 104.848 64.9629C103.865 74.0675 93.6625 75.1748 93.6625 75.1748C93.6625 75.1748 81.8625 72.4681 81.2479 72.345C80.6333 72.222 81.6167 57.7038 81.6167 57.7038C88.0083 55.12 93.2937 48.23 93.1708 34.6961C93.0479 21.0392 82.7229 12.1806 82.7229 12.1806C78.6667 18.0863 69.0791 18.3324 69.0791 18.3324C69.0791 24.115 62.9333 29.8977 62.9333 29.8977C62.9333 29.8977 61.7041 43.9238 64.5312 48.3531C66.0062 50.6907 66.4979 53.7666 66.4979 56.3504Z" fill="#00215F"/>
<path d="M39.2104 184.43C39.2104 184.43 114.435 142.352 137.912 152.564C161.39 162.776 202.567 254.438 202.567 254.438L188.8 262.681C188.8 262.681 160.775 228.846 128.571 184.307C128.571 184.307 69.8167 220.849 45.1104 204.731C20.4041 188.614 39.2104 184.43 39.2104 184.43Z" fill="#4044ED"/>
<path d="M58.5084 175.941L36.2604 168.19C36.2604 168.19 28.6396 187.137 32.6959 192.797C36.875 198.456 33.6792 192.797 33.6792 192.797L58.5084 175.941Z" fill="#4044ED"/>
<path d="M201.46 255.053L211.663 268.587L199.617 270.432L190.275 261.451C190.275 261.328 195.069 255.053 201.46 255.053Z" fill="#FFBD95"/>
<path d="M210.679 267.233C210.679 267.233 238.827 277.938 235.754 282.49C232.681 287.042 199.74 274 199.74 274L197.896 270.063L210.679 267.233Z" fill="#00215F"/>
<path d="M74.7333 166.836L29.9917 150.965L31.4667 144.444L16.1021 137.8C16.1021 137.8 9.09583 155.64 15.2417 162.53C19.4208 167.205 60.8438 172.865 60.8438 172.865L74.7333 166.836Z" fill="#FFBD95"/>
<path d="M55.9271 45.2771C52.6686 45.2771 50.0271 41.6415 50.0271 37.1567C50.0271 32.672 52.6686 29.0364 55.9271 29.0364C59.1856 29.0364 61.8271 32.672 61.8271 37.1567C61.8271 41.6415 59.1856 45.2771 55.9271 45.2771Z" fill="#D9ECFD"/>
<path d="M57.7708 29.8977C57.7708 29.8977 55.1896 10.8272 66.8666 2.95288C66.8666 2.95288 62.9333 3.44502 60.3521 4.92145C60.3521 4.92145 52.2396 8.85859 54.4521 32.7275L57.7708 29.8977Z" fill="#D9ECFD"/>
<path d="M69.6937 48.9681C69.6937 49.7063 71.0458 50.4445 72.6438 50.4445C74.2417 50.4445 75.5938 49.8294 75.5938 48.9681C75.5938 48.2299 74.2417 47.4917 72.6438 47.4917C71.0458 47.4917 69.6937 48.2299 69.6937 48.9681Z" fill="#D9ECFD"/>
<path d="M54.9437 41.0938C54.8208 41.0938 55.0666 42.3242 56.1729 43.8006C57.1562 45.277 59.2458 46.9995 61.8271 48.1069C64.4083 49.0911 66.9896 49.3372 68.7104 49.4602C70.5541 49.5833 71.6604 49.4602 71.6604 49.3372C71.6604 49.2142 70.5541 49.0911 68.8333 48.8451C67.1125 48.599 64.6542 48.2299 62.1958 47.2456C59.7375 46.2613 57.7708 44.7849 56.6646 43.4315C55.4354 42.0781 55.0666 40.9708 54.9437 41.0938Z" fill="#D9ECFD"/>
<path d="M40.0709 193.658C39.948 193.289 39.2104 193.289 38.35 193.658C37.6125 194.027 36.9979 194.519 37.1209 194.888C37.2438 195.257 37.9813 195.257 38.8417 194.888C39.7021 194.519 40.1938 194.027 40.0709 193.658Z" fill="#363DC6"/>
<path d="M51.2563 189.229C51.1333 188.86 49.7813 189.106 48.1834 189.721C46.5854 190.336 45.4792 191.074 45.6021 191.444C45.725 191.813 47.0771 191.567 48.675 190.951C50.2729 190.336 51.3792 189.475 51.2563 189.229Z" fill="#363DC6"/>
<path d="M62.5646 184.676C62.4417 184.307 61.0896 184.553 59.4917 185.168C57.8938 185.784 56.7875 186.522 56.9105 186.891C57.0334 187.26 58.3855 187.014 59.9834 186.399C61.4584 185.784 62.6875 185.045 62.5646 184.676Z" fill="#363DC6"/>
<path d="M73.75 180.247C73.6271 179.878 72.275 180.124 70.6771 180.739C69.0792 181.354 67.9729 182.093 68.0958 182.462C68.2188 182.831 69.5708 182.585 71.1688 181.97C72.7667 181.354 73.8729 180.493 73.75 180.247Z" fill="#363DC6"/>
<path d="M84.9355 175.695C84.8125 175.326 83.4605 175.572 81.8625 176.187C80.2646 176.802 79.1584 177.54 79.2813 177.91C79.4042 178.279 80.7563 178.033 82.3542 177.417C83.9521 176.802 85.0584 176.064 84.9355 175.695Z" fill="#363DC6"/>
<path d="M96.1209 171.266C95.998 170.897 94.6459 171.143 93.048 171.758C91.45 172.373 90.3438 173.111 90.4667 173.48C90.5896 173.849 91.9417 173.603 93.5396 172.988C95.1375 172.373 96.2438 171.635 96.1209 171.266Z" fill="#363DC6"/>
<path d="M107.306 166.713C107.183 166.344 105.831 166.59 104.233 167.205C102.635 167.821 101.529 168.559 101.652 168.928C101.775 169.297 103.127 169.051 104.725 168.436C106.323 167.944 107.552 167.082 107.306 166.713Z" fill="#363DC6"/>
<path d="M118.615 162.407C118.492 162.038 117.14 162.284 115.542 162.776C114.804 163.022 114.067 163.391 113.575 163.76C113.083 164.129 112.838 164.376 112.96 164.499C113.083 164.622 113.452 164.745 113.944 164.622C114.558 164.499 115.173 164.376 116.033 164.006C117.631 163.514 118.738 162.776 118.615 162.407Z" fill="#363DC6"/>
<path d="M130.538 161.054C130.66 160.684 129.308 160.069 127.588 160.069C125.867 160.069 124.515 160.561 124.515 160.931C124.515 161.3 125.867 161.423 127.465 161.423C129.063 161.423 130.415 161.423 130.538 161.054Z" fill="#363DC6"/>
<path d="M140.002 168.067C140.248 167.82 139.756 166.59 138.65 165.237C137.544 163.883 136.192 163.268 135.946 163.637C135.7 163.883 136.56 164.991 137.667 166.221C138.65 167.328 139.633 168.313 140.002 168.067Z" fill="#363DC6"/>
<path d="M146.148 178.402C146.517 178.156 146.025 176.925 145.165 175.449C144.304 173.972 143.444 172.988 143.075 173.234C142.706 173.48 143.198 174.711 144.058 176.187C144.919 177.54 145.779 178.648 146.148 178.402Z" fill="#363DC6"/>
<path d="M152.171 188.86C152.54 188.614 152.048 187.383 151.187 185.907C150.327 184.43 149.467 183.446 149.098 183.692C148.729 183.938 149.221 185.169 150.081 186.645C150.942 187.998 151.925 189.106 152.171 188.86Z" fill="#363DC6"/>
<path d="M158.317 199.318C158.685 199.072 158.194 197.841 157.333 196.365C156.473 194.888 155.613 193.904 155.244 194.15C154.875 194.396 155.367 195.627 156.227 197.103C156.965 198.456 157.948 199.564 158.317 199.318Z" fill="#363DC6"/>
<path d="M164.34 209.776C164.708 209.53 164.217 208.299 163.356 206.823C162.496 205.346 161.635 204.362 161.267 204.608C160.898 204.854 161.39 206.085 162.25 207.561C163.11 208.914 164.094 209.899 164.34 209.776Z" fill="#363DC6"/>
<path d="M170.363 220.234C170.731 219.988 170.24 218.757 169.379 217.281C168.519 215.804 167.658 214.82 167.29 215.066C166.921 215.312 167.413 216.543 168.273 218.019C169.133 219.372 170.117 220.357 170.363 220.234Z" fill="#363DC6"/>
<path d="M176.508 230.692C176.877 230.446 176.385 229.215 175.525 227.739C174.665 226.262 173.804 225.278 173.435 225.524C173.067 225.77 173.558 227.001 174.419 228.477C175.279 229.83 176.14 230.815 176.508 230.692Z" fill="#363DC6"/>
<path d="M182.531 241.15C182.9 240.904 182.408 239.673 181.548 238.197C180.688 236.72 179.827 235.736 179.458 235.982C179.09 236.228 179.581 237.459 180.442 238.935C181.302 240.288 182.285 241.273 182.531 241.15Z" fill="#363DC6"/>
<path d="M188.677 251.608C189.046 251.362 188.554 250.131 187.694 248.655C186.833 247.178 185.973 246.194 185.604 246.44C185.235 246.686 185.727 247.917 186.588 249.393C187.325 250.746 188.308 251.731 188.677 251.608Z" fill="#363DC6"/>
<path d="M193.225 259.482C193.594 259.236 193.471 258.498 192.979 257.76C192.61 257.022 191.996 256.529 191.627 256.775C191.258 257.022 191.381 257.76 191.873 258.498C192.242 259.236 192.856 259.605 193.225 259.482Z" fill="#363DC6"/>
<path d="M202.444 254.438L188.185 263.296L183.269 257.268L199.863 246.563L202.444 254.438Z" fill="#363DC6"/>
<path d="M144.919 205.223L122.179 285.689L102.758 282.736C102.758 282.736 99.6854 228.108 117.385 206.208H79.2813C96.4896 200.794 112.838 193.412 128.448 184.43C139.51 184.061 147.869 194.519 144.919 205.223Z" fill="#3C43D3"/>
<path d="M90.4667 204.608C90.4667 204.239 88.9917 203.993 87.3938 204.116C85.6729 204.239 84.3208 204.608 84.3208 204.978C84.3208 205.347 85.7958 205.593 87.3938 205.47C89.2375 205.47 90.5896 204.977 90.4667 204.608Z" fill="#363DC6"/>
<path d="M102.758 203.747C102.758 203.378 101.283 203.132 99.6854 203.255C97.9646 203.378 96.6125 203.747 96.6125 204.116C96.6125 204.485 98.0875 204.731 99.6854 204.608C101.529 204.608 102.881 204.116 102.758 203.747Z" fill="#363DC6"/>
<path d="M115.05 202.886C115.05 202.517 113.575 202.271 111.977 202.394C110.256 202.517 108.904 202.886 108.904 203.255C108.904 203.624 110.379 203.87 111.977 203.747C113.698 203.747 115.05 203.255 115.05 202.886Z" fill="#363DC6"/>
<path d="M122.179 205.716C122.548 205.839 123.408 204.731 124.023 203.132C124.146 202.886 124.146 202.763 124.269 202.517C124.392 202.148 124.269 201.779 123.9 201.656C123.777 201.656 123.654 201.656 123.654 201.656C122.302 201.779 121.196 202.148 121.196 202.517C121.196 202.886 122.302 203.009 123.654 203.009L123.04 202.025C122.917 202.148 122.917 202.394 122.794 202.517C122.179 204.239 121.81 205.593 122.179 205.716Z" fill="#363DC6"/>
<path d="M117.631 217.158C118 217.281 118.738 216.051 119.352 214.451C119.967 212.852 120.09 211.498 119.844 211.375C119.475 211.252 118.738 212.483 118.123 214.082C117.508 215.682 117.263 217.035 117.631 217.158Z" fill="#363DC6"/>
<path d="M113.944 228.969C114.312 229.092 114.927 227.862 115.419 226.263C115.91 224.663 116.033 223.187 115.665 223.064C115.296 222.941 114.681 224.171 114.19 225.77C113.698 227.37 113.575 228.846 113.944 228.969Z" fill="#363DC6"/>
<path d="M110.994 240.904C111.363 241.027 111.977 239.674 112.346 238.074C112.715 236.475 112.715 234.998 112.346 234.875C111.977 234.752 111.363 236.106 110.994 237.705C110.625 239.428 110.625 240.781 110.994 240.904Z" fill="#363DC6"/>
<path d="M108.904 252.961C109.273 252.961 109.765 251.731 110.01 250.008C110.256 248.286 110.133 246.933 109.887 246.81C109.519 246.686 109.027 248.04 108.781 249.762C108.413 251.608 108.535 252.961 108.904 252.961Z" fill="#363DC6"/>
<path d="M107.552 265.265C107.921 265.265 108.29 263.912 108.535 262.312C108.658 260.59 108.535 259.236 108.167 259.236C107.798 259.236 107.429 260.59 107.183 262.189C107.06 263.789 107.183 265.265 107.552 265.265Z" fill="#363DC6"/>
<path d="M107.06 277.322C107.429 277.322 107.798 275.969 107.798 274.37C107.798 272.77 107.552 271.417 107.183 271.417C106.815 271.417 106.446 272.77 106.446 274.37C106.446 275.969 106.692 277.322 107.06 277.322Z" fill="#363DC6"/>
<path d="M123.654 285.689L100.054 283.351L101.16 275.354L124.638 279.291L123.654 285.689Z" fill="#363DC6"/>
<g opacity="0.11">
<path opacity="0.11" d="M46.4625 202.394C46.3396 202.763 47.4458 203.378 49.4125 204.116C51.3792 204.854 54.4521 205.469 58.1396 205.962C59.1229 206.085 60.1062 206.085 61.0896 206.208C62.0729 206.208 63.1792 206.331 64.2854 206.331C66.4979 206.331 68.9562 206.208 71.4146 205.962C76.4542 205.469 81.8625 204.239 87.2708 202.517C92.8021 200.794 97.8417 198.702 102.267 196.488C106.692 194.396 110.625 192.182 113.821 190.336C120.212 186.522 123.9 183.815 123.531 183.077C123.162 182.462 118.86 184.061 112.1 186.891C108.781 188.367 104.725 190.09 100.3 191.936C95.875 193.781 90.9583 195.627 85.6729 197.349C80.3875 198.949 75.3479 200.179 70.6771 201.04C68.3417 201.409 66.1292 201.655 64.0396 201.901C62.9333 202.024 61.95 202.024 60.9667 202.147C59.9833 202.147 59 202.271 58.1396 202.271C51.2562 202.394 46.7083 201.655 46.4625 202.394Z" fill="#00215F"/>
</g>
<path d="M198.142 270.309C198.142 270.309 198.633 270.678 199.494 271.048C200.354 271.417 201.706 272.032 203.427 272.77C206.746 274.123 211.417 275.846 216.579 277.445C221.742 279.045 226.658 280.152 230.1 280.89C231.821 281.26 233.296 281.506 234.279 281.629C235.14 281.752 235.754 281.752 235.754 281.752C235.754 281.629 233.665 281.136 230.223 280.275C226.781 279.414 221.987 278.184 216.825 276.584C211.662 274.985 206.992 273.385 203.673 272.155C200.231 271.048 198.142 270.186 198.142 270.309Z" fill="#6A89BA"/>
<path d="M118.246 153.302L159.3 120.206L154.506 112.701L117.14 128.695L118.246 153.302Z" fill="#FFBD95"/>
<path d="M156.104 122.421L153.892 113.685L162.865 98.9208C163.11 98.5516 163.479 98.1825 163.848 97.9365L173.313 92.0308C173.313 92.0308 174.542 94.6145 169.994 97.6904C163.725 102.12 171.1 108.641 171.1 108.641L156.104 122.421Z" fill="#FFBD95"/>
<path d="M164.217 101.012C164.217 101.012 166.798 102.858 168.642 102.489C170.485 102.12 181.794 88.7088 183.023 89.57C184.375 90.4313 181.179 94.9836 179.827 96.337C178.106 98.0595 174.173 102.12 174.542 102.489C174.91 102.981 185.973 94.9836 186.833 95.2297C189.415 96.0909 183.637 100.397 177.369 103.965C171.1 107.533 177.615 104.949 177.615 104.949C177.615 104.949 187.571 100.397 188.308 102.12C188.8 103.473 176.877 109.01 176.877 109.01C176.877 109.01 175.771 110.363 177.983 109.994C180.073 109.625 186.71 106.795 187.448 107.164C188.062 107.533 163.848 123.405 159.3 120.083C154.752 116.884 155.735 112.578 155.735 112.578L164.217 101.012Z" fill="#FFBD95"/>
</g>
<defs>
<clipPath id="clip0">
<rect width="236" height="281" fill="white" transform="matrix(-1 0 0 1 236 0)"/>
</clipPath>
</defs>
</svg>
