<svg width="104" height="113" viewBox="0 0 104 113" fill="none" xmlns="http://www.w3.org/2000/svg">
<path opacity="0.69" d="M47.0854 117C72.3019 117 92.7439 114.574 92.7439 111.582C92.7439 108.59 72.3019 106.165 47.0854 106.165C21.8689 106.165 1.42688 108.59 1.42688 111.582C1.42688 114.574 21.8689 117 47.0854 117Z" fill="#BBA795"/>
<path d="M13.9513 75.5713H10.3049V112.698H13.9513V75.5713Z" fill="#9D6F43"/>
<path d="M12.2073 69.8349C21.8781 71.747 28.2195 75.0931 30.2805 83.0601C33.4513 95.6481 33.6098 101.703 33.6098 101.703L36.4634 102.022C36.4634 102.022 39.7927 81.6261 35.1952 71.2689C30.5976 61.0711 13.7927 57.5656 13.7927 57.5656C13.7927 57.5656 9.67076 57.247 9.03661 61.2305C8.71954 63.1426 12.5244 67.2854 12.2073 69.8349Z" fill="#AD4944"/>
<path d="M70.0731 60.4339C70.0731 62.1866 59.2926 63.6207 46.1341 63.6207C32.817 63.6207 22.1951 62.1866 22.1951 60.4339C22.1951 60.2745 22.1951 59.3185 22.1951 59.3185C23.6219 57.7251 34.2438 57.2471 46.1341 57.2471C57.7073 57.2471 67.6951 57.8844 70.0731 59.4778C70.0731 59.3185 70.0731 60.2745 70.0731 60.4339Z" fill="#9D6F43"/>
<path d="M49.622 61.3896H44.3903V112.697H49.622V61.3896Z" fill="#9D6F43"/>
<path d="M86.878 77.8018H83.2317V112.06H86.878V77.8018Z" fill="#9D6F43"/>
<path d="M22.3536 74.9337C22.3536 76.6864 17.439 78.1205 11.2561 78.1205C5.07313 78.1205 0.1585 76.6864 0.1585 74.9337C0.1585 74.615 -0.158574 73.3403 0.1585 73.1809C1.42679 71.7469 6.02435 71.7469 11.2561 71.7469C17.2805 71.5875 22.3536 73.1809 22.3536 74.9337Z" fill="#9D6F43"/>
<path d="M22.1951 73.181C22.1951 74.9337 17.2805 76.3678 11.0976 76.3678C4.91463 76.3678 0 74.9337 0 73.181C0 71.4282 4.91463 69.9941 11.0976 69.9941C17.2805 69.9941 22.1951 71.4282 22.1951 73.181Z" fill="#BB844C"/>
<path d="M96.8658 74.7741C96.8658 76.5269 91.9512 77.9609 85.7683 77.9609C79.5853 77.9609 74.6707 76.5269 74.6707 74.7741C74.6707 74.4554 74.3536 73.1807 74.6707 73.0214C75.939 71.5873 80.5366 71.5873 85.7683 71.5873C91 71.5873 95.439 71.2686 96.7073 72.7027C96.8658 72.862 96.8658 74.4554 96.8658 74.7741Z" fill="#9D6F43"/>
<path d="M85.6098 76.3678C91.7388 76.3678 96.7073 74.941 96.7073 73.181C96.7073 71.4209 91.7388 69.9941 85.6098 69.9941C79.4808 69.9941 74.5122 71.4209 74.5122 73.181C74.5122 74.941 79.4808 76.3678 85.6098 76.3678Z" fill="#BB844C"/>
<path d="M60.2439 46.571C63.8902 45.4556 83.8658 49.2798 80.8536 29.8402C80.5365 27.6095 84.5 25.6974 85.9268 29.0435C87.1951 32.071 87.3536 36.3732 86.5609 39.2413C82.1219 54.2194 62.939 48.3238 61.0365 48.0051C58.9756 48.0051 60.2439 46.571 60.2439 46.571Z" fill="#EFA96F"/>
<path d="M30.1219 28.8842C28.061 30.4777 25.3658 42.1095 22.8292 41.6315C20.7683 41.1535 19.1829 31.593 15.5366 28.2469C13.9512 26.8128 10.3049 28.7249 12.2073 31.7524C13.9512 34.3018 17.439 46.7304 22.5122 47.2084C29.8049 47.8458 31.8658 31.9117 31.8658 29.9996C32.0244 29.8403 30.1219 28.8842 30.1219 28.8842Z" fill="#EFA96F"/>
<path d="M88.3048 68.4009C78.6341 70.313 71.0243 71.9064 68.9633 79.8734C65.7926 92.4613 66.2682 99.9503 66.2682 99.9503L64.2072 100.428C64.2072 100.428 60.5609 79.8734 65.1585 69.6756C69.756 59.4778 86.0853 54.3789 86.0853 54.3789C86.0853 54.3789 87.3536 60.9119 88.3048 68.4009Z" fill="#E09563"/>
<path d="M70.0731 59.4778C70.0731 61.2306 59.2926 62.6646 46.1341 62.6646C32.9756 62.6646 22.1951 61.2306 22.1951 59.4778C22.1951 57.7251 32.9756 56.291 46.1341 56.291C59.2926 56.291 70.0731 57.7251 70.0731 59.4778Z" fill="#BB844C"/>
<path d="M18.2317 21.7137C17.1219 22.1917 15.2195 22.3511 14.5853 22.1917C14.4268 22.1917 14.2683 22.3511 14.2683 22.5104C13.9512 23.6258 13.1585 26.6533 13.1585 27.1313C12.5244 29.0434 9.51216 29.0434 9.67069 26.4939C9.67069 25.2192 9.82923 23.1478 9.82923 22.5104C9.19508 22.3511 7.76826 22.6698 7.13411 22.5104C5.54874 22.0324 4.59752 20.7577 4.28045 19.1643C3.6463 16.7742 3.01216 14.5434 2.69508 12.1533C2.06094 9.28515 3.17069 6.7357 5.54874 4.66427C7.45118 3.2302 9.51216 2.27416 11.8902 1.79614C13.6341 1.47746 15.0609 1.95548 16.4878 3.07086C19.5 5.46097 23.4634 10.4005 22.9878 15.6588C22.5122 19.3236 19.817 21.0764 18.2317 21.7137Z" fill="#FCC490"/>
<path d="M16.3292 13.9062C16.3292 14.2249 16.1707 14.3843 16.0122 14.3843C15.6951 14.3843 15.5366 14.2249 15.5366 14.0656C15.378 13.7469 15.5366 13.5876 15.8536 13.4282C16.0122 13.4282 16.3292 13.5876 16.3292 13.9062Z" fill="#55382F"/>
<path d="M21.4025 12.9505C21.4025 13.2692 21.244 13.4285 21.0854 13.5879C20.7684 13.5879 20.6098 13.4285 20.4513 13.2692C20.4513 12.9505 20.6098 12.7912 20.7684 12.6318C21.244 12.4725 21.4025 12.6318 21.4025 12.9505Z" fill="#55382F"/>
<path d="M20.7682 17.2524C19.4999 17.7305 17.756 18.0491 16.8048 17.7305C16.8048 18.0491 16.9633 18.3678 17.1219 18.6865C17.5975 19.1645 17.9146 19.3239 18.8658 19.1645C19.4999 19.0052 19.9755 19.0052 20.4511 18.3678C20.6097 18.0491 20.6097 17.5711 20.7682 17.2524Z" fill="#E08C94"/>
<path d="M19.4999 17.2525C18.8658 17.4118 18.3902 17.5711 17.756 17.5711C17.439 17.5711 16.8048 17.8898 16.8048 18.0492C16.8048 18.2085 16.9633 18.2085 16.9633 18.3678C17.2804 18.8459 17.756 19.0052 18.7072 18.8459C19.3414 18.6865 19.817 18.6865 20.1341 18.0492C20.2926 17.8898 20.2926 17.7305 20.2926 17.5711C20.6097 17.2525 19.9755 17.0931 19.4999 17.2525Z" fill="#C14C34"/>
<path d="M17.2805 17.7305C17.5976 18.2085 18.2317 18.2085 19.0244 18.0491C19.6586 17.8898 20.1342 17.8898 20.4513 17.2524C19.5 17.5711 17.9147 17.8898 17.2805 17.7305Z" fill="#FFFCDD"/>
<path d="M20.7682 17.2525C20.2926 16.7744 19.9755 17.0931 19.0243 17.2525C18.2316 17.4118 17.756 17.2525 16.8048 17.8898C17.439 18.0492 18.2316 17.8898 19.0243 17.7305C19.6585 17.5712 20.2926 17.4118 20.7682 17.2525Z" fill="#E08C94"/>
<path d="M19.8171 16.2965L18.5488 16.4559C18.2317 16.4559 17.9147 16.1372 17.9147 15.8185C17.9147 15.8185 18.0732 15.9778 18.3903 16.1372C18.8659 16.1372 19.5 16.1372 19.6586 15.8185C19.8171 15.4998 19.183 14.5438 18.5488 13.7471C18.7074 13.7471 19.3415 14.2251 19.5 14.5438L20.1342 15.4998C20.4513 15.8185 20.2927 16.2965 19.8171 16.2965Z" fill="#DDA078"/>
<path d="M15.8537 13.9064C15.8537 14.0658 15.8537 14.0658 15.6952 14.0658C15.5366 14.0658 15.5366 14.0658 15.5366 13.9064C15.3781 13.7471 15.5366 13.7471 15.6952 13.7471C15.6952 13.7471 15.8537 13.7471 15.8537 13.9064Z" fill="white"/>
<path d="M20.9268 12.9504C20.9268 13.1097 20.9268 13.1097 20.7683 13.1097C20.6097 13.1097 20.6097 13.1097 20.6097 12.9504C20.6097 12.791 20.6097 12.791 20.7683 12.791C20.7683 12.791 20.9268 12.791 20.9268 12.9504Z" fill="white"/>
<path d="M16.1707 16.6152C16.3292 17.4119 15.6951 18.2086 14.9024 18.368C14.1097 18.5273 13.317 17.8899 13.1585 17.0932C13 16.2965 13.6341 15.4998 14.4268 15.3405C15.2195 15.1812 16.0121 15.8185 16.1707 16.6152Z" fill="#FF9566"/>
<path d="M22.5122 7.85133C20.1342 2.11507 12.8415 -1.54977 6.02443 3.07111C-3.17069 9.44474 2.06102 16.9337 1.58541 17.2524C-0.317033 18.5272 0.792723 21.0766 2.37809 22.67C2.69516 22.9887 4.43906 22.192 4.43906 22.192C4.43906 22.192 3.48785 23.4667 3.80492 23.4667C3.96346 23.4667 4.12199 23.6261 4.28053 23.6261C5.07321 23.9447 6.18297 24.1041 6.97565 23.7854C7.6098 23.4667 8.40248 22.3513 8.40248 22.3513C8.40248 22.3513 7.92687 23.6261 8.24394 23.4667C8.56102 23.3074 9.03663 23.148 9.51224 22.9887C12.3659 21.3953 9.98785 17.7305 9.51224 14.8623C9.19516 12.9502 11.5732 11.1975 12.2074 11.8348C12.683 12.3129 13.3171 12.4722 14.1098 12.6316C14.2683 12.6316 15.3781 11.6755 15.5366 11.6755C15.6952 11.6755 14.7439 12.6316 14.9025 12.6316C15.3781 12.6316 15.6952 12.7909 16.6464 12.3129C17.9147 11.8348 19.183 10.5601 19.6586 10.0821C19.8171 9.92276 18.8659 11.5162 19.183 11.3568C21.2439 10.2414 22.8293 8.64804 22.5122 7.85133Z" fill="#2D1C1F"/>
<path d="M61.1951 46.4118C61.1951 46.4118 60.0854 44.4997 57.7074 44.9777C56.5976 45.2964 56.4391 44.4997 55.8049 44.659C55.4878 44.659 55.1708 45.2964 55.4878 45.6151C55.9634 46.0931 56.5976 46.4118 56.5976 46.4118C56.5976 46.4118 53.9025 46.2524 55.3293 48.0052C54.5366 48.3238 55.4878 49.9173 56.5976 49.7579C57.8659 49.7579 59.1342 49.2799 59.9269 48.9612C60.8781 48.4832 60.7195 48.0052 60.7195 48.0052L61.1951 46.4118Z" fill="#EFA96F"/>
<path d="M91 70.472C81.3292 72.3841 72.6097 75.4116 72.4512 86.2468C72.2926 94.0545 74.3536 102.978 74.3536 102.978L72.4512 103.615C72.4512 103.615 63.4146 83.2193 68.0121 73.0215C72.6097 62.8237 89.4146 58.9995 89.4146 58.9995C89.4146 58.9995 90.2073 63.1424 91 70.472Z" fill="#FCC490"/>
<path d="M64.3659 100.269C62.622 89.115 62.9391 82.582 62.9391 82.582L66.9025 82.7414L67.3781 87.3623C67.3781 87.3623 65.7927 96.604 66.2684 99.7908C66.4269 100.906 68.1708 103.934 68.1708 103.934C68.1708 103.934 58.9757 108.714 58.3415 107.758C57.8659 106.961 64.0488 102.181 64.0488 102.181C64.0488 102.181 64.3659 100.747 64.3659 100.269Z" fill="#AD4944"/>
<path d="M9.35367 73.8183C20.1342 74.615 26.3171 76.2084 27.7439 86.7249C28.5366 92.3018 28.6951 98.3567 28.8537 101.384C28.8537 102.5 29.6464 103.456 30.7561 103.774C30.7561 103.774 37.5732 82.582 31.8659 72.8622C26.7927 64.0985 12.5244 60.7523 9.82928 60.115C9.5122 60.115 9.35367 59.9556 9.03659 59.7963C7.7683 58.9996 3.80489 55.4941 2.85367 60.115C0.158545 73.4996 7.7683 73.8183 9.35367 73.8183Z" fill="#E7685D"/>
<path d="M35.9877 101.703L34.0853 101.225L32.1829 105.368C32.1829 105.368 41.378 109.989 42.0121 109.033C42.4877 108.236 36.3048 103.456 36.3048 103.456L35.9877 101.703Z" fill="#1F231E"/>
<path d="M30.9147 102.181L29.0122 102.34L28.5366 106.961C28.5366 106.961 38.683 108.236 39 107.121C39.3171 106.165 31.8659 103.775 31.8659 103.775L30.9147 102.181Z" fill="#5B5347"/>
<path d="M15.8537 28.5654C14.5854 25.8567 11.0976 25.8567 8.24395 26.972C5.8659 27.9281 3.80492 35.0984 3.48785 38.1259C3.32931 40.994 2.69517 50.0764 3.01224 58.3622C3.17078 64.0984 17.2805 62.983 17.4391 58.8402C17.9147 49.9171 19.8171 36.6918 15.8537 28.5654Z" fill="#5B5347"/>
<path d="M29.6464 29.3625C29.6464 29.3625 31.8659 26.335 34.0854 25.0603C34.7195 24.7416 35.5122 24.2636 36.1464 24.1043C36.4634 23.9449 36.4634 24.5823 35.9878 25.0603C35.5122 25.6977 34.4025 26.1757 34.4025 26.1757C34.4025 26.1757 34.8781 26.1757 36.7805 25.6977C38.8415 25.2196 40.7439 22.3515 40.2683 24.901C39.7927 27.7691 38.5244 28.8845 37.4147 29.2032C34.4025 29.8405 31.0732 29.8405 31.0732 29.8405L29.6464 29.3625Z" fill="#EFA96F"/>
<path d="M74.1951 63.6208C74.1951 63.6208 73.878 65.0548 72.1341 66.0109C71.5 66.3295 69.5975 67.6043 68.9634 67.923C68.6463 68.0823 65 69.9944 65.4756 67.4449C65.9512 64.5768 66.9024 63.4614 68.0122 63.1427C71.1829 62.346 73.2439 62.0273 73.2439 62.0273L74.1951 63.6208Z" fill="#FCC490"/>
<path d="M92.5854 26.0161C91.7927 24.7414 91.4756 22.3513 94.1707 21.2359C95.9146 20.4392 97.5 18.8458 98.4512 17.2524C99.561 18.0491 99.7195 15.4996 100.037 13.9062C100.195 13.4282 100.195 12.9502 100.195 12.4722C100.195 12.3128 100.195 12.1535 100.195 11.8348C100.037 6.41723 95.5976 2.7524 90.3659 2.91174C84.5 2.91174 81.6463 6.89525 81.3293 11.6755C81.1707 14.2249 80.6951 17.0931 82.9146 16.7744C83.8659 18.2084 84.8171 19.9612 86.878 21.2359C88.4634 22.192 88.4634 24.7414 87.1951 26.0161C87.1951 26.0161 87.0366 28.7249 89.5732 28.7249C92.4268 28.7249 92.7439 26.4942 92.5854 26.0161Z" fill="#FCC490"/>
<path d="M92.9024 17.2524C93.2195 17.5711 91.9512 18.8458 90.3658 18.8458C88.6219 18.8458 87.6707 17.4118 87.9878 17.2524C88.1463 17.0931 88.7805 17.4118 90.3658 17.5711C91.7927 17.5711 92.5853 17.0931 92.9024 17.2524Z" fill="#E072AC"/>
<path d="M92.1097 17.2524C91.7927 17.5711 91.3171 18.0491 90.3658 18.0491C89.4146 18.0491 88.7805 17.5711 88.6219 17.2524C89.7317 17.4118 91 17.4118 92.1097 17.2524Z" fill="#F5E8D0"/>
<path d="M87.8293 17.2523C88.1464 16.9336 89.4147 16.9336 90.2074 16.9336C91.3171 16.9336 92.5854 16.9336 92.744 17.4116C92.1098 17.2523 91.1586 17.571 90.2074 17.4116C89.4147 17.4116 88.4635 17.0929 87.8293 17.2523Z" fill="#E072AC"/>
<path d="M92.9025 13.5876C92.9025 13.9062 93.2195 14.2249 93.5366 14.2249C93.8537 14.2249 94.1708 13.9062 94.1708 13.5876C94.1708 13.2689 93.8537 12.9502 93.5366 12.9502C93.2195 12.9502 92.9025 13.2689 92.9025 13.5876Z" fill="#55382F"/>
<path d="M86.7195 13.2687C86.7195 13.5874 87.0365 13.9061 87.3536 13.9061C87.6707 13.9061 87.9878 13.5874 87.9878 13.2687C87.9878 12.95 87.6707 12.6313 87.3536 12.6313C87.0365 12.6313 86.7195 12.95 86.7195 13.2687Z" fill="#55382F"/>
<path d="M93.6951 13.4285C93.6951 13.5879 93.8536 13.7472 93.8536 13.7472C94.0121 13.7472 94.1707 13.5879 94.1707 13.4285C94.1707 13.2692 94.0121 13.1099 94.0121 13.1099C93.6951 13.1099 93.6951 13.2692 93.6951 13.4285Z" fill="white"/>
<path d="M87.3536 13.2689C87.3536 13.4282 87.5122 13.5876 87.6707 13.5876C87.8292 13.5876 87.9878 13.4282 87.9878 13.2689C87.9878 13.1095 87.8292 12.9502 87.6707 12.9502C87.5122 12.9502 87.3536 13.1095 87.3536 13.2689Z" fill="white"/>
<path d="M90.9999 16.137H89.7316C89.4146 16.137 89.0975 15.659 89.256 15.3403C89.256 15.3403 89.4146 15.659 89.7316 15.659C90.2073 15.8184 90.5243 15.9777 90.9999 15.8184C91.317 15.659 91.4756 15.4997 91.4756 15.4997C91.6341 15.8184 91.317 16.137 90.9999 16.137Z" fill="#DDA078"/>
<path d="M93.061 9.6042C91 8.0108 88.6219 6.25805 87.3536 7.05475C86.0853 8.0108 84.817 14.0657 82.9146 14.3844C82.9146 14.3844 82.9146 13.5877 82.2805 13.4284C81.9634 13.269 81.3292 13.4284 81.0122 14.2251C80.8536 15.3405 81.3292 16.6152 82.7561 16.4559C83.5488 18.0493 84.6585 19.6427 86.878 21.3954C87.8292 22.1921 87.9878 23.7855 87.5122 24.7416C84.8171 26.335 80.8536 39.2416 79.7439 37.8075C74.9878 32.0712 79.9024 7.69212 83.5488 4.66464C85.7683 2.9119 89.5731 2.59322 91.4756 2.75256C93.378 2.9119 96.3902 3.86794 98.1341 6.41739C101.939 11.6756 106.537 41.4723 101.622 44.0218C100.829 44.3405 97.9756 47.0493 96.3902 43.5438C93.8536 37.9668 92.5853 25.2196 91.9512 24.5822C91.6341 23.4668 91.9512 22.6701 93.061 21.7141C94.0122 20.7581 95.9146 20.28 97.8171 16.9339C98.9268 17.5712 99.561 15.8185 99.4024 15.0218C99.2439 13.5877 97.6585 13.4284 97.6585 14.8624C97.817 14.8624 96.0732 11.835 93.061 9.6042Z" fill="#E37626"/>
<path d="M96.3903 16.4556C96.5488 17.2523 95.9147 18.049 95.122 18.2083C94.3293 18.3676 93.5366 17.7303 93.3781 16.9336C93.2196 16.1369 93.8537 15.1808 94.6464 15.1808C95.4391 15.0215 96.2317 15.6589 96.3903 16.4556Z" fill="#FF9566"/>
<path d="M87.3537 16.1372C87.5122 16.9339 86.8781 17.8899 86.0854 17.8899C85.2927 18.0493 84.5 17.4119 84.3415 16.6152C84.1829 15.8185 84.8171 15.0218 85.6098 14.8625C86.4025 14.7031 87.1951 15.3405 87.3537 16.1372Z" fill="#FF9566"/>
<path d="M33.6098 57.0878C27.744 55.1757 16.6464 43.7032 12.5244 34.1428C11.0976 30.6373 9.51224 27.6098 7.76834 28.8845C6.18297 29.9999 7.13419 32.39 8.08541 34.9395C16.3293 56.2911 31.2318 59.956 33.6098 58.9999C35.0366 58.2032 33.6098 57.0878 33.6098 57.0878Z" fill="#FCC490"/>
<path d="M83.5488 27.2908C83.8659 26.0161 85.7683 25.3787 87.3537 25.0601C87.8293 25.0601 86.4025 27.4502 88.9391 27.9282C92.2683 28.4062 91.4757 25.5381 92.1098 25.5381C93.2196 25.6974 92.9025 25.5381 93.6952 25.8568C96.0732 26.8128 97.5 30.7963 97.6586 33.8238C98.1342 38.4447 102.732 62.1864 95.4391 69.0381C93.6952 70.7908 90.3659 72.0656 85.9269 72.7029C81.0122 72.2249 74.1952 62.3458 72.9269 61.8678C84.183 57.0875 79.1098 43.3842 83.5488 27.2908Z" fill="#2C9185"/>
<path d="M72.2927 62.1865C80.5366 59.6371 88.6219 45.2964 91 34.9393C91.7927 31.1151 93.061 27.769 95.2805 28.5657C97.1829 29.203 96.8658 31.9118 96.2317 34.4613C91.4756 57.0876 75.6219 64.0986 72.7683 63.7799C71.0244 63.7799 72.2927 62.1865 72.2927 62.1865Z" fill="#FCC490"/>
<path d="M41.8536 59.9558H39.7927C38.6829 59.9558 37.7317 58.9998 37.7317 57.8844C37.7317 56.769 38.6829 55.813 39.7927 55.813H41.8536C42.9634 55.813 43.9146 56.769 43.9146 57.8844C43.9146 58.9998 42.9634 59.9558 41.8536 59.9558Z" fill="#49E2C8"/>
<path d="M42.1707 56.9284H39.3171C39.1585 56.9284 39 56.769 39 56.6097C39 56.4504 39.1585 56.291 39.3171 56.291H42.1707C42.3293 56.291 42.4878 56.4504 42.4878 56.6097C42.4878 56.769 42.3293 56.9284 42.1707 56.9284Z" fill="#1F231E"/>
<path d="M38.2073 56.6099H37.5732C36.7805 56.6099 36.1464 57.2472 36.1464 58.0439C36.1464 58.8406 36.7805 59.478 37.5732 59.478H38.2073C39 59.478 39.6342 58.8406 39.6342 58.0439C39.7927 57.2472 39 56.6099 38.2073 56.6099ZM38.2073 59H37.7317C37.2561 59 36.7805 58.5219 36.7805 58.0439C36.7805 57.5659 37.2561 57.0879 37.7317 57.0879H38.2073C38.6829 57.0879 39.1586 57.5659 39.1586 58.0439C39.1586 58.5219 38.6829 59 38.2073 59Z" fill="#49E2C8"/>
<path d="M50.7318 49.4392H52.7927C53.9025 49.4392 54.8537 48.4832 54.8537 47.3678C54.8537 46.2524 53.9025 45.2964 52.7927 45.2964H50.7318C49.622 45.2964 48.6708 46.2524 48.6708 47.3678C48.6708 48.4832 49.622 49.4392 50.7318 49.4392Z" fill="#49E2C8"/>
<path d="M50.4146 46.4118H53.2683C53.4268 46.4118 53.5853 46.2524 53.5853 46.0931C53.5853 45.9338 53.4268 45.7744 53.2683 45.7744H50.4146C50.2561 45.7744 50.0975 45.9338 50.0975 46.0931C50.0975 46.2524 50.2561 46.4118 50.4146 46.4118Z" fill="#1F231E"/>
<path d="M54.2196 46.0933H54.8537C55.6464 46.0933 56.2805 46.7306 56.2805 47.5273C56.2805 48.324 55.6464 48.9614 54.8537 48.9614H54.2196C53.4269 48.9614 52.7927 48.324 52.7927 47.5273C52.7927 46.7306 53.4269 46.0933 54.2196 46.0933ZM54.3781 48.4834H54.8537C55.3293 48.4834 55.8049 48.0054 55.8049 47.5273C55.8049 47.0493 55.3293 46.5713 54.8537 46.5713H54.3781C53.9025 46.5713 53.4269 47.0493 53.4269 47.5273C53.4269 48.0054 53.7439 48.4834 54.3781 48.4834Z" fill="#49E2C8"/>
<path d="M32.8171 56.9282C32.8171 56.9282 34.0854 55.8128 35.9878 55.9721C36.4634 55.9721 37.0976 56.1315 37.5732 56.2908C37.7317 56.2908 37.7317 56.9282 37.4147 57.0875C36.7805 57.2469 36.1464 57.2468 36.1464 57.2468C36.1464 57.2468 37.5732 57.4062 37.5732 57.8842C37.5732 59.3183 37.5732 59.9556 36.622 59.9556C34.8781 60.115 32.6586 58.9996 32.6586 58.9996L32.8171 56.9282Z" fill="#FCC490"/>
<path d="M55.4878 46.4116H56.439C56.7561 46.4116 57.0732 46.7303 57.0732 47.049C57.0732 47.3677 56.7561 47.6863 56.439 47.6863H55.4878C55.1707 47.6863 54.8536 47.3677 54.8536 47.049C54.8536 46.7303 55.1707 46.4116 55.4878 46.4116Z" fill="#EFA96F"/>
<path d="M72.4512 102.978C69.9146 97.8786 67.378 86.7248 67.378 86.7248L72.2926 86.5654C72.2926 86.5654 72.6097 91.505 74.3536 103.137C74.5122 104.252 74.8292 107.758 74.8292 107.758C74.8292 107.758 64.5243 109.032 64.3658 107.917C64.0487 106.961 71.4999 104.571 71.4999 104.571C71.4999 104.571 72.6097 103.296 72.4512 102.978Z" fill="#AD4944"/>
</svg>
