<svg width="566" height="414" viewBox="0 0 566 414" fill="none" xmlns="http://www.w3.org/2000/svg">
<g style="mix-blend-mode:multiply" opacity="0.3">
<path d="M556.558 397.521C551.999 435.555 517.414 462.588 479.371 457.873C465.066 456.144 452.333 450.171 442.272 441.37C418.691 553.744 312.58 631.228 196.565 617.083C73.9469 602.152 -13.1431 490.721 1.63394 368.287C16.5681 245.697 128.025 158.627 250.485 173.4C285.541 177.644 317.61 189.746 345.278 207.82C369.487 170.571 413.504 148.097 460.664 153.912C526.218 161.927 572.907 221.494 564.889 287.032C562.217 308.878 553.728 328.681 541.309 345.027C552.942 359.172 558.916 377.875 556.558 397.521Z" fill="#D9ECFF"/>
</g>
<circle cx="343" cy="36" r="36" fill="#F4F9FF"/>
</svg>
