<svg width="90" height="170" viewBox="0 0 90 170" fill="none" xmlns="http://www.w3.org/2000/svg">
<path d="M31.921 94.8297L27.4679 167.795L29.2241 168.11L42.3953 96.657C42.458 96.594 37.6286 90.4821 31.921 94.8297Z" fill="#FFC1B6"/>
<path d="M27.6561 167.732C27.6561 167.732 24.9591 167.102 23.3911 168.992L29.0987 170L29.3495 168.047L27.6561 167.732Z" fill="#2D387A"/>
<path d="M60.4588 94.8929L66.229 167.795L64.4729 168.11L49.9845 96.9092C49.9845 96.9092 54.6885 90.6712 60.4588 94.8929Z" fill="#FFC1B6"/>
<path d="M66.1036 167.732C66.1036 167.732 68.8006 167.039 70.4313 168.929L64.7238 170L64.4729 168.047L66.1036 167.732Z" fill="#2D387A"/>
<path d="M43.3362 26.6534C42.5208 29.7408 39.6357 31.9462 36.6251 33.0173C33.6146 34.1515 30.3531 34.4665 27.3425 35.4747C18.8753 38.3101 12.2897 46.9425 13.1678 55.8268C13.9831 64.4591 21.6977 71.5792 30.2277 72.8394C38.7576 74.0996 47.6012 70.13 53.246 63.577C58.9535 57.087 61.6505 48.3287 62.0895 39.6963C62.2777 35.7267 61.9641 31.6311 60.2707 28.1026C58.5772 24.511 55.253 21.5496 51.3017 21.1085C47.413 20.6674 43.148 23.3769 42.5836 27.3465L43.3362 26.6534Z" fill="#442D21"/>
<path d="M59.0789 56.8979C59.1416 57.2129 67.0444 53.9364 67.4834 53.6844C74.5081 50.2188 80.5292 43.9179 82.9126 36.3567C85.3587 28.6695 83.728 18.0839 78.4595 11.783C77.895 11.0898 76.6406 9.76664 75.8879 10.7748C75.3234 11.5939 76.4524 14.2403 76.7033 14.9964C79.2121 22.4946 86.2368 42.4686 57.95 52.9282C57.95 52.9282 59.0789 56.8979 59.0789 56.8979Z" fill="#FFC1B6"/>
<path d="M41.0155 56.6457C41.0155 56.9608 32.5482 56.4567 32.0465 56.3937C24.2692 55.3855 16.5546 51.4159 11.8506 45.0519C7.08383 38.625 5.1395 28.0393 8.08735 20.3522C8.40095 19.47 9.15359 17.8948 10.2198 18.5879C11.0352 19.155 10.7843 22.0534 10.7843 22.8726C10.847 30.8118 10.6589 51.983 40.8273 52.5501C40.8273 52.4871 41.0155 56.6457 41.0155 56.6457Z" fill="#FFC1B6"/>
<path d="M45.9077 50.8491C45.9077 50.8491 14.2339 50.282 12.8541 27.7246C12.8541 27.7246 2.88158 25.8973 0.937256 33.0804C0.937256 33.0804 13.105 64.9633 37.0641 62.821C37.0641 62.821 39.0712 69.5 33.2382 78.3213C27.4052 87.2057 2.0035 109.133 5.70399 132.888C5.70399 132.888 21.7604 152.106 39.322 146.939C56.8837 141.835 65.1001 130.178 82.0345 134.463C82.0345 134.463 79.2748 101.887 64.4728 83.0471C64.4728 83.0471 57.6363 76.431 60.3333 60.1746C60.3333 60.1746 88.432 51.6053 85.6723 22.6838C85.6723 22.6838 79.463 17.076 74.2572 21.4236C74.2572 21.4236 76.3897 44.1701 53.0578 50.093L45.9077 50.8491Z" fill="#2D387A"/>
<path d="M41.6426 34.4034C41.5799 39.3181 44.4023 43.2877 47.9774 43.3507C51.5524 43.4137 54.5003 39.5071 54.563 34.5924C54.6257 29.6776 51.8033 25.708 48.2282 25.645C44.6532 25.645 41.7053 29.5516 41.6426 34.4034Z" fill="#FFC1B6"/>
<path d="M51.2389 42.4687C51.2389 42.4687 50.6745 46.6903 52.0543 50.6599C52.0543 50.6599 48.6674 53.4954 45.9077 50.849C45.9077 50.849 47.2248 46.8793 46.0332 41.9646C46.0332 41.9646 50.4236 38.247 51.2389 42.4687Z" fill="#FFC1B6"/>
<path d="M56.0055 21.3604L57.1345 25.0149C56.4445 27.3463 52.9949 29.8036 49.2317 30.7488C45.6567 31.6309 41.768 31.0008 40.3254 29.3626L39.3846 25.771L47.9146 25.9601L56.0055 21.3604Z" fill="#2D387A"/>
<path d="M34.1162 25.4562L45.9703 17.832L59.9569 19.0292L48.1655 26.6534L34.1162 25.4562Z" fill="#2D387A"/>
<path d="M40.9528 33.3325L41.3291 37.3021C41.3291 37.3651 41.58 37.4281 41.6427 37.2391C41.8308 37.3651 41.9563 37.2391 42.019 37.1131C42.0817 37.1761 42.2699 37.2391 42.3326 37.0501C42.458 37.1761 42.6462 36.9871 42.6462 36.9241L41.1409 33.3325C41.0155 33.2065 40.9528 33.2695 40.9528 33.3325Z" fill="#DE5B61"/>
<path d="M46.8484 21.1086C46.9112 21.0456 47.0366 21.1086 47.0366 21.1716C47.0993 21.2346 47.0366 21.3607 46.9739 21.3607L39.2593 25.9604L41.1409 33.2695C41.1409 33.3325 41.1409 33.4585 41.0155 33.4585C40.9527 33.4585 40.8273 33.4585 40.8273 33.3325L39.0084 25.9604C39.0084 25.8974 39.0084 25.8343 39.0711 25.7713L46.8484 21.1086Z" fill="white"/>
<path d="M41.1409 33.7737C41.4545 33.7107 41.6426 33.3326 41.5799 33.0176C41.5172 32.7025 41.1409 32.5135 40.8273 32.5765C40.5137 32.6395 40.3255 33.0176 40.3882 33.3326C40.451 33.6477 40.8273 33.8997 41.1409 33.7737Z" fill="white"/>
<path d="M41.3917 32.9542C41.4545 33.2062 41.329 33.4583 41.1408 33.5843C41.0781 33.6473 41.0154 33.6473 40.9527 33.6473C40.7645 33.7103 40.5764 33.6473 40.4509 33.5213C40.5764 33.7103 40.7645 33.8363 41.0154 33.8363C41.0781 33.8363 41.0781 33.8363 41.1408 33.8363C41.2036 33.8363 41.2036 33.8363 41.2663 33.7733C41.5172 33.6473 41.6426 33.3953 41.5799 33.0802C41.5172 32.8912 41.4544 32.7652 41.2663 32.7021C41.329 32.7652 41.3917 32.8282 41.3917 32.9542Z" fill="#ECEFF0"/>
<path d="M90 10.3339C90 10.1449 89.9373 10.0189 89.7491 9.95588C83.1635 7.05743 76.6406 3.78093 70.494 0.0633608C70.3686 0.000351166 70.1804 0.000351166 70.0549 0.12637C69.4905 0.693457 68.9887 1.38656 68.6124 2.07967C68.5497 2.2687 68.6124 2.52074 68.8005 2.58375L88.7456 12.8543C88.9337 12.9173 89.1846 12.8543 89.2473 12.6653C89.5609 12.0352 89.8745 11.2791 90 10.3339Z" fill="#F8E9B7"/>
<path d="M89.5609 12.7912C89.6236 12.6021 89.5609 12.4131 89.3727 12.2871L80.7173 7.8764C80.5292 7.81339 80.2783 7.8764 80.2156 8.06543L77.5186 6.67922C77.5813 6.49019 77.5186 6.23815 77.3304 6.17514L68.6751 1.76447C68.4869 1.70146 68.2987 1.76447 68.1733 1.89048C68.1106 1.95349 67.1071 3.71776 67.1071 5.79708C67.1071 5.9231 67.1698 6.04912 67.2952 6.11213C69.9922 7.2463 72.6264 8.5065 75.198 9.76669L76.766 10.5228L78.9612 11.657C81.5327 12.9802 84.1042 14.4294 86.5503 15.9416C86.7385 16.0677 86.9266 16.0046 87.0521 15.8786C88.8082 14.6184 89.5609 12.8542 89.5609 12.7912Z" fill="#DABC94"/>
<path d="M79.6511 11.6569L79.8393 8.94748C79.8393 8.75845 79.7139 8.56942 79.5257 8.56942C79.3375 8.56942 79.1494 8.69544 79.1494 8.88447L78.3967 8.75845V8.69544C78.3967 8.50641 78.2713 8.31738 78.0831 8.31738C77.895 8.31738 77.7068 8.4434 77.7068 8.63243L77.4559 11.4679C77.4559 11.5939 77.5187 11.7829 77.6441 11.8459C77.7695 11.9089 77.9577 11.9089 78.0831 11.7829L78.5849 11.3418L79.0239 11.8459C79.1494 11.9719 79.2748 12.035 79.4003 11.9719C79.5257 11.9089 79.6511 11.7829 79.6511 11.6569Z" fill="#C10123"/>
<path d="M78.6476 8.63257C78.5221 8.50655 78.2713 8.44354 78.1458 8.56956L77.6441 8.00248C77.7695 7.87646 77.7695 7.62442 77.6441 7.4984C77.5186 7.37238 77.2677 7.30937 77.1423 7.43539L75.0725 9.19966C74.9471 9.32568 74.8844 9.4517 74.9471 9.57772C75.0098 9.70374 75.1353 9.82976 75.2607 9.82976L75.9506 9.89277L75.8879 10.5859C75.8879 10.7119 75.9506 10.9009 76.0761 10.9639C76.2015 11.0269 76.3897 11.0269 76.5151 10.9009L78.6476 9.07364C78.773 9.01063 78.8357 8.75859 78.6476 8.63257Z" fill="#C10123"/>
<path d="M79.9647 5.293C81.0937 5.86009 81.5327 7.2463 80.9682 8.31747C80.4037 9.45164 79.0239 9.89271 77.9576 9.32562C76.8287 8.75853 76.3896 7.37232 76.9541 6.30116C77.5186 5.22999 78.8357 4.78893 79.9647 5.293Z" fill="#DD5023"/>
<path d="M79.5884 5.98595C80.341 6.36401 80.5919 7.24614 80.2156 8.00226C79.8393 8.75837 78.9612 9.01041 78.2085 8.63236C77.4559 8.2543 77.205 7.37216 77.5813 6.61605C77.9577 5.92294 78.8985 5.60789 79.5884 5.98595Z" fill="#C10123"/>
<path d="M52.1169 36.6089C52.1169 38.9402 50.2353 40.8305 47.9147 40.8305C45.594 40.8305 43.7124 38.9402 43.7124 36.6089H52.1169Z" fill="white"/>
</svg>
