<svg width="1360" height="598" viewBox="0 0 1360 598" fill="none" xmlns="http://www.w3.org/2000/svg">
<g clip-path="url(#clip0)">
<g filter="url(#filter0_d)">
<rect width="1360" height="600" fill="#258C7B"/>
</g>
<g style="mix-blend-mode:multiply" opacity="0.4">
<path d="M725.653 259.962C634.966 282.916 541.969 298.482 449.544 315.2C407.21 322.819 365.245 327.598 327.627 345.337C292.649 362.06 266.334 388.617 229.957 404.003C201.407 415.734 169.812 420.497 138.587 422.419C6.57235 430.56 -124.391 392.743 -212.561 321.243C-293.441 255.762 -336.948 162.985 -332.481 68.2368C-329.951 10.9158 -304.641 -46.126 -305.324 -103.582C-306.073 -164.122 -342.737 -211.512 -369.989 -265.272C-388.791 -302.667 -400.41 -342.693 -404.961 -383.474C-407.303 -406.949 -407.442 -431.684 -396.111 -454.435C-365.933 -516.234 -269.623 -541.583 -187.142 -547.518C-84.9298 -554.88 19.3554 -545.844 113.991 -521.427C188.718 -502.056 264.763 -468.648 346.895 -468.96C439.787 -469.347 512.316 -513.715 590.51 -548.093C767.185 -625.167 993.858 -575.46 1094.47 -458.489C1218.41 -313.779 1246.46 -50.9473 1077.11 95.8879C985.017 175.684 858.172 226.06 729.508 259.072C728.337 259.248 726.823 259.786 725.653 259.962Z" fill="#258C7B"/>
</g>
<g style="mix-blend-mode:multiply" opacity="0.4">
<path d="M698.752 449.977C654.146 482.429 606.064 509.943 558.644 538.19C536.912 551.101 514.556 561.893 498.465 581.296C483.57 599.502 476.466 623.303 460.388 640.788C447.667 654.261 431.177 663.228 414.062 670.078C341.711 699.046 256.466 694.604 185.562 658.328C120.553 625.128 -104.923 650.578 -130.203 581.296C-145.595 539.411 -17.75 411.42 -35 370C-53.1927 326.361 -44.5031 295.916 -75.7111 261.814C-97.3313 238.066 -115.657 211.16 -130.203 182.472C-138.419 165.909 -145.757 148.05 -146.02 129.62C-147.073 79.6645 -99.9865 44.498 -55.0312 25.7854C0.676092 2.59102 62.37 -9.11026 123.115 -8.00482C171.108 -7.06553 223.966 3.79124 270.374 -10.7951C322.852 -27.3168 341.27 -80.7599 375.449 -119.286C452.854 -205.901 605.398 -200.913 696.69 -133.937C809.332 -50.9851 902.356 134.133 849.574 269.903C820.856 343.696 763.828 402.295 700.673 448.659C700.062 448.991 699.362 449.645 698.752 449.977Z" fill="#258C7B"/>
</g>
</g>
<defs>
<filter id="filter0_d" x="-40" y="-36" width="1440" height="680" filterUnits="userSpaceOnUse" color-interpolation-filters="sRGB">
<feFlood flood-opacity="0" result="BackgroundImageFix"/>
<feColorMatrix in="SourceAlpha" type="matrix" values="0 0 0 0 0 0 0 0 0 0 0 0 0 0 0 0 0 0 127 0"/>
<feOffset dy="4"/>
<feGaussianBlur stdDeviation="20"/>
<feColorMatrix type="matrix" values="0 0 0 0 0.0941176 0 0 0 0 0.176471 0 0 0 0 0.301961 0 0 0 0.1 0"/>
<feBlend mode="normal" in2="BackgroundImageFix" result="effect1_dropShadow"/>
<feBlend mode="normal" in="SourceGraphic" in2="effect1_dropShadow" result="shape"/>
</filter>
<clipPath id="clip0">
<rect width="1360" height="598" fill="white"/>
</clipPath>
</defs>
</svg>
