<svg width="875" height="361" viewBox="0 0 875 361" fill="none" xmlns="http://www.w3.org/2000/svg">
<path d="M393.718 275.654C388.784 286.788 376.661 293.412 365.384 299.19C322.953 320.893 279.817 342.878 235.272 360.213H132.79C138.71 327.94 134.622 293.835 113.196 269.454C96.5616 250.569 72.0336 239.717 50.8887 225.201C29.7438 210.826 10.5724 189.123 13.3917 164.319C16.0701 140.079 38.4837 121.477 60.8973 108.793C83.4518 96.1091 101.918 68.7686 117.425 48.7565C140.261 19.4429 190.727 23.8118 211.167 36.2137C229.07 47.0653 254.443 52.7025 268.822 45.2332C283.201 37.7639 297.861 27.8988 313.931 29.1671C332.821 30.7174 346.212 47.77 348.891 65.3863C351.569 83.0026 345.93 100.76 340.433 118.094C334.935 135.429 329.578 153.327 332.68 170.802C336.063 189.969 349.173 206.035 363.974 219.423C372.573 227.174 381.877 234.362 388.502 243.663C394.987 252.824 398.37 264.944 393.718 275.654Z" fill="#E0E2FF"/>
<path d="M206.092 166.715H184.383L184.665 168.265H176.771L169.582 221.114C163.239 229.429 161.265 273.963 161.265 273.963H168.313L193.123 192.364L211.872 212.94C210.603 223.51 206.233 257.897 206.233 257.897H213.704L226.109 213.645L206.092 166.715Z" fill="#422685"/>
<path d="M207.643 144.448L220.471 143.602C220.048 137.683 219.343 140.643 219.343 140.643L209.616 131.764C207.502 129.227 206.515 128.523 205.105 128.523C196.929 128.523 180.013 126.268 172.542 131.764C168.172 135.146 161.406 155.017 161.406 155.017L174.657 159.95L175.221 158.118C174.939 167.56 174.798 183.063 174.798 183.063C195.661 184.331 211.872 179.539 211.872 179.539C209.757 171.506 207.643 157.695 207.643 144.448Z" fill="url(#paint0_linear)"/>
<path d="M312.381 118.517L241.898 100.76L251.342 121.054L129.689 177.99L149.847 220.832L271.5 163.756L280.945 184.05L312.381 118.517Z" fill="url(#paint1_linear)"/>
<path d="M161.265 273.963L158.587 282.56H179.591C179.591 282.56 173.952 277.204 167.89 276.218L168.313 273.963H161.265Z" fill="#242240"/>
<path d="M206.233 257.474L204.542 265.366H225.545C225.545 265.366 219.907 261.279 213.845 260.434V257.192L206.233 257.474Z" fill="#242240"/>
<path d="M159.996 165.87L163.802 155.723L170.428 158.259L167.186 166.715L159.996 165.87Z" fill="#EAAAAA"/>
<path d="M201.299 104.424L203.273 113.162C203.555 114.148 202.85 115.135 201.863 115.275H201.44C201.44 115.275 201.44 119.644 200.313 120.913C199.185 122.181 196.788 122.322 196.366 123.59C195.943 124.859 195.52 127.818 195.52 127.818L186.921 128.382C186.921 128.382 188.19 121.195 187.485 120.208C186.78 119.222 181.564 114.289 183.82 109.92L198.057 104.706L201.299 104.424Z" fill="#EAAAAA"/>
<path d="M206.656 101.324C204.823 96.3911 195.943 98.646 191.855 99.9144C191.291 99.9144 190.586 100.196 189.881 100.619C184.947 103.579 183.82 110.061 183.82 110.061C181.564 114.571 186.639 119.363 187.485 120.349C187.767 120.631 187.767 121.477 187.767 122.463C191.432 121.477 191.714 117.813 191.714 117.813C190.727 117.531 189.599 116.967 189.599 114.853C189.458 112.739 190.727 112.457 191.714 112.598C192.7 112.739 192.982 116.685 193.687 116.544C194.392 116.403 194.956 111.612 194.956 111.612C196.929 110.343 196.788 107.384 196.788 107.384L198.339 104.847C207.22 107.102 206.656 101.324 206.656 101.324Z" fill="#242240"/>
<path d="M159.855 166.716C159.996 169.816 165.353 171.648 187.908 165.448C187.908 165.448 192.418 166.575 194.674 165.588C197.07 164.602 200.172 161.361 200.172 161.361L199.608 160.656C199.608 160.656 193.546 161.642 192.7 160.938C191.996 160.233 195.52 157.978 195.238 157.555C194.956 157.133 189.881 158.824 187.626 160.938C187.626 160.938 173.247 161.502 167.749 161.924C162.111 162.347 159.855 163.897 159.855 166.716Z" fill="#EAAAAA"/>
<path d="M187.062 128.382C187.062 128.382 188.19 131.623 191.855 131.342C195.52 131.06 195.661 127.818 195.661 127.818H187.203L187.062 128.382Z" fill="#EAAAAA"/>
<path d="M177.899 141.77L175.784 158.681L174.657 159.104L177.899 141.77Z" fill="#E0E2FF"/>
<path d="M224.559 133.597C224.559 133.597 227.801 127.678 232.312 127.678C236.823 127.678 235.695 130.637 235.695 130.637C235.695 130.637 232.876 132.188 230.761 132.328C228.647 132.61 224.559 133.597 224.559 133.597Z" fill="#EAAAAA"/>
<path d="M255.994 204.625C256.699 204.625 256.699 203.498 255.994 203.498C255.289 203.639 255.289 204.625 255.994 204.625Z" fill="#7B6FE5"/>
<path d="M112.914 233.516C113.619 233.516 113.619 232.389 112.914 232.389C112.209 232.53 112.209 233.516 112.914 233.516Z" fill="#7B6FE5"/>
<path d="M392.731 141.207C393.436 141.207 393.436 140.079 392.731 140.079C392.026 140.22 392.026 141.207 392.731 141.207Z" fill="#7B6FE5"/>
<path fill-rule="evenodd" clip-rule="evenodd" d="M874.285 172.604V0.236328H789.246V23.4996H751.185V39.0019H712.701V57.7457H674.218V73.6708H634.747V90.1597H596.264V107.494H555.806V122.151H521.129V141.317H480.672V157.243H441.201V175.141H403.563V175.184H385.683V198.448H347.622V213.95H309.138V232.694H270.655V248.619H231.184V265.108H192.7V282.442H152.243V297.099H117.566V316.265H77.1084V332.191H37.6379V350.089H0V360.236H861.598C868.646 360.236 874.285 354.599 874.285 347.552V175.184H874.026C874.196 174.352 874.285 173.489 874.285 172.604Z" fill="url(#paint2_linear)"/>
<defs>
<linearGradient id="paint0_linear" x1="161.324" y1="155.447" x2="220.465" y2="155.447" gradientUnits="userSpaceOnUse">
<stop stop-color="#7B6FE5"/>
<stop offset="0.2416" stop-color="#7468DC"/>
<stop offset="0.6308" stop-color="#6156C4"/>
<stop offset="1" stop-color="#4B41A8"/>
</linearGradient>
<linearGradient id="paint1_linear" x1="130.243" y1="162.899" x2="310.627" y2="168.97" gradientUnits="userSpaceOnUse">
<stop stop-color="#FF8885"/>
<stop offset="0.3285" stop-color="#FF716E"/>
<stop offset="0.7428" stop-color="#FF5A56"/>
<stop offset="1" stop-color="#FF524D"/>
</linearGradient>
<linearGradient id="paint2_linear" x1="252.413" y1="238.449" x2="662.569" y2="273.92" gradientUnits="userSpaceOnUse">
<stop stop-color="#7B6FE5"/>
<stop offset="0.2416" stop-color="#7468DC"/>
<stop offset="0.6308" stop-color="#6156C4"/>
<stop offset="1" stop-color="#4B41A8"/>
</linearGradient>
</defs>
</svg>
