<svg viewBox="0 0 93 37" fill="none">
<path d="M92.0456 34.7241C91.762 33.8734 91.5848 33.0228 91.5494 32.1367C91.4785 31.1797 91.443 30.2228 91.4785 29.2304C91.4785 28.238 91.5139 27.2101 91.5848 26.1468C91.6557 25.0835 91.6911 24.0203 91.6911 22.9924C91.6911 22.1063 91.5848 21.1848 91.3722 20.2987C90.9823 18.6329 89.7063 17.2861 88.076 16.7544C87.0127 16.4 85.9139 16.2582 84.8152 16.2937C83.4329 16.2937 82.0152 16.4 80.6329 16.6835C79.4278 16.8962 78.2582 17.2506 77.1595 17.7468L76.7342 17.924L78.1519 22.319L78.6835 22.0709C79.4633 21.7519 80.2785 21.5038 81.0937 21.362C82.0152 21.1848 82.9722 21.0785 83.9291 21.0785C84.638 21.0785 85.5595 21.1848 85.8785 21.7165C86.0557 22 86.2329 22.6025 86.1266 23.7722C85.843 23.7722 85.5595 23.7722 85.2759 23.7722C84.2835 23.7722 83.2557 23.843 82.2633 23.9848C81.0937 24.1266 79.924 24.481 78.8608 24.9772C77.9392 25.438 77.1595 26.1114 76.5924 26.962C76.0253 27.8835 75.7418 28.9114 75.7772 29.9747C75.7772 30.7544 75.919 31.5342 76.2025 32.2785C76.7696 33.6608 77.9038 34.7241 79.2861 35.2557C80.0658 35.5392 80.881 35.681 81.6962 35.6456C82.9367 35.681 84.1418 35.3975 85.2051 34.7595C85.8076 34.3696 86.3747 33.9089 86.8354 33.3772L87.438 35.3975H92.2582L92.0456 34.7241ZM86.0911 27.5646V29.2658C85.8076 29.6911 85.4886 30.0456 85.0987 30.3291C84.5316 30.719 83.8937 30.8962 83.2203 30.8608C82.7595 30.8962 82.2987 30.7544 81.9443 30.4354C81.6253 30.1165 81.4835 29.6911 81.519 29.2658C81.519 28.9468 81.6253 28.6633 81.838 28.4506C82.1215 28.1671 82.476 27.9899 82.8658 27.8481C83.3975 27.6709 83.9646 27.6 84.5316 27.5646C84.7797 27.5291 85.0633 27.5291 85.3114 27.5291C85.5595 27.5291 85.843 27.5291 86.0911 27.5646ZM61.3873 34.7949L61.0684 34.9722C60.4658 35.2557 59.8633 35.4329 59.2253 35.5747C58.4101 35.7873 57.5595 35.8582 56.7089 35.8582C55.2557 35.8582 54.0861 35.5038 53.3063 34.7949C52.4911 34.0861 52.0658 32.9165 52.0658 31.3215V11.8987L57.6658 9.94937V28.9114C57.6304 29.443 57.7013 29.9747 57.9139 30.4709C58.0203 30.6835 58.2684 30.8253 58.5165 30.7899C58.7646 30.7899 59.0127 30.7544 59.2608 30.719C59.5798 30.6481 59.8633 30.5418 60.1823 30.4354L60.7848 30.1873L61.3873 34.7949ZM48.9114 34.7949L48.5924 34.9367C47.9899 35.2203 47.3873 35.3975 46.7494 35.5392C45.9342 35.7519 45.0835 35.8228 44.2329 35.8228C42.7797 35.8228 41.6101 35.4684 40.8304 34.7595C40.0152 34.0506 39.5899 32.881 39.5899 31.2861V15.8329L45.1899 13.8835V28.9114C45.1544 29.443 45.2253 29.9747 45.438 30.4709C45.5443 30.6835 45.7924 30.8253 46.0405 30.7899C46.2886 30.7899 46.5367 30.7544 46.7848 30.719C47.1038 30.6481 47.3873 30.5418 47.7063 30.4354L48.3089 30.1873L48.9114 34.7949ZM73.8987 34.7949L73.5798 34.9722C72.9772 35.2557 72.3747 35.4329 71.7367 35.5747C70.9215 35.7873 70.0709 35.8582 69.2203 35.8582C67.7671 35.8582 66.5975 35.5038 65.8177 34.7949C65.0025 34.0861 64.5772 32.9165 64.5772 31.3215V7.92911L70.1772 5.97975V28.9114C70.1418 29.443 70.2127 29.9747 70.4253 30.4709C70.5316 30.6835 70.7797 30.8253 71.0278 30.7899C71.276 30.7899 71.524 30.7544 71.7721 30.719C72.0911 30.6481 72.3747 30.5418 72.6937 30.4354L73.2962 30.1873L73.8987 34.7949ZM37.6759 35.5038H32.076L28 28.7696L26.9722 29.7975V35.5392H21.5139V7.92911L26.9722 5.97975V23.8785L31.119 17.4987H36.2582L30.8709 25.3316L37.6759 35.5038ZM45.6861 3.95949C45.6861 5.83798 44.162 7.36203 42.2835 7.36203C40.4051 7.36203 38.881 5.83798 38.881 3.95949C38.881 2.08101 40.4051 0.556963 42.2835 0.556963C44.162 0.556963 45.6861 2.08101 45.6861 3.95949ZM8.29367 36.0354C6.5924 36.0709 4.89114 35.8937 3.22532 35.5038C2.12658 35.2557 1.02785 34.9013 0 34.4405L1.70127 29.9747C2.0557 30.1519 2.41013 30.3291 2.8 30.4709C3.2962 30.6481 3.79241 30.8253 4.32405 30.9671C4.92658 31.1089 5.49367 31.2506 6.0962 31.357C6.73418 31.4633 7.37215 31.4987 8.04557 31.4987C9.60506 31.4987 10.8101 31.2506 11.6253 30.719C12.4405 30.2228 12.9367 29.3013 12.8658 28.3089C12.9013 27.5291 12.5468 26.8203 11.9797 26.324C11.3063 25.757 10.5266 25.2962 9.71139 24.9418C8.82532 24.5165 7.83291 24.0911 6.76962 23.6304C5.74177 23.2051 4.74937 22.638 3.82785 22C2.90633 21.362 2.16203 20.5114 1.55949 19.5544C0.921519 18.4203 0.602532 17.1443 0.673418 15.8329C0.637975 14.6633 0.886076 13.5291 1.31139 12.4304C1.73671 11.5089 2.37468 10.6582 3.15443 10.0203C4.00506 9.34684 4.96203 8.88608 5.98987 8.60253C7.19494 8.28355 8.43544 8.14177 9.67595 8.14177C11.1646 8.14177 12.6177 8.28355 14.0709 8.53165C15.2759 8.7443 16.4101 9.13418 17.4734 9.70127L15.843 14.0962C15.0633 13.6354 14.2127 13.3165 13.3266 13.1038C12.1215 12.8203 10.9165 12.643 9.67595 12.6785C8.47089 12.6785 7.51392 12.9266 6.87595 13.4228C6.23797 13.8835 5.88354 14.5924 5.88354 15.3722C5.88354 16.1165 6.20253 16.8253 6.76962 17.2861C7.44304 17.8532 8.22278 18.3139 9.03797 18.7038C9.92405 19.1291 10.9165 19.5899 11.9797 20.0506C13.0076 20.5114 14 21.043 14.9215 21.7165C15.8076 22.3544 16.5873 23.1696 17.1899 24.1266C17.8278 25.2253 18.1468 26.4658 18.0759 27.7063C18.1114 28.9823 17.8633 30.2228 17.3671 31.3924C16.9063 32.3848 16.2329 33.2709 15.3823 33.9797C14.4608 34.6886 13.3975 35.2203 12.2987 35.5038C10.9873 35.8937 9.64051 36.0354 8.29367 36.0354Z"/>
</svg>
