<svg width="67" height="56" viewBox="0 0 67 56" fill="none" xmlns="http://www.w3.org/2000/svg">
<path d="M22.8518 35.6811C23.9012 34.7016 24.321 33.7221 24.8107 32.8126C27.7492 27.7753 31.807 23.6475 36.0048 19.6596C37.404 18.3303 38.6634 16.7911 40.0626 15.4618C43.5608 11.8937 47.1989 8.53548 51.0468 5.38715C53.4955 3.42818 56.294 1.889 59.0926 0.419777C59.8622 -4.17012e-07 60.6317 0 61.4713 0C61.6112 2.23881 62.4508 4.19778 62.9405 6.29667C63.3603 8.18567 64.4098 9.72485 65.5991 11.1941C66.9284 12.8032 66.6486 14.5523 64.8295 15.6717C62.8706 16.8611 60.8416 17.9105 58.8827 19.0999C56.8538 20.3592 54.8248 21.6885 52.7959 23.0178C52.0963 23.5076 51.3267 23.9273 51.0468 24.9068C50.9069 25.3266 50.3472 25.7464 49.9274 26.0262C44.4703 29.8742 39.6429 34.4218 34.8854 39.1093C32.6466 41.3481 30.8275 43.8668 28.7986 46.2455C27.0495 48.2744 25.2305 50.3034 23.6213 52.4023C22.9217 53.3118 21.9422 53.8715 21.5924 55.2008C21.3126 56.1803 20.3331 56.1103 19.8433 55.1308C17.8144 51.1429 15.7855 47.0851 13.7566 43.0972C13.1969 41.9078 12.4972 40.8584 11.7276 39.8789C9.83864 37.4302 7.80972 35.1214 5.85075 32.7427C5.36101 32.113 4.87127 31.4833 3.89179 31.7632C3.26212 31.9031 2.84235 31.4134 2.98227 30.7837C3.26213 29.8742 2.70242 29.5943 2.21268 29.1046C1.58301 28.5449 1.02331 27.9852 0.463607 27.4255C0.113792 27.1456 -0.0960968 26.7958 0.0438292 26.376C0.183755 25.9563 0.53357 25.7464 1.02331 25.8163C2.00279 26.0262 2.63246 25.4665 3.33209 24.9068C4.73135 23.8574 6.20057 22.9478 7.66979 21.9684C8.2295 21.6186 8.64927 21.2687 9.06905 20.5691C9.55879 19.6596 10.3284 18.82 11.5178 18.6801C12.0775 18.6101 12.1474 18.2603 12.0075 17.6307C11.6577 16.4413 11.8676 16.3014 12.987 16.4413C13.4767 16.5113 13.8965 16.5812 14.3862 16.3713C14.6661 16.2314 15.0159 16.3014 15.0159 16.5812C15.2258 18.1204 16.695 18.89 17.1148 20.3592C17.5346 21.7585 18.1642 23.0878 18.8639 24.4171C19.9133 26.516 20.6129 28.7548 21.4525 30.9236C22.0122 32.3928 22.6419 33.8621 22.8518 35.6811ZM27.8191 34.7016C28.2389 34.8415 28.4488 34.5617 28.5887 34.2119C29.0785 32.6727 29.918 31.1335 30.1979 29.2445C28.9385 30.154 28.4488 31.3434 27.6792 32.3229C27.1195 32.9525 26.9096 33.5123 27.8891 34.002C28.1689 34.1419 28.029 34.4917 27.8191 34.7016C27.7492 35.1914 27.6092 35.6111 27.4693 36.3807C28.2389 35.6811 28.2389 35.1914 27.8191 34.7016ZM29.3583 41.9078C30.5477 40.4386 31.877 39.0393 33.2762 37.71C33.9759 37.0804 35.0253 36.5207 33.4861 35.6811C33.2063 35.5412 33.4861 34.8415 33.1363 34.4218C32.5766 35.0514 32.5766 35.821 32.2968 36.4507C31.737 37.9199 31.737 37.9199 30.0579 37.4302C29.848 38.8994 29.0785 40.2987 29.3583 41.9078C28.099 42.1177 27.6792 41.2781 27.3294 40.2287C26.8396 41.6979 26.4199 43.0972 25.8602 44.7763C27.3993 44.0067 27.959 42.4675 29.3583 41.9078ZM16.765 24.9768C14.6661 27.6354 13.3368 30.4339 12.4972 33.5123C13.7566 32.3229 14.736 30.9936 15.5056 29.5244C15.7155 29.1046 15.8555 28.6148 16.2752 28.405C16.4851 28.265 16.765 28.1951 17.0448 28.335C17.3247 28.4749 17.3946 28.7548 17.3247 29.0346C17.2547 29.3145 17.0448 29.6643 16.8349 29.9441C15.6456 31.6932 14.806 33.5822 13.8965 35.4013C13.6166 35.961 13.1969 36.5207 13.4068 37.5001C14.806 36.1708 15.8555 34.8416 16.765 33.5123C17.1848 32.8826 17.6045 32.043 18.4441 32.6027C19.2836 33.1624 18.4441 33.7921 18.1642 34.2818C17.3946 35.6111 16.695 36.8705 16.2053 38.7595C17.1848 37.71 17.5346 36.7306 18.0943 35.961C18.3741 35.4712 18.654 34.7716 19.4236 35.1914C20.1932 35.6111 19.7734 36.1708 19.4236 36.7306C19.2137 37.0804 18.9338 37.4302 18.7939 37.78C18.3741 38.8294 17.5346 39.739 17.6745 41.1382C18.9338 40.1587 19.0738 38.3397 20.6829 37.85C20.9628 37.78 20.8228 37.2203 20.8228 36.9404C20.8228 35.7511 20.403 34.7016 20.1232 33.5822C19.2836 30.6438 18.654 27.7753 16.765 24.9768ZM42.6513 23.9973C43.9806 21.8284 44.8201 19.3797 45.7996 17.071C46.5692 15.182 47.2688 13.153 48.4582 11.404C48.738 11.0541 49.0179 10.5644 49.5776 10.9142C50.0673 11.264 49.9274 11.7538 49.5776 12.1036C48.6681 13.293 48.1084 14.6223 47.6186 16.0215C46.4992 19.0999 45.7296 22.2482 45.4498 25.5365C46.7091 23.0878 48.1084 20.779 48.6681 18.0504C49.3677 14.7622 50.2772 11.5439 52.656 8.95526C53.0758 8.46552 53.2856 7.83585 53.2157 7.06626C52.8659 7.13622 52.656 7.20618 52.516 7.27615C50.627 8.18567 49.2278 9.72485 47.6186 10.9842C46.7791 11.6138 45.7296 12.0336 46.2194 13.4329C46.2893 13.6428 46.0795 13.9226 45.9395 14.1325C43.6308 17.1409 43.2809 20.6391 42.6513 23.9973ZM59.6523 2.02893C58.8127 2.30878 58.1131 2.4487 58.1131 3.42818C58.1131 3.98789 57.7633 4.26774 57.2735 4.40767C56.294 4.68752 55.9442 5.45711 55.6644 6.29667C54.8248 9.16515 53.9153 12.1036 53.0757 14.9721C53.0058 15.112 53.0058 15.3918 53.2157 15.5318C53.6355 15.3918 53.7754 14.9721 53.9153 14.6223C55.2446 11.9637 55.9442 9.09518 57.2735 6.43659C57.5534 5.87689 57.5534 4.61755 58.6028 5.17726C59.5123 5.667 58.7427 6.50656 58.4629 7.06626C57.4135 9.30507 56.5739 11.6838 55.8743 14.0626C55.5944 14.9721 55.3146 15.9516 55.5245 17.2109C56.434 16.0915 56.9937 15.182 57.2036 13.9926C57.5534 11.9637 58.3929 10.1446 59.3025 8.32559C59.7222 7.41607 60.3519 6.92633 61.2614 6.71644C60.7717 5.03733 59.6523 3.778 59.6523 2.02893ZM35.3751 31.8331C35.515 31.5533 35.7249 31.2734 35.8649 30.9236C37.1942 27.4255 38.5934 23.9273 40.2725 20.5691C40.6923 19.7995 40.6923 18.6101 42.0216 18.82C42.3015 18.89 42.3714 18.4702 42.5113 18.2603C42.8612 17.2808 43.4209 16.3713 43.2809 15.112C40.2026 17.1409 37.8238 19.6596 35.515 22.2482C34.8154 23.0178 35.3052 23.4376 35.8649 23.8574C36.2846 23.4376 36.2846 22.9478 36.3546 22.4581C36.4945 21.9684 36.7744 21.7585 37.2641 21.8984C37.6839 22.0383 37.9638 22.3182 37.8238 22.8079C37.6839 23.1577 37.544 23.5775 37.404 23.9273C36.4945 26.516 35.7249 29.1046 35.3751 31.8331ZM26.0701 35.961C25.1605 37.0804 24.3909 38.3397 24.0411 39.8089C23.9012 40.2287 23.7613 40.5785 23.2715 40.5785C22.7818 40.6485 22.5019 40.4386 22.362 39.9488C22.2221 39.599 22.0822 39.1793 21.5924 38.7595C20.543 41.2082 19.2836 43.447 18.9338 46.3155C20.1932 45.406 20.403 44.2166 20.8228 43.2371C21.0327 42.7474 21.2426 42.2576 21.5225 41.7679C21.6624 41.558 22.0122 41.488 22.2221 41.628C22.5019 41.6979 22.5719 41.9778 22.6419 42.2576C22.7118 42.6774 22.362 43.0272 22.2221 43.377C21.5924 44.8463 20.8228 46.2455 20.403 47.8547C20.2631 48.3444 20.0532 48.9041 20.543 49.2539C20.8228 49.3239 21.0327 49.184 21.1027 49.044C22.1521 46.6653 22.7118 44.0067 24.6008 41.9778C24.6708 41.9078 24.6708 41.6979 24.7408 41.628C25.2305 39.739 25.6503 37.85 26.0701 35.961ZM44.1205 24.0673C43.4209 25.0467 43.211 25.7464 42.9311 26.516C42.7212 27.1456 42.4414 27.7753 42.1615 28.335C42.0216 28.6848 41.6718 28.8247 41.322 28.7548C40.9022 28.6848 40.8322 28.335 40.8322 27.9852C40.8322 27.2856 40.8322 26.6559 40.8322 25.9563C40.7623 25.9563 40.6923 25.9563 40.6223 25.8863C39.7828 28.1951 38.9432 30.5039 38.0337 33.0925C39.7828 32.113 40.9022 30.7837 42.2315 29.8042C44.1205 28.4749 44.1205 26.516 44.1205 24.0673ZM53.9853 17.7006C53.5655 17.9805 53.1457 18.4702 52.8659 18.4003C51.6065 18.1204 51.3966 19.0299 51.1168 19.7995C50.8369 20.709 50.4172 21.5486 49.9274 22.3182C49.6476 22.738 49.2278 23.1577 48.808 22.8079C48.1783 22.2482 47.8985 22.598 47.6886 23.1577C47.4088 23.8574 47.1289 24.557 46.6392 25.6764C49.0879 23.8574 51.1168 22.2482 53.2157 20.709C53.7754 20.2893 54.6149 20.0794 54.6849 19.4497C54.8248 18.96 54.3351 18.3303 53.9853 17.7006ZM61.6112 7.76589C59.6523 10.3545 58.323 13.9926 58.6728 15.6717C60.5618 14.4124 61.1915 12.3834 62.101 10.5644C62.5907 9.65489 61.8911 8.8853 61.6112 7.76589ZM8.7892 28.5449C8.92912 28.6149 9.06905 28.6848 9.20898 28.7548C10.8181 26.3061 12.4273 23.7874 13.9665 21.2687C14.4562 20.4991 14.3862 20.4991 13.3368 19.6596C12.0075 22.8079 9.83864 25.3966 8.7892 28.5449ZM15.5056 22.1783C13.4767 24.2771 10.3284 29.7343 10.1885 31.2734C10.3284 31.2035 10.4683 31.1335 10.5383 31.0636C12.2873 28.5449 13.9665 25.9563 15.9254 23.5775C16.3452 22.9478 15.8555 22.5281 15.5056 22.1783ZM49.7175 20.4292C50.9069 18.3303 52.0963 16.2314 51.7465 13.293C50.4172 15.7417 49.9274 18.0504 49.7175 20.4292ZM10.958 32.3928C10.6082 33.3024 9.13901 33.7921 9.97857 35.0514C10.5383 35.891 10.958 36.8005 11.7276 37.4302C12.2873 37.0804 12.4273 36.5906 12.4273 35.891C11.5178 36.1009 10.8881 35.821 10.7482 34.8416C10.6082 34.072 11.3079 33.3024 10.958 32.3928ZM35.0253 35.5412C36.0748 35.3313 36.7044 34.7716 37.2641 34.1419C36.2846 33.7221 36.9843 32.6027 36.4945 31.8331C36.0048 33.0925 35.515 34.3518 35.0253 35.5412ZM18.4441 42.6774C16.4851 44.9862 16.4851 44.9862 17.5346 46.3155C17.8144 45.1261 18.1642 43.9367 18.4441 42.6774ZM5.15112 28.4749C6.62035 26.9357 7.25001 26.0262 7.73975 24.557C6.62035 25.4665 5.71083 26.5859 5.15112 28.4749ZM7.59983 27.7053C6.55038 28.405 6.27053 29.3145 5.92072 30.0841C5.78079 30.3639 6.06064 30.7137 6.41046 30.8537C6.69031 30.9236 6.9002 30.7137 6.97016 30.4339C7.18005 29.5943 7.38994 28.7548 7.59983 27.7053ZM35.0953 25.2566C33.9059 27.0057 33.696 27.5654 33.9059 28.8947C34.5356 27.7053 34.9553 26.516 35.0953 25.2566ZM33.1363 25.3266C32.6466 25.9563 32.2268 26.5859 31.737 27.2156C31.5971 27.4255 31.6671 27.5654 31.807 27.7053C32.0169 27.9152 32.2968 27.9852 32.5066 27.7053C32.9964 27.0057 33.2762 26.2361 33.1363 25.3266ZM22.432 48.8341C22.5019 48.9041 22.6419 48.9741 22.7118 48.9741C23.2715 48.2045 23.7613 47.5048 24.321 46.7353C24.4609 46.4554 24.3909 46.1756 24.181 46.0356C23.9012 45.8957 23.6913 46.1056 23.5514 46.3155C23.1316 47.155 22.7818 47.9946 22.432 48.8341ZM13.9665 40.4386C14.3862 39.3891 14.806 38.7595 14.736 37.6401C14.1064 38.5496 13.1269 39.0393 13.9665 40.4386ZM62.8006 12.5933C62.7306 12.8032 62.5907 13.0831 62.5207 13.293C62.4508 13.5029 62.3109 13.7827 62.6607 13.9926C62.7306 14.0626 62.9405 13.9926 63.0805 13.9226C63.3603 13.7827 63.4303 13.5728 63.3603 13.293C63.1504 13.0831 63.1504 12.8032 62.8006 12.5933ZM57.2735 17.1409C57.0636 17.2109 56.9237 17.4907 56.7838 17.7706C56.7138 17.9805 56.7138 18.0504 56.9237 18.0504C57.2735 18.0504 57.5534 17.9105 57.6933 17.5607C57.7633 17.3508 57.6233 17.2109 57.2735 17.1409Z" fill="#2ac9b3"/>
</svg>
