<svg version="1.1" id="Слой_1" xmlns="http://www.w3.org/2000/svg" xmlns:xlink="http://www.w3.org/1999/xlink" viewBox="0 0 1360 651">
<style type="text/css">
	.st0{fill:none;}
	.st1{fill:none;stroke:#000000;stroke-opacity:5.000000e-02;}
	.st2{fill:#FFFFFF;}
	.st3{fill:#F9F9F9;}
</style>
<rect y="-327" class="st0" width="1360" height="588"/>
<path class="st1" d="M-178.5,327.7L-178.5,327.7L-178.5,327.7l18.2,515.2l0,0.5l0.5,0L1509,816.8l0.5,0l0-0.5l-15.1-709.9v-0.3
	l-0.2-0.1c-65-37.1-118.5-54.1-167.1-57.1c-48.7-3-92.5,8-138.3,26.8c-32.1,13.2-65.3,30.3-101.7,49c-15.5,8-31.7,16.3-48.6,24.7
	c-56.7,28.3-122.2,58.3-203.4,83.8c-162.3,50.9-281.3-1.3-390.5-66.3c-18.5-11-36.8-22.4-54.9-33.8c-35.2-22-70-43.8-105.5-61.9
	c-53.8-27.5-109.2-46.9-170.5-46.7C-9,24.8-82.1,100.7-124.4,176.4c-21.2,37.8-34.7,75.7-42.9,104c-4.1,14.2-6.9,26-8.7,34.3
	c-0.9,4.1-1.5,7.4-1.9,9.6c-0.2,1.1-0.3,2-0.4,2.5c0,0.3-0.1,0.5-0.1,0.7C-178.5,327.5-178.5,327.6-178.5,327.7L-178.5,327.7
	L-178.5,327.7c0,0,0,0,0.5,0.1L-178.5,327.7z"/>
<g>
	<path class="st2" d="M1360,28.4C1195.7-2,1096.9,126.5,835.3,208.7C510.4,310.7,358.4-0.7,113.8,0C69.7,0.1,32.1,10,0,26.1V261
		h1360V28.4z"/>
	<path class="st3" d="M1360,53.4c-164.4-30.5-263.2,98.1-524.8,180.2C510.2,335.7,358.3,24.3,113.6,25C69.6,25.1,32.1,35,0,51V651
		h1360V53.4z"/>
</g>
</svg>
