<svg viewBox="0 0 226 206" xmlns="http://www.w3.org/2000/svg">
<path d="M93.5514 41.4345C94.2782 44.3417 94.3821 47.249 94.1744 50.2601C93.7591 56.4899 91.5786 62.0968 88.2561 66.7691L88.3599 66.6653C86.5948 69.1572 84.622 71.2339 82.4415 73.1028C82.0262 73.4143 81.6109 73.622 81.1956 73.7258C80.9879 73.7258 80.6764 73.8296 80.3649 73.8296C80.1573 73.8296 80.0534 73.8296 79.8458 73.8296C79.119 73.7258 78.496 73.622 77.9768 73.3105L77.873 73.2066C77.25 74.1411 76.7309 74.9718 76.2117 75.6986V75.5947L75.9002 76.0101C75.7964 76.1139 75.6925 76.3216 75.4849 76.5292C75.2772 76.7369 75.0696 76.8407 74.8619 77.0484C74.6542 77.1522 74.3428 77.256 74.0313 77.3599H73.8236H73.7198H73.6159H73.5121H73.4083H73.2006L72.6814 77.1522C71.8508 76.9445 71.2278 76.7369 70.6048 76.5292L70.8125 76.6331C70.0857 77.6714 69.255 78.6058 68.5282 79.6441C68.2167 79.9556 67.8014 80.0595 67.4899 79.9556H67.2823L66.8669 79.8518L65.4133 79.5403L64.6865 79.4365L64.5827 84.628C64.5827 87.0161 64.4788 89.4042 64.4788 91.6885V93.4536V94.3881V94.8034V94.9072C64.4788 94.9072 64.4788 95.0111 64.4788 95.2187C64.4788 95.3226 64.4788 95.3226 64.375 95.4264C64.1673 95.8417 63.8558 96.0494 63.4405 96.0494C63.2329 96.0494 63.129 96.0494 63.0252 95.9456C62.8175 95.8417 62.6099 95.7379 62.5061 95.6341C62.2984 95.5302 62.1946 95.4264 62.0907 95.3226C61.8831 95.1149 61.6754 94.8034 61.4677 94.5957C60.9486 93.9728 60.3256 93.2459 59.8064 92.5191L59.7026 92.4153L59.3911 92.1038V92V91.8962V91.7923C59.2873 91.4808 59.0796 91.0655 58.9758 90.5464L58.7681 89.7157L58.5605 88.8851C58.4567 88.4697 58.3528 88.0544 58.249 87.7429V87.8468C57.4183 87.3276 56.6915 86.8084 55.9647 86.2893L56.0686 86.3931C55.8609 86.1855 55.5494 86.0816 55.3417 85.874C55.1341 85.6663 54.8226 85.4587 54.6149 85.251C54.5111 85.1472 54.4073 85.0433 54.1996 84.8357L54.0958 84.7318C54.0958 84.628 53.9919 84.628 53.9919 84.5242V84.4203V84.3165V84.2127V84.1089V84.005L53.1613 81.9284L53.0575 81.4093L52.8498 81.3054L51.3962 81.4093C50.6694 81.4093 50.0464 81.4093 49.3196 81.4093H45.2702C42.5706 81.4093 39.871 81.4093 37.0675 81.4093C34.3679 81.4093 31.6683 81.4093 28.8649 81.4093C25.8538 81.4093 22.9466 81.3054 20.1431 81.3054H20.7661C19.4163 81.3054 18.0665 81.2016 16.7167 81.2016C15.6784 81.2016 14.8478 81.0978 13.9133 80.9939H14.121H13.8095H13.6018C11.7329 80.6824 10.0716 80.0595 8.51411 79.3326H8.61794C7.26815 78.7097 6.12601 77.9828 5.0877 77.0484C4.0494 76.1139 3.11492 75.0756 2.28427 73.9335C1.14214 72.2722 0.415323 70.2994 0 68.2228V68.1189C0 67.5998 0 67.0806 0 66.4576C0 65.627 0.103831 64.7964 0.207661 63.9657V64.0695C0.311492 63.758 0.311492 63.3427 0.415323 63.0312C0.415323 62.8236 0.519153 62.7197 0.519153 62.5121L0.726815 61.9929C1.14214 60.6431 1.76512 59.3972 2.49194 58.255C3.63407 56.4899 5.0877 54.9324 6.74899 53.7903C8.41028 52.6482 10.3831 51.9214 12.4597 51.506H12.5635C13.9133 51.2984 15.3669 51.1945 16.7167 51.2984C18.0665 51.4022 19.5202 51.7137 20.87 52.2328C22.2198 52.752 23.3619 53.5826 24.4002 54.5171C25.4385 55.4516 26.373 56.3861 27.2036 57.5282C28.9688 59.7087 30.3186 62.0968 31.7722 64.381L32.2913 65.2117C32.499 65.5232 32.7067 65.7308 32.8105 66.0423C32.9143 66.25 33.122 66.3538 33.2258 66.5615L33.3296 66.6653C33.5373 66.873 33.745 67.1845 33.745 67.4959V67.5998C33.745 68.2228 33.4335 68.6381 32.9143 68.9496H32.8105H32.7067H32.6028L32.3952 69.0534L32.1875 69.3649L31.6683 69.4687C31.4607 69.4687 31.3569 69.5726 31.1492 69.5726L30.8377 69.6764H30.5262C30.3185 69.6764 30.0071 69.6764 29.7994 69.6764C29.1764 69.6764 28.6573 69.5726 28.1381 69.3649C27.7228 69.2611 27.4113 69.0534 27.0998 68.9496C26.373 68.5343 25.75 68.2228 25.127 67.8074C24.504 67.3921 23.9849 66.9768 23.4657 66.5615L21.8044 65.3155C21.2853 64.9002 20.7661 64.4849 20.1431 64.0695L19.7278 63.758L19.3125 63.4466C19.001 63.2389 18.6895 63.0312 18.4819 62.8236C17.9627 62.4082 17.4435 61.9929 17.0282 61.4738L17.2359 62.0968C17.3397 62.5121 17.4435 63.0312 17.4435 63.5504V63.758C17.4435 64.0695 17.3397 64.2772 17.1321 64.4849C16.9244 64.6925 16.7167 64.7964 16.4052 64.7964C16.1976 64.7964 15.9899 64.6925 15.7823 64.5887C15.6784 64.4849 15.5746 64.4849 15.5746 64.381L15.4708 64.2772C15.0554 63.758 14.6401 63.2389 14.121 62.7197C13.498 62.0968 12.875 61.4738 12.252 60.9546C11.629 60.4355 10.9022 60.0201 10.1754 59.6048H10.0716C9.34476 59.2933 8.51411 58.9818 7.68347 58.9818H7.57964C7.06048 58.9818 6.64516 59.0857 6.12601 59.1895H6.02218C6.02218 59.1895 5.91835 59.1895 5.91835 59.2933C5.29536 59.6048 4.77621 59.9163 4.36089 60.3316C3.42641 61.1623 2.80343 62.2006 2.49194 63.4466C2.28427 64.2772 2.18044 65.1078 2.18044 66.0423C2.18044 67.8074 2.59577 69.4687 3.42641 71.0262C4.25706 72.5837 5.50302 73.8296 6.95665 74.7641C7.7873 75.2832 8.51411 75.6986 9.34476 76.0101H9.44859C10.1754 76.3216 11.006 76.5292 11.8367 76.7369H11.9405C13.6018 77.1522 15.3669 77.3599 17.1321 77.3599C17.9627 77.3599 18.8972 77.3599 19.8317 77.3599H20.4546H21.0776C22.3236 77.256 23.3619 77.1522 24.4002 77.0484H24.0887L23.1542 76.4254C22.2198 75.8024 21.3891 75.1794 20.6623 74.5564L20.7661 74.6603L18.378 72.8951C18.1704 72.6875 17.755 72.376 17.3397 72.1683L17.1321 72.0645C16.7167 71.753 16.3014 71.5453 15.8861 71.2339C15.1593 70.7147 14.2248 70.2994 13.2903 70.0917H13.1865L12.875 69.9879L12.5635 69.8841H12.252C12.1482 69.8841 12.1482 69.8841 12.0444 69.8841H11.9405C11.5252 69.8841 11.1099 70.0917 10.9022 70.2994C10.5907 70.6109 10.3831 70.9224 10.2792 71.3377C10.1754 71.5454 10.1754 71.753 10.0716 71.9607V72.1683V72.2722V72.376C10.0716 72.4798 9.96774 72.6875 9.86391 72.8951C9.76008 72.999 9.65625 73.1028 9.44859 73.2066C9.34476 73.2066 9.24093 73.3105 9.1371 73.3105C9.03327 73.3105 8.92944 73.3105 8.92944 73.3105C8.82561 73.3105 8.72178 73.2066 8.61794 73.1028C8.51411 72.999 8.51411 72.999 8.41028 72.8951C8.20262 72.6875 8.09879 72.4798 7.89113 72.1683C7.68347 71.753 7.47581 71.2339 7.37198 70.7147C7.37198 70.6109 7.37198 70.507 7.37198 70.2994C7.37198 70.1956 7.37198 70.1955 7.37198 70.0917C7.37198 69.9879 7.37198 69.9879 7.37198 69.8841L7.47581 69.6764C7.57964 69.4687 7.7873 69.2611 7.89113 69.0534C8.09879 68.8457 8.20262 68.6381 8.41028 68.4304L8.51411 68.3266H8.61794L8.82561 68.2228C8.92944 68.1189 9.03327 68.1189 9.24093 68.1189C9.55242 68.0151 10.0716 68.0151 10.4869 68.0151C10.5907 68.0151 10.6946 68.0151 10.9022 68.0151C11.4214 68.0151 11.9405 68.1189 12.3558 68.2228C13.6018 68.5343 14.6401 68.7419 15.5746 69.0534L15.2631 68.9496C16.1976 69.2611 17.1321 69.5726 18.0665 69.7802C19.001 70.0917 19.9355 70.4032 20.87 70.6109C21.8044 70.9224 22.7389 71.13 23.6734 71.4415C25.5423 71.9607 27.5151 72.2722 29.4879 72.4798C31.4607 72.6875 33.4335 72.5837 35.3024 72.2722C37.379 71.9607 39.1442 71.2339 40.8054 70.2994H40.7016C42.3629 69.2611 43.8165 68.0151 45.0625 66.6653C45.4778 66.1462 45.997 65.627 46.4123 65.004C46.62 63.1351 46.9315 61.4738 47.4506 59.9163V60.124C47.8659 58.7742 48.2812 57.632 48.8004 56.5937L48.6966 56.8014C49.7349 54.4133 50.877 52.3367 52.2268 50.3639L52.123 50.4677C53.4728 48.3911 55.0302 46.626 56.6915 44.9647C57.5222 44.1341 58.4567 43.4072 59.3911 42.6804H59.495C59.7026 42.5766 59.9103 42.3689 60.2218 42.2651C60.5333 42.1613 60.7409 41.9536 61.0524 41.8498C61.2601 41.746 61.5716 41.6421 61.8831 41.6421L61.6754 41.0191C61.3639 40.0847 61.0524 39.254 60.6371 38.5272V38.631C60.2218 37.8004 59.7026 37.1774 59.0796 36.5544C58.7681 36.2429 58.4567 35.9314 58.1452 35.7238C57.4183 35.2046 56.5877 34.997 55.6532 34.997C55.3417 34.997 54.9264 34.997 54.6149 35.1008H54.5111H54.3034L54.1996 34.997C50.877 36.3468 42.2591 37.2812 38.9365 37.5927L38.1059 38.1119C37.379 38.5272 36.8599 38.9425 36.3407 39.3578H36.4446L36.1331 39.5655L36.0292 39.6693L35.9254 39.7732H35.8216C35.7177 39.877 35.6139 39.877 35.4062 39.877C35.1986 39.877 35.0948 39.7732 34.9909 39.6693C34.8871 39.5655 34.7833 39.3578 34.7833 39.1502V39.0464V38.8387C34.7833 38.5272 34.8871 38.3195 34.9909 38.008C35.1986 37.4889 35.4062 37.0736 35.6139 36.6582C36.1331 35.7238 36.6522 34.8931 37.2752 34.1663L37.6905 33.5433L37.8982 33.2318L38.1059 32.9203C38.4173 32.505 38.7288 32.1935 39.1442 31.882C39.7671 31.2591 40.4939 30.6361 41.3246 30.0131H41.4284C42.1552 29.3901 42.9859 28.8709 43.8165 28.3518C44.2319 28.1441 44.6472 27.8326 45.0625 27.625C45.2702 27.5211 45.4778 27.4173 45.6855 27.3135L45.7893 27.2097C46.1008 26.4828 46.3085 25.756 46.62 25.0292C46.7238 24.8216 46.8276 24.6139 46.9315 24.4062V24.3024V24.1986L47.0353 23.9909C47.1391 23.8871 47.2429 23.7832 47.3468 23.6794C47.7621 23.3679 48.0736 23.1603 48.4889 22.8488C49.3196 22.3296 50.0464 22.0181 50.877 21.6028C54.4073 19.8377 58.6643 18.3841 63.0252 17.2419L63.4405 17.1381C64.8941 16.8266 66.3478 16.5151 67.8014 16.4113C67.6976 15.6845 67.5938 14.9576 67.4899 14.127C67.3861 13.7117 67.6976 13.4002 68.1129 13.504C69.9819 14.0232 74.1351 15.5806 78.3921 19.8377C78.3921 19.9415 78.496 19.9415 78.496 19.9415L78.5998 20.0453C79.3266 20.6683 79.9496 21.2913 80.5726 21.9143L81.0917 22.5373C82.13 23.5756 83.1684 24.7177 84.1028 25.8599L84.2066 25.9637C85.7641 27.8326 87.3216 29.8054 88.7752 31.882L88.879 32.0897C89.1905 31.5705 89.502 31.0514 89.7097 30.6361C89.8135 30.4284 90.125 30.4284 90.2288 30.5322C90.9557 31.6744 92.6169 34.5816 93.3438 39.254C93.2399 40.0847 93.4476 40.8115 93.5514 41.4345ZM52.6421 30.4284L52.5383 29.9093C52.3306 30.0131 52.123 30.0131 51.9153 30.0131C51.6038 30.0131 51.1885 30.0131 50.877 29.9093C50.254 29.8054 49.6311 29.7016 49.1119 29.4939C47.7621 29.0786 46.7238 28.6633 45.5817 28.1441L45.6855 28.248L45.2702 28.0403V27.9365L44.9587 28.0403C44.5433 28.248 44.128 28.4556 43.7127 28.7671C42.0514 29.7016 40.5978 30.9476 39.248 32.1935C38.9365 32.505 38.625 32.9203 38.3135 33.2318L38.1059 33.5433L37.8982 33.8548L37.6905 34.1663L37.4829 34.4778C37.2752 34.8931 36.9637 35.3084 36.7561 35.7238C36.5484 36.1391 36.3407 36.5544 36.1331 36.9697C35.9254 37.3851 35.8216 37.8004 35.7177 38.2157V38.3195C36.2369 37.9042 36.8599 37.4889 37.379 37.1774H37.4829C38.9365 36.3468 40.5978 35.4123 42.3629 34.6855L42.6744 34.5816C44.4395 33.8548 46.2046 33.128 47.9698 32.505C48.9042 32.1935 49.7349 31.7782 50.5655 31.4667C50.9809 31.2591 51.3962 31.0514 51.8115 30.8437C52.123 30.7399 52.3306 30.6361 52.6421 30.4284ZM53.0575 26.1713C53.1613 25.9637 53.2651 25.8599 53.369 25.6522C53.4728 25.5484 53.4728 25.4445 53.5766 25.3407C53.6804 25.3407 53.6804 25.2369 53.7843 25.133C53.8881 25.0292 54.0958 24.9254 54.1996 24.8216C55.2379 24.0947 56.4839 23.3679 57.8337 22.8488L58.1452 22.7449C59.495 22.122 60.8448 21.6028 62.1946 21.1875C63.5444 20.7722 64.8942 20.3568 66.3478 19.9415C67.8014 19.5262 69.1512 19.2147 70.501 18.9032L71.0202 18.7994H71.3316H71.6432C71.9546 18.7994 72.1623 18.6955 72.4738 18.6955C73.3044 18.6955 74.2389 18.9032 74.9657 19.2147C75.5887 19.4224 76.1079 19.7338 76.7309 20.0453L76.627 19.9415C76.004 19.4224 75.2772 18.9032 74.5504 18.4879L74.4466 18.3841C73.7198 17.9687 72.8891 17.5534 72.0585 17.3457H71.9546C71.8508 17.3457 71.747 17.3457 71.6432 17.2419C71.5393 17.2419 71.3316 17.1381 71.2278 17.1381C71.124 17.1381 71.0202 17.1381 70.9163 17.1381H70.6048C70.3972 17.1381 70.1895 17.1381 69.9819 17.1381C69.4627 17.1381 69.0474 17.1381 68.6321 17.2419H68.7359C66.9708 17.3457 65.3095 17.6572 63.5444 18.0726C58.872 19.2147 54.7188 20.7722 50.877 22.6411L51.1885 22.5373C50.254 22.9526 49.5272 23.3679 48.8004 23.8871L48.9042 23.7832C48.5927 23.9909 48.1774 24.3024 47.8659 24.5101C47.7621 24.6139 47.6583 24.7177 47.6583 24.8216V24.9254L47.4506 25.5484L47.2429 26.1713C47.1391 26.379 47.0353 26.8982 46.9315 27.3135V27.5211C47.6583 27.7288 48.5927 28.0403 49.6311 28.248H49.8387C50.3579 28.3518 50.9808 28.4556 51.5 28.4556C51.6038 28.4556 51.6038 28.4556 51.7077 28.4556C52.0192 28.4556 52.2268 28.4556 52.5383 28.3518L52.746 27.8326C52.9536 27.3135 53.0575 27.002 53.2651 26.6905V26.7943C52.8498 26.4828 52.8498 26.2752 53.0575 26.1713ZM69.5665 20.4607C68.6321 20.6683 66.4516 21.1875 63.8558 21.9143C61.8831 22.4334 60.5333 22.9526 59.5988 23.2641C59.2873 23.3679 58.9758 23.4718 58.7681 23.6794C60.4294 23.9909 63.5444 24.5101 66.4516 23.8871H66.5554C66.9708 23.7832 67.3861 23.6794 67.8014 23.4718H67.9052C68.2167 23.2641 69.1512 21.7066 69.5665 20.4607ZM21.3891 73.8296C23.0504 74.8679 24.9194 75.8024 26.7883 76.6331L26.996 76.7369L27.619 76.6331C29.5917 76.2177 31.3569 75.8024 33.0181 75.1794L32.7067 75.2832C34.5756 74.6603 36.2369 73.9335 37.6905 73.1028L37.4829 73.2066C39.0403 72.376 40.494 71.4415 41.7399 70.507H41.6361C41.4284 70.7147 41.1169 70.8185 40.9093 71.0262C39.248 71.9607 37.379 72.6875 35.3024 72.999H35.1986C33.2258 73.3105 31.1492 73.3105 29.1764 73.1028C27.2036 72.8951 25.2308 72.4798 23.2581 71.9607C22.3236 71.753 21.3891 71.4415 20.3508 71.13C19.4163 70.8185 18.4819 70.507 17.5474 70.1955C16.6129 69.8841 15.6784 69.5726 14.744 69.2611C13.8095 68.9496 12.875 68.7419 11.9405 68.5343C11.4214 68.4304 11.006 68.4304 10.4869 68.3266C10.3831 68.3266 10.2792 68.3266 10.2792 68.3266C9.86391 68.3266 9.44859 68.4304 9.1371 68.5343C8.92944 68.5343 8.8256 68.6381 8.72177 68.7419C8.61794 69.0534 8.30645 69.4687 8.09879 69.8841V69.9879L8.20262 70.2994C8.41028 70.9224 8.72177 71.4415 9.03327 71.8568L9.1371 71.5453C9.24093 71.2339 9.34476 71.0262 9.44859 70.7147C9.55242 70.507 9.65625 70.1955 9.86391 69.9879C10.1754 69.6764 10.4869 69.3649 10.7984 69.1572C11.1099 69.0534 11.4214 68.9496 11.8367 68.9496C11.9405 68.9496 12.0444 68.9496 12.1482 68.9496C12.252 68.9496 12.4597 68.9496 12.5635 69.0534L12.9788 69.1572L13.3942 69.2611L13.7056 69.3649C14.744 69.7802 15.6784 70.1955 16.5091 70.7147H16.4052C17.2359 71.2339 18.1704 71.753 19.001 72.2722C19.7278 72.7913 20.5585 73.3105 21.3891 73.8296ZM49.3196 80.0595H50.9808L50.7732 79.8518C50.3579 79.5403 49.9425 79.125 49.5272 78.8135C49.3196 78.6058 49.1119 78.3982 49.0081 78.1905C48.8004 77.9828 48.6966 77.7752 48.5927 77.4637C47.2429 74.6603 46.5161 71.4415 46.3085 68.1189C45.2702 69.2611 44.2319 70.2994 42.9859 71.3377C41.6361 72.376 40.1825 73.4143 38.5212 74.2449L38.4173 74.3488C36.9637 75.0756 35.3024 75.9062 33.6411 76.4254L33.4335 76.5292C31.7722 77.1522 29.7994 77.6714 27.7228 77.9828H27.5151L26.7883 78.0867C26.373 78.1905 25.8538 78.1905 25.4385 78.2943C24.504 78.3982 23.6734 78.502 22.7389 78.6058C22.3236 78.6058 21.8044 78.7097 21.3891 78.7097H20.6623H19.9355C19.8317 78.7097 19.7278 78.7097 19.624 78.7097C18.7933 78.7097 17.9627 78.7097 17.1321 78.6058H17.2359C15.4708 78.502 13.6018 78.1905 11.8367 77.6714C11.006 77.4637 10.0716 77.1522 9.24093 76.7369C8.41028 76.3216 7.57964 75.9062 6.85282 75.3871C5.29536 74.3488 4.0494 72.999 3.11492 71.4415V71.3377C2.18044 69.6764 1.55746 67.7036 1.55746 65.627C1.55746 64.7964 1.66129 63.9657 1.76512 63.2389V63.3427C1.97278 62.4082 2.3881 61.4738 2.90726 60.747C3.63407 59.7087 4.56855 58.9818 5.60685 58.4627L5.81452 58.3589C5.91835 58.3589 5.91835 58.3589 6.02218 58.255C6.12601 58.255 6.22984 58.1512 6.33367 58.1512C6.74899 58.0474 7.26815 57.9435 7.7873 57.9435C8.82561 57.9435 9.76008 58.255 10.5907 58.6703C11.4214 59.0857 12.252 59.6048 12.9788 60.2278C14.0171 61.0584 15.0554 62.0968 15.8861 63.1351C15.9899 63.3427 16.1976 63.4466 16.3014 63.6542L16.5091 63.9657V63.8619C16.4052 62.5121 15.9899 61.2661 15.2631 60.2278L14.121 58.4627L15.9899 59.501C17.2359 60.2278 18.2742 61.1623 19.4163 61.8891C19.7278 62.0968 19.9355 62.2006 20.247 62.4082L21.0776 62.9274C22.5312 63.758 23.6734 64.4849 24.8155 65.2117L24.6079 65.1078C25.127 65.5232 25.75 65.8347 26.2692 66.1462L27.0998 66.6653L27.5151 66.873C27.619 66.9768 27.8266 66.9768 27.9304 67.0806C28.2419 67.1845 28.4496 67.2883 28.7611 67.3921C29.1764 67.496 29.7994 67.7036 30.3186 67.8074H30.4224H30.63H30.8377H31.3569C31.4607 67.8074 31.6683 67.8074 31.876 67.8074C31.9798 67.8074 32.1875 67.8074 32.3952 67.8074H32.6028H32.7067C32.7067 67.8074 32.8105 67.8074 32.8105 67.7036C32.8105 67.7036 32.8105 67.5998 32.8105 67.4959C32.7067 67.3921 32.499 67.2883 32.3952 67.1845C32.2913 67.0806 32.1875 66.873 32.0837 66.7691C31.6683 66.1462 31.3569 65.627 30.9415 65.004C30.0071 63.4466 29.3841 62.3044 28.6573 61.1623L28.8649 61.4738C28.0343 60.2278 27.3075 59.1895 26.4768 58.1512V58.255C25.6462 57.2167 24.7117 56.2822 23.7772 55.4516C22.8427 54.6209 21.7006 53.8941 20.5585 53.375H20.4546C19.3125 52.9597 18.0665 52.5443 16.7167 52.4405H16.6129C16.1976 52.4405 15.5746 52.3367 15.0554 52.3367C13.498 52.3367 12.0444 52.5443 10.5907 52.9597H10.6946C9.55242 53.2711 8.30645 53.7903 7.26815 54.5171H7.37198C5.71069 55.5554 4.25706 57.0091 3.21875 58.6703C2.59577 59.7087 1.97278 60.8508 1.55746 62.0968V62.2006C1.45363 62.3044 1.45363 62.5121 1.45363 62.7197L1.03831 63.1351C0.726815 63.9657 0.622984 65.004 0.622984 66.0423C0.622984 67.3921 0.726815 68.7419 1.14214 69.9879C1.55746 71.3377 2.18044 72.4798 2.90726 73.5181C3.7379 74.6603 4.56855 75.5947 5.60685 76.4254C7.7873 78.2943 10.5907 79.5403 13.6018 80.0595H13.7056H13.9133H14.121H14.6401C15.2631 80.1633 15.9899 80.1633 16.6129 80.1633C17.9627 80.2671 19.3125 80.2671 20.6623 80.2671C23.3619 80.2671 26.0615 80.2671 28.7611 80.2671C31.4607 80.2671 34.1603 80.1633 36.8599 80.1633L49.3196 80.0595ZM58.0413 87.7429C58.1452 87.7429 58.0413 87.7429 58.0413 87.7429V87.7429ZM62.7137 84.5242C62.8175 75.0756 62.9214 65.627 62.8175 56.1784V52.6482C62.8175 51.506 62.8175 50.2601 62.8175 49.1179C62.8175 47.9758 62.8175 46.7298 62.7137 45.5877C62.7137 44.8609 62.6099 44.2379 62.5061 43.7187V43.9264C62.5061 43.6149 62.4022 43.4072 62.4022 43.0957C62.2984 42.6804 62.2984 42.3689 62.0907 42.0574V41.9536H61.9869C61.7792 41.9536 61.4677 42.0574 61.2601 42.1613C60.7409 42.3689 60.2218 42.6804 59.8064 42.9919C58.7681 43.7187 57.9375 44.4455 57.1069 45.1724C53.8881 48.3911 51.2923 52.2328 49.4234 56.4899L49.3196 56.6976C48.4889 58.6703 47.8659 60.8508 47.4506 63.2389V63.4466C47.2429 64.6925 47.1391 66.1462 47.1391 67.4959C47.1391 68.5343 47.2429 69.4687 47.3468 70.4032V70.2994C47.6583 72.7913 48.2812 75.0756 49.3196 77.0484L49.2157 76.9445C49.4234 77.3599 49.7349 77.7752 50.0464 78.0867C50.3579 78.3982 50.7732 78.7097 51.1885 79.0211C51.6038 79.3326 52.0192 79.5403 52.4345 79.8518L52.6421 79.9556L52.5383 79.6441C52.2268 78.1905 52.0192 76.7369 51.7077 75.1794C51.3962 73.622 51.2923 72.1683 51.0847 70.7147C50.877 69.4687 50.7732 67.9113 50.7732 66.3538C50.7732 66.25 50.877 66.1462 50.9808 66.1462C51.0847 66.1462 51.1885 66.25 51.1885 66.25C51.2923 67.7036 51.6038 69.1572 51.9153 70.7147C52.2268 72.1683 52.5383 73.622 52.8498 75.0756C53.7843 78.8135 54.6149 81.7208 55.4456 84.4203L55.1341 83.4859C55.4456 83.6935 55.6532 83.9012 55.9647 84.1089C56.4839 84.4203 57.1069 84.8357 57.7298 85.251L57.8337 85.3548C57.626 83.9012 57.3145 81.7207 57.1069 79.5403V79.0211C57.1069 78.6058 57.003 78.0867 57.003 77.6714L57.1069 76.4254V75.6986V74.9718V74.2449V73.5181V72.7913V72.4798V72.1683C57.1069 71.753 57.1069 71.2339 57.1069 70.8185C57.1069 70.4032 57.1069 69.8841 57.2107 69.4687C57.2107 69.3649 57.3145 69.2611 57.4183 69.2611C57.5222 69.2611 57.626 69.3649 57.626 69.4687C57.7298 71.2339 57.9375 73.1028 58.1452 74.8679C58.3528 76.633 58.6643 78.502 58.9758 80.2671C59.0796 80.6824 59.0796 81.2016 59.1835 81.6169L59.3911 82.9667L59.9103 85.6663L60.2218 87.5353C60.3256 87.8468 60.3256 88.0544 60.4294 88.3659L60.6371 89.1966L60.8448 90.0272C60.9486 90.3387 60.9486 90.6502 61.0524 90.8578V90.754V90.8578L61.2601 91.1693C61.7792 91.8962 62.2984 92.5191 62.8175 93.1421V93.0383V91.377C62.7137 89.3004 62.7137 86.9123 62.7137 84.5242ZM64.5827 56.1784C64.6865 60.9546 64.7903 65.627 64.7903 70.4032C64.7903 72.2722 64.7903 74.1411 64.7903 76.0101L75.4849 53.4788C77.25 48.4949 78.9113 44.5494 80.7803 40.6038L80.3649 41.4345C81.0917 39.877 81.8186 38.5272 82.5454 37.2812L82.4415 37.4889C82.8569 36.8659 83.1684 36.2429 83.6875 35.6199C84.1028 34.997 84.622 34.4778 85.1411 33.8548C85.4526 33.5433 85.6603 33.3357 86.0756 33.128C86.3871 32.9203 86.8024 32.7127 87.2177 32.6089H87.3216C85.8679 30.3246 84.5182 28.3518 82.9607 26.5867L83.0645 26.7943C82.2339 25.756 81.5071 24.8216 80.6764 23.9909V24.0947L80.5726 23.9909L79.7419 23.2641C79.2228 22.8488 78.7036 22.4334 78.1845 22.0181L78.0806 21.9143C77.5615 21.499 76.9385 21.0836 76.3155 20.7722C75.7964 20.4607 75.1734 20.1492 74.5504 19.9415H74.4466C73.8236 19.7338 73.2006 19.63 72.4738 19.5262C72.4738 19.5262 72.37 19.5262 72.2661 19.5262C71.9546 19.5262 71.6432 19.5262 71.4355 19.63H71.2278H71.0202L70.501 19.7339C70.501 19.8377 70.501 19.8377 70.501 19.9415C70.1895 21.1875 69.6704 22.2258 69.1512 23.1603C69.9819 23.0564 70.8125 22.9526 71.6432 23.0564C71.8508 23.0564 71.9546 23.1603 71.9546 23.3679C71.9546 23.5756 71.8508 23.6794 71.6432 23.6794C70.2934 23.7832 69.1512 23.9909 67.9052 24.3024H68.0091C67.4899 24.5101 66.9708 24.6139 66.4516 24.7177C64.8942 25.2369 63.5444 25.8599 62.2984 26.4828L62.4022 26.379C62.1946 26.4828 62.0907 26.5867 61.9869 26.5867C61.8831 26.6905 61.8831 26.6905 61.7792 26.6905C61.5716 26.6905 61.4677 26.5867 61.4677 26.379C61.4677 26.379 61.4677 26.379 61.4677 26.2752C61.4677 26.1714 61.4677 26.1713 61.5716 26.1713C61.6754 26.0675 61.6754 26.0675 61.7792 25.9637C61.9869 25.756 62.2984 25.5484 62.6099 25.4445C62.8175 25.3407 63.129 25.133 63.3367 25.0292H63.0252C60.3256 25.0292 58.0413 24.5101 57.3145 24.1986C56.38 24.7177 55.5494 25.2369 54.8226 25.756H54.9264L54.5111 26.0675H54.4073C54.4073 26.0675 54.4073 26.1713 54.3034 26.1713C54.1996 26.2752 54.1996 26.379 54.0958 26.5867C53.9919 26.8982 53.8881 27.2097 53.7843 27.5211C53.6804 27.7288 53.6804 28.0403 53.5766 28.3518V28.4556V28.6633V28.8709V29.1824L53.6804 29.8054V29.9093C54.1996 29.5978 54.6149 29.3901 54.9264 29.1824C55.0302 29.1824 55.0302 29.0786 55.1341 29.0786C55.3417 29.0786 55.5494 29.2863 55.6532 29.4939C55.7571 30.4284 55.4456 32.1935 54.8226 33.3357H54.9264C55.1341 33.3357 55.4456 33.2318 55.7571 33.2318C56.2762 33.2318 56.6915 33.3357 57.1069 33.4395C58.1452 33.751 58.9758 34.2701 59.5988 34.8931C59.9103 35.2046 60.2218 35.6199 60.5333 36.0353C60.8448 36.4506 61.0524 36.8659 61.2601 37.2812C61.6754 38.008 62.0907 38.8387 62.4022 39.7732V39.877C62.506 40.2923 62.9214 41.7459 63.0252 42.1613C63.129 42.4728 63.2329 42.9919 63.3367 43.4072C63.4405 44.0302 63.5444 44.5494 63.6482 45.1724C64.0635 48.1834 64.375 51.8175 64.4788 55.5554L64.5827 56.1784ZM62.1946 26.5867C62.1946 26.5867 62.1946 26.4828 62.1946 26.5867V26.5867ZM93.2399 50.1562C93.4476 47.3528 93.2399 44.4455 92.6169 41.7459C92.3054 40.1885 91.7863 38.9425 91.1633 37.6966V37.8004C90.5403 36.5544 89.8135 35.4123 88.7752 34.4778C88.6714 34.374 88.5675 34.2701 88.3599 34.1663L88.2561 33.8548C88.0484 33.751 87.8407 33.6472 87.6331 33.6472C87.5292 33.6472 87.4254 33.6472 87.4254 33.6472C87.2177 33.751 86.9062 33.8548 86.5948 33.9586C86.2833 34.1663 86.0756 34.374 85.8679 34.5816C85.3488 35.1008 84.9335 35.6199 84.5182 36.1391C84.1028 36.6582 83.6875 37.2812 83.376 37.9042C82.753 38.8387 82.13 40.0847 81.5071 41.4345L81.4032 41.7459C80.7802 42.9919 80.1573 44.3417 79.6381 45.6915C78.8075 47.4566 77.7692 50.1562 76.8347 52.8558L76.4194 53.8941L64.8942 78.2943H65.621L66.9708 78.3982C67.5938 77.6714 68.3206 76.9445 68.9436 76.2177L69.0474 76.1139C69.255 75.8024 69.4627 75.5947 69.6704 75.3871L70.501 74.4526C71.747 72.999 73.2006 71.3377 74.6542 69.5726L74.8619 69.2611L75.6925 68.2228L76.5232 67.1845C76.627 66.9768 76.8347 66.873 76.9385 66.6653L77.3538 66.1462L77.873 65.3155L78.2883 64.7964L78.7036 64.2772L78.9113 63.9657L79.8458 62.5121L80.5726 61.3699C80.5726 61.2661 80.6764 61.2661 80.6764 61.2661C80.7802 61.2661 80.8841 61.3699 80.8841 61.4738V61.5776L80.2611 62.8236L79.5343 63.9657L79.4304 64.2772L79.2228 64.5887L78.9113 65.1078L78.5998 65.7308L77.873 66.873C77.7692 67.0806 77.6653 67.2883 77.4577 67.4959L76.7309 68.6381L75.9002 69.7802L75.0696 70.9224C74.0313 72.376 72.993 73.8296 71.9546 75.1794C72.2661 75.2833 72.7853 75.3871 73.4083 75.4909H73.6159H73.7198H73.8236C73.8236 75.4909 73.9274 75.4909 74.0313 75.3871C74.1351 75.3871 74.2389 75.2833 74.3427 75.1794L74.9657 74.5564C76.7308 72.6875 78.496 70.6109 80.2611 68.4304L80.4688 68.1189C80.7802 67.8074 80.9879 67.496 81.1956 67.1845C81.4032 66.873 81.7147 66.5615 81.9224 66.25L82.6492 65.3155L83.376 64.381C84.2067 63.2389 85.1411 61.8891 85.9718 60.5393L86.0756 60.3316L86.1794 60.2278H86.2833C86.3871 60.2278 86.3871 60.3316 86.3871 60.4355C85.4526 62.0968 84.622 63.5504 83.6875 64.9002L83.7913 64.6925L83.0645 65.7308L82.3377 66.7691C82.13 67.0806 81.8186 67.3921 81.6109 67.8074L80.8841 68.8458C79.9496 70.0917 79.1189 71.3377 78.0806 72.4798L78.496 72.5837C78.8075 72.6875 79.2228 72.7913 79.5343 72.7913C79.8458 72.7913 80.2611 72.7913 80.5726 72.7913C80.8841 72.6875 81.1956 72.5837 81.4032 72.376C85.7641 68.7419 89.0867 64.0695 90.9556 58.7742L91.0595 58.5665C91.9939 56.0746 92.6169 53.2711 92.8246 50.3639L93.2399 50.1562Z" />
<path d="M130.723 50.2601C130.619 49.6371 130.619 48.8065 130.619 47.9758C130.619 45.6915 130.93 43.4073 131.45 41.2268V41.4345C131.657 40.7077 131.761 40.0847 132.073 39.4617C132.696 34.7893 134.461 31.8821 135.187 30.7399C135.291 30.5323 135.603 30.5323 135.707 30.8438C135.914 31.3629 136.226 31.8821 136.537 32.2974C138.095 29.9093 139.652 27.9365 141.314 25.9637L141.21 26.0676C142.248 24.8216 143.286 23.7833 144.325 22.745L144.844 22.122C145.467 21.499 146.09 20.876 146.817 20.253L146.92 20.1492C146.92 20.0454 147.024 20.0454 147.024 20.0454C151.281 15.6845 155.434 14.2309 157.303 13.7117C157.719 13.6079 157.926 13.9194 157.926 14.3347C157.823 15.1653 157.719 15.8922 157.615 16.619C159.069 16.7228 160.522 17.0343 161.976 17.3458C166.752 18.4879 170.905 20.0454 174.955 21.9143L174.539 21.7067C175.37 22.122 176.097 22.5373 176.927 22.9526C177.343 23.1603 177.654 23.4718 178.07 23.7833C178.173 23.8871 178.381 24.0948 178.485 24.1986V24.3024V24.4063C178.589 24.6139 178.693 24.8216 178.796 25.0293L179.627 27.2097H179.731C179.939 27.3135 180.146 27.4174 180.354 27.5212C180.769 27.7289 181.184 28.0403 181.6 28.248C182.43 28.7672 183.261 29.2863 183.988 29.9093C184.715 30.5323 185.442 31.1553 186.168 31.7782C186.48 32.0897 186.895 32.5051 187.207 32.8166L187.414 33.128L187.622 33.4395L187.933 34.1664C188.453 34.8932 188.972 35.62 189.491 36.5545L189.595 36.6583C189.802 37.0736 190.01 37.4889 190.218 38.0081C190.322 38.2157 190.322 38.5272 190.425 38.8387V39.0464V39.1502C190.425 39.2541 190.425 39.3579 190.322 39.4617C190.218 39.6694 190.114 39.7732 189.906 39.877C189.802 39.877 189.802 39.877 189.699 39.877C189.491 39.877 189.387 39.7732 189.283 39.7732L189.179 39.6694L189.076 39.5655L188.764 39.3579C188.245 38.9426 187.726 38.6311 187.103 38.2157H186.999C186.688 38.0081 186.48 37.9043 186.168 37.6966C182.846 37.3851 174.228 36.4506 170.905 34.6855L170.801 34.7893H170.594H170.49C170.386 34.7893 170.178 34.6855 170.075 34.6855C169.971 34.6855 169.763 34.6855 169.555 34.6855C168.621 34.6855 167.79 34.997 167.064 35.4123C166.752 35.62 166.337 35.9315 166.129 36.243C165.506 36.8659 165.091 37.5928 164.675 38.3196C164.364 39.0464 163.949 39.7732 163.741 40.7077V40.8115C163.637 41.0192 163.637 41.2268 163.533 41.5383C163.845 41.5383 164.052 41.6422 164.364 41.746C164.675 41.8498 164.987 42.0575 165.195 42.1613C165.506 42.2651 165.714 42.4728 166.025 42.6805C167.064 43.4073 167.894 44.1341 168.829 44.9647C170.49 46.626 172.047 48.3911 173.293 50.3639L173.397 50.4678C174.643 52.2329 175.785 54.3095 176.72 56.4899L176.824 56.6976C177.239 57.6321 177.654 58.6704 177.966 59.8125L178.07 60.0202C178.485 61.4738 178.9 63.1351 179.004 64.7964V64.9002C179.419 65.4194 179.835 66.0424 180.354 66.5615C181.6 68.0151 183.053 69.2611 184.819 70.1956C186.376 71.1301 188.141 71.753 190.114 72.1684H190.218C192.087 72.4799 194.059 72.5837 196.032 72.376C198.005 72.1684 199.874 71.8569 201.847 71.3377C202.781 71.1301 203.716 70.8186 204.65 70.5071C205.585 70.1956 206.519 69.8841 207.454 69.6764C208.388 69.3649 209.323 69.0534 210.257 68.8458C210.776 68.742 211.192 68.5343 211.711 68.4305C212.23 68.3266 212.645 68.2228 213.164 68.119C213.683 68.0151 214.203 67.9113 214.618 67.9113C215.137 67.9113 215.656 67.9113 216.175 68.0151C216.383 68.119 216.591 68.119 216.798 68.2228H216.902L217.006 68.3266C217.214 68.5343 217.318 68.742 217.525 68.9496C217.629 69.1573 217.837 69.3649 217.941 69.5726C217.941 69.6764 218.044 69.6764 218.044 69.7803C218.044 69.7803 218.044 69.8841 218.044 69.9879C218.044 70.0918 218.044 70.0918 218.044 70.1956C218.044 70.2994 218.044 70.4032 218.044 70.6109C217.941 71.2339 217.733 71.6492 217.525 72.1684C217.421 72.376 217.214 72.6875 217.006 72.8952C216.902 72.999 216.902 72.999 216.798 73.1028C216.695 73.2067 216.591 73.2067 216.487 73.3105C216.383 73.3105 216.383 73.3105 216.279 73.3105C216.175 73.3105 216.072 73.3105 215.968 73.2067C215.864 73.1028 215.656 73.1028 215.552 72.8952C215.449 72.6875 215.345 72.4799 215.345 72.376V72.2722V72.1684V71.9607C215.241 71.753 215.241 71.5454 215.137 71.3377C215.033 70.9224 214.826 70.6109 214.514 70.2994C214.203 69.9879 213.891 69.8841 213.476 69.8841H213.372C213.164 69.8841 212.957 69.8841 212.749 69.9879C212.645 69.9879 212.541 69.9879 212.438 70.0918L212.126 70.1956C211.192 70.4032 210.361 70.9224 209.53 71.4416C209.115 71.6492 208.7 71.9607 208.284 72.2722C207.869 72.5837 207.454 72.8952 207.142 73.1028L204.754 74.868C204.131 75.3871 203.3 75.9063 202.574 76.5293L202.366 76.6331L201.431 77.2561C201.951 77.3599 202.47 77.3599 203.093 77.4637C203.508 77.4637 204.027 77.5676 204.443 77.5676H205.066H205.689C206.623 77.5676 207.454 77.5676 208.388 77.5676C210.153 77.5676 211.918 77.3599 213.683 76.9446C214.722 76.7369 215.552 76.4254 216.279 76.1139H216.175C217.11 75.6986 217.837 75.2833 218.564 74.868H218.46C219.913 73.9335 221.159 72.6875 221.99 71.1301C222.821 69.6764 223.236 68.0151 223.236 66.1462C223.236 65.3155 223.132 64.3811 222.924 63.5504C222.613 62.3045 221.99 61.1623 221.055 60.3317C220.64 59.9164 220.121 59.6049 219.498 59.3972L219.394 59.2934H219.29C218.875 59.1895 218.46 59.0857 217.941 59.0857H217.837C217.006 59.0857 216.175 59.3972 215.449 59.7087C214.618 60.124 213.891 60.5393 213.268 61.1623C212.541 61.6815 211.918 62.3045 211.399 62.9274C210.984 63.3428 210.569 63.8619 210.153 64.3811L209.946 64.5887L209.842 64.6926C209.634 64.9002 209.323 65.1079 209.011 65.1079H208.907C208.388 65.1079 207.973 64.5887 207.973 64.0696C207.973 64.0696 207.973 64.0696 207.973 63.9657V63.8619V63.6543C208.077 62.9274 208.18 62.2006 208.388 61.5776V61.6815C207.869 62.0968 207.454 62.5121 206.934 63.0313C206.623 63.2389 206.415 63.4466 206.104 63.6543L205.689 63.9657L205.273 64.2772C204.754 64.6926 204.235 65.1079 203.612 65.5232L201.951 66.7692C201.431 67.1845 200.808 67.5998 200.289 68.0151C199.666 68.4305 199.147 68.8458 198.42 69.1573C198.109 69.3649 197.694 69.4688 197.382 69.5726C196.863 69.7803 196.344 69.8841 195.825 69.8841C195.513 69.8841 195.305 69.8841 194.994 69.7803H194.682L194.371 69.6764C194.163 69.6764 194.059 69.5726 193.852 69.5726L193.333 69.3649L192.814 69.1573L192.606 69.0534H192.502H192.398H192.294C191.775 68.8458 191.464 68.3266 191.464 67.7037V67.5998C191.464 67.496 191.464 67.2883 191.568 67.1845C191.671 66.9768 191.775 66.873 191.983 66.7692L192.087 66.6653C192.191 66.5615 192.294 66.4577 192.398 66.3538C192.606 66.1462 192.814 65.8347 192.917 65.5232L193.437 64.6926C194.89 62.4083 196.24 60.0202 198.005 57.8397C198.836 56.6976 199.77 55.7631 200.808 54.8286C201.847 53.8942 202.989 53.1674 204.235 52.5444H204.339C205.689 52.0252 207.038 51.7137 208.492 51.6099C209.946 51.5061 211.295 51.5061 212.645 51.8176C214.826 52.2329 216.798 52.9597 218.564 54.1018H218.46C220.225 55.244 221.678 56.8014 222.717 58.5666V58.6704C223.444 59.7087 223.963 60.9547 224.378 62.3045V62.4083L224.586 62.9274L224.69 63.4466C225.001 64.3811 225.105 65.4194 225.105 66.5615C225.105 66.6653 225.105 66.7692 225.105 66.873C225.105 68.2228 224.897 69.5726 224.482 70.8186V70.7147C224.067 72.1684 223.444 73.4143 222.613 74.5565C221.471 76.3216 219.913 77.7752 218.252 78.9174H218.148C217.629 79.2289 217.006 79.5403 216.383 79.8518H216.279C214.826 80.5787 213.164 81.0978 211.503 81.4093H211.399H211.192H210.88L210.361 81.5131C209.634 81.617 209.011 81.617 208.284 81.617C206.934 81.7208 205.585 81.7208 204.235 81.7208C201.535 81.8246 198.836 81.8246 196.032 81.8246C193.956 81.8246 191.568 81.8246 189.179 81.8246C185.857 81.8246 182.534 81.8246 179.212 81.8246H179.731H175.681C174.955 81.8246 174.332 81.8246 173.605 81.8246C173.086 81.8246 172.67 81.8246 172.151 81.7208L171.944 81.8246L171.84 82.3438C171.736 82.9668 171.528 83.5897 171.424 84.2127V84.3166V84.4204V84.5242V84.628V84.7319C171.321 84.8357 171.321 84.9395 171.321 84.9395L171.217 85.0434C171.113 85.251 170.905 85.3549 170.801 85.4587C170.594 85.6664 170.282 85.874 170.075 86.0817C169.452 86.6008 168.725 87.12 167.998 87.5353L167.894 87.6391L167.271 88.0545L167.167 88.3659C167.064 88.5736 167.064 88.8851 166.96 89.1966L166.752 90.0272L166.544 90.8579C166.441 91.2732 166.337 91.5847 166.233 91.8962V91.7924C166.233 91.8962 166.129 92 166.129 92.1039V92.2077V92.3115V92.4153V92.5192L165.818 92.8307L165.298 93.5575C164.883 94.0766 164.468 94.5958 164.156 95.0111C163.949 95.2188 163.741 95.4264 163.533 95.7379C163.326 95.9456 163.118 96.1533 162.806 96.2571C162.703 96.2571 162.703 96.3609 162.599 96.3609C162.495 96.3609 162.391 96.4647 162.183 96.4647C161.664 96.4647 161.249 96.1532 161.145 95.6341C161.145 95.5303 161.145 95.4264 161.145 95.3226V95.2188V94.8035V93.869V92.1039C161.041 89.7158 161.041 87.3276 161.041 85.0434C161.041 83.2783 160.938 81.617 160.938 79.8518L160.211 79.9557L158.757 80.1633L158.238 80.2672C157.823 80.371 157.407 80.2672 157.2 79.9557C156.68 79.3327 155.954 78.3982 155.227 77.4637L154.915 77.0484C154.292 77.2561 153.462 77.4637 152.631 77.6714H152.423H152.216H152.112H152.008H151.904C151.8 77.6714 151.697 77.6714 151.697 77.6714C151.385 77.6714 151.074 77.5676 150.866 77.3599C150.658 77.2561 150.451 77.0484 150.243 76.9446C150.035 76.7369 149.931 76.5293 149.828 76.4254L149.516 76.0101C148.997 75.2833 148.478 74.5565 147.959 73.7258L147.855 73.622L147.751 73.7258C147.232 73.9335 146.609 74.1411 145.986 74.1411C145.571 74.1411 145.155 74.1411 144.636 74.1411C144.117 74.0373 143.702 73.8297 143.39 73.5182C138.925 69.7803 135.499 65.0041 133.526 59.501L133.422 59.2934C132.488 56.8014 131.865 53.7903 131.657 50.7793L130.723 50.2601ZM172.359 30.4284C172.67 30.6361 172.878 30.7399 172.982 30.8438C173.397 31.0514 173.813 31.2591 174.228 31.4668C175.058 31.8821 175.993 32.1936 176.824 32.5051C178.589 33.2319 180.354 33.8549 182.223 34.5817C183.988 35.3085 185.753 36.1391 187.414 37.1774C188.141 37.5928 188.66 38.0081 189.283 38.4234H189.179V38.3196C189.076 37.9043 188.972 37.4889 188.764 37.0736C188.349 36.1391 187.933 35.3085 187.414 34.4778V34.5817L187.207 34.2702L186.999 33.9587L186.791 33.6472L186.584 33.3357C186.272 33.0242 185.961 32.6089 185.649 32.2974C184.299 31.0514 182.846 29.9093 181.288 28.871L181.184 28.7672C180.769 28.5595 180.354 28.248 179.939 28.0403L179.627 27.9365V28.0403L179.212 28.248C178.277 28.6633 177.239 29.0786 176.097 29.494L175.889 29.5978C175.266 29.8055 174.747 29.9093 174.124 30.0131C173.812 30.0131 173.501 30.117 173.086 30.117C172.878 30.117 172.67 30.117 172.463 30.0131L172.359 30.4284ZM171.632 25.6522C171.736 25.8599 171.84 25.9637 171.944 26.1714C172.047 26.3791 172.151 26.4829 172.151 26.6905C172.255 26.8982 172.463 27.3135 172.567 27.625V27.7288L172.774 28.248C172.878 28.248 172.878 28.248 172.982 28.248C173.19 28.248 173.501 28.248 173.709 28.248C174.332 28.248 174.851 28.1442 175.37 28.0403H175.266C176.408 27.8327 177.343 27.625 178.277 27.3135H178.07C177.862 26.4829 177.654 25.7561 177.447 25.1331V25.3407C177.343 25.1331 177.343 24.9254 177.239 24.7178V24.6139C177.135 24.5101 177.031 24.4063 177.031 24.3024C176.72 23.9909 176.408 23.7833 175.993 23.5756C175.266 23.1603 174.539 22.745 173.709 22.3297C170.178 20.5645 166.025 19.0071 161.768 17.9688L161.353 17.8649C159.692 17.4496 157.926 17.1381 156.161 17.0343C155.746 17.0343 155.331 17.0343 154.812 17.0343C154.604 17.0343 154.396 17.0343 154.189 17.0343H153.877C153.773 17.0343 153.669 17.0343 153.566 17.0343C153.462 17.0343 153.254 17.0343 153.15 17.1381L152.839 17.242C151.904 17.5534 151.074 17.8649 150.347 18.3841C149.516 18.9032 148.789 19.4224 148.063 19.9416L147.959 20.0454C148.478 19.7339 149.101 19.4224 149.724 19.2147C150.451 18.9032 151.281 18.7994 152.216 18.7994C152.527 18.7994 152.839 18.7994 153.15 18.9032H153.462H153.773L154.292 19.0071C155.642 19.3186 157.096 19.6301 158.446 20.0454C159.795 20.4607 161.249 20.7722 162.599 21.2914C163.949 21.7067 165.298 22.2258 166.648 22.8488C168.309 23.5756 169.659 24.4063 171.009 25.2369L170.905 25.1331C171.009 25.2369 171.009 25.2369 171.113 25.3407C171.528 25.4446 171.632 25.5484 171.632 25.6522ZM161.041 21.9143C158.446 21.1875 156.265 20.6684 155.331 20.4607C155.746 21.7067 156.68 23.2641 156.992 23.4718H157.096C157.511 23.5756 157.926 23.6795 158.342 23.8871H158.446C161.353 24.5101 164.468 23.9909 166.129 23.6795C165.818 23.5756 165.61 23.368 165.298 23.2641C164.468 22.9526 163.014 22.5373 161.041 21.9143ZM198.42 76.5293C200.393 75.6986 202.158 74.7641 203.716 73.7258L203.612 73.8297C204.443 73.3105 205.273 72.7913 206.104 72.2722C206.934 71.753 207.765 71.2339 208.7 70.7147C209.53 70.1956 210.465 69.7803 211.399 69.4688L211.815 69.3649L212.23 69.2611L212.645 69.1573L213.06 69.0534C213.164 69.0534 213.164 69.0534 213.268 69.0534C213.683 69.0534 213.995 69.1573 214.41 69.2611C214.826 69.4688 215.137 69.7803 215.449 70.0918C215.656 70.2994 215.76 70.6109 215.864 70.8186C215.968 71.0262 216.072 71.3377 216.175 71.5454L216.279 71.8569L216.383 71.753L216.591 71.4416C216.798 71.1301 217.006 70.7147 217.214 70.2994C217.214 70.1956 217.318 70.0918 217.318 69.9879C217.214 69.6764 217.11 69.4688 216.902 69.2611C216.798 69.0534 216.591 68.8458 216.383 68.6381C216.279 68.5343 216.072 68.5343 215.968 68.4305C215.656 68.3266 215.241 68.3266 214.826 68.3266C214.722 68.3266 214.618 68.3266 214.514 68.3266C213.995 68.3266 213.58 68.4305 213.06 68.5343C212.126 68.742 211.192 68.9496 210.257 69.2611C209.323 69.5726 208.388 69.8841 207.454 70.1956C206.519 70.5071 205.585 70.8186 204.65 71.1301C203.716 71.4416 202.781 71.753 201.743 71.9607C199.77 72.4799 197.901 72.8952 195.825 73.1028C193.852 73.3105 191.775 73.3105 189.802 72.999C187.622 72.6875 185.753 71.9607 183.988 70.9224H184.092C183.78 70.8186 183.573 70.6109 183.365 70.4032C184.611 71.3377 185.961 72.2722 187.414 72.999L187.518 73.1028C189.595 74.245 192.087 75.2833 194.682 75.9063H194.89C195.721 76.1139 196.759 76.4254 197.901 76.6331H198.109L198.42 76.5293ZM173.916 80.0595C174.539 80.0595 175.058 80.0595 175.681 80.0595L179.731 80.1633L187.933 80.371C190.633 80.371 193.333 80.4748 196.032 80.4748C198.732 80.4748 201.431 80.4748 204.131 80.4748C205.481 80.4748 206.831 80.4748 208.18 80.371C209.115 80.371 210.049 80.2672 210.88 80.1633H210.672H210.88H211.088C211.399 80.0595 211.711 80.0595 212.022 79.9557C214.722 79.3327 217.11 78.0867 219.083 76.4254C220.121 75.5948 220.952 74.6603 221.782 73.5182C222.509 72.4799 223.132 71.3377 223.547 70.0918V69.9879C223.859 68.9496 224.067 67.7036 224.067 66.3538C224.067 65.5232 223.963 64.7964 223.859 63.9657V64.0696C223.755 63.7581 223.755 63.4466 223.651 63.1351L223.547 62.6159L223.34 62.0968C222.924 60.8508 222.301 59.6049 221.575 58.5666C220.432 56.9053 219.083 55.4516 217.421 54.4133C216.383 53.7903 215.241 53.1674 213.891 52.8559H213.787C212.541 52.4405 211.088 52.2329 209.53 52.2329C207.973 52.2329 206.415 52.4405 204.962 52.9597H205.066C204.754 53.0635 204.443 53.1674 204.131 53.2712C202.885 53.7903 201.743 54.5172 200.808 55.3478C199.77 56.1784 198.94 57.1129 198.109 58.1512C197.382 59.0857 196.551 60.124 195.825 61.2661L195.721 61.37C194.994 62.5121 194.267 63.6543 193.644 64.7964C193.333 65.4194 192.917 65.9385 192.502 66.5615C192.294 66.7692 192.087 67.0807 191.879 67.2883L191.671 67.3922C191.671 67.3922 191.671 67.496 191.671 67.5998L191.775 67.7037H191.879H192.087C192.294 67.7037 192.398 67.7037 192.606 67.7037C192.814 67.7037 192.917 67.7037 193.125 67.7037C193.229 67.7037 193.436 67.7037 193.54 67.7037H193.748H193.956C194.89 67.496 195.721 67.2883 196.448 66.9768H196.344L196.759 66.7692L197.174 66.5615C197.486 66.4577 197.694 66.25 198.005 66.0424C198.524 65.7309 199.147 65.3155 199.666 65.0041C200.393 64.4849 201.535 63.7581 202.781 63.1351L203.197 62.9274L204.131 62.4083C204.443 62.3045 204.65 62.0968 204.962 61.8891C206 61.1623 207.142 60.2278 208.388 59.501L210.257 58.4627L209.115 60.2278C208.492 61.2661 208.077 62.5121 207.869 63.8619L208.077 63.5504C208.492 62.9274 209.011 62.5121 209.426 61.993C210.049 61.37 210.776 60.6432 211.503 60.124C212.23 59.6049 212.957 59.0857 213.787 58.6704H213.891C214.722 58.2551 215.656 58.0474 216.695 57.9436H216.798C217.421 57.9436 218.044 58.0474 218.564 58.2551L218.771 58.3589L218.979 58.4627C220.121 58.9819 221.055 59.7087 221.782 60.747C222.301 61.5776 222.717 62.4083 222.924 63.3428C223.028 64.0696 223.132 64.9002 223.132 65.7309C223.132 67.8075 222.613 69.7803 221.575 71.5454V71.4416C220.64 73.1028 219.394 74.4526 217.837 75.3871C217.11 75.9063 216.383 76.3216 215.552 76.6331H215.449C214.722 76.9446 213.891 77.2561 212.957 77.5676H212.853C211.088 78.0867 209.323 78.3982 207.454 78.502C206.519 78.6059 205.585 78.6059 204.754 78.6059H204.027H203.3C202.885 78.6059 202.366 78.6059 201.951 78.502C201.016 78.3982 200.185 78.3982 199.251 78.1905C198.836 78.1905 198.317 78.0867 197.901 77.9829L197.174 77.8791C194.89 77.4637 192.917 76.9446 190.945 76.3216L191.256 76.4254C189.283 75.8024 187.622 74.9718 186.065 74.1411L186.272 74.245C184.611 73.4143 183.157 72.376 181.704 71.2339C180.458 70.1956 179.419 69.1573 178.381 68.0151C178.277 71.4416 177.447 74.6603 176.097 77.5676L176.201 77.4637C176.097 77.7752 175.889 77.9829 175.785 78.1905C175.578 78.3982 175.37 78.6059 175.266 78.8135C175.058 79.0212 174.435 79.5403 174.02 79.8518L173.916 80.0595ZM162.08 56.2823C162.08 58.5666 162.08 61.2661 162.08 64.0696C162.08 73.8297 162.183 83.4859 162.391 93.1422V91.6885V93.3498C162.91 92.8307 163.326 92.2077 163.845 91.4809L163.949 91.377L164.156 91.0656V90.9617C164.26 90.7541 164.26 90.5464 164.364 90.2349L164.572 89.4043L164.779 88.5736C164.883 88.2621 164.883 88.0545 164.987 87.743L165.298 85.874L165.818 83.1744L166.025 81.8246C166.129 81.4093 166.129 80.8901 166.233 80.4748C166.441 79.4365 166.752 77.6714 166.96 75.8024L167.064 75.0756C167.271 73.3105 167.479 71.4415 167.583 69.6764C167.583 69.5726 167.687 69.4688 167.79 69.4688C167.894 69.4688 167.998 69.5726 167.998 69.6764C167.998 70.0918 167.998 70.6109 168.102 71.0262C168.206 71.4416 168.102 71.9607 168.102 72.376V72.6875V72.999V74.3488L167.998 75.6986V76.4254L167.894 77.7752L167.79 79.125L167.686 80.4748C167.479 82.1361 167.271 83.7974 167.064 85.4587C168.102 84.8357 168.725 84.4204 169.348 84.0051L168.932 84.2127C169.348 84.0051 169.555 83.6936 169.867 83.4859C170.075 82.8629 170.49 81.5131 170.905 80.0595L171.113 79.3327C171.528 77.8791 171.944 76.4254 172.255 74.9718C172.463 74.1412 172.774 72.6875 173.086 71.2339L173.19 70.6109C173.501 69.1573 173.709 67.7036 173.916 66.1462C173.916 66.0424 174.02 66.0424 174.124 66.0424C174.228 66.0424 174.332 66.1462 174.332 66.25C174.228 67.9113 174.124 69.4688 173.916 71.0262V70.7147C173.709 72.1684 173.501 73.7258 173.293 75.1795C173.086 76.6331 172.774 78.1905 172.463 79.6442L172.359 79.9557L172.567 79.8518C172.982 79.5403 173.397 79.3327 173.812 79.0212C174.228 78.7097 174.643 78.3982 174.955 78.0867C175.266 77.7752 175.578 77.3599 175.785 76.9446C176.72 74.9718 177.343 72.7914 177.654 70.4032V70.2994C177.758 69.4688 177.862 68.4305 177.862 67.496C177.862 66.0424 177.758 64.5887 177.55 63.2389V63.3428C177.135 60.8508 176.512 58.5666 175.578 56.4899L175.681 56.6976C174.747 54.3095 173.605 52.3367 172.255 50.3639L172.359 50.4678C171.009 48.3911 169.555 46.626 167.894 45.0686C167.064 44.2379 166.233 43.5111 165.298 42.8881H165.195C164.675 42.5766 164.26 42.2651 163.741 42.0575C163.533 41.9536 163.222 41.8498 163.014 41.8498H162.91V41.9536L162.806 42.1613C162.703 42.369 162.703 42.6805 162.599 42.992C162.599 43.3034 162.495 43.5111 162.495 43.8226C162.391 44.3418 162.391 44.9647 162.391 45.5877C162.287 46.7299 162.287 47.9758 162.287 49.118C162.287 50.2601 162.287 51.5061 162.287 52.6482L162.08 56.2823ZM160.211 70.4032C160.211 65.627 160.211 60.9547 160.418 56.1784C160.626 52.2329 160.834 48.495 161.353 44.8609L161.249 45.4839C161.353 44.3418 161.56 43.5111 161.768 42.5766V42.7843L161.872 42.369C161.976 41.9537 162.391 40.5 162.495 40.0847C162.806 39.0464 163.222 38.2157 163.637 37.3851V37.4889C163.845 37.0736 164.156 36.6583 164.364 36.243C164.675 35.8276 164.987 35.5162 165.298 35.1008C166.025 34.374 166.856 33.9587 167.79 33.6472C168.206 33.5434 168.621 33.4395 169.14 33.4395C169.452 33.4395 169.763 33.4395 169.971 33.5434H170.075C169.555 32.5051 169.14 30.6361 169.244 29.7016C169.244 29.494 169.452 29.2863 169.763 29.2863C169.867 29.2863 169.971 29.2863 169.971 29.3901C170.282 29.5978 170.698 29.8055 171.217 30.117V30.0131L171.321 29.3901V29.0786V28.871V28.6633C171.217 28.0403 171.009 27.5212 170.905 27.1059V27.2097C170.801 26.8982 170.698 26.5867 170.49 26.3791C170.49 26.3791 170.49 26.2752 170.386 26.2752L170.282 26.1714L169.867 25.8599C169.14 25.3407 168.413 24.8216 167.583 24.4063L167.479 24.3024C165.714 24.8216 163.741 25.0293 161.768 25.1331H161.457C162.08 25.4446 162.703 25.8599 163.222 26.1714L163.326 26.2752L163.429 26.3791V26.4829V26.5867C163.429 26.6905 163.326 26.8982 163.118 26.8982C163.014 26.8982 162.91 26.8982 162.91 26.7944C162.806 26.6905 162.703 26.6905 162.495 26.5867L161.976 26.2752C161.041 25.7561 159.899 25.3407 158.653 24.9254H158.446C157.926 24.8216 157.407 24.7178 156.888 24.5101C155.85 24.1986 154.604 23.9909 153.358 23.8871H153.254C153.046 23.8871 152.943 23.7833 152.943 23.5756C152.943 23.368 153.046 23.2641 153.254 23.2641C154.085 23.2641 154.915 23.2641 155.746 23.368C155.123 22.4335 154.708 21.3952 154.396 20.253V20.1492C154.396 20.1492 154.396 20.1492 154.396 20.0454V19.9416L153.877 19.8377H153.669H153.462C153.254 19.8377 152.943 19.7339 152.631 19.7339C151.904 19.7339 151.177 19.8377 150.554 20.1492C149.931 20.3569 149.308 20.6684 148.685 20.9799C148.062 21.2913 147.543 21.7067 146.92 22.122C145.986 22.8488 145.155 23.4718 144.428 24.0948L144.325 24.1986C143.598 25.0293 142.871 25.8599 142.144 26.7944L142.04 26.8982C140.898 28.3518 139.86 29.8055 138.822 31.2591L137.887 32.7127H137.991C138.406 32.8166 138.822 33.0242 139.133 33.2319C139.445 33.4395 139.756 33.751 140.068 33.9587C140.587 34.4778 141.106 35.1008 141.521 35.7238C141.936 36.243 142.248 36.8659 142.663 37.4889L142.767 37.5928C143.39 38.6311 144.013 39.877 144.74 41.123L144.844 41.4345C145.259 42.1613 145.882 43.5111 146.401 44.8609L146.609 45.4839C147.44 47.249 148.478 49.9486 149.516 52.6482L149.828 53.4788L160.522 76.0101L160.211 70.4032ZM162.703 26.4829C162.703 26.4829 162.703 26.5867 162.703 26.4829C162.703 26.5867 162.703 26.5867 162.703 26.4829V26.5867C162.703 26.5867 162.703 26.5867 162.703 26.4829C162.703 26.5867 162.703 26.4829 162.703 26.4829ZM132.384 41.6422C131.969 43.5111 131.657 45.6915 131.657 47.9758C131.657 48.7026 131.657 49.5333 131.761 50.2601V50.1563C132.176 56.1784 134.253 61.5776 137.472 66.1462L137.368 66.0424C139.029 68.4305 140.898 70.5071 143.079 72.2722C143.286 72.4799 143.598 72.5837 143.909 72.6875C144.221 72.7913 144.532 72.7913 144.948 72.6875C145.467 72.5837 145.986 72.4799 146.505 72.2722C145.571 71.0262 144.636 69.8841 143.702 68.6381L142.248 66.6653L141.521 65.627L140.794 64.5887C139.964 63.4466 139.133 62.0968 138.406 60.6432L138.302 60.3317C138.302 60.3317 138.302 60.3317 138.302 60.2278C138.302 60.124 138.406 60.0202 138.51 60.0202C138.614 60.0202 138.614 60.0202 138.614 60.124C139.548 61.6815 140.483 63.0313 141.417 64.2772L141.314 64.1734L142.04 65.1079L142.767 66.0424L143.494 66.9768L144.221 67.9113C146.194 70.2994 147.959 72.376 149.828 74.4526L149.724 74.3488L149.828 74.4526L150.451 75.0756C150.554 75.1795 150.658 75.1795 150.762 75.2833C150.866 75.2833 150.866 75.3871 150.97 75.3871H151.074H151.177L151.697 75.2833C152.112 75.1795 152.423 75.0756 152.839 74.9718C151.8 73.622 150.554 71.8569 149.308 70.0918L148.893 69.5726L148.166 68.4305L147.44 67.2883L147.024 66.6653L146.713 66.0424L146.297 65.4194L145.986 64.7964L145.674 64.1734L145.363 63.5504L144.74 62.3045L144.117 61.0585C144.117 61.0585 144.117 61.0585 144.117 60.9547C144.117 60.8508 144.221 60.747 144.325 60.747C144.325 60.747 144.428 60.747 144.428 60.8508L145.155 61.993L146.09 63.4466L146.297 63.7581L147.128 64.9002L147.543 65.4194L147.959 65.9385L148.374 66.4577L149.205 67.496L150.035 68.5343L150.866 69.5726C152.008 70.9224 153.15 72.376 154.396 73.7258L155.227 74.6603L155.434 74.7641C155.642 74.9718 155.746 75.1795 155.954 75.3871L156.057 75.4909C156.68 76.2178 157.407 76.9446 158.03 77.6714V77.7752L159.38 77.6714H160.107L148.582 53.8942C146.92 49.0141 145.259 44.9647 143.39 41.123L143.702 41.8498C143.079 40.6039 142.456 39.2541 141.729 38.1119C141.417 37.4889 141.002 36.8659 140.587 36.3468C140.171 35.7238 139.756 35.2047 139.237 34.7893C139.029 34.5817 138.718 34.374 138.51 34.1664C138.199 33.9587 137.991 33.8549 137.679 33.751C137.576 33.751 137.472 33.751 137.472 33.751C137.264 33.751 137.056 33.8549 136.849 33.9587L136.745 34.0625L136.33 34.374C135.395 35.3085 134.565 36.4506 133.942 37.6966V37.8004C133.215 39.0464 132.799 40.2924 132.384 41.6422Z" />
<path d="M69.7742 102.072H66.867C58.9758 102.072 52.5383 108.613 52.5383 116.712V134.571C52.5383 142.669 58.9758 149.211 66.867 149.211H69.7742C77.6653 149.211 84.1028 142.669 84.1028 134.571V116.712C84.1028 108.613 77.6653 102.072 69.7742 102.072ZM74.7581 141.527C74.7581 145.369 72.0585 148.484 68.8397 148.484C65.621 148.484 62.9214 145.369 62.9214 141.527V109.859C62.9214 106.017 65.621 102.902 68.8397 102.902C72.0585 102.902 74.7581 106.017 74.7581 109.859V141.527Z" />
<path d="M207.661 105.602V146.407C207.661 146.926 207.973 147.446 208.492 147.653L209.634 148.069C210.049 148.276 210.361 148.692 210.361 149.211H196.344C196.344 148.692 196.655 148.276 197.071 148.069L198.213 147.653C198.732 147.446 199.043 146.926 199.043 146.407V105.602C199.043 104.875 198.628 104.252 197.901 103.941L197.071 103.629C196.655 103.421 196.344 103.006 196.344 102.487H210.361C210.361 103.006 210.049 103.421 209.634 103.629L208.803 103.941C208.077 104.252 207.661 104.875 207.661 105.602Z" />
<path d="M177.135 147.653H187.414C188.349 147.653 189.179 147.134 189.595 146.407L191.568 143.085C191.879 142.669 192.294 142.358 192.814 142.358V147.653C192.814 148.38 192.294 148.899 191.568 148.899H165.402C165.402 148.484 165.61 148.172 166.025 148.069L167.583 147.653C167.894 147.549 168.102 147.238 168.102 146.926V105.602C168.102 104.875 167.686 104.252 167.064 104.044L166.129 103.733C165.714 103.525 165.402 103.11 165.402 102.591H179.835C179.835 103.11 179.523 103.525 179.108 103.733L178.173 104.044C177.55 104.252 177.135 104.875 177.135 105.602V147.653Z" />
<path d="M154.188 103.733C155.123 103.733 155.954 104.252 156.369 104.979L158.342 108.301C158.653 108.717 159.069 109.028 159.588 109.028V103.733C159.588 103.006 159.069 102.487 158.342 102.487H130.204V103.11L132.903 103.941V147.03L130.93 147.861C130.515 148.069 130.204 148.484 130.204 149.003H158.446C159.069 149.003 159.588 148.484 159.588 147.861V142.462C159.069 142.462 158.549 142.773 158.342 143.188L156.369 146.407C155.85 147.238 155.019 147.653 154.085 147.653H141.833V126.991H151.593L152.32 128.964C152.527 129.379 152.943 129.691 153.358 129.691V122.838C152.839 122.838 152.423 123.149 152.32 123.564L151.593 125.537H141.833V103.733H154.188Z" />
<path d="M125.012 102.695H117.848V103.006C117.848 103.318 118.055 103.525 118.263 103.629L119.509 104.044C120.028 104.252 120.444 104.771 120.547 105.29V133.221L96.6663 103.525C96.251 103.006 95.628 102.695 95.005 102.591H94.6935H94.5897H90.3326C90.3326 103.006 90.5403 103.318 90.9556 103.421L91.9939 103.733C92.6169 103.94 93.0322 104.46 93.0322 105.186V140.593V145.992C93.0322 146.615 92.7208 147.134 92.0978 147.342L90.6441 147.861C90.4365 147.965 90.2288 148.172 90.2288 148.484V148.795H97.3931V148.484C97.3931 148.172 97.1855 147.965 96.9778 147.861L95.5242 147.342C95.1089 147.238 94.7974 146.926 94.6935 146.511V116.089H94.9012L120.34 148.069C120.755 148.588 120.755 148.899 121.378 148.899C121.793 148.899 122.209 148.588 122.209 148.069V105.602C122.312 104.979 122.728 104.46 123.247 104.252L124.493 103.733C124.701 103.629 124.908 103.421 124.908 103.11L125.012 102.695Z" />
<path d="M29.3841 120.138C29.2802 120.138 29.1764 120.138 29.1764 120.242C29.1764 120.45 29.1764 121.592 29.1764 121.799C29.2802 123.253 32.1875 125.745 35.7177 127.51C36.6522 127.925 36.5484 128.341 36.5484 129.275V141.527C36.5484 145.369 33.8488 148.484 30.63 148.484C27.4113 148.484 24.7117 145.369 24.7117 141.527V109.859C24.7117 106.017 26.2691 102.902 30.63 102.902C36.9637 103.006 36.3407 110.69 36.3407 114.635C36.3407 115.154 36.5484 115.57 36.9637 115.881C38.7288 116.919 45.0625 119.723 45.4778 118.788C45.5816 118.477 47.3468 102.383 30.4224 102.175C25.9576 102.072 14.3286 102.798 14.3286 116.816V134.674C14.3286 142.773 17.132 149.211 30.5262 149.315C47.3468 149.418 45.6855 137.166 45.374 128.652C45.374 127.822 44.8548 127.199 44.128 126.887C40.5978 125.018 35.7177 122.838 30.7339 120.761L29.3841 120.138Z" />
<path d="M112.449 89.8195C110.372 89.8195 108.503 88.5736 107.672 86.7046C107.361 86.0816 107.257 85.3548 107.257 84.5242C107.257 83.0706 107.776 81.8246 108.711 80.8901C109.645 79.8518 110.995 79.2288 112.552 79.2288C113.279 79.2288 114.006 79.3327 114.733 79.6441C116.083 80.2671 117.121 81.3054 117.536 82.6552C117.744 83.2782 117.952 83.9012 117.952 84.628C117.952 86.8085 116.602 88.6774 114.629 89.5081C113.798 89.7157 113.175 89.8195 112.449 89.8195ZM112.449 80.371C110.683 80.371 109.23 81.5131 108.607 83.0706C108.399 83.4859 108.295 84.005 108.295 84.5242C108.295 85.6663 108.815 86.8085 109.541 87.5353C110.268 88.2621 111.306 88.6774 112.345 88.6774H112.449C112.968 88.6774 113.591 88.5736 114.006 88.3659C115.044 87.9506 115.771 87.2238 116.29 86.1855C116.498 85.7701 116.602 85.1472 116.602 84.628C116.602 84.628 116.602 84.628 116.602 84.5242C116.602 83.382 116.187 82.3437 115.46 81.6169C114.733 80.8901 113.695 80.371 112.449 80.371Z" />
<path d="M120.547 78.1906C119.821 78.1906 118.575 77.8791 118.055 77.4637C117.848 77.3599 117.744 77.0484 117.744 76.7369C117.744 76.4254 117.952 76.1139 118.159 76.0101C118.471 75.8024 119.301 75.2833 119.924 74.868C120.859 74.0373 121.897 73.3105 122.728 72.5837C124.078 71.4416 125.22 70.5071 126.05 69.9879C126.154 69.8841 126.362 69.7803 126.57 69.7803C126.881 69.7803 127.193 69.9879 127.4 70.1956C127.504 70.5071 127.504 70.8186 127.4 71.1301C126.05 73.2067 123.455 76.8407 121.69 77.9829C121.274 78.1905 120.963 78.1906 120.547 78.1906ZM119.094 76.8408C119.509 77.0484 120.132 77.1522 120.547 77.1522C120.755 77.1522 120.859 77.1522 120.859 77.1522C122.209 76.3216 124.078 73.7258 125.324 71.9607C124.701 72.376 124.078 72.999 123.351 73.622C122.52 74.3488 121.586 75.0756 120.547 75.9063C120.132 76.1139 119.509 76.5293 119.094 76.8408Z" />
<path d="M96.0434 88.8851C95.8357 89.0928 95.628 89.1966 95.3166 89.1966C94.7974 89.1966 94.4859 88.7813 94.4859 88.366C94.4859 87.9506 94.9012 87.5353 95.3166 87.5353C95.5242 87.3277 95.7319 87.0162 95.9395 86.8085C95.4204 86.9123 95.0051 86.9123 94.4859 86.9123C93.2399 86.9123 92.2016 87.0162 91.371 87.0162C90.6442 87.0162 90.125 87.12 89.6059 87.12C87.9446 87.12 86.6986 86.8085 85.1411 85.251C84.9335 85.0434 84.8297 84.8357 84.8297 84.5242C84.8297 84.3166 84.8297 84.2127 84.9335 84.1089C85.1411 83.6936 85.4526 83.4859 85.868 83.4859C86.0756 83.4859 87.1139 83.0706 87.9446 82.6553C90.2288 81.5131 93.7591 79.9557 97.0817 79.9557C97.3932 79.9557 97.6008 79.9557 97.9123 79.9557C102.377 80.371 104.038 83.0706 104.454 84.3166C104.557 84.6281 104.661 85.0434 104.454 85.4587C104.246 86.1855 103.415 87.9506 101.546 88.2621C100.923 88.366 100.197 88.4698 99.4698 88.4698C98.6391 88.4698 97.9123 88.5736 97.2893 88.6775C96.9778 88.7813 96.5625 88.8851 96.251 88.989C96.251 88.7813 96.1472 88.8851 96.0434 88.8851ZM97.7047 85.3549H97.9123L99.9889 85.4587L98.12 86.497C97.6008 86.8085 97.0817 87.12 96.7702 87.4315L96.9778 87.3277C97.7047 87.12 98.5353 87.0162 99.3659 87.0162C99.9889 87.0162 100.612 86.9123 101.235 86.8085C102.481 86.6008 103 85.3549 103.312 84.7319V84.6281C103.312 84.5242 103.312 84.5242 103.312 84.4204C102.896 83.3821 101.546 81.0978 97.7047 80.7863C97.497 80.7863 97.2893 80.7863 96.9778 80.7863C93.9668 80.7863 90.6442 82.3438 88.3599 83.3821C87.1139 84.0051 86.4909 84.3166 85.9718 84.3166C87.2178 85.5625 88.1522 85.7702 89.502 85.7702C90.0212 85.7702 90.5403 85.7702 91.2672 85.6664C92.2016 85.6664 93.2399 85.5625 94.4859 85.5625C95.0051 85.5625 95.5242 85.4587 96.0434 85.4587H95.9395C96.5625 85.4587 97.0817 85.3549 97.7047 85.3549Z" />
<path d="M104.142 78.1906C103.727 78.1906 103.415 78.0867 103.208 77.9829C101.443 76.8407 98.8468 73.2067 97.497 71.1301C97.2893 70.8186 97.2893 70.5071 97.497 70.1956C97.6008 69.8841 97.9123 69.7803 98.3276 69.7803C98.5353 69.7803 98.743 69.8841 98.8468 69.9879C99.6774 70.6109 100.82 71.5454 102.169 72.5837C103 73.3105 103.934 74.0373 104.973 74.868C105.492 75.2833 106.323 75.8024 106.738 76.0101C106.946 76.1139 107.153 76.4254 107.153 76.7369C107.153 77.0484 107.049 77.2561 106.842 77.4637C105.907 77.9829 105.077 78.1906 104.142 78.1906ZM103.831 77.0484C103.831 77.0484 103.934 77.0484 104.142 77.0484C104.557 77.0484 105.18 76.9446 105.596 76.7369C105.18 76.4254 104.557 76.1139 104.142 75.6986C103.104 74.868 102.169 74.1412 101.339 73.4143L99.3659 71.753C100.612 73.7258 102.585 76.2178 103.831 77.0484Z" />
<path d="M112.137 76.5292C111.722 76.5292 111.41 76.3216 111.306 75.9062C110.787 74.3488 110.268 72.999 109.645 71.753L109.749 71.9607C108.399 69.1573 106.842 65.3155 106.946 60.0202C107.049 56.3861 108.918 52.2329 110.061 49.4294C110.58 48.2873 111.099 47.0413 111.099 46.7298C111.099 46.4183 111.203 46.2107 111.41 46.003C111.826 45.5877 112.552 45.5877 113.072 46.003C115.46 48.3911 115.356 49.9486 115.148 53.7903C115.044 54.5171 115.044 55.3478 114.941 56.2823C114.941 56.8014 114.837 57.3206 114.837 57.7359V58.0474C115.148 57.7359 115.46 57.4244 115.771 57.2167C115.875 57.1129 116.083 57.0091 116.29 57.0091C116.602 57.0091 116.913 57.1129 117.017 57.4244C117.225 57.6321 117.225 57.9435 117.121 58.255L117.017 58.4627C116.913 58.7742 116.81 58.9818 116.706 59.2933C116.498 60.4355 116.29 61.4738 116.394 63.0312C116.498 65.1079 115.875 68.8458 114.421 71.753C113.902 72.8951 113.383 74.1411 112.968 75.5948V75.6986C112.864 76.2177 112.552 76.5292 112.137 76.5292ZM112.241 46.8337C112.241 47.3528 111.826 48.2873 111.099 49.9486C109.957 52.6482 108.192 56.6976 107.984 60.124C107.776 65.2117 109.334 68.8458 110.58 71.5454C110.995 72.4798 111.514 73.5181 111.929 74.6603L112.033 74.8679C112.345 73.8296 112.76 72.6875 113.383 71.4415C114.629 68.8458 115.252 65.2117 115.148 63.2389C115.148 63.0312 115.148 62.8236 115.148 62.6159C115.148 61.2661 115.356 59.9163 115.667 58.6704V58.7742L115.252 59.1895C115.044 59.3972 114.733 59.501 114.421 59.501C114.11 59.501 113.798 59.3972 113.591 59.1895C113.383 58.9818 113.383 58.7742 113.383 58.4627V58.3589L113.487 57.7359C113.591 57.2167 113.591 56.8014 113.591 56.3861C113.695 55.4516 113.695 54.621 113.798 53.7903C114.214 49.9486 114.318 48.8064 112.241 46.8337Z" />
<path d="M95.9395 3.32867L94.5897 3.64016L94.2783 2.0827L97.497 1.45972L99.366 10.8045L97.497 11.116L95.9395 3.32867Z" />
<path d="M105.907 9.35079L107.984 6.3397C107.569 6.54736 107.153 6.65119 106.634 6.65119C104.973 6.65119 103.727 5.40522 103.623 3.74393C103.519 2.08264 104.454 0.317524 107.049 0.109863C109.438 -0.0977987 110.787 1.45966 110.891 3.12095C110.995 4.36692 110.476 5.30139 109.853 6.13204L107.257 10.1814L105.907 9.35079ZM105.596 3.43244C105.596 4.36692 106.426 5.09373 107.257 5.09373C107.361 5.09373 107.361 5.09373 107.465 5.09373C108.399 5.09373 109.126 4.26309 109.126 3.43244C109.126 3.32861 109.126 3.32861 109.126 3.22478C109.126 2.29031 108.295 1.56349 107.465 1.56349C107.361 1.56349 107.361 1.56349 107.257 1.56349C106.323 1.56349 105.596 2.39414 105.596 3.32861C105.596 3.32861 105.596 3.32861 105.596 3.43244Z" />
<path d="M120.859 7.27421C120.755 8.83167 119.405 10.0776 117.432 9.9738C115.356 9.86997 114.214 8.52018 114.214 6.96272C114.214 5.82058 115.044 4.98993 115.979 4.67844C115.252 4.26312 114.733 3.5363 114.733 2.60183V2.498C114.837 1.1482 115.875 -0.0977676 117.848 0.00606308C119.821 0.109894 120.755 1.45969 120.755 2.80949C120.755 3.74397 120.132 4.57461 119.301 4.8861C120.236 5.1976 120.859 6.13207 120.859 7.17038C120.859 7.17038 120.859 7.17038 120.859 7.27421ZM118.99 7.06655V6.96272C118.99 6.13207 118.367 5.50909 117.64 5.50909H117.536C116.706 5.50909 116.083 6.13207 116.083 6.96272V7.06655C116.083 7.79336 116.706 8.52018 117.432 8.52018H117.536C118.263 8.41635 118.886 7.79336 118.99 7.06655ZM119.094 2.70566V2.60183C119.094 1.87501 118.575 1.35586 117.848 1.35586H117.744C117.017 1.35586 116.498 1.87501 116.498 2.60183V2.70566C116.498 3.43247 117.017 3.95163 117.744 3.95163H117.848C118.471 3.95163 119.094 3.32864 119.094 2.70566Z" />
<path d="M124.804 3.22482C125.324 1.56353 126.777 0.836715 128.335 1.04438C130.1 1.35587 131.138 2.60184 130.827 4.1593C130.723 4.98994 130.204 5.71676 129.373 5.92442C129.684 6.13208 130.723 6.85889 130.411 8.41635C130.1 10.3891 128.439 11.2198 126.57 10.9083C124.804 10.5968 123.558 9.247 123.662 7.37805L125.531 7.68954V7.79337C125.531 8.52018 126.154 9.247 126.881 9.35083C127.919 9.55849 128.542 8.83167 128.646 8.10486C128.75 7.37805 128.438 6.5474 127.296 6.33974H127.089L127.296 4.98994H127.504C128.439 5.09377 128.854 4.57462 129.061 3.95163C129.165 3.22482 128.75 2.60184 128.023 2.498C127.919 2.498 127.816 2.498 127.712 2.498C127.089 2.498 126.57 2.91333 126.466 3.53631L124.804 3.22482Z" />
<path d="M72.4738 173.092C73.616 173.092 74.1351 173.611 74.1351 174.13C74.1351 174.338 74.0313 174.649 73.5121 174.961C73.2006 175.065 72.8891 175.168 72.4738 175.168H70.7087C68.6321 175.376 68.6321 175.895 68.6321 175.895V175.999C68.7359 176.518 68.8398 177.66 67.8014 178.387C67.49 178.595 67.1785 178.802 66.7631 179.01C66.3478 179.218 66.0363 179.425 65.8287 179.633C65.7248 179.737 65.5172 179.945 65.4133 180.048C65.1018 180.36 64.5827 180.36 64.2712 180.048C64.1674 179.945 64.0635 179.737 64.0635 179.529C64.0635 179.529 64.0635 179.529 64.0635 179.425C64.0635 179.425 63.9597 179.529 63.8559 179.529C63.2329 179.841 62.7137 180.152 62.2984 180.36C61.2601 180.983 60.6371 181.398 59.7027 181.398C59.2873 181.398 58.872 181.294 58.4567 181.191C58.1452 181.087 57.9375 180.775 57.8337 180.464C57.8337 180.152 57.9375 179.841 58.249 179.633C58.3529 179.529 58.6643 179.114 58.9758 178.699C59.9103 177.453 61.2601 175.687 63.0252 174.753C59.3912 174.234 55.9647 172.676 52.4345 170.081C51.7077 169.561 50.7732 169.25 49.8387 169.25C49.7349 169.25 49.7349 169.25 49.6311 169.25C48.2813 169.25 47.0353 169.665 46.9315 169.769C45.6855 170.392 40.5978 172.261 39.7672 172.469C39.5595 172.469 38.8327 172.573 36.9637 172.78C35.6139 172.884 33.6412 173.092 33.3297 173.196C33.2258 173.196 33.122 173.196 33.0182 173.196C32.499 173.196 32.0837 172.78 32.0837 172.261C32.0837 172.053 32.1875 171.846 32.2914 171.638C32.6029 171.327 32.9143 170.807 33.4335 170.392H33.122C32.499 170.496 31.876 170.6 31.1492 170.6C30.6301 170.704 29.2803 170.807 27.619 170.807C24.8156 170.807 21.1815 170.392 19.3125 168.523C19.1049 168.316 19.001 168.004 19.001 167.693C19.001 167.485 19.001 167.381 19.1049 167.173C19.3125 166.758 19.624 166.447 20.1432 166.447C20.5585 166.447 21.9083 165.824 23.2581 165.201C26.4768 163.851 31.2531 161.67 35.4063 161.567C37.0676 161.567 38.625 161.67 40.1825 161.878C43.5051 162.293 47.7621 163.228 51.9154 166.239C51.5 165.097 51.1885 163.643 50.9809 162.19V162.086C50.877 161.463 50.7732 160.632 50.6694 160.528C50.5656 160.424 50.4617 160.217 50.4617 160.009C50.4617 159.905 50.4617 159.698 50.5656 159.594C50.6694 159.282 51.0847 159.075 51.3962 159.075H51.5C53.1613 159.282 54.8226 161.463 56.2762 163.747V163.539C56.3801 163.228 56.6916 163.02 57.0031 163.02C57.3145 163.02 57.626 163.228 57.7299 163.539V163.643C57.7299 163.747 57.8337 163.955 57.8337 164.162C57.9375 164.266 58.249 164.578 58.4567 164.889C59.495 166.031 61.0525 167.589 60.9486 169.458C60.8448 171.43 62.8176 172.469 63.5444 172.573C64.7904 172.78 66.0363 172.884 67.49 172.884C68.3206 172.884 69.1512 172.884 69.9819 172.78C71.124 173.092 71.8508 173.092 72.4738 173.092ZM52.123 160.632C52.2268 160.944 52.3307 161.463 52.4345 162.19C52.746 163.955 53.1613 166.654 54.1996 168.212L54.3035 168.316C56.2762 170.184 58.6643 171.638 61.3639 172.573H61.4678C60.8448 171.846 60.4295 171.015 60.4295 169.977C60.4295 169.873 60.4295 169.769 60.4295 169.665C60.5333 168.316 59.0797 166.862 58.249 165.927C58.0414 165.72 57.8337 165.512 57.7299 165.304C57.626 165.616 57.3145 165.824 57.0031 165.824C56.7954 165.824 56.4839 165.72 56.3801 165.512L56.2762 165.408C55.4456 164.266 53.5766 161.359 52.123 160.632ZM49.9426 168.316C51.2924 168.316 52.4345 168.627 53.369 169.354C53.5766 169.561 53.7843 169.665 53.992 169.873C53.369 169.354 52.9537 168.835 52.6422 168.523C48.2813 164.889 43.7127 163.851 40.1825 163.435C39.0404 163.228 37.6906 163.124 36.3408 163.124C36.1331 163.124 35.8216 163.124 35.6139 163.124C31.6684 163.228 26.996 165.304 23.8811 166.654C21.9083 167.485 20.87 167.9 20.3508 167.9V168.004C21.9083 169.665 25.3347 169.977 27.8266 169.977C29.3841 169.977 30.7339 169.873 31.2531 169.769H31.3569C31.9799 169.769 32.6029 169.665 33.2258 169.561C34.0565 169.458 34.7833 169.354 35.6139 169.354L37.6906 169.458L35.8216 170.496C34.7833 171.015 34.0565 171.742 33.6412 172.261C34.1603 172.157 35.1986 172.053 37.0676 171.846C38.1059 171.742 39.4557 171.534 39.6633 171.534C40.494 171.327 45.4779 169.561 46.62 168.938C46.8277 168.835 48.2813 168.316 49.9426 168.316ZM67.1785 177.453C67.6976 177.037 67.5938 176.414 67.5938 176.103C67.0746 175.687 66.4516 175.48 65.7248 175.48C65.2057 175.48 64.6865 175.584 64.0635 175.791C62.5061 176.518 61.1563 178.283 60.2218 179.529C59.9103 179.841 59.7027 180.152 59.5988 180.36C60.4295 180.464 60.9486 180.256 61.9869 179.529C62.4022 179.218 62.9214 179.01 63.5444 178.595C63.752 178.491 63.9597 178.283 64.1674 178.179C64.4789 177.972 64.7904 177.764 65.1018 177.556L66.9708 176.622L65.9325 178.179L66.3478 177.972C66.6593 177.868 66.9708 177.66 67.1785 177.453Z" />
<path d="M206.104 167.381C206.312 167.796 206.208 168.316 205.896 168.731C204.027 170.6 200.289 171.015 197.59 171.015C195.928 171.015 194.579 170.911 194.059 170.807C193.437 170.807 192.71 170.704 192.087 170.6H191.775C192.294 171.015 192.606 171.534 192.917 171.846C193.125 172.157 193.125 172.573 193.021 172.884C192.814 173.299 192.294 173.507 191.775 173.403C191.568 173.299 189.491 173.092 188.245 172.988C187.103 172.884 186.168 172.78 185.234 172.573H185.442C184.611 172.365 179.523 170.496 178.277 169.873C177.447 169.562 176.512 169.354 175.578 169.354C174.436 169.354 173.501 169.665 172.774 170.184C169.244 172.78 165.818 174.338 162.183 174.857C163.949 175.688 165.298 177.556 166.233 178.802C166.544 179.218 166.856 179.633 166.96 179.737C167.167 179.841 167.375 180.152 167.375 180.464C167.375 180.775 167.167 181.087 166.752 181.191C166.233 181.294 165.921 181.398 165.506 181.398C164.572 181.398 163.949 180.983 162.91 180.36C162.495 180.048 161.976 179.737 161.353 179.425L161.145 179.322C161.145 179.529 161.145 179.737 160.938 179.841C160.626 180.152 160.107 180.152 159.795 179.841C159.692 179.737 159.588 179.529 159.38 179.425C159.172 179.218 158.757 179.01 158.446 178.802C158.134 178.595 157.719 178.387 157.407 178.179C156.473 177.453 156.577 176.207 156.577 175.791V175.688C156.577 175.688 156.577 175.168 154.5 174.961H152.735H152.631C152.32 174.961 152.008 174.857 151.697 174.753C151.177 174.545 151.074 174.13 151.074 173.922C151.074 173.403 151.593 172.884 152.735 172.884C153.358 172.884 154.085 172.884 154.812 172.988C155.642 172.988 156.473 173.092 157.303 173.092C158.757 173.092 159.899 172.988 161.249 172.78C161.976 172.676 163.949 171.638 163.845 169.665C163.741 167.9 165.298 166.239 166.337 165.097C166.544 164.785 166.856 164.474 166.96 164.37C167.064 164.266 167.064 164.058 167.064 163.955V163.851C167.064 163.747 167.064 163.747 167.064 163.643C167.064 163.228 167.375 162.916 167.79 162.916C168.206 162.916 168.517 163.228 168.517 163.643C168.517 163.747 168.517 163.747 168.517 163.851V164.058C170.075 161.774 171.736 159.594 173.293 159.386H173.397C173.709 159.386 174.02 159.594 174.228 159.905C174.332 160.217 174.332 160.528 174.124 160.736C174.02 160.84 173.916 161.67 173.813 162.293C173.605 163.435 173.397 165.097 172.878 166.55C177.031 163.539 181.288 162.605 184.611 162.19C185.857 161.982 187.207 161.878 188.66 161.878C188.972 161.878 189.179 161.878 189.491 161.878C193.644 161.982 198.42 164.162 201.639 165.512C202.989 166.135 204.339 166.654 204.754 166.654C205.585 166.654 205.896 166.966 206.104 167.381ZM167.375 165.927C166.544 166.862 165.091 168.316 165.195 169.665C165.195 169.769 165.195 169.873 165.195 169.977C165.195 171.015 164.779 171.95 164.156 172.573C165.61 172.053 166.856 171.534 167.998 170.911H167.894C169.452 169.977 170.594 169.042 171.321 168.316L171.424 168.212C172.463 166.654 172.878 163.955 173.19 162.19C173.293 161.463 173.397 160.944 173.501 160.632C172.047 161.255 170.178 164.266 169.452 165.408L169.348 165.512C169.244 165.72 169.036 165.824 168.725 165.824C168.413 165.824 168.102 165.616 167.998 165.304C167.79 165.512 167.583 165.72 167.375 165.927ZM165.298 179.529C164.364 178.283 163.014 176.518 161.457 175.791C160.938 175.584 160.418 175.48 159.795 175.48C159.069 175.48 158.446 175.688 157.926 176.103C157.823 176.414 157.823 177.037 158.342 177.453C158.549 177.66 158.861 177.868 159.172 177.972L159.588 178.179L158.549 176.622L160.418 177.556C160.73 177.764 161.041 177.972 161.353 178.179C161.56 178.387 161.768 178.491 161.976 178.595C162.599 178.906 163.118 179.218 163.533 179.529C164.468 180.048 164.987 180.36 165.506 180.36C165.61 180.36 165.818 180.36 165.921 180.36C165.818 180.152 165.61 179.841 165.298 179.529ZM205.066 167.9V167.796C204.443 167.796 203.508 167.381 201.535 166.55C198.42 165.201 193.748 163.124 189.802 163.02C189.595 163.02 189.283 163.02 189.076 163.02C187.726 163.02 186.376 163.124 185.13 163.332H185.234C181.704 163.851 177.135 164.889 172.774 168.523C172.463 168.939 172.047 169.354 171.424 169.873L172.047 169.354C172.982 168.731 174.124 168.316 175.266 168.316C175.37 168.316 175.37 168.316 175.474 168.316C177.135 168.316 178.589 168.835 178.693 168.939C179.835 169.458 184.819 171.327 185.649 171.534C185.857 171.534 187.207 171.742 188.245 171.846C190.114 172.053 191.152 172.157 191.671 172.261C191.048 171.534 190.322 170.911 189.491 170.496L187.622 169.458L189.699 169.354C190.529 169.354 191.36 169.458 192.087 169.562C192.71 169.665 193.333 169.769 193.956 169.769H194.059C194.579 169.873 195.825 169.977 197.486 169.977C200.082 169.873 203.508 169.562 205.066 167.9Z" />
<path d="M128.646 88.8851C128.542 88.8851 128.439 88.8851 128.335 88.7812C128.023 88.6774 127.608 88.5736 127.296 88.4698C126.673 88.2621 125.947 88.2621 125.116 88.2621C124.389 88.2621 123.766 88.1583 123.039 88.0544C121.17 87.6391 120.444 85.9778 120.132 85.251C120.028 84.8357 120.028 84.5242 120.132 84.1089C120.651 82.9667 122.313 80.1633 126.673 79.748C126.881 79.748 127.193 79.748 127.504 79.748C130.723 79.748 134.253 81.4093 136.641 82.5514C137.472 82.9667 138.406 83.3821 138.718 83.3821C139.133 83.3821 139.445 83.5897 139.652 84.005C139.86 84.4204 139.756 84.8357 139.445 85.1472C137.887 86.7046 136.641 87.0161 134.98 87.0161C134.461 87.0161 133.838 87.0161 133.215 86.9123C132.28 86.9123 131.346 86.8085 130.1 86.8085C129.581 86.8085 129.165 86.7046 128.646 86.7046C128.958 87.0161 129.165 87.2238 129.269 87.4315C129.373 87.5353 129.477 87.7429 129.477 87.9506C129.581 88.4698 129.165 88.8851 128.646 88.8851ZM127.712 80.7863C127.504 80.7863 127.296 80.7863 126.985 80.7863C123.143 81.0978 121.793 83.4859 121.378 84.4204C121.378 84.4204 121.378 84.5242 121.378 84.628V84.7319C121.586 85.3548 122.209 86.497 123.455 86.8085C124.078 86.9123 124.701 86.9123 125.324 87.0161C126.154 87.0161 126.985 87.12 127.712 87.3276L127.919 87.4315C127.504 87.0161 127.089 86.7046 126.57 86.497L124.701 85.4587L126.777 85.3548C127.4 85.3548 128.127 85.4587 128.75 85.4587C129.269 85.5625 129.788 85.5625 130.204 85.5625C131.45 85.5625 132.488 85.6663 133.422 85.6663C134.045 85.6663 134.668 85.7702 135.188 85.7702C136.641 85.7702 137.576 85.5625 138.718 84.3165C138.199 84.2127 137.576 83.9012 136.33 83.3821C134.045 82.4476 130.723 80.7863 127.712 80.7863Z" />
<path d="M85.7641 177.868H85.5565V166.447H85.7641H87.3216H88.9829C91.1633 166.447 92.8246 166.966 93.8629 168.108C94.7974 169.146 95.3165 170.392 95.3165 171.846C95.3165 171.95 95.3165 171.95 95.3165 172.053C95.3165 173.715 94.6935 175.168 93.5514 176.31C92.4093 177.453 90.8518 177.972 88.6714 177.972C88.2561 177.972 87.7369 177.972 87.3216 177.972C86.9063 177.868 86.3871 177.868 85.7641 177.868ZM88.879 168.315C88.4637 168.315 88.0484 168.315 87.5292 168.315V175.999C88.0484 175.999 88.4637 175.999 88.7752 175.999C90.125 175.999 91.1633 175.687 91.994 174.961C92.7208 174.234 93.1361 173.299 93.1361 172.261C93.1361 172.157 93.1361 172.157 93.1361 172.053C93.1361 170.911 92.7208 169.977 91.994 169.25C91.2671 168.523 90.2288 168.315 88.879 168.315Z" />
<path d="M100.093 177.868H98.12L103 166.447H104.765L109.645 177.868H107.465L106.323 174.961H101.443L100.093 177.868ZM105.388 173.092L103.727 169.042L102.066 173.092H105.388Z" />
<path d="M113.695 177.868H115.667V166.447H113.695V177.868Z" />
<path d="M128.542 177.868H121.378V166.447H123.351V175.999H128.542V177.868Z" />
<path d="M137.472 166.447H139.652L135.603 173.092V177.868H133.63V173.092L129.581 166.447H131.865L134.668 171.223L137.472 166.447Z" />
<path d="M61.7792 191.574L64.998 190.016L66.4516 190.639L62.8175 192.3L64.0635 196.557L62.5061 195.934L61.5716 192.404L61.3639 192.508L60.3256 195L59.1835 194.481L61.6754 188.562L62.8175 189.082L61.7792 191.574Z" />
<path d="M68.8398 191.574L69.2551 195.104L71.6432 192.508L72.8891 192.923L67.9053 197.907L66.6593 197.492L68.1129 196.142L67.4899 191.054L68.8398 191.574Z" />
<path d="M78.7036 194.792L76.8347 200.918L75.6925 200.607L77.25 195.519L75.4849 195L74.6542 197.7C74.4466 198.323 74.2389 199.153 73.4083 199.465C73.0968 199.569 72.6814 199.672 72.0585 199.465C71.8508 199.361 71.747 199.361 71.5393 199.257L71.8508 198.219C71.9546 198.323 72.0585 198.323 72.1623 198.323C72.4738 198.426 72.6814 198.323 72.7853 198.323C73.2006 198.115 73.3044 197.596 73.5121 196.973L74.5504 193.443L78.7036 194.792Z" />
<path d="M82.13 195.727L81.0917 199.88L85.5564 196.454L86.3871 196.661L84.8296 202.995L83.5837 202.683L84.622 198.53L80.1572 201.957L79.3266 201.749L80.8841 195.415L82.13 195.727Z" />
<path d="M89.3982 199.88L92.0978 200.399L92.5131 198.011L93.7591 198.219L92.6169 204.552L91.371 204.345L91.8901 201.541L89.1905 201.022L88.6714 203.826L87.4254 203.618L88.5676 197.284L89.8135 197.492L89.3982 199.88Z" />
<path d="M99.0545 203.929L96.4587 203.618L95.7319 204.864L94.3821 204.76L97.9123 198.634L98.8468 198.738L100.716 205.487L99.3659 205.383L99.0545 203.929ZM98.8468 202.891L98.2238 200.503L97.0817 202.683L98.8468 202.891Z" />
<path d="M104.973 199.361C105.7 199.361 106.219 199.465 106.634 199.984C107.153 200.503 107.257 201.126 107.153 201.541C107.153 201.749 107.049 202.476 106.53 202.891C106.115 203.203 105.596 203.41 104.869 203.306H104.038L103.934 205.695L102.688 205.591L103.104 199.257L104.973 199.361ZM104.142 202.164H104.661C104.869 202.164 105.18 202.164 105.492 202.061C105.7 201.853 105.907 201.645 105.907 201.334C105.907 201.334 105.907 201.334 105.907 201.23C105.907 200.918 105.803 200.711 105.596 200.503C105.388 200.295 105.077 200.295 104.765 200.295H104.35L104.142 202.164Z" />
<path d="M110.268 201.957H112.968V199.465H114.214V205.902H112.968V203.099H110.268V205.902H109.022V199.569H110.268V201.957Z" />
<path d="M120.444 204.345L117.848 204.449L117.329 205.798L115.979 205.902L118.367 199.257H119.301L122.312 205.591L120.963 205.695L120.444 204.345ZM120.028 203.306L118.99 201.022L118.159 203.41L120.028 203.306Z" />
<path d="M128.335 204.864L127.089 204.968L126.777 202.476H126.57L125.22 205.072L123.766 205.279L125.324 202.476C125.012 202.476 124.804 202.372 124.597 202.268C124.078 201.957 123.766 201.437 123.766 200.814C123.662 200.088 123.87 199.569 124.181 199.257C124.597 198.738 125.22 198.634 125.739 198.634L127.608 198.426L128.335 204.864ZM126.05 199.776C125.843 199.776 124.804 199.88 124.908 200.814C125.012 201.749 125.947 201.645 126.258 201.645H126.57L126.362 199.776H126.05Z" />
<path d="M137.783 196.869L139.029 203.099L137.783 203.306L136.745 198.115L134.98 198.426L135.499 201.23C135.603 201.853 135.81 202.683 135.187 203.41C134.98 203.618 134.668 203.929 134.045 204.033C133.942 204.033 133.734 204.033 133.63 204.033C133.63 204.033 133.63 204.033 133.526 204.033L133.319 202.995C133.422 202.995 133.526 202.995 133.63 202.995C133.942 202.995 134.045 202.787 134.149 202.683C134.357 202.268 134.253 201.749 134.149 201.126L133.422 197.492L137.783 196.869Z" />
<path d="M144.844 200.295L142.352 200.918L142.144 202.372L140.794 202.683L141.833 195.727L142.767 195.519L146.92 201.126L145.674 201.438L144.844 200.295ZM144.221 199.465L142.767 197.492L142.456 199.984L144.221 199.465Z" />
<path d="M148.478 194.066C148.789 193.962 149.516 193.754 150.035 193.962C150.451 194.169 150.866 194.585 150.97 195C150.97 195.104 151.074 195.312 151.074 195.415C151.074 195.831 150.97 196.142 150.658 196.35C151.074 196.246 151.385 196.35 151.593 196.454C152.008 196.661 152.216 196.973 152.423 197.492C152.527 197.803 152.631 198.426 152.32 198.842C152.008 199.361 151.489 199.672 150.97 199.776L148.893 200.399L147.024 194.273L148.478 194.066ZM148.893 196.661L149.205 196.557C149.412 196.454 150.139 196.246 149.931 195.519C149.724 195 149.308 194.896 148.789 195L148.478 195.104L148.893 196.661ZM149.724 199.257L150.243 199.153C150.451 199.049 150.762 198.946 150.97 198.738C151.177 198.426 151.177 198.115 151.074 197.907C150.97 197.7 150.866 197.388 150.451 197.388C150.139 197.388 149.828 197.492 149.62 197.492L149.205 197.596L149.724 199.257Z" />
<path d="M155.019 194.689L156.265 191.366L157.719 190.847L156.161 194.585L160.003 196.869L158.446 197.388L155.331 195.519L155.227 195.727L156.161 198.219L155.019 198.634L152.839 192.612L153.981 192.197L155.019 194.689Z" />
<path d="M164.883 193.339L162.495 194.377V195.831L161.249 196.35V189.289L162.08 188.874L167.167 193.754L165.921 194.273L164.883 193.339ZM164.156 192.508L162.391 190.743L162.495 193.235L164.156 192.508Z" />
</svg>
