<svg width="73" height="73" viewBox="0 0 73 73" fill="none" xmlns="http://www.w3.org/2000/svg">
<path fill-rule="evenodd" clip-rule="evenodd" d="M40.7246 72.3374H34.3731C34.3482 71.9381 34.2734 71.439 34.1489 70.8151L33.3518 66.398H27.9468L27.0999 70.8151C26.9754 71.439 26.9007 71.9381 26.8758 72.3374H20.5491L27.7226 39.0967H33.576L40.7246 72.3374ZM32.4302 60.783L30.6618 52.0486L28.8435 60.783H32.4302ZM50.1647 72.3873H43.6637C43.7136 71.988 43.7385 71.5637 43.7385 71.1395V40.5691C43.7385 40.0949 43.7136 39.6707 43.6637 39.2714H50.1647C50.1149 39.6707 50.09 40.0949 50.09 40.5691V71.1395C50.09 71.5388 50.1149 71.9381 50.1647 72.3873ZM72.5072 72.3374H65.6326C65.5828 71.8382 65.4582 71.3641 65.2839 70.865L60.0532 56.266V71.0896C60.0532 71.5388 60.0781 71.988 60.103 72.3873H53.8013C53.8511 71.963 53.876 71.5138 53.876 71.0397V40.5191C53.876 40.0949 53.8511 39.6207 53.8013 39.1466H61.9711C64.985 39.1466 67.3014 40.045 68.9205 41.8667C70.5644 43.7134 71.3614 46.2589 71.3614 49.5031C71.3614 53.6956 69.7922 56.6903 66.6787 58.4871L72.5072 72.3374ZM64.7608 49.3035C64.7608 47.6814 64.3623 46.5334 63.5901 45.8596C62.8678 45.2108 61.6971 44.8863 60.103 44.8364V53.9452C61.8715 53.8703 63.092 53.5459 63.7645 52.922C64.4121 52.348 64.7608 51.1252 64.7608 49.3035Z" fill="white"/>
<path d="M72.308 33.2821H0.373657V35.4781H72.308V33.2821Z" fill="white"/>
<path fill-rule="evenodd" clip-rule="evenodd" d="M0.373596 0.0163574H72.308V29.6635H0.373596V0.0163574ZM11.9061 26.2945H15.991C15.9661 26.02 15.9661 25.6956 15.991 25.3711V4.4085C15.991 4.08408 15.991 3.78461 16.0159 3.5101H11.9061C11.908 3.53521 11.9099 3.56016 11.9118 3.58497C11.9347 3.88072 11.9559 4.15523 11.9559 4.4085V12.5939H7.94569V4.38354V4.38353C7.94569 4.10902 7.94569 3.83452 7.97059 3.53506H3.91058C3.93549 3.80957 3.93549 4.08408 3.93549 4.38354V25.3462C3.93549 25.6956 3.93549 25.995 3.91058 26.2695H7.97059C7.94569 25.9701 7.94569 25.6457 7.94569 25.3212V25.3212V16.3372H11.931V25.3711C11.931 25.7205 11.931 26.02 11.9061 26.2945ZM25.4311 26.2695H29.5659L24.9081 3.41028H21.122L16.4642 26.2695H20.5741C20.599 25.995 20.6488 25.6456 20.7235 25.2214L21.2715 22.1768H24.7586L25.2817 25.2214C25.3564 25.6456 25.4062 25.995 25.4311 26.2695ZM23.04 12.2944L24.1857 18.3087H21.8693L23.04 12.2944ZM40.376 15.5387C41.3972 14.3408 41.9202 12.6937 41.9202 10.5725C41.9202 8.35147 41.3972 6.57963 40.3012 5.3069C39.2302 4.05912 37.7357 3.43523 35.7929 3.43523H30.4626C30.4645 3.46034 30.4664 3.48529 30.4683 3.5101C30.4912 3.80585 30.5124 4.08036 30.5124 4.33363V25.2963C30.5124 25.6457 30.4875 25.9701 30.4626 26.2446H34.5973C34.5724 25.9701 34.5724 25.6458 34.5724 25.3214V25.3212V17.2855H36.0669C37.9101 17.2855 39.3298 16.7116 40.376 15.5387ZM36.9635 7.87732C37.387 8.27661 37.6112 9.12509 37.6112 10.4228C37.6112 11.6456 37.387 12.4691 37.0134 12.9183C36.5401 13.3426 35.7431 13.5672 34.6222 13.6171V7.37821C35.7929 7.40316 36.565 7.5529 36.9635 7.87732ZM53.4278 15.5387C54.449 14.3408 54.9721 12.6937 54.9721 10.5725C54.9721 8.35147 54.449 6.57963 53.353 5.3069C52.282 4.05912 50.7875 3.43523 48.8447 3.43523H43.5144C43.5163 3.4603 43.5182 3.48521 43.5201 3.50997C43.543 3.80578 43.5642 4.08033 43.5642 4.33363V25.2963C43.5642 25.6457 43.5393 25.9701 43.5144 26.2446H47.6491C47.6242 25.9701 47.6242 25.6457 47.6242 25.3212V17.2855H49.1187C50.9619 17.2855 52.3816 16.7116 53.4278 15.5387ZM49.9905 7.87732C50.4139 8.27661 50.6381 9.12509 50.6381 10.4228C50.6381 11.6456 50.4388 12.4691 50.0403 12.9183C49.567 13.3426 48.77 13.5672 47.6491 13.6171V7.37821C48.8198 7.40316 49.5919 7.5529 49.9905 7.87732ZM64.2628 18.708L68.796 3.46019H64.4122L64.4122 3.46034C64.2877 4.08414 64.2129 4.45842 64.188 4.53328L62.2203 11.97L60.2277 4.48337C60.1529 4.1839 60.0782 3.83452 60.0035 3.43523H55.6446L60.2027 18.708V25.3711C60.2027 25.6706 60.2027 25.9701 60.1529 26.2695H64.3126L64.3076 26.2096C64.2844 25.933 64.2628 25.6738 64.2628 25.3711V18.708Z" fill="white"/>
<path fill-rule="evenodd" clip-rule="evenodd" d="M18.5814 72.3873H12.3046C12.3295 71.988 12.3544 71.5388 12.3544 71.0397V57.9131H6.20211V70.9898C6.20211 71.4889 6.22702 71.9381 6.25193 72.3623H0C0.0249081 71.963 0.0498161 71.5138 0.0498161 71.0147V40.5191C0.0498161 40.0949 0.0249081 39.6706 0 39.2714H6.22702C6.20211 39.6956 6.1772 40.1198 6.1772 40.5191V52.4479H12.3295V40.569C12.3295 40.1698 12.3046 39.7455 12.2548 39.2714H18.5814C18.5565 39.6706 18.5316 40.0949 18.5316 40.569V71.0397C18.5316 71.5388 18.5565 71.988 18.5814 72.3873Z" fill="white"/>
</svg>
