<svg width="147" height="158" viewBox="0 0 147 158" fill="none" xmlns="http://www.w3.org/2000/svg">
<path d="M40.212 76.0396L40.3007 115.878L36.75 150.216H27.3406L29.9149 115.878L29.7373 76.0396H40.212Z" fill="#A56646"/>
<path d="M36.75 150.216L41.0996 153.587L45.0054 154.386C46.7808 154.741 48.1123 156.249 48.2898 158.024L48.3786 158.911H26.8967L27.5181 150.305L36.75 150.216Z" fill="#394044"/>
<path d="M26.6305 158.911H48.2899V157.58C48.2899 157.314 48.1124 157.048 47.7573 157.048H26.6305V158.911Z" fill="black"/>
<path d="M32.7555 78.2578V85.4448C32.7555 87.7517 31.6903 89.8811 29.7374 91.2121" stroke="#7E462B" stroke-width="0.7635" stroke-miterlimit="10"/>
<path d="M27.5182 146.578H37.0164" stroke="#7E462B" stroke-width="0.7635" stroke-miterlimit="10"/>
<path d="M15.2681 76.0396L16.4221 116.233L13.3152 150.216H22.7246L27.3405 116.056L32.0453 76.0396H15.2681Z" fill="#A56646"/>
<path d="M22.7247 150.216L27.0744 153.587L30.9802 154.386C32.7555 154.741 34.087 156.249 34.2646 158.024L34.3533 158.911H12.8715L13.4928 150.305L22.7247 150.216Z" fill="#394044"/>
<path d="M12.6939 158.911H34.3533V157.58C34.3533 157.314 34.1758 157.048 33.8207 157.048H12.6051L12.6939 158.911Z" fill="black"/>
<path d="M15.3569 78.2578H40.212" stroke="#7E462B" stroke-width="0.7635" stroke-miterlimit="10"/>
<path d="M29.7373 95.2937C29.8261 94.7613 29.7373 78.3467 29.7373 78.3467" stroke="#7E462B" stroke-width="0.7635" stroke-miterlimit="10"/>
<path d="M13.6703 146.578H23.1685" stroke="#7E462B" stroke-width="0.7635" stroke-miterlimit="10"/>
<path d="M60.8061 54.6561C60.8061 54.6561 60.7174 47.6466 65.7771 46.4932L65.6884 49.9535L68.7065 49.2437C68.7065 49.2437 70.6594 48.9775 71.3695 49.6874C71.9909 50.3972 76.9619 57.1405 61.3387 57.4954L60.8061 54.6561Z" fill="#E6BDA0"/>
<path d="M72.1685 43.0327L72.4348 55.011C72.4348 55.8095 71.9022 56.6081 71.0145 56.6968L65.5109 57.5841C64.7119 57.7615 63.913 57.2291 63.6467 56.4306L60.3623 44.896L72.1685 43.0327Z" fill="#45444D"/>
<path d="M59.5634 45.1623L72.9674 43.0329L72.7898 42.1456C72.7011 41.6132 72.2572 41.347 71.7246 41.4358L60.096 43.299C59.5634 43.3878 59.2971 43.8314 59.3858 44.3638L59.5634 45.1623Z" fill="#D2D4E0"/>
<path d="M60.9836 43.1214L71.0144 41.5243L70.8369 40.5483C70.7481 40.1046 70.393 39.8384 69.9492 39.9272L61.4274 41.3468C60.9836 41.4355 60.7173 41.7904 60.8061 42.2341L60.9836 43.1214Z" fill="#D2D4E0"/>
<path d="M64.7119 50.1306C64.9782 51.4616 66.221 52.4376 67.5525 52.1714C68.884 51.9939 69.8605 50.663 69.5942 49.2434C69.3279 47.9125 68.0851 46.9364 66.7536 47.2026C65.4221 47.3801 64.4456 48.711 64.7119 50.1306Z" fill="white"/>
<path d="M73.3225 54.2124C73.5888 54.1236 73.8551 53.9462 73.8551 53.68L73.5 46.6705C73.5 46.4043 73.1449 46.1381 72.7899 46.2269L72.0797 46.3156C71.1033 46.4931 70.4819 47.2029 70.5707 48.0014L71.3696 53.0589C71.5471 53.8575 72.4348 54.3898 73.3225 54.2124Z" fill="#E6BDA0"/>
<path d="M26.1865 30.4335C26.1865 30.4335 24.7663 39.6612 36.75 59.0925C36.75 59.0925 41.3659 65.9246 43.4076 65.9246C46.8695 65.8358 56.1902 62.8191 61.605 59.0038L60.7173 51.5507L45.2717 54.7449L42.4311 40.1935C41.9873 37.5317 40.8333 34.4262 38.9692 32.8291C38.9692 32.8291 31.3351 24.9324 26.1865 30.4335Z" fill="#4350A2"/>
<path d="M45.3604 54.8335C45.3604 54.8335 44.0289 55.8982 43.1412 58.2051" stroke="#37468D" stroke-width="0.7635" stroke-miterlimit="10"/>
<path d="M25.9203 28.8364C25.9203 28.8364 18.5526 30.2561 15.2682 37.7092C15.2682 37.7092 14.4692 50.3085 15.2682 76.0396H40.212C40.212 76.0396 40.6558 34.8699 33.9982 29.4575L25.9203 28.8364Z" fill="#4350A2"/>
<path d="M40.0344 63.263C40.0344 63.263 39.3242 50.6636 38.259 41.7021" stroke="#37468D" stroke-width="0.7635" stroke-miterlimit="10"/>
<path d="M3.55075 97.955C1.15401 96.6241 0.355093 93.6074 1.77538 91.2117C3.1069 88.8161 6.12502 88.0175 8.52176 89.4372C10.9185 90.7681 11.7174 93.7848 10.2971 96.1805C8.87683 98.5761 5.85872 99.2859 3.55075 97.955Z" fill="#E2B99C"/>
<path d="M9.58695 80.2095L7.81158 90.4132L2.39673 90.2357L3.37318 79.5884" fill="#E2B99C"/>
<path d="M19.9728 31.5869C19.9728 31.5869 2.48551 41.4357 0 86.5093L10.5634 85.8883C10.5634 85.8883 12.25 55.3659 22.9909 42.323C22.9909 42.323 27.5181 37.1768 19.9728 31.5869Z" fill="#4350A2"/>
<path d="M10.9185 81.7183L0.266357 82.5168" stroke="#37468D" stroke-width="0.7635" stroke-miterlimit="10"/>
<path d="M14.9131 59.5361C14.9131 59.5361 17.3986 50.7521 19.9729 46.4932" stroke="#37468D" stroke-width="0.7635" stroke-miterlimit="10"/>
<path d="M25.9204 28.8364V17.6567H33.9095V28.8364C33.9095 31.0546 32.1342 32.8292 29.915 32.8292C27.6958 32.8292 25.9204 30.9659 25.9204 28.8364Z" fill="#E6BDA0"/>
<path d="M25.6541 18.189C25.6541 18.189 26.5417 27.7716 33.9095 27.5941V22.8028L25.6541 18.189Z" fill="#CF9580"/>
<path d="M38.259 5.76709C38.259 5.76709 45.0054 8.07401 40.9221 14.1075L38.259 10.1147V5.76709Z" fill="#4C231A"/>
<path d="M36.6613 15.9711C36.6613 17.4795 37.904 18.8104 39.5018 18.8104C41.0109 18.8104 42.3424 17.5682 42.3424 15.9711C42.3424 14.4628 41.0997 13.1318 39.5018 13.1318C37.904 13.2206 36.6613 14.4628 36.6613 15.9711Z" fill="#CF9580"/>
<path d="M32.4891 25.9973C36.75 25.9973 40.3007 23.4242 40.3007 19.0765V10.5587C40.3007 8.69538 38.7916 7.18701 36.9275 7.18701H28.1395C26.2753 7.18701 24.7663 8.69538 24.7663 10.5587V17.9231C24.6775 22.182 28.8496 25.9973 32.4891 25.9973Z" fill="#E6BDA0"/>
<path d="M26.0091 14.9951C26.0091 14.9951 30.7138 12.422 28.1395 7.18704H23.7899C23.7899 7.18704 22.5471 6.92086 21.6594 8.16305C20.683 9.40523 23.0797 15.0838 23.0797 15.0838H26.0091V14.9951Z" fill="#4C231A"/>
<path d="M21.2156 15.9711C21.2156 17.4795 22.4583 18.8104 24.0562 18.8104C25.5652 18.8104 26.8967 17.5682 26.8967 15.9711C26.8967 14.4628 25.654 13.1318 24.0562 13.1318C22.4583 13.2206 21.2156 14.4628 21.2156 15.9711Z" fill="#E6BDA0"/>
<path d="M36.3062 15.4385L36.4838 18.0116C36.4838 18.0116 36.395 18.9876 35.0635 18.5439" stroke="#CF9580" stroke-width="0.5554" stroke-miterlimit="10" stroke-linecap="round" stroke-linejoin="round"/>
<path d="M36.0399 0.976005C35.241 0.354911 34.2645 0 33.1105 0C31.8678 0 30.7138 0.443638 29.9149 1.15346C29.2047 0.621094 28.2283 0.354911 27.2518 0.354911C24.9439 0.354911 23.0797 1.86328 22.8134 3.81529C21.3044 3.99275 20.1504 5.32366 20.1504 6.92076C20.1504 8.60659 21.3931 9.9375 22.991 9.9375C24.145 9.9375 25.1214 9.22768 25.5652 8.16295C26.0979 8.3404 26.6305 8.42913 27.1631 8.42913C27.6957 8.42913 28.3171 8.3404 28.7609 8.16295C32.2229 8.42913 41.8098 8.78404 42.0761 5.7673C42.4312 2.30692 38.9692 -0.0887277 36.0399 0.976005Z" fill="#4C231A"/>
<path d="M27.6069 11.8896C27.6069 11.8896 27.0743 17.5681 28.2282 19.3427C29.3822 21.0285 30.7138 19.9638 35.2409 19.4314C39.7681 18.9878 40.2119 21.1173 40.2119 21.1173C40.2119 21.1173 39.7681 26.2635 33.8206 26.2635C29.2047 26.2635 24.5888 24.9325 25.8315 17.6569C27.0743 10.2925 23.6123 7.18701 23.6123 7.18701L27.6069 11.8896Z" fill="#4C231A"/>
<path d="M118.505 73.8213C118.505 73.8213 109.362 96.4468 108.652 112.773L118.15 152.523L126.761 154.741L121.79 114.281L129.335 87.2192L126.761 73.91L118.505 73.8213Z" fill="#4350A2"/>
<path d="M118.15 152.523L110.161 155.007C108.297 155.628 106.255 157.137 105.989 158.911H126.761V154.12L118.15 152.523Z" fill="black"/>
<path d="M139.455 114.015C139.455 114.015 139.987 104.166 140.342 94.1399C144.426 83.9362 140.254 73.8213 140.254 73.8213H126.761L126.317 77.4591L126.051 77.5479L126.228 78.3464L125.074 87.2192L127.027 114.104L131.732 152.523L140.431 154.741C140.165 154.741 139.188 134.688 139.455 114.015Z" fill="#4350A2"/>
<path d="M131.554 152.523L123.565 155.007C121.701 155.628 119.659 157.137 119.393 158.911H140.165V154.12L131.554 152.523Z" fill="black"/>
<path d="M117.44 76.6606H139.455" stroke="#37468D" stroke-width="0.7635" stroke-miterlimit="10"/>
<path d="M125.873 99.6411L125.252 94.8498L122.145 89.3486" stroke="#37468D" stroke-width="0.7635" stroke-miterlimit="10"/>
<path d="M114.067 51.728L102.172 42.6777L97.4674 43.8312L112.647 60.6895C113.091 61.1331 113.889 61.2218 114.422 60.7782L125.341 52.5265L121.701 45.3396L114.067 51.728Z" fill="#E9BDA0"/>
<path d="M102.616 42.2337C102.616 42.2337 102.705 35.2243 97.6449 34.0708L97.7337 37.5312L94.7156 36.8214C94.7156 36.8214 92.7627 36.5552 92.0525 37.265C91.4312 37.9748 86.3714 44.7181 102.172 45.1618L102.616 42.2337Z" fill="#E6BDA0"/>
<path d="M91.1649 30.522L90.8986 42.5889C90.8986 43.3875 91.5199 44.186 92.3188 44.2748L97.8225 45.162C98.6214 45.3395 99.5091 44.8071 99.6866 44.0086L103.06 32.474L91.1649 30.522Z" fill="#45444D"/>
<path d="M103.859 32.7403L90.366 30.5221L90.5435 29.6348C90.6323 29.1025 91.0761 28.8363 91.6087 28.925L103.326 30.7883C103.859 30.877 104.125 31.3207 104.036 31.853L103.859 32.7403Z" fill="#D2D4E0"/>
<path d="M102.438 30.6106L92.3188 29.0135L92.4964 28.0375C92.5851 27.5939 92.9402 27.3277 93.3841 27.4164L101.995 28.8361C102.438 28.9248 102.705 29.2797 102.616 29.7233L102.438 30.6106Z" fill="#D2D4E0"/>
<path d="M98.7102 37.6199C98.4439 39.0396 97.2012 39.9269 95.7809 39.7494C94.3606 39.4832 93.4729 38.241 93.6504 36.8214C93.9167 35.4018 95.1595 34.5145 96.5798 34.6919C98.0001 34.9581 98.8878 36.289 98.7102 37.6199Z" fill="white"/>
<path d="M89.9221 41.7904C89.6558 41.7016 89.3895 41.5242 89.3895 41.258L89.7446 34.1598C89.7446 33.8936 90.0997 33.6274 90.4547 33.7161L91.1649 33.8049C92.1413 33.9823 92.7627 34.6921 92.6739 35.4907L91.875 40.6369C91.7863 41.4354 90.8986 41.9678 89.9221 41.7904Z" fill="#E6BDA0"/>
<path d="M124.098 32.5626C127.915 32.2964 134.04 32.119 137.591 33.095C138.745 33.4499 139.455 34.6033 139.188 35.7568C138.034 41.1692 135.016 57.4063 137.413 66.2791L140.165 73.821H118.417L117.529 53.7685L120.281 36.023C120.636 34.1597 122.234 32.7401 124.098 32.5626Z" fill="#C6D4F4"/>
<path d="M120.103 37.709C120.103 37.709 114.777 42.8552 114.422 46.7592C114.067 50.6632 120.103 55.5432 120.103 55.5432V37.709Z" fill="#C6D4F4"/>
<path d="M136.792 36.9989C140.076 36.1116 143.272 38.596 143.183 42.0563L144.87 62.8186C144.87 63.2623 144.87 63.6172 144.781 64.0608L138.922 85.9765L135.46 82.6936L138.301 61.2215L134.129 48.356C133.862 45.6942 134.395 37.62 136.792 36.9989Z" fill="#E9BDA0"/>
<path d="M135.46 82.3386L129.868 88.6383C129.601 88.9932 129.601 89.4368 129.779 89.7917C130.045 90.1466 130.578 90.2354 131.022 90.0579L133.063 88.8157V94.0506C133.063 94.7605 133.774 95.2041 134.395 94.9379L137.946 93.607C138.212 93.5183 138.478 93.2521 138.567 92.9859C139.188 90.9452 141.585 85.4441 140.076 82.1611L135.46 82.3386Z" fill="#E9BDA0"/>
<path d="M134.129 32.5625C134.129 32.5625 141.763 32.5625 142.917 38.4185C143.982 43.7422 145.047 47.1138 145.047 47.1138L129.069 48.1786L134.129 32.5625Z" fill="#C6D4F4"/>
<path d="M134.129 47.8237L131.732 48.0898L131.377 41.8789" stroke="#A5B8DD" stroke-width="0.75" stroke-miterlimit="10"/>
<path d="M139.277 29.0138C143.542 29.0138 147 25.5578 147 21.2945C147 17.0312 143.542 13.5752 139.277 13.5752C135.012 13.5752 131.554 17.0312 131.554 21.2945C131.554 25.5578 135.012 29.0138 139.277 29.0138Z" fill="#401C16"/>
<path d="M135.993 15.6159C135.993 21.7381 131.022 26.7068 124.897 26.7068C118.772 26.7068 114.511 21.7381 114.511 15.6159C114.511 9.49365 118.772 4.5249 124.897 4.5249C131.022 4.5249 135.993 9.49365 135.993 15.6159Z" fill="#4C231A"/>
<path d="M127.915 17.7451L121.612 25.9968L123.654 32.6514C123.654 32.6514 123.565 34.6921 126.139 35.4019C128.714 36.1117 132.62 35.1357 132.531 32.6514L127.915 17.7451Z" fill="#E6BDA0"/>
<path d="M126.761 20.2294L128.092 18.2773C128.092 18.2773 130.667 27.4163 122.855 29.9894L121.612 26.0854L126.761 20.2294Z" fill="#CF9580"/>
<path d="M121.257 28.0375C117.174 28.0375 113.801 25.5532 113.801 21.4717V11.0905C113.801 9.31599 115.221 7.80762 117.085 7.80762H125.518C127.294 7.80762 128.803 9.22726 128.803 11.0905V20.4069C128.714 24.3997 124.719 28.0375 121.257 28.0375Z" fill="#E6BDA0"/>
<path d="M114.511 17.5679L112.114 19.7861C111.848 20.0522 111.937 20.4959 112.203 20.7621L114.156 22.0043L114.511 17.5679Z" fill="#E6BDA0"/>
<path d="M116.641 7.80806C116.641 7.80806 117.085 16.0597 127.294 16.5921C127.294 16.5921 132.531 14.4626 131.199 11.3572C129.868 8.2517 127.027 5.67859 124.187 6.12223C121.435 6.56587 116.641 7.80806 116.641 7.80806Z" fill="#4C231A"/>
<path d="M116.73 8.42912C116.73 8.42912 114.6 9.6713 113.801 13.7528C113.801 13.7528 110.694 11.6233 113.801 7.80802C116.908 3.99273 120.902 8.78403 120.902 8.78403L116.73 8.42912Z" fill="#4C231A"/>
<path d="M131.199 17.7453C131.199 19.2537 130.045 20.4072 128.536 20.4072C127.027 20.4072 125.873 19.2537 125.873 17.7453C125.873 16.237 127.027 15.0835 128.536 15.0835C130.045 15.0835 131.199 16.3257 131.199 17.7453Z" fill="#E6BDA0"/>
</svg>
