<svg width="85" height="97" viewBox="0 0 85 97" fill="none" xmlns="http://www.w3.org/2000/svg">
<path d="M3.11532 36.6465C1.84637 36.1706 1.60844 34.5052 2.63947 33.7121C4.46358 32.1259 6.12908 30.619 7.63595 28.9535L10.8876 25.3846C12.7117 23.3225 15.5669 23.0846 17.391 24.7501C19.0565 26.3363 19.2944 29.0328 17.9462 31.2535L15.4083 35.3776C11.5221 39.0258 6.20839 37.8361 3.11532 36.6465Z" fill="#F6A676"/>
<path d="M29.684 23.0053C25.7185 35.6155 26.2737 36.5672 17.2324 32.3638C10.8083 29.35 6.12909 21.1812 6.92218 13.964C7.71528 6.74688 14.8531 4.28829 20.6427 4.84346C26.4323 5.39862 34.1253 9.04685 29.684 23.0053Z" fill="#FFBD95"/>
<path d="M28.7322 20.7055C27.9391 22.5296 27.3047 26.0985 29.5253 27.1295C30.0805 27.4467 30.9529 26.8123 30.5563 26.0985C29.446 24.5916 29.2874 22.8468 29.7633 21.102C29.8426 20.5468 28.9702 20.071 28.7322 20.7055Z" fill="#FF8763"/>
<path d="M65.2145 89.229C65.2145 89.229 66.8007 92.1634 66.4042 95.5737C66.1663 97.0806 75.5247 95.3358 75.5247 95.3358C76.0006 96.0496 81.235 95.2565 81.3143 95.2565C81.3143 95.2565 82.4247 93.9083 80.1247 94.1462C77.8247 94.3841 69.6559 94.86 67.5938 89.5462L65.2145 89.229Z" fill="#FFBD95"/>
<path d="M3.6705 83.36C3.6705 83.36 2.005 96.4461 15.8841 96.2081C23.1013 96.1288 46.6562 71.2257 52.9216 67.7361L64.5008 92.7978L69.9731 90.1013L57.125 55.3638C55.1423 53.7777 52.525 53.3811 50.1458 54.3328L13.8221 74.3981L3.6705 83.36Z" fill="#474D87"/>
<path d="M65.6904 93.9877L71.9558 92.7188C71.9558 92.7188 78.0626 94.4636 82.7419 93.9877L84.3281 95.4946L66.1662 96.2877L65.6904 93.9877Z" fill="#474D87"/>
<path d="M2.71878 85.0255L22.784 71.2257C22.784 71.2257 21.5944 40.2951 15.4083 33.9503L6.84287 30.2228C6.84287 30.2228 5.01875 28.8745 0.815357 35.5365C-1.80185 39.6606 2.71878 85.0255 2.71878 85.0255Z" fill="#FC8E0A"/>
<path d="M12.2359 29.2709C12.2359 29.2709 5.89116 27.4468 4.14635 20.5469C2.40155 13.647 6.04978 11.1091 6.04978 11.1091C6.04978 11.1091 2.95671 5.00225 11.1256 1.90918C19.2944 -1.18388 24.6082 4.6057 30.3977 1.43333C36.1873 -1.73904 41.1045 9.84012 28.9702 12.8539C16.8358 15.8676 15.9634 11.5849 13.9014 13.7263C13.9014 13.7263 15.4083 19.9124 13.6635 25.0675C13.1876 26.4951 13.5049 28.3192 12.2359 29.2709Z" fill="#1E1029"/>
<path d="M14.3773 24.3537L13.5842 19.2779C13.5842 19.2779 11.1256 17.6917 10.1739 19.7538C9.22215 21.8158 11.9187 24.3537 14.3773 24.3537Z" fill="#FFBD95"/>
<path d="M70.5499 30.247L67.621 29.2529L59.8211 52.2329L62.7499 53.227L70.5499 30.247Z" fill="#1E1029"/>
<path d="M60.2239 54.6758L60.2738 52.0591L38.4681 51.6436L38.4182 54.2602L60.2239 54.6758Z" fill="#1E1029"/>
<path d="M2.8774 39.74C1.37052 43.3089 4.78082 47.3536 6.84287 50.6846C10.4118 56.6328 15.1703 63.85 17.7876 66.2293C21.5944 69.6396 42.8493 56.4742 42.8493 56.4742L41.2631 53.3018C41.2631 53.3018 23.8944 59.488 22.6254 57.9811C21.753 57.0294 17.3117 44.8951 15.9634 42.3572C14.3773 39.2641 12.4738 36.0124 8.98422 35.9331C5.57392 35.9331 3.82911 37.5986 2.8774 39.74Z" fill="#FFBD95"/>
<path d="M6.12909 34.0292C6.12909 34.0292 -0.0570346 36.7257 2.00501 44.8153L8.66699 57.1875L20.0875 49.0187L14.8531 37.7568C14.8531 37.7568 11.9187 32.3637 6.12909 34.0292Z" fill="#FFAF43"/>
<path d="M52.763 47.9087C53.1595 47.6708 53.0009 47.195 52.6837 47.0363C51.8113 46.7191 50.9388 46.6398 50.0664 46.4019C49.9078 46.0053 49.432 45.8467 49.1147 46.0053C48.6389 45.7674 48.2423 45.6088 47.6872 45.8467C47.0527 46.0053 46.5768 46.5605 46.1803 47.1156C46.3389 46.4812 45.3872 46.0846 45.1493 46.7191C44.6734 47.6708 44.1976 48.7018 43.6424 49.5742C42.2148 51.2397 40.9459 53.619 39.0425 54.65C38.4873 54.9673 38.7252 55.919 39.3597 55.919C39.5976 55.919 39.8355 55.919 40.0735 55.8397C40.1528 57.0293 41.6597 57.981 42.5321 56.8707C43.1665 56.1569 44.1976 55.6811 44.832 54.9673C45.5458 54.2535 46.101 53.4604 46.7355 52.6673C47.2906 51.8742 47.9251 50.8432 48.0044 49.8122C48.401 49.257 48.7975 48.7018 49.194 48.1467C49.7492 49.4156 50.3837 50.6053 51.3354 51.4777C51.8112 51.9535 52.6043 51.319 52.2078 50.7639C51.6526 49.9708 51.0975 49.1777 50.7009 48.3053C51.4147 48.3053 52.1285 48.3053 52.763 47.9087ZM47.7665 47.3536C47.6079 47.5915 47.4492 47.7501 47.2906 47.9881C47.4492 47.6708 47.6079 47.4329 47.7665 47.3536Z" fill="#FFBD95"/>
</svg>
