<svg width="136" height="188" viewBox="0 0 136 188" fill="none" xmlns="http://www.w3.org/2000/svg">
<path fill-rule="evenodd" clip-rule="evenodd" d="M115.614 186.88H118.421L118.439 186.826H118.475C118.475 186.826 129.375 157.411 129.375 151.184C129.375 144.958 127.27 135.51 127.27 135.51C127.27 135.51 136.768 103.465 135.365 96.5406C133.962 89.6162 123.223 77.1094 123.223 77.1094L123.179 77.1228L123.169 77.1094L121.736 77.5614L121.281 77.6998L121.284 77.704L103.257 83.3896C103.257 83.3896 87.7698 171.099 82.4814 186.45H82.8324C82.8231 186.469 82.8141 186.487 82.8053 186.504H84.9638C84.9638 186.504 100.451 156.337 101.153 151.238C101.553 148.326 101.602 144.504 101.64 141.491C101.669 139.228 101.692 137.421 101.854 136.799C102.178 135.564 112.97 113.127 116.532 106.632C116.458 106.391 116.384 106.173 116.31 105.978C118.974 105.598 120.147 135.618 120.147 135.618C120.147 135.618 119.122 174.427 115.614 186.88Z" fill="#474D87"/>
<path d="M77.6789 43.078C78.0027 42.756 78.2185 42.7023 78.3804 42.8633C78.5423 43.0244 78.5962 43.2927 78.2725 43.6148C77.9487 43.9369 77.571 44.0979 77.4091 43.9905C77.2472 43.8295 77.3551 43.4538 77.6789 43.078Z" fill="#FFBD95"/>
<path d="M76.9234 42.5948C77.1932 42.2191 77.409 42.2191 77.5709 42.3264C77.7328 42.4874 77.7868 42.7022 77.5709 43.0779C77.3011 43.4537 76.9234 43.6147 76.7615 43.5073C76.5996 43.4 76.6535 42.9705 76.9234 42.5948Z" fill="#FFBD95"/>
<path d="M76.0599 42.3804C77.8946 43.1319 80.7007 44.2591 80.269 45.2253C79.8373 46.1915 75.4663 43.6149 75.4663 43.6149L76.0599 42.3804Z" fill="#937D79"/>
<path d="M118.852 57.8393C121.227 47.3185 129.861 45.3325 126.623 37.3882C123.439 29.3903 122.899 28.6925 123.547 26.1696C124.248 23.6468 131.264 10.6032 121.874 4.80601C112.593 -0.99115 108.707 3.62511 108.707 3.62511C108.707 3.62511 106.279 -1.04483 101.422 1.2633C96.5657 3.57143 95.2706 16.615 98.7782 22.6806C102.34 28.6925 100.505 38.3007 101.206 44.3126C101.908 50.2708 118.852 57.8393 118.852 57.8393Z" fill="#1E1029"/>
<path d="M67.5879 21.0168C65.5913 21.1242 61.4902 22.4124 64.0264 34.0068C66.5626 45.5474 68.8291 37.6568 68.8291 37.6568C68.8291 37.6568 72.4985 20.7484 67.5879 21.0168Z" fill="#913C30"/>
<path d="M67.4798 20.7479C69.0447 20.6406 69.7463 22.3583 69.9621 24.7201C69.5844 23.6465 68.9368 23.0024 67.9655 23.0561C66.1308 23.1634 62.4074 24.2906 63.9723 33.8452C63.9723 33.7915 63.9723 33.7379 63.9183 33.6842C61.3821 22.1435 65.5372 20.8553 67.4798 20.7479Z" fill="#1E1029"/>
<path d="M76.1138 30.1957C80.215 31.806 82.5893 32.0207 83.6686 31.4303C83.7225 31.6986 83.6686 31.9133 83.5607 32.1281C82.9671 33.4163 80.7546 33.5774 75.898 31.4303C71.581 29.4979 64.6198 25.5257 65.0515 24.5059C66.9942 26.0088 72.4983 28.7464 76.1138 30.1957Z" fill="#F9AD8F"/>
<path d="M68.7211 24.7738C67.9116 24.2907 67.318 22.3583 66.5626 22.0899C65.8071 21.8752 66.2388 22.8414 65.969 22.6803C65.6992 22.4656 65.2135 21.9825 64.512 22.3583C63.8105 22.734 63.5946 25.2569 64.3501 25.7936C65.1056 26.3304 69.1528 27.0819 69.1528 27.0819L68.7211 24.7738Z" fill="#F9AD8F"/>
<path fill-rule="evenodd" clip-rule="evenodd" d="M78.0565 27.2002C73.7935 25.5362 65.7531 23.2818 65.1055 24.248C64.404 25.2142 71.635 29.24 75.898 31.1724C77.5146 31.8667 78.831 32.2998 79.8876 32.5204C82.6413 35.8924 97.6448 40.3406 97.6448 40.3406L98.0226 35.6707C95.253 34.4793 87.9406 31.3772 83.3592 30.5729C82.8599 29.6015 81.2361 28.4654 78.0565 27.2002Z" fill="#FFBD95"/>
<path d="M79.5675 31.0542C80.1071 31.4299 80.7547 31.752 81.4562 32.0204C83.6686 32.8256 85.7732 32.7719 86.0969 31.8057C86.1509 31.591 86.1509 31.3763 86.043 31.1616C90.4139 32.3961 95.7562 34.6506 98.0227 35.6168L97.6449 40.2867C97.6449 40.2867 78.0565 34.7043 79.2977 31.3763C79.2977 31.3226 79.5675 31.1079 79.5675 31.0542Z" fill="#F9AD8F"/>
<path d="M103.149 35.9929L87.3921 30.8936L85.8271 42.0048L100.289 44.1519L103.149 35.9929Z" fill="#F2ECD3"/>
<path d="M102.987 37.227L100.289 44.1514L85.8271 42.0043L86.7445 35.5093C93.6517 40.5013 97.9687 37.388 102.987 37.227Z" fill="#E5D7B5"/>
<path d="M32.9978 141.2H12.8158V122.359H15.406V138.677H32.9978V141.2Z" fill="#DDBABA"/>
<path d="M14.2188 130.626L12.8158 129.069V122.359H15.406V138.677H32.9978V141.2H14.2188V130.626Z" fill="#CC9F9F"/>
<path d="M42.6031 141.2H22.4211V122.359H25.0113V138.677H42.6031V141.2Z" fill="#DDBABA"/>
<path d="M23.8242 130.626L22.4211 129.069V122.359H25.0113V138.677H42.6031V141.2H23.8242V130.626Z" fill="#CC9F9F"/>
<path d="M3.75012 118.709C3.75012 116.401 5.63881 114.469 8.01316 114.469H38.0703L43.5745 127.19H7.47354C5.42296 127.19 3.75012 125.526 3.75012 123.487V118.709Z" fill="#8E5955"/>
<path d="M13.4634 117.958C19.9928 117.958 25.2812 116.455 25.2812 114.63C25.2812 114.576 25.2812 114.522 25.2272 114.469H38.0703L43.5745 127.19H7.47354C5.42296 127.19 3.75012 125.526 3.75012 123.487V118.709C3.75012 118.011 3.96597 117.314 4.23579 116.777C6.44825 117.475 9.73997 117.958 13.4634 117.958Z" fill="#7C4543"/>
<path d="M8.28298 114.469C10.3336 114.469 12.0604 116.133 12.0604 118.226V122.574C12.0604 125.151 9.95582 127.19 7.41958 127.19C5.04524 127.19 3.10259 125.258 3.10259 122.896V119.675C3.04862 116.831 5.42297 114.469 8.28298 114.469Z" fill="#A06B65"/>
<path d="M44.1141 62.992C44.7077 59.2883 47.9454 56.4971 51.7228 56.4971H95.3785L79.0818 138.999H31.9725L44.1141 62.992Z" fill="#B2867F"/>
<path d="M40.4447 86.0739C45.4632 87.3621 52.8021 82.5848 57.7666 74.4258C61.7598 67.8772 63.1089 61.0065 61.7599 56.5513H95.3785L79.0818 139.053H31.9725L40.4447 86.0739Z" fill="#A06460"/>
<path d="M82.8593 92.5686C80.9166 87.5229 75.8442 72.4932 76.2219 70.5608C76.6536 68.6284 89.7665 60.8452 89.7665 60.8452L82.8593 92.5686Z" fill="#B2867F"/>
<path fill-rule="evenodd" clip-rule="evenodd" d="M12.4921 147.159H41.5239H44.9235H48.7009H74.3331L48.2864 153.006L46.2437 181.827L64.7278 188.007H45.2473H25.551L43.9824 181.845L41.9489 153.155L12.4921 147.159Z" fill="#1E1029"/>
<path d="M44.9235 153.761L37.4227 147.159H12.4921L44.9235 153.761Z" fill="#5A4B67"/>
<path d="M36.2896 117.851C34.4009 116.616 18.0502 115.274 18.5359 110.443C18.8057 107.545 41.0922 112.805 42.5492 116.831C43.5745 119.407 36.2896 117.851 36.2896 117.851Z" fill="#472F2B"/>
<path d="M66.4006 135.403H8.66075C8.66075 135.403 6.87999 125.043 12.4381 121.393C15.7838 119.193 63.7565 113.932 65.6991 114.952C69.0988 116.723 73.3078 126.278 66.4006 135.403Z" fill="#FC8E0A"/>
<path d="M26.1986 123.003C42.1715 127.727 50.104 125.634 50.104 123.272C50.104 121.5 41.1462 118.334 33.9692 117.636C48.2693 115.864 64.6199 114.361 65.7531 114.952C69.0988 116.723 73.3079 126.278 66.4007 135.403H8.66078C8.66078 135.403 7.52757 128.854 9.90192 124.292C13.6253 125.312 19.9929 121.178 26.1986 123.003Z" fill="#D96800"/>
<path d="M12.3841 122.896C14.9203 121.125 25.1192 122.145 27.3857 123.487C32.0264 126.171 31.4329 133.417 31.4329 136.369L8.98447 136.262C8.87654 127.083 9.63202 124.775 12.3841 122.896Z" fill="#E27E33"/>
<path d="M23.7163 132.88L31.6488 134.061C31.6488 134.061 32.3503 127.835 28.411 124.238C28.411 124.238 20.8563 121.984 19.885 124.238C18.8597 126.439 23.7163 132.88 23.7163 132.88Z" fill="#F9AD8F"/>
<path d="M15.7837 131.431L23.7162 133.364C23.7162 133.364 25.3351 127.244 21.072 123.97C21.072 123.97 13.0316 123.057 12.2761 125.366C11.5207 127.62 15.7837 131.431 15.7837 131.431Z" fill="#F9AD8F"/>
<path d="M53.6114 135.35H71.9047L88.3633 62.5631C89.1727 59.0741 92.3026 56.5513 95.8641 56.5513L78.5421 147.32H48.485V140.342C48.5389 137.604 50.8054 135.35 53.6114 135.35Z" fill="#874A48"/>
<path d="M80.8086 107.491C81.9418 105.612 83.7226 99.8149 81.4561 95.5744C80.1071 93.0515 63.1089 106.793 63.3787 111.033C63.5406 113.878 80.8086 107.491 80.8086 107.491Z" fill="#472F2B"/>
<path d="M68.4512 117.368L65.9149 93.1593L50.4277 90.9585L44.5997 115.167C44.5997 115.167 60.7345 119.461 68.4512 117.368Z" fill="#D96800"/>
<path d="M19.6151 140.342C19.6151 137.55 21.5578 135.296 23.9321 135.296H71.7969L79.6754 140.556L78.9199 147.266H19.6151V140.342Z" fill="#7C4543"/>
<path d="M14.003 135.35H50.4277L48.593 147.32H8.9845V140.342C8.9845 137.604 11.197 135.35 14.003 135.35Z" fill="#A06B65"/>
<path d="M23.8242 136.101H32.0265L35.1024 147.32H26.8461L23.8242 136.101Z" fill="#874A48"/>
<path d="M13.8951 136.101H22.1514L22.6371 147.32H14.3808L13.8951 136.101Z" fill="#874A48"/>
<path d="M10.8192 136.423C11.7366 135.725 12.8698 135.296 14.1649 135.296H52.3164L52.1545 136.423H10.8192Z" fill="#7C4543"/>
<path d="M83.1831 111.57C85.5034 111.033 80.2151 95.2523 74.9808 84.1411L71.0955 90.7971C71.0955 90.7971 74.8189 113.503 83.1831 111.57Z" fill="#FCA13E"/>
<path d="M82.8052 109.047C82.1577 106.364 80.4309 104.485 78.9739 104.807C77.8407 105.075 77.1931 106.578 77.2471 108.511C72.984 102.66 71.0414 90.7971 71.0414 90.7971L74.9267 84.1411C80.161 95.2523 85.4494 111.033 83.129 111.57C83.075 111.57 83.0211 111.57 82.9671 111.57C83.129 110.819 83.0211 109.96 82.8052 109.047Z" fill="#FC8E0A"/>
<path d="M85.0717 107.437C88.2015 110.121 86.4207 113.181 85.0717 115.274C78.9199 116.938 75.898 111.141 75.952 109.423C76.0599 107.33 81.9418 104.753 85.0717 107.437Z" fill="#FC8E0A"/>
<path d="M79.9452 109.262C82.2117 109.262 84.0464 108.35 84.0464 107.222C84.0464 107.061 83.9924 106.847 83.8845 106.686C84.3162 106.847 84.6939 107.115 85.0717 107.383C88.2015 110.067 86.4207 113.127 85.0717 115.22C78.9199 116.884 75.898 111.087 75.952 109.369C75.952 108.994 76.1679 108.672 76.4377 108.296C77.1931 108.886 78.4882 109.262 79.9452 109.262Z" fill="#D96800"/>
<path d="M62.4075 118.817C62.4075 116.455 64.3501 114.522 66.7245 114.522H85.8812C88.1476 114.522 90.1982 115.703 91.3314 117.636C92.4646 119.568 92.4646 121.93 91.3853 123.916C90.1982 125.956 88.0397 127.244 85.6653 127.244H66.4007C64.1882 127.244 62.4075 125.473 62.4075 123.272V118.817Z" fill="#8E5955"/>
<path d="M65.2134 114.361C65.2134 113.771 68.9908 114.093 73.6855 114.093C78.3802 114.093 82.1576 113.771 82.1576 114.361C82.1576 114.952 78.3802 116.186 73.6855 116.186C68.9908 116.133 65.2134 114.898 65.2134 114.361Z" fill="#7C4543"/>
<path d="M73.9554 119.675C81.6181 119.675 87.9857 117.743 89.011 115.274C89.9823 115.811 90.7918 116.616 91.3854 117.582C92.5186 119.514 92.5186 121.876 91.4393 123.862C90.2521 125.902 88.0936 127.19 85.7193 127.19H66.4547C64.2422 127.19 62.4614 125.419 62.4614 123.218V118.817C62.4614 118.548 62.5154 118.226 62.5693 117.958C65.2675 119.031 69.3686 119.675 73.9554 119.675Z" fill="#7C4543"/>
<path d="M68.2894 114.469C70.0162 114.469 71.3653 115.864 71.3653 117.528V123.701C71.3653 125.634 69.8003 127.137 67.9116 127.137H65.5373C63.8105 127.137 62.4614 125.741 62.4614 124.077V118.011C62.4614 116.025 64.0803 114.469 66.023 114.469H68.2894Z" fill="#A06B65"/>
<path d="M129.915 85.9665C129.915 85.9665 118.097 88.865 101.261 92.9982C101.261 92.9982 105.685 71.6346 94.9469 55.1556C94.9469 55.1556 97.9148 34.4898 100.235 35.0803C102.556 35.6707 118.475 40.8238 119.176 43.0245C120.525 47.2114 115.507 61.9727 117.287 66.75C119.392 72.5471 125.921 77.7001 129.915 85.9665Z" fill="#F2ECD3"/>
<path d="M114.05 40.4478L108.06 42.6486L106.549 39.4279L104.12 39.3206L104.174 36.583L108.707 37.2271L114.05 40.4478Z" fill="#E5D7B5"/>
<path d="M94.9469 55.2091C94.9469 55.2091 94.9469 55.1554 94.9469 55.048C98.5624 55.2091 105.955 55.4774 108.977 55.1554C112.161 54.8333 115.992 47.8016 118.96 42.8096C119.014 42.9169 119.068 42.9706 119.122 43.078C120.471 47.2648 115.453 62.0261 117.233 66.8034C119.338 72.5469 125.867 77.7536 129.861 86.0199C129.861 86.0199 127.756 86.503 124.141 87.4155C114.265 89.8847 102.286 92.7833 101.261 93.0516C101.261 93.0516 105.685 71.688 94.9469 55.2091Z" fill="#E5D7B5"/>
<path d="M100.721 35.1875C100.721 35.1875 93.5978 42.8097 93.2201 55.5849L94.5692 55.5312C94.6771 53.9746 95.8643 42.8634 101.908 35.5632L100.721 35.1875Z" fill="#FC8E0A"/>
<path d="M114.427 40.1255C114.427 40.1255 103.473 44.6344 103.257 54.8331L104.606 54.7794C104.984 53.6522 104.768 45.9226 115.776 40.7696L114.427 40.1255Z" fill="#FC8E0A"/>
<path fill-rule="evenodd" clip-rule="evenodd" d="M94.4072 128.801C93.9755 128.318 93.8136 127.674 93.9215 127.03C95.6284 116.198 97.2069 107.666 98.4651 100.865C100.667 88.9604 101.888 82.3607 101.099 78.0222C99.9653 71.8493 93.0042 55.3166 93.0042 55.3166L103.959 54.082C103.959 54.082 108.815 68.5749 115.129 80.2229C120.255 89.6165 119.662 116.24 119.284 126.063C119.176 128.372 117.341 130.143 115.075 130.25C109.517 130.411 100.397 129.928 96.0261 129.66C95.3785 129.606 94.7849 129.284 94.4072 128.801Z" fill="#FC8E0A"/>
<path opacity="0.5" d="M101.908 127.352C104.336 112.483 111.675 92.7296 117.125 85.7515C116.586 83.5507 115.938 81.672 115.129 80.1691C115.021 80.008 114.967 79.847 114.859 79.7396C110.92 77.2168 105.955 72.7079 101.206 67.0718C97.7528 62.9923 94.9468 58.9128 92.9502 55.3164C93.0042 55.4238 99.9114 71.8491 101.045 78.022C102.286 84.839 98.5623 97.2385 93.8676 126.976C93.7596 127.62 93.9215 128.264 94.3532 128.747C94.731 129.23 95.3245 129.552 95.9721 129.606C97.3751 129.713 99.3178 129.821 101.476 129.928C101.638 129.123 101.746 128.264 101.908 127.352Z" fill="#BC5642"/>
<path fill-rule="evenodd" clip-rule="evenodd" d="M77.4091 46.6211C78.5423 48.4999 96.8895 67.8237 98.9401 67.1259C98.9934 67.1074 99.0455 67.0885 99.0964 67.069C101.86 66.4959 113.402 50.432 113.402 50.432L110.488 46.6209C110.204 46.966 109.828 47.4126 109.384 47.9399C106.699 51.1283 101.525 57.2704 99.2037 61.8124C94.0804 55.381 78.1106 45.9233 78.1106 45.9233L77.4091 46.6211Z" fill="#FFBD95"/>
<path d="M102.394 61.9724C103.689 60.1473 103.959 58.1076 102.933 57.4098C102.717 57.2488 102.448 57.1951 102.124 57.1951C105.2 52.9009 109.031 48.4457 110.488 46.6743L113.402 50.4854C113.402 50.4854 101.206 68.4137 98.7242 67.0717C98.1306 66.7497 97.9147 66.2129 97.9687 65.4614C99.3717 64.9783 101.422 63.3143 102.394 61.9724Z" fill="#F9AD8F"/>
<path d="M114.859 41.8973C111.891 42.5415 103.149 54.8873 103.149 54.8873L114.211 58.9668C114.211 58.9668 119.931 48.768 120.039 45.8695C120.201 42.9172 117.881 41.3069 114.859 41.8973Z" fill="#F2ECD3"/>
<path d="M114.967 42.1655C112.269 42.8097 105.146 53.1157 103.797 55.1018L103.149 54.8871C103.149 54.8871 111.891 42.5413 114.859 41.8971C116.802 41.4677 118.475 42.0582 119.392 43.2928C118.475 42.2192 116.802 41.7361 114.967 42.1655Z" fill="#F4EFD9"/>
<path d="M115.399 51.0222C117.395 48.7678 118.96 46.406 119.877 44.3662C120.039 44.7956 120.093 45.3324 120.039 45.8692C119.931 48.7678 114.211 58.9665 114.211 58.9665L108.276 56.7657C110.488 55.6922 113.078 53.6524 115.399 51.0222Z" fill="#EDE0C3"/>
<path d="M116.316 28.4242C116.37 28.8536 112.862 39.106 112.862 39.106L107.358 39.9111L105.685 37.5493L108.869 27.4043L116.316 28.4242Z" fill="#F6A676"/>
<path d="M106.387 38.9448L107.034 37.2808H105.469L106.387 38.9448Z" fill="#F2ECD3"/>
<path d="M109.193 39.6427L107.79 37.4956L107.358 40.0185L109.193 39.6427Z" fill="#F2ECD3"/>
<path d="M108.276 41.3604L107.79 37.4956L113.78 37.7103L113.834 39.9111L108.276 41.3604Z" fill="#FFFCE6"/>
<path d="M56.0398 41.2526C63.8643 33.201 65.9689 25.4178 65.3213 22.8413C64.6738 20.4795 70.3938 19.1375 70.8795 24.4516C71.2032 27.4575 69.5304 36.4753 75.4123 47.5329C80.107 56.3896 71.0953 69.7553 65.1055 71.2583L51.9386 60.7375C48.9167 53.008 52.4782 44.9027 56.0398 41.2526Z" fill="#1E1029"/>
<path d="M67.5878 36.8515C67.5878 33.094 70.6097 26.5454 70.6636 23.3784C70.7715 23.7005 70.8255 24.0762 70.8795 24.452C71.2032 27.4579 70.2859 36.4757 76.1678 47.5869C80.8625 56.4437 71.1493 69.8094 65.1055 71.3124L51.9386 60.7916C51.345 59.235 51.0213 57.6783 50.8594 56.1217C74.9806 65.5689 67.5878 42.917 67.5878 36.8515Z" fill="black"/>
<path d="M33.0518 114.04L8.98449 114.737L8.17505 113.449C8.17505 113.449 26.7382 108.618 29.4902 109.155C32.2423 109.638 36.5054 112.376 33.0518 114.04Z" fill="#FFBD95"/>
<path fill-rule="evenodd" clip-rule="evenodd" d="M67.9117 66.1592L65.4294 76.6799L57.9825 76.7873L58.2333 76.009C58.0824 75.775 58.1337 75.4505 58.4681 75.0163C58.5116 74.9598 58.5576 74.9052 58.606 74.8524L60.6807 68.4136L67.9117 66.1592Z" fill="#F6A676"/>
<path d="M22.4212 113.503C23.6084 113.342 20.8023 111.839 19.0216 110.819C23.6084 109.799 28.2492 108.887 29.5443 109.101C32.2963 109.585 36.9371 113.02 33.5375 114.684H8.98454L8.66077 114.147C12.8159 114.04 21.342 113.664 22.4212 113.503Z" fill="#F9AD8F"/>
<path d="M18.7518 110.068C27.3319 110.014 38.0704 118.71 47.244 119.408C60.8426 120.427 80.8627 97.5072 82.4276 98.4734C82.4816 94.4476 73.0921 78.559 70.5559 76.0362C68.3434 73.8354 50.8056 75.3921 49.4565 77.0024C48.1074 78.5054 22.5292 108.028 18.7518 110.068Z" fill="#474D87"/>
<path d="M81.672 114.63H61.0043L60.5187 113.288C60.5187 113.288 78.3803 106.793 81.5101 107.33C84.532 107.92 85.5033 112.751 81.672 114.63Z" fill="#FFBD95"/>
<path d="M70.6636 113.181C79.5135 112.644 81.3482 110.443 81.1323 108.994C81.0244 108.404 79.6214 108.028 77.4089 107.92C79.2437 107.491 80.7006 107.223 81.4022 107.384C84.478 107.92 85.4493 112.805 81.618 114.684H60.9504L60.6805 113.986C64.0262 113.664 67.5877 113.396 70.6636 113.181Z" fill="#F9AD8F"/>
<path d="M17.1869 129.445C17.7805 127.191 18.9676 122.95 21.8277 123.379C24.6877 123.809 27.008 138.731 27.008 141.683C27.008 147.964 24.256 164.496 21.5578 181.619C21.5039 181.941 19.885 181.834 19.885 181.19C20.2088 163.691 16.6473 131.646 17.1869 129.445Z" fill="#FFBD95"/>
<path d="M24.6876 142.972C24.6876 140.556 24.2559 128.157 22.1514 123.487C25.0114 124.399 27.6016 139.161 27.6016 142.059C27.6016 148.339 24.2559 164.55 21.5578 181.673C21.5039 181.995 21.0182 181.029 21.0182 181.029C23.7163 164.389 24.7416 149.091 24.6876 142.972Z" fill="#F9AD8F"/>
<path d="M9.2003 129.714C10.2256 127.566 12.2222 123.487 14.9743 124.453C17.7264 125.419 15.8377 144.904 15.2441 147.91C14.003 154.298 9.73992 169.22 6.07047 181.727C5.96255 182.156 4.8833 182.103 4.93726 181.62C7.63539 163.638 8.17501 131.861 9.2003 129.714Z" fill="#FFBD95"/>
<path d="M12.9778 147.159C13.4095 144.421 15.9997 128.103 14.4348 124.292C14.5967 124.292 14.9744 124.024 15.1363 124.077C17.8884 125.044 16.5933 145.065 15.9997 148.071C14.7586 154.459 9.74003 169.166 6.07058 181.673C6.07058 181.781 5.96265 181.834 5.90869 181.888C9.25437 169.274 11.9525 153.546 12.9778 147.159Z" fill="#F9AD8F"/>
<path d="M73.7936 187.9H84.9638C84.9638 187.9 85.9351 185.377 84.2083 184.679C82.4815 183.928 74.5491 186.88 73.7936 187.9Z" fill="#1E1029"/>
<path d="M113.186 188.061H120.795C120.795 188.061 119.77 184.572 118.367 183.82C116.91 183.123 113.78 187.041 113.186 188.061Z" fill="#1E1029"/>
<path d="M0.890137 188.276C4.07392 187.578 7.20375 183.659 7.52752 181.19C7.8513 178.721 6.93394 177.057 5.74676 177.755C2.61694 179.58 0.890137 188.276 0.890137 188.276Z" fill="#1E1029"/>
<path d="M15.1362 189.617C18.4279 188.383 22.4751 183.82 22.7989 181.297C23.1227 178.774 21.288 177.54 20.1008 178.399C16.863 180.76 15.1362 189.617 15.1362 189.617Z" fill="#1E1029"/>
<path fill-rule="evenodd" clip-rule="evenodd" d="M71.4732 102.714C67.5879 108.081 57.1192 120.91 44.1682 117.797C41.9217 117.244 39.8493 116.579 37.9195 115.861C43.554 110.386 45.181 97.0694 43.9523 96.2723C43.4439 95.9275 41.164 98.0536 38.2146 100.804C34.4631 104.303 29.6284 108.811 25.9779 110.53C24.0695 109.674 22.2797 108.972 20.5326 108.564C19.7232 109.316 19.0756 109.853 18.6979 110.067C23.1323 110.04 28.1576 112.349 33.2376 114.683C37.9868 116.866 42.7837 119.07 47.1901 119.407C56.6858 120.122 69.3908 109.071 76.6773 102.732C79.7841 100.03 81.9058 98.1843 82.3736 98.4731C82.4816 94.4473 75.2506 78.9345 72.6604 76.358C71.9049 75.6065 66.8324 74.9624 63.3788 74.9624C63.6286 75.4936 63.9114 76.0871 64.2187 76.7318C67.7609 84.1654 74.5519 98.4164 71.4732 102.714ZM39.0957 98.0971C41.632 96.5941 48.8629 89.7771 48.4852 87.6837C48.0535 85.5366 39.0957 98.0971 39.0957 98.0971ZM41.2542 116.348C48.9708 118.763 55.824 115.328 58.1444 113.61C57.9241 113.678 57.7062 113.746 57.4906 113.812C51.7394 115.588 47.5997 116.865 41.2542 116.348Z" fill="#252847"/>
<path d="M48.8628 78.881C46.2726 81.7259 35.4261 96.2189 35.4261 96.2189C35.4261 96.2189 52.1545 79.5252 51.9387 78.3979C51.7228 77.2707 49.8881 77.7538 48.8628 78.881Z" fill="#6E73A4"/>
<path d="M99.3717 64.4415C99.8574 64.2805 100.883 63.5827 101.152 63.3143C101.8 64.8173 100.829 66.9107 99.1019 67.5012C97.0513 68.199 78.5421 48.553 77.4629 46.6743H77.7867C81.2403 50.5928 97.537 65.0857 99.3717 64.4415Z" fill="#F9AD8F"/>
<path d="M69.0449 47.6942C71.5811 49.895 75.6822 52.0421 75.0887 48.4994C74.4951 45.0103 67.5339 35.7241 68.1814 31.8594C65.915 35.1337 63.5407 42.9706 69.0449 47.6942Z" fill="#1E1029"/>
<path d="M70.6097 55.2096C70.5018 59.5038 68.1814 69.0583 66.4546 70.615C64.7278 72.1716 57.4968 74.9628 53.2338 74.4261C53.2338 74.4261 49.6722 67.8774 49.6183 65.0862C49.6183 60.5773 52.4243 55.3706 53.1798 50.2712C53.5036 47.9631 58.1983 44.3667 61.7599 45.2256C65.4293 45.977 70.7716 49.9492 70.6097 55.2096Z" fill="#FFBD95"/>
<path d="M64.8358 67.9307C64.7279 64.0659 67.8037 64.0659 67.4799 58.9129C66.9403 49.8951 55.6622 47.2649 60.8426 43.5075C66.023 39.75 74.603 48.8752 72.8762 57.1952C71.1494 65.5152 64.8358 67.9307 64.8358 67.9307Z" fill="#1E1029"/>
<path d="M67.4799 58.9126C67.1022 52.9007 62.0297 49.7337 60.141 47.1572C61.0044 47.9087 62.0836 48.5528 63.3248 49.0896C66.5086 50.4315 70.7716 50.1632 72.6063 49.0359C73.7395 51.4514 74.1713 54.6721 73.6316 57.3559C71.9048 65.6759 64.7818 67.8767 64.7818 67.8767C64.7278 64.0656 67.8037 64.0656 67.4799 58.9126Z" fill="black"/>
<path d="M65.9689 70.6685C68.2893 70.2928 72.1746 67.8773 71.581 65.3008C70.9335 62.7243 68.0195 64.4956 66.9942 65.5692C65.9689 66.5891 63.3248 71.0443 65.9689 70.6685Z" fill="#FFBD95"/>
<path d="M104.552 36.4221L106.117 35.2412L107.035 37.281L104.552 38.945V36.4221Z" fill="#FFFCE6"/>
<path d="M103.797 53.3843L115.507 57.9469L114.805 59.5572L102.717 55.1556L103.797 53.3843Z" fill="#FFFCE6"/>
<path d="M89.1728 31.0543L86.9064 42.7023L85.1796 42.3802L87.2301 30.4102L89.1728 31.0543Z" fill="#FFFCE6"/>
<path d="M115.075 16.2395C116.694 21.0167 116.316 29.0684 114.913 30.8934C113.564 32.7184 107.034 36.8516 102.879 37.12C102.879 37.12 98.2924 31.4302 97.5909 28.6926C96.7275 25.1499 98.7781 21.2851 98.1845 15.5416C97.9687 13.2335 101.962 8.24152 105.631 8.34887C109.301 8.45623 113.456 11.2475 115.075 16.2395Z" fill="#FFBD95"/>
<path d="M113.294 30.4637C115.83 30.6248 119.716 28.3167 119.608 25.9012C119.554 23.4857 116.316 23.8078 115.614 24.2908C115.021 24.8276 111.028 30.3564 113.294 30.4637Z" fill="#FFBD95"/>
<path d="M61.7599 112.912L63.5406 113.234C62.0297 113.878 62.1376 115.435 61.598 115.972C60.8964 116.723 57.8745 117.314 57.8745 116.67C57.8206 115.972 59.7093 113.019 61.7599 112.912Z" fill="#FFBD95"/>
<path d="M58.8998 116.347C58.5221 117.206 58.4681 120.588 57.9285 120.642C57.3889 120.695 57.1191 116.884 58.0904 115.864C59.1157 114.898 58.8998 116.347 58.8998 116.347Z" fill="#FFBD95"/>
<path d="M61.8678 115.435C61.4361 116.24 61.1663 119.622 60.6806 119.675C60.141 119.729 60.141 115.864 61.1663 114.952C62.1376 113.986 61.8678 115.435 61.8678 115.435Z" fill="#FFBD95"/>
<path d="M60.0331 116.724C59.7093 117.582 60.141 120.964 59.6014 121.125C59.0617 121.233 58.3063 117.475 59.1697 116.348C60.0331 115.221 60.0331 116.724 60.0331 116.724Z" fill="#FFBD95"/>
<path d="M10.7114 112.912L11.9525 113.717C10.2797 113.878 9.95588 115.381 9.30833 115.757C8.39097 116.294 5.31511 115.972 5.53096 115.328C5.74681 114.683 8.76871 112.429 10.7114 112.912Z" fill="#FFBD95"/>
<path d="M7.47364 114.576C6.71816 115.113 5.04532 118.119 4.55965 117.904C4.07399 117.743 5.69287 114.201 6.98798 113.771C8.33705 113.395 7.47364 114.576 7.47364 114.576Z" fill="#FFBD95"/>
<path d="M9.73999 115.382C9.09244 116.026 7.8513 119.193 7.31167 119.085C6.82601 118.978 7.90526 115.274 9.1464 114.684C10.4415 114.04 9.73999 115.382 9.73999 115.382Z" fill="#FFBD95"/>
<path d="M8.17506 115.596C7.41959 116.187 5.9626 119.246 5.47693 119.085C4.93731 118.924 6.28637 115.328 7.63544 114.791C8.9845 114.308 8.17506 115.596 8.17506 115.596Z" fill="#FFBD95"/>
<path d="M12.708 113.771C12.2223 113.932 11.8985 114.683 11.6287 115.488C11.3049 116.455 10.3336 117.85 10.0638 117.582C9.25437 116.777 10.9812 114.844 9.47022 114.522C8.66078 114.361 10.6034 113.073 11.4668 113.127C12.9238 113.234 12.708 113.771 12.708 113.771Z" fill="#FFBD95"/>
<path fill-rule="evenodd" clip-rule="evenodd" d="M66.7783 21.8324C66.8778 22.1292 66.3358 22.5171 65.5323 22.7442C66.193 22.783 66.6814 22.9715 66.7244 23.2281C66.7784 23.5502 66.0229 23.8186 65.1055 23.8723C64.1882 23.9259 63.9184 23.7649 63.8644 23.4428C63.8284 23.2283 63.9362 23.0137 64.2835 22.8785C64.1453 22.8345 64.0715 22.7502 64.0262 22.6376C63.9183 22.3155 64.0802 21.9398 64.9976 21.7251C65.861 21.4567 66.6704 21.5104 66.7783 21.8324ZM64.8357 25.2142C65.7531 25.3215 66.5625 25.1605 66.5625 24.8384C66.5625 24.5164 65.861 24.1943 64.9436 24.0869C64.0263 23.9796 63.7025 24.248 63.7025 24.57C63.6485 24.8921 63.9183 25.1068 64.8357 25.2142Z" fill="#FFBD95"/>
<path d="M68.1814 37.2271L76.5995 40.8771C76.2218 42.6485 75.952 43.561 74.9267 44.6882L66.5085 41.0382C66.7244 39.2131 67.0482 38.3006 68.1814 37.2271Z" fill="#FFD5C7"/>
<path d="M70.7716 42.5947C72.7142 43.3462 74.549 43.6683 75.6822 43.5609C75.4663 43.9367 75.1965 44.3124 74.8727 44.6881L66.4546 41.0381C66.5086 40.716 66.5086 40.4476 66.5625 40.2329C67.4259 41.0381 68.9369 41.8969 70.7716 42.5947Z" fill="#E8B5A7"/>
<path d="M71.9588 39.5889C70.0161 38.8374 68.2354 38.5153 67.1561 38.569C67.4259 38.0859 67.7497 37.6565 68.1814 37.2271L76.5996 40.8771C76.4916 41.3065 76.4377 41.6823 76.3298 42.058C75.5203 41.2529 73.9554 40.3403 71.9588 39.5889Z" fill="#E8B5A7"/>
<path d="M68.721 37.8711L75.7361 40.9307C75.4124 42.38 75.1965 43.1852 74.3331 44.1514L67.318 41.0917C67.4799 39.5351 67.8037 38.7299 68.721 37.8711Z" fill="#68514B"/>
<path d="M76.0599 43.9907C76.3837 43.7223 77.0312 44.5274 77.5169 44.5811C78.3263 44.7421 78.4882 42.7024 79.3516 43.2392C79.7833 43.5076 78.704 46.0304 79.0818 46.5135L78.8659 47.6407C76.5995 46.6208 75.6821 44.259 76.0599 43.9907Z" fill="#FFBD95"/>
<path d="M68.1274 38.9447C68.3433 38.4616 69.8542 38.6226 71.4192 39.3204C72.9841 40.0182 74.1173 41.0381 73.8475 41.5212C73.6316 42.0043 72.1207 41.8433 70.5558 41.1455C68.9908 40.4477 67.9116 39.4815 68.1274 38.9447Z" fill="#9B7A73"/>
</svg>
