<svg width="159" height="105" viewBox="0 0 159 105" fill="none" xmlns="http://www.w3.org/2000/svg">
<g filter="url(#filter0_d)">
<path d="M152.618 38.8556C152.618 38.6828 152.618 38.3371 152.618 38.1642C152.618 29.5219 145.528 22.4351 136.88 22.4351C134.805 22.4351 132.73 22.9536 130.827 23.645C129.79 10.8543 118.894 0.656296 105.75 0.656296C95.2004 0.656296 86.3801 7.05166 82.5753 16.2126C80.5 15.5212 78.2517 15.0026 76.0034 15.0026C65.1078 15.0026 56.2876 23.8179 56.2876 34.7073C56.2876 36.0901 56.4605 37.3 56.6335 38.6828H152.618V38.8556Z" fill="white"/>
</g>
<g filter="url(#filter1_d)">
<path d="M47.2143 95.6675C47.2143 95.4947 47.2143 95.4947 47.2143 95.3218C47.2143 91.0006 43.7554 87.7165 39.6047 87.7165C38.567 87.7165 37.5293 87.8894 36.6646 88.2351C36.1457 82.0126 30.7844 77 24.3854 77C19.197 77 14.8734 80.1113 12.971 84.6053C11.9333 84.2596 10.8956 84.0867 9.68499 84.0867C4.32366 84.0867 0 88.4079 0 93.7662C0 94.4576 1.055e-05 94.9761 0.172957 95.6675H47.2143Z" fill="white"/>
</g>
<defs>
<filter id="filter0_d" x="56.2876" y="0.656296" width="102.331" height="47.1993" filterUnits="userSpaceOnUse" color-interpolation-filters="sRGB">
<feFlood flood-opacity="0" result="BackgroundImageFix"/>
<feColorMatrix in="SourceAlpha" type="matrix" values="0 0 0 0 0 0 0 0 0 0 0 0 0 0 0 0 0 0 127 0"/>
<feOffset dx="5" dy="8"/>
<feGaussianBlur stdDeviation="0.5"/>
<feColorMatrix type="matrix" values="0 0 0 0 0 0 0 0 0 0 0 0 0 0 0 0 0 0 0.3 0"/>
<feBlend mode="normal" in2="BackgroundImageFix" result="effect1_dropShadow"/>
<feBlend mode="normal" in="SourceGraphic" in2="effect1_dropShadow" result="shape"/>
</filter>
<filter id="filter1_d" x="0" y="77" width="53.2143" height="27.6675" filterUnits="userSpaceOnUse" color-interpolation-filters="sRGB">
<feFlood flood-opacity="0" result="BackgroundImageFix"/>
<feColorMatrix in="SourceAlpha" type="matrix" values="0 0 0 0 0 0 0 0 0 0 0 0 0 0 0 0 0 0 127 0"/>
<feOffset dx="5" dy="8"/>
<feGaussianBlur stdDeviation="0.5"/>
<feColorMatrix type="matrix" values="0 0 0 0 0 0 0 0 0 0 0 0 0 0 0 0 0 0 0.3 0"/>
<feBlend mode="normal" in2="BackgroundImageFix" result="effect1_dropShadow"/>
<feBlend mode="normal" in="SourceGraphic" in2="effect1_dropShadow" result="shape"/>
</filter>
</defs>
</svg>
