<svg width="804" height="158" viewBox="0 0 804 158" fill="none" xmlns="http://www.w3.org/2000/svg">
<path fill-rule="evenodd" clip-rule="evenodd" d="M767.258 157.131C767.094 156.512 766.604 156.718 766.115 157.131C765.951 157.75 767.094 157.75 767.258 157.131Z" fill="#F0D2BB"/>
<path fill-rule="evenodd" clip-rule="evenodd" d="M713.042 157.75C713.205 157.957 714.022 157.544 713.695 157.131C713.532 156.925 712.716 157.337 713.042 157.75Z" fill="#F0D2BB"/>
<path fill-rule="evenodd" clip-rule="evenodd" d="M288.464 156.512C287.81 156.512 287.32 156.512 286.667 156.512C286.504 157.544 287.32 157.75 288.464 157.544C288.464 157.337 288.464 156.925 288.464 156.512Z" fill="#F0D2BB"/>
<path fill-rule="evenodd" clip-rule="evenodd" d="M11.6708 156.512C10.691 156.512 10.0378 156.925 9.87451 157.544C10.8543 157.544 11.9974 157.75 11.6708 156.512Z" fill="#F0D2BB"/>
<path fill-rule="evenodd" clip-rule="evenodd" d="M236.697 156.512C236.534 156.306 235.718 156.718 236.044 157.131C236.371 157.337 237.024 156.925 236.697 156.512Z" fill="#F0D2BB"/>
<path fill-rule="evenodd" clip-rule="evenodd" d="M609.02 156.512C609.184 156.718 610 156.306 609.673 155.893C609.51 155.893 608.694 156.306 609.02 156.512Z" fill="#F0D2BB"/>
<path fill-rule="evenodd" clip-rule="evenodd" d="M460.091 156.099C459.928 155.893 459.111 156.306 459.438 156.719C459.601 156.719 460.418 156.306 460.091 156.099Z" fill="#F0D2BB"/>
<path fill-rule="evenodd" clip-rule="evenodd" d="M163.213 153.417C162.723 154.448 161.743 155.068 161.417 156.099C162.56 156.099 164.846 154.242 163.213 153.417Z" fill="#F0D2BB"/>
<path fill-rule="evenodd" clip-rule="evenodd" d="M147.372 156.099C147.536 156.306 148.352 155.893 148.025 155.48C147.862 155.48 147.046 155.687 147.372 156.099Z" fill="#F0D2BB"/>
<path fill-rule="evenodd" clip-rule="evenodd" d="M96.26 155.48C96.4233 155.687 97.2398 155.274 96.9132 154.861C96.7499 154.861 95.9334 155.274 96.26 155.48Z" fill="#F0D2BB"/>
<path fill-rule="evenodd" clip-rule="evenodd" d="M241.596 155.068C241.76 155.274 242.576 154.861 242.25 154.448C242.086 154.242 241.27 154.655 241.596 155.068Z" fill="#F0D2BB"/>
<path fill-rule="evenodd" clip-rule="evenodd" d="M254.497 153.417C254.17 153.417 253.681 153.417 253.354 153.417C253.354 153.829 253.354 154.036 253.354 154.449C253.844 154.449 254.17 154.449 254.497 154.449C254.497 154.036 254.497 153.829 254.497 153.417Z" fill="#F0D2BB"/>
<path fill-rule="evenodd" clip-rule="evenodd" d="M579.953 153.417C579.953 153.21 579.463 152.798 579.3 153.417C579.3 153.623 579.79 154.036 579.953 153.417Z" fill="#F0D2BB"/>
<path fill-rule="evenodd" clip-rule="evenodd" d="M373.706 153.417C373.706 153.21 373.216 152.798 373.053 153.417C373.053 153.623 373.543 154.036 373.706 153.417Z" fill="#F0D2BB"/>
<path fill-rule="evenodd" clip-rule="evenodd" d="M48.2496 153.417C48.0863 153.21 47.2698 153.623 47.5964 154.036C47.7597 154.036 48.5762 153.623 48.2496 153.417Z" fill="#F0D2BB"/>
<path fill-rule="evenodd" clip-rule="evenodd" d="M485.566 152.385C484.913 152.385 484.913 151.972 484.423 151.766C484.423 152.385 483.933 152.385 483.77 152.798C484.423 152.798 484.423 153.21 484.913 153.417C484.913 152.798 485.402 152.798 485.566 152.385Z" fill="#F0D2BB"/>
<path fill-rule="evenodd" clip-rule="evenodd" d="M430.861 152.798C431.024 152.385 429.881 151.56 429.718 151.766C428.085 152.179 430.044 154.861 430.861 152.798Z" fill="#F0D2BB"/>
<path fill-rule="evenodd" clip-rule="evenodd" d="M39.1048 152.385C40.2479 150.528 36.9819 150.115 36.6553 151.353C37.6351 151.56 37.1452 153.004 39.1048 152.385Z" fill="#F0D2BB"/>
<path fill-rule="evenodd" clip-rule="evenodd" d="M76.1741 151.147C76.664 150.528 76.9906 149.703 76.8273 148.465C74.8677 148.877 74.0512 148.052 72.5815 147.846C73.2347 149.496 73.5613 151.353 76.1741 151.147Z" fill="#F0D2BB"/>
<path fill-rule="evenodd" clip-rule="evenodd" d="M107.201 150.115C107.038 148.258 111.283 150.115 110.304 147.433C108.671 147.639 107.201 148.258 105.405 148.464C104.915 149.909 106.711 149.496 107.201 150.115Z" fill="#F0D2BB"/>
<path fill-rule="evenodd" clip-rule="evenodd" d="M591.384 149.703C591.547 149.909 592.364 149.496 592.037 149.083C591.874 148.877 591.057 149.29 591.384 149.703Z" fill="#F0D2BB"/>
<path fill-rule="evenodd" clip-rule="evenodd" d="M584.199 149.083C584.525 149.083 585.015 149.083 585.342 149.083C585.342 148.671 585.342 148.464 585.342 148.052C584.852 148.052 584.525 148.052 584.199 148.052C584.199 148.258 584.199 148.671 584.199 149.083Z" fill="#F0D2BB"/>
<path fill-rule="evenodd" clip-rule="evenodd" d="M463.684 148.465C463.52 147.846 463.03 148.052 462.541 148.465C462.541 149.084 463.52 149.29 463.684 148.465Z" fill="#F0D2BB"/>
<path fill-rule="evenodd" clip-rule="evenodd" d="M709.449 145.782C709.449 146.814 707.49 146.195 707.653 147.433C708.633 149.084 711.409 146.607 709.449 145.782Z" fill="#F0D2BB"/>
<path fill-rule="evenodd" clip-rule="evenodd" d="M591.384 147.433C591.22 147.226 590.404 147.639 590.731 148.052C591.057 148.052 591.71 147.639 591.384 147.433Z" fill="#F0D2BB"/>
<path fill-rule="evenodd" clip-rule="evenodd" d="M803.183 146.401C802.857 146.401 802.367 146.401 802.041 146.401C802.041 146.814 802.041 147.02 802.041 147.433C802.367 147.433 802.857 147.433 803.183 147.433C803.183 147.02 803.183 146.814 803.183 146.401Z" fill="#F0D2BB"/>
<path fill-rule="evenodd" clip-rule="evenodd" d="M517.246 147.433C517.409 146.607 518.062 146.401 517.899 145.369C516.103 144.544 516.103 147.639 517.246 147.433Z" fill="#F0D2BB"/>
<path fill-rule="evenodd" clip-rule="C478.707 146.195 477.891 146.607 478.217 147.02C478.381 147.02 479.197 146.607 478.871 146.401Z" fill="#F0D2BB"/>
<path fill-rule="evenodd" clip-rule="evenodd" d="M224.613 146.401C225.593 147.845 228.206 146.401 228.206 145.369C227.063 145.576 224.123 144.544 224.613 146.401Z" fill="#F0D2BB"/>
<path fill-rule="evenodd" clip-rule="evenodd" d="M128.43 145.782C129.41 144.956 129.083 143.306 127.287 143.718C127.123 144.956 127.45 145.782 128.43 145.782Z" fill="#F0D2BB"/>
<path fill-rule="evenodd" clip-rule="evenodd" d="M785.547 145.369C785.71 145.576 786.527 145.163 786.2 144.75C785.874 144.544 785.22 144.957 785.547 145.369Z" fill="#F0D2BB"/>
<path fill-rule="evenodd" clip-rule="evenodd" d="M790.936 144.337C790.772 144.131 789.956 144.544 790.282 144.956C790.446 144.956 791.262 144.544 790.936 144.337Z" fill="#F0D2BB"/>
<path fill-rule="evenodd" clip-rule="evenodd" d="M610.327 144.75C612.613 145.163 612.613 142.274 610.327 142.687C610.327 143.306 610.327 144.131 610.327 144.75Z" fill="#F0D2BB"/>
<path fill-rule="evenodd" clip-rule="evenodd" d="M232.452 144.338C232.452 143.718 231.472 143.718 231.309 144.338C231.962 144.131 232.288 144.957 232.452 144.338Z" fill="#F0D2BB"/>
<path fill-rule="evenodd" clip-rule="evenodd" d="M78.6234 143.719C80.0932 142.48 78.2968 141.449 77.4803 140.417C76.5005 141.242 76.3372 144.131 78.6234 143.719Z" fill="#F0D2BB"/>
<path fill-rule="evenodd" clip-rule="evenodd" d="M542.721 142.068C542.557 141.861 541.741 142.274 542.068 142.687C542.394 142.687 543.047 142.274 542.721 142.068Z" fill="#F0D2BB"/>
<path fill-rule="evenodd" clip-rule="evenodd" d="M536.678 142.687C536.678 142.274 536.678 142.068 536.678 141.655C536.025 141.655 535.535 141.655 534.882 141.655C534.719 142.48 535.535 142.893 536.678 142.687Z" fill="#F0D2BB"/>
<path fill-rule="evenodd" clip-rule="evenodd" d="M123.694 142.068C123.694 141.655 123.857 141.449 124.347 141.449C124.347 141.036 124.347 140.83 124.347 140.417C122.714 139.591 122.387 142.274 123.694 142.068Z" fill="#F0D2BB"/>
<path fill-rule="evenodd" clip-rule="evenodd" d="M464.337 141.036C464.174 140.83 463.357 141.242 463.684 141.655C463.847 141.655 464.664 141.242 464.337 141.036Z" fill="#F0D2BB"/>
<path fill-rule="evenodd" clip-rule="evenodd" d="M9.22119 141.449C9.22119 140.83 9.22119 140.417 9.22119 139.798C8.8946 139.798 8.4047 139.798 8.07811 139.798C8.07811 140.417 7.26162 140.623 7.42491 141.449C8.07811 141.449 8.7313 141.449 9.22119 141.449Z" fill="#F0D2BB"/>
<path fill-rule="evenodd" clip-rule="evenodd" d="M745.375 140.417C745.375 140.211 744.885 139.798 744.722 140.417C744.722 140.83 745.212 141.036 745.375 140.417Z" fill="#F0D2BB"/>
<path fill-rule="evenodd" clip-rule="evenodd" d="M468.583 141.036C468.746 139.798 468.419 138.972 467.44 138.972C467.44 139.798 466.786 141.449 468.583 141.036Z" fill="#F0D2BB"/>
<path fill-rule="evenodd" clip-rule="evenodd" d="M353.62 141.036C355.416 138.973 352.313 137.322 350.517 136.703C350.354 139.179 351.66 140.417 353.62 141.036Z" fill="#F0D2BB"/>
<path fill-rule="evenodd" clip-rule="evenodd" d="M747.172 140.004C747.335 140.211 748.151 139.798 747.825 139.385C747.662 139.179 746.845 139.591 747.172 140.004Z" fill="#F0D2BB"/>
<path fill-rule="evenodd" clip-rule="evenodd" d="M51.1892 140.004C51.3525 140.211 52.169 139.798 51.8424 139.385C51.6791 139.179 50.8626 139.591 51.1892 140.004Z" fill="#F0D2BB"/>
<path fill-rule="evenodd" clip-rule="evenodd" d="M460.091 138.766C459.928 138.56 459.111 138.972 459.438 139.385C459.601 139.592 460.418 139.179 460.091 138.766Z" fill="#F0D2BB"/>
<path fill-rule="evenodd" clip-rule="evenodd" d="M148.515 139.385C149.169 137.941 146.393 136.909 146.066 138.353C147.046 138.56 146.719 140.004 148.515 139.385Z" fill="#F0D2BB"/>
<path fill-rule="evenodd" clip-rule="evenodd" d="M29.9603 139.385C29.9603 138.766 30.4502 138.766 30.6135 138.353C29.6337 138.353 28.4906 138.353 28.8172 139.385C29.1438 139.385 29.6337 139.385 29.9603 139.385Z" fill="#F0D2BB"/>
<path fill-rule="evenodd" clip-rule="evenodd" d="M226.41 138.766C226.9 138.56 227.553 138.766 227.553 138.147C227.226 138.353 226.41 138.353 226.41 138.766Z" fill="#F0D2BB"/>
<path fill-rule="evenodd" clip-rule="evenodd" d="M171.704 138.353C171.541 138.147 170.724 138.56 171.051 138.972C171.214 138.972 172.031 138.56 171.704 138.353Z" fill="#F0D2BB"/>
<path fill-rule="evenodd" clip-rule="evenodd" d="M619.961 136.703C620.124 136.909 620.941 136.496 620.614 136.083C620.451 136.083 619.635 136.496 619.961 136.703Z" fill="#F0D2BB"/>
<path fill-rule="evenodd" clip-rule="evenodd" d="M486.219 135.052C486.219 135.465 486.219 135.671 486.219 136.084C487.362 137.941 489.159 134.639 486.219 135.052Z" fill="#F0D2BB"/>
<path fill-rule="evenodd" clip-rule="evenodd" d="M394.281 136.084C394.118 135.877 393.302 136.29 393.628 136.703C393.955 136.909 394.608 136.496 394.281 136.084Z" fill="#F0D2BB"/>
<path fill-rule="evenodd" clip-rule="evenodd" d="M221.511 136.703C221.511 135.877 221.837 135.465 222.164 135.052C221.51 135.052 221.021 135.052 220.367 135.052C220.367 135.877 220.204 136.909 221.511 136.703Z" fill="#F0D2BB"/>
<path fill-rule="evenodd" clip-rule="evenodd" d="M464.337 135.671C464.174 135.465 463.357 135.877 463.684 136.29C463.847 136.29 464.664 135.877 464.337 135.671Z" fill="#F0D2BB"/>
<path fill-rule="evenodd" clip-rule="evenodd" d="M272.623 135.671C272.623 135.052 271.48 135.052 271.48 135.671C272.133 135.671 272.46 136.496 272.623 135.671Z" fill="#F0D2BB"/>
<path fill-rule="evenodd" clip-rule="evenodd" d="M264.132 136.084C264.458 136.084 264.948 136.084 265.275 136.084C265.275 135.671 265.275 135.465 265.275 135.052C264.948 135.052 264.458 135.052 264.132 135.052C264.132 135.465 264.132 135.877 264.132 136.084Z" fill="#F0D2BB"/>
<path fill-rule="evenodd" clip-rule="evenodd" d="M224.613 136.084C224.613 135.465 224.613 135.052 224.613 134.433C223.96 134.433 223.47 134.433 222.817 134.433C222.653 135.671 223.307 136.29 224.613 136.084Z" fill="#F0D2BB"/>
<path fill-rule="evenodd" clip-rule="evenodd" d="M168.601 135.052C168.601 134.845 168.112 134.433 167.948 135.052C168.112 135.464 168.601 135.671 168.601 135.052Z" fill="#F0D2BB"/>
<path fill-rule="evenodd" clip-rule="evenodd" d="M778.852 135.052C779.341 135.052 779.668 135.052 779.995 135.052C779.995 134.639 779.995 134.433 779.995 134.02C779.505 134.02 779.178 134.02 778.852 134.02C778.852 134.433 778.852 134.639 778.852 135.052Z" fill="#F0D2BB"/>
<path fill-rule="evenodd" clip-rule="evenodd" d="M496.507 133.401C496.344 133.195 495.527 133.607 495.854 134.02C496.017 134.226 496.833 133.814 496.507 133.401Z" fill="#F0D2BB"/>
<path fill-rule="evenodd" clip-rule="evenodd" d="M222.817 134.02C222.817 133.401 223.307 133.401 223.47 132.988C222.817 132.988 222.817 132.576 222.327 132.369C222.327 132.988 221.837 132.988 221.674 133.401C222.164 133.401 222.327 133.814 222.817 134.02Z" fill="#F0D2BB"/>
<path fill-rule="evenodd" clip-rule="evenodd" d="M161.906 134.02C162.069 132.576 161.906 131.131 160.11 131.337C160.11 132.163 159.783 132.576 159.457 132.988C160.763 132.988 160.273 134.433 161.906 134.02Z" fill="#F0D2BB"/>
<path fill-rule="evenodd" clip-rule="evenodd" d="M779.342 132.988C779.179 132.782 778.362 133.195 778.689 133.607C779.015 133.607 779.668 133.195 779.342 132.988Z" fill="#F0D2BB"/>
<path fill-rule="evenodd" clip-rule="evenodd" d="M759.909 133.401C760.072 133.608 760.889 133.195 760.562 132.782C760.399 132.782 759.582 133.195 759.909 133.401Z" fill="#F0D2BB"/>
<path fill-rule="evenodd" clip-rule="evenodd" d="M474.625 132.988C474.625 133.195 475.115 133.608 475.278 132.988C475.278 132.576 474.788 132.369 474.625 132.988Z" fill="#F0D2BB"/>
<path fill-rule="evenodd" clip-rule="evenodd" d="M284.218 132.988C284.218 132.576 284.381 132.369 284.871 132.369C284.871 131.957 284.871 131.75 284.871 131.338C283.401 130.512 283.075 133.195 284.218 132.988Z" fill="#F0D2BB"/>
<path fill-rule="evenodd" clip-rule="evenodd" d="M713.042 131.957C712.552 132.163 711.899 131.957 711.899 132.576C712.389 132.369 713.042 132.369 713.042 131.957Z" fill="#F0D2BB"/>
<path fill-rule="evenodd" clip-rule="evenodd" d="M485.566 131.338C485.566 131.131 485.076 130.719 484.913 131.338C484.913 131.544 485.403 131.957 485.566 131.338Z" fill="#F0D2BB"/>
<path fill-rule="evenodd" clip-rule="evenodd" d="M130.39 130.719C129.573 130.719 129.083 130.512 128.593 130.1C128.267 131.957 130.063 132.369 130.39 130.719Z" fill="#F0D2BB"/>
<path fill-rule="evenodd" clip-rule="evenodd" d="M372.399 130.719C372.236 130.512 371.42 130.925 371.746 131.338C372.073 131.544 372.726 131.131 372.399 130.719Z" fill="#F0D2BB"/>
<path fill-rule="evenodd" clip-rule="evenodd" d="M134.635 130.306C136.431 130.925 137.248 130.925 138.881 130.306C138.391 128.862 137.901 127.211 135.288 127.623C134.635 128.242 134.472 129.068 134.635 130.306Z" fill="#F0D2BB"/>
<path fill-rule="evenodd" clip-rule="evenodd" d="M179.053 129.274C179.053 129.068 178.563 128.655 178.399 129.274C178.399 129.481 178.889 129.687 179.053 129.274Z" fill="#F0D2BB"/>
<path fill-rule="evenodd" clip-rule="evenodd" d="M430.86 128.655C430.37 128.861 429.717 128.655 429.717 129.274C430.044 129.068 430.86 129.068 430.86 128.655Z" fill="#F0D2BB"/>
<path fill-rule="evenodd" clip-rule="evenodd" d="M187.544 128.655C187.544 128.449 187.054 128.036 186.891 128.655C186.891 128.861 187.381 129.274 187.544 128.655Z" fill="#F0D2BB"/>
<path fill-rule="evenodd" clip-rule="evenodd" d="M150.965 129.274C151.128 129.481 151.945 129.068 151.618 128.655C151.455 128.449 150.638 128.862 150.965 129.274Z" fill="#F0D2BB"/>
<path fill-rule="evenodd" clip-rule="evenodd" d="M446.047 128.036C446.047 127.623 446.047 127.417 446.047 127.004C445.394 127.004 444.741 127.004 444.251 127.004C444.088 128.036 444.741 128.242 446.047 128.036Z" fill="#F0D2BB"/>
<path fill-rule="evenodd" clip-rule="evenodd" d="M351.17 128.036C351.66 127.83 352.314 128.036 352.314 127.417C351.824 127.623 351.17 127.623 351.17 128.036Z" fill="#F0D2BB"/>
<path fill-rule="evenodd" clip-rule="evenodd" d="M196.036 128.036C196.199 128.242 197.016 127.83 196.689 127.417C196.526 127.417 195.709 127.83 196.036 128.036Z" fill="#F0D2BB"/>
<path fill-rule="evenodd" clip-rule="evenodd" d="M755.01 127.004C754.52 127.211 753.867 127.004 753.867 127.623C754.357 127.417 755.01 127.623 755.01 127.004Z" fill="#F0D2BB"/>
<path fill-rule="evenodd" clip-rule="evenodd" d="M489.811 125.973C489.811 125.766 489.322 125.353 489.158 125.973C489.158 126.179 489.648 126.592 489.811 125.973Z" fill="#F0D2BB"/>
<path fill-rule="evenodd" clip-rule="evenodd" d="M184.441 125.354C183.952 125.56 183.298 125.354 183.298 125.973C183.788 125.766 184.441 125.972 184.441 125.354Z" fill="#F0D2BB"/>
<path fill-rule="evenodd" clip-rule="evenodd" d="M132.839 125.354C132.839 125.147 132.349 124.734 132.186 125.354C132.186 125.766 132.675 125.973 132.839 125.354Z" fill="#F0D2BB"/>
<path fill-rule="evenodd" clip-rule="evenodd" d="M385.79 124.941C385.626 124.734 384.81 125.147 385.136 125.56C385.3 125.56 386.116 125.147 385.79 124.941Z" fill="#F0D2BB"/>
<path fill-rule="evenodd" clip-rule="evenodd" d="M221.51 123.703C219.714 122.877 219.714 126.179 221.51 125.353C221.51 124.941 221.51 124.322 221.51 123.703Z" fill="#F0D2BB"/>
<path fill-rule="evenodd" clip-rule="evenodd" d="M584.199 124.322C584.036 124.115 583.219 124.528 583.546 124.941C583.709 124.941 584.362 124.528 584.199 124.322Z" fill="#F0D2BB"/>
<path fill-rule="evenodd" clip-rule="evenodd" d="M553.172 124.322C553.009 124.115 552.192 124.528 552.519 124.941C552.682 124.941 553.499 124.528 553.172 124.322Z" fill="#F0D2BB"/>
<path fill-rule="evenodd" clip-rule="evenodd" d="M200.935 124.322C201.588 124.322 202.078 124.322 202.731 124.322C202.568 123.703 202.894 122.877 202.078 122.671C202.078 123.496 200.608 123.084 200.935 124.322Z" fill="#F0D2BB"/>
<path fill-rule="evenodd" clip-rule="evenodd" d="M236.697 123.29C236.534 123.084 235.718 123.496 236.044 123.909C236.371 123.909 237.024 123.496 236.697 123.29Z" fill="#F0D2BB"/>
<path fill-rule="evenodd" clip-rule="evenodd" d="M383.994 123.29C383.994 122.671 383.994 121.846 383.994 121.226C382.85 121.02 382.687 121.846 381.544 121.846C381.381 123.084 382.361 123.496 383.994 123.29Z" fill="#F0D2BB"/>
<path fill-rule="evenodd" clip-rule="evenodd" d="M127.287 123.29C127.287 122.671 127.287 122.258 127.287 121.639C126.307 121.639 125.001 121.433 124.837 122.258C126.144 122.258 125.654 123.703 127.287 123.29Z" fill="#F0D2BB"/>
<path fill-rule="evenodd" clip-rule="evenodd" d="M163.703 120.608C164.356 121.846 165.336 122.671 167.295 122.671C167.295 121.846 167.295 120.814 167.295 119.989C166.315 120.401 163.866 119.37 163.703 120.608Z" fill="#F0D2BB"/>
<path fill-rule="evenodd" clip-rule="evenodd" d="M78.6232 119.576C76.6636 119.782 75.6838 120.607 75.5205 122.258C76.6636 122.052 76.8269 122.877 77.97 122.877C78.4599 121.639 79.603 120.401 78.6232 119.576Z" fill="#F0D2BB"/>
<path fill-rule="evenodd" clip-rule="evenodd" d="M497.16 122.258C496.997 121.639 497.323 120.814 496.507 120.608C496.507 121.02 496.343 121.227 495.854 121.227C496.017 121.846 496.18 122.465 497.16 122.258Z" fill="#F0D2BB"/>
<path fill-rule="evenodd" clip-rule="evenodd" d="M219.714 121.639C219.551 121.433 218.734 121.846 219.061 122.258C219.387 122.258 220.041 121.846 219.714 121.639Z" fill="#F0D2BB"/>
<path fill-rule="evenodd" clip-rule="evenodd" d="M364.561 121.02C364.561 120.814 364.071 120.401 363.908 121.02C363.908 121.433 364.398 121.639 364.561 121.02Z" fill="#F0D2BB"/>
<path fill-rule="evenodd" clip-rule="evenodd" d="M200.935 120.607C200.771 120.401 199.955 120.814 200.281 121.227C200.445 121.227 201.261 120.814 200.935 120.607Z" fill="#F0D2BB"/>
<path fill-rule="evenodd" clip-rule="evenodd" d="M328.635 119.989C328.145 120.195 327.492 119.989 327.492 120.608C327.819 120.401 328.635 120.608 328.635 119.989Z" fill="#F0D2BB"/>
<path fill-rule="evenodd" clip-rule="evenodd" d="M398.037 119.989C398.201 120.195 399.017 119.782 398.691 119.37C398.364 119.37 397.711 119.782 398.037 119.989Z" fill="#F0D2BB"/>
<path fill-rule="evenodd" clip-rule="evenodd" d="M302.507 119.576C302.344 119.369 301.527 119.782 301.854 120.195C302.017 120.195 302.833 119.782 302.507 119.576Z" fill="#F0D2BB"/>
<path fill-rule="evenodd" clip-rule="evenodd" d="M626.657 118.338C626.494 118.131 625.677 118.544 626.004 118.957C626.33 119.163 626.983 118.75 626.657 118.338Z" fill="#F0D2BB"/>
<path fill-rule="evenodd" clip-rule="evenodd" d="M217.918 118.338C217.755 118.131 216.938 118.544 217.265 118.957C217.428 119.163 218.245 118.75 217.918 118.338Z" fill="#F0D2BB"/>
<path fill-rule="evenodd" clip-rule="evenodd" d="M498.303 118.338C498.793 118.338 499.12 118.338 499.61 118.338C499.61 117.925 499.61 117.719 499.61 117.306C499.12 117.306 498.793 117.306 498.303 117.306C498.303 117.719 498.303 118.131 498.303 118.338Z" fill="#F0D2BB"/>
<path fill-rule="evenodd" clip-rule="evenodd" d="M397.384 115.243C396.404 116.068 396.731 117.719 398.527 117.306C398.691 116.068 398.527 115.243 397.384 115.243Z" fill="#F0D2BB"/>
<path fill-rule="evenodd" clip-rule="evenodd" d="M296.465 117.306C296.628 117.512 297.445 117.1 297.118 116.687C296.792 116.687 296.138 117.1 296.465 117.306Z" fill="#F0D2BB"/>
<path fill-rule="evenodd" clip-rule="evenodd" d="M694.916 116.893C694.753 115.242 696.223 115.242 696.059 113.592C693.12 113.179 693.283 116.893 694.916 116.893Z" fill="#F0D2BB"/>
<path fill-rule="evenodd" clip-rule="evenodd" d="M236.697 116.893C236.861 117.1 237.677 116.687 237.351 116.274C237.187 116.068 236.534 116.481 236.697 116.893Z" fill="#F0D2BB"/>
<path fill-rule="evenodd" clip-rule="evenodd" d="M166.152 116.274C165.989 116.068 165.172 116.481 165.499 116.893C165.825 116.893 166.479 116.481 166.152 116.274Z" fill="#F0D2BB"/>
<path fill-rule="evenodd" clip-rule="evenodd" d="M436.902 116.274C437.392 115.655 437.719 114.83 437.556 113.592C436.739 113.592 436.249 113.385 435.759 112.973C434.78 114.004 434.943 116.48 436.902 116.274Z" fill="#F0D2BB"/>
<path fill-rule="evenodd" clip-rule="evenodd" d="M241.596 116.274C241.596 115.655 241.596 115.243 241.596 114.624C239.8 113.798 239.8 117.1 241.596 116.274Z" fill="#F0D2BB"/>
<path fill-rule="evenodd" clip-rule="evenodd" d="M576.85 115.243C576.687 115.036 575.87 115.449 576.197 115.862C576.36 115.862 577.177 115.449 576.85 115.243Z" fill="#F0D2BB"/>
<path fill-rule="evenodd" clip-rule="evenodd" d="M234.411 115.655C234.411 115.036 234.411 114.623 234.411 114.004C233.758 114.004 233.268 114.004 232.615 114.004C232.452 115.242 232.942 115.861 234.411 115.655Z" fill="#F0D2BB"/>
<path fill-rule="evenodd" clip-rule="evenodd" d="M163.213 115.242C163.213 114.83 163.213 114.623 163.213 114.211C162.559 114.211 162.559 113.798 162.07 113.592C162.07 114.417 161.906 115.449 163.213 115.242Z" fill="#F0D2BB"/>
<path fill-rule="evenodd" clip-rule="evenodd" d="M141.331 115.242C141.82 115.036 142.474 115.242 142.474 114.623C141.984 114.83 141.331 114.623 141.331 115.242Z" fill="#F0D2BB"/>
<path fill-rule="evenodd" clip-rule="evenodd" d="M741.13 114.211C741.13 114.004 740.64 113.592 740.477 114.211C740.477 114.417 740.966 114.83 741.13 114.211Z" fill="#F0D2BB"/>
<path fill-rule="evenodd" clip-rule="evenodd" d="M658.99 114.211C658.827 114.004 658.01 114.417 658.337 114.83C658.5 114.83 659.317 114.417 658.99 114.211Z" fill="#F0D2BB"/>
<path fill-rule="evenodd" clip-rule="evenodd" d="M202.078 114.623C203.058 114.623 203.711 114.211 203.874 113.592C202.895 113.592 202.405 114.004 202.078 114.623Z" fill="#F0D2BB"/>
<path fill-rule="evenodd" clip-rule="evenodd" d="M236.207 112.973C235.554 112.973 235.554 112.56 235.064 112.354C235.064 112.973 234.574 112.973 234.411 113.385C235.064 113.385 235.064 113.798 235.554 114.004C235.554 113.592 236.044 113.385 236.207 112.973Z" fill="#F0D2BB"/>
<path fill-rule="evenodd" clip-rule="evenodd" d="M541.578 111.528C541.578 112.147 541.578 112.973 541.578 113.592C543.864 114.004 543.864 111.116 541.578 111.528Z" fill="#F0D2BB"/>
<path fill-rule="evenodd" clip-rule="evenodd" d="M488.668 110.29C487.852 110.29 487.035 110.29 486.219 110.29C486.056 112.147 487.199 112.56 488.015 113.592C488.015 112.354 488.995 111.941 488.668 110.29Z" fill="#F0D2BB"/>
<path fill-rule="evenodd" clip-rule="evenodd" d="M257.437 111.941C257.273 111.734 256.457 112.147 256.783 112.56C256.947 112.56 257.763 112.147 257.437 111.941Z" fill="#F0D2BB"/>
<path fill-rule="evenodd" clip-rule="evenodd" d="M672.38 110.29C671.727 110.29 671.074 110.29 670.584 110.29C670.584 110.909 670.584 111.322 670.584 111.941C671.237 111.941 671.727 111.941 672.38 111.941C672.38 111.528 672.38 110.909 672.38 110.29Z" fill="#F0D2BB"/>
<path fill-rule="evenodd" clip-rule="evenodd" d="M731.332 110.909C731.332 110.703 730.842 110.29 730.679 110.909C730.679 111.116 731.169 111.528 731.332 110.909Z" fill="#F0D2BB"/>
<path fill-rule="evenodd" clip-rule="evenodd" d="M449.15 110.29C449.313 110.497 450.13 110.084 449.803 109.671C449.477 109.671 448.823 110.084 449.15 110.29Z" fill="#F0D2BB"/>
<path fill-rule="evenodd" clip-rule="evenodd" d="M119.449 108.846C119.938 109.465 119.122 110.909 120.592 110.496C122.551 109.052 119.938 105.338 118.142 107.195C117.979 108.227 118.959 108.227 119.449 108.846Z" fill="#F0D2BB"/>
<path fill-rule="evenodd" clip-rule="evenodd" d="M618.818 109.877C619.145 109.877 619.635 109.877 619.961 109.877C619.961 109.465 619.961 109.258 619.961 108.846C619.635 108.846 619.145 108.846 618.818 108.846C618.818 109.052 618.818 109.465 618.818 109.877Z" fill="#F0D2BB"/>
<path fill-rule="evenodd" clip-rule="evenodd" d="M259.886 109.877C260.376 108.433 258.58 108.846 258.09 108.227C257.763 109.671 258.253 110.084 259.886 109.877Z" fill="#F0D2BB"/>
<path fill-rule="evenodd" clip-rule="evenodd" d="M142.474 109.877C142.637 110.084 143.454 109.671 143.127 109.258C142.964 109.052 142.147 109.465 142.474 109.877Z" fill="#F0D2BB"/>
<path fill-rule="evenodd" clip-rule="evenodd" d="M249.598 108.846C249.598 108.639 249.108 108.227 248.945 108.846C248.945 109.052 249.435 109.258 249.598 108.846Z" fill="#F0D2BB"/>
<path fill-rule="evenodd" clip-rule="evenodd" d="M89.5646 108.846C89.4012 108.639 88.5847 109.052 88.9113 109.465C89.0746 109.465 89.8912 109.052 89.5646 108.846Z" fill="#F0D2BB"/>
<path fill-rule="evenodd" clip-rule="evenodd" d="M58.5378 109.259C58.7011 109.465 59.5176 109.052 59.191 108.639C59.0277 108.639 58.2112 109.052 58.5378 109.259Z" fill="#F0D2BB"/>
<path fill-rule="evenodd" clip-rule="evenodd" d="M45.8001 107.195C44.4937 106.989 43.5139 107.401 43.3506 108.227C44.1671 108.433 44.3304 109.052 45.1469 109.259C44.9836 108.227 45.8001 108.02 45.8001 107.195Z" fill="#F0D2BB"/>
<path fill-rule="evenodd" clip-rule="evenodd" d="M187.544 108.846C187.871 107.607 184.605 106.782 184.441 107.814C185.584 107.814 185.584 109.258 187.544 108.846Z" fill="#F0D2BB"/>
<path fill-rule="evenodd" clip-rule="evenodd" d="M766.604 107.608C766.114 107.814 765.461 107.608 765.461 108.227C765.951 108.02 766.604 108.227 766.604 107.608Z" fill="#F0D2BB"/>
<path fill-rule="evenodd" clip-rule="evenodd" d="M20.8153 107.195C20.1621 107.195 19.6722 107.195 19.019 107.195C19.019 108.227 19.6722 108.433 20.8153 108.227C20.8153 107.814 20.8153 107.401 20.8153 107.195Z" fill="#F0D2BB"/>
<path fill-rule="evenodd" clip-rule="evenodd" d="M494.057 106.576C494.057 106.37 493.568 105.957 493.404 106.576C493.568 106.989 494.057 107.195 494.057 106.576Z" fill="#F0D2BB"/>
<path fill-rule="evenodd" clip-rule="evenodd" d="M417.47 105.957C416.98 105.957 416.653 105.957 416.327 105.957C416.327 106.37 416.327 106.576 416.327 106.989C416.653 106.989 417.143 106.989 417.47 106.989C417.47 106.782 417.47 106.37 417.47 105.957Z" fill="#F0D2BB"/>
<path fill-rule="evenodd" clip-rule="evenodd" d="M218.571 105.957C218.734 103.274 215.142 104.512 215.468 106.576C217.265 106.989 217.101 105.75 218.571 105.957Z" fill="#F0D2BB"/>
<path fill-rule="evenodd" clip-rule="evenodd" d="M9.22129 105.957C9.05799 105.751 8.24147 106.163 8.56808 106.576C8.89468 106.782 9.54789 106.37 9.22129 105.957Z" fill="#F0D2BB"/>
<path fill-rule="evenodd" clip-rule="evenodd" d="M678.422 104.925C678.096 104.925 677.606 104.925 677.279 104.925C677.279 105.338 677.279 105.544 677.279 105.957C677.769 105.957 678.096 105.957 678.422 105.957C678.422 105.751 678.422 105.338 678.422 104.925Z" fill="#F0D2BB"/>
<path fill-rule="evenodd" clip-rule="evenodd" d="M462.541 105.544C462.377 105.338 461.561 105.751 461.887 106.163C462.051 106.163 462.704 105.751 462.541 105.544Z" fill="#F0D2BB"/>
<path fill-rule="evenodd" clip-rule="evenodd" d="M411.918 105.957C412.734 105.338 412.897 103.274 411.264 103.274C410.611 104.1 410.448 105.957 411.918 105.957Z" fill="#F0D2BB"/>
<path fill-rule="evenodd" clip-rule="evenodd" d="M637.598 103.893C637.761 104.1 638.578 103.687 638.251 103.274C638.088 103.274 637.271 103.687 637.598 103.893Z" fill="#F0D2BB"/>
<path fill-rule="evenodd" clip-rule="evenodd" d="M297.608 103.893C298.915 104.1 299.894 103.687 300.058 102.862C298.915 102.862 296.955 102.243 297.608 103.893Z" fill="#F0D2BB"/>
<path fill-rule="evenodd" clip-rule="evenodd" d="M215.468 103.274C215.305 103.068 214.489 103.481 214.815 103.893C214.978 104.1 215.795 103.687 215.468 103.274Z" fill="#F0D2BB"/>
<path fill-rule="evenodd" clip-rule="evenodd" d="M160.11 103.274C160.11 103.481 160.6 103.893 160.763 103.274C160.763 103.068 160.273 102.655 160.11 103.274Z" fill="#F0D2BB"/>
<path fill-rule="evenodd" clip-rule="evenodd" d="M570.808 102.862C570.645 102.655 569.828 103.068 570.155 103.481C570.318 103.481 571.135 103.068 570.808 102.862Z" fill="#F0D2BB"/>
<path fill-rule="evenodd" clip-rule="evenodd" d="M519.042 102.862C519.206 102.243 518.552 101.417 518.389 102.243C518.389 102.862 518.879 103.687 519.042 102.862Z" fill="#F0D2BB"/>
<path fill-rule="evenodd" clip-rule="evenodd" d="M0.729562 102.243C0.566265 102.036 -0.250219 102.449 0.0763747 102.862C0.402968 103.068 1.05616 102.655 0.729562 102.243Z" fill="#F0D2BB"/>
<path fill-rule="evenodd" clip-rule="evenodd" d="M396.731 101.83C396.241 102.036 395.588 101.83 395.588 102.449C396.078 102.243 396.731 102.243 396.731 101.83Z" fill="#F0D2BB"/>
<path fill-rule="evenodd" clip-rule="evenodd" d="M587.791 100.592C587.791 100.385 587.301 99.9726 587.138 100.592C587.138 101.004 587.628 101.211 587.791 100.592Z" fill="#F0D2BB"/>
<path fill-rule="evenodd" clip-rule="evenodd" d="M406.529 100.592C406.366 100.385 405.549 100.798 405.876 101.211C406.039 101.417 406.856 101.004 406.529 100.592Z" fill="#F0D2BB"/>
<path fill-rule="evenodd" clip-rule="evenodd" d="M233.105 101.211C232.941 100.592 233.268 99.7664 232.452 99.56C232.452 99.9727 232.288 100.179 231.798 100.179C231.962 100.798 232.125 101.417 233.105 101.211Z" fill="#F0D2BB"/>
<path fill-rule="evenodd" clip-rule="evenodd" d="M227.063 100.592C226.573 100.798 225.92 100.592 225.92 101.211C226.247 101.005 227.063 101.211 227.063 100.592Z" fill="#F0D2BB"/>
<path fill-rule="evenodd" clip-rule="evenodd" d="M224.613 98.5284C223.307 98.322 222.327 98.7347 222.164 99.5601C222.98 99.7665 223.143 100.386 223.96 100.592C224.123 99.9728 224.94 99.5601 224.613 98.5284Z" fill="#F0D2BB"/>
<path fill-rule="evenodd" clip-rule="evenodd" d="M355.416 99.1474C355.58 99.3538 356.396 98.941 356.069 98.5282C355.906 98.3218 355.09 98.7346 355.416 99.1474Z" fill="#F0D2BB"/>
<path fill-rule="evenodd" clip-rule="evenodd" d="M638.251 97.9093C638.088 97.2903 637.598 97.4966 637.108 97.9093C637.108 98.5284 638.088 98.7347 638.251 97.9093Z" fill="#F0D2BB"/>
<path fill-rule="evenodd" clip-rule="evenodd" d="M525.085 97.4966C524.921 97.2902 524.105 97.703 524.431 98.1157C524.758 98.1157 525.411 97.7029 525.085 97.4966Z" fill="#F0D2BB"/>
<path fill-rule="evenodd" clip-rule="evenodd" d="M258.09 97.9092C258.253 96.6711 257.926 95.8458 256.946 95.8458C255.967 96.6711 256.13 98.3218 258.09 97.9092Z" fill="#F0D2BB"/>
<path fill-rule="evenodd" clip-rule="evenodd" d="M188.687 97.9094C188.687 97.084 190.157 97.4967 189.83 96.2586C188.687 95.8459 188.197 94.8141 186.728 94.6078C186.891 96.4649 187.381 97.4967 188.687 97.9094Z" fill="#F0D2BB"/>
<path fill-rule="evenodd" clip-rule="evenodd" d="M602.325 96.8775C602.162 96.6711 601.346 97.0839 601.672 97.4966C601.999 97.703 602.652 97.2903 602.325 96.8775Z" fill="#F0D2BB"/>
<path fill-rule="evenodd" clip-rule="evenodd" d="M739.823 96.8777C739.987 97.084 740.803 96.6713 740.477 96.2585C740.313 96.2585 739.497 96.6713 739.823 96.8777Z" fill="#F0D2BB"/>
<path fill-rule="evenodd" clip-rule="evenodd" d="M649.192 96.8778C649.682 96.8778 650.009 96.8778 650.335 96.8778C650.009 96.0524 650.989 94.1952 649.682 94.1952C650.172 95.6397 648.539 95.227 648.539 96.2588C649.029 96.4651 649.356 96.4651 649.192 96.8778Z" fill="#F0D2BB"/>
<path fill-rule="evenodd" clip-rule="evenodd" d="M440.005 96.4649C440.169 95.8458 439.515 95.0204 439.352 95.8458C439.189 96.4649 439.842 97.2903 440.005 96.4649Z" fill="#F0D2BB"/>
<path fill-rule="evenodd" clip-rule="evenodd" d="M206.977 95.2268C206.813 95.0204 205.997 95.4331 206.323 95.8459C206.487 96.0523 207.303 95.6395 206.977 95.2268Z" fill="#F0D2BB"/>
<path fill-rule="evenodd" clip-rule="evenodd" d="M183.298 94.8141C182.972 94.8141 182.482 94.8141 182.155 94.8141C182.155 95.2267 182.155 95.4331 182.155 95.8458C182.482 95.8458 182.972 95.8458 183.298 95.8458C183.298 95.4331 183.298 95.2267 183.298 94.8141Z" fill="#F0D2BB"/>
<path fill-rule="evenodd" clip-rule="evenodd" d="M549.416 93.7823C549.416 93.5759 548.926 93.1632 548.763 93.7823C548.926 93.9886 549.416 94.195 549.416 93.7823Z" fill="#F0D2BB"/>
<path fill-rule="evenodd" clip-rule="evenodd" d="M288.463 93.1633C288.137 92.3379 286.177 93.1633 286.014 92.1316C286.014 91.5126 285.851 90.8935 284.871 91.0999C283.891 93.576 287.81 95.2268 288.463 93.1633Z" fill="#F0D2BB"/>
<path fill-rule="evenodd" clip-rule="evenodd" d="M687.567 92.5443C687.404 92.338 686.588 92.7507 686.914 93.1633C687.078 93.3696 687.894 92.957 687.567 92.5443Z" fill="#F0D2BB"/>
<path fill-rule="evenodd" clip-rule="evenodd" d="M289.77 93.1633C290.096 93.1633 290.586 93.1633 290.913 93.1633C290.913 92.7506 290.913 92.5443 290.913 92.1316C290.586 92.1316 290.096 92.1316 289.77 92.1316C289.77 92.338 289.77 92.7506 289.77 93.1633Z" fill="#F0D2BB"/>
<path fill-rule="evenodd" clip-rule="evenodd" d="M163.703 92.5444C163.213 92.7507 162.56 92.5444 162.56 93.1634C163.049 92.9571 163.703 93.1634 163.703 92.5444Z" fill="#F0D2BB"/>
<path fill-rule="evenodd" clip-rule="evenodd" d="M568.359 92.1317C569.175 91.5127 568.685 90.481 567.706 90.0683C567.706 91.3063 566.563 91.5127 568.359 92.1317Z" fill="#F0D2BB"/>
<path fill-rule="evenodd" clip-rule="evenodd" d="M7.4249 91.5126C7.2616 91.3063 6.44508 91.719 6.77169 92.1316C6.93499 92.1316 7.75151 91.7189 7.4249 91.5126Z" fill="#F0D2BB"/>
<path fill-rule="evenodd" clip-rule="evenodd" d="M737.374 91.1C737.21 90.8936 736.394 91.3063 736.72 91.7189C737.047 91.7189 737.7 91.3063 737.374 91.1Z" fill="#F0D2BB"/>
<path fill-rule="evenodd" clip-rule="evenodd" d="M398.527 91.0999C398.037 91.3062 397.384 91.0999 397.384 91.7188C397.874 91.5125 398.527 91.5125 398.527 91.0999Z" fill="#F0D2BB"/>
<path fill-rule="evenodd" clip-rule="evenodd" d="M761.215 90.4808C761.215 89.8618 760.072 89.8618 760.072 90.4808C760.562 90.4808 760.889 91.3062 761.215 90.4808Z" fill="#F0D2BB"/>
<path fill-rule="evenodd" clip-rule="evenodd" d="M785.547 90.4809C785.711 89.6555 786.364 89.4491 786.201 88.4173C785.547 88.4173 785.057 88.4173 784.404 88.4173C784.078 89.4491 784.404 90.2746 785.547 90.4809Z" fill="#F0D2BB"/>
<path fill-rule="evenodd" clip-rule="evenodd" d="M553.172 90.4809C553.172 89.8619 553.662 89.8619 553.825 89.4491C553.009 89.4491 553.009 88.8301 552.029 88.8301C551.866 89.8619 552.355 90.2746 553.172 90.4809Z" fill="#F0D2BB"/>
<path fill-rule="evenodd" clip-rule="evenodd" d="M757.46 89.8617C757.623 90.0681 758.439 89.6553 758.113 89.2427C757.949 89.2427 757.133 89.6554 757.46 89.8617Z" fill="#F0D2BB"/>
<path fill-rule="evenodd" clip-rule="evenodd" d="M440.005 89.4491C441.475 87.592 437.882 90.6871 440.005 89.4491V89.4491Z" fill="#F0D2BB"/>
<path fill-rule="evenodd" clip-rule="evenodd" d="M244.699 89.8619C245.189 89.2428 245.516 88.4174 245.352 87.1794C244.373 87.1794 243.066 86.973 242.903 87.7984C244.536 87.5921 242.25 90.6873 244.699 89.8619Z" fill="#F0D2BB"/>
<path fill-rule="evenodd" clip-rule="evenodd" d="M346.271 89.449C347.251 88.6236 345.945 86.9728 345.128 86.1475C344.148 86.9728 343.985 89.8617 346.271 89.449Z" fill="#F0D2BB"/>
<path fill-rule="evenodd" clip-rule="evenodd" d="M245.842 88.2109C245.842 88.4172 246.332 88.8299 246.495 88.2109C246.495 88.0045 246.006 87.7982 245.842 88.2109Z" fill="#F0D2BB"/>
<path fill-rule="evenodd" clip-rule="evenodd" d="M34.2059 87.7983C32.573 87.7983 32.573 85.9412 31.1033 85.7349C31.9198 87.3856 29.1437 86.1476 29.9602 87.7983C32.2464 87.1793 33.3894 90.0681 34.2059 87.7983Z" fill="#F0D2BB"/>
<path fill-rule="evenodd" clip-rule="evenodd" d="M290.26 87.7983C290.097 87.592 289.28 88.0047 289.607 88.4174C289.933 88.4174 290.586 88.0047 290.26 87.7983Z" fill="#F0D2BB"/>
<path fill-rule="evenodd" clip-rule="evenodd" d="M186.238 87.7982C186.074 87.1791 185.585 87.3854 185.095 87.7982C185.095 88.4174 186.074 88.4174 186.238 87.7982Z" fill="#F0D2BB"/>
<path fill-rule="evenodd" clip-rule="evenodd" d="M264.132 86.7666C263.969 86.5603 263.152 86.9729 263.479 87.3856C263.642 87.3856 264.458 86.973 264.132 86.7666Z" fill="#F0D2BB"/>
<path fill-rule="evenodd" clip-rule="evenodd" d="M498.956 86.1475C498.303 86.1475 497.16 86.1475 497.16 86.7664C497.813 86.5601 498.793 86.7664 498.956 86.1475Z" fill="#F0D2BB"/>
<path fill-rule="evenodd" clip-rule="evenodd" d="M256.783 85.5284C256.293 85.7348 255.64 85.5284 255.64 86.1475C256.13 85.9411 256.783 86.1475 256.783 85.5284Z" fill="#F0D2BB"/>
<path fill-rule="evenodd" clip-rule="evenodd" d="M786.037 85.1158C786.037 84.703 786.037 84.4967 786.037 84.084C785.384 84.084 785.384 83.6713 784.894 83.4649C784.894 84.2904 784.73 85.3221 786.037 85.1158Z" fill="#F0D2BB"/>
<path fill-rule="evenodd" clip-rule="evenodd" d="M487.362 84.4967C487.199 84.2904 486.382 84.703 486.709 85.1157C487.035 85.322 487.689 84.9094 487.362 84.4967Z" fill="#F0D2BB"/>
<path fill-rule="evenodd" clip-rule="evenodd" d="M188.198 85.1157C188.688 83.6713 186.891 84.084 186.401 83.4649C185.911 84.9094 186.565 85.3221 188.198 85.1157Z" fill="#F0D2BB"/>
<path fill-rule="evenodd" clip-rule="evenodd" d="M757.46 84.4967C758.929 84.7031 759.746 84.2904 759.909 83.465C758.929 83.6714 756.806 82.846 757.46 84.4967Z" fill="#F0D2BB"/>
<path fill-rule="evenodd" clip-rule="evenodd" d="M236.207 84.4966C236.371 83.2586 236.044 82.4332 235.064 82.4332C234.738 83.6713 235.064 84.4966 236.207 84.4966Z" fill="#F0D2BB"/>
<path fill-rule="evenodd" clip-rule="evenodd" d="M618.818 84.084C618.981 84.2903 619.798 83.8776 619.471 83.4649C619.308 83.2586 618.491 83.6713 618.818 84.084Z" fill="#F0D2BB"/>
<path fill-rule="evenodd" clip-rule="evenodd" d="M202.731 83.4649C202.568 83.2586 201.751 83.6713 202.078 84.084C202.241 84.084 203.058 83.6713 202.731 83.4649Z" fill="#F0D2BB"/>
<path fill-rule="evenodd" clip-rule="evenodd" d="M652.295 82.8461C652.295 82.227 653.111 82.0206 652.948 81.1952C652.621 81.1952 652.132 81.1952 651.805 81.1952C650.989 82.0206 650.988 82.6397 652.295 82.8461Z" fill="#F0D2BB"/>
<path fill-rule="evenodd" clip-rule="evenodd" d="M174.807 81.4015C176.603 79.5445 172.52 79.7508 174.807 81.4015V81.4015Z" fill="#F0D2BB"/>
<path fill-rule="evenodd" clip-rule="evenodd" d="M787.997 79.7507C789.466 77.8936 785.874 80.9888 787.997 79.7507V79.7507Z" fill="#F0D2BB"/>
<path fill-rule="evenodd" clip-rule="evenodd" d="M708.796 80.1635C708.959 80.3699 709.776 79.9571 709.449 79.5443C709.286 79.5443 708.47 79.9571 708.796 80.1635Z" fill="#F0D2BB"/>
<path fill-rule="evenodd" clip-rule="evenodd" d="M442.945 80.1635C443.435 80.1635 443.761 80.1635 444.088 80.1635C444.088 79.7508 444.088 79.5445 444.088 79.1318C443.761 79.1318 443.271 79.1318 442.945 79.1318C442.945 79.5445 442.945 79.9572 442.945 80.1635Z" fill="#F0D2BB"/>
<path fill-rule="evenodd" clip-rule="evenodd" d="M253.844 79.7507C253.844 80.3698 254.987 80.3698 254.987 79.7507C254.824 79.1317 254.334 79.338 253.844 79.7507Z" fill="#F0D2BB"/>
<path fill-rule="evenodd" clip-rule="evenodd" d="M599.876 79.7507C599.876 79.1316 599.876 78.3062 599.876 77.6872C597.59 77.0681 597.59 80.1634 599.876 79.7507Z" fill="#F0D2BB"/>
<path fill-rule="evenodd" clip-rule="evenodd" d="M241.597 79.1317C241.597 78.9254 241.107 78.5128 240.943 79.1317C241.107 79.5444 241.597 79.7507 241.597 79.1317Z" fill="#F0D2BB"/>
<path fill-rule="evenodd" clip-rule="evenodd" d="M365.214 78.7191C365.214 78.5128 364.724 78.1001 364.561 78.7191C364.561 78.9254 365.051 79.3381 365.214 78.7191Z" fill="#F0D2BB"/>
<path fill-rule="evenodd" clip-rule="evenodd" d="M235.555 77.0684C235.555 77.8937 235.228 78.3064 234.901 78.7191C235.718 78.7191 235.718 79.3381 236.698 79.3381C237.024 77.8937 236.698 77.0684 235.555 77.0684Z" fill="#F0D2BB"/>
<path fill-rule="evenodd" clip-rule="evenodd" d="M225.756 78.1C225.593 77.8936 224.777 78.3063 225.103 78.7191C225.43 78.7191 226.083 78.3063 225.756 78.1Z" fill="#F0D2BB"/>
<path fill-rule="evenodd" clip-rule="evenodd" d="M165.009 77.4809C165.662 77.4809 165.662 77.8936 166.152 78.0999C166.152 77.4809 166.642 77.4809 166.805 77.0682C166.152 77.0682 166.152 76.6555 165.662 76.4491C165.662 77.0682 165.172 77.0682 165.009 77.4809Z" fill="#F0D2BB"/>
<path fill-rule="evenodd" clip-rule="evenodd" d="M394.281 77.4809C394.281 76.8618 395.098 76.6555 394.935 75.83C394.608 75.83 394.118 75.83 393.792 75.83C392.975 76.6555 393.138 77.2745 394.281 77.4809Z" fill="#F0D2BB"/>
<path fill-rule="evenodd" clip-rule="evenodd" d="M239.8 77.0683C239.8 76.862 239.31 76.4494 239.147 77.0683C239.147 77.2746 239.637 77.6872 239.8 77.0683Z" fill="#F0D2BB"/>
<path fill-rule="evenodd" clip-rule="evenodd" d="M225.756 77.0683C225.756 76.862 225.266 76.4494 225.103 77.0683C225.266 77.2746 225.756 77.6872 225.756 77.0683Z" fill="#F0D2BB"/>
<path fill-rule="evenodd" clip-rule="evenodd" d="M766.604 76.0366C766.277 76.0366 765.788 76.0366 765.461 76.0366C765.461 76.4492 765.461 76.6556 765.461 77.0683C765.788 77.0683 766.277 77.0683 766.604 77.0683C766.604 76.6556 766.604 76.2429 766.604 76.0366Z" fill="#F0D2BB"/>
<path fill-rule="evenodd" clip-rule="evenodd" d="M250.088 73.3541C250.088 73.9731 250.088 74.7985 250.088 75.4176C252.537 75.8303 252.537 72.735 250.088 73.3541Z" fill="#F0D2BB"/>
<path fill-rule="evenodd" clip-rule="evenodd" d="M259.886 74.3858C260.539 71.2905 257.273 74.1794 259.886 74.3858V74.3858Z" fill="#F0D2BB"/>
<path fill-rule="evenodd" clip-rule="evenodd" d="M695.405 73.3539C696.222 73.973 697.692 73.973 698.508 73.3539C698.508 70.6714 695.405 70.6714 695.405 73.3539Z" fill="#F0D2BB"/>
<path fill-rule="evenodd" clip-rule="evenodd" d="M684.464 73.354C683.975 73.5603 683.321 73.3539 683.321 73.973C683.811 73.7667 684.464 73.7667 684.464 73.354Z" fill="#F0D2BB"/>
<path fill-rule="evenodd" clip-rule="evenodd" d="M748.968 73.354C748.968 72.9413 748.968 72.735 748.968 72.3223C748.315 72.3223 747.825 72.3223 747.172 72.3223C747.008 73.1477 747.825 73.354 748.968 73.354Z" fill="#F0D2BB"/>
<path fill-rule="evenodd" clip-rule="evenodd" d="M755.663 71.7033C755.01 71.7033 754.683 70.8779 754.52 71.7033C754.52 72.116 755.5 72.3223 755.663 71.7033Z" fill="#F0D2BB"/>
<path fill-rule="evenodd" clip-rule="evenodd" d="M329.778 71.0841C329.615 70.8777 328.798 71.2904 329.125 71.7032C329.451 71.7032 330.105 71.2904 329.778 71.0841Z" fill="#F0D2BB"/>
<path fill-rule="evenodd" clip-rule="evenodd" d="M695.406 69.4334C695.079 69.4334 694.589 69.4334 694.263 69.4334C694.263 69.8461 694.263 70.0525 694.263 70.4651C694.589 70.4651 695.079 70.4651 695.406 70.4651C695.406 70.2588 695.406 69.8461 695.406 69.4334Z" fill="#F0D2BB"/>
<path fill-rule="evenodd" clip-rule="evenodd" d="M709.449 70.0524C709.449 69.6398 709.449 69.4334 709.449 69.0208C708.796 69.0208 708.306 69.0208 707.653 69.0208C707.49 69.8461 708.143 70.2588 709.449 70.0524Z" fill="#F0D2BB"/>
<path fill-rule="evenodd" clip-rule="evenodd" d="M682.668 68.4018C682.015 68.4018 682.015 67.989 681.525 67.7827C681.525 68.4017 681.035 68.4017 680.872 68.8144C681.525 68.8144 681.525 69.2272 682.015 69.4335C682.015 69.0208 682.505 68.8145 682.668 68.4018Z" fill="#F0D2BB"/>
<path fill-rule="evenodd" clip-rule="evenodd" d="M669.931 69.0206C669.767 68.8142 668.951 69.2269 669.278 69.6396C669.441 69.6396 670.257 69.2269 669.931 69.0206Z" fill="#F0D2BB"/>
<path fill-rule="evenodd" clip-rule="evenodd" d="M594.486 69.0207C594.486 69.0207 594.486 68.608 594.486 68.4016L595.14 67.3698C594.486 66.5444 592.364 69.227 594.486 69.0207Z" fill="#F0D2BB"/>
<path fill-rule="evenodd" clip-rule="evenodd" d="M665.685 67.37C665.685 66.751 666.175 66.751 666.339 66.3383C665.359 66.3383 664.216 66.3383 664.542 67.37C664.869 67.37 665.196 67.37 665.685 67.37Z" fill="#F0D2BB"/>
<path fill-rule="evenodd" clip-rule="evenodd" d="M233.758 66.7509C233.758 66.5445 233.268 66.1319 233.104 66.7509C233.104 67.1635 233.594 67.3698 233.758 66.7509Z" fill="#F0D2BB"/>
<path fill-rule="evenodd" clip-rule="evenodd" d="M775.096 62.0048C771.83 61.7985 771.34 64.0683 770.85 66.3382C773.463 67.3699 775.912 65.3064 775.096 62.0048Z" fill="#F0D2BB"/>
<path fill-rule="evenodd" clip-rule="evenodd" d="M696.059 66.3383C695.569 66.5447 694.916 66.3383 694.916 66.9574C695.243 66.751 696.059 66.751 696.059 66.3383Z" fill="#F0D2BB"/>
<path fill-rule="evenodd" clip-rule="evenodd" d="M245.842 65.7191C247.312 64.2747 245.516 62.8303 244.699 62.0049C244.536 62.6239 243.719 62.6239 242.903 62.6239C243.229 64.2747 244.373 65.1001 245.842 65.7191Z" fill="#F0D2BB"/>
<path fill-rule="evenodd" clip-rule="evenodd" d="M177.746 65.7191C177.746 65.1001 178.563 64.8938 178.399 64.0684C178.073 64.0684 177.583 64.0684 177.256 64.0684C176.44 64.8938 176.44 65.5128 177.746 65.7191Z" fill="#F0D2BB"/>
<path fill-rule="evenodd" clip-rule="evenodd" d="M489.158 63.6557C489.322 63.862 490.138 63.4493 489.812 63.0366C489.648 62.8303 488.995 63.243 489.158 63.6557Z" fill="#F0D2BB"/>
<path fill-rule="evenodd" clip-rule="evenodd" d="M141.82 63.6557C141.984 63.862 142.8 63.4493 142.474 63.0366C142.31 62.8303 141.657 63.243 141.82 63.6557Z" fill="#F0D2BB"/>
<path fill-rule="evenodd" clip-rule="evenodd" d="M687.567 61.3857C687.404 61.1793 686.588 61.5921 686.914 62.0048C687.078 62.2112 687.894 61.7984 687.567 61.3857Z" fill="#F0D2BB"/>
<path fill-rule="evenodd" clip-rule="evenodd" d="M376.155 61.3858C377.625 59.5286 374.032 62.8303 376.155 61.3858V61.3858Z" fill="#F0D2BB"/>
<path fill-rule="evenodd" clip-rule="evenodd" d="M85.972 62.0049C86.1353 60.5605 85.972 59.116 84.1758 59.3223C84.0125 60.1477 83.3593 60.3541 83.5226 61.3858C84.3391 61.5922 84.6657 62.2113 85.972 62.0049Z" fill="#F0D2BB"/>
<path fill-rule="evenodd" clip-rule="evenodd" d="M76.8271 59.735C77.1537 59.735 77.6436 59.735 77.9702 59.735C77.9702 59.3223 77.9702 59.116 77.9702 58.7033C77.6436 58.7033 77.1537 58.7033 76.8271 58.7033C76.8271 59.116 76.8271 59.5287 76.8271 59.735Z" fill="#F0D2BB"/>
<path fill-rule="evenodd" clip-rule="evenodd" d="M739.823 57.0526C739.823 57.878 739.497 58.2907 739.17 58.7034C739.986 58.7034 739.986 59.3224 740.966 59.3224C741.293 58.0843 740.966 57.2589 739.823 57.0526Z" fill="#F0D2BB"/>
<path fill-rule="evenodd" clip-rule="evenodd" d="M637.598 58.2906C636.781 58.2906 637.108 57.2588 636.455 57.2588C636.455 58.0842 634.821 57.6716 635.311 58.9097C636.781 58.7033 637.108 59.7351 637.598 58.2906Z" fill="#F0D2BB"/>
<path fill-rule="evenodd" clip-rule="evenodd" d="M331.738 58.7033C331.738 58.4969 331.248 58.0843 331.084 58.7033C331.084 59.116 331.574 59.3223 331.738 58.7033Z" fill="#F0D2BB"/>
<path fill-rule="evenodd" clip-rule="evenodd" d="M296.465 57.6715L297.118 56.6398C296.465 55.8145 294.342 58.7032 296.465 58.2905C296.465 58.2905 296.302 57.6715 296.465 57.6715Z" fill="#F0D2BB"/>
<path fill-rule="evenodd" clip-rule="evenodd" d="M427.758 56.0209C427.431 56.0209 426.941 56.0209 426.615 56.0209C426.615 56.4336 426.615 56.6399 426.615 57.0526C426.941 57.0526 427.431 57.0526 427.758 57.0526C427.758 56.8463 427.758 56.4336 427.758 56.0209Z" fill="#F0D2BB"/>
<path fill-rule="evenodd" clip-rule="evenodd" d="M344.475 56.0209C344.475 55.8146 343.985 55.4019 343.822 56.0209C343.822 56.4336 344.312 56.6399 344.475 56.0209Z" fill="#F0D2BB"/>
<path fill-rule="evenodd" clip-rule="evenodd" d="M211.876 56.0209C211.386 56.2272 210.732 56.0208 210.732 56.6399C211.059 56.4335 211.876 56.6399 211.876 56.0209Z" fill="#F0D2BB"/>
<path fill-rule="evenodd" clip-rule="evenodd" d="M483.77 55.6081C483.606 55.4018 482.79 55.8144 483.116 56.2271C483.28 56.2271 484.096 55.8144 483.77 55.6081Z" fill="#F0D2BB"/>
<path fill-rule="evenodd" clip-rule="evenodd" d="M592.037 54.9892C591.547 55.1956 590.894 54.9892 590.894 55.6082C591.221 55.4019 592.037 55.4019 592.037 54.9892Z" fill="#F0D2BB"/>
<path fill-rule="evenodd" clip-rule="evenodd" d="M221.511 54.9892C220.857 54.9892 219.714 54.9892 219.714 55.6082C220.531 55.4019 221.511 55.6082 221.511 54.9892Z" fill="#F0D2BB"/>
<path fill-rule="evenodd" clip-rule="evenodd" d="M213.019 54.9892C212.856 54.7829 212.039 55.1955 212.366 55.6082C212.693 55.6082 213.346 55.1956 213.019 54.9892Z" fill="#F0D2BB"/>
<path fill-rule="evenodd" clip-rule="evenodd" d="M124.184 54.9892C124.184 54.7829 123.694 54.3702 123.531 54.9892C123.694 55.1955 124.184 55.6082 124.184 54.9892Z" fill="#F0D2BB"/>
<path fill-rule="evenodd" clip-rule="evenodd" d="M484.913 54.9891C484.749 54.3701 485.076 53.5446 484.26 53.3383C484.26 53.751 484.096 53.9574 483.606 53.9574C483.77 54.5764 483.933 55.1955 484.913 54.9891Z" fill="#F0D2BB"/>
<path fill-rule="evenodd" clip-rule="evenodd" d="M467.929 54.3701C469.399 52.7194 465.97 55.8144 467.929 54.3701V54.3701Z" fill="#F0D2BB"/>
<path fill-rule="evenodd" clip-rule="evenodd" d="M685.771 54.3701C686.588 53.751 686.751 51.6875 685.118 51.6875C684.301 52.5129 684.138 54.3701 685.771 54.3701Z" fill="#F0D2BB"/>
<path fill-rule="evenodd" clip-rule="evenodd" d="M602.325 53.9573C602.815 53.751 603.468 53.9573 603.468 53.3383C603.142 53.5446 602.325 53.3383 602.325 53.9573Z" fill="#F0D2BB"/>
<path fill-rule="evenodd" clip-rule="evenodd" d="M513 53.9573C513.49 53.9573 513.817 53.9573 514.143 53.9573C514.143 53.3383 514.633 53.3383 514.797 52.9256C513.817 52.9256 512.674 52.7193 513 53.9573Z" fill="#F0D2BB"/>
<path fill-rule="evenodd" clip-rule="evenodd" d="M726.432 53.3383C726.432 52.7192 726.922 52.7192 727.086 52.3065C726.106 52.3065 724.963 52.3065 725.289 53.3383C725.616 53.3383 726.106 53.3383 726.432 53.3383Z" fill="#F0D2BB"/>
<path fill-rule="evenodd" clip-rule="evenodd" d="M730.189 52.7191C730.352 51.8938 731.005 51.6874 730.842 50.6557C729.046 49.8304 729.046 52.9255 730.189 52.7191Z" fill="#F0D2BB"/>
<path fill-rule="evenodd" clip-rule="evenodd" d="M722.187 51.6875C721.86 51.6875 721.371 51.6875 721.044 51.6875C721.044 52.1002 721.044 52.3066 721.044 52.7192C721.371 52.7192 721.86 52.7192 722.187 52.7192C722.187 52.5129 722.187 52.1002 722.187 51.6875Z" fill="#F0D2BB"/>
<path fill-rule="evenodd" clip-rule="evenodd" d="M757.46 51.6875C757.296 51.4812 756.48 51.8938 756.806 52.3065C757.133 52.5129 757.786 52.1002 757.46 51.6875Z" fill="#F0D2BB"/>
<path fill-rule="evenodd" clip-rule="evenodd" d="M561.01 50.6558C560.03 50.6558 559.377 51.0685 559.214 51.6876C560.194 51.6876 561.337 51.8939 561.01 50.6558Z" fill="#F0D2BB"/>
<path fill-rule="evenodd" clip-rule="evenodd" d="M504.508 51.2748C504.345 51.0684 503.529 51.4812 503.855 51.8939C504.019 51.8939 504.835 51.4811 504.508 51.2748Z" fill="#F0D2BB"/>
<path fill-rule="evenodd" clip-rule="evenodd" d="M333.534 51.2748C333.37 51.0684 332.554 51.4812 332.881 51.8939C333.044 51.8939 333.86 51.4811 333.534 51.2748Z" fill="#F0D2BB"/>
<path fill-rule="evenodd" clip-rule="evenodd" d="M711.899 50.6557C711.736 50.0367 711.246 50.243 710.756 50.6557C710.593 51.2748 711.736 51.2748 711.899 50.6557Z" fill="#F0D2BB"/>
<path fill-rule="evenodd" clip-rule="evenodd" d="M606.081 51.2748C608.204 48.5923 602.488 50.4494 606.081 51.2748V51.2748Z" fill="#F0D2BB"/>
<path fill-rule="evenodd" clip-rule="evenodd" d="M716.798 49.624C716.635 49.4177 715.818 49.8304 716.145 50.2431C716.308 50.2431 717.124 49.8304 716.798 49.624Z" fill="#F0D2BB"/>
<path fill-rule="evenodd" clip-rule="evenodd" d="M454.539 48.5923C454.212 48.5923 453.723 48.5923 453.396 48.5923C453.396 49.005 453.396 49.2114 453.396 49.6241C453.723 49.6241 454.212 49.6241 454.539 49.6241C454.539 49.2114 454.539 48.7986 454.539 48.5923Z" fill="#F0D2BB"/>
<path fill-rule="evenodd" clip-rule="evenodd" d="M4.97519 49.0049C4.81189 48.7986 3.99538 49.2113 4.32198 49.6241C4.64859 49.8304 5.3018 49.4177 4.97519 49.0049Z" fill="#F0D2BB"/>
<path fill-rule="evenodd" clip-rule="evenodd" d="M102.955 48.5923C103.119 47.3542 102.792 46.5288 101.812 46.5288C100.996 46.9415 101.322 48.5923 102.955 48.5923Z" fill="#F0D2BB"/>
<path fill-rule="evenodd" clip-rule="evenodd" d="M477.727 47.9732C477.727 46.9415 477.727 45.9098 477.727 44.6717C475.441 44.4653 475.931 46.7351 475.278 47.9732C476.094 47.9732 476.911 47.9732 477.727 47.9732Z" fill="#F0D2BB"/>
<path fill-rule="evenodd" clip-rule="evenodd" d="M355.416 47.3542C356.886 45.7034 353.294 48.7986 355.416 47.3542V47.3542Z" fill="#F0D2BB"/>
<path fill-rule="evenodd" clip-rule="evenodd" d="M77.4801 47.9732C77.1535 45.9098 79.1131 44.8781 76.337 44.6718C76.5003 45.9098 75.1939 48.3859 77.4801 47.9732Z" fill="#F0D2BB"/>
<path fill-rule="evenodd" clip-rule="evenodd" d="M274.42 47.3542C274.583 47.5606 275.399 47.1479 275.073 46.7353C274.909 46.7353 274.256 47.1479 274.42 47.3542Z" fill="#F0D2BB"/>
<path fill-rule="evenodd" clip-rule="evenodd" d="M63.4366 46.9415C63.2733 46.7352 62.4568 47.1479 62.7834 47.5605C62.9467 47.5605 63.7632 47.1478 63.4366 46.9415Z" fill="#F0D2BB"/>
<path fill-rule="evenodd" clip-rule="evenodd" d="M351.823 45.9097C351.66 45.7034 350.844 46.1161 351.17 46.5288C351.333 46.5288 352.15 46.1161 351.823 45.9097Z" fill="#F0D2BB"/>
<path fill-rule="evenodd" clip-rule="evenodd" d="M28.1641 45.9097C28.0008 45.7034 27.1844 46.1161 27.5109 46.5288C27.6742 46.5288 28.4907 46.1161 28.1641 45.9097Z" fill="#F0D2BB"/>
<path fill-rule="evenodd" clip-rule="evenodd" d="M533.086 45.9097C533.249 46.116 534.066 45.7033 533.739 45.2907C533.413 45.0843 532.759 45.497 533.086 45.9097Z" fill="#F0D2BB"/>
<path fill-rule="evenodd" clip-rule="evenodd" d="M296.955 44.2589C297.118 44.878 296.792 45.7034 297.608 45.9097C297.608 44.4653 300.058 45.0843 300.058 43.8462C298.098 44.2589 298.425 43.4336 296.955 44.2589Z" fill="#F0D2BB"/>
<path fill-rule="evenodd" clip-rule="evenodd" d="M57.8842 45.9097C58.0475 45.0843 58.7007 44.878 58.5374 43.8462C57.7209 43.8462 56.9044 43.8462 56.0879 43.8462C56.0879 45.0843 57.0677 45.2907 57.8842 45.9097Z" fill="#F0D2BB"/>
<path fill-rule="evenodd" clip-rule="evenodd" d="M195.382 45.2907C197.015 44.4654 194.566 43.4338 194.239 44.6718C194.892 44.6718 194.892 45.0844 195.382 45.2907Z" fill="#F0D2BB"/>
<path fill-rule="evenodd" clip-rule="evenodd" d="M131.532 45.2908C132.022 45.0844 132.675 45.2908 132.675 44.6718C132.349 44.8781 131.532 44.6717 131.532 45.2908Z" fill="#F0D2BB"/>
<path fill-rule="evenodd" clip-rule="evenodd" d="M22.6119 44.259C22.4486 44.878 23.1018 45.7033 23.2651 44.878C23.4285 44.259 22.7752 43.4337 22.6119 44.259Z" fill="#F0D2BB"/>
<path fill-rule="evenodd" clip-rule="evenodd" d="M287.81 44.2589C287.647 44.0526 286.83 44.4653 287.157 44.878C287.484 44.878 288.137 44.4653 287.81 44.2589Z" fill="#F0D2BB"/>
<path fill-rule="evenodd" clip-rule="evenodd" d="M666.175 44.259C666.339 44.4654 667.155 44.0527 666.829 43.64C666.665 43.4336 666.012 43.8463 666.175 44.259Z" fill="#F0D2BB"/>
<path fill-rule="evenodd" clip-rule="evenodd" d="M475.931 43.6399C476.258 42.4018 473.482 42.4018 474.135 43.6399C474.298 44.0526 475.605 44.259 475.931 43.6399Z" fill="#F0D2BB"/>
<path fill-rule="evenodd" clip-rule="evenodd" d="M468.583 44.259C468.256 43.2273 469.399 40.9575 467.439 41.5765C467.276 42.8146 467.276 44.0527 468.583 44.259Z" fill="#F0D2BB"/>
<path fill-rule="evenodd" clip-rule="evenodd" d="M678.423 43.2273C678.586 43.4337 679.402 43.021 679.076 42.6083C678.912 42.4019 678.096 42.8146 678.423 43.2273Z" fill="#F0D2BB"/>
<path fill-rule="evenodd" clip-rule="evenodd" d="M769.054 41.9891C769.217 42.1954 770.034 41.7828 769.707 41.3702C769.544 41.3702 768.727 41.7828 769.054 41.9891Z" fill="#F0D2BB"/>
<path fill-rule="evenodd" clip-rule="evenodd" d="M629.106 40.9574C628.943 40.7511 628.127 41.1638 628.453 41.5765C628.78 41.5765 629.433 41.3701 629.106 40.9574Z" fill="#F0D2BB"/>
<path fill-rule="evenodd" clip-rule="evenodd" d="M137.575 40.9574C137.411 40.7511 136.595 41.1638 136.922 41.5765C137.248 41.5765 137.901 41.3701 137.575 40.9574Z" fill="#F0D2BB"/>
<path fill-rule="evenodd" clip-rule="evenodd" d="M393.791 39.3068C392.485 39.1004 391.505 39.5131 391.342 40.3385C392.485 40.1322 392.648 40.9576 393.791 40.9576C393.791 40.5449 393.791 39.9258 393.791 39.3068Z" fill="#F0D2BB"/>
<path fill-rule="evenodd" clip-rule="evenodd" d="M352.313 40.5448C352.313 40.3385 351.823 39.9258 351.66 40.5448C351.823 40.7512 352.313 41.1639 352.313 40.5448Z" fill="#F0D2BB"/>
<path fill-rule="evenodd" clip-rule="evenodd" d="M141.82 40.5448C141.657 40.3385 140.841 40.7512 141.167 41.1638C141.494 41.1638 142.147 40.7512 141.82 40.5448Z" fill="#F0D2BB"/>
<path fill-rule="evenodd" clip-rule="evenodd" d="M46.4536 40.9574C47.4334 40.9574 48.4132 40.7511 48.9031 40.3384C49.0664 38.8939 48.0866 38.4812 46.4536 38.6875C46.4536 39.513 46.4536 40.3384 46.4536 40.9574Z" fill="#F0D2BB"/>
<path fill-rule="evenodd" clip-rule="evenodd" d="M789.793 39.9257C789.793 39.7194 789.303 39.3068 789.14 39.9257C789.14 40.132 789.63 40.5447 789.793 39.9257Z" fill="#F0D2BB"/>
<path fill-rule="evenodd" clip-rule="evenodd" d="M298.915 38.275C297.935 38.275 296.955 38.275 295.812 38.275C295.812 39.3067 295.649 39.9257 295.159 40.3384C297.771 40.9574 297.935 39.3067 298.915 38.275Z" fill="#F0D2BB"/>
<path fill-rule="evenodd" clip-rule="evenodd" d="M176.603 40.5448C176.603 40.1321 176.603 39.9258 176.603 39.5131C175.95 39.5131 175.46 39.5131 174.807 39.5131C174.644 40.3385 175.297 40.5448 176.603 40.5448Z" fill="#F0D2BB"/>
<path fill-rule="evenodd" clip-rule="evenodd" d="M169.255 39.9257C172.031 40.1321 170.888 37.4495 169.255 37.2432C168.112 38.2749 169.581 38.2749 169.255 39.9257Z" fill="#F0D2BB"/>
<path fill-rule="evenodd" clip-rule="evenodd" d="M405.222 37.8623C404.896 37.8623 404.406 37.8623 404.079 37.8623C404.079 38.4813 403.263 38.6877 403.426 39.5131C404.079 39.5131 404.569 39.5131 405.222 39.5131C405.222 38.8941 405.222 38.275 405.222 37.8623Z" fill="#F0D2BB"/>
<path fill-rule="evenodd" clip-rule="evenodd" d="M161.417 38.894C160.927 39.1004 160.273 38.8941 160.273 39.5131C160.6 39.3068 161.417 39.3067 161.417 38.894Z" fill="#F0D2BB"/>
<path fill-rule="evenodd" clip-rule="evenodd" d="M94.4636 38.894C94.4636 38.4813 94.6269 38.2749 95.1168 38.2749C95.1168 37.8622 95.1168 37.6559 95.1168 37.2432C93.4838 36.4178 93.3205 39.1003 94.4636 38.894Z" fill="#F0D2BB"/>
<path fill-rule="evenodd" clip-rule="evenodd" d="M618.818 37.8623C618.655 37.656 617.839 38.0686 618.165 38.4813C618.329 38.4813 619.145 38.0686 618.818 37.8623Z" fill="#F0D2BB"/>
<path fill-rule="evenodd" clip-rule="evenodd" d="M612.776 38.275C614.899 35.7988 609.184 37.656 612.776 38.275V38.275Z" fill="#F0D2BB"/>
<path fill-rule="evenodd" clip-rule="evenodd" d="M513.49 38.275C513.49 37.6559 514.306 37.4496 514.143 36.6241C513.816 36.6241 513.327 36.6241 513 36.6241C512.347 37.4496 512.347 38.0686 513.49 38.275Z" fill="#F0D2BB"/>
<path fill-rule="evenodd" clip-rule="evenodd" d="M10.5273 37.8622C11.1805 37.8622 11.1805 38.2749 11.6704 38.4813C13.3034 37.4496 10.8539 36.4178 10.5273 37.8622Z" fill="#F0D2BB"/>
<path fill-rule="evenodd" clip-rule="evenodd" d="M634.658 37.2432C634.495 37.0369 633.678 37.4496 634.005 37.8623C634.168 37.8623 634.985 37.4496 634.658 37.2432Z" fill="#F0D2BB"/>
<path fill-rule="evenodd" clip-rule="evenodd" d="M523.288 37.2432C523.125 37.0369 522.308 37.4496 522.635 37.8623C522.798 37.8623 523.615 37.4496 523.288 37.2432Z" fill="#F0D2BB"/>
<path fill-rule="evenodd" clip-rule="evenodd" d="M221.021 37.2432C220.857 37.0369 220.041 37.4496 220.367 37.8623C220.531 37.8623 221.347 37.4496 221.021 37.2432Z" fill="#F0D2BB"/>
<path fill-rule="evenodd" clip-rule="evenodd" d="M621.921 36.6241C623.391 34.9734 619.798 38.0685 621.921 36.6241V36.6241Z" fill="#F0D2BB"/>
<path fill-rule="evenodd" clip-rule="evenodd" d="M429.554 36.624C429.554 36.005 428.411 36.005 428.248 36.624C429.064 36.624 429.391 37.4494 429.554 36.624Z" fill="#F0D2BB"/>
<path fill-rule="evenodd" clip-rule="evenodd" d="M405.876 37.2432C406.039 37.4495 406.856 37.0368 406.529 36.6241C406.366 36.6241 405.549 37.0368 405.876 37.2432Z" fill="#F0D2BB"/>
<path fill-rule="evenodd" clip-rule="evenodd" d="M18.3658 36.6241C17.8759 36.8305 17.2227 36.6242 17.2227 37.2432C17.7126 37.0369 18.3658 37.2432 18.3658 36.6241Z" fill="#F0D2BB"/>
<path fill-rule="evenodd" clip-rule="evenodd" d="M646.253 36.6241C646.253 36.005 647.069 35.7987 646.906 34.9733C646.416 34.9733 646.089 34.9733 645.599 34.9733C644.946 35.7987 644.946 36.4177 646.253 36.6241Z" fill="#F0D2BB"/>
<path fill-rule="evenodd" clip-rule="evenodd" d="M190.483 36.2114C190.32 36.005 189.504 36.4178 189.83 36.8305C190.157 36.8305 190.81 36.4178 190.483 36.2114Z" fill="#F0D2BB"/>
<path fill-rule="evenodd" clip-rule="evenodd" d="M160.763 35.5924C160.6 35.3861 159.783 35.7988 160.11 36.2114C160.273 36.2114 161.09 35.7987 160.763 35.5924Z" fill="#F0D2BB"/>
<path fill-rule="evenodd" clip-rule="evenodd" d="M129.736 35.5924C129.083 35.5924 128.756 34.767 128.593 35.5924C128.43 36.2115 129.573 36.2115 129.736 35.5924Z" fill="#F0D2BB"/>
<path fill-rule="evenodd" clip-rule="evenodd" d="M379.748 34.5607C379.258 34.5607 378.931 34.5607 378.604 34.5607C378.604 34.9733 378.604 35.1797 378.604 35.5923C378.931 35.5923 379.421 35.5923 379.748 35.5923C379.748 35.1797 379.748 34.9733 379.748 34.5607Z" fill="#F0D2BB"/>
<path fill-rule="evenodd" clip-rule="evenodd" d="M135.778 34.5607C135.452 34.5607 134.962 34.5607 134.635 34.5607C134.635 34.9733 134.635 35.1797 134.635 35.5923C134.962 35.5923 135.452 35.5923 135.778 35.5923C135.778 35.1797 135.778 34.9733 135.778 34.5607Z" fill="#F0D2BB"/>
<path fill-rule="evenodd" clip-rule="evenodd" d="M702.754 34.5607C702.101 34.5607 700.958 34.5607 700.958 35.1797C701.611 34.9734 702.591 35.1796 702.754 34.5607Z" fill="#F0D2BB"/>
<path fill-rule="evenodd" clip-rule="evenodd" d="M394.935 34.5607C394.935 34.7671 395.424 35.1798 395.588 34.5607C395.588 34.148 395.098 33.9416 394.935 34.5607Z" fill="#F0D2BB"/>
<path fill-rule="evenodd" clip-rule="evenodd" d="M56.7413 33.9416C56.0881 33.9416 55.7614 33.1163 55.5981 33.9416C55.5981 34.5605 56.578 34.7669 56.7413 33.9416Z" fill="#F0D2BB"/>
<path fill-rule="evenodd" clip-rule="evenodd" d="M104.751 33.5289C104.751 33.3226 104.261 32.9099 104.098 33.5289C104.098 33.7353 104.588 34.148 104.751 33.5289Z" fill="#F0D2BB"/>
<path fill-rule="evenodd" clip-rule="evenodd" d="M312.795 32.9098C312.795 32.7034 312.305 32.2907 312.142 32.9098C312.142 33.3225 312.795 33.5289 312.795 32.9098Z" fill="#F0D2BB"/>
<path fill-rule="evenodd" clip-rule="evenodd" d="M666.829 32.2908C666.665 31.6718 666.175 31.8781 665.686 32.2908C665.686 32.9098 666.665 33.1162 666.829 32.2908Z" fill="#F0D2BB"/>
<path fill-rule="evenodd" clip-rule="evenodd" d="M374.196 31.8782C373.869 31.8782 373.379 31.8782 373.053 31.8782C373.053 32.2909 373.053 32.4972 373.053 32.9099C373.379 32.9099 373.869 32.9099 374.196 32.9099C374.196 32.4972 374.196 32.2909 374.196 31.8782Z" fill="#F0D2BB"/>
<path fill-rule="evenodd" clip-rule="evenodd" d="M245.842 32.9099C246.005 33.1163 246.822 32.7036 246.495 32.2909C246.332 32.2909 245.679 32.7036 245.842 32.9099Z" fill="#F0D2BB"/>
<path fill-rule="evenodd" clip-rule="evenodd" d="M221.021 32.2909C221.021 32.4973 221.51 32.91 221.674 32.2909C221.51 32.0846 221.021 31.8782 221.021 32.2909Z" fill="#F0D2BB"/>
<path fill-rule="evenodd" clip-rule="evenodd" d="M165.662 32.291C165.662 32.0846 165.172 31.6719 165.009 32.291C165.009 32.7037 165.499 32.91 165.662 32.291Z" fill="#F0D2BB"/>
<path fill-rule="evenodd" clip-rule="evenodd" d="M46.4537 32.2909C45.9638 32.4972 45.3105 32.2908 45.3105 32.9099C45.6372 32.7036 46.2904 32.91 46.4537 32.2909Z" fill="#F0D2BB"/>
<path fill-rule="evenodd" clip-rule="evenodd" d="M590.241 31.2591C590.078 30.64 589.588 30.8464 589.098 31.2591C588.935 31.8782 590.078 32.0845 590.241 31.2591Z" fill="#F0D2BB"/>
<path fill-rule="evenodd" clip-rule="evenodd" d="M540.924 31.2592C540.761 31.0528 539.945 31.4655 540.271 31.8782C540.435 32.0845 541.251 31.6718 540.924 31.2592Z" fill="#F0D2BB"/>
<path fill-rule="evenodd" clip-rule="evenodd" d="M442.945 30.2275C442.618 30.2275 442.128 30.2275 441.802 30.2275C441.802 30.8465 441.312 30.8465 441.148 31.2592C441.965 31.2592 441.965 31.8782 442.945 31.8782C442.945 31.2592 442.945 30.8465 442.945 30.2275Z" fill="#F0D2BB"/>
<path fill-rule="evenodd" clip-rule="evenodd" d="M245.842 31.2592C245.842 30.6402 246.332 30.6402 246.495 30.2275C245.515 30.2275 244.372 30.2275 244.699 31.2592C245.026 31.2592 245.516 31.2592 245.842 31.2592Z" fill="#F0D2BB"/>
<path fill-rule="evenodd" clip-rule="evenodd" d="M609.021 30.2274C608.857 30.0211 608.041 30.4338 608.367 30.8465C608.694 30.8465 609.347 30.4338 609.021 30.2274Z" fill="#F0D2BB"/>
<path fill-rule="evenodd" clip-rule="evenodd" d="M394.935 30.8465C395.751 30.8465 396.568 30.8465 397.384 30.8465C397.547 29.6084 396.241 29.6084 396.731 28.164C394.118 28.3703 395.914 29.1957 394.935 30.8465Z" fill="#F0D2BB"/>
<path fill-rule="evenodd" clip-rule="evenodd" d="M221.51 30.2274C221.347 30.0211 220.531 30.4338 220.857 30.8465C221.184 30.8465 221.837 30.4338 221.51 30.2274Z" fill="#F0D2BB"/>
<path fill-rule="evenodd" clip-rule="evenodd" d="M165.009 30.8465C165.172 31.0528 165.989 30.6401 165.662 30.2274C165.499 30.0211 164.682 30.4338 165.009 30.8465Z" fill="#F0D2BB"/>
<path fill-rule="evenodd" clip-rule="evenodd" d="M19.0189 29.6084C17.8720.857 30.8465C221.184 30.8465 221.837 30.4338 221.51 30.2274Z" fill="#F0D2BB"/>
<path fill-rule="evenodd" clip-rule="evenodd" d="M165.009 30.8465C165.172 31.0528 165.989 30.6401 165.662 30.2274C165.499 30.0211 164.682 30.4338 165.009 30.8465Z" fill="#F0D2BB"/>
<path fill-rule="evenodd" clip-rule="evenodd" d="M19.0189 29.6084C17.8758 29.4021 18.529 27.5449 16.5694 27.9576C14.9365 28.9894 18.0391 31.2592 19.0189 29.6084Z" fill="#F0D2BB"/>
<path fill-rule="evenodd" clip-rule="evenodd" d="M758.766 29.1956C758.602 28.9893 757.786 29.402 758.113 29.8147C758.276 29.8147 759.092 29.402 758.766 29.1956Z" fill="#F0D2BB"/>
<path fill-rule="evenodd" clip-rule="evenodd" d="M627.31 29.1957C626.82 29.4021 626.167 29.1957 626.167 29.8148C626.657 29.6084 627.31 29.6084 627.31 29.1957Z" fill="#F0D2BB"/>
<path fill-rule="evenodd" clip-rule="evenodd" d="M374.196 28.5766C374.196 28.1639 374.196 27.9576 374.196 27.5449C373.543 27.5449 373.053 27.5449 372.399 27.5449C372.399 28.5766 373.053 28.7829 374.196 28.5766Z" fill="#F0D2BB"/>
<path fill-rule="evenodd" clip-rule="evenodd" d="M270.174 28.164C270.011 27.9577 269.194 28.3703 269.521 28.783C269.847 28.783 270.501 28.3703 270.174 28.164Z" fill="#F0D2BB"/>
<path fill-rule="evenodd" clip-rule="evenodd" d="M123.041 28.164C122.878 27.9577 122.061 28.3703 122.388 28.783C122.551 28.783 123.368 28.3703 123.041 28.164Z" fill="#F0D2BB"/>
<path fill-rule="evenodd" clip-rule="evenodd" d="M23.2647 28.164C23.1014 27.9577 22.2849 28.3703 22.6115 28.783C22.7748 28.783 23.5914 28.3703 23.2647 28.164Z" fill="#F0D2BB"/>
<path fill-rule="evenodd" clip-rule="evenodd" d="M400.977 27.5448C400.813 27.3385 399.997 27.7512 400.323 28.1639C400.65 28.1639 401.303 27.7512 400.977 27.5448Z" fill="#F0D2BB"/>
<path fill-rule="evenodd" clip-rule="evenodd" d="M189.34 27.5448C190.157 28.1638 191.626 28.1638 191.79 26.9258C190.973 26.3068 189.504 26.3068 189.34 27.5448Z" fill="#F0D2BB"/>
<path fill-rule="evenodd" clip-rule="evenodd" d="M747.171 26.9257C747.008 26.3067 746.518 26.513 746.028 26.9257C746.028 27.5447 747.008 27.7511 747.171 26.9257Z" fill="#F0D2BB"/>
<path fill-rule="evenodd" clip-rule="evenodd" d="M685.118 26.9258C685.118 26.7195 684.628 26.3068 684.465 26.9258C684.465 27.3385 684.955 27.5448 685.118 26.9258Z" fill="#F0D2BB"/>
<path fill-rule="evenodd" clip-rule="evenodd" d="M406.529 26.5132C406.202 26.5132 405.712 26.5132 405.386 26.5132C405.386 26.9259 405.386 27.1322 405.386 27.545C405.712 27.545 406.202 27.545 406.529 27.545C406.529 27.1322 406.529 26.9259 406.529 26.5132Z" fill="#F0D2BB"/>
<path fill-rule="evenodd" clip-rule="evenodd" d="M123.041 26.9258C122.878 26.7195 122.061 27.1322 122.388 27.5449C122.551 27.7513 123.368 27.3386 123.041 26.9258Z" fill="#F0D2BB"/>
<path fill-rule="evenodd" clip-rule="evenodd" d="M121.245 26.5132C120.265 26.5132 119.612 26.9259 119.448 27.545C120.265 27.545 121.408 27.545 121.245 26.5132Z" fill="#F0D2BB"/>
<path fill-rule="evenodd" clip-rule="evenodd" d="M15.9166 26.9258C15.7533 26.7195 14.9368 27.1322 15.2634 27.5449C15.59 27.7513 16.2432 27.3386 15.9166 26.9258Z" fill="#F0D2BB"/>
<path fill-rule="evenodd" clip-rule="evenodd" d="M761.705 26.9259C761.705 26.3069 761.705 25.8941 761.705 25.2751C760.236 25.0687 759.419 25.4814 759.256 26.3068C760.072 26.7195 760.562 27.3386 761.705 26.9259Z" fill="#F0D2BB"/>
<path fill-rule="evenodd" clip-rule="evenodd" d="M704.551 26.5132C704.551 26.3069 704.061 25.8942 703.897 26.5132C703.897 26.7196 704.387 27.1322 704.551 26.5132Z" fill="#F0D2BB"/>
<path fill-rule="evenodd" clip-rule="evenodd" d="M677.769 26.9258C678.096 26.9258 678.586 26.9258 678.913 26.9258C679.239 25.4814 679.729 25.0686 678.259 24.2433C678.749 25.6877 677.116 25.275 677.116 26.3067C677.606 26.5131 677.933 26.5131 677.769 26.9258Z" fill="#F0D2BB"/>
<path fill-rule="evenodd" clip-rule="evenodd" d="M671.727 25.8941C671.727 25.6877 671.238 25.2751 671.074 25.8941C671.074 26.3067 671.564 26.5131 671.727 25.8941Z" fill="#F0D2BB"/>
<path fill-rule="evenodd" clip-rule="evenodd" d="M379.748 26.5131C382.85 24.2431 377.625 24.0367 379.748 26.5131V26.5131Z" fill="#F0D2BB"/>
<path fill-rule="evenodd" clip-rule="evenodd" d="M408.978 25.4814C408.488 25.6877 407.835 25.4814 407.835 26.1005C408.162 25.8941 408.978 25.8941 408.978 25.4814Z" fill="#F0D2BB"/>
<path fill-rule="evenodd" clip-rule="evenodd" d="M361.458 24.8624C361.131 24.8624 360.642 24.8624 360.315 24.8624C360.315 25.2751 360.315 25.4814 360.315 25.8941C360.642 25.8941 361.131 25.8941 361.458 25.8941C361.458 25.4814 361.458 25.2751 361.458 24.8624Z" fill="#F0D2BB"/>
<path fill-rule="evenodd" clip-rule="evenodd" d="M270.827 25.4814C270.827 25.275 270.337 24.8624 270.174 25.4814C270.174 25.6877 270.664 26.1004 270.827 25.4814Z" fill="#F0D2BB"/>
<path fill-rule="evenodd" clip-rule="evenodd" d="M119.938 24.8624C119.938 24.6561 119.448 24.2434 119.285 24.8624C119.448 25.0687 119.938 25.4814 119.938 24.8624Z" fill="#F0D2BB"/>
<path fill-rule="evenodd" clip-rule="evenodd" d="M776.402 24.2433C778.852 26.3069 777.709 22.5925 776.402 24.2433V24.2433Z" fill="#F0D2BB"/>
<path fill-rule="evenodd" clip-rule="evenodd" d="M575.544 24.2433C575.544 24.0369 575.054 23.6242 574.891 24.2433C575.054 24.6559 575.544 24.8623 575.544 24.2433Z" fill="#F0D2BB"/>
<path fill-rule="evenodd" clip-rule="evenodd" d="M773.952 24.2432C774.116 24.4496 774.932 24.0369 774.606 23.6242C774.442 23.6242 773.626 24.0369 773.952 24.2432Z" fill="#F0D2BB"/>
<path fill-rule="evenodd" clip-rule="evenodd" d="M194.239 23.8306C194.076 23.624.765 24.0369 71.4385 23.6242C71.1119 23.6242 70.4587 24.0369 70.7853 24.2432Z" fill="#F0D2BB"/>
<path fill-rule="evenodd" clip-rule="evenodd" d="M787.343 22.1798C786.363 22.1798 785.71 22.5925 785.547 23.2115C786.363 23.2115 787.506 23.2115 787.343 22.1798Z" fill="#F0D2BB"/>
<path fill-rule="evenodd" clip-rule="evenodd" d="M776.402 23.2115C776.402 22.5925 776.892 22.5925 777.055 22.1798C776.076 22.1798 774.932 22.1798 775.259 23.2115C775.586 23.2115 775.912 23.2115 776.402 23.2115Z" fill="#F0D2BB"/>
<path fill-rule="evenodd" clip-rule="evenodd" d="M256.783 21.1481C256.457 21.1481 255.967 21.1481 255.64 21.1481C255.64 21.7671 255.64 22.5925 255.64 23.2116C255.967 23.2116 256.457 23.2116 256.783 23.2116C256.783 22.5925 256.783 21.7671 256.783 21.1481Z" fill="#F0D2BB"/>
<path fill-rule="evenodd" clip-rule="evenodd" d="M596.283 22.1798C596.119 21.9735 595.303 22.3862 595.63 22.7988C595.793 22.7988 596.609 22.3861 596.283 22.1798Z" fill="#F0D2BB"/>
<path fill-rule="evenodd" clip-rule="evenodd" d="M727.739 21.5607C727.249 21.767 726.596 21.5607 726.596 22.1797C726.922 21.9734 727.739 22.1797 727.739 21.5607Z" fill="#F0D2BB"/>
<path fill-rule="evenodd" clip-rule="evenodd" d="M577.994 21.5607C577.34 21.5607 576.197 21.5607 576.197 22.1797C577.014 22.1797 577.994 22.1797 577.994 21.5607Z" fill="#F0D2BB"/>
<path fill-rule="evenodd" clip-rule="evenodd" d="M781.791 21.1481C781.791 20.9418 781.301 20.5291 781.138 21.1481C781.301 21.3544 781.791 21.7671 781.791 21.1481Z" fill="#F0D2BB"/>
<path fill-rule="evenodd" clip-rule="evenodd" d="M769.707 21.5607C769.707 21.148 769.707 20.9417 769.707 20.529C769.053 20.529 768.564 20.529 767.91 20.529C767.747 21.5607 768.4 21.767 769.707 21.5607Z" fill="#F0D2BB"/>
<path fill-rule="evenodd" clip-rule="evenodd" d="M126.144 21.1481C126.634 18.0529 123.368 20.9418 126.144 21.1481V21.1481Z" fill="#F0D2BB"/>
<path fill-rule="evenodd" clip-rule="evenodd" d="M722.84 18.4655C723.33 20.1163 721.207 19.4973 721.044 20.529C721.86 20.529 722.677 20.529 723.493 20.529C723.33 19.7036 723.657 18.6719 722.84 18.4655Z" fill="#F0D2BB"/>
<path fill-rule="evenodd" clip-rule="evenodd" d="M578.646 20.1163C578.157 20.3226 577.503 20.1163 577.503 20.7354C577.83 20.529 578.646 20.529 578.646 20.1163Z" fill="#F0D2BB"/>
<path fill-rule="evenodd" clip-rule="evenodd" d="M449.15 20.1163C448.987 19.91 448.17 20.3227 448.497 20.7354C448.66 20.7354 449.477 20.3226 449.15 20.1163Z" fill="#F0D2BB"/>
<path fill-rule="evenodd" clip-rule="evenodd" d="M188.688 20.5291C189.014 20.5291 189.504 20.5291 189.831 20.5291C189.831 19.9101 190.647 19.7038 190.484 18.8784C189.831 18.8784 189.341 18.8784 188.688 18.8784C188.687 19.4974 188.688 20.1164 188.688 20.5291Z" fill="#F0D2BB"/>
<path fill-rule="evenodd" clip-rule="evenodd" d="M773.3 20.1162C773.463 20.3225 774.279 19.9099 773.953 19.4972C773.789 19.2909 772.973 19.7035 773.3 20.1162Z" fill="#F0D2BB"/>
<path fill-rule="evenodd" clip-rule="evenodd" d="M609.02 20.1163C609.02 19.7036 609.184 19.4973 609.674 19.4973C609.674 19.0846 609.674 18.8782 609.674 18.4655C608.204 17.6401 607.877 20.3227 609.02 20.1163Z" fill="#F0D2BB"/>
<path fill-rule="evenodd" clip-rule="evenodd" d="M539.128 18.8784C538.149 18.8784 537.495 19.2911 537.332 19.9101C538.312 19.9101 539.455 20.1165 539.128 18.8784Z" fill="#F0D2BB"/>
<path fill-rule="evenodd" clip-rule="evenodd" d="M690.017 17.8465C690.017 18.2592 690.017 18.4655 690.017 18.8782C691.16 20.7353 692.956 17.2274 690.017 17.8465Z" fill="#F0D2BB"/>
<path fill-rule="evenodd" clip-rule="evenodd" d="M575.054 18.8783C574.89 18.6719 574.074 19.0846 574.401 19.4974C574.564 19.7038 575.38 19.291 575.054 18.8783Z" fill="#F0D2BB"/>
<path fill-rule="evenodd" clip-rule="evenodd" d="M384.646 18.4656C384.646 18.0529 384.646 17.8465 384.646 17.4338C382.197 15.1639 381.217 20.5291 384.646 18.4656Z" fill="#F0D2BB"/>
<path fill-rule="evenodd" clip-rule="evenodd" d="M799.427 16.8149C799.101 16.8149 798.611 16.8149 798.284 16.8149C798.284 17.4339 797.468 17.6403 797.631 18.4657C798.284 18.4657 798.774 18.4657 799.427 18.4657C799.427 17.8466 799.427 17.2276 799.427 16.8149Z" fill="#F0D2BB"/>
<path fill-rule="evenodd" clip-rule="evenodd" d="M2.03601 17.8466C2.03601 17.6402 1.54611 17.2275 1.38281 17.8466C1.38281 18.2593 1.87271 18.4657 2.03601 17.8466Z" fill="#F0D2BB"/>
<path fill-rule="evenodd" clip-rule="evenodd" d="M766.604 17.2275C766.604 17.0212 766.114 16.6085 765.951 17.2275C765.951 17.6402 766.441 17.8466 766.604 17.2275Z" fill="#F0D2BB"/>
<path fill-rule="evenodd" clip-rule="evenodd" d="M738.027 17.8466C738.517 15.9895 737.537 15.5768 736.23 15.1641C735.087 16.1958 735.577 18.4657 738.027 17.8466Z" fill="#F0D2BB"/>
<path fill-rule="evenodd" clip-rule="evenodd" d="M501.406 17.2275C501.243 17.0211 500.426 17.4339 500.753 17.8466C500.916 18.0529 501.733 17.6402 501.406 17.2275Z" fill="#F0D2BB"/>
<path fill-rule="evenodd" clip-rule="evenodd" d="M62.1299 17.2275C61.9666 17.0211 61.1502 17.4339 61.4768 17.8466C61.8033 18.0529 62.4565 17.6402 62.1299 17.2275Z" fill="#F0D2BB"/>
<path fill-rule="evenodd" clip-rule="evenodd" d="M773.953 16.8149C773.463 17.0212 772.81 16.8149 772.81 17.434C773.136 17.2276 773.953 17.2276 773.953 16.8149Z" fill="#F0D2BB"/>
<path fill-rule="evenodd" clip-rule="evenodd" d="M565.909 17.2274C570.482 16.6084 565.909 12.4815 565.909 17.2274V17.2274Z" fill="#F0D2BB"/>
<path fill-rule="evenodd" clip-rule="evenodd" d="M60.3341 16.8149C60.1708 16.6086 59.3543 17.0213 59.6809 17.434C60.0075 17.434 60.6607 17.0213 60.3341 16.8149Z" fill="#F0D2BB"/>
<path fill-rule="evenodd" clip-rule="evenodd" d="M284.871 15.7832C284.871 15.5768 284.381 15.1642 284.218 15.7832C284.218 15.9895 284.708 16.4022 284.871 15.7832Z" fill="#F0D2BB"/>
<path fill-rule="evenodd" clip-rule="evenodd" d="M617.022 14.1323C616.369 14.1323 615.879 14.1323 615.226 14.1323C615.226 14.7513 615.226 15.1641 615.226 15.7831C615.552 15.7831 616.042 15.7831 616.369 15.7831C616.369 14.9577 617.185 14.9577 617.022 14.1323Z" fill="#F0D2BB"/>
<path fill-rule="evenodd" clip-rule="evenodd" d="M588.934 14.5449C588.281 14.5449 588.281 14.1322 587.791 13.9258C587.791 14.5449 587.301 14.5449 587.138 14.9576C587.791 14.9576 587.791 15.3703 588.281 15.5767C588.445 15.164 588.934 15.164 588.934 14.5449Z" fill="#F0D2BB"/>
<path fill-rule="evenodd" clip-rule="evenodd" d="M320.144 15.164C319.98 14.9576 319.164 15.3704 319.49 15.783C319.654 15.783 320.47 15.3703 320.144 15.164Z" fill="#F0D2BB"/>
<path fill-rule="evenodd" clip-rule="evenodd" d="M196.036 15.164C196.036 14.9577 195.546 14.545 195.383 15.164C195.383 15.5767 195.873 15.7831 196.036 15.164Z" fill="#F0D2BB"/>
<path fill-rule="evenodd" clip-rule="evenodd" d="M717.941 14.545C717.778 14.3387 716.962 14.7513 717.288 15.164C717.452 15.3703 718.268 14.9577 717.941 14.545Z" fill="#F0D2BB"/>
<path fill-rule="evenodd" clip-rule="evenodd" d="M25.0611 14.545C24.8978 14.3387 24.0813 14.7513 24.4079 15.164C24.5712 15.3703 25.3877 14.9577 25.0611 14.545Z" fill="#F0D2BB"/>
<path fill-rule="evenodd" clip-rule="evenodd" d="M601.835 14.1323C601.672 13.926 600.855 14.3387 601.182 14.7513C601.345 14.7513 602.162 14.3386 601.835 14.1323Z" fill="#F0D2BB"/>
<path fill-rule="evenodd" clip-rule="evenodd" d="M579.3 14.1323C579.3 13.5133 579.789 13.5133 579.953 13.1006C578.973 13.1006 577.83 13.1006 578.157 14.1323C578.483 14.1323 578.81 14.1323 579.3 14.1323Z" fill="#F0D2BB"/>
<path fill-rule="evenodd" clip-rule="evenodd" d="M533.086 13.1005C533.086 12.8942 532.596 12.4814 532.433 13.1005C532.433 13.3069 532.923 13.7196 533.086 13.1005Z" fill="#F0D2BB"/>
<path fill-rule="evenodd" clip-rule="evenodd" d="M489.158 11.8624C488.668 11.8624 488.342 11.8624 488.015 11.8624C488.015 12.2751 488.015 12.4814 488.015 12.8942C488.342 12.8942 488.832 12.8942 489.158 12.8942C489.158 12.6878 489.158 12.2751 489.158 11.8624Z" fill="#F0D2BB"/>
<path fill-rule="evenodd" clip-rule="evenodd" d="M188.687 13.1005C188.851 13.3069 189.667 12.8942 189.34 12.4815C189.177 12.2751 188.361 12.6878 188.687 13.1005Z" fill="#F0D2BB"/>
<path fill-rule="evenodd" clip-rule="evenodd" d="M51.1889 12.4815C51.1889 12.0688 51.1889 11.8624 51.1889 11.4497C50.5357 11.4497 50.0458 11.4497 49.3926 11.4497C49.3926 12.4815 50.0458 12.6879 51.1889 12.4815Z" fill="#F0D2BB"/>
<path fill-rule="evenodd" clip-rule="evenodd" d="M462.541 10.8307C462.377 10.6243 461.561 11.037 461.887 11.4498C462.051 11.6561 462.704 11.2434 462.541 10.8307Z" fill="#F0D2BB"/>
<path fill-rule="evenodd" clip-rule="evenodd" d="M174.807 10.8307C175.623 10.8307 175.623 11.4497 176.603 11.4497C177.583 10.0053 174.48 9.79899 174.807 10.8307Z" fill="#F0D2BB"/>
<path fill-rule="evenodd" clip-rule="evenodd" d="M413.224 10.8306C413.388 11.037 414.204 10.6243 413.877 10.2116C413.714 10.2116 412.898 10.6243 413.224 10.8306Z" fill="#F0D2BB"/>
<path fill-rule="evenodd" clip-rule="evenodd" d="M359.009 10.418C358.846 9.79892 358.356 10.0053 357.866 10.418C357.866 10.8307 358.846 11.0371 359.009 10.418Z" fill="#F0D2BB"/>
<path fill-rule="evenodd" clip-rule="evenodd" d="M109.65 9.79892C109.161 10.0053 108.507 9.79893 108.507 10.418C108.834 10.2116 109.65 10.418 109.65 9.79892Z" fill="#F0D2BB"/>
<path fill-rule="evenodd" clip-rule="evenodd" d="M64.0899 10.418C64.4165 10.418 64.7431 10.418 64.7431 9.79897C63.7633 9.79897 64.4165 8.35457 63.6 8.14822C62.4569 9.17993 64.0899 9.17993 62.9468 10.2116C63.2734 10.418 63.6 10.418 64.0899 10.418Z" fill="#F0D2BB"/>
<path fill-rule="evenodd" clip-rule="evenodd" d="M394.935 9.18001C394.935 8.56097 393.792 8.56097 393.792 9.18001C394.445 9.18001 394.608 10.0054 394.935 9.18001Z" fill="#F0D2BB"/>
<path fill-rule="evenodd" clip-rule="evenodd" d="M72.5812 9.79898C73.2344 9.79898 73.7243 9.79898 74.3775 9.79898C74.5408 8.56089 74.2142 7.7355 73.2344 7.7355C72.9078 8.35455 72.2546 8.76724 72.5812 9.79898Z" fill="#F0D2BB"/>
<path fill-rule="evenodd" clip-rule="evenodd" d="M406.529 7.73555C404.569 8.14825 404.569 6.70379 403.426 7.73555C403.263 10.2118 406.202 9.18001 406.529 7.73555Z" fill="#F0D2BB"/>
<path fill-rule="evenodd" clip-rule="evenodd" d="M102.955 8.76721C102.955 8.56085 102.465 8.14814 102.302 8.76721C102.302 8.97357 102.792 9.38629 102.955 8.76721Z" fill="#F0D2BB"/>
<path fill-rule="evenodd" clip-rule="evenodd" d="M511.694 7.11646C511.041 7.11646 510.551 7.11646 509.897 7.11646C509.897 7.73549 509.897 8.14818 509.897 8.76721C510.551 8.76721 511.041 8.76721 511.694 8.76721C511.694 8.14818 511.694 7.73549 511.694 7.11646Z" fill="#F0D2BB"/>
<path fill-rule="evenodd" clip-rule="evenodd" d="M413.224 8.76728C413.224 8.35457 413.224 8.14822 413.224 7.73552C412.571 7.73552 412.571 7.32281 412.081 7.11646C412.081 7.94186 411.918 8.97363 413.224 8.76728Z" fill="#F0D2BB"/>
<path fill-rule="evenodd" clip-rule="evenodd" d="M71.9283 7.73555C71.765 7.52921 70.9485 7.94189 71.2751 8.35455C71.4384 8.35455 72.2548 7.94188 71.9283 7.73555Z" fill="#F0D2BB"/>
<path fill-rule="evenodd" clip-rule="evenodd" d="M776.892 7.11643C776.729 6.49735 776.239 6.70371 775.586 7.11643C775.749 7.73552 776.729 7.73552 776.892 7.11643Z" fill="#F0D2BB"/>
<path fill-rule="evenodd" clip-rule="evenodd" d="M795.835 6.0847C795.672 5.87836 794.855 6.29105 795.182 6.70374C795.345 6.70374 796.162 6.29104 795.835 6.0847Z" fill="#F0D2BB"/>
<path fill-rule="evenodd" clip-rule="evenodd" d="M788.486 6.0847C788.323 5.87836 787.507 6.29105 787.833 6.70374C788.16 6.70374 788.813 6.29104 788.486 6.0847Z" fill="#F0D2BB"/>
<path fill-rule="evenodd" clip-rule="evenodd" d="M759.256 6.08478C759.256 5.46573 759.256 4.64034 759.256 4.0213C757.623 3.81495 757.296 4.84669 757.46 6.08478C758.113 6.08478 758.766 6.08478 759.256 6.08478Z" fill="#F0D2BB"/>
<path fill-rule="evenodd" clip-rule="evenodd" d="M152.272 5.46569C152.108 5.25932 151.292 5.67205 151.618 6.08478C151.782 6.08478 152.598 5.87841 152.272 5.46569Z" fill="#F0D2BB"/>
<path fill-rule="evenodd" clip-rule="evenodd" d="M149.169 3.40218C149.169 4.02122 149.169 4.84662 149.169 5.46567C149.822 5.46567 150.312 5.46567 150.965 5.46567C151.129 4.02122 151.292 2.78313 149.169 3.40218Z" fill="#F0D2BB"/>
<path fill-rule="evenodd" clip-rule="evenodd" d="M713.042 2.78323C713.042 3.81497 712.879 4.43401 712.389 4.8467C714.512 5.46574 714.838 2.98958 713.042 2.78323Z" fill="#F0D2BB"/>
<path fill-rule="evenodd" clip-rule="evenodd" d="M341.373 4.43391C341.373 3.81492 340.229 3.81492 340.229 4.43391C340.883 4.43391 341.209 5.25923 341.373 4.43391Z" fill="#F0D2BB"/>
<path fill-rule="evenodd" clip-rule="evenodd" d="M132.186 4.43406C132.022 4.22772 131.206 4.64041 131.532 5.0531C131.696 5.0531 132.512 4.64041 132.186 4.43406Z" fill="#F0D2BB"/>
<path fill-rule="evenodd" clip-rule="evenodd" d="M45.1469 4.43393C45.1469 4.22759 44.657 3.81491 44.4937 4.43393C44.4937 4.64027 44.9836 5.05294 45.1469 4.43393Z" fill="#F0D2BB"/>
<path fill-rule="evenodd" clip-rule="evenodd" d="M21.4685 3.81492C20.652 3.19587 19.1823 3.19587 19.019 4.43398C19.8355 5.05303 21.3052 5.05303 21.4685 3.81492Z" fill="#F0D2BB"/>
<path fill-rule="evenodd" clip-rule="evenodd" d="M363.255 4.43396C363.744 1.13235 360.478 4.02126 363.255 4.43396V4.43396Z" fill="#F0D2BB"/>
<path fill-rule="evenodd" clip-rule="evenodd" d="M71.2751 3.81487C72.0916 3.81487 72.0917 4.4339 73.0715 4.4339C74.0513 3.19586 71.1118 2.78317 71.2751 3.81487Z" fill="#F0D2BB"/>
<path fill-rule="evenodd" clip-rule="evenodd" d="M610.98 3.40224C610.816 3.19586 610 3.60863 610.326 4.02139C610.49 4.02139 611.143 3.60863 610.98 3.40224Z" fill="#F0D2BB"/>
<path fill-rule="evenodd" clip-rule="evenodd" d="M525.737 3.81491C525.901 2.57686 525.574 1.7515 524.594 1.7515C524.431 2.37052 523.778 2.7832 523.941 3.81491C524.594 3.81491 525.084 3.81491 525.737 3.81491Z" fill="#F0D2BB"/>
<path fill-rule="evenodd" clip-rule="evenodd" d="M254.497 2.78313C255.967 0.925823 252.374 4.02134 254.497 2.78313V2.78313Z" fill="#F0D2BB"/>
<path fill-rule="evenodd" clip-rule="evenodd" d="M188.687 2.78321C188.687 2.3705 188.687 2.16414 188.687 1.75143C188.034 1.75143 188.034 1.33874 187.544 1.13239C187.544 1.95781 187.381 2.98956 188.687 2.78321Z" fill="#F0D2BB"/>
<path fill-rule="evenodd" clip-rule="evenodd" d="M165.009 2.37054C164.519 2.57689 163.866 2.37055 163.703 2.98959C164.193 2.78325 165.009 2.78324 165.009 2.37054Z" fill="#F0D2BB"/>
<path fill-rule="evenodd" clip-rule="evenodd" d="M349.374 1.75148C349.211 1.54513 348.394 1.95783 348.721 2.37051C348.884 2.37051 349.701 1.95782 349.374 1.75148Z" fill="#F0D2BB"/>
<path fill-rule="evenodd" clip-rule="evenodd" d="M67.0293 1.75148C66.866 1.54513 66.0496 1.95783 66.3762 2.37051C66.7028 2.37051 67.3559 1.95782 67.0293 1.75148Z" fill="#F0D2BB"/>
<path fill-rule="evenodd" clip-rule="evenodd" d="M613.266 0.719696C612.776 0.719696 612.45 0.719696 612.123 0.719696C612.123 1.13239 612.123 1.33874 612.123 1.75143C612.45 1.75143 612.94 1.75143 613.266 1.75143C613.266 1.33874 613.266 0.926044 613.266 0.719696Z" fill="#F0D2BB"/>
<path fill-rule="evenodd" clip-rule="evenodd" d="M275.073 0.100647C274.746 0.100647 274.256 0.100647 273.93 0.100647C273.93 0.513342 273.93 0.71969 273.93 1.13239C274.256 1.13239 274.746 1.13239 275.073 1.13239C275.073 0.926038 275.073 0.513342 275.073 0.100647Z" fill="#F0D2BB"/>
<path fill-rule="evenodd" clip-rule="evenodd" d="M179.543 0.720473C180.359 0.720473 180.359 1.33951 181.339 1.33951C182.319 -0.104893 179.379 -0.311242 179.543 0.720473Z" fill="#F0D2BB"/>
<path fill-rule="evenodd" clip-rule="evenodd" d="M273.276 0.100703C273.113 -0.105677 272.297 0.307058 272.623 0.719818C272.787 0.719818 273.603 0.307083 273.276 0.100703Z" fill="#F0D2BB"/>
<path fill-rule="evenodd" clip-rule="evenodd" d="M192.933 0.100647C192.443 0.306995 191.79 0.100622 191.79 0.719666C192.28 0.513318 192.933 0.719691 192.933 0.100647Z" fill="#F0D2BB"/>
<path fill-rule="evenodd" clip-rule="evenodd" d="M179.542 134.639C183.462 134.226 179.542 131.338 178.889 132.988C179.706 132.988 179.706 133.814 179.542 134.639Z" fill="#F0D2BB"/>
<path fill-rule="evenodd" clip-rule="evenodd" d="M773.3 76.4492C773.136 75.0048 771.667 74.5921 770.197 74.3858C770.523 75.6239 772.156 75.8302 773.3 76.4492Z" fill="#F0D2BB"/>
<path fill-rule="evenodd" clip-rule="evenodd" d="M799.428 32.2909C801.224 32.7035 802.041 29.6083 801.224 29.6083C800.734 30.6401 798.775 30.4338 799.428 32.2909Z" fill="#F0D2BB"/>
<path fill-rule="evenodd" clip-rule="evenodd" d="M70.1321 17.2275C70.4587 16.4021 70.9486 17.4338 71.9284 17.2275C71.9284 16.6084 71.9284 16.1957 71.9284 15.5767C70.7853 15.3703 68.8257 17.2275 70.1321 17.2275Z" fill="#F0D2BB"/>
<path fill-rule="evenodd" clip-rule="evenodd" d="M69.4786 4.43389C68.3356 4.43389 68.6622 2.98947 67.0292 3.40216C66.5393 4.64023 69.8052 5.05292 69.4786 4.43389Z" fill="#F0D2BB"/>
</svg>
8 32.2909Z" fill="#F0D2BB"/>
<path fill-rule="evenodd" clip-rule="evenodd" d="M70.1321 17.2275C70.4587 16.4021 70.9486 17.4338 71.9284 17.2275C71.9284 16.6084 71.9284 16.1957 71.9284 15.5767C70.7853 15.3703 68.8257 17.2275 70.1321 17.2275Z" fill="#F0D2BB"/>
<path fill-rule="evenodd" clip-rule="evenodd" d="M69.4786 4.43389C68.3356 4.43389 68.6622 2.98947 67.0292 3.40216C66.5393 4.64023 69.8052 5.05292 69.4786 4.43389Z" fill="#F0D2BB"/>
</svg>
