<svg width="485" height="487" viewBox="0 0 485 487" fill="none" xmlns="http://www.w3.org/2000/svg">
<g opacity="0.25">
<path opacity="0.25" d="M238 476C369.444 476 476 369.444 476 238C476 106.556 369.444 0 238 0C106.556 0 0 106.556 0 238C0 369.444 106.556 476 238 476Z" fill="#F0F0F0"/>
</g>
<g opacity="0.25">
<path opacity="0.25" d="M237 441.952C349.639 441.952 440.952 350.64 440.952 238.001C440.952 125.361 349.639 34.0488 237 34.0488C124.361 34.0488 33.0483 125.361 33.0483 238.001C33.0483 350.64 124.361 441.952 237 441.952Z" fill="#F0F0F0"/>
</g>
<g filter="url(#filter0_d)">
<path d="M79.611 466.98H45.9009C43.0824 466.98 40.7148 464.613 40.7148 461.794V459.539C40.7148 456.721 43.0824 454.353 45.9009 454.353H79.611C82.4296 454.353 84.7972 456.721 84.7972 459.539V461.794C84.7972 464.613 82.4296 466.98 79.611 466.98Z" fill="#F0F0F0"/>
</g>
<g filter="url(#filter1_d)">
<path d="M465.77 43.4065H432.06C429.241 43.4065 426.874 41.0389 426.874 38.2203V35.9655C426.874 33.1469 429.241 30.7793 432.06 30.7793H465.77C468.588 30.7793 470.956 33.1469 470.956 35.9655V38.2203C470.956 41.1516 468.588 43.4065 465.77 43.4065Z" fill="#F0F0F0"/>
</g>
<g filter="url(#filter2_d)">
<path d="M75.3268 6.98975C58.6409 6.98975 45.1118 20.5189 45.1118 37.2048C45.1118 53.8907 58.6409 67.4199 75.3268 67.4199C92.0127 67.4199 105.542 53.8907 105.542 37.2048C105.542 20.5189 92.0127 6.98975 75.3268 6.98975ZM75.3268 54.9054C65.8564 54.9054 58.0772 47.2389 58.0772 37.6558C58.0772 28.0726 65.7437 20.4061 75.3268 20.4061C84.9099 20.4061 92.5765 28.0726 92.5765 37.6558C92.5765 47.2389 84.7972 54.9054 75.3268 54.9054Z" fill="#FFDD5C"/>
</g>
<path d="M237 417.148C335.941 417.148 416.148 336.941 416.148 238C416.148 139.059 335.941 58.8516 237 58.8516C138.059 58.8516 57.8517 139.059 57.8517 238C57.8517 336.941 138.059 417.148 237 417.148Z" fill="#F0F0F0"/>
<path d="M165.07 132.811C165.07 132.811 156.84 122.213 146.017 123.904L141.507 129.879C141.507 129.879 157.404 126.384 165.07 132.811Z" fill="#FA5C43"/>
<path d="M330.14 212.971C330.14 212.971 327.209 199.893 316.724 196.736L310.072 200.231C309.959 200.231 325.856 203.839 330.14 212.971Z" fill="#FA5C43"/>
<g filter="url(#filter3_d)">
<path d="M393.953 222.104C393.953 222.104 403.085 268.666 440.177 280.617L464.079 268.779C464.079 268.892 408.158 254.461 393.953 222.104Z" fill="#39A798"/>
</g>
<path d="M121.439 232.475C121.439 232.475 108.924 227.74 100.469 234.842L99.7921 242.283C99.7921 242.283 111.63 231.009 121.439 232.475Z" fill="#4CDFCB"/>
<path d="M369.262 277.235C369.262 277.235 370.615 286.593 377.943 289.298L382.791 287.156C382.678 287.269 371.742 283.887 369.262 277.235Z" fill="#4CDFCB"/>
<path d="M367.571 170.016C367.571 170.016 373.659 177.231 381.325 175.653L384.257 171.256C384.37 171.369 373.208 174.3 367.571 170.016Z" fill="#4CDFCB"/>
<path d="M166.31 280.053C166.31 280.053 160.786 271.147 152.217 271.485L148.159 275.769C148.159 275.656 160.899 274.416 166.31 280.053Z" fill="#F54363"/>
<path d="M207.702 96.6206C207.702 96.6206 216.27 102.596 224.049 98.7627L225.966 93.2383C226.079 93.2383 214.917 99.5519 207.702 96.6206Z" fill="#F54363"/>
<path d="M105.655 306.096C105.655 306.096 112.757 305.533 115.125 300.234L113.772 296.513C113.885 296.513 110.728 304.631 105.655 306.096Z" fill="#FFDD5D"/>
<path d="M191.903 153.894C191.903 153.894 203.064 153.104 207.01 144.649L204.868 138.673C204.868 138.673 199.908 151.413 191.903 153.894Z" fill="#FFDD5D"/>
<g filter="url(#filter4_d)">
<path d="M97.3117 208.01C97.3117 208.01 65.631 167.197 23.578 173.736L6.32831 196.961C6.32831 196.961 67.6604 183.432 97.3117 208.01Z" fill="#E83F50"/>
</g>
<g filter="url(#filter5_d)">
<path d="M299.361 84.2192C299.361 84.2192 338.032 105.528 368.698 86.2485L374.561 62.1216C374.561 62.1216 330.929 93.4641 299.361 84.2192Z" fill="#E83F50"/>
</g>
<mask id="mask0" mask-type="alpha" maskUnits="userSpaceOnUse" x="58" y="58" width="360" height="360">
<path d="M238 417.148C336.941 417.148 417.148 336.941 417.148 238C417.148 139.059 336.941 58.8516 238 58.8516C139.059 58.8516 58.8517 139.059 58.8517 238C58.8517 336.941 139.059 417.148 238 417.148Z" fill="#F0F0F0"/>
</mask>
<g mask="url(#mask0)">
<path fill-rule="evenodd" clip-rule="evenodd" d="M297.659 419.237L297.689 419.151H297.746C297.746 419.151 315.189 372.081 315.189 362.117C315.189 352.153 311.821 337.036 311.821 337.036C311.821 337.036 327.019 285.757 324.774 274.676C322.529 263.596 305.345 243.583 305.345 243.583L305.274 243.604L305.258 243.583L302.99 244.298L302.236 244.527L302.242 244.534L273.395 253.632C273.395 253.632 248.612 393.984 240.15 418.55H240.711C240.696 418.579 240.682 418.608 240.668 418.636H244.122C244.122 418.636 268.905 370.363 270.027 362.203C270.668 357.544 270.746 351.428 270.808 346.606C270.854 342.984 270.891 340.092 271.15 339.097C271.668 337.122 288.938 301.218 294.637 290.825C294.519 290.439 294.401 290.09 294.283 289.778C298.546 289.172 300.423 337.208 300.423 337.208C300.423 337.208 298.782 399.31 293.169 419.237H297.659Z" fill="#474D87"/>
<path d="M232.465 189.126C232.983 188.611 233.328 188.525 233.587 188.782C233.846 189.04 233.933 189.469 233.415 189.985C232.896 190.5 232.292 190.758 232.033 190.586C231.774 190.328 231.947 189.727 232.465 189.126Z" fill="#FFBD95"/>
<path d="M231.256 188.353C231.687 187.751 232.033 187.751 232.292 187.923C232.551 188.181 232.637 188.524 232.292 189.126C231.86 189.727 231.256 189.985 230.997 189.813C230.738 189.641 230.824 188.954 231.256 188.353Z" fill="#FFBD95"/>
<path d="M229.874 188.009C232.81 189.212 237.3 191.016 236.609 192.562C235.919 194.108 228.924 189.985 228.924 189.985L229.874 188.009Z" fill="#937D79"/>
<path d="M298.35 212.747C302.15 195.911 315.966 192.733 310.785 180.021C305.69 167.223 304.826 166.106 305.863 162.069C306.985 158.032 318.211 137.159 303.186 127.883C288.334 118.606 282.116 125.993 282.116 125.993C282.116 125.993 278.231 118.52 270.459 122.214C262.687 125.907 260.615 146.78 266.228 156.486C271.927 166.106 268.991 181.481 270.114 191.101C271.236 200.635 298.35 212.747 298.35 212.747Z" fill="#1E1029"/>
<path d="M216.317 153.823C213.122 153.995 206.559 156.057 210.618 174.61C214.676 193.077 218.303 180.451 218.303 180.451C218.303 180.451 224.175 153.394 216.317 153.823Z" fill="#913C30"/>
<path d="M216.144 153.393C218.648 153.221 219.771 155.97 220.116 159.749C219.512 158.031 218.476 157 216.921 157.086C213.986 157.258 208.027 159.062 210.531 174.351C210.531 174.265 210.531 174.179 210.445 174.093C206.387 155.626 213.036 153.565 216.144 153.393Z" fill="#1E1029"/>
<path d="M229.96 168.512C236.523 171.088 240.322 171.432 242.05 170.487C242.136 170.917 242.05 171.26 241.877 171.604C240.927 173.665 237.387 173.923 229.615 170.487C222.707 167.395 211.568 161.039 212.259 159.407C215.367 161.812 224.175 166.192 229.96 168.512Z" fill="#F9AD8F"/>
<path d="M218.13 159.836C216.835 159.062 215.885 155.97 214.676 155.541C213.467 155.197 214.158 156.743 213.726 156.486C213.295 156.142 212.517 155.369 211.395 155.97C210.272 156.572 209.927 160.609 211.136 161.468C212.345 162.326 218.821 163.529 218.821 163.529L218.13 159.836Z" fill="#F9AD8F"/>
<path fill-rule="evenodd" clip-rule="evenodd" d="M233.069 163.718C226.247 161.055 213.381 157.447 212.345 158.993C211.222 160.539 222.793 166.982 229.615 170.074C232.202 171.185 234.308 171.878 235.999 172.231C240.404 177.627 264.414 184.745 264.414 184.745L265.019 177.272C260.587 175.366 248.886 170.402 241.555 169.115C240.756 167.56 238.157 165.742 233.069 163.718Z" fill="#FFBD95"/>
<path d="M235.487 169.885C236.35 170.487 237.387 171.002 238.509 171.431C242.05 172.72 245.417 172.634 245.935 171.088C246.022 170.744 246.022 170.401 245.849 170.057C252.843 172.033 261.392 175.64 265.019 177.186L264.414 184.659C264.414 184.659 233.069 175.726 235.055 170.401C235.055 170.315 235.487 169.971 235.487 169.885Z" fill="#F9AD8F"/>
<path d="M273.222 177.788L248.008 169.628L245.504 187.408L268.646 190.844L273.222 177.788Z" fill="#F2ECD3"/>
<path d="M272.963 179.763L268.646 190.843L245.504 187.407L246.972 177.014C258.024 185.002 264.932 180.02 272.963 179.763Z" fill="#E5D7B5"/>
<path d="M160.966 346.14H128.671V315.991H132.816V342.103H160.966V346.14Z" fill="#DDBABA"/>
<path d="M130.916 329.219L128.671 326.728V315.991H132.816V342.103H160.966V346.14H130.916V329.219Z" fill="#CC9F9F"/>
<path d="M176.337 346.14H144.041V315.991H148.186V342.103H176.337V346.14Z" fill="#DDBABA"/>
<path d="M146.287 329.219L144.041 326.728V315.991H148.186V342.103H176.337V346.14H146.287V329.219Z" fill="#CC9F9F"/>
<path d="M114.164 310.151C114.164 306.457 117.186 303.365 120.986 303.365H169.083L177.891 323.722H120.122C116.841 323.722 114.164 321.059 114.164 317.796V310.151Z" fill="#8E5955"/>
<path d="M129.707 308.948C140.156 308.948 148.618 306.543 148.618 303.623C148.618 303.537 148.618 303.451 148.532 303.365H169.083L177.891 323.722H120.122C116.841 323.722 114.164 321.059 114.164 317.796V310.151C114.164 309.034 114.51 307.918 114.941 307.059C118.482 308.175 123.749 308.948 129.707 308.948Z" fill="#7C4543"/>
<path d="M121.418 303.365C124.699 303.365 127.462 306.028 127.462 309.378V316.335C127.462 320.458 124.094 323.722 120.036 323.722C116.236 323.722 113.128 320.63 113.128 316.851V311.697C113.041 307.145 116.841 303.365 121.418 303.365Z" fill="#A06B65"/>
<path d="M178.754 220.992C179.704 215.065 184.885 210.599 190.93 210.599H260.788L234.71 342.618H159.326L178.754 220.992Z" fill="#B2867F"/>
<path d="M172.883 257.927C180.913 259.989 192.657 252.344 200.601 239.288C206.991 228.809 209.15 217.814 206.991 210.685H260.788L234.71 342.705H159.326L172.883 257.927Z" fill="#A06460"/>
<path d="M240.754 268.321C237.646 260.247 229.529 236.196 230.133 233.104C230.824 230.012 251.807 217.557 251.807 217.557L240.754 268.321Z" fill="#B2867F"/>
<path fill-rule="evenodd" clip-rule="evenodd" d="M186.094 355.676L186.094 355.675H180.05H174.61L174.61 355.676H128.153L175.29 365.272L178.544 411.18L149.05 421.04H180.568H211.74L182.162 411.152L185.431 365.033L227.111 355.676H186.094Z" fill="#1E1029"/>
<path d="M180.05 366.24L168.047 355.675H128.153L180.05 366.24Z" fill="#5A4B67"/>
<path d="M166.234 308.777C163.211 306.801 137.047 304.654 137.824 296.923C138.256 292.285 173.919 300.703 176.25 307.145C177.891 311.268 166.234 308.777 166.234 308.777Z" fill="#472F2B"/>
<path d="M214.417 336.864H122.022C122.022 336.864 119.172 320.286 128.067 314.446C133.42 310.924 210.186 302.506 213.295 304.138C218.735 306.973 225.47 322.262 214.417 336.864Z" fill="#FC8E0A"/>
<path d="M150.086 317.022C175.646 324.581 188.339 321.231 188.339 317.452C188.339 314.617 174.005 309.549 162.521 308.433C185.403 305.598 211.568 303.193 213.381 304.138C218.735 306.973 225.47 322.262 214.417 336.864H122.022C122.022 336.864 120.209 326.385 124.008 319.084C129.966 320.716 140.156 314.102 150.086 317.022Z" fill="#D96800"/>
<path d="M127.98 316.851C132.039 314.017 148.359 315.649 151.986 317.796C159.412 322.091 158.462 333.687 158.462 338.411L122.54 338.239C122.367 323.551 123.576 319.858 127.98 316.851Z" fill="#E27E33"/>
<path d="M146.114 332.827L158.807 334.717C158.807 334.717 159.93 324.753 153.626 318.998C153.626 318.998 141.537 315.391 139.983 318.998C138.342 322.52 146.114 332.827 146.114 332.827Z" fill="#F9AD8F"/>
<path d="M133.42 330.508L146.114 333.601C146.114 333.601 148.704 323.808 141.883 318.569C141.883 318.569 129.016 317.109 127.807 320.802C126.599 324.41 133.42 330.508 133.42 330.508Z" fill="#F9AD8F"/>
<path d="M193.952 336.778H223.225L249.562 220.305C250.857 214.722 255.866 210.685 261.565 210.685L233.846 355.933H185.749V344.766C185.835 340.386 189.462 336.778 193.952 336.778Z" fill="#874A48"/>
<path d="M237.473 292.199C239.286 289.192 242.136 279.916 238.509 273.13C236.35 269.093 209.15 291.082 209.582 297.868C209.841 302.42 237.473 292.199 237.473 292.199Z" fill="#472F2B"/>
<path d="M217.699 308.004L213.64 269.266L188.858 265.744L179.532 304.483C179.532 304.483 205.351 311.354 217.699 308.004Z" fill="#D96800"/>
<path d="M139.551 344.767C139.551 340.3 142.66 336.693 146.459 336.693H223.052L235.66 345.111L234.451 355.847H139.551V344.767Z" fill="#7C4543"/>
<path d="M130.571 336.779H188.858L185.922 355.933H122.54V344.767C122.54 340.386 126.081 336.779 130.571 336.779Z" fill="#A06B65"/>
<path d="M146.287 337.981H159.412L164.334 355.933H151.122L146.287 337.981Z" fill="#874A48"/>
<path d="M130.398 337.981H143.61L144.387 355.933H131.175L130.398 337.981Z" fill="#874A48"/>
<path d="M125.476 338.497C126.944 337.38 128.757 336.693 130.83 336.693H191.88L191.621 338.497H125.476Z" fill="#7C4543"/>
<path d="M241.272 298.727C244.985 297.868 236.523 272.615 228.147 254.835L221.93 265.486C221.93 265.486 227.888 301.819 241.272 298.727Z" fill="#FCA13E"/>
<path d="M240.668 294.69C239.632 290.395 236.869 287.389 234.537 287.904C232.724 288.334 231.687 290.739 231.774 293.831C224.952 284.469 221.844 265.486 221.844 265.486L228.061 254.835C236.437 272.615 244.899 297.868 241.186 298.727C241.1 298.727 241.013 298.727 240.927 298.727C241.186 297.525 241.013 296.15 240.668 294.69Z" fill="#FC8E0A"/>
<path d="M244.295 292.113C249.303 296.408 246.453 301.304 244.295 304.654C234.451 307.317 229.615 298.04 229.701 295.291C229.874 291.941 239.286 287.819 244.295 292.113Z" fill="#FC8E0A"/>
<path d="M236.091 295.034C239.718 295.034 242.654 293.573 242.654 291.77C242.654 291.512 242.568 291.168 242.395 290.911C243.086 291.168 243.69 291.598 244.295 292.027C249.303 296.322 246.453 301.218 244.295 304.568C234.451 307.231 229.615 297.954 229.701 295.205C229.701 294.604 230.047 294.089 230.479 293.487C231.687 294.432 233.76 295.034 236.091 295.034Z" fill="#D96800"/>
<path d="M208.027 310.322C208.027 306.543 211.136 303.451 214.935 303.451H245.59C249.217 303.451 252.498 305.34 254.311 308.433C256.125 311.525 256.125 315.304 254.398 318.482C252.498 321.746 249.044 323.808 245.245 323.808H214.417C210.877 323.808 208.027 320.973 208.027 317.451V310.322Z" fill="#8E5955"/>
<path d="M212.518 303.193C212.518 302.248 218.562 302.764 226.075 302.764C233.587 302.764 239.632 302.248 239.632 303.193C239.632 304.138 233.587 306.114 226.075 306.114C218.562 306.028 212.518 304.052 212.518 303.193Z" fill="#7C4543"/>
<path d="M226.506 311.697C238.768 311.697 248.958 308.604 250.598 304.653C252.153 305.512 253.448 306.801 254.398 308.347C256.211 311.439 256.211 315.218 254.484 318.396C252.584 321.66 249.13 323.722 245.331 323.722H214.504C210.963 323.722 208.114 320.887 208.114 317.366V310.322C208.114 309.893 208.2 309.378 208.286 308.948C212.604 310.666 219.167 311.697 226.506 311.697Z" fill="#7C4543"/>
<path d="M217.44 303.365C220.203 303.365 222.362 305.598 222.362 308.261V318.139C222.362 321.231 219.857 323.636 216.835 323.636H213.036C210.273 323.636 208.114 321.403 208.114 318.74V309.034C208.114 305.856 210.704 303.365 213.813 303.365H217.44Z" fill="#A06B65"/>
<path d="M316.052 257.756C316.052 257.756 297.141 262.394 270.2 269.008C270.2 269.008 277.281 234.822 260.097 208.453C260.097 208.453 264.846 175.383 268.559 176.328C272.272 177.273 297.746 185.519 298.868 189.04C301.027 195.74 292.996 219.361 295.846 227.006C299.214 236.282 309.662 244.528 316.052 257.756Z" fill="#F2ECD3"/>
<path d="M290.665 184.917L281.08 188.439L278.662 183.285L274.776 183.113L274.863 178.732L282.116 179.763L290.665 184.917Z" fill="#E5D7B5"/>
<path d="M260.097 208.537C260.097 208.537 260.097 208.452 260.097 208.28C265.882 208.537 277.712 208.967 282.548 208.452C287.643 207.936 293.774 196.684 298.523 188.696C298.609 188.868 298.696 188.953 298.782 189.125C300.941 195.825 292.91 219.446 295.76 227.091C299.127 236.281 309.576 244.613 315.966 257.841C315.966 257.841 312.598 258.614 306.813 260.074C291.01 264.025 271.841 268.664 270.2 269.093C270.2 269.093 277.281 234.907 260.097 208.537Z" fill="#E5D7B5"/>
<path d="M269.336 176.499C269.336 176.499 257.938 188.696 257.334 209.139L259.492 209.053C259.665 206.562 261.565 188.782 271.236 177.1L269.336 176.499Z" fill="#FC8E0A"/>
<path d="M291.269 184.401C291.269 184.401 273.74 191.616 273.395 207.936L275.554 207.85C276.158 206.046 275.813 193.677 293.428 185.432L291.269 184.401Z" fill="#FC8E0A"/>
<path fill-rule="evenodd" clip-rule="evenodd" d="M259.233 326.3C258.543 325.526 258.283 324.496 258.456 323.465C261.187 306.133 263.713 292.48 265.727 281.597C269.251 262.547 271.205 251.986 269.941 245.043C268.127 235.165 256.988 208.71 256.988 208.71L274.517 206.734C274.517 206.734 282.289 229.926 292.392 248.565C300.595 263.597 299.645 306.2 299.041 321.919C298.868 325.612 295.932 328.447 292.306 328.619C283.412 328.876 268.818 328.103 261.824 327.674C260.788 327.588 259.838 327.073 259.233 326.3Z" fill="#FC8E0A"/>
<path opacity="0.5" d="M271.236 323.98C275.122 300.187 286.866 268.578 295.587 257.412C294.724 253.89 293.687 250.884 292.392 248.479C292.219 248.221 292.133 247.963 291.96 247.791C285.657 243.754 277.712 236.539 270.114 227.52C264.587 220.992 260.097 214.464 256.902 208.709C256.988 208.881 268.041 235.165 269.855 245.043C271.841 255.951 265.882 275.793 258.37 323.379C258.197 324.409 258.456 325.44 259.147 326.213C259.752 326.986 260.701 327.502 261.738 327.588C263.983 327.759 267.091 327.931 270.545 328.103C270.804 326.814 270.977 325.44 271.236 323.98Z" fill="#BC5642"/>
<path fill-rule="evenodd" clip-rule="evenodd" d="M232.033 194.795C233.846 197.802 263.206 228.724 266.487 227.607C266.572 227.578 266.655 227.547 266.736 227.516C271.157 226.602 289.629 200.894 289.629 200.894L284.966 194.795C284.512 195.347 283.91 196.062 283.199 196.906C278.902 202.008 270.624 211.836 266.909 219.104C258.71 208.813 233.156 193.679 233.156 193.679L232.033 194.795Z" fill="#FFBD95"/>
<path d="M272.013 219.36C274.086 216.44 274.517 213.176 272.877 212.059C272.531 211.802 272.1 211.716 271.581 211.716C276.503 204.844 282.634 197.715 284.966 194.88L289.629 200.979C289.629 200.979 270.113 229.668 266.141 227.52C265.191 227.005 264.846 226.146 264.932 224.943C267.178 224.17 270.459 221.508 272.013 219.36Z" fill="#F9AD8F"/>
<path d="M291.96 187.236C287.211 188.267 273.222 208.023 273.222 208.023L290.924 214.551C290.924 214.551 300.077 198.231 300.25 193.592C300.509 188.868 296.796 186.291 291.96 187.236Z" fill="#F2ECD3"/>
<path d="M292.133 187.665C287.815 188.696 276.417 205.188 274.258 208.366L273.222 208.022C273.222 208.022 287.211 188.266 291.96 187.236C295.069 186.548 297.746 187.493 299.214 189.469C297.746 187.751 295.069 186.978 292.133 187.665Z" fill="#F4EFD9"/>
<path d="M292.824 201.837C296.019 198.23 298.523 194.451 299.991 191.187C300.25 191.874 300.336 192.733 300.25 193.592C300.077 198.23 290.924 214.55 290.924 214.55L281.425 211.028C284.966 209.31 289.111 206.046 292.824 201.837Z" fill="#EDE0C3"/>
<path d="M294.292 165.677C294.378 166.364 288.765 182.77 288.765 182.77L279.958 184.058L277.281 180.279L282.375 164.045L294.292 165.677Z" fill="#F6A676"/>
<path d="M278.403 182.511L279.439 179.849H276.935L278.403 182.511Z" fill="#F2ECD3"/>
<path d="M282.893 183.628L280.648 180.192L279.957 184.229L282.893 183.628Z" fill="#F2ECD3"/>
<path d="M281.425 186.377L280.648 180.192L290.233 180.536L290.32 184.058L281.425 186.377Z" fill="#FFFCE6"/>
<path d="M197.838 186.204C210.359 173.32 213.726 160.865 212.69 156.742C211.654 152.963 220.807 150.816 221.584 159.319C222.102 164.129 219.426 178.56 228.838 196.254C236.35 210.426 221.93 231.814 212.345 234.219L191.275 217.384C186.44 205.015 192.139 192.045 197.838 186.204Z" fill="#1E1029"/>
<path d="M216.317 179.162C216.317 173.149 221.153 162.67 221.239 157.603C221.412 158.118 221.498 158.719 221.584 159.32C222.102 164.131 220.635 178.561 230.047 196.341C237.559 210.514 222.016 231.901 212.345 234.306L191.275 217.471C190.325 214.98 189.807 212.489 189.548 209.998C228.147 225.116 216.317 188.868 216.317 179.162Z" fill="black"/>
<path d="M161.052 302.678L122.54 303.795L121.245 301.733C121.245 301.733 150.949 294.003 155.353 294.862C159.757 295.635 166.579 300.015 161.052 302.678Z" fill="#FFBD95"/>
<path fill-rule="evenodd" clip-rule="evenodd" d="M216.835 226.06L212.863 242.895L200.947 243.067L201.348 241.822C201.106 241.448 201.189 240.928 201.724 240.234C201.793 240.143 201.867 240.056 201.944 239.971L205.264 229.668L216.835 226.06Z" fill="#F6A676"/>
<path d="M144.041 301.82C145.941 301.562 141.451 299.157 138.601 297.525C145.941 295.893 153.367 294.433 155.44 294.776C159.844 295.549 167.27 301.046 161.83 303.709H122.54L122.022 302.85C128.671 302.678 142.314 302.077 144.041 301.82Z" fill="#F9AD8F"/>
<path d="M138.17 296.323C151.899 296.237 169.083 310.152 183.763 311.268C205.523 312.9 237.559 276.223 240.064 277.769C240.15 271.327 225.125 245.903 221.066 241.866C217.526 238.344 189.462 240.835 187.303 243.412C185.144 245.817 144.214 293.059 138.17 296.323Z" fill="#474D87"/>
<path d="M238.854 303.623H205.782L205.005 301.475C205.005 301.475 233.587 291.082 238.595 291.941C243.431 292.886 244.985 300.616 238.854 303.623Z" fill="#FFBD95"/>
<path d="M221.239 301.304C235.4 300.445 238.336 296.924 237.991 294.605C237.818 293.66 235.573 293.058 232.033 292.887C234.969 292.2 237.3 291.77 238.423 292.028C243.345 292.887 244.899 300.703 238.768 303.709H205.696L205.264 302.593C210.618 302.077 216.317 301.648 221.239 301.304Z" fill="#F9AD8F"/>
<path d="M135.665 327.33C136.615 323.722 138.515 316.937 143.092 317.624C147.668 318.311 151.381 342.19 151.381 346.914C151.381 356.963 146.977 383.419 142.66 410.819C142.573 411.335 139.983 411.163 139.983 410.132C140.501 382.13 134.802 330.851 135.665 327.33Z" fill="#FFBD95"/>
<path d="M147.668 348.975C147.668 345.11 146.977 325.268 143.61 317.795C148.186 319.256 152.331 342.877 152.331 347.515C152.331 357.565 146.977 383.505 142.66 410.905C142.574 411.42 141.796 409.874 141.796 409.874C146.114 383.247 147.755 358.767 147.668 348.975Z" fill="#F9AD8F"/>
<path d="M122.885 327.76C124.526 324.324 127.721 317.796 132.125 319.342C136.529 320.888 133.507 352.068 132.557 356.878C130.571 367.099 123.749 390.978 117.877 410.991C117.704 411.678 115.977 411.592 116.064 410.819C120.381 382.045 121.245 331.195 122.885 327.76Z" fill="#FFBD95"/>
<path d="M128.93 355.675C129.621 351.295 133.766 325.183 131.262 319.084C131.521 319.084 132.125 318.655 132.384 318.741C136.788 320.287 134.716 352.326 133.766 357.136C131.78 367.357 123.749 390.892 117.877 410.906C117.877 411.077 117.705 411.163 117.618 411.249C122.972 391.064 127.289 365.897 128.93 355.675Z" fill="#F9AD8F"/>
<path d="M226.247 420.869H244.122C244.122 420.869 245.676 416.832 242.913 415.715C240.15 414.513 227.456 419.237 226.247 420.869Z" fill="#1E1029"/>
<path d="M289.283 421.127H301.459C301.459 421.127 299.818 415.544 297.573 414.341C295.242 413.225 290.233 419.495 289.283 421.127Z" fill="#1E1029"/>
<path d="M109.587 421.47C114.682 420.354 119.691 414.083 120.209 410.132C120.727 406.181 119.259 403.518 117.359 404.635C112.351 407.555 109.587 421.47 109.587 421.47Z" fill="#1E1029"/>
<path d="M132.384 423.617C137.651 421.642 144.128 414.341 144.646 410.304C145.164 406.267 142.228 404.291 140.328 405.666C135.147 409.445 132.384 423.617 132.384 423.617Z" fill="#1E1029"/>
<path fill-rule="evenodd" clip-rule="evenodd" d="M222.534 284.554C216.317 293.144 199.565 313.673 178.841 308.691C175.246 307.806 171.93 306.742 168.842 305.593C177.858 296.832 180.462 275.522 178.495 274.247C177.682 273.695 174.034 277.097 169.314 281.499C163.311 287.097 155.574 294.312 149.733 297.062C146.679 295.692 143.815 294.57 141.019 293.917C139.724 295.119 138.688 295.978 138.083 296.322C145.179 296.278 153.221 299.973 161.35 303.708C168.949 307.201 176.625 310.728 183.677 311.268C198.872 312.412 219.202 294.727 230.862 284.585L230.862 284.585C235.833 280.26 239.229 277.307 239.977 277.769C240.15 271.327 228.579 246.503 224.434 242.38C223.225 241.178 215.108 240.147 209.582 240.147C209.981 240.997 210.434 241.947 210.926 242.978L210.926 242.978L210.926 242.978C216.594 254.874 227.461 277.678 222.534 284.554ZM170.724 277.167C174.782 274.762 186.353 263.853 185.749 260.503C185.058 257.067 170.724 277.167 170.724 277.167ZM174.178 306.372C186.526 310.238 197.493 304.74 201.206 301.992C200.853 302.1 200.504 302.208 200.159 302.314C190.956 305.155 184.332 307.2 174.178 306.372Z" fill="#252847"/>
<path d="M186.353 246.417C182.208 250.97 164.852 274.161 164.852 274.161C164.852 274.161 191.621 247.448 191.275 245.644C190.93 243.841 187.994 244.614 186.353 246.417Z" fill="#6E73A4"/>
<path d="M267.178 223.311C267.955 223.054 269.595 221.937 270.027 221.508C271.063 223.913 269.509 227.263 266.746 228.207C263.464 229.324 233.846 197.887 232.119 194.88H232.637C238.164 201.151 264.242 224.342 267.178 223.311Z" fill="#F9AD8F"/>
<path d="M218.648 196.512C222.707 200.034 229.27 203.47 228.32 197.801C227.37 192.217 216.231 177.358 217.267 171.173C213.64 176.413 209.841 188.953 218.648 196.512Z" fill="#1E1029"/>
<path d="M221.153 208.539C220.98 215.41 217.267 230.699 214.504 233.19C211.74 235.681 200.169 240.148 193.348 239.289C193.348 239.289 187.648 228.81 187.562 224.343C187.562 217.128 192.052 208.796 193.261 200.636C193.779 196.943 201.292 191.188 206.991 192.562C212.863 193.765 221.412 200.121 221.153 208.539Z" fill="#FFBD95"/>
<path d="M211.913 228.895C211.74 222.71 216.662 222.71 216.144 214.464C215.281 200.034 197.234 195.825 205.523 189.813C213.813 183.8 227.543 198.402 224.779 211.716C222.016 225.029 211.913 228.895 211.913 228.895Z" fill="#1E1029"/>
<path d="M216.144 214.464C215.54 204.844 207.423 199.776 204.401 195.653C205.782 196.855 207.509 197.886 209.495 198.745C214.59 200.892 221.412 200.463 224.348 198.659C226.161 202.524 226.852 207.678 225.988 211.973C223.225 225.286 211.827 228.808 211.827 228.808C211.74 222.71 216.662 222.71 216.144 214.464Z" fill="black"/>
<path d="M213.726 233.276C217.44 232.675 223.657 228.809 222.707 224.686C221.671 220.563 217.008 223.398 215.367 225.116C213.726 226.748 209.495 233.877 213.726 233.276Z" fill="#FFBD95"/>
<path d="M275.467 178.475L277.971 176.585L279.439 179.849L275.467 182.512V178.475Z" fill="#FFFCE6"/>
<path d="M274.258 205.618L292.996 212.919L291.874 215.496L272.531 208.452L274.258 205.618Z" fill="#FFFCE6"/>
<path d="M250.857 169.885L247.23 188.524L244.467 188.009L247.749 168.854L250.857 169.885Z" fill="#FFFCE6"/>
<path d="M292.306 146.179C294.896 153.824 294.292 166.708 292.046 169.628C289.888 172.549 279.439 179.163 272.79 179.592C272.79 179.592 265.45 170.487 264.328 166.107C262.946 160.438 266.228 154.253 265.278 145.062C264.932 141.369 271.322 133.381 277.194 133.553C283.066 133.724 289.715 138.191 292.306 146.179Z" fill="#FFBD95"/>
<path d="M289.456 168.94C293.515 169.198 299.732 165.505 299.559 161.639C299.473 157.774 294.292 158.29 293.169 159.063C292.219 159.922 285.829 168.769 289.456 168.94Z" fill="#FFBD95"/>
<path d="M206.991 300.874L209.841 301.389C207.423 302.42 207.596 304.911 206.732 305.77C205.61 306.973 200.774 307.917 200.774 306.887C200.688 305.77 203.71 301.046 206.991 300.874Z" fill="#FFBD95"/>
<path d="M202.415 306.371C201.81 307.746 201.724 313.157 200.86 313.243C199.997 313.329 199.565 307.23 201.119 305.598C202.76 304.052 202.415 306.371 202.415 306.371Z" fill="#FFBD95"/>
<path d="M207.164 304.911C206.473 306.199 206.041 311.611 205.264 311.697C204.401 311.783 204.401 305.598 206.041 304.138C207.596 302.592 207.164 304.911 207.164 304.911Z" fill="#FFBD95"/>
<path d="M204.228 306.973C203.71 308.348 204.401 313.759 203.537 314.017C202.674 314.188 201.465 308.176 202.846 306.372C204.228 304.568 204.228 306.973 204.228 306.973Z" fill="#FFBD95"/>
<path d="M125.303 300.874L127.289 302.162C124.612 302.42 124.094 304.825 123.058 305.426C121.59 306.285 116.668 305.77 117.014 304.739C117.359 303.708 122.195 300.101 125.303 300.874Z" fill="#FFBD95"/>
<path d="M120.122 303.537C118.913 304.396 116.237 309.206 115.459 308.862C114.682 308.605 117.273 302.936 119.345 302.248C121.504 301.647 120.122 303.537 120.122 303.537Z" fill="#FFBD95"/>
<path d="M123.749 304.825C122.713 305.856 120.727 310.924 119.863 310.752C119.086 310.58 120.813 304.653 122.799 303.709C124.872 302.678 123.749 304.825 123.749 304.825Z" fill="#FFBD95"/>
<path d="M121.245 305.169C120.036 306.114 117.704 311.01 116.927 310.753C116.064 310.495 118.223 304.74 120.381 303.881C122.54 303.108 121.245 305.169 121.245 305.169Z" fill="#FFBD95"/>
<path d="M128.498 302.248C127.721 302.506 127.203 303.708 126.771 304.997C126.253 306.543 124.699 308.776 124.267 308.347C122.972 307.058 125.735 303.966 123.317 303.451C122.022 303.193 125.131 301.132 126.512 301.217C128.844 301.389 128.498 302.248 128.498 302.248Z" fill="#FFBD95"/>
<path fill-rule="evenodd" clip-rule="evenodd" d="M215.022 155.128C215.181 155.603 214.313 156.224 213.027 156.588C214.085 156.65 214.867 156.951 214.935 157.362C215.022 157.877 213.813 158.307 212.345 158.393C210.877 158.479 210.445 158.221 210.359 157.706C210.301 157.362 210.474 157.019 211.03 156.802C210.808 156.732 210.69 156.597 210.618 156.417C210.445 155.901 210.704 155.3 212.172 154.957C213.554 154.527 214.849 154.613 215.022 155.128ZM211.913 160.54C213.381 160.712 214.676 160.454 214.676 159.939C214.676 159.424 213.554 158.908 212.086 158.736C210.618 158.565 210.1 158.994 210.1 159.509C210.013 160.025 210.445 160.368 211.913 160.54Z" fill="#FFBD95"/>
<path d="M217.267 179.763L230.738 185.604C230.133 188.439 229.701 189.899 228.061 191.703L214.59 185.862C214.935 182.941 215.453 181.481 217.267 179.763Z" fill="#FFD5C7"/>
<path d="M221.412 188.353C224.52 189.555 227.456 190.07 229.27 189.899C228.924 190.5 228.492 191.101 227.974 191.702L214.504 185.862C214.59 185.346 214.59 184.917 214.676 184.573C216.058 185.862 218.476 187.236 221.412 188.353Z" fill="#E8B5A7"/>
<path d="M223.311 183.543C220.203 182.34 217.353 181.825 215.626 181.911C216.058 181.137 216.576 180.45 217.267 179.763L230.738 185.604C230.565 186.291 230.479 186.892 230.306 187.494C229.011 186.205 226.506 184.745 223.311 183.543Z" fill="#E8B5A7"/>
<path d="M218.13 180.793L229.356 185.689C228.838 188.009 228.493 189.297 227.111 190.843L215.885 185.947C216.144 183.456 216.662 182.168 218.13 180.793Z" fill="#68514B"/>
<path d="M229.874 190.586C230.392 190.157 231.428 191.445 232.205 191.531C233.501 191.789 233.76 188.525 235.141 189.384C235.832 189.813 234.105 193.85 234.71 194.623L234.364 196.427C230.738 194.795 229.27 191.016 229.874 190.586Z" fill="#FFBD95"/>
<path d="M217.181 182.512C217.526 181.739 219.944 181.996 222.448 183.113C224.952 184.23 226.765 185.862 226.334 186.635C225.988 187.408 223.57 187.15 221.066 186.033C218.562 184.917 216.835 183.371 217.181 182.512Z" fill="#9B7A73"/>
</g>
<defs>
<filter id="filter0_d" x="34.7148" y="454.353" width="64.0824" height="32.6272" filterUnits="userSpaceOnUse" color-interpolation-filters="sRGB">
<feFlood flood-opacity="0" result="BackgroundImageFix"/>
<feColorMatrix in="SourceAlpha" type="matrix" values="0 0 0 0 0 0 0 0 0 0 0 0 0 0 0 0 0 0 127 0"/>
<feOffset dx="4" dy="10"/>
<feGaussianBlur stdDeviation="5"/>
<feColorMatrix type="matrix" values="0 0 0 0 0 0 0 0 0 0 0 0 0 0 0 0 0 0 0.12 0"/>
<feBlend mode="normal" in2="BackgroundImageFix" result="effect1_dropShadow"/>
<feBlend mode="normal" in="SourceGraphic" in2="effect1_dropShadow" result="shape"/>
</filter>
<filter id="filter1_d" x="420.874" y="30.7793" width="64.0824" height="32.6272" filterUnits="userSpaceOnUse" color-interpolation-filters="sRGB">
<feFlood flood-opacity="0" result="BackgroundImageFix"/>
<feColorMatrix in="SourceAlpha" type="matrix" values="0 0 0 0 0 0 0 0 0 0 0 0 0 0 0 0 0 0 127 0"/>
<feOffset dx="4" dy="10"/>
<feGaussianBlur stdDeviation="5"/>
<feColorMatrix type="matrix" values="0 0 0 0 0 0 0 0 0 0 0 0 0 0 0 0 0 0 0.12 0"/>
<feBlend mode="normal" in2="BackgroundImageFix" result="effect1_dropShadow"/>
<feBlend mode="normal" in="SourceGraphic" in2="effect1_dropShadow" result="shape"/>
</filter>
<filter id="filter2_d" x="39.1118" y="6.98975" width="80.4301" height="80.4301" filterUnits="userSpaceOnUse" color-interpolation-filters="sRGB">
<feFlood flood-opacity="0" result="BackgroundImageFix"/>
<feColorMatrix in="SourceAlpha" type="matrix" values="0 0 0 0 0 0 0 0 0 0 0 0 0 0 0 0 0 0 127 0"/>
<feOffset dx="4" dy="10"/>
<feGaussianBlur stdDeviation="5"/>
<feColorMatrix type="matrix" values="0 0 0 0 0 0 0 0 0 0 0 0 0 0 0 0 0 0 0.12 0"/>
<feBlend mode="normal" in2="BackgroundImageFix" result="effect1_dropShadow"/>
<feBlend mode="normal" in="SourceGraphic" in2="effect1_dropShadow" result="shape"/>
</filter>
<filter id="filter3_d" x="387.953" y="222.104" width="90.126" height="78.5135" filterUnits="userSpaceOnUse" color-interpolation-filters="sRGB">
<feFlood flood-opacity="0" result="BackgroundImageFix"/>
<feColorMatrix in="SourceAlpha" type="matrix" values="0 0 0 0 0 0 0 0 0 0 0 0 0 0 0 0 0 0 127 0"/>
<feOffset dx="4" dy="10"/>
<feGaussianBlur stdDeviation="5"/>
<feColorMatrix type="matrix" values="0 0 0 0 0 0 0 0 0 0 0 0 0 0 0 0 0 0 0.12 0"/>
<feBlend mode="normal" in2="BackgroundImageFix" result="effect1_dropShadow"/>
<feBlend mode="normal" in="SourceGraphic" in2="effect1_dropShadow" result="shape"/>
</filter>
<filter id="filter4_d" x="0.328308" y="173.027" width="110.983" height="54.9833" filterUnits="userSpaceOnUse" color-interpolation-filters="sRGB">
<feFlood flood-opacity="0" result="BackgroundImageFix"/>
<feColorMatrix in="SourceAlpha" type="matrix" values="0 0 0 0 0 0 0 0 0 0 0 0 0 0 0 0 0 0 127 0"/>
<feOffset dx="4" dy="10"/>
<feGaussianBlur stdDeviation="5"/>
<feColorMatrix type="matrix" values="0 0 0 0 0 0 0 0 0 0 0 0 0 0 0 0 0 0 0.12 0"/>
<feBlend mode="normal" in2="BackgroundImageFix" result="effect1_dropShadow"/>
<feBlend mode="normal" in="SourceGraphic" in2="effect1_dropShadow" result="shape"/>
</filter>
<filter id="filter5_d" x="293.361" y="62.1216" width="95.1995" height="52.1992" filterUnits="userSpaceOnUse" color-interpolation-filters="sRGB">
<feFlood flood-opacity="0" result="BackgroundImageFix"/>
<feColorMatrix in="SourceAlpha" type="matrix" values="0 0 0 0 0 0 0 0 0 0 0 0 0 0 0 0 0 0 127 0"/>
<feOffset dx="4" dy="10"/>
<feGaussianBlur stdDeviation="5"/>
<feColorMatrix type="matrix" values="0 0 0 0 0 0 0 0 0 0 0 0 0 0 0 0 0 0 0.12 0"/>
<feBlend mode="normal" in2="BackgroundImageFix" result="effect1_dropShadow"/>
<feBlend mode="normal" in="SourceGraphic" in2="effect1_dropShadow" result="shape"/>
</filter>
</defs>
</svg>
