<svg width="485" height="487" viewBox="0 0 485 487" fill="none" xmlns="http://www.w3.org/2000/svg">
<g opacity="0.25">
<path opacity="0.25" d="M238 476C369.444 476 476 369.444 476 238C476 106.556 369.444 0 238 0C106.556 0 0 106.556 0 238C0 369.444 106.556 476 238 476Z" fill="#F0F0F0"/>
</g>
<g opacity="0.25">
<path opacity="0.25" d="M237 441.952C349.639 441.952 440.952 350.64 440.952 238.001C440.952 125.361 349.639 34.0488 237 34.0488C124.361 34.0488 33.0483 125.361 33.0483 238.001C33.0483 350.64 124.361 441.952 237 441.952Z" fill="#F0F0F0"/>
</g>
<g filter="url(#filter0_d)">
<path d="M79.611 466.98H45.9009C43.0824 466.98 40.7148 464.613 40.7148 461.794V459.539C40.7148 456.721 43.0824 454.353 45.9009 454.353H79.611C82.4296 454.353 84.7972 456.721 84.7972 459.539V461.794C84.7972 464.613 82.4296 466.98 79.611 466.98Z" fill="#F0F0F0"/>
</g>
<g filter="url(#filter1_d)">
<path d="M465.77 43.4065H432.06C429.241 43.4065 426.874 41.0389 426.874 38.2203V35.9655C426.874 33.1469 429.241 30.7793 432.06 30.7793H465.77C468.588 30.7793 470.956 33.1469 470.956 35.9655V38.2203C470.956 41.1516 468.588 43.4065 465.77 43.4065Z" fill="#F0F0F0"/>
</g>
<g filter="url(#filter2_d)">
<path d="M75.3268 6.98975C58.6409 6.98975 45.1118 20.5189 45.1118 37.2048C45.1118 53.8907 58.6409 67.4199 75.3268 67.4199C92.0127 67.4199 105.542 53.8907 105.542 37.2048C105.542 20.5189 92.0127 6.98975 75.3268 6.98975ZM75.3268 54.9054C65.8564 54.9054 58.0772 47.2389 58.0772 37.6558C58.0772 28.0726 65.7437 20.4061 75.3268 20.4061C84.9099 20.4061 92.5765 28.0726 92.5765 37.6558C92.5765 47.2389 84.7972 54.9054 75.3268 54.9054Z" fill="#FFDD5C"/>
</g>
<path d="M237 417.148C335.941 417.148 416.148 336.941 416.148 238C416.148 139.059 335.941 58.8516 237 58.8516C138.059 58.8516 57.8517 139.059 57.8517 238C57.8517 336.941 138.059 417.148 237 417.148Z" fill="#F0F0F0"/>
<path d="M165.07 132.811C165.07 132.811 156.84 122.213 146.017 123.904L141.507 129.879C141.507 129.879 157.404 126.384 165.07 132.811Z" fill="#FA5C43"/>
<path d="M330.14 212.971C330.14 212.971 327.209 199.893 316.724 196.736L310.072 200.231C309.959 200.231 325.856 203.839 330.14 212.971Z" fill="#FA5C43"/>
<g filter="url(#filter3_d)">
<path d="M393.953 222.104C393.953 222.104 403.085 268.666 440.177 280.617L464.079 268.779C464.079 268.892 408.158 254.461 393.953 222.104Z" fill="#39A798"/>
</g>
<path d="M121.439 232.475C121.439 232.475 108.924 227.74 100.469 234.842L99.7921 242.283C99.7921 242.283 111.63 231.009 121.439 232.475Z" fill="#4CDFCB"/>
<path d="M369.262 277.235C369.262 277.235 370.615 286.593 377.943 289.298L382.791 287.156C382.678 287.269 371.742 283.887 369.262 277.235Z" fill="#4CDFCB"/>
<path d="M367.571 170.016C367.571 170.016 373.659 177.231 381.325 175.653L384.257 171.256C384.37 171.369 373.208 174.3 367.571 170.016Z" fill="#4CDFCB"/>
<path d="M166.31 280.053C166.31 280.053 160.786 271.147 152.217 271.485L148.159 275.769C148.159 275.656 160.899 274.416 166.31 280.053Z" fill="#F54363"/>
<path d="M207.702 96.6206C207.702 96.6206 216.27 102.596 224.049 98.7627L225.966 93.2383C226.079 93.2383 214.917 99.5519 207.702 96.6206Z" fill="#F54363"/>
<path d="M105.655 306.096C105.655 306.096 112.757 305.533 115.125 300.234L113.772 296.513C113.885 296.513 110.728 304.631 105.655 306.096Z" fill="#FFDD5D"/>
<path d="M191.903 153.894C191.903 153.894 203.064 153.104 207.01 144.649L204.868 138.673C204.868 138.673 199.908 151.413 191.903 153.894Z" fill="#FFDD5D"/>
<g filter="url(#filter4_d)">
<path d="M97.3117 208.01C97.3117 208.01 65.631 167.197 23.578 173.736L6.32831 196.961C6.32831 196.961 67.6604 183.432 97.3117 208.01Z" fill="#E83F50"/>
</g>
<g filter="url(#filter5_d)">
<path d="M299.361 84.2192C299.361 84.2192 338.032 105.528 368.698 86.2485L374.561 62.1216C374.561 62.1216 330.929 93.4641 299.361 84.2192Z" fill="#E83F50"/>
</g>
<mask id="mask0" mask-type="alpha" maskUnits="userSpaceOnUse" x="58" y="58" width="360" height="360">
<path d="M238 417.148C336.941 417.148 417.148 336.941 417.148 238C417.148 139.059 336.941 58.8516 238 58.8516C139.059 58.8516 58.8517 139.059 58.8517 238C58.8517 336.941 139.059 417.148 238 417.148Z" fill="#F0F0F0"/>
</mask>
<g mask="url(#mask0)">
<path opacity="0.69" d="M233.037 418C289.289 418 334.89 412.605 334.89 405.95C334.89 399.296 289.289 393.901 233.037 393.901C176.784 393.901 131.183 399.296 131.183 405.95C131.183 412.605 176.784 418 233.037 418Z" fill="#BBA795"/>
<path d="M159.122 325.857H150.988V408.431H159.122V325.857Z" fill="#9D6F43"/>
<path d="M155.232 313.099C176.805 317.352 190.951 324.794 195.549 342.514C202.622 370.511 202.976 383.978 202.976 383.978L209.342 384.687C209.342 384.687 216.768 339.324 206.512 316.288C196.256 293.607 158.768 285.81 158.768 285.81C158.768 285.81 149.573 285.102 148.159 293.961C147.451 298.214 155.939 307.428 155.232 313.099Z" fill="#AD4944"/>
<path d="M284.317 292.189C284.317 296.088 260.268 299.277 230.915 299.277C201.207 299.277 177.512 296.088 177.512 292.189C177.512 291.835 177.512 289.709 177.512 289.709C180.695 286.165 204.39 285.102 230.915 285.102C256.732 285.102 279.012 286.519 284.317 290.063C284.317 289.709 284.317 291.835 284.317 292.189Z" fill="#9D6F43"/>
<path d="M238.695 294.315H227.024V408.431H238.695V294.315Z" fill="#9D6F43"/>
<path d="M321.805 330.818H313.671V407.013H321.805V330.818Z" fill="#9D6F43"/>
<path d="M177.866 324.439C177.866 328.337 166.902 331.527 153.11 331.527C139.317 331.527 128.354 328.337 128.354 324.439C128.354 323.73 127.646 320.895 128.354 320.541C131.183 317.351 141.439 317.351 153.11 317.351C166.549 316.997 177.866 320.541 177.866 324.439Z" fill="#9D6F43"/>
<path d="M177.512 320.541C177.512 324.439 166.549 327.628 152.756 327.628C138.963 327.628 128 324.439 128 320.541C128 316.642 138.963 313.453 152.756 313.453C166.549 313.453 177.512 316.642 177.512 320.541Z" fill="#BB844C"/>
<path d="M344.085 324.084C344.085 327.983 333.122 331.172 319.329 331.172C305.537 331.172 294.573 327.983 294.573 324.084C294.573 323.375 293.866 320.54 294.573 320.186C297.402 316.996 307.659 316.996 319.329 316.996C331 316.996 340.902 316.288 343.732 319.477C344.085 319.831 344.085 323.375 344.085 324.084Z" fill="#9D6F43"/>
<path d="M318.976 327.628C332.648 327.628 343.732 324.455 343.732 320.541C343.732 316.626 332.648 313.453 318.976 313.453C305.303 313.453 294.219 316.626 294.219 320.541C294.219 324.455 305.303 327.628 318.976 327.628Z" fill="#BB844C"/>
<path d="M262.39 261.357C270.524 258.876 315.085 267.382 308.366 224.145C307.659 219.184 316.5 214.931 319.683 222.373C322.512 229.107 322.866 238.676 321.098 245.055C311.195 278.368 268.402 265.255 264.159 264.546C259.561 264.546 262.39 261.357 262.39 261.357Z" fill="#EFA96F"/>
<path d="M195.195 222.019C190.598 225.563 184.585 251.434 178.927 250.37C174.329 249.307 170.793 228.043 162.659 220.601C159.122 217.412 150.988 221.664 155.232 228.398C159.122 234.068 166.902 261.711 178.22 262.774C194.488 264.192 199.085 228.752 199.085 224.5C199.439 224.145 195.195 222.019 195.195 222.019Z" fill="#EFA96F"/>
<path d="M324.988 309.909C303.415 314.162 286.439 317.706 281.841 335.426C274.768 363.423 275.829 380.08 275.829 380.08L271.232 381.143C271.232 381.143 263.097 335.426 273.354 312.745C283.61 290.063 320.037 278.723 320.037 278.723C320.037 278.723 322.866 293.253 324.988 309.909Z" fill="#E09563"/>
<path d="M284.317 290.063C284.317 293.961 260.268 297.151 230.915 297.151C201.561 297.151 177.512 293.961 177.512 290.063C177.512 286.165 201.561 282.975 230.915 282.975C260.268 282.975 284.317 286.165 284.317 290.063Z" fill="#BB844C"/>
<path d="M168.671 206.071C166.195 207.134 161.951 207.488 160.537 207.134C160.183 207.134 159.829 207.488 159.829 207.843C159.122 210.323 157.354 217.057 157.354 218.12C155.939 222.373 149.22 222.373 149.573 216.703C149.573 213.867 149.927 209.26 149.927 207.843C148.512 207.488 145.329 208.197 143.915 207.843C140.378 206.779 138.256 203.944 137.549 200.4C136.134 195.084 134.72 190.123 134.012 184.807C132.598 178.428 135.073 172.757 140.378 168.15C144.622 164.961 149.22 162.834 154.524 161.771C158.415 161.062 161.598 162.126 164.781 164.606C171.5 169.922 180.342 180.909 179.281 192.604C178.22 200.755 172.207 204.653 168.671 206.071Z" fill="#FCC490"/>
<path d="M164.427 188.706C164.427 189.415 164.073 189.769 163.719 189.769C163.012 189.769 162.659 189.415 162.659 189.06C162.305 188.351 162.659 187.997 163.366 187.643C163.719 187.643 164.427 187.997 164.427 188.706Z" fill="#55382F"/>
<path d="M175.744 186.58C175.744 187.289 175.39 187.643 175.037 187.997C174.329 187.997 173.976 187.643 173.622 187.289C173.622 186.58 173.976 186.225 174.329 185.871C175.39 185.517 175.744 185.871 175.744 186.58Z" fill="#55382F"/>
<path d="M174.329 196.148C171.5 197.211 167.61 197.92 165.488 197.211C165.488 197.92 165.841 198.629 166.195 199.338C167.256 200.401 167.963 200.755 170.085 200.401C171.5 200.046 172.561 200.046 173.622 198.629C173.976 197.92 173.976 196.857 174.329 196.148Z" fill="#E08C94"/>
<path d="M171.5 196.148C170.085 196.502 169.024 196.857 167.61 196.857C166.902 196.857 165.488 197.565 165.488 197.92C165.488 198.274 165.841 198.274 165.841 198.629C166.549 199.692 167.61 200.046 169.732 199.692C171.146 199.337 172.207 199.337 172.915 197.92C173.268 197.565 173.268 197.211 173.268 196.857C173.976 196.148 172.561 195.793 171.5 196.148Z" fill="#C14C34"/>
<path d="M166.549 197.211C167.256 198.274 168.671 198.274 170.439 197.92C171.854 197.566 172.915 197.566 173.622 196.148C171.5 196.857 167.963 197.566 166.549 197.211Z" fill="#FFFCDD"/>
<path d="M174.329 196.148C173.268 195.085 172.561 195.794 170.439 196.148C168.671 196.502 167.61 196.148 165.488 197.566C166.902 197.92 168.671 197.566 170.439 197.211C171.854 196.857 173.268 196.502 174.329 196.148Z" fill="#E08C94"/>
<path d="M172.207 194.022L169.378 194.376C168.671 194.376 167.963 193.667 167.963 192.959C167.963 192.959 168.317 193.313 169.024 193.667C170.085 193.667 171.5 193.667 171.854 192.959C172.207 192.25 170.793 190.124 169.378 188.352C169.732 188.352 171.146 189.415 171.5 190.124L172.915 192.25C173.622 192.959 173.268 194.022 172.207 194.022Z" fill="#DDA078"/>
<path d="M163.366 188.706C163.366 189.06 163.366 189.06 163.012 189.06C162.659 189.06 162.659 189.06 162.659 188.706C162.305 188.352 162.659 188.352 163.012 188.352C163.012 188.352 163.366 188.352 163.366 188.706Z" fill="white"/>
<path d="M174.683 186.579C174.683 186.934 174.683 186.934 174.329 186.934C173.976 186.934 173.976 186.934 173.976 186.579C173.976 186.225 173.976 186.225 174.329 186.225C174.329 186.225 174.683 186.225 174.683 186.579Z" fill="white"/>
<path d="M164.073 194.731C164.427 196.503 163.012 198.275 161.244 198.629C159.476 198.983 157.707 197.566 157.354 195.794C157 194.022 158.415 192.25 160.183 191.895C161.951 191.541 163.719 192.959 164.073 194.731Z" fill="#FF9566"/>
<path d="M178.219 175.239C172.915 162.48 156.646 154.329 141.439 164.607C120.927 178.783 132.598 195.439 131.537 196.148C127.293 198.983 129.768 204.654 133.305 208.197C134.012 208.906 137.902 207.134 137.902 207.134C137.902 207.134 135.78 209.969 136.488 209.969C136.841 209.969 137.195 210.324 137.549 210.324C139.317 211.033 141.793 211.387 143.561 210.678C144.976 209.969 146.744 207.489 146.744 207.489C146.744 207.489 145.683 210.324 146.39 209.969C147.097 209.615 148.158 209.261 149.219 208.906C155.585 205.362 150.28 197.211 149.219 190.832C148.512 186.579 153.817 182.681 155.232 184.099C156.293 185.162 157.707 185.516 159.476 185.871C159.829 185.871 162.305 183.744 162.658 183.744C163.012 183.744 160.89 185.871 161.244 185.871C162.305 185.871 163.012 186.225 165.134 185.162C167.963 184.099 170.793 181.263 171.854 180.2C172.207 179.846 170.085 183.39 170.793 183.035C175.39 180.555 178.927 177.011 178.219 175.239Z" fill="#2D1C1F"/>
<path d="M264.512 261.002C264.512 261.002 262.037 256.75 256.732 257.813C254.256 258.522 253.902 256.75 252.488 257.104C251.78 257.104 251.073 258.522 251.78 259.23C252.841 260.294 254.256 261.002 254.256 261.002C254.256 261.002 248.244 260.648 251.427 264.546C249.658 265.255 251.78 268.799 254.256 268.445C257.085 268.445 259.915 267.382 261.683 266.673C263.805 265.61 263.451 264.546 263.451 264.546L264.512 261.002Z" fill="#EFA96F"/>
<path d="M331 314.516C309.427 318.769 289.976 325.502 289.622 349.601C289.268 366.967 293.866 386.813 293.866 386.813L289.622 388.23C289.622 388.23 269.463 342.868 279.72 320.186C289.976 297.505 327.463 289 327.463 289C327.463 289 329.232 298.214 331 314.516Z" fill="#FCC490"/>
<path d="M271.585 380.788C267.695 355.98 268.402 341.45 268.402 341.45L277.244 341.805L278.305 352.082C278.305 352.082 274.768 372.637 275.829 379.725C276.183 382.206 280.073 388.939 280.073 388.939C280.073 388.939 259.561 399.571 258.146 397.445C257.085 395.673 270.878 385.041 270.878 385.041C270.878 385.041 271.585 381.851 271.585 380.788Z" fill="#AD4944"/>
<path d="M148.866 321.958C172.915 323.73 186.707 327.274 189.89 350.665C191.659 363.068 192.012 376.535 192.366 383.269C192.366 385.75 194.134 387.876 196.61 388.585C196.61 388.585 211.817 341.45 199.085 319.832C187.768 300.34 155.939 292.898 149.927 291.48C149.22 291.48 148.866 291.126 148.159 290.772C145.329 289 136.488 281.203 134.366 291.48C128.354 321.25 145.329 321.958 148.866 321.958Z" fill="#E7685D"/>
<path d="M208.28 383.978L204.037 382.915L199.793 392.129C199.793 392.129 220.305 402.406 221.72 400.28C222.78 398.508 208.988 387.876 208.988 387.876L208.28 383.978Z" fill="#1F231E"/>
<path d="M196.963 385.041L192.719 385.395L191.659 395.673C191.659 395.673 214.293 398.508 215 396.027C215.707 393.901 199.085 388.585 199.085 388.585L196.963 385.041Z" fill="#5B5347"/>
<path d="M163.366 221.31C160.537 215.285 152.756 215.285 146.39 217.766C141.085 219.892 136.488 235.84 135.78 242.574C135.427 248.953 134.012 269.153 134.719 287.582C135.073 300.34 166.549 297.859 166.902 288.645C167.963 268.799 172.207 239.384 163.366 221.31Z" fill="#5B5347"/>
<path d="M194.134 223.082C194.134 223.082 199.085 216.349 204.037 213.514C205.451 212.805 207.22 211.742 208.634 211.387C209.341 211.033 209.341 212.45 208.28 213.514C207.22 214.931 204.744 215.994 204.744 215.994C204.744 215.994 205.805 215.994 210.049 214.931C214.646 213.868 218.89 207.489 217.829 213.159C216.768 219.538 213.939 222.019 211.463 222.728C204.744 224.145 197.317 224.145 197.317 224.145L194.134 223.082Z" fill="#EFA96F"/>
<path d="M293.512 299.277C293.512 299.277 292.805 302.467 288.915 304.593C287.5 305.302 283.256 308.137 281.841 308.846C281.134 309.2 273 313.453 274.061 307.783C275.122 301.404 277.244 298.923 279.72 298.214C286.793 296.442 291.39 295.733 291.39 295.733L293.512 299.277Z" fill="#FCC490"/>
<path d="M334.537 215.64C332.768 212.805 332.061 207.489 338.073 205.008C341.963 203.236 345.5 199.692 347.622 196.148C350.098 197.92 350.451 192.25 351.159 188.706C351.512 187.642 351.512 186.579 351.512 185.516C351.512 185.162 351.512 184.807 351.512 184.098C351.159 172.049 341.256 163.898 329.585 164.252C316.5 164.252 310.134 173.112 309.427 183.744C309.073 189.414 308.012 195.794 312.963 195.085C315.085 198.274 317.207 202.173 321.805 205.008C325.341 207.134 325.341 212.805 322.512 215.64C322.512 215.64 322.159 221.664 327.817 221.664C334.183 221.664 334.89 216.703 334.537 215.64Z" fill="#FCC490"/>
<path d="M335.244 196.148C335.951 196.857 333.122 199.692 329.585 199.692C325.695 199.692 323.573 196.503 324.281 196.148C324.634 195.794 326.049 196.503 329.585 196.857C332.768 196.857 334.537 195.794 335.244 196.148Z" fill="#E072AC"/>
<path d="M333.476 196.148C332.768 196.857 331.707 197.92 329.585 197.92C327.463 197.92 326.049 196.857 325.695 196.148C328.171 196.502 331 196.502 333.476 196.148Z" fill="#F5E8D0"/>
<path d="M323.927 196.148C324.634 195.439 327.464 195.439 329.232 195.439C331.708 195.439 334.537 195.439 334.89 196.502C333.476 196.148 331.354 196.857 329.232 196.502C327.464 196.502 325.342 195.793 323.927 196.148Z" fill="#E072AC"/>
<path d="M335.244 187.997C335.244 188.706 335.951 189.415 336.659 189.415C337.366 189.415 338.073 188.706 338.073 187.997C338.073 187.288 337.366 186.58 336.659 186.58C335.951 186.58 335.244 187.288 335.244 187.997Z" fill="#55382F"/>
<path d="M321.451 187.288C321.451 187.996 322.158 188.705 322.866 188.705C323.573 188.705 324.28 187.996 324.28 187.288C324.28 186.579 323.573 185.87 322.866 185.87C322.158 185.87 321.451 186.579 321.451 187.288Z" fill="#55382F"/>
<path d="M337.012 187.643C337.012 187.997 337.366 188.352 337.366 188.352C337.72 188.352 338.073 187.997 338.073 187.643C338.073 187.288 337.72 186.934 337.72 186.934C337.012 186.934 337.012 187.288 337.012 187.643Z" fill="white"/>
<path d="M322.866 187.288C322.866 187.643 323.219 187.997 323.573 187.997C323.927 187.997 324.28 187.643 324.28 187.288C324.28 186.934 323.927 186.58 323.573 186.58C323.219 186.58 322.866 186.934 322.866 187.288Z" fill="white"/>
<path d="M331 193.667H328.171C327.463 193.667 326.756 192.604 327.11 191.896C327.11 191.896 327.463 192.604 328.171 192.604C329.232 192.959 329.939 193.313 331 192.959C331.707 192.604 332.061 192.25 332.061 192.25C332.415 192.959 331.707 193.667 331 193.667Z" fill="#DDA078"/>
<path d="M335.598 179.137C331 175.593 325.695 171.695 322.866 173.467C320.037 175.593 317.207 189.06 312.963 189.769C312.963 189.769 312.963 187.997 311.549 187.643C310.841 187.288 309.427 187.643 308.72 189.414C308.366 191.895 309.427 194.73 312.61 194.376C314.378 197.92 316.854 201.464 321.805 205.362C323.927 207.134 324.28 210.678 323.22 212.805C317.207 216.349 308.366 245.055 305.89 241.865C295.28 229.107 306.244 174.884 314.378 168.151C319.329 164.252 327.817 163.544 332.061 163.898C336.305 164.252 343.024 166.379 346.915 172.049C355.402 183.744 365.659 250.016 354.695 255.686C352.927 256.395 346.561 262.42 343.024 254.623C337.366 242.219 334.537 213.868 333.122 212.45C332.415 209.969 333.122 208.197 335.598 206.071C337.72 203.945 341.963 202.882 346.207 195.439C348.683 196.857 350.098 192.958 349.744 191.186C349.39 187.997 345.854 187.643 345.854 190.832C346.207 190.832 342.317 184.099 335.598 179.137Z" fill="#E37626"/>
<path d="M343.024 194.376C343.378 196.148 341.963 197.92 340.195 198.274C338.427 198.628 336.659 197.211 336.305 195.439C335.951 193.667 337.366 191.541 339.134 191.541C340.902 191.186 342.671 192.604 343.024 194.376Z" fill="#FF9566"/>
<path d="M322.866 193.668C323.22 195.44 321.805 197.566 320.037 197.566C318.268 197.92 316.5 196.503 316.146 194.731C315.793 192.959 317.207 191.187 318.976 190.833C320.744 190.478 322.512 191.896 322.866 193.668Z" fill="#FF9566"/>
<path d="M202.976 284.747C189.89 280.495 165.134 254.978 155.939 233.714C152.756 225.918 149.22 219.184 145.329 222.019C141.793 224.5 143.915 229.816 146.037 235.486C164.427 282.975 197.671 291.126 202.976 289C206.159 287.228 202.976 284.747 202.976 284.747Z" fill="#FCC490"/>
<path d="M314.378 218.475C315.085 215.64 319.329 214.222 322.866 213.514C323.927 213.514 320.744 218.83 326.402 219.893C333.829 220.956 332.061 214.577 333.476 214.577C335.951 214.931 335.244 214.577 337.012 215.286C342.317 217.412 345.5 226.272 345.854 233.005C346.915 243.283 357.171 296.088 340.902 311.327C337.012 315.225 329.585 318.06 319.683 319.478C308.719 318.415 293.512 296.442 290.683 295.379C315.793 284.747 304.476 254.269 314.378 218.475Z" fill="#2C9185"/>
<path d="M289.268 296.088C307.659 290.417 325.695 258.522 331 235.486C332.768 226.981 335.598 219.538 340.549 221.31C344.793 222.728 344.085 228.753 342.671 234.423C332.061 284.747 296.695 300.34 290.329 299.632C286.439 299.632 289.268 296.088 289.268 296.088Z" fill="#FCC490"/>
<path d="M221.366 291.126H216.768C214.293 291.126 212.171 289 212.171 286.519C212.171 284.038 214.293 281.912 216.768 281.912H221.366C223.841 281.912 225.963 284.038 225.963 286.519C225.963 289 223.841 291.126 221.366 291.126Z" fill="#49E2C8"/>
<path d="M222.073 284.393H215.707C215.354 284.393 215 284.038 215 283.684C215 283.329 215.354 282.975 215.707 282.975H222.073C222.427 282.975 222.78 283.329 222.78 283.684C222.78 284.038 222.427 284.393 222.073 284.393Z" fill="#1F231E"/>
<path d="M213.232 283.684H211.817C210.049 283.684 208.634 285.102 208.634 286.874C208.634 288.646 210.049 290.063 211.817 290.063H213.232C215 290.063 216.415 288.646 216.415 286.874C216.768 285.102 215 283.684 213.232 283.684ZM213.232 289H212.171C211.11 289 210.049 287.937 210.049 286.874C210.049 285.81 211.11 284.747 212.171 284.747H213.232C214.293 284.747 215.354 285.81 215.354 286.874C215.354 287.937 214.293 289 213.232 289Z" fill="#49E2C8"/>
<path d="M241.171 267.736H245.768C248.244 267.736 250.366 265.609 250.366 263.129C250.366 260.648 248.244 258.521 245.768 258.521H241.171C238.695 258.521 236.573 260.648 236.573 263.129C236.573 265.609 238.695 267.736 241.171 267.736Z" fill="#49E2C8"/>
<path d="M240.463 261.003H246.829C247.183 261.003 247.537 260.648 247.537 260.294C247.537 259.939 247.183 259.585 246.829 259.585H240.463C240.11 259.585 239.756 259.939 239.756 260.294C239.756 260.648 240.11 261.003 240.463 261.003Z" fill="#1F231E"/>
<path d="M248.951 260.294H250.366C252.134 260.294 253.549 261.712 253.549 263.484C253.549 265.255 252.134 266.673 250.366 266.673H248.951C247.183 266.673 245.768 265.255 245.768 263.484C245.768 261.712 247.183 260.294 248.951 260.294ZM249.305 265.61H250.366C251.427 265.61 252.488 264.547 252.488 263.484C252.488 262.42 251.427 261.357 250.366 261.357H249.305C248.244 261.357 247.183 262.42 247.183 263.484C247.183 264.547 247.89 265.61 249.305 265.61Z" fill="#49E2C8"/>
<path d="M201.207 284.392C201.207 284.392 204.037 281.912 208.28 282.266C209.341 282.266 210.756 282.62 211.817 282.975C212.171 282.975 212.171 284.392 211.463 284.747C210.049 285.101 208.634 285.101 208.634 285.101C208.634 285.101 211.817 285.456 211.817 286.519C211.817 289.708 211.817 291.126 209.695 291.126C205.805 291.48 200.854 289 200.854 289L201.207 284.392Z" fill="#FCC490"/>
<path d="M251.78 261.002H253.902C254.61 261.002 255.317 261.711 255.317 262.42C255.317 263.129 254.61 263.838 253.902 263.838H251.78C251.073 263.838 250.366 263.129 250.366 262.42C250.366 261.711 251.073 261.002 251.78 261.002Z" fill="#EFA96F"/>
<path d="M289.622 386.812C283.963 375.472 278.305 350.664 278.305 350.664L289.268 350.31C289.268 350.31 289.976 361.296 293.866 387.167C294.22 389.647 294.927 397.444 294.927 397.444C294.927 397.444 271.939 400.279 271.585 397.799C270.878 395.672 287.5 390.356 287.5 390.356C287.5 390.356 289.976 387.521 289.622 386.812Z" fill="#AD4944"/>
</g>
<defs>
<filter id="filter0_d" x="34.7148" y="454.353" width="64.0824" height="32.6272" filterUnits="userSpaceOnUse" color-interpolation-filters="sRGB">
<feFlood flood-opacity="0" result="BackgroundImageFix"/>
<feColorMatrix in="SourceAlpha" type="matrix" values="0 0 0 0 0 0 0 0 0 0 0 0 0 0 0 0 0 0 127 0"/>
<feOffset dx="4" dy="10"/>
<feGaussianBlur stdDeviation="5"/>
<feColorMatrix type="matrix" values="0 0 0 0 0 0 0 0 0 0 0 0 0 0 0 0 0 0 0.12 0"/>
<feBlend mode="normal" in2="BackgroundImageFix" result="effect1_dropShadow"/>
<feBlend mode="normal" in="SourceGraphic" in2="effect1_dropShadow" result="shape"/>
</filter>
<filter id="filter1_d" x="420.874" y="30.7793" width="64.0824" height="32.6272" filterUnits="userSpaceOnUse" color-interpolation-filters="sRGB">
<feFlood flood-opacity="0" result="BackgroundImageFix"/>
<feColorMatrix in="SourceAlpha" type="matrix" values="0 0 0 0 0 0 0 0 0 0 0 0 0 0 0 0 0 0 127 0"/>
<feOffset dx="4" dy="10"/>
<feGaussianBlur stdDeviation="5"/>
<feColorMatrix type="matrix" values="0 0 0 0 0 0 0 0 0 0 0 0 0 0 0 0 0 0 0.12 0"/>
<feBlend mode="normal" in2="BackgroundImageFix" result="effect1_dropShadow"/>
<feBlend mode="normal" in="SourceGraphic" in2="effect1_dropShadow" result="shape"/>
</filter>
<filter id="filter2_d" x="39.1118" y="6.98975" width="80.4301" height="80.4301" filterUnits="userSpaceOnUse" color-interpolation-filters="sRGB">
<feFlood flood-opacity="0" result="BackgroundImageFix"/>
<feColorMatrix in="SourceAlpha" type="matrix" values="0 0 0 0 0 0 0 0 0 0 0 0 0 0 0 0 0 0 127 0"/>
<feOffset dx="4" dy="10"/>
<feGaussianBlur stdDeviation="5"/>
<feColorMatrix type="matrix" values="0 0 0 0 0 0 0 0 0 0 0 0 0 0 0 0 0 0 0.12 0"/>
<feBlend mode="normal" in2="BackgroundImageFix" result="effect1_dropShadow"/>
<feBlend mode="normal" in="SourceGraphic" in2="effect1_dropShadow" result="shape"/>
</filter>
<filter id="filter3_d" x="387.953" y="222.104" width="90.126" height="78.5135" filterUnits="userSpaceOnUse" color-interpolation-filters="sRGB">
<feFlood flood-opacity="0" result="BackgroundImageFix"/>
<feColorMatrix in="SourceAlpha" type="matrix" values="0 0 0 0 0 0 0 0 0 0 0 0 0 0 0 0 0 0 127 0"/>
<feOffset dx="4" dy="10"/>
<feGaussianBlur stdDeviation="5"/>
<feColorMatrix type="matrix" values="0 0 0 0 0 0 0 0 0 0 0 0 0 0 0 0 0 0 0.12 0"/>
<feBlend mode="normal" in2="BackgroundImageFix" result="effect1_dropShadow"/>
<feBlend mode="normal" in="SourceGraphic" in2="effect1_dropShadow" result="shape"/>
</filter>
<filter id="filter4_d" x="0.328308" y="173.027" width="110.983" height="54.9833" filterUnits="userSpaceOnUse" color-interpolation-filters="sRGB">
<feFlood flood-opacity="0" result="BackgroundImageFix"/>
<feColorMatrix in="SourceAlpha" type="matrix" values="0 0 0 0 0 0 0 0 0 0 0 0 0 0 0 0 0 0 127 0"/>
<feOffset dx="4" dy="10"/>
<feGaussianBlur stdDeviation="5"/>
<feColorMatrix type="matrix" values="0 0 0 0 0 0 0 0 0 0 0 0 0 0 0 0 0 0 0.12 0"/>
<feBlend mode="normal" in2="BackgroundImageFix" result="effect1_dropShadow"/>
<feBlend mode="normal" in="SourceGraphic" in2="effect1_dropShadow" result="shape"/>
</filter>
<filter id="filter5_d" x="293.361" y="62.1216" width="95.1995" height="52.1992" filterUnits="userSpaceOnUse" color-interpolation-filters="sRGB">
<feFlood flood-opacity="0" result="BackgroundImageFix"/>
<feColorMatrix in="SourceAlpha" type="matrix" values="0 0 0 0 0 0 0 0 0 0 0 0 0 0 0 0 0 0 127 0"/>
<feOffset dx="4" dy="10"/>
<feGaussianBlur stdDeviation="5"/>
<feColorMatrix type="matrix" values="0 0 0 0 0 0 0 0 0 0 0 0 0 0 0 0 0 0 0.12 0"/>
<feBlend mode="normal" in2="BackgroundImageFix" result="effect1_dropShadow"/>
<feBlend mode="normal" in="SourceGraphic" in2="effect1_dropShadow" result="shape"/>
</filter>
</defs>
</svg>
