<svg width="485" height="487" viewBox="0 0 485 487" fill="none" xmlns="http://www.w3.org/2000/svg">
<g opacity="0.25">
<path opacity="0.25" d="M238 476C369.444 476 476 369.444 476 238C476 106.556 369.444 0 238 0C106.556 0 0 106.556 0 238C0 369.444 106.556 476 238 476Z" fill="#F0F0F0"/>
</g>
<g opacity="0.25">
<path opacity="0.25" d="M237 441.952C349.639 441.952 440.952 350.64 440.952 238.001C440.952 125.361 349.639 34.0488 237 34.0488C124.361 34.0488 33.0483 125.361 33.0483 238.001C33.0483 350.64 124.361 441.952 237 441.952Z" fill="#F0F0F0"/>
</g>
<g filter="url(#filter0_d)">
<path d="M79.611 466.98H45.9009C43.0824 466.98 40.7148 464.613 40.7148 461.794V459.539C40.7148 456.721 43.0824 454.353 45.9009 454.353H79.611C82.4296 454.353 84.7972 456.721 84.7972 459.539V461.794C84.7972 464.613 82.4296 466.98 79.611 466.98Z" fill="#F0F0F0"/>
</g>
<g filter="url(#filter1_d)">
<path d="M465.77 43.4065H432.06C429.241 43.4065 426.874 41.0389 426.874 38.2203V35.9655C426.874 33.1469 429.241 30.7793 432.06 30.7793H465.77C468.588 30.7793 470.956 33.1469 470.956 35.9655V38.2203C470.956 41.1516 468.588 43.4065 465.77 43.4065Z" fill="#F0F0F0"/>
</g>
<g filter="url(#filter2_d)">
<path d="M75.3268 6.98975C58.6409 6.98975 45.1118 20.5189 45.1118 37.2048C45.1118 53.8907 58.6409 67.4199 75.3268 67.4199C92.0127 67.4199 105.542 53.8907 105.542 37.2048C105.542 20.5189 92.0127 6.98975 75.3268 6.98975ZM75.3268 54.9054C65.8564 54.9054 58.0772 47.2389 58.0772 37.6558C58.0772 28.0726 65.7437 20.4061 75.3268 20.4061C84.9099 20.4061 92.5765 28.0726 92.5765 37.6558C92.5765 47.2389 84.7972 54.9054 75.3268 54.9054Z" fill="#FFDD5C"/>
</g>
<path d="M237 417.148C335.941 417.148 416.148 336.941 416.148 238C416.148 139.059 335.941 58.8516 237 58.8516C138.059 58.8516 57.8517 139.059 57.8517 238C57.8517 336.941 138.059 417.148 237 417.148Z" fill="#F0F0F0"/>
<path d="M165.07 132.811C165.07 132.811 156.84 122.213 146.017 123.904L141.507 129.879C141.507 129.879 157.404 126.384 165.07 132.811Z" fill="#FA5C43"/>
<path d="M330.14 212.971C330.14 212.971 327.209 199.893 316.724 196.736L310.072 200.231C309.959 200.231 325.856 203.839 330.14 212.971Z" fill="#FA5C43"/>
<g filter="url(#filter3_d)">
<path d="M393.953 222.104C393.953 222.104 403.085 268.666 440.177 280.617L464.079 268.779C464.079 268.892 408.158 254.461 393.953 222.104Z" fill="#39A798"/>
</g>
<path d="M121.439 232.475C121.439 232.475 108.924 227.74 100.469 234.842L99.7921 242.283C99.7921 242.283 111.63 231.009 121.439 232.475Z" fill="#4CDFCB"/>
<path d="M369.262 277.235C369.262 277.235 370.615 286.593 377.943 289.298L382.791 287.156C382.678 287.269 371.742 283.887 369.262 277.235Z" fill="#4CDFCB"/>
<path d="M367.571 170.016C367.571 170.016 373.659 177.231 381.325 175.653L384.257 171.256C384.37 171.369 373.208 174.3 367.571 170.016Z" fill="#4CDFCB"/>
<path d="M166.31 280.053C166.31 280.053 160.786 271.147 152.217 271.485L148.159 275.769C148.159 275.656 160.899 274.416 166.31 280.053Z" fill="#F54363"/>
<path d="M207.702 96.6206C207.702 96.6206 216.27 102.596 224.049 98.7627L225.966 93.2383C226.079 93.2383 214.917 99.5519 207.702 96.6206Z" fill="#F54363"/>
<path d="M105.655 306.096C105.655 306.096 112.757 305.533 115.125 300.234L113.772 296.513C113.885 296.513 110.728 304.631 105.655 306.096Z" fill="#FFDD5D"/>
<path d="M191.903 153.894C191.903 153.894 203.064 153.104 207.01 144.649L204.868 138.673C204.868 138.673 199.908 151.413 191.903 153.894Z" fill="#FFDD5D"/>
<g filter="url(#filter4_d)">
<path d="M97.3117 208.01C97.3117 208.01 65.631 167.197 23.578 173.736L6.32831 196.961C6.32831 196.961 67.6604 183.432 97.3117 208.01Z" fill="#E83F50"/>
</g>
<g filter="url(#filter5_d)">
<path d="M299.361 84.2192C299.361 84.2192 338.032 105.528 368.698 86.2485L374.561 62.1216C374.561 62.1216 330.929 93.4641 299.361 84.2192Z" fill="#E83F50"/>
</g>
<mask id="mask0" mask-type="alpha" maskUnits="userSpaceOnUse" x="59" y="59" width="359" height="359">
<path d="M238.148 417.296C337.089 417.296 417.297 337.089 417.297 238.148C417.297 139.207 337.089 59 238.148 59C139.207 59 59 139.207 59 238.148C59 337.089 139.207 417.296 238.148 417.296Z" fill="#F0F0F0"/>
</mask>
<g mask="url(#mask0)">
<path d="M194.316 357.697L194.041 481.223L205.051 587.693H234.226L226.244 481.223L226.795 357.697H194.316Z" fill="#A56646"/>
<path d="M217.436 364.575V386.859C217.436 394.012 220.739 400.615 226.794 404.741" stroke="#7E462B" stroke-width="0.7635" stroke-miterlimit="10"/>
<path d="M271.659 357.697L268.08 482.324L277.714 587.693H248.538L234.226 481.774L219.638 357.697H271.659Z" fill="#A56646"/>
<path d="M271.383 364.575H194.316" stroke="#7E462B" stroke-width="0.7635" stroke-miterlimit="10"/>
<path d="M226.794 417.397C226.519 415.746 226.794 364.85 226.794 364.85" stroke="#7E462B" stroke-width="0.7635" stroke-miterlimit="10"/>
<path d="M130.46 291.394C130.46 291.394 130.736 269.66 115.047 266.083L115.322 276.813L105.964 274.612C105.964 274.612 99.9087 273.787 97.7068 275.988C95.7801 278.189 80.3667 299.097 128.809 300.198L130.46 291.394Z" fill="#E6BDA0"/>
<path d="M95.2295 255.354L94.4038 292.495C94.4038 294.971 96.0553 297.447 98.8077 297.722L115.873 300.473C118.35 301.024 120.827 299.373 121.653 296.897L131.836 261.132L95.2295 255.354Z" fill="#45444D"/>
<path d="M134.314 261.957L92.7524 255.354L93.3029 252.603C93.5782 250.952 94.9543 250.127 96.6058 250.402L132.662 256.179C134.314 256.454 135.139 257.83 134.864 259.481L134.314 261.957Z" fill="#D2D4E0"/>
<path d="M129.91 255.629L98.8077 250.677L99.3582 247.65C99.6334 246.275 100.734 245.449 102.111 245.725L128.534 250.126C129.91 250.402 130.736 251.502 130.46 252.878L129.91 255.629Z" fill="#D2D4E0"/>
<path d="M118.35 277.362C117.524 281.489 113.671 284.515 109.542 283.69C105.414 283.14 102.386 279.013 103.212 274.611C104.037 270.485 107.891 267.458 112.019 268.284C116.148 268.834 119.176 272.961 118.35 277.362Z" fill="white"/>
<path d="M91.6514 290.019C90.8257 289.744 90 289.194 90 288.368L91.1009 266.634C91.1009 265.809 92.2019 264.983 93.3028 265.259L95.5048 265.534C98.5324 266.084 100.459 268.285 100.184 270.761L97.7067 286.442C97.1562 288.918 94.4038 290.569 91.6514 290.019Z" fill="#E6BDA0"/>
<path d="M237.804 216.288C237.804 216.288 242.208 244.899 205.051 305.15C205.051 305.15 190.738 326.333 184.408 326.333C173.673 326.058 144.773 316.704 127.983 304.875L130.736 281.765L178.627 291.669L187.435 246.55C188.811 238.297 192.389 228.668 198.17 223.716C198.17 223.716 221.84 199.23 237.804 216.288Z" fill="#4350A2"/>
<path d="M178.352 291.943C178.352 291.943 182.481 295.244 185.233 302.397" stroke="#37468D" stroke-width="0.7635" stroke-miterlimit="10"/>
<path d="M238.63 211.335C238.63 211.335 261.475 215.737 271.659 238.847C271.659 238.847 274.136 277.913 271.659 357.697H194.316C194.316 357.697 192.94 230.043 213.583 213.261L238.63 211.335Z" fill="#4350A2"/>
<path d="M194.867 318.081C194.867 318.081 197.069 279.015 200.371 251.229" stroke="#37468D" stroke-width="0.7635" stroke-miterlimit="10"/>
<path d="M307.99 425.649C315.422 421.523 317.899 412.169 313.495 404.741C309.366 397.312 300.008 394.836 292.577 399.238C285.145 403.365 282.668 412.719 287.072 420.147C291.476 427.575 300.834 429.776 307.99 425.649Z" fill="#E2B99C"/>
<path d="M289.274 370.626L294.779 402.264L311.568 401.714L308.541 368.7" fill="#E2B99C"/>
<path d="M257.071 219.864C257.071 219.864 311.293 250.402 319 390.16L286.246 388.234C286.246 388.234 281.017 293.595 247.713 253.153C247.713 253.153 233.676 237.196 257.071 219.864Z" fill="#4350A2"/>
<path d="M285.145 375.305L318.174 377.781" stroke="#37468D" stroke-width="0.7635" stroke-miterlimit="10"/>
<path d="M272.76 306.525C272.76 306.525 265.053 279.289 257.071 266.083" stroke="#37468D" stroke-width="0.7635" stroke-miterlimit="10"/>
<path d="M238.63 211.337V176.672H213.858V211.337C213.858 218.215 219.363 223.717 226.244 223.717C233.125 223.717 238.63 217.94 238.63 211.337Z" fill="#E6BDA0"/>
<path d="M239.456 178.322C239.456 178.322 236.703 208.035 213.858 207.484V192.628L239.456 178.322Z" fill="#CF9580"/>
<path d="M200.371 139.806C200.371 139.806 179.453 146.959 192.114 165.667L200.371 153.287V139.806Z" fill="#4C231A"/>
<path d="M205.326 171.445C205.326 176.122 201.472 180.249 196.518 180.249C191.839 180.249 187.71 176.397 187.71 171.445C187.71 166.768 191.564 162.642 196.518 162.642C201.472 162.917 205.326 166.768 205.326 171.445Z" fill="#CF9580"/>
<path d="M218.262 202.533C205.05 202.533 194.041 194.555 194.041 181.074V154.663C194.041 148.886 198.72 144.209 204.5 144.209H231.749C237.529 144.209 242.208 148.886 242.208 154.663V177.498C242.483 190.703 229.547 202.533 218.262 202.533Z" fill="#E6BDA0"/>
<path d="M238.355 168.419C238.355 168.419 223.767 160.44 231.749 144.209H245.236C245.236 144.209 249.089 143.383 251.842 147.235C254.869 151.086 247.438 168.694 247.438 168.694H238.355V168.419Z" fill="#4C231A"/>
<path d="M253.217 171.445C253.217 176.122 249.364 180.249 244.41 180.249C239.731 180.249 235.602 176.397 235.602 171.445C235.602 166.768 239.455 162.642 244.41 162.642C249.364 162.917 253.217 166.768 253.217 171.445Z" fill="#E6BDA0"/>
<path d="M206.427 169.794L205.876 177.773C205.876 177.773 206.152 180.799 210.28 179.423" stroke="#CF9580" stroke-width="0.5554" stroke-miterlimit="10" stroke-linecap="round" stroke-linejoin="round"/>
<path d="M207.252 124.951C209.73 123.025 212.757 121.924 216.335 121.924C220.189 121.924 223.767 123.3 226.244 125.501C228.446 123.85 231.474 123.025 234.501 123.025C241.657 123.025 247.437 127.702 248.263 133.754C252.942 134.304 256.52 138.431 256.52 143.383C256.52 148.61 252.667 152.737 247.713 152.737C244.135 152.737 241.107 150.536 239.731 147.235C238.079 147.785 236.428 148.06 234.776 148.06C233.125 148.06 231.198 147.785 229.822 147.235C219.088 148.06 189.362 149.161 188.536 139.807C187.435 129.077 198.169 121.649 207.252 124.951Z" fill="#4C231A"/>
<path d="M233.4 158.79C233.4 158.79 235.052 176.397 231.474 181.9C227.895 187.127 223.767 183.826 209.73 182.175C195.692 180.799 194.316 187.402 194.316 187.402C194.316 187.402 195.692 203.359 214.133 203.359C228.446 203.359 242.758 199.232 238.905 176.673C235.052 153.838 245.786 144.209 245.786 144.209L233.4 158.79Z" fill="#4C231A"/>
<path d="M274.644 362.174C274.644 362.174 249.948 423.288 248.03 467.385L273.685 574.753L296.943 580.745L283.516 471.459L303.896 398.363L296.943 362.414L274.644 362.174Z" fill="#4350A2"/>
<path d="M331.23 470.74C331.23 470.74 332.669 444.138 333.628 417.057C344.657 389.496 333.388 362.174 333.388 362.174H296.943L295.744 372L295.025 372.24L295.504 374.397L292.387 398.363L297.662 470.98L310.37 574.753L333.867 580.745C333.148 580.745 330.511 526.581 331.23 470.74Z" fill="#4350A2"/>
<path d="M271.767 369.844H331.23" stroke="#37468D" stroke-width="0.7635" stroke-miterlimit="10"/>
<path d="M294.545 431.915L292.867 418.974L284.475 404.115" stroke="#37468D" stroke-width="0.7635" stroke-miterlimit="10"/>
<path d="M262.656 302.499L230.527 278.053L217.819 281.169L258.82 326.704C260.018 327.903 262.176 328.142 263.615 326.944L293.107 304.656L283.276 285.243L262.656 302.499Z" fill="#E9BDA0"/>
<path d="M231.726 276.854C231.726 276.854 231.965 257.921 218.299 254.805L218.538 264.152L210.386 262.235C210.386 262.235 205.111 261.516 203.193 263.433C201.515 265.35 187.848 283.564 230.527 284.763L231.726 276.854Z" fill="#E6BDA0"/>
<path d="M200.795 245.219L200.076 277.813C200.076 279.97 201.754 282.127 203.912 282.367L218.778 284.763C220.936 285.243 223.334 283.805 223.813 281.648L232.924 250.492L200.795 245.219Z" fill="#45444D"/>
<path d="M235.082 251.211L198.637 245.22L199.117 242.823C199.357 241.385 200.556 240.666 201.994 240.906L233.644 245.939C235.082 246.178 235.802 247.377 235.562 248.815L235.082 251.211Z" fill="#D2D4E0"/>
<path d="M231.246 245.459L203.912 241.145L204.392 238.509C204.632 237.31 205.591 236.591 206.79 236.831L230.047 240.666C231.246 240.905 231.965 241.864 231.726 243.062L231.246 245.459Z" fill="#D2D4E0"/>
<path d="M221.176 264.391C220.456 268.226 217.1 270.623 213.263 270.143C209.427 269.424 207.029 266.069 207.509 262.235C208.228 258.4 211.585 256.003 215.421 256.483C219.258 257.202 221.655 260.797 221.176 264.391Z" fill="white"/>
<path d="M197.439 275.656C196.719 275.417 196 274.937 196 274.218L196.959 255.046C196.959 254.327 197.918 253.608 198.877 253.847L200.795 254.087C203.433 254.566 205.111 256.484 204.871 258.641L202.714 272.541C202.474 274.698 200.076 276.136 197.439 275.656Z" fill="#E6BDA0"/>
<path d="M289.75 250.732C300.06 250.013 316.604 249.533 326.195 252.17C329.312 253.128 331.23 256.244 330.511 259.359C327.394 273.979 319.241 317.837 325.715 341.803L333.148 362.174H274.405L272.007 308.01L279.44 260.078C280.399 255.045 284.715 251.211 289.75 250.732Z" fill="#C6D4F4"/>
<path d="M278.96 264.632C278.96 264.632 264.574 278.533 263.615 289.078C262.656 299.623 278.96 312.804 278.96 312.804V264.632Z" fill="#C6D4F4"/>
<path d="M324.037 262.714C332.908 260.317 341.54 267.028 341.3 276.375L345.856 332.455C345.856 333.653 345.856 334.612 345.616 335.81L329.791 395.007L320.44 386.139L328.113 328.141L316.844 293.391C316.125 286.201 317.563 264.392 324.037 262.714Z" fill="#E9BDA0"/>
<path d="M320.44 385.18L305.335 402.196C304.616 403.155 304.616 404.353 305.095 405.311C305.814 406.27 307.253 406.51 308.452 406.03L313.967 402.675V416.815C313.967 418.732 315.885 419.931 317.563 419.212L327.154 415.617C327.873 415.377 328.593 414.658 328.832 413.939C330.511 408.427 336.984 393.568 332.908 384.701L320.44 385.18Z" fill="#E9BDA0"/>
<path d="M316.844 250.731C316.844 250.731 337.464 250.731 340.581 266.549C343.458 280.929 346.336 290.036 346.336 290.036L303.177 292.912L316.844 250.731Z" fill="#C6D4F4"/>
<path d="M316.844 291.953L310.37 292.672L309.411 275.896" stroke="#A5B8DD" stroke-width="0.75" stroke-miterlimit="10"/>
<path d="M330.75 241.146C342.271 241.146 351.61 231.811 351.61 220.296C351.61 208.78 342.271 199.445 330.75 199.445C319.23 199.445 309.891 208.78 309.891 220.296C309.891 231.811 319.23 241.146 330.75 241.146Z" fill="#401C16"/>
<path d="M321.879 204.958C321.879 221.494 308.452 234.915 291.908 234.915C275.364 234.915 263.855 221.494 263.855 204.958C263.855 188.421 275.364 175 291.908 175C308.452 175 321.879 188.421 321.879 204.958Z" fill="#4C231A"/>
<path d="M300.06 210.709L283.036 232.997L288.551 250.972C288.551 250.972 288.311 256.484 295.265 258.401C302.218 260.319 312.768 257.682 312.528 250.972L300.06 210.709Z" fill="#E6BDA0"/>
<path d="M296.943 217.419L300.54 212.146C300.54 212.146 307.493 236.832 286.393 243.782L283.036 233.237L296.943 217.419Z" fill="#CF9580"/>
<path d="M282.077 238.509C271.048 238.509 261.937 231.799 261.937 220.774V192.734C261.937 187.941 265.773 183.867 270.808 183.867H293.586C298.382 183.867 302.458 187.701 302.458 192.734V217.898C302.218 228.683 291.428 238.509 282.077 238.509Z" fill="#E6BDA0"/>
<path d="M263.855 210.23L257.381 216.221C256.662 216.94 256.901 218.139 257.621 218.858L262.896 222.213L263.855 210.23Z" fill="#E6BDA0"/>
<path d="M269.609 183.868C269.609 183.868 270.808 206.157 298.382 207.595C298.382 207.595 312.528 201.843 308.932 193.455C305.335 185.066 297.662 178.116 289.99 179.315C282.557 180.513 269.609 183.868 269.609 183.868Z" fill="#4C231A"/>
<path d="M269.849 185.546C269.849 185.546 264.095 188.901 261.937 199.925C261.937 199.925 253.545 194.173 261.937 183.868C270.329 173.563 281.118 186.504 281.118 186.504L269.849 185.546Z" fill="#4C231A"/>
<path d="M308.931 210.709C308.931 214.784 305.814 217.899 301.738 217.899C297.662 217.899 294.545 214.784 294.545 210.709C294.545 206.635 297.662 203.52 301.738 203.52C305.814 203.52 308.931 206.875 308.931 210.709Z" fill="#E6BDA0"/>
</g>
<defs>
<filter id="filter0_d" x="34.7148" y="454.353" width="64.0824" height="32.6272" filterUnits="userSpaceOnUse" color-interpolation-filters="sRGB">
<feFlood flood-opacity="0" result="BackgroundImageFix"/>
<feColorMatrix in="SourceAlpha" type="matrix" values="0 0 0 0 0 0 0 0 0 0 0 0 0 0 0 0 0 0 127 0"/>
<feOffset dx="4" dy="10"/>
<feGaussianBlur stdDeviation="5"/>
<feColorMatrix type="matrix" values="0 0 0 0 0 0 0 0 0 0 0 0 0 0 0 0 0 0 0.12 0"/>
<feBlend mode="normal" in2="BackgroundImageFix" result="effect1_dropShadow"/>
<feBlend mode="normal" in="SourceGraphic" in2="effect1_dropShadow" result="shape"/>
</filter>
<filter id="filter1_d" x="420.874" y="30.7793" width="64.0824" height="32.6272" filterUnits="userSpaceOnUse" color-interpolation-filters="sRGB">
<feFlood flood-opacity="0" result="BackgroundImageFix"/>
<feColorMatrix in="SourceAlpha" type="matrix" values="0 0 0 0 0 0 0 0 0 0 0 0 0 0 0 0 0 0 127 0"/>
<feOffset dx="4" dy="10"/>
<feGaussianBlur stdDeviation="5"/>
<feColorMatrix type="matrix" values="0 0 0 0 0 0 0 0 0 0 0 0 0 0 0 0 0 0 0.12 0"/>
<feBlend mode="normal" in2="BackgroundImageFix" result="effect1_dropShadow"/>
<feBlend mode="normal" in="SourceGraphic" in2="effect1_dropShadow" result="shape"/>
</filter>
<filter id="filter2_d" x="39.1118" y="6.98975" width="80.4301" height="80.4301" filterUnits="userSpaceOnUse" color-interpolation-filters="sRGB">
<feFlood flood-opacity="0" result="BackgroundImageFix"/>
<feColorMatrix in="SourceAlpha" type="matrix" values="0 0 0 0 0 0 0 0 0 0 0 0 0 0 0 0 0 0 127 0"/>
<feOffset dx="4" dy="10"/>
<feGaussianBlur stdDeviation="5"/>
<feColorMatrix type="matrix" values="0 0 0 0 0 0 0 0 0 0 0 0 0 0 0 0 0 0 0.12 0"/>
<feBlend mode="normal" in2="BackgroundImageFix" result="effect1_dropShadow"/>
<feBlend mode="normal" in="SourceGraphic" in2="effect1_dropShadow" result="shape"/>
</filter>
<filter id="filter3_d" x="387.953" y="222.104" width="90.126" height="78.5135" filterUnits="userSpaceOnUse" color-interpolation-filters="sRGB">
<feFlood flood-opacity="0" result="BackgroundImageFix"/>
<feColorMatrix in="SourceAlpha" type="matrix" values="0 0 0 0 0 0 0 0 0 0 0 0 0 0 0 0 0 0 127 0"/>
<feOffset dx="4" dy="10"/>
<feGaussianBlur stdDeviation="5"/>
<feColorMatrix type="matrix" values="0 0 0 0 0 0 0 0 0 0 0 0 0 0 0 0 0 0 0.12 0"/>
<feBlend mode="normal" in2="BackgroundImageFix" result="effect1_dropShadow"/>
<feBlend mode="normal" in="SourceGraphic" in2="effect1_dropShadow" result="shape"/>
</filter>
<filter id="filter4_d" x="0.328308" y="173.027" width="110.983" height="54.9833" filterUnits="userSpaceOnUse" color-interpolation-filters="sRGB">
<feFlood flood-opacity="0" result="BackgroundImageFix"/>
<feColorMatrix in="SourceAlpha" type="matrix" values="0 0 0 0 0 0 0 0 0 0 0 0 0 0 0 0 0 0 127 0"/>
<feOffset dx="4" dy="10"/>
<feGaussianBlur stdDeviation="5"/>
<feColorMatrix type="matrix" values="0 0 0 0 0 0 0 0 0 0 0 0 0 0 0 0 0 0 0.12 0"/>
<feBlend mode="normal" in2="BackgroundImageFix" result="effect1_dropShadow"/>
<feBlend mode="normal" in="SourceGraphic" in2="effect1_dropShadow" result="shape"/>
</filter>
<filter id="filter5_d" x="293.361" y="62.1216" width="95.1995" height="52.1992" filterUnits="userSpaceOnUse" color-interpolation-filters="sRGB">
<feFlood flood-opacity="0" result="BackgroundImageFix"/>
<feColorMatrix in="SourceAlpha" type="matrix" values="0 0 0 0 0 0 0 0 0 0 0 0 0 0 0 0 0 0 127 0"/>
<feOffset dx="4" dy="10"/>
<feGaussianBlur stdDeviation="5"/>
<feColorMatrix type="matrix" values="0 0 0 0 0 0 0 0 0 0 0 0 0 0 0 0 0 0 0.12 0"/>
<feBlend mode="normal" in2="BackgroundImageFix" result="effect1_dropShadow"/>
<feBlend mode="normal" in="SourceGraphic" in2="effect1_dropShadow" result="shape"/>
</filter>
</defs>
</svg>
